# Blender 3.6.22
# www.blender.org
mtllib BOLA_HDA.mtl
o polySurface5_lambert1_0
v 0.032177 0.022848 0.124132
v 0.034189 0.010146 0.065015
v 0.104914 0.025946 0.082259
v -0.387802 0.373260 0.124103
v -0.397788 0.445296 0.082177
v -0.400720 0.372968 0.064969
v 0.032157 0.022992 -0.124122
v 0.104909 0.025963 -0.082256
v 0.034091 0.011385 -0.064854
v -0.387777 0.373260 -0.124101
v -0.400697 0.372971 -0.064966
v -0.398975 0.445421 -0.082379
v 0.264726 0.626770 0.221615
v 0.289857 0.666880 0.126730
v 0.248259 0.709040 0.125272
v 0.217759 0.672447 0.223958
v 0.226009 0.571223 0.302227
v 0.272833 0.513779 0.289508
v 0.305431 0.578643 0.215676
v 0.180885 0.515712 0.352829
v 0.125990 0.562345 0.359241
v 0.085541 0.513817 0.387884
v 0.140982 0.463592 0.381702
v 0.028682 0.445599 0.407552
v 0.094154 0.404527 0.399120
v -0.021693 0.385161 0.408620
v 0.046804 0.343385 0.401511
v -0.060154 0.339016 0.399607
v 0.001602 0.288278 0.391647
v -0.096726 0.295138 0.383144
v -0.041106 0.241362 0.372654
v -0.133356 0.251191 0.357493
v -0.084095 0.199569 0.346946
v -0.168205 0.209380 0.320522
v -0.120285 0.161731 0.308248
v -0.204680 0.165619 0.262966
v -0.149842 0.128204 0.262913
v -0.231526 0.133625 0.204859
v -0.195699 0.108471 0.205221
v -0.262631 0.164428 0.205114
v 0.173081 0.618844 0.307569
v 0.194485 0.422918 0.361966
v 0.218410 0.461774 0.344486
v 0.160840 0.365696 0.375128
v 0.120931 0.297426 0.374945
v 0.074856 0.230943 0.361227
v 0.029645 0.178561 0.338281
v -0.019014 0.141195 0.311755
v -0.065223 0.115413 0.282324
v -0.099960 0.101088 0.258082
v -0.138634 0.082114 0.208338
v -0.078479 0.069275 0.217226
v -0.018933 0.072218 0.234196
v 0.041256 0.090065 0.254653
v 0.099345 0.121819 0.276523
v 0.144319 0.178376 0.307296
v 0.191343 0.260423 0.331939
v 0.224341 0.346370 0.339990
v 0.299201 0.680609 0.064463
v 0.257774 0.720456 0.063709
v 0.368760 0.578507 0.125094
v 0.382420 0.593951 0.064080
v 0.363659 0.618703 0.065662
v 0.349691 0.602563 0.127906
v 0.379980 0.516219 0.116168
v 0.390224 0.529923 0.060906
v 0.391828 0.564520 0.062282
v 0.379739 0.550673 0.121344
v 0.364915 0.479813 0.175007
v 0.361310 0.512112 0.193713
v 0.346671 0.427677 0.219391
v 0.340018 0.454807 0.249748
v 0.296962 0.396891 0.302944
v 0.319219 0.474163 0.262663
v 0.293335 0.493063 0.272864
v 0.271200 0.410363 0.318413
v 0.315551 0.382310 0.282102
v 0.324309 0.363632 0.246013
v 0.292008 0.314445 0.288008
v 0.306521 0.305719 0.249646
v 0.274821 0.234965 0.251450
v 0.259701 0.232314 0.286760
v 0.214465 0.151453 0.255584
v 0.223020 0.156577 0.218757
v 0.159104 0.082200 0.220462
v 0.169386 0.085983 0.187112
v 0.097182 0.039437 0.190875
v 0.107360 0.045658 0.156347
v 0.020834 0.015552 0.160693
v -0.048051 0.020190 0.108670
v -0.059162 0.022691 0.142120
v -0.135747 0.039061 0.129824
v -0.129394 0.035590 0.094027
v -0.208735 0.067995 0.123432
v -0.206123 0.068498 0.083914
v 0.244127 0.421478 0.330696
v 0.040347 0.007494 0.000000
v 0.121868 0.023033 0.000000
v 0.191910 0.053474 0.000000
v 0.187475 0.059496 0.081273
v 0.256193 0.097988 0.000000
v 0.253822 0.107465 0.086824
v 0.311592 0.154170 0.000000
v 0.309833 0.167674 0.090726
v 0.356059 0.218892 0.000000
v 0.353483 0.235020 0.092104
v 0.385399 0.295563 0.000000
v 0.381505 0.309181 0.089873
v 0.405919 0.379118 0.000000
v 0.397175 0.385331 0.085834
v 0.405045 0.462586 -0.000000
v 0.395740 0.453656 0.087484
v 0.379698 0.446737 0.141758
v 0.372383 0.398863 0.155652
v 0.360048 0.332091 0.170163
v 0.335004 0.263644 0.174625
v 0.296018 0.194339 0.172374
v 0.244042 0.127775 0.158845
v 0.183660 0.078232 0.140964
v 0.133612 0.047922 0.129266
v -0.046930 0.009961 0.054619
v -0.044875 0.006894 0.000000
v -0.130815 0.026959 0.046781
v -0.129787 0.025451 0.000000
v -0.209277 0.061525 0.042177
v -0.209238 0.061577 0.000000
v 0.322647 0.624631 0.129998
v 0.331839 0.640275 0.066405
v 0.321779 0.557924 0.208311
v 0.251040 0.334367 0.329948
v 0.214666 0.248560 0.319872
v 0.170831 0.166984 0.294503
v 0.122291 0.103407 0.261585
v 0.062550 0.069370 0.235045
v -0.004511 0.047307 0.211819
v -0.074144 0.043417 0.196003
v -0.141206 0.057773 0.185916
v -0.204982 0.086673 0.181391
v -0.247536 0.114358 0.181810
v 0.344270 0.535592 0.202265
v 0.274323 0.323432 0.312177
v 0.239306 0.237989 0.305854
v 0.195907 0.156597 0.278008
v 0.142780 0.089359 0.243596
v 0.081646 0.050219 0.215154
v 0.008758 0.026455 0.188110
v -0.067623 0.029423 0.170719
v -0.139783 0.045101 0.159453
v -0.208685 0.073803 0.153952
v 0.164349 0.711463 0.221909
v 0.199448 0.743688 0.127080
v 0.116296 0.662736 0.302285
v 0.109319 0.742287 0.215788
v 0.051343 0.698440 0.289553
v 0.069773 0.608238 0.352717
v 0.025706 0.559603 0.381540
v -0.023933 0.502919 0.398932
v -0.075527 0.445357 0.401358
v -0.121157 0.391024 0.390159
v -0.160043 0.340533 0.372580
v -0.192673 0.291135 0.345545
v -0.224214 0.248239 0.308354
v -0.251576 0.213354 0.262689
v -0.298515 0.216096 0.207831
v -0.023903 0.604684 0.361432
v 0.009959 0.635293 0.344188
v -0.074078 0.561412 0.374738
v -0.134089 0.509987 0.374867
v -0.191136 0.452691 0.361080
v -0.234849 0.398797 0.338659
v -0.262460 0.344233 0.311607
v -0.279676 0.294088 0.282383
v -0.286365 0.257934 0.257133
v -0.321948 0.273092 0.216620
v -0.330516 0.331842 0.234265
v -0.323506 0.394312 0.254408
v -0.302965 0.457140 0.276527
v -0.255197 0.511507 0.306920
v -0.183027 0.572483 0.331525
v -0.104478 0.620281 0.339379
v 0.210967 0.754855 0.064658
v 0.138081 0.806486 0.065656
v 0.110358 0.820456 0.064115
v 0.097519 0.804216 0.124987
v 0.124575 0.789505 0.127710
v 0.034494 0.803640 0.116037
v 0.068370 0.810258 0.121361
v 0.079793 0.824318 0.062313
v 0.045908 0.816049 0.060753
v 0.001430 0.782474 0.174905
v 0.033767 0.784874 0.193493
v -0.046388 0.754952 0.221474
v -0.021860 0.749157 0.247475
v 0.002489 0.733952 0.261509
v -0.067936 0.700726 0.302563
v -0.050087 0.677900 0.318049
v 0.027287 0.714962 0.272988
v -0.105406 0.721452 0.245755
v -0.085564 0.716329 0.281785
v -0.158985 0.693362 0.249263
v -0.147935 0.680876 0.287608
v -0.222836 0.649616 0.251168
v -0.222703 0.634290 0.286308
v -0.295328 0.588344 0.220626
v -0.294152 0.575433 0.255331
v -0.350501 0.519412 0.187024
v -0.352182 0.508559 0.220229
v -0.378612 0.451153 0.156258
v -0.382953 0.440072 0.190672
v -0.392994 0.360805 0.160621
v -0.376302 0.293870 0.108666
v -0.372845 0.283021 0.142295
v -0.346588 0.216452 0.094077
v -0.343037 0.210305 0.130088
v -0.300809 0.143777 0.123631
v -0.300295 0.146805 0.083986
v -0.256803 0.103329 0.081807
v -0.259161 0.100579 0.122773
v -0.034283 0.653429 0.330537
v -0.403654 0.461428 -0.000000
v -0.406109 0.378400 0.000000
v -0.386078 0.535610 -0.000000
v -0.379401 0.532345 0.081130
v -0.354312 0.606925 -0.000000
v -0.344595 0.606317 0.086748
v -0.308933 0.671360 -0.000000
v -0.295077 0.671816 0.090521
v -0.252418 0.725469 -0.000000
v -0.233096 0.721734 0.090536
v -0.183971 0.770550 -0.000000
v -0.166786 0.762818 0.088547
v -0.096489 0.794273 0.085111
v -0.104905 0.804388 -0.000000
v -0.030006 0.809041 0.087602
v -0.022799 0.818720 -0.000000
v -0.034273 0.794070 0.142683
v -0.079531 0.775221 0.155490
v -0.143869 0.753281 0.171013
v -0.204204 0.711964 0.173292
v -0.266592 0.663220 0.172090
v -0.322885 0.600365 0.158707
v -0.380792 0.477317 0.128979
v -0.362221 0.532690 0.141393
v -0.389872 0.294626 0.000000
v -0.386496 0.293154 0.054601
v -0.356107 0.214320 0.000000
v -0.353564 0.214313 0.046671
v -0.304810 0.143410 0.042039
v -0.306500 0.142503 0.000000
v -0.261291 0.097932 0.000000
v -0.260432 0.098481 0.040985
v 0.151456 0.767464 0.130038
v 0.165137 0.779248 0.066433
v 0.085794 0.754298 0.208315
v -0.121210 0.644625 0.329917
v -0.199269 0.593560 0.320270
v -0.271272 0.535541 0.294310
v -0.325194 0.476392 0.261572
v -0.348046 0.411488 0.235156
v -0.357385 0.341602 0.211691
v -0.349274 0.272150 0.196306
v -0.322643 0.208939 0.186058
v -0.282197 0.151527 0.181283
v 0.059825 0.772315 0.202128
v -0.136060 0.665380 0.312072
v -0.213820 0.615598 0.305963
v -0.285233 0.557667 0.277653
v -0.342410 0.493884 0.243459
v -0.369982 0.426767 0.215156
v -0.380155 0.350907 0.187971
v -0.364755 0.275838 0.171140
v -0.336116 0.207627 0.159777
v -0.294700 0.145183 0.153975
v -0.256198 0.104050 0.154015
v 0.265383 0.627349 -0.221941
v 0.217709 0.672387 -0.223841
v 0.248314 0.709105 -0.125299
v 0.290796 0.667713 -0.127119
v 0.226094 0.571285 -0.302341
v 0.305547 0.578843 -0.215655
v 0.272474 0.513620 -0.289104
v 0.180903 0.515723 -0.352864
v 0.140827 0.463528 -0.381261
v 0.085456 0.513714 -0.387495
v 0.126028 0.562390 -0.359345
v 0.028855 0.445804 -0.409818
v 0.094201 0.404523 -0.399323
v -0.021697 0.385155 -0.408731
v 0.046935 0.343211 -0.402539
v -0.060198 0.338963 -0.399922
v 0.001591 0.288394 -0.391270
v -0.041095 0.241427 -0.372504
v -0.096709 0.295157 -0.383071
v -0.083721 0.200666 -0.345096
v -0.133154 0.251432 -0.356922
v -0.120333 0.161628 -0.308378
v -0.168395 0.209152 -0.320882
v -0.149925 0.128049 -0.263054
v -0.204656 0.165646 -0.262935
v -0.195665 0.108674 -0.205104
v -0.138329 0.083315 -0.207358
v 0.172998 0.618744 -0.307427
v 0.194307 0.422901 -0.361625
v 0.218361 0.461758 -0.344411
v 0.159882 0.365977 -0.372794
v 0.120959 0.297398 -0.375034
v 0.074854 0.230945 -0.361220
v 0.029680 0.178348 -0.338599
v -0.019015 0.141167 -0.311787
v -0.065209 0.115490 -0.282247
v -0.099760 0.101723 -0.257567
v -0.077989 0.070963 -0.215795
v -0.018922 0.072334 -0.234085
v 0.041261 0.089941 -0.254783
v 0.099334 0.121874 -0.276450
v 0.144277 0.178467 -0.307139
v 0.191584 0.260182 -0.332614
v 0.224134 0.346425 -0.339537
v 0.299714 0.681065 -0.064691
v 0.257873 0.720574 -0.063705
v 0.261180 0.724542 -0.000000
v 0.302660 0.685585 -0.000088
v 0.387120 0.599358 -0.000003
v 0.382369 0.594009 -0.064105
v 0.363955 0.618903 -0.065880
v 0.368675 0.624433 -0.000101
v 0.390375 0.529983 -0.060950
v 0.391565 0.564445 -0.062144
v 0.395934 0.569350 0.000074
v 0.394089 0.535015 -0.000027
v 0.365118 0.479788 -0.175086
v 0.360936 0.512052 -0.193470
v 0.379572 0.550627 -0.121293
v 0.380060 0.516225 -0.116186
v 0.346952 0.427653 -0.219505
v 0.339494 0.454729 -0.249396
v 0.319248 0.474285 -0.262850
v 0.296785 0.396903 -0.302805
v 0.271095 0.410347 -0.318265
v 0.293850 0.493263 -0.273388
v 0.324362 0.363620 -0.246038
v 0.315358 0.382328 -0.281956
v 0.305750 0.305999 -0.249255
v 0.292067 0.314425 -0.288054
v 0.274481 0.235164 -0.251286
v 0.259574 0.232395 -0.286658
v 0.221649 0.157812 -0.218118
v 0.214870 0.151055 -0.255878
v 0.169253 0.086157 -0.187060
v 0.159255 0.081976 -0.220573
v 0.107525 0.045254 -0.156401
v 0.097159 0.039503 -0.190854
v 0.020806 0.015894 -0.160624
v -0.048084 0.019922 -0.108685
v -0.059898 0.018565 -0.142858
v -0.129579 0.034952 -0.094061
v -0.136807 0.035540 -0.130398
v -0.206407 0.067722 -0.083952
v -0.209923 0.066707 -0.123587
v 0.243945 0.421450 -0.330416
v 0.187413 0.059606 -0.081250
v 0.253736 0.107564 -0.086797
v 0.309891 0.167629 -0.090742
v 0.352284 0.235612 -0.091812
v 0.381503 0.309180 -0.089872
v 0.397645 0.385287 -0.085933
v 0.397572 0.453800 -0.087856
v 0.382945 0.446824 -0.142886
v 0.376396 0.398551 -0.157240
v 0.359910 0.332121 -0.170103
v 0.334800 0.263734 -0.174528
v 0.296063 0.194305 -0.172399
v 0.243940 0.127888 -0.158783
v 0.133457 0.048301 -0.129155
v 0.184577 0.076746 -0.141548
v -0.046970 0.009663 -0.054653
v -0.130425 0.027547 -0.046719
v -0.208737 0.063171 -0.042005
v 0.323121 0.625042 -0.130218
v 0.332146 0.640547 -0.066544
v 0.335196 0.645890 -0.000059
v 0.322378 0.558257 -0.208808
v 0.350109 0.602877 -0.128095
v 0.250631 0.334481 -0.329234
v 0.214788 0.248450 -0.320129
v 0.170770 0.167088 -0.294348
v 0.122128 0.103921 -0.261013
v 0.062584 0.069005 -0.235379
v -0.004499 0.047465 -0.211697
v -0.074137 0.043441 -0.195988
v -0.141082 0.057874 -0.185819
v -0.204718 0.086911 -0.181133
v 0.368841 0.578631 -0.125149
v 0.344380 0.535771 -0.202457
v 0.274232 0.323444 -0.311832
v 0.239304 0.237986 -0.305869
v 0.196355 0.156236 -0.278106
v 0.142810 0.089509 -0.243285
v 0.081620 0.050104 -0.215349
v 0.008745 0.026748 -0.188010
v -0.068146 0.026545 -0.171346
v -0.140398 0.042803 -0.159873
v -0.209236 0.073205 -0.153874
v 0.164230 0.711191 -0.221489
v 0.199479 0.743738 -0.127098
v 0.116223 0.662588 -0.302109
v 0.051273 0.698146 -0.289243
v 0.109271 0.742162 -0.215550
v 0.070124 0.609122 -0.354269
v 0.025707 0.559608 -0.381557
v -0.023927 0.502894 -0.398823
v -0.075377 0.445280 -0.400563
v -0.120779 0.391058 -0.388938
v -0.159932 0.340571 -0.372317
v -0.193164 0.290860 -0.346442
v -0.224211 0.248240 -0.308350
v -0.250047 0.214578 -0.261114
v -0.231248 0.133817 -0.204630
v -0.261754 0.165026 -0.204306
v -0.023910 0.604764 -0.361587
v 0.009964 0.635337 -0.344252
v -0.074078 0.561412 -0.374739
v -0.134081 0.509980 -0.374843
v -0.191074 0.452675 -0.360960
v -0.234524 0.398802 -0.338180
v -0.262422 0.344240 -0.311561
v -0.278610 0.294483 -0.281291
v -0.284543 0.258896 -0.255542
v -0.298293 0.216358 -0.207595
v -0.322382 0.272875 -0.217016
v -0.330250 0.331917 -0.234005
v -0.323767 0.394275 -0.254690
v -0.302856 0.457137 -0.276387
v -0.255213 0.511510 -0.306945
v -0.183264 0.572646 -0.332097
v -0.104495 0.620317 -0.339466
v 0.210959 0.754843 -0.064692
v 0.215003 0.758762 -0.000014
v 0.110595 0.820611 -0.064104
v 0.114953 0.826167 0.000018
v 0.142957 0.812713 -0.000067
v 0.138416 0.807131 -0.065820
v 0.079767 0.824044 -0.062178
v 0.046117 0.816483 -0.060926
v 0.050265 0.820844 -0.000097
v 0.083808 0.829146 0.000066
v 0.001325 0.782785 -0.174990
v 0.034451 0.804049 -0.116128
v 0.068342 0.809939 -0.121266
v 0.033742 0.784796 -0.193505
v -0.046628 0.755391 -0.219338
v -0.018758 0.753320 -0.249388
v -0.067902 0.700737 -0.302676
v 0.004002 0.736359 -0.262276
v 0.027194 0.714479 -0.272523
v -0.050091 0.678005 -0.318194
v -0.085524 0.716187 -0.281676
v -0.105421 0.721488 -0.245772
v -0.148037 0.681062 -0.287765
v -0.158943 0.693290 -0.249224
v -0.222826 0.649603 -0.251162
v -0.222789 0.634382 -0.286394
v -0.293927 0.575274 -0.255188
v -0.291313 0.585253 -0.218872
v -0.352145 0.508542 -0.220213
v -0.350594 0.519458 -0.187049
v -0.383156 0.440102 -0.190735
v -0.378662 0.451164 -0.156265
v -0.393017 0.360803 -0.160626
v -0.376083 0.293938 -0.108654
v -0.376030 0.281830 -0.142894
v -0.345345 0.209193 -0.130477
v -0.346719 0.216320 -0.094082
v -0.300839 0.146470 -0.084014
v -0.301303 0.142871 -0.123667
v -0.260213 0.099245 -0.122898
v -0.257168 0.102848 -0.081823
v -0.034273 0.653149 -0.330111
v -0.379371 0.532335 -0.081124
v -0.344274 0.606126 -0.086671
v -0.295147 0.671880 -0.090542
v -0.236171 0.725869 -0.091658
v -0.169332 0.768098 -0.089793
v -0.097337 0.797297 -0.085774
v -0.030119 0.810143 -0.087826
v -0.034303 0.794263 -0.142751
v -0.080573 0.779160 -0.157097
v -0.142775 0.750707 -0.169814
v -0.205302 0.713592 -0.174151
v -0.266523 0.663154 -0.172048
v -0.322917 0.600384 -0.158723
v -0.362132 0.532655 -0.141362
v -0.381076 0.477377 -0.129058
v -0.386715 0.293083 -0.054628
v -0.353903 0.214121 -0.046715
v -0.304937 0.143354 -0.042052
v -0.260271 0.099140 -0.040927
v 0.151533 0.767595 -0.130091
v 0.165202 0.779355 -0.066466
v 0.169979 0.783442 -0.000015
v 0.085982 0.754439 -0.208177
v 0.125000 0.790352 -0.128052
v -0.120965 0.644123 -0.328980
v -0.199139 0.593459 -0.320012
v -0.271033 0.535453 -0.293985
v -0.324844 0.476348 -0.261198
v -0.348340 0.411462 -0.235426
v -0.357173 0.341655 -0.211524
v -0.349228 0.272171 -0.196275
v -0.322819 0.208935 -0.186118
v -0.247320 0.114718 -0.181466
v -0.282398 0.151656 -0.181239
v 0.059945 0.772353 -0.202068
v 0.097815 0.804470 -0.125131
v -0.135981 0.665187 -0.311498
v -0.213754 0.615571 -0.305734
v -0.285487 0.557974 -0.277482
v -0.342163 0.493841 -0.243215
v -0.370261 0.426776 -0.215327
v -0.380077 0.350931 -0.187900
v -0.366810 0.275127 -0.171339
v -0.337740 0.206889 -0.160075
v -0.256723 0.103470 -0.153880
v -0.295193 0.144656 -0.154123
v -0.259161 0.100579 0.122773
v -0.256803 0.103329 0.081807
v -0.260432 0.098481 0.040985
v -0.261291 0.097932 0.000000
v -0.260271 0.099140 -0.040927
v -0.257168 0.102848 -0.081823
v -0.260213 0.099245 -0.122898
v 0.387120 0.599358 -0.000003
v 0.368675 0.624433 -0.000101
v 0.335196 0.645890 -0.000059
v 0.302660 0.685585 -0.000088
v 0.261180 0.724542 -0.000000
v 0.215003 0.758762 -0.000014
v 0.169979 0.783442 -0.000015
v 0.142957 0.812713 -0.000067
v 0.114953 0.826167 0.000018
v 0.382369 0.594009 -0.064105
v 0.387120 0.599358 -0.000003
v 0.368841 0.578631 -0.125149
v 0.344380 0.535771 -0.202457
v 0.319248 0.474285 -0.262850
v 0.296785 0.396903 -0.302805
v 0.274232 0.323444 -0.311832
v 0.239304 0.237986 -0.305869
v 0.196355 0.156236 -0.278106
v 0.142810 0.089509 -0.243285
v 0.081620 0.050104 -0.215349
v 0.008745 0.026748 -0.188010
v -0.068146 0.026545 -0.171346
v -0.140398 0.042803 -0.159873
v -0.209236 0.073205 -0.153874
v -0.256723 0.103470 -0.153880
v -0.295193 0.144656 -0.154123
v -0.256723 0.103470 -0.153880
v -0.337740 0.206889 -0.160075
v -0.366810 0.275127 -0.171339
v -0.380077 0.350931 -0.187900
v -0.370261 0.426776 -0.215327
v -0.342163 0.493841 -0.243215
v -0.285487 0.557974 -0.277482
v -0.213754 0.615571 -0.305734
v -0.135981 0.665187 -0.311498
v -0.067902 0.700737 -0.302676
v 0.004002 0.736359 -0.262276
v 0.059945 0.772353 -0.202068
v 0.097815 0.804470 -0.125131
v 0.110595 0.820611 -0.064104
v 0.114953 0.826167 0.000018
v 0.110358 0.820456 0.064115
v 0.097519 0.804216 0.124987
v 0.059825 0.772315 0.202128
v 0.002489 0.733952 0.261509
v -0.067936 0.700726 0.302563
v -0.136060 0.665380 0.312072
v -0.213820 0.615598 0.305963
v -0.285233 0.557667 0.277653
v -0.342410 0.493884 0.243459
v -0.369982 0.426767 0.215156
v -0.380155 0.350907 0.187971
v -0.364755 0.275838 0.171140
v -0.336116 0.207627 0.159777
v -0.294700 0.145183 0.153975
v -0.256198 0.104050 0.154015
v -0.208685 0.073803 0.153952
v -0.256198 0.104050 0.154015
v -0.139783 0.045101 0.159453
v -0.067623 0.029423 0.170719
v 0.008758 0.026455 0.188110
v 0.081646 0.050219 0.215154
v 0.142780 0.089359 0.243596
v 0.195907 0.156597 0.278008
v 0.239306 0.237989 0.305854
v 0.274323 0.323432 0.312177
v 0.296962 0.396891 0.302944
v 0.319219 0.474163 0.262663
v 0.344270 0.535592 0.202265
v 0.368760 0.578507 0.125094
v 0.382420 0.593951 0.064080
vn 0.1229 -0.9881 0.0929
vn 0.0823 -0.9901 0.1136
vn 0.2862 -0.9469 0.1462
vn -0.9945 -0.0515 0.0910
vn -0.9821 0.1151 0.1492
vn -0.9880 -0.0946 0.1217
vn 0.1318 -0.9880 -0.0803
vn 0.2824 -0.9482 -0.1452
vn 0.0840 -0.9899 -0.1141
vn -0.9952 -0.0489 -0.0853
vn -0.9880 -0.0983 -0.1191
vn -0.9822 0.1150 -0.1486
vn 0.6366 0.5439 0.5467
vn 0.6875 0.6262 0.3677
vn 0.6016 0.7097 0.3666
vn 0.5401 0.6395 0.5471
vn 0.5551 0.4162 0.7202
vn 0.6258 0.3099 0.7158
vn 0.6851 0.4707 0.5559
vn 0.4477 0.2849 0.8476
vn 0.3207 0.3857 0.8651
vn 0.1962 0.2372 0.9514
vn 0.3155 0.1274 0.9403
vn 0.0735 0.0900 0.9932
vn 0.2208 -0.0213 0.9751
vn -0.0430 -0.0464 0.9980
vn 0.1306 -0.1743 0.9760
vn -0.1390 -0.1583 0.9776
vn 0.0384 -0.3071 0.9509
vn -0.2218 -0.2582 0.9403
vn -0.0540 -0.4143 0.9085
vn -0.3147 -0.3691 0.8745
vn -0.1607 -0.5103 0.8449
vn -0.4132 -0.4897 0.7678
vn -0.2822 -0.5947 0.7528
vn -0.4901 -0.5853 0.6459
vn -0.3694 -0.6769 0.6367
vn -0.4968 -0.5926 0.6340
vn -0.4177 -0.6590 0.6255
vn -0.5756 -0.5256 0.6264
vn 0.4384 0.5236 0.7305
vn 0.4508 0.0309 0.8921
vn 0.5378 0.1799 0.8237
vn 0.3684 -0.1304 0.9205
vn 0.2880 -0.2915 0.9122
vn 0.1968 -0.4348 0.8788
vn 0.0968 -0.5579 0.8242
vn -0.0091 -0.6467 0.7627
vn -0.1169 -0.7097 0.6948
vn -0.2336 -0.7556 0.6120
vn -0.3340 -0.7071 0.6232
vn -0.1939 -0.7415 0.6423
vn -0.0566 -0.7365 0.6741
vn 0.0446 -0.6940 0.7186
vn 0.1400 -0.6139 0.7769
vn 0.2453 -0.4967 0.8326
vn 0.3378 -0.3384 0.8783
vn 0.4192 -0.1459 0.8961
vn 0.7231 0.6698 0.1689
vn 0.6355 0.7546 0.1636
vn 0.7961 0.4488 0.4060
vn 0.8705 0.4506 0.1981
vn 0.6709 0.7121 0.2070
vn 0.6753 0.6061 0.4203
vn 0.9744 0.0579 0.2173
vn 0.9902 0.0767 0.1171
vn 0.9801 0.1282 0.1514
vn 0.9394 0.1655 0.3002
vn 0.9505 -0.0048 0.3106
vn 0.8957 0.1566 0.4161
vn 0.9210 -0.0966 0.3773
vn 0.8587 0.0507 0.5099
vn 0.6352 0.0698 0.7692
vn 0.6396 0.2956 0.7096
vn 0.6301 0.2982 0.7170
vn 0.5389 0.1316 0.8320
vn 0.8376 -0.1188 0.5332
vn 0.8861 -0.1931 0.4214
vn 0.8020 -0.2836 0.5256
vn 0.8371 -0.3189 0.4446
vn 0.7782 -0.4752 0.4106
vn 0.7471 -0.4639 0.4760
vn 0.6891 -0.6251 0.3666
vn 0.6808 -0.6352 0.3647
vn 0.5736 -0.7659 0.2904
vn 0.5902 -0.7635 0.2624
vn 0.3467 -0.9160 0.2018
vn 0.3564 -0.9248 0.1328
vn 0.0990 -0.9890 0.1096
vn -0.1008 -0.9891 0.1075
vn -0.1404 -0.9864 0.0856
vn -0.3032 -0.9501 0.0733
vn -0.2968 -0.9484 0.1115
vn -0.4569 -0.8884 0.0438
vn -0.4698 -0.8791 0.0805
vn 0.5422 0.0716 0.8372
vn 0.1107 -0.9938 -0.0039
vn 0.3092 -0.9510 -0.0017
vn 0.4845 -0.8748 -0.0006
vn 0.4851 -0.8586 0.1658
vn 0.6505 -0.7595 -0.0005
vn 0.6471 -0.7374 0.1934
vn 0.7769 -0.6296 -0.0015
vn 0.7712 -0.6014 0.2089
vn 0.8849 -0.4658 -0.0034
vn 0.8748 -0.4371 0.2089
vn 0.9551 -0.2963 -0.0018
vn 0.9429 -0.2665 0.1999
vn 0.9933 -0.1156 0.0037
vn 0.9767 -0.1022 0.1889
vn 0.9976 0.0694 0.0051
vn 0.9806 0.0580 0.1872
vn 0.9421 0.0304 0.3340
vn 0.9250 -0.0820 0.3709
vn 0.8957 -0.2084 0.3927
vn 0.8370 -0.3744 0.3992
vn 0.7344 -0.5442 0.4057
vn 0.6266 -0.6810 0.3791
vn 0.5080 -0.7991 0.3216
vn 0.3544 -0.8985 0.2591
vn -0.1035 -0.9881 0.1140
vn -0.0927 -0.9957 -0.0031
vn -0.3052 -0.9469 0.1010
vn -0.3046 -0.9525 -0.0071
vn -0.4791 -0.8732 0.0897
vn -0.4802 -0.8770 -0.0137
vn 0.6924 0.6076 0.3892
vn 0.6862 0.7025 0.1889
vn 0.6786 0.4534 0.5779
vn 0.4256 -0.1359 0.8947
vn 0.3332 -0.3419 0.8787
vn 0.2477 -0.4976 0.8313
vn 0.1431 -0.6214 0.7703
vn 0.0263 -0.6936 0.7199
vn -0.0708 -0.7429 0.6656
vn -0.1918 -0.7746 0.6027
vn -0.3125 -0.7613 0.5681
vn -0.4026 -0.7177 0.5682
vn -0.5237 -0.6259 0.5779
vn 0.7058 0.4164 0.5731
vn 0.5952 -0.2008 0.7781
vn 0.4960 -0.3956 0.7730
vn 0.4118 -0.5676 0.7129
vn 0.3055 -0.7037 0.6415
vn 0.1316 -0.8003 0.5849
vn -0.0266 -0.8778 0.4783
vn -0.1806 -0.9224 0.3413
vn -0.3182 -0.9070 0.2759
vn -0.4468 -0.8506 0.2771
vn 0.4212 0.7223 0.5486
vn 0.4945 0.7881 0.3666
vn 0.3087 0.6190 0.7222
vn 0.3313 0.7629 0.5552
vn 0.1884 0.6711 0.7170
vn 0.1977 0.4911 0.8484
vn 0.0665 0.3347 0.9400
vn -0.0612 0.2150 0.9747
vn -0.1978 0.0938 0.9757
vn -0.3077 -0.0171 0.9513
vn -0.3959 -0.1288 0.9092
vn -0.4725 -0.2511 0.8448
vn -0.5340 -0.3805 0.7550
vn -0.6044 -0.4836 0.6331
vn -0.6315 -0.4495 0.6318
vn -0.0535 0.4496 0.8916
vn 0.0778 0.5594 0.8253
vn -0.1948 0.3415 0.9195
vn -0.3394 0.2301 0.9121
vn -0.4603 0.1165 0.8801
vn -0.5645 -0.0070 0.8254
vn -0.6332 -0.1293 0.7631
vn -0.6759 -0.2444 0.6953
vn -0.7051 -0.3705 0.6046
vn -0.6858 -0.3297 0.6488
vn -0.7113 -0.1915 0.6763
vn -0.6913 -0.0823 0.7179
vn -0.6291 0.0280 0.7768
vn -0.5312 0.1538 0.8332
vn -0.3915 0.2689 0.8800
vn -0.2165 0.3837 0.8977
vn 0.5297 0.8321 0.1644
vn 0.5770 0.7894 0.2093
vn 0.2861 0.9371 0.1998
vn 0.3017 0.8621 0.4072
vn 0.4690 0.7771 0.4197
vn -0.1062 0.9714 0.2123
vn -0.0108 0.9542 0.2989
vn -0.0578 0.9871 0.1491
vn -0.0993 0.9886 0.1131
vn -0.1601 0.9293 0.3329
vn -0.0121 0.8996 0.4365
vn -0.2399 0.8827 0.4040
vn -0.0935 0.8472 0.5229
vn 0.1464 0.7058 0.6932
vn -0.0509 0.6598 0.7497
vn 0.0258 0.5632 0.8259
vn 0.1626 0.6882 0.7070
vn -0.3494 0.8297 0.4353
vn -0.2527 0.8070 0.5337
vn -0.4744 0.7608 0.4428
vn -0.4260 0.7411 0.5189
vn -0.5935 0.6935 0.4085
vn -0.5827 0.6450 0.4944
vn -0.7414 0.5614 0.3676
vn -0.7335 0.5414 0.4110
vn -0.8678 0.4195 0.2662
vn -0.8598 0.4032 0.3132
vn -0.9739 0.1824 0.1351
vn -0.9638 0.1782 0.1984
vn -0.9918 -0.0722 0.1050
vn -0.9570 -0.2740 0.0953
vn -0.9487 -0.3071 0.0750
vn -0.8815 -0.4644 0.0851
vn -0.8805 -0.4700 0.0615
vn -0.7883 -0.6141 0.0387
vn -0.7826 -0.6202 0.0545
vn -0.6412 -0.7660 0.0458
vn -0.6372 -0.7703 0.0240
vn -0.0280 0.5432 0.8391
vn -0.9899 0.1417 0.0036
vn -0.9977 -0.0684 0.0029
vn -0.9474 0.3201 0.0010
vn -0.9330 0.3220 0.1609
vn -0.8644 0.5028 -0.0010
vn -0.8407 0.5072 0.1897
vn -0.7492 0.6623 0.0053
vn -0.7112 0.6714 0.2084
vn -0.6132 0.7897 0.0200
vn -0.5781 0.7881 0.2113
vn -0.4728 0.8807 0.0279
vn -0.4510 0.8690 0.2037
vn -0.2981 0.9364 0.1854
vn -0.2985 0.9542 0.0196
vn -0.1300 0.9747 0.1818
vn -0.1176 0.9930 0.0080
vn -0.1481 0.9322 0.3304
vn -0.2611 0.8992 0.3510
vn -0.3901 0.8439 0.3683
vn -0.5270 0.7642 0.3718
vn -0.6501 0.6583 0.3796
vn -0.7833 0.5085 0.3576
vn -0.9499 0.1771 0.2576
vn -0.8843 0.3525 0.3062
vn -0.9602 -0.2791 0.0018
vn -0.9516 -0.2843 0.1165
vn -0.8807 -0.4737 0.0030
vn -0.8748 -0.4743 0.0990
vn -0.7752 -0.6254 0.0892
vn -0.7780 -0.6282 0.0007
vn -0.6427 -0.7661 -0.0082
vn -0.6426 -0.7614 0.0855
vn 0.4604 0.7991 0.3866
vn 0.5599 0.8074 0.1861
vn 0.3088 0.7584 0.5740
vn -0.2056 0.3917 0.8968
vn -0.3952 0.2626 0.8803
vn -0.5365 0.1557 0.8294
vn -0.6384 0.0340 0.7690
vn -0.6882 -0.0990 0.7187
vn -0.7152 -0.2010 0.6694
vn -0.7146 -0.3255 0.6192
vn -0.6772 -0.4439 0.5869
vn -0.6272 -0.5227 0.5774
vn 0.2578 0.7760 0.5757
vn -0.3069 0.5577 0.7712
vn -0.4856 0.4250 0.7639
vn -0.6366 0.3086 0.7067
vn -0.7495 0.1808 0.6369
vn -0.8156 -0.0107 0.5785
vn -0.8607 -0.1762 0.4776
vn -0.8738 -0.3373 0.3504
vn -0.8276 -0.4804 0.2904
vn -0.7484 -0.5962 0.2907
vn -0.6113 -0.7368 0.2888
vn 0.6339 0.5437 -0.5501
vn 0.5329 0.6437 -0.5492
vn 0.5940 0.7155 -0.3678
vn 0.6844 0.6296 -0.3678
vn 0.5549 0.4144 -0.7214
vn 0.6842 0.4674 -0.5599
vn 0.6226 0.3088 -0.7191
vn 0.4478 0.2825 -0.8483
vn 0.3228 0.1221 -0.9385
vn 0.2015 0.2379 -0.9502
vn 0.3244 0.3807 -0.8659
vn 0.0714 0.0933 -0.9931
vn 0.2369 -0.0235 -0.9713
vn -0.0548 -0.0484 -0.9973
vn 0.1356 -0.1797 -0.9743
vn -0.1448 -0.1563 -0.9770
vn 0.0364 -0.3104 -0.9499
vn -0.0607 -0.4178 -0.9065
vn -0.2218 -0.2611 -0.9395
vn -0.1615 -0.5088 -0.8456
vn -0.3059 -0.3745 -0.8753
vn -0.2747 -0.5909 -0.7585
vn -0.4105 -0.4903 -0.7688
vn -0.3661 -0.6851 -0.6298
vn -0.4982 -0.5838 -0.6411
vn -0.4165 -0.6615 -0.6236
vn -0.3262 -0.7073 -0.6271
vn 0.4389 0.5257 -0.7287
vn 0.4476 0.0202 -0.8940
vn 0.5399 0.1763 -0.8230
vn 0.3733 -0.1252 -0.9192
vn 0.2908 -0.2873 -0.9126
vn 0.1952 -0.4363 -0.8784
vn 0.0933 -0.5578 -0.8247
vn -0.0149 -0.6449 -0.7642
vn -0.1196 -0.7099 -0.6941
vn -0.2339 -0.7675 -0.5968
vn -0.2013 -0.7374 -0.6448
vn -0.0670 -0.7363 -0.6733
vn 0.0442 -0.6947 -0.7179
vn 0.1447 -0.6147 -0.7754
vn 0.2465 -0.4993 -0.8306
vn 0.3373 -0.3325 -0.8807
vn 0.4151 -0.1372 -0.8994
vn 0.7221 0.6724 -0.1629
vn 0.6314 0.7585 -0.1612
vn 0.6412 0.7674 0.0019
vn 0.7302 0.6832 0.0036
vn 0.8911 0.4538 0.0003
vn 0.8747 0.4433 -0.1961
vn 0.6749 0.7093 -0.2037
vn 0.6723 0.7403 0.0021
vn 0.9897 0.0889 -0.1124
vn 0.9800 0.1290 -0.1515
vn 0.9924 0.1230 -0.0007
vn 0.9967 0.0808 0.0006
vn 0.9439 0.0240 -0.3293
vn 0.8962 0.1543 -0.4159
vn 0.9398 0.1642 -0.2996
vn 0.9728 0.0816 -0.2168
vn 0.9105 -0.0938 -0.4028
vn 0.8585 0.0504 -0.5104
vn 0.6499 0.2845 -0.7048
vn 0.6361 0.0651 -0.7689
vn 0.5330 0.1293 -0.8362
vn 0.6226 0.3004 -0.7226
vn 0.8786 -0.2018 -0.4328
vn 0.8373 -0.1187 -0.5336
vn 0.8366 -0.3208 -0.4440
vn 0.8041 -0.2850 -0.5217
vn 0.7799 -0.4754 -0.4071
vn 0.7552 -0.4636 -0.4634
vn 0.6822 -0.6339 -0.3644
vn 0.6997 -0.6236 -0.3486
vn 0.5954 -0.7570 -0.2690
vn 0.5804 -0.7644 -0.2809
vn 0.3534 -0.9258 -0.1339
vn 0.3440 -0.9166 -0.2038
vn 0.1145 -0.9879 -0.1049
vn -0.0859 -0.9935 -0.0745
vn -0.1189 -0.9909 -0.0629
vn -0.2973 -0.9526 -0.0649
vn -0.3093 -0.9498 -0.0474
vn -0.4705 -0.8816 -0.0380
vn -0.4650 -0.8847 -0.0335
vn 0.5353 0.0688 -0.8419
vn 0.4861 -0.8587 -0.1620
vn 0.6492 -0.7364 -0.1905
vn 0.7735 -0.5983 -0.2091
vn 0.8750 -0.4364 -0.2095
vn 0.9400 -0.2784 -0.1972
vn 0.9777 -0.1163 -0.1747
vn 0.9827 0.0663 -0.1729
vn 0.9403 0.0565 -0.3355
vn 0.9213 -0.0958 -0.3768
vn 0.8900 -0.2265 -0.3957
vn 0.8372 -0.3746 -0.3986
vn 0.7327 -0.5436 -0.4095
vn 0.6252 -0.6777 -0.3871
vn 0.3466 -0.9025 -0.2556
vn 0.5103 -0.7964 -0.3246
vn -0.0995 -0.9887 -0.1122
vn -0.3089 -0.9463 -0.0949
vn -0.4791 -0.8739 -0.0825
vn 0.6965 0.6030 -0.3888
vn 0.6900 0.7004 -0.1826
vn 0.6872 0.7265 0.0037
vn 0.6758 0.4549 -0.5800
vn 0.6787 0.6033 -0.4188
vn 0.4282 -0.1335 -0.8938
vn 0.3371 -0.3406 -0.8777
vn 0.2444 -0.5007 -0.8304
vn 0.1436 -0.6195 -0.7718
vn 0.0280 -0.6932 -0.7202
vn -0.0749 -0.7323 -0.6769
vn -0.1934 -0.7402 -0.6440
vn -0.3101 -0.7282 -0.6112
vn -0.3982 -0.7017 -0.5907
vn 0.8043 0.4377 -0.4018
vn 0.7176 0.4036 -0.5676
vn 0.5923 -0.1981 -0.7810
vn 0.4949 -0.3919 -0.7756
vn 0.4045 -0.5667 -0.7178
vn 0.2984 -0.7015 -0.6472
vn 0.1312 -0.8006 -0.5847
vn -0.0143 -0.8703 -0.4923
vn -0.1719 -0.9047 -0.3898
vn -0.3312 -0.8850 -0.3272
vn -0.4525 -0.8341 -0.3153
vn 0.4202 0.7220 -0.5497
vn 0.4938 0.7876 -0.3686
vn 0.3107 0.6232 -0.7177
vn 0.1870 0.6755 -0.7133
vn 0.3335 0.7595 -0.5585
vn 0.1989 0.4924 -0.8473
vn 0.0639 0.3342 -0.9403
vn -0.0678 0.2180 -0.9736
vn -0.2062 0.0912 -0.9743
vn -0.3086 -0.0158 -0.9511
vn -0.3931 -0.1227 -0.9113
vn -0.4734 -0.2495 -0.8448
vn -0.5491 -0.3851 -0.7417
vn -0.6120 -0.4790 -0.6293
vn -0.5039 -0.5870 -0.6336
vn -0.5739 -0.5156 -0.6362
vn -0.0577 0.4501 -0.8911
vn 0.0683 0.5675 -0.8205
vn -0.1932 0.3392 -0.9207
vn -0.3375 0.2242 -0.9143
vn -0.4585 0.1114 -0.8817
vn -0.5616 -0.0039 -0.8274
vn -0.6347 -0.1293 -0.7618
vn -0.6794 -0.2560 -0.6877
vn -0.6949 -0.3753 -0.6134
vn -0.6184 -0.4439 -0.6485
vn -0.6724 -0.3308 -0.6621
vn -0.7070 -0.2019 -0.6778
vn -0.6889 -0.0858 -0.7197
vn -0.6282 0.0304 -0.7775
vn -0.5344 0.1525 -0.8314
vn -0.3936 0.2725 -0.8780
vn -0.2170 0.3898 -0.8949
vn 0.5298 0.8322 -0.1638
vn 0.5402 0.8416 0.0005
vn 0.2736 0.9417 -0.1958
vn 0.2804 0.9599 0.0020
vn 0.6079 0.7940 0.0032
vn 0.5791 0.7891 -0.2050
vn -0.0561 0.9872 -0.1491
vn -0.0911 0.9898 -0.1093
vn -0.1020 0.9948 0.0024
vn -0.0661 0.9978 0.0001
vn -0.1507 0.9328 -0.3273
vn -0.0968 0.9719 -0.2145
vn -0.0092 0.9542 -0.2991
vn -0.0070 0.9080 -0.4190
vn -0.2611 0.8781 -0.4010
vn -0.1037 0.8520 -0.5131
vn -0.0476 0.6376 -0.7689
vn 0.1729 0.6840 -0.7087
vn 0.1778 0.6736 -0.7174
vn 0.0307 0.5525 -0.8330
vn -0.2681 0.8020 -0.5337
vn -0.3580 0.8284 -0.4308
vn -0.4245 0.7396 -0.5223
vn -0.4662 0.7668 -0.4412
vn -0.6050 0.6829 -0.4093
vn -0.5910 0.6508 -0.4766
vn -0.7381 0.5611 -0.3747
vn -0.7440 0.5568 -0.3694
vn -0.8561 0.4237 -0.2959
vn -0.8574 0.4369 -0.2720
vn -0.9637 0.1783 -0.1985
vn -0.9733 0.1815 -0.1404
vn -0.9935 -0.0599 -0.0973
vn -0.9611 -0.2662 -0.0737
vn -0.9545 -0.2933 -0.0530
vn -0.8794 -0.4746 -0.0380
vn -0.8844 -0.4628 -0.0613
vn -0.7833 -0.6205 -0.0365
vn -0.7865 -0.6169 -0.0291
vn -0.6400 -0.7681 -0.0217
vn -0.6402 -0.7680 -0.0183
vn -0.0301 0.5472 -0.8365
vn -0.9315 0.3268 -0.1599
vn -0.8409 0.5069 -0.1898
vn -0.7251 0.6567 -0.2071
vn -0.5907 0.7793 -0.2094
vn -0.4453 0.8727 -0.2004
vn -0.2892 0.9410 -0.1758
vn -0.1139 0.9786 -0.1715
vn -0.1163 0.9347 -0.3360
vn -0.2623 0.8883 -0.3770
vn -0.3841 0.8344 -0.3954
vn -0.5206 0.7561 -0.3966
vn -0.6638 0.6314 -0.4009
vn -0.7805 0.5002 -0.3750
vn -0.8783 0.3576 -0.3175
vn -0.9472 0.1806 -0.2648
vn -0.9519 -0.2831 -0.1172
vn -0.8754 -0.4735 -0.0969
vn -0.7742 -0.6274 -0.0836
vn -0.6382 -0.7659 -0.0783
vn 0.4667 0.7937 -0.3902
vn 0.5658 0.8037 -0.1842
vn 0.5899 0.8075 0.0016
vn 0.3190 0.7495 -0.5801
vn 0.4717 0.7740 -0.4224
vn -0.2093 0.3974 -0.8935
vn -0.3980 0.2715 -0.8763
vn -0.5395 0.1573 -0.8272
vn -0.6372 0.0373 -0.7698
vn -0.6876 -0.0985 -0.7194
vn -0.7107 -0.2002 -0.6744
vn -0.7016 -0.3194 -0.6370
vn -0.6582 -0.4422 -0.6093
vn -0.5167 -0.6169 -0.5937
vn -0.6109 -0.5171 -0.5995
vn 0.2761 0.7705 -0.5746
vn 0.2876 0.8675 -0.4059
vn -0.3034 0.5496 -0.7784
vn -0.4804 0.4195 -0.7702
vn -0.6356 0.3050 -0.7092
vn -0.7471 0.1808 -0.6396
vn -0.8143 -0.0106 -0.5803
vn -0.8541 -0.1681 -0.4922
vn -0.8607 -0.3295 -0.3882
vn -0.8115 -0.4869 -0.3233
vn -0.6066 -0.7293 -0.3166
vn -0.7379 -0.5976 -0.3137
vn -0.6426 -0.7661 -0.0082
vn -0.6400 -0.7681 -0.0216
vn 0.5401 0.8416 0.0005
vn 0.8747 0.4432 -0.1962
vn 0.5924 -0.1981 -0.7809
vn 0.4949 -0.3920 -0.7755
vn 0.1313 -0.8005 -0.5847
vn -0.6065 -0.7294 -0.3165
vn -0.7379 -0.5976 -0.3136
vn -0.6066 -0.7293 -0.3165
vn -0.8114 -0.4869 -0.3233
vn -0.3034 0.5497 -0.7784
vn 0.2737 0.9417 -0.1958
vn 0.2862 0.9371 0.1998
vn 0.1464 0.7057 0.6932
vn -0.0510 0.6598 0.7497
vn -0.7483 -0.5962 0.2907
vn -0.6113 -0.7368 0.2889
vn 0.3055 -0.7037 0.6414
vn 0.4960 -0.3957 0.7730
vn 0.6352 0.0697 0.7692
vt 0.276146 0.128538
vt 0.374498 0.125902
vt 0.352222 0.210909
vt 0.710456 0.138411
vt 0.637914 0.230266
vt 0.612548 0.137758
vt 0.680032 0.121594
vt 0.609228 0.206427
vt 0.581570 0.122383
vt 0.308658 0.140136
vt 0.406741 0.138672
vt 0.382674 0.231482
vt 0.400294 0.062095
vt 0.407526 -0.069631
vt 0.510520 -0.081047
vt 0.510763 0.053251
vt 0.394908 0.188064
vt 0.268930 0.202169
vt 0.290660 0.072794
vt 0.396667 0.289175
vt 0.511112 0.283416
vt 0.511190 0.360609
vt 0.395095 0.370318
vt 0.511278 0.459634
vt 0.394601 0.455905
vt 0.511351 0.544361
vt 0.391139 0.540594
vt 0.511415 0.609634
vt 0.390381 0.618932
vt 0.511512 0.673632
vt 0.394052 0.690901
vt 0.511641 0.741675
vt 0.402899 0.761718
vt 0.511890 0.814384
vt 0.405538 0.834176
vt 0.512521 0.907576
vt 0.403517 0.907294
vt 0.513061 0.993195
vt 0.437478 0.994412
vt 0.588467 0.984390
vt 0.510963 0.181067
vt 0.283860 0.369416
vt 0.292150 0.312061
vt 0.269734 0.447898
vt 0.249844 0.538993
vt 0.238264 0.633379
vt 0.238370 0.716925
vt 0.257425 0.791659
vt 0.284732 0.857634
vt 0.311005 0.905175
vt 0.331891 0.982798
vt 0.236106 0.952033
vt 0.159774 0.901620
vt 0.099300 0.834736
vt 0.058229 0.754746
vt 0.067572 0.655388
vt 0.100475 0.532857
vt 0.153355 0.420699
vt 0.407983 -0.151127
vt 0.510328 -0.160628
vt 0.195519 -0.044987
vt 0.190392 -0.128267
vt 0.246330 -0.133659
vt 0.251103 -0.049923
vt 0.302194 0.915021
vt 0.398294 0.934021
vt 0.395758 0.978253
vt 0.290928 0.958708
vt 0.201957 0.865140
vt 0.165593 0.904001
vt 0.128341 0.795397
vt 0.071637 0.825881
vt 0.100711 0.307252
vt 0.152311 0.192147
vt 0.211666 0.196620
vt 0.156743 0.317033
vt 0.018559 0.729311
vt 0.084736 0.710713
vt 0.010113 0.637679
vt 0.081714 0.635151
vt 0.081382 0.539014
vt 0.019436 0.526778
vt 0.071100 0.412653
vt 0.132549 0.423868
vt 0.129981 0.305108
vt 0.185552 0.316857
vt 0.173622 0.213443
vt 0.231917 0.225909
vt 0.215187 0.116353
vt 0.294785 0.029416
vt 0.237427 0.017346
vt 0.252868 -0.080989
vt 0.313979 -0.074026
vt 0.258092 -0.179377
vt 0.325705 -0.178961
vt 0.208749 0.328305
vt 0.478206 0.130149
vt 0.481225 0.225034
vt 0.483921 0.310197
vt 0.360520 0.312282
vt 0.486572 0.396203
vt 0.357743 0.404220
vt 0.489215 0.481685
vt 0.355411 0.494680
vt 0.491839 0.566335
vt 0.355747 0.582652
vt 0.494673 0.655964
vt 0.358949 0.670421
vt 0.497673 0.751982
vt 0.364530 0.758432
vt 0.500636 0.849650
vt 0.358039 0.838466
vt 0.266087 0.827098
vt 0.245424 0.768492
vt 0.227873 0.687446
vt 0.222514 0.603083
vt 0.225681 0.512056
vt 0.242859 0.414487
vt 0.263761 0.323089
vt 0.279220 0.254116
vt 0.386328 0.029269
vt 0.475058 0.030105
vt 0.394341 -0.074725
vt 0.471703 -0.074569
vt 0.397202 -0.180180
vt 0.468175 -0.181742
vt 0.313652 -0.052696
vt 0.315360 -0.138143
vt 0.242561 0.073589
vt 0.101513 0.413232
vt 0.050306 0.529976
vt 0.012271 0.652553
vt 0.000090 0.764039
vt 0.038830 0.852199
vt 0.105495 0.930743
vt 0.198123 0.987329
vt 0.306035 1.021533
vt 0.425024 1.036261
vt 0.513190 1.035538
vt 0.184212 0.074775
vt 0.047435 0.405349
vt -0.003533 0.524928
vt -0.045041 0.651062
vt -0.055362 0.773166
vt -0.019055 0.870436
vt 0.053834 0.958991
vt 0.162903 1.018384
vt 0.282535 1.057207
vt 0.412586 1.075096
vt 0.622141 0.047213
vt 0.614527 -0.083414
vt 0.627962 0.172701
vt 0.731890 0.043643
vt 0.754001 0.170191
vt 0.626461 0.274110
vt 0.628165 0.355063
vt 0.628772 0.440587
vt 0.632365 0.524782
vt 0.633215 0.602976
vt 0.629768 0.675351
vt 0.621194 0.747262
vt 0.618973 0.820049
vt 0.621326 0.893302
vt 0.694130 0.957982
vt 0.739446 0.339629
vt 0.731069 0.283327
vt 0.753647 0.416281
vt 0.773532 0.504771
vt 0.785094 0.597458
vt 0.785124 0.680830
vt 0.766393 0.757806
vt 0.739564 0.827217
vt 0.713790 0.878112
vt 0.788907 0.914526
vt 0.864106 0.854254
vt 0.923900 0.779785
vt 0.964574 0.694856
vt 0.955310 0.597218
vt 0.922990 0.479207
vt 0.870277 0.373855
vt 0.613661 -0.164646
vt 0.775503 -0.168803
vt 0.831268 -0.170649
vt 0.826379 -0.086932
vt 0.770518 -0.084464
vt 0.714875 1.001730
vt 0.727794 1.049481
vt 0.624355 1.073353
vt 0.619907 1.024411
vt 0.812640 0.944740
vt 0.849832 0.986629
vt 0.887465 0.866435
vt 0.940099 0.893334
vt 0.870744 0.146641
vt 0.923181 0.253125
vt 0.866643 0.270562
vt 0.811263 0.157078
vt 0.923727 0.772266
vt 0.989920 0.790667
vt 0.923600 0.689288
vt 0.994650 0.690311
vt 0.920149 0.584242
vt 0.980858 0.569245
vt 0.864388 0.458977
vt 0.923499 0.445752
vt 0.807169 0.342395
vt 0.861722 0.328569
vt 0.758054 0.244014
vt 0.815328 0.229127
vt 0.770527 0.123624
vt 0.688115 0.030153
vt 0.744892 0.015547
vt 0.665182 -0.083069
vt 0.725910 -0.092120
vt 0.716912 -0.200061
vt 0.649624 -0.198073
vt 0.647422 -0.283169
vt 0.717658 -0.282652
vt 0.814610 0.288674
vt 0.510421 0.248838
vt 0.509717 0.144800
vt 0.511137 0.342292
vt 0.633753 0.341660
vt 0.511877 0.436571
vt 0.640340 0.442271
vt 0.512587 0.530423
vt 0.646266 0.541550
vt 0.513204 0.623440
vt 0.649340 0.638160
vt 0.513794 0.721765
vt 0.649391 0.734391
vt 0.647076 0.831208
vt 0.514430 0.827113
vt 0.656452 0.918805
vt 0.515152 0.934186
vt 0.747219 0.904676
vt 0.765831 0.839589
vt 0.780703 0.750068
vt 0.782305 0.657425
vt 0.775881 0.557750
vt 0.755280 0.450617
vt 0.711877 0.276024
vt 0.730119 0.351019
vt 0.509029 0.035006
vt 0.597190 0.032073
vt 0.508357 -0.080237
vt 0.585351 -0.081848
vt 0.578363 -0.198394
vt 0.507824 -0.197957
vt 0.507675 -0.285127
vt 0.577551 -0.285127
vt 0.708504 -0.078895
vt 0.706264 -0.164045
vt 0.780164 0.038245
vt 0.922392 0.359549
vt 0.973294 0.469856
vt 1.010352 0.587307
vt 1.022400 0.696543
vt 0.984075 0.789226
vt 0.918116 0.875869
vt 0.827270 0.944713
vt 0.720592 0.993178
vt 0.601381 1.024170
vt 0.838218 0.031403
vt 0.976517 0.344924
vt 1.026590 0.458164
vt 1.066199 0.578807
vt 1.077147 0.698781
vt 1.041065 0.799885
vt 0.969342 0.897297
vt 0.862230 0.971210
vt 0.744070 1.025387
vt 0.614432 1.061359
vt 0.513543 1.074401
vt 0.654545 0.091781
vt 0.546776 0.087096
vt 0.555363 -0.035729
vt 0.655681 -0.028444
vt 0.651791 0.207239
vt 0.761487 0.098379
vt 0.774634 0.216609
vt 0.643333 0.299854
vt 0.639386 0.374055
vt 0.526217 0.368303
vt 0.531482 0.297686
vt 0.519388 0.458681
vt 0.633885 0.452331
vt 0.513516 0.536220
vt 0.631573 0.529585
vt 0.508984 0.595920
vt 0.626957 0.601201
vt 0.618485 0.667075
vt 0.504529 0.654442
vt 0.605036 0.732067
vt 0.499827 0.716714
vt 0.597673 0.798497
vt 0.494871 0.783243
vt 0.594781 0.865775
vt 0.488864 0.868606
vt 0.556589 0.946203
vt 0.661112 0.932009
vt 0.538392 0.204125
vt 0.748488 0.370255
vt 0.744289 0.318000
vt 0.756968 0.441695
vt 0.770027 0.524481
vt 0.774838 0.610351
vt 0.769036 0.686627
vt 0.745425 0.755335
vt 0.714375 0.816373
vt 0.685756 0.860568
vt 0.756406 0.901090
vt 0.833681 0.852861
vt 0.897000 0.790185
vt 0.942500 0.716211
vt 0.940234 0.625980
vt 0.916692 0.515025
vt 0.873008 0.413701
vt 0.660107 -0.102864
vt 0.560405 -0.108596
vt 0.565867 -0.183944
vt 0.667384 -0.179146
vt 0.883892 -0.165133
vt 0.871920 -0.088630
vt 0.817721 -0.091777
vt 0.828692 -0.169646
vt 0.608111 0.930674
vt 0.613093 0.974716
vt 0.504568 0.983912
vt 0.503375 0.939771
vt 0.800303 0.855130
vt 0.838845 0.892764
vt 0.716954 0.951698
vt 0.703059 0.908460
vt 0.869554 0.782792
vt 0.927957 0.811221
vt 0.889572 0.203986
vt 0.932829 0.308455
vt 0.876818 0.319026
vt 0.831118 0.209998
vt 0.907864 0.696540
vt 0.975041 0.712816
vt 0.906089 0.621004
vt 0.977836 0.621094
vt 0.900406 0.524866
vt 0.961698 0.510507
vt 0.842144 0.411820
vt 0.903611 0.398063
vt 0.782472 0.306994
vt 0.837448 0.293179
vt 0.730399 0.217551
vt 0.787786 0.203165
vt 0.740159 0.107260
vt 0.654909 0.023174
vt 0.712431 0.008840
vt 0.629127 -0.079503
vt 0.690555 -0.088645
vt 0.610488 -0.183936
vt 0.678165 -0.187532
vt 0.825024 0.330677
vt 0.607381 0.308125
vt 0.615735 0.399904
vt 0.623681 0.490139
vt 0.628843 0.577995
vt 0.631133 0.665788
vt 0.631180 0.753962
vt 0.642484 0.833782
vt 0.733653 0.819277
vt 0.750803 0.759976
vt 0.763198 0.678395
vt 0.763240 0.593843
vt 0.754306 0.503053
vt 0.730955 0.406355
vt 0.684809 0.247315
vt 0.704798 0.315728
vt 0.563620 0.026179
vt 0.549028 -0.077199
vt 0.539003 -0.183185
vt 0.746644 -0.015774
vt 0.749999 -0.093878
vt 0.757770 -0.173229
vt 0.808786 0.097926
vt 0.807478 -0.015234
vt 0.924323 0.405609
vt 0.966091 0.511149
vt 0.994410 0.621983
vt 0.998456 0.723150
vt 0.954885 0.804430
vt 0.884813 0.877662
vt 0.791781 0.932410
vt 0.684530 0.966993
vt 0.566638 0.984092
vt 0.861678 -0.012358
vt 0.865416 0.097109
vt 0.978214 0.397238
vt 1.018955 0.505313
vt 1.051323 0.619292
vt 1.052108 0.730308
vt 1.009690 0.819497
vt 0.933133 0.901927
vt 0.824603 0.960683
vt 0.705503 0.999204
vt 0.576084 1.019633
vt 0.438029 0.084698
vt 0.453573 -0.034763
vt 0.424346 0.199809
vt 0.301052 0.201106
vt 0.330706 0.084749
vt 0.419108 0.292351
vt 0.411955 0.366332
vt 0.405557 0.444495
vt 0.396260 0.521510
vt 0.390050 0.593066
vt 0.388477 0.659214
vt 0.391944 0.724784
vt 0.389256 0.791316
vt 0.382040 0.858128
vt 0.482739 0.947147
vt 0.409180 0.941086
vt 0.304131 0.355208
vt 0.316167 0.303620
vt 0.284990 0.425550
vt 0.259290 0.506879
vt 0.241374 0.591960
vt 0.235479 0.668325
vt 0.248499 0.738406
vt 0.270167 0.801330
vt 0.292385 0.847175
vt 0.306897 0.920441
vt 0.215929 0.883128
vt 0.145707 0.829673
vt 0.092033 0.762784
vt 0.058076 0.685847
vt 0.074286 0.596071
vt 0.114877 0.487326
vt 0.173966 0.389843
vt 0.459308 -0.109051
vt 0.462900 -0.185914
vt 0.246759 -0.108028
vt 0.245119 -0.184614
vt 0.300020 -0.185914
vt 0.301109 -0.107839
vt 0.407808 1.073967
vt 0.411255 1.025574
vt 0.515567 1.033088
vt 0.516161 1.081837
vt 0.217739 0.946961
vt 0.316191 1.003275
vt 0.303943 1.050963
vt 0.180821 0.989004
vt 0.146315 0.869310
vt 0.089431 0.901804
vt 0.130903 0.281556
vt 0.188767 0.181271
vt 0.245829 0.190767
vt 0.184368 0.295595
vt 0.038949 0.795141
vt 0.104936 0.775775
vt 0.032761 0.694701
vt 0.103840 0.692994
vt 0.105725 0.587726
vt 0.044624 0.573444
vt 0.099028 0.449211
vt 0.159263 0.462227
vt 0.159893 0.332025
vt 0.214661 0.345547
vt 0.204934 0.232077
vt 0.262593 0.246456
vt 0.248247 0.125834
vt 0.329760 0.031602
vt 0.271752 0.017185
vt 0.289709 -0.090471
vt 0.351387 -0.081980
vt 0.366121 -0.197257
vt 0.298458 -0.199562
vt 0.297123 -0.282231
vt 0.367485 -0.282926
vt 0.234092 0.310710
vt 0.388437 0.342860
vt 0.383591 0.443621
vt 0.379214 0.542858
vt 0.377490 0.639348
vt 0.378616 0.735685
vt 0.381901 0.832309
vt 0.373637 0.920039
vt 0.282590 0.906183
vt 0.263374 0.841609
vt 0.247962 0.752520
vt 0.244620 0.659885
vt 0.249879 0.560142
vt 0.269172 0.453280
vt 0.292008 0.353393
vt 0.309264 0.278069
vt 0.420828 0.032772
vt 0.431286 -0.081315
vt 0.437235 -0.197963
vt 0.437756 -0.284548
vt 0.361343 -0.027787
vt 0.368576 -0.105726
vt 0.371223 -0.185460
vt 0.284059 0.081098
vt 0.300338 -0.030966
vt 0.124354 0.378303
vt 0.066404 0.480010
vt 0.021012 0.588305
vt 0.001152 0.688863
vt 0.032039 0.773000
vt 0.090920 0.850997
vt 0.176095 0.911997
vt 0.278413 0.953634
vt 0.479730 0.986088
vt 0.393399 0.978324
vt 0.227443 0.076895
vt 0.246155 -0.031482
vt 0.072428 0.366109
vt 0.014855 0.470441
vt -0.033895 0.581636
vt -0.052937 0.691943
vt -0.025180 0.784097
vt 0.038823 0.871802
vt 0.138506 0.938006
vt 0.252387 0.984733
vt 0.477108 1.022207
vt 0.378918 1.013089
vt 0.254164 -0.254821
vt 0.324469 -0.256712
vt 0.395367 -0.259145
vt 0.465655 -0.261139
vt 0.535852 -0.261795
vt 0.605994 -0.261705
vt 0.676984 -0.262672
vt 0.183355 -0.211395
vt 0.239557 -0.218598
vt 0.312298 -0.225133
vt 0.406028 -0.234949
vt 0.510423 -0.243056
vt 0.615607 -0.248333
vt 0.708431 -0.250984
vt 0.781260 -0.254530
vt 0.837823 -0.254915
vt 0.621553 1.015100
vt 0.505919 1.024677
vt 0.733546 0.990008
vt 0.871524 0.924097
vt 0.972882 0.833720
vt 1.029330 0.723480
vt 1.032787 0.621115
vt 1.009633 0.501409
vt 0.950883 0.385929
vt 0.883416 0.280997
vt 0.835952 0.189580
vt 0.789901 0.093988
vt 0.761949 -0.002669
vt 0.741542 -0.096043
vt 0.730588 -0.190698
vt 0.730971 -0.261753
vt 0.245874 -0.201950
vt 0.243607 -0.280039
vt 0.238523 -0.097429
vt 0.222164 0.005744
vt 0.198366 0.112557
vt 0.156572 0.218519
vt 0.113470 0.319978
vt 0.051378 0.436979
vt -0.003118 0.564398
vt -0.021725 0.695938
vt -0.014561 0.808063
vt 0.045744 0.927431
vt 0.149711 1.024087
vt 0.288841 1.093305
vt 0.400949 1.118554
vt 0.516265 1.126664
vt 0.631552 1.117606
vt 0.743409 1.091457
vt 0.881790 1.020929
vt 0.984421 0.920689
vt 1.043293 0.803084
vt 1.049660 0.690985
vt 1.028524 0.559583
vt 0.971750 0.432872
vt 0.908171 0.316128
vt 0.863387 0.215102
vt 0.819974 0.109700
vt 0.794665 0.003518
vt 0.777031 -0.099307
vt 0.769094 -0.202954
vt 0.771527 -0.280953
vt 0.205210 -0.180943
vt 0.200211 -0.251997
vt 0.201296 -0.086513
vt 0.187337 0.007456
vt 0.164920 0.104570
vt 0.124809 0.201572
vt 0.082863 0.294569
vt 0.022759 0.402099
vt -0.028917 0.519192
vt -0.045194 0.639533
vt -0.035023 0.741796
vt 0.028281 0.849850
vt 0.135118 0.936380
vt 0.276741 0.997386
vt 0.389963 1.018741
s 1
usemtl Material.002
f 1/1/1 2/2/2 3/3/3
f 4/4/4 5/5/5 6/6/6
f 7/7/7 8/8/8 9/9/9
f 10/10/10 11/11/11 12/12/12
f 13/13/13 14/14/14 15/15/15
f 13/13/13 15/15/15 16/16/16
f 17/17/17 18/18/18 19/19/19
f 17/17/17 19/19/19 13/13/13
f 20/20/20 21/21/21 22/22/22
f 20/20/20 22/22/22 23/23/23
f 24/24/24 25/25/25 23/23/23
f 24/24/24 23/23/23 22/22/22
f 26/26/26 27/27/27 25/25/25
f 26/26/26 25/25/25 24/24/24
f 28/28/28 29/29/29 27/27/27
f 28/28/28 27/27/27 26/26/26
f 29/29/29 28/28/28 30/30/30
f 29/29/29 30/30/30 31/31/31
f 31/31/31 30/30/30 32/32/32
f 31/31/31 32/32/32 33/33/33
f 33/33/33 32/32/32 34/34/34
f 33/33/33 34/34/34 35/35/35
f 35/35/35 34/34/34 36/36/36
f 35/35/35 36/36/36 37/37/37
f 38/38/38 39/39/39 36/36/36
f 38/38/38 36/36/36 40/40/40
f 21/21/21 20/20/20 17/17/17
f 21/21/21 17/17/17 41/41/41
f 42/42/42 43/43/43 20/20/20
f 42/42/42 20/20/20 23/23/23
f 23/23/23 25/25/25 44/44/44
f 23/23/23 44/44/44 42/42/42
f 44/44/44 25/25/25 27/27/27
f 44/44/44 27/27/27 45/45/45
f 29/29/29 46/46/46 45/45/45
f 29/29/29 45/45/45 27/27/27
f 31/31/31 47/47/47 46/46/46
f 31/31/31 46/46/46 29/29/29
f 33/33/33 48/48/48 47/47/47
f 33/33/33 47/47/47 31/31/31
f 48/48/48 33/33/33 35/35/35
f 48/48/48 35/35/35 49/49/49
f 37/37/37 50/50/50 49/49/49
f 37/37/37 49/49/49 35/35/35
f 50/50/50 37/37/37 51/51/51
f 50/50/50 51/51/51 52/52/52
f 50/50/50 52/52/52 53/53/53
f 50/50/50 53/53/53 49/49/49
f 54/54/54 48/48/48 49/49/49
f 54/54/54 49/49/49 53/53/53
f 48/48/48 54/54/54 55/55/55
f 48/48/48 55/55/55 47/47/47
f 56/56/56 46/46/46 47/47/47
f 56/56/56 47/47/47 55/55/55
f 57/57/57 45/45/45 46/46/46
f 57/57/57 46/46/46 56/56/56
f 45/45/45 57/57/57 58/58/58
f 45/45/45 58/58/58 44/44/44
f 14/14/14 59/59/59 60/60/60
f 14/14/14 60/60/60 15/15/15
f 61/61/61 62/62/62 63/63/63
f 61/61/61 63/63/63 64/64/64
f 65/65/65 66/66/66 67/67/67
f 65/65/65 67/67/67 68/68/68
f 69/69/69 65/65/65 68/68/68
f 69/69/69 68/68/68 70/70/70
f 71/71/71 69/69/69 70/70/70
f 71/71/71 70/70/70 72/72/72
f 73/73/73 74/74/74 75/75/75
f 73/73/73 75/75/75 76/76/76
f 72/72/72 77/77/77 78/78/78
f 72/72/72 78/78/78 71/71/71
f 78/78/78 77/77/77 79/79/79
f 78/78/78 79/79/79 80/80/80
f 81/81/81 80/80/80 79/79/79
f 81/81/81 79/79/79 82/82/82
f 82/82/82 83/83/83 84/84/84
f 82/82/82 84/84/84 81/81/81
f 83/83/83 85/85/85 86/86/86
f 83/83/83 86/86/86 84/84/84
f 85/85/85 87/87/87 88/88/88
f 85/85/85 88/88/88 86/86/86
f 88/88/88 87/87/87 89/89/89
f 88/88/88 89/89/89 1/1/1
f 90/90/90 1/1/1 89/89/89
f 90/90/90 89/89/89 91/91/91
f 91/91/91 92/92/92 93/93/93
f 91/91/91 93/93/93 90/90/90
f 92/92/92 94/94/94 95/95/95
f 92/92/92 95/95/95 93/93/93
f 58/58/58 96/96/96 42/42/42
f 58/58/58 42/42/42 44/44/44
f 3/3/3 2/2/2 97/97/97
f 3/3/3 97/97/97 98/98/98
f 99/99/99 100/100/100 3/3/3
f 99/99/99 3/3/3 98/98/98
f 101/101/101 102/102/102 100/100/100
f 101/101/101 100/100/100 99/99/99
f 103/103/103 104/104/104 102/102/102
f 103/103/103 102/102/102 101/101/101
f 105/105/105 106/106/106 104/104/104
f 105/105/105 104/104/104 103/103/103
f 107/107/107 108/108/108 106/106/106
f 107/107/107 106/106/106 105/105/105
f 108/108/108 107/107/107 109/109/109
f 108/108/108 109/109/109 110/110/110
f 110/110/110 109/109/109 111/111/111
f 110/110/110 111/111/111 112/112/112
f 112/112/112 111/111/111 66/66/66
f 112/112/112 66/66/66 65/65/65
f 65/65/65 69/69/69 113/113/113
f 65/65/65 113/113/113 112/112/112
f 114/114/114 115/115/115 108/108/108
f 114/114/114 108/108/108 110/110/110
f 116/116/116 106/106/106 108/108/108
f 116/116/116 108/108/108 115/115/115
f 106/106/106 116/116/116 117/117/117
f 106/106/106 117/117/117 104/104/104
f 104/104/104 117/117/117 118/118/118
f 104/104/104 118/118/118 102/102/102
f 3/3/3 100/100/100 119/119/119
f 3/3/3 119/119/119 120/120/120
f 120/120/120 119/119/119 86/86/86
f 120/120/120 86/86/86 88/88/88
f 118/118/118 119/119/119 100/100/100
f 118/118/118 100/100/100 102/102/102
f 84/84/84 86/86/86 119/119/119
f 84/84/84 119/119/119 118/118/118
f 81/81/81 84/84/84 118/118/118
f 81/81/81 118/118/118 117/117/117
f 81/81/81 117/117/117 116/116/116
f 81/81/81 116/116/116 80/80/80
f 80/80/80 116/116/116 115/115/115
f 80/80/80 115/115/115 78/78/78
f 114/114/114 71/71/71 78/78/78
f 114/114/114 78/78/78 115/115/115
f 69/69/69 71/71/71 114/114/114
f 69/69/69 114/114/114 113/113/113
f 112/112/112 113/113/113 114/114/114
f 112/112/112 114/114/114 110/110/110
f 2/2/2 121/121/121 122/122/122
f 2/2/2 122/122/122 97/97/97
f 121/121/121 123/123/123 124/124/124
f 121/121/121 124/124/124 122/122/122
f 123/123/123 125/125/125 126/126/126
f 123/123/123 126/126/126 124/124/124
f 41/41/41 17/17/17 13/13/13
f 41/41/41 13/13/13 16/16/16
f 96/96/96 18/18/18 43/43/43
f 96/96/96 43/43/43 42/42/42
f 18/18/18 17/17/17 20/20/20
f 18/18/18 20/20/20 43/43/43
f 19/19/19 127/127/127 14/14/14
f 19/19/19 14/14/14 13/13/13
f 127/127/127 128/128/128 59/59/59
f 127/127/127 59/59/59 14/14/14
f 90/90/90 121/121/121 2/2/2
f 90/90/90 2/2/2 1/1/1
f 90/90/90 93/93/93 123/123/123
f 90/90/90 123/123/123 121/121/121
f 93/93/93 95/95/95 125/125/125
f 93/93/93 125/125/125 123/123/123
f 1/1/1 3/3/3 120/120/120
f 1/1/1 120/120/120 88/88/88
f 63/63/63 128/128/128 127/127/127
f 63/63/63 127/127/127 64/64/64
f 129/129/129 64/64/64 127/127/127
f 129/129/129 127/127/127 19/19/19
f 75/75/75 129/129/129 19/19/19
f 75/75/75 19/19/19 18/18/18
f 76/76/76 75/75/75 18/18/18
f 76/76/76 18/18/18 96/96/96
f 130/130/130 76/76/76 96/96/96
f 130/130/130 96/96/96 58/58/58
f 58/58/58 57/57/57 131/131/131
f 58/58/58 131/131/131 130/130/130
f 57/57/57 56/56/56 132/132/132
f 57/57/57 132/132/132 131/131/131
f 56/56/56 55/55/55 133/133/133
f 56/56/56 133/133/133 132/132/132
f 134/134/134 133/133/133 55/55/55
f 134/134/134 55/55/55 54/54/54
f 54/54/54 53/53/53 135/135/135
f 54/54/54 135/135/135 134/134/134
f 52/52/52 136/136/136 135/135/135
f 52/52/52 135/135/135 53/53/53
f 137/137/137 136/136/136 52/52/52
f 137/137/137 52/52/52 51/51/51
f 138/138/138 39/39/39 38/38/38
f 138/138/138 38/38/38 139/139/139
f 140/140/140 61/61/61 64/64/64
f 140/140/140 64/64/64 129/129/129
f 74/74/74 140/140/140 129/129/129
f 74/74/74 129/129/129 75/75/75
f 141/141/141 73/73/73 76/76/76
f 141/141/141 76/76/76 130/130/130
f 142/142/142 141/141/141 130/130/130
f 142/142/142 130/130/130 131/131/131
f 143/143/143 142/142/142 131/131/131
f 143/143/143 131/131/131 132/132/132
f 144/144/144 143/143/143 132/132/132
f 144/144/144 132/132/132 133/133/133
f 145/145/145 144/144/144 133/133/133
f 145/145/145 133/133/133 134/134/134
f 146/146/146 145/145/145 134/134/134
f 146/146/146 134/134/134 135/135/135
f 147/147/147 146/146/146 135/135/135
f 147/147/147 135/135/135 136/136/136
f 148/148/148 147/147/147 136/136/136
f 148/148/148 136/136/136 137/137/137
f 138/138/138 149/149/149 148/148/148
f 138/138/138 148/148/148 137/137/137
f 150/150/150 16/16/16 15/15/15
f 150/150/150 15/15/15 151/151/151
f 152/152/152 150/150/150 153/153/153
f 152/152/152 153/153/153 154/154/154
f 155/155/155 156/156/156 22/22/22
f 155/155/155 22/22/22 21/21/21
f 24/24/24 22/22/22 156/156/156
f 24/24/24 156/156/156 157/157/157
f 26/26/26 24/24/24 157/157/157
f 26/26/26 157/157/157 158/158/158
f 28/28/28 26/26/26 158/158/158
f 28/28/28 158/158/158 159/159/159
f 159/159/159 160/160/160 30/30/30
f 159/159/159 30/30/30 28/28/28
f 160/160/160 161/161/161 32/32/32
f 160/160/160 32/32/32 30/30/30
f 161/161/161 162/162/162 34/34/34
f 161/161/161 34/34/34 32/32/32
f 162/162/162 163/163/163 36/36/36
f 162/162/162 36/36/36 34/34/34
f 40/40/40 36/36/36 163/163/163
f 40/40/40 163/163/163 164/164/164
f 21/21/21 41/41/41 152/152/152
f 21/21/21 152/152/152 155/155/155
f 165/165/165 156/156/156 155/155/155
f 165/165/165 155/155/155 166/166/166
f 156/156/156 165/165/165 167/167/167
f 156/156/156 167/167/167 157/157/157
f 167/167/167 168/168/168 158/158/158
f 167/167/167 158/158/158 157/157/157
f 159/159/159 158/158/158 168/168/168
f 159/159/159 168/168/168 169/169/169
f 160/160/160 159/159/159 169/169/169
f 160/160/160 169/169/169 170/170/170
f 161/161/161 160/160/160 170/170/170
f 161/161/161 170/170/170 171/171/171
f 171/171/171 172/172/172 162/162/162
f 171/171/171 162/162/162 161/161/161
f 163/163/163 162/162/162 172/172/172
f 163/163/163 172/172/172 173/173/173
f 173/173/173 174/174/174 164/164/164
f 173/173/173 164/164/164 163/163/163
f 173/173/173 172/172/172 175/175/175
f 173/173/173 175/175/175 174/174/174
f 176/176/176 175/175/175 172/172/172
f 176/176/176 172/172/172 171/171/171
f 171/171/171 170/170/170 177/177/177
f 171/171/171 177/177/177 176/176/176
f 178/178/178 177/177/177 170/170/170
f 178/178/178 170/170/170 169/169/169
f 179/179/179 178/178/178 169/169/169
f 179/179/179 169/169/169 168/168/168
f 168/168/168 167/167/167 180/180/180
f 168/168/168 180/180/180 179/179/179
f 151/151/151 15/15/15 60/60/60
f 151/151/151 60/60/60 181/181/181
f 182/182/182 183/183/183 184/184/184
f 182/182/182 184/184/184 185/185/185
f 186/186/186 187/187/187 188/188/188
f 186/186/186 188/188/188 189/189/189
f 190/190/190 191/191/191 187/187/187
f 190/190/190 187/187/187 186/186/186
f 192/192/192 193/193/193 191/191/191
f 192/192/192 191/191/191 190/190/190
f 194/194/194 195/195/195 196/196/196
f 194/194/194 196/196/196 197/197/197
f 193/193/193 192/192/192 198/198/198
f 193/193/193 198/198/198 199/199/199
f 198/198/198 200/200/200 201/201/201
f 198/198/198 201/201/201 199/199/199
f 202/202/202 203/203/203 201/201/201
f 202/202/202 201/201/201 200/200/200
f 203/203/203 202/202/202 204/204/204
f 203/203/203 204/204/204 205/205/205
f 205/205/205 204/204/204 206/206/206
f 205/205/205 206/206/206 207/207/207
f 207/207/207 206/206/206 208/208/208
f 207/207/207 208/208/208 209/209/209
f 208/208/208 4/4/4 210/210/210
f 208/208/208 210/210/210 209/209/209
f 211/211/211 212/212/212 210/210/210
f 211/211/211 210/210/210 4/4/4
f 212/212/212 211/211/211 213/213/213
f 212/212/212 213/213/213 214/214/214
f 215/215/215 216/216/216 217/217/217
f 215/215/215 217/217/217 218/218/218
f 180/180/180 167/167/167 165/165/165
f 180/180/180 165/165/165 219/219/219
f 5/5/5 220/220/220 221/221/221
f 5/5/5 221/221/221 6/6/6
f 222/222/222 220/220/220 5/5/5
f 222/222/222 5/5/5 223/223/223
f 224/224/224 222/222/222 223/223/223
f 224/224/224 223/223/223 225/225/225
f 226/226/226 224/224/224 225/225/225
f 226/226/226 225/225/225 227/227/227
f 228/228/228 226/226/226 227/227/227
f 228/228/228 227/227/227 229/229/229
f 230/230/230 228/228/228 229/229/229
f 230/230/230 229/229/229 231/231/231
f 231/231/231 232/232/232 233/233/233
f 231/231/231 233/233/233 230/230/230
f 232/232/232 234/234/234 235/235/235
f 232/232/232 235/235/235 233/233/233
f 186/186/186 234/234/234 236/236/236
f 186/186/186 236/236/236 190/190/190
f 237/237/237 232/232/232 231/231/231
f 237/237/237 231/231/231 238/238/238
f 239/239/239 238/238/238 231/231/231
f 239/239/239 231/231/231 229/229/229
f 229/229/229 227/227/227 240/240/240
f 229/229/229 240/240/240 239/239/239
f 227/227/227 225/225/225 241/241/241
f 227/227/227 241/241/241 240/240/240
f 5/5/5 242/242/242 243/243/243
f 5/5/5 243/243/243 223/223/223
f 242/242/242 208/208/208 206/206/206
f 242/242/242 206/206/206 243/243/243
f 241/241/241 225/225/225 223/223/223
f 241/241/241 223/223/223 243/243/243
f 204/204/204 241/241/241 243/243/243
f 204/204/204 243/243/243 206/206/206
f 202/202/202 240/240/240 241/241/241
f 202/202/202 241/241/241 204/204/204
f 202/202/202 200/200/200 239/239/239
f 202/202/202 239/239/239 240/240/240
f 200/200/200 198/198/198 238/238/238
f 200/200/200 238/238/238 239/239/239
f 237/237/237 238/238/238 198/198/198
f 237/237/237 198/198/198 192/192/192
f 190/190/190 236/236/236 237/237/237
f 190/190/190 237/237/237 192/192/192
f 234/234/234 232/232/232 237/237/237
f 234/234/234 237/237/237 236/236/236
f 6/6/6 221/221/221 244/244/244
f 6/6/6 244/244/244 245/245/245
f 245/245/245 244/244/244 246/246/246
f 245/245/245 246/246/246 247/247/247
f 248/248/248 249/249/249 250/250/250
f 248/248/248 250/250/250 251/251/251
f 41/41/41 16/16/16 150/150/150
f 41/41/41 150/150/150 152/152/152
f 219/219/219 165/165/165 166/166/166
f 219/219/219 166/166/166 154/154/154
f 154/154/154 166/166/166 155/155/155
f 154/154/154 155/155/155 152/152/152
f 153/153/153 150/150/150 151/151/151
f 153/153/153 151/151/151 252/252/252
f 252/252/252 151/151/151 181/181/181
f 252/252/252 181/181/181 253/253/253
f 211/211/211 4/4/4 6/6/6
f 211/211/211 6/6/6 245/245/245
f 211/211/211 245/245/245 247/247/247
f 211/211/211 247/247/247 213/213/213
f 216/216/216 248/248/248 251/251/251
f 216/216/216 251/251/251 217/217/217
f 4/4/4 208/208/208 242/242/242
f 4/4/4 242/242/242 5/5/5
f 253/253/253 182/182/182 185/185/185
f 253/253/253 185/185/185 252/252/252
f 254/254/254 153/153/153 252/252/252
f 254/254/254 252/252/252 185/185/185
f 197/197/197 154/154/154 153/153/153
f 197/197/197 153/153/153 254/254/254
f 196/196/196 219/219/219 154/154/154
f 196/196/196 154/154/154 197/197/197
f 255/255/255 180/180/180 219/219/219
f 255/255/255 219/219/219 196/196/196
f 180/180/180 255/255/255 256/256/256
f 180/180/180 256/256/256 179/179/179
f 179/179/179 256/256/256 257/257/257
f 179/179/179 257/257/257 178/178/178
f 178/178/178 257/257/257 258/258/258
f 178/178/178 258/258/258 177/177/177
f 259/259/259 176/176/176 177/177/177
f 259/259/259 177/177/177 258/258/258
f 176/176/176 259/259/259 260/260/260
f 176/176/176 260/260/260 175/175/175
f 174/174/174 175/175/175 260/260/260
f 174/174/174 260/260/260 261/261/261
f 262/262/262 164/164/164 174/174/174
f 262/262/262 174/174/174 261/261/261
f 263/263/263 139/139/139 38/38/38
f 263/263/263 38/38/38 40/40/40
f 184/184/184 264/264/264 254/254/254
f 184/184/184 254/254/254 185/185/185
f 264/264/264 194/194/194 197/197/197
f 264/264/264 197/197/197 254/254/254
f 195/195/195 265/265/265 255/255/255
f 195/195/195 255/255/255 196/196/196
f 265/265/265 266/266/266 256/256/256
f 265/265/265 256/256/256 255/255/255
f 266/266/266 267/267/267 257/257/257
f 266/266/266 257/257/257 256/256/256
f 267/267/267 268/268/268 258/258/258
f 267/267/267 258/258/258 257/257/257
f 268/268/268 269/269/269 259/259/259
f 268/268/268 259/259/259 258/258/258
f 269/269/269 270/270/270 260/260/260
f 269/269/269 260/260/260 259/259/259
f 270/270/270 271/271/271 261/261/261
f 270/270/270 261/261/261 260/260/260
f 271/271/271 272/272/272 262/262/262
f 271/271/271 262/262/262 261/261/261
f 139/139/139 263/263/263 273/273/273
f 139/139/139 273/273/273 274/274/274
f 275/275/275 276/276/276 277/277/277
f 275/275/275 277/277/277 278/278/278
f 279/279/279 275/275/275 280/280/280
f 279/279/279 280/280/280 281/281/281
f 282/282/282 283/283/283 284/284/284
f 282/282/282 284/284/284 285/285/285
f 286/286/286 284/284/284 283/283/283
f 286/286/286 283/283/283 287/287/287
f 288/288/288 286/286/286 287/287/287
f 288/288/288 287/287/287 289/289/289
f 290/290/290 288/288/288 289/289/289
f 290/290/290 289/289/289 291/291/291
f 291/291/291 292/292/292 293/293/293
f 291/291/291 293/293/293 290/290/290
f 292/292/292 294/294/294 295/295/295
f 292/292/292 295/295/295 293/293/293
f 294/294/294 296/296/296 297/297/297
f 294/294/294 297/297/297 295/295/295
f 296/296/296 298/298/298 299/299/299
f 296/296/296 299/299/299 297/297/297
f 300/300/300 299/299/299 298/298/298
f 300/300/300 298/298/298 301/301/301
f 285/285/285 302/302/302 279/279/279
f 285/285/285 279/279/279 282/282/282
f 303/303/303 283/283/283 282/282/282
f 303/303/303 282/282/282 304/304/304
f 283/283/283 303/303/303 305/305/305
f 283/283/283 305/305/305 287/287/287
f 305/305/305 306/306/306 289/289/289
f 305/305/305 289/289/289 287/287/287
f 291/291/291 289/289/289 306/306/306
f 291/291/291 306/306/306 307/307/307
f 292/292/292 291/291/291 307/307/307
f 292/292/292 307/307/307 308/308/308
f 294/294/294 292/292/292 308/308/308
f 294/294/294 308/308/308 309/309/309
f 309/309/309 310/310/310 296/296/296
f 309/309/309 296/296/296 294/294/294
f 298/298/298 296/296/296 310/310/310
f 298/298/298 310/310/310 311/311/311
f 311/311/311 312/312/312 301/301/301
f 311/311/311 301/301/301 298/298/298
f 311/311/311 310/310/310 313/313/313
f 311/311/311 313/313/313 312/312/312
f 314/314/314 313/313/313 310/310/310
f 314/314/314 310/310/310 309/309/309
f 309/309/309 308/308/308 315/315/315
f 309/309/309 315/315/315 314/314/314
f 316/316/316 315/315/315 308/308/308
f 316/316/316 308/308/308 307/307/307
f 317/317/317 316/316/316 307/307/307
f 317/317/317 307/307/307 306/306/306
f 306/306/306 305/305/305 318/318/318
f 306/306/306 318/318/318 317/317/317
f 319/319/319 320/320/320 321/321/321
f 319/319/319 321/321/321 322/322/322
f 323/323/323 324/324/324 325/325/325
f 323/323/323 325/325/325 326/326/326
f 327/327/327 328/328/328 329/329/329
f 327/327/327 329/329/329 330/330/330
f 331/331/331 332/332/332 333/333/333
f 331/331/331 333/333/333 334/334/334
f 335/335/335 336/336/336 332/332/332
f 335/335/335 332/332/332 331/331/331
f 337/337/337 338/338/338 339/339/339
f 337/337/337 339/339/339 340/340/340
f 336/336/336 335/335/335 341/341/341
f 336/336/336 341/341/341 342/342/342
f 341/341/341 343/343/343 344/344/344
f 341/341/341 344/344/344 342/342/342
f 345/345/345 346/346/346 344/344/344
f 345/345/345 344/344/344 343/343/343
f 346/346/346 345/345/345 347/347/347
f 346/346/346 347/347/347 348/348/348
f 348/348/348 347/347/347 349/349/349
f 348/348/348 349/349/349 350/350/350
f 350/350/350 349/349/349 351/351/351
f 350/350/350 351/351/351 352/352/352
f 351/351/351 7/7/7 353/353/353
f 351/351/351 353/353/353 352/352/352
f 354/354/354 355/355/355 353/353/353
f 354/354/354 353/353/353 7/7/7
f 355/355/355 354/354/354 356/356/356
f 355/355/355 356/356/356 357/357/357
f 357/357/357 356/356/356 358/358/358
f 357/357/357 358/358/358 359/359/359
f 318/318/318 305/305/305 303/303/303
f 318/318/318 303/303/303 360/360/360
f 8/8/8 98/98/98 97/97/97
f 8/8/8 97/97/97 9/9/9
f 99/99/99 98/98/98 8/8/8
f 99/99/99 8/8/8 361/361/361
f 101/101/101 99/99/99 361/361/361
f 101/101/101 361/361/361 362/362/362
f 103/103/103 101/101/101 362/362/362
f 103/103/103 362/362/362 363/363/363
f 105/105/105 103/103/103 363/363/363
f 105/105/105 363/363/363 364/364/364
f 107/107/107 105/105/105 364/364/364
f 107/107/107 364/364/364 365/365/365
f 365/365/365 366/366/366 109/109/109
f 365/365/365 109/109/109 107/107/107
f 366/366/366 367/367/367 111/111/111
f 366/366/366 111/111/111 109/109/109
f 334/334/334 367/367/367 368/368/368
f 334/334/334 368/368/368 331/331/331
f 369/369/369 366/366/366 365/365/365
f 369/369/369 365/365/365 370/370/370
f 371/371/371 370/370/370 365/365/365
f 371/371/371 365/365/365 364/364/364
f 364/364/364 363/363/363 372/372/372
f 364/364/364 372/372/372 371/371/371
f 363/363/363 362/362/362 373/373/373
f 363/363/363 373/373/373 372/372/372
f 8/8/8 374/374/374 375/375/375
f 8/8/8 375/375/375 361/361/361
f 374/374/374 351/351/351 349/349/349
f 374/374/374 349/349/349 375/375/375
f 373/373/373 362/362/362 361/361/361
f 373/373/373 361/361/361 375/375/375
f 347/347/347 373/373/373 375/375/375
f 347/347/347 375/375/375 349/349/349
f 345/345/345 372/372/372 373/373/373
f 345/345/345 373/373/373 347/347/347
f 345/345/345 343/343/343 371/371/371
f 345/345/345 371/371/371 372/372/372
f 343/343/343 341/341/341 370/370/370
f 343/343/343 370/370/370 371/371/371
f 369/369/369 370/370/370 341/341/341
f 369/369/369 341/341/341 335/335/335
f 331/331/331 368/368/368 369/369/369
f 331/331/331 369/369/369 335/335/335
f 367/367/367 366/366/366 369/369/369
f 367/367/367 369/369/369 368/368/368
f 9/9/9 97/97/97 122/122/122
f 9/9/9 122/122/122 376/376/376
f 376/376/376 122/122/122 124/124/124
f 376/376/376 124/124/124 377/377/377
f 377/377/377 124/124/124 126/126/126
f 377/377/377 126/126/126 378/378/378
f 302/302/302 276/276/276 275/275/275
f 302/302/302 275/275/275 279/279/279
f 360/360/360 303/303/303 304/304/304
f 360/360/360 304/304/304 281/281/281
f 281/281/281 304/304/304 282/282/282
f 281/281/281 282/282/282 279/279/279
f 280/280/280 275/275/275 278/278/278
f 280/280/280 278/278/278 379/379/379
f 380/380/380 319/319/319 322/322/322
f 380/380/380 322/322/322 381/381/381
f 354/354/354 7/7/7 9/9/9
f 354/354/354 9/9/9 376/376/376
f 354/354/354 376/376/376 377/377/377
f 354/354/354 377/377/377 356/356/356
f 356/356/356 377/377/377 378/378/378
f 356/356/356 378/378/378 358/358/358
f 7/7/7 351/351/351 374/374/374
f 7/7/7 374/374/374 8/8/8
f 381/381/381 326/326/326 325/325/325
f 381/381/381 325/325/325 380/380/380
f 382/382/382 280/280/280 379/379/379
f 382/382/382 379/379/379 383/383/383
f 340/340/340 281/281/281 280/280/280
f 340/340/340 280/280/280 382/382/382
f 339/339/339 360/360/360 281/281/281
f 339/339/339 281/281/281 340/340/340
f 384/384/384 318/318/318 360/360/360
f 384/384/384 360/360/360 339/339/339
f 318/318/318 384/384/384 385/385/385
f 318/318/318 385/385/385 317/317/317
f 317/317/317 385/385/385 386/386/386
f 317/317/317 386/386/386 316/316/316
f 316/316/316 386/386/386 387/387/387
f 316/316/316 387/387/387 315/315/315
f 388/388/388 314/314/314 315/315/315
f 388/388/388 315/315/315 387/387/387
f 314/314/314 388/388/388 389/389/389
f 314/314/314 389/389/389 313/313/313
f 312/312/312 313/313/313 389/389/389
f 312/312/312 389/389/389 390/390/390
f 391/391/391 301/301/301 312/312/312
f 391/391/391 312/312/312 390/390/390
f 301/301/301 391/391/391 392/392/392
f 301/301/301 392/392/392 300/300/300
f 393/393/393 394/394/394 382/382/382
f 393/393/393 382/382/382 383/383/383
f 394/394/394 337/337/337 340/340/340
f 394/394/394 340/340/340 382/382/382
f 338/338/338 395/395/395 384/384/384
f 338/338/338 384/384/384 339/339/339
f 395/395/395 396/396/396 385/385/385
f 395/395/395 385/385/385 384/384/384
f 396/396/396 397/397/397 386/386/386
f 396/396/396 386/386/386 385/385/385
f 397/397/397 398/398/398 387/387/387
f 397/397/397 387/387/387 386/386/386
f 398/398/398 399/399/399 388/388/388
f 398/398/398 388/388/388 387/387/387
f 399/399/399 400/400/400 389/389/389
f 399/399/399 389/389/389 388/388/388
f 400/400/400 401/401/401 390/390/390
f 400/400/400 390/390/390 389/389/389
f 401/401/401 402/402/402 391/391/391
f 401/401/401 391/391/391 390/390/390
f 402/402/402 403/403/403 392/392/392
f 402/402/402 392/392/392 391/391/391
f 404/404/404 405/405/405 277/277/277
f 404/404/404 277/277/277 276/276/276
f 406/406/406 407/407/407 408/408/408
f 406/406/406 408/408/408 404/404/404
f 409/409/409 285/285/285 284/284/284
f 409/409/409 284/284/284 410/410/410
f 286/286/286 411/411/411 410/410/410
f 286/286/286 410/410/410 284/284/284
f 288/288/288 412/412/412 411/411/411
f 288/288/288 411/411/411 286/286/286
f 290/290/290 413/413/413 412/412/412
f 290/290/290 412/412/412 288/288/288
f 413/413/413 290/290/290 293/293/293
f 413/413/413 293/293/293 414/414/414
f 414/414/414 293/293/293 295/295/295
f 414/414/414 295/295/295 415/415/415
f 415/415/415 295/295/295 297/297/297
f 415/415/415 297/297/297 416/416/416
f 416/416/416 297/297/297 299/299/299
f 416/416/416 299/299/299 417/417/417
f 418/418/418 419/419/419 299/299/299
f 418/418/418 299/299/299 300/300/300
f 285/285/285 409/409/409 406/406/406
f 285/285/285 406/406/406 302/302/302
f 420/420/420 421/421/421 409/409/409
f 420/420/420 409/409/409 410/410/410
f 410/410/410 411/411/411 422/422/422
f 410/410/410 422/422/422 420/420/420
f 422/422/422 411/411/411 412/412/412
f 422/422/422 412/412/412 423/423/423
f 413/413/413 424/424/424 423/423/423
f 413/413/413 423/423/423 412/412/412
f 414/414/414 425/425/425 424/424/424
f 414/414/414 424/424/424 413/413/413
f 415/415/415 426/426/426 425/425/425
f 415/415/415 425/425/425 414/414/414
f 426/426/426 415/415/415 416/416/416
f 426/426/426 416/416/416 427/427/427
f 417/417/417 428/428/428 427/427/427
f 417/417/417 427/427/427 416/416/416
f 428/428/428 417/417/417 429/429/429
f 428/428/428 429/429/429 430/430/430
f 428/428/428 430/430/430 431/431/431
f 428/428/428 431/431/431 427/427/427
f 432/432/432 426/426/426 427/427/427
f 432/432/432 427/427/427 431/431/431
f 426/426/426 432/432/432 433/433/433
f 426/426/426 433/433/433 425/425/425
f 434/434/434 424/424/424 425/425/425
f 434/434/434 425/425/425 433/433/433
f 435/435/435 423/423/423 424/424/424
f 435/435/435 424/424/424 434/434/434
f 423/423/423 435/435/435 436/436/436
f 423/423/423 436/436/436 422/422/422
f 320/320/320 437/437/437 438/438/438
f 320/320/320 438/438/438 321/321/321
f 439/439/439 440/440/440 441/441/441
f 439/439/439 441/441/441 442/442/442
f 443/443/443 444/444/444 445/445/445
f 443/443/443 445/445/445 446/446/446
f 447/447/447 448/448/448 449/449/449
f 447/447/447 449/449/449 450/450/450
f 451/451/451 447/447/447 450/450/450
f 451/451/451 450/450/450 452/452/452
f 453/453/453 454/454/454 455/455/455
f 453/453/453 455/455/455 456/456/456
f 452/452/452 457/457/457 458/458/458
f 452/452/452 458/458/458 451/451/451
f 458/458/458 457/457/457 459/459/459
f 458/458/458 459/459/459 460/460/460
f 461/461/461 460/460/460 459/459/459
f 461/461/461 459/459/459 462/462/462
f 462/462/462 463/463/463 464/464/464
f 462/462/462 464/464/464 461/461/461
f 463/463/463 465/465/465 466/466/466
f 463/463/463 466/466/466 464/464/464
f 465/465/465 467/467/467 468/468/468
f 465/465/465 468/468/468 466/466/466
f 468/468/468 467/467/467 469/469/469
f 468/468/468 469/469/469 10/10/10
f 470/470/470 10/10/10 469/469/469
f 470/470/470 469/469/469 471/471/471
f 471/471/471 472/472/472 473/473/473
f 471/471/471 473/473/473 470/470/470
f 474/474/474 475/475/475 476/476/476
f 474/474/474 476/476/476 477/477/477
f 436/436/436 478/478/478 420/420/420
f 436/436/436 420/420/420 422/422/422
f 12/12/12 11/11/11 221/221/221
f 12/12/12 221/221/221 220/220/220
f 222/222/222 479/479/479 12/12/12
f 222/222/222 12/12/12 220/220/220
f 224/224/224 480/480/480 479/479/479
f 224/224/224 479/479/479 222/222/222
f 226/226/226 481/481/481 480/480/480
f 226/226/226 480/480/480 224/224/224
f 228/228/228 482/482/482 481/481/481
f 228/228/228 481/481/481 226/226/226
f 230/230/230 483/483/483 482/482/482
f 230/230/230 482/482/482 228/228/228
f 483/483/483 230/230/230 233/233/233
f 483/483/483 233/233/233 484/484/484
f 484/484/484 233/233/233 235/235/235
f 484/484/484 235/235/235 485/485/485
f 485/485/485 235/235/235 444/444/444
f 485/485/485 444/444/444 448/448/448
f 448/448/448 447/447/447 486/486/486
f 448/448/448 486/486/486 485/485/485
f 487/487/487 488/488/488 483/483/483
f 487/487/487 483/483/483 484/484/484
f 489/489/489 482/482/482 483/483/483
f 489/489/489 483/483/483 488/488/488
f 482/482/482 489/489/489 490/490/490
f 482/482/482 490/490/490 481/481/481
f 481/481/481 490/490/490 491/491/491
f 481/481/481 491/491/491 480/480/480
f 12/12/12 479/479/479 492/492/492
f 12/12/12 492/492/492 493/493/493
f 493/493/493 492/492/492 466/466/466
f 493/493/493 466/466/466 468/468/468
f 491/491/491 492/492/492 479/479/479
f 491/491/491 479/479/479 480/480/480
f 464/464/464 466/466/466 492/492/492
f 464/464/464 492/492/492 491/491/491
f 461/461/461 464/464/464 491/491/491
f 461/461/461 491/491/491 490/490/490
f 461/461/461 490/490/490 489/489/489
f 461/461/461 489/489/489 460/460/460
f 460/460/460 489/489/489 488/488/488
f 460/460/460 488/488/488 458/458/458
f 487/487/487 451/451/451 458/458/458
f 487/487/487 458/458/458 488/488/488
f 447/447/447 451/451/451 487/487/487
f 447/447/447 487/487/487 486/486/486
f 485/485/485 486/486/486 487/487/487
f 485/485/485 487/487/487 484/484/484
f 11/11/11 494/494/494 244/244/244
f 11/11/11 244/244/244 221/221/221
f 494/494/494 495/495/495 246/246/246
f 494/494/494 246/246/246 244/244/244
f 249/249/249 496/496/496 497/497/497
f 249/249/249 497/497/497 250/250/250
f 302/302/302 406/406/406 404/404/404
f 302/302/302 404/404/404 276/276/276
f 478/478/478 407/407/407 421/421/421
f 478/478/478 421/421/421 420/420/420
f 407/407/407 406/406/406 409/409/409
f 407/407/407 409/409/409 421/421/421
f 408/408/408 498/498/498 405/405/405
f 408/408/408 405/405/405 404/404/404
f 437/437/437 499/499/499 500/500/500
f 437/437/437 500/500/500 438/438/438
f 470/470/470 494/494/494 11/11/11
f 470/470/470 11/11/11 10/10/10
f 470/470/470 473/473/473 495/495/495
f 470/470/470 495/495/495 494/494/494
f 496/496/496 474/474/474 477/477/477
f 496/496/496 477/477/477 497/497/497
f 10/10/10 12/12/12 493/493/493
f 10/10/10 493/493/493 468/468/468
f 500/500/500 499/499/499 442/442/442
f 500/500/500 442/442/442 441/441/441
f 501/501/501 502/502/502 498/498/498
f 501/501/501 498/498/498 408/408/408
f 455/455/455 501/501/501 408/408/408
f 455/455/455 408/408/408 407/407/407
f 456/456/456 455/455/455 407/407/407
f 456/456/456 407/407/407 478/478/478
f 503/503/503 456/456/456 478/478/478
f 503/503/503 478/478/478 436/436/436
f 436/436/436 435/435/435 504/504/504
f 436/436/436 504/504/504 503/503/503
f 435/435/435 434/434/434 505/505/505
f 435/435/435 505/505/505 504/504/504
f 434/434/434 433/433/433 506/506/506
f 434/434/434 506/506/506 505/505/505
f 507/507/507 506/506/506 433/433/433
f 507/507/507 433/433/433 432/432/432
f 432/432/432 431/431/431 508/508/508
f 432/432/432 508/508/508 507/507/507
f 430/430/430 509/509/509 508/508/508
f 430/430/430 508/508/508 431/431/431
f 510/510/510 509/509/509 430/430/430
f 510/510/510 430/430/430 429/429/429
f 418/418/418 511/511/511 512/512/512
f 418/418/418 512/512/512 419/419/419
f 513/513/513 514/514/514 502/502/502
f 513/513/513 502/502/502 501/501/501
f 454/454/454 513/513/513 501/501/501
f 454/454/454 501/501/501 455/455/455
f 515/515/515 453/453/453 456/456/456
f 515/515/515 456/456/456 503/503/503
f 516/516/516 515/515/515 503/503/503
f 516/516/516 503/503/503 504/504/504
f 517/517/517 516/516/516 504/504/504
f 517/517/517 504/504/504 505/505/505
f 518/518/518 517/517/517 505/505/505
f 518/518/518 505/505/505 506/506/506
f 519/519/519 518/518/518 506/506/506
f 519/519/519 506/506/506 507/507/507
f 520/520/520 519/519/519 507/507/507
f 520/520/520 507/507/507 508/508/508
f 521/521/521 520/520/520 508/508/508
f 521/521/521 508/508/508 509/509/509
f 522/522/522 521/521/521 509/509/509
f 522/522/522 509/509/509 510/510/510
f 511/511/511 523/523/523 524/524/524
f 511/511/511 524/524/524 512/512/512
f 164/164/164 262/262/262 263/263/263
f 164/164/164 263/263/263 40/40/40
f 272/272/272 273/273/273 263/263/263
f 272/272/272 263/263/263 262/262/262
f 214/214/214 213/213/213 216/216/216
f 214/214/214 216/216/216 215/215/215
f 213/213/213 247/247/247 248/248/248
f 213/213/213 248/248/248 216/216/216
f 247/247/247 246/246/246 249/249/249
f 247/247/247 249/249/249 248/248/248
f 495/495/495 496/496/496 249/249/249
f 495/495/495 249/249/249 246/246/246
f 473/473/473 474/474/474 496/496/496
f 473/473/473 496/496/496 495/495/495
f 472/472/472 475/475/475 474/474/474
f 472/472/472 474/474/474 473/473/473
f 512/512/512 524/524/524 522/522/522
f 512/512/512 522/522/522 510/510/510
f 139/139/139 274/274/274 149/149/149
f 139/139/139 149/149/149 138/138/138
f 95/95/95 94/94/94 525/525/218
f 95/95/95 525/525/218 526/526/217
f 125/125/125 95/95/95 526/526/217
f 125/125/125 526/526/217 527/527/251
f 126/126/126 125/125/125 527/527/251
f 126/126/126 527/527/251 528/528/525
f 378/378/378 126/126/126 528/528/525
f 378/378/378 528/528/525 529/529/497
f 358/358/358 378/378/378 529/529/497
f 358/358/358 529/529/497 530/530/477
f 359/359/359 358/358/358 530/530/477
f 359/359/359 530/530/477 531/531/526
f 511/511/511 392/392/392 403/403/403
f 511/511/511 403/403/403 523/523/523
f 334/334/334 333/333/333 328/328/328
f 334/334/334 328/328/328 327/327/327
f 325/325/325 324/324/324 393/393/393
f 325/325/325 393/393/393 383/383/383
f 380/380/380 325/325/325 383/383/383
f 380/380/380 383/383/383 379/379/379
f 379/379/379 278/278/278 319/319/319
f 379/379/379 319/319/319 380/380/380
f 278/278/278 277/277/277 320/320/320
f 278/278/278 320/320/320 319/319/319
f 405/405/405 437/437/437 320/320/320
f 405/405/405 320/320/320 277/277/277
f 498/498/498 499/499/499 437/437/437
f 498/498/498 437/437/437 405/405/405
f 442/442/442 499/499/499 498/498/498
f 442/442/442 498/498/498 502/502/502
f 514/514/514 439/439/439 442/442/442
f 514/514/514 442/442/442 502/502/502
f 448/448/448 444/444/444 443/443/443
f 448/448/448 443/443/443 449/449/449
f 67/67/67 66/66/66 330/330/330
f 67/67/67 330/330/330 329/329/329
f 62/62/62 532/532/323 533/533/326
f 62/62/62 533/533/326 63/63/63
f 534/534/381 128/128/128 63/63/63
f 534/534/381 63/63/63 533/533/326
f 59/59/59 128/128/128 534/534/381
f 59/59/59 534/534/381 535/535/322
f 60/60/60 59/59/59 535/535/322
f 60/60/60 535/535/322 536/536/321
f 181/181/181 60/60/60 536/536/321
f 181/181/181 536/536/321 537/537/527
f 253/253/253 181/181/181 537/537/527
f 253/253/253 537/537/527 538/538/500
f 538/538/500 539/539/441 182/182/182
f 538/538/500 182/182/182 253/253/253
f 540/540/440 183/183/183 182/182/182
f 540/540/440 182/182/182 539/539/441
f 189/189/189 188/188/188 446/446/446
f 189/189/189 446/446/446 445/445/445
f 445/445/445 444/444/444 235/235/235
f 445/445/445 235/235/235 189/189/189
f 234/234/234 186/186/186 189/189/189
f 234/234/234 189/189/189 235/235/235
f 367/367/367 334/334/334 327/327/327
f 367/367/367 327/327/327 111/111/111
f 330/330/330 66/66/66 111/111/111
f 330/330/330 111/111/111 327/327/327
f 51/51/51 39/39/39 138/138/138
f 51/51/51 138/138/138 137/137/137
f 36/36/36 39/39/39 51/51/51
f 36/36/36 51/51/51 37/37/37
f 429/429/429 419/419/419 512/512/512
f 429/429/429 512/512/512 510/510/510
f 299/299/299 419/419/419 429/429/429
f 299/299/299 429/429/429 417/417/417
f 418/418/418 300/300/300 392/392/392
f 418/418/418 392/392/392 511/511/511
f 329/329/329 328/328/328 541/541/528
f 329/329/329 541/541/528 542/542/323
f 543/543/393 541/541/528 328/328/328
f 543/543/393 328/328/328 333/333/333
f 332/332/332 544/544/394 543/543/393
f 332/332/332 543/543/393 333/333/333
f 336/336/336 545/545/337 544/544/394
f 336/336/336 544/544/394 332/332/332
f 336/336/336 342/342/342 546/546/338
f 336/336/336 546/546/338 545/545/337
f 344/344/344 547/547/529 546/546/338
f 344/344/344 546/546/338 342/342/342
f 346/346/346 548/548/530 547/547/529
f 346/346/346 547/547/529 344/344/344
f 348/348/348 549/549/397 548/548/530
f 348/348/348 548/548/530 346/346/346
f 350/350/350 550/550/398 549/549/397
f 350/350/350 549/549/397 348/348/348
f 352/352/352 551/551/531 550/550/398
f 352/352/352 550/550/398 350/350/350
f 353/353/353 552/552/400 551/551/531
f 353/353/353 551/551/531 352/352/352
f 355/355/355 553/553/401 552/552/400
f 355/355/355 552/552/400 353/353/353
f 357/357/357 554/554/402 553/553/401
f 357/357/357 553/553/401 355/355/355
f 359/359/359 555/555/403 554/554/402
f 359/359/359 554/554/402 357/357/357
f 556/556/532 555/555/403 359/359/359
f 556/556/532 359/359/359 531/531/526
f 557/557/533 558/558/534 476/476/476
f 557/557/533 476/476/476 475/475/475
f 559/559/535 557/557/533 475/475/475
f 559/559/535 475/475/475 472/472/472
f 472/472/472 471/471/471 560/560/521
f 472/472/472 560/560/521 559/559/535
f 471/471/471 469/469/469 561/561/520
f 471/471/471 561/561/520 560/560/521
f 469/469/469 467/467/467 562/562/519
f 469/469/469 562/562/519 561/561/520
f 467/467/467 465/465/465 563/563/518
f 467/467/467 563/563/518 562/562/519
f 465/465/465 463/463/463 564/564/517
f 465/465/465 564/564/517 563/563/518
f 463/463/463 462/462/462 565/565/516
f 463/463/463 565/565/516 564/564/517
f 462/462/462 459/459/459 566/566/536
f 462/462/462 566/566/536 565/565/516
f 459/459/459 457/457/457 567/567/453
f 459/459/459 567/567/453 566/566/536
f 452/452/452 568/568/454 567/567/453
f 452/452/452 567/567/453 457/457/457
f 452/452/452 450/450/450 569/569/513
f 452/452/452 569/569/513 568/568/454
f 450/450/450 449/449/449 570/570/514
f 450/450/450 570/570/514 569/569/513
f 443/443/443 571/571/537 570/570/514
f 443/443/443 570/570/514 449/449/449
f 446/446/446 572/572/440 571/571/537
f 446/446/446 571/571/537 443/443/443
f 446/446/446 188/188/188 573/573/538
f 446/446/446 573/573/538 572/572/440
f 574/574/184 573/573/538 188/188/188
f 574/574/184 188/188/188 187/187/187
f 191/191/191 575/575/264 574/574/184
f 191/191/191 574/574/184 187/187/187
f 193/193/193 576/576/539 575/575/264
f 193/193/193 575/575/264 191/191/191
f 193/193/193 199/199/199 577/577/540
f 193/193/193 577/577/540 576/576/539
f 201/201/201 578/578/265 577/577/540
f 201/201/201 577/577/540 199/199/199
f 203/203/203 579/579/266 578/578/265
f 203/203/203 578/578/265 201/201/201
f 205/205/205 580/580/267 579/579/266
f 205/205/205 579/579/266 203/203/203
f 207/207/207 581/581/268 580/580/267
f 207/207/207 580/580/267 205/205/205
f 209/209/209 582/582/269 581/581/268
f 209/209/209 581/581/268 207/207/207
f 210/210/210 583/583/270 582/582/269
f 210/210/210 582/582/269 209/209/209
f 212/212/212 584/584/271 583/583/270
f 212/212/212 583/583/270 210/210/210
f 214/214/214 585/585/272 584/584/271
f 214/214/214 584/584/271 212/212/212
f 215/215/215 586/586/541 585/585/272
f 215/215/215 585/585/272 214/214/214
f 587/587/274 586/586/541 215/215/215
f 587/587/274 215/215/215 218/218/218
f 588/588/149 589/589/542 525/525/218
f 588/588/149 525/525/218 94/94/94
f 590/590/148 588/588/149 94/94/94
f 590/590/148 94/94/94 92/92/92
f 92/92/92 91/91/91 591/591/147
f 92/92/92 591/591/147 590/590/148
f 91/91/91 89/89/89 592/592/146
f 91/91/91 592/592/146 591/591/147
f 89/89/89 87/87/87 593/593/145
f 89/89/89 593/593/145 592/592/146
f 87/87/87 85/85/85 594/594/543
f 87/87/87 594/594/543 593/593/145
f 85/85/85 83/83/83 595/595/143
f 85/85/85 595/595/143 594/594/543
f 83/83/83 82/82/82 596/596/544
f 83/83/83 596/596/544 595/595/143
f 82/82/82 79/79/79 597/597/141
f 82/82/82 597/597/141 596/596/544
f 79/79/79 77/77/77 598/598/545
f 79/79/79 598/598/545 597/597/141
f 72/72/72 599/599/74 598/598/545
f 72/72/72 598/598/545 77/77/77
f 72/72/72 70/70/70 600/600/140
f 72/72/72 600/600/140 599/599/74
f 70/70/70 68/68/68 601/601/61
f 70/70/70 601/601/61 600/600/140
f 67/67/67 602/602/62 601/601/61
f 67/67/67 601/601/61 68/68/68
f 329/329/329 542/542/323 602/602/62
f 329/329/329 602/602/62 67/67/67
