# Blender 3.6.22
# www.blender.org
mtllib cola2_pokemon.mtl
o pm0887_00_00_BodyASkin.005
v 0.074626 -0.033257 0.022890
v 0.052207 -0.120051 -0.078092
v 0.053524 -0.035532 0.123213
v 0.073303 -0.122698 0.020790
v 0.052205 -0.124953 0.118757
v 0.069076 -0.032533 -0.003848
v 0.074638 -0.032533 0.022907
v 0.054193 -0.032533 0.120318
v 0.053575 -0.032533 0.123360
v 0.001809 -0.032533 0.251500
v -0.001716 -0.032533 0.260260
v -0.001753 -0.038932 0.259735
v -0.021241 -0.039027 0.274579
v -0.002179 -0.128246 0.251146
v -0.021241 -0.128070 0.265982
v -0.021241 -0.216131 0.256705
v -0.040729 -0.038932 0.259735
v -0.040303 -0.128246 0.251146
v -0.096006 -0.035532 0.123213
v -0.094687 -0.124953 0.118757
v -0.039914 -0.216469 0.241958
v -0.093443 -0.213314 0.114127
v -0.039554 -0.305483 0.231737
v -0.021241 -0.305217 0.246256
v -0.002567 -0.216469 0.241958
v -0.002928 -0.305483 0.231737
v -0.021241 -0.392288 0.234891
v -0.039183 -0.392575 0.220769
v -0.021241 -0.446874 0.227416
v -0.003299 -0.392575 0.220769
v 0.049741 -0.302523 0.108995
v 0.048375 -0.389799 0.103378
v -0.003512 -0.446874 0.213715
v -0.014399 -0.446874 0.222046
v 0.015709 -0.446874 0.169906
v 0.047403 -0.446874 0.099522
v 0.054544 -0.446874 0.068795
v 0.069103 -0.387681 0.014477
v 0.067829 -0.446874 0.013037
v 0.053827 -0.446874 -0.045506
v 0.047331 -0.446874 -0.073351
v 0.010894 -0.446874 -0.155728
v 0.048377 -0.385368 -0.074575
v 0.070737 -0.300329 0.016588
v -0.003289 -0.382203 -0.195773
v 0.049743 -0.297914 -0.076118
v 0.050963 -0.208548 -0.077271
v 0.072021 -0.211058 0.018712
v -0.002911 -0.294636 -0.203876
v -0.002551 -0.205187 -0.211129
v -0.021241 -0.293638 -0.218785
v -0.021241 -0.381210 -0.210009
v -0.021241 -0.446874 -0.203147
v -0.039571 -0.294636 -0.203876
v -0.039193 -0.382203 -0.195773
v -0.092225 -0.297914 -0.076118
v -0.038895 -0.446874 -0.189600
v -0.025938 -0.446874 -0.199450
v -0.090858 -0.385368 -0.074575
v -0.113219 -0.300329 0.016588
v -0.089812 -0.446874 -0.073351
v -0.053374 -0.446874 -0.155728
v -0.111585 -0.387681 0.014477
v -0.097024 -0.446874 0.068795
v -0.096308 -0.446874 -0.045506
v -0.110310 -0.446874 0.013037
v -0.090857 -0.389799 0.103378
v -0.092223 -0.302523 0.108995
v -0.058191 -0.446874 0.169906
v -0.089884 -0.446874 0.099522
v -0.038969 -0.446874 0.213715
v -0.028082 -0.446874 0.222046
v -0.114503 -0.211058 0.018712
v -0.093445 -0.208548 -0.077271
v -0.115785 -0.122698 0.020790
v -0.117108 -0.033257 0.022890
v -0.094689 -0.120051 -0.078092
v -0.040315 -0.116590 -0.216992
v -0.039930 -0.205187 -0.211129
v -0.095977 -0.032533 -0.078737
v -0.111557 -0.032533 -0.003848
v -0.094694 -0.032533 -0.082011
v -0.040707 -0.032533 -0.221658
v -0.039503 -0.032533 -0.222646
v -0.021241 -0.032533 -0.237576
v -0.021241 -0.115653 -0.232704
v -0.002978 -0.032533 -0.222646
v -0.002167 -0.116590 -0.216992
v -0.021241 -0.204100 -0.226501
v -0.001775 -0.032533 -0.221658
v 0.052213 -0.032533 -0.082011
v 0.053496 -0.032533 -0.078737
v -0.117119 -0.032533 0.022907
v -0.096675 -0.032533 0.120318
v -0.096056 -0.032533 0.123360
v -0.044290 -0.032533 0.251500
v -0.040765 -0.032533 0.260260
v -0.022557 -0.032533 0.274137
v -0.021241 -0.032533 0.275107
v -0.019924 -0.032533 0.274137
v -0.016544 -0.446874 -0.199450
v -0.003586 -0.446874 -0.189600
v 0.050961 -0.213314 0.114127
vn 0.9999 -0.0165 0.0008
vn 0.9999 -0.0161 0.0005
vn 0.9544 -0.0185 -0.2978
vn 0.9583 -0.0162 -0.2854
vn 0.9789 -0.0159 -0.2036
vn 0.9501 -0.0302 0.3106
vn 0.9564 -0.0218 0.2913
vn 0.9999 -0.0156 0.0041
vn 0.9788 -0.0216 0.2038
vn -0.0000 1.0000 -0.0000
vn 0.9564 -0.0303 0.2903
vn 0.7328 -0.0900 0.6744
vn 0.9268 -0.0343 0.3741
vn 0.7880 -0.0548 0.6132
vn 0.8952 -0.0471 0.4432
vn 0.1256 -0.0978 0.9872
vn -0.0000 -0.4686 0.8834
vn 0.5991 -0.0671 0.7979
vn 0.3780 -0.1428 0.9147
vn -0.7347 -0.0667 0.6752
vn -0.7766 -0.0419 0.6286
vn -0.9585 -0.0291 0.2837
vn -0.8456 -0.0372 0.5326
vn -0.9501 -0.0302 0.3106
vn 0.0795 0.2561 0.9634
vn -0.7920 0.0145 0.6104
vn -0.9481 -0.0315 0.3163
vn 0.8925 -0.0510 0.4482
vn 0.8888 -0.0561 0.4548
vn -0.0000 -0.3811 0.9245
vn -0.7671 -0.1322 0.6277
vn -0.0000 -0.1357 0.9908
vn -0.6096 -0.1062 0.7855
vn 0.8238 -0.1356 0.5504
vn 0.6096 -0.1062 0.7855
vn 0.9457 -0.0344 0.3231
vn 0.9497 -0.0313 0.3115
vn 0.7937 -0.0814 0.6028
vn 0.9136 -0.0531 0.4031
vn -0.0000 -1.0000 -0.0000
vn 0.9479 -0.0375 0.3163
vn 0.9998 -0.0215 -0.0004
vn 0.9733 -0.0305 0.2276
vn 0.9998 -0.0214 -0.0040
vn 0.9734 -0.0197 -0.2285
vn 0.9484 -0.0224 -0.3164
vn 0.9474 -0.0248 -0.3190
vn 0.9179 -0.0382 -0.3950
vn 0.9998 -0.0180 -0.0005
vn 0.9480 -0.0200 -0.3177
vn 0.7929 0.0310 -0.6086
vn 0.7943 -0.0613 -0.6044
vn 0.9999 -0.0161 0.0002
vn 0.9507 -0.0178 -0.3095
vn 0.8959 -0.0395 -0.4425
vn 0.9004 -0.0339 -0.4338
vn -0.0000 0.3031 -0.9530
vn -0.0000 0.1600 -0.9871
vn -0.7641 -0.0237 -0.6447
vn -0.0000 -0.1039 -0.9946
vn -0.6107 -0.0804 -0.7877
vn 0.6107 -0.0804 -0.7878
vn -0.7445 -0.0826 -0.6625
vn -0.9481 -0.0172 -0.3175
vn -0.9480 -0.0200 -0.3177
vn -0.7943 -0.0613 -0.6044
vn -0.9179 -0.0382 -0.3950
vn -0.9998 -0.0180 -0.0001
vn -0.9998 -0.0215 -0.0004
vn -0.9484 -0.0224 -0.3164
vn -0.9734 -0.0197 -0.2285
vn -0.9479 -0.0375 0.3163
vn -0.9479 -0.0444 0.3156
vn -0.9733 -0.0305 0.2276
vn -0.9998 -0.0214 -0.0040
vn -0.9457 -0.0344 0.3231
vn -0.9136 -0.0531 0.4031
vn -0.7937 -0.0814 0.6028
vn -0.9999 -0.0161 0.0002
vn -0.9507 -0.0178 -0.3095
vn -0.9999 -0.0161 -0.0004
vn -0.9549 -0.0116 -0.2969
vn -0.9999 -0.0161 0.0008
vn -0.9583 -0.0162 -0.2854
vn -0.9789 -0.0159 -0.2037
vn -0.7491 -0.0732 -0.6584
vn -0.8103 -0.0078 -0.5860
vn -0.9312 -0.0177 -0.3641
vn -0.8057 -0.0366 -0.5911
vn -0.6332 -0.0456 -0.7727
vn -0.0000 0.0708 -0.9975
vn -0.0000 -0.0585 -0.9983
vn 0.8072 0.0543 -0.5878
vn 0.6332 -0.0456 -0.7727
vn 0.8057 -0.0366 -0.5911
vn -0.0000 0.3210 -0.9471
vn 0.9312 -0.0177 -0.3641
vn -0.9999 -0.0156 0.0041
vn -0.9788 -0.0216 0.2038
vn -0.9564 -0.0303 0.2903
vn -0.9268 -0.0343 0.3741
vn -0.7880 -0.0548 0.6132
vn -0.5991 -0.0671 0.7979
vn -0.0000 -0.0810 0.9967
vn 0.9481 -0.0315 0.3163
vt 0.907719 0.747272
vt 0.907719 0.721479
vt 0.935341 0.721479
vt 0.936351 0.746687
vt 0.915257 0.747272
vt 0.877203 0.721479
vt 0.876788 0.747272
vt 0.907719 0.747481
vt 0.877702 0.748116
vt 0.456543 0.000000
vt 0.457201 0.000000
vt 0.457859 0.000000
vt 0.466964 0.000000
vt 0.468726 0.000000
vt 0.494609 0.000000
vt 0.494918 0.000000
vt 0.505140 0.000000
vt 0.502360 0.000000
vt 0.494570 0.000000
vt 0.493928 0.000000
vt 0.466934 0.000000
vt 0.466333 0.000000
vt 0.448070 0.000000
vt 0.447468 0.000000
vt 0.420475 0.000000
vt 0.419833 0.000000
vt 0.412043 0.000000
vt 0.409262 0.000000
vt 0.419484 0.000000
vt 0.419794 0.000000
vt 0.445677 0.000000
vt 0.447439 0.000000
vt 0.876776 0.748138
vt 0.834262 0.747272
vt 0.836897 0.749059
vt 0.834174 0.749122
vt 0.835880 0.721479
vt 0.827192 0.747272
vt 0.828910 0.721479
vt 0.827566 0.749147
vt 0.830825 0.696036
vt 0.169175 0.696036
vt 0.171090 0.721479
vt 0.164120 0.721479
vt 0.172808 0.747272
vt 0.165738 0.747272
vt 0.123212 0.747272
vt 0.162309 0.696036
vt 0.122797 0.721479
vt 0.166950 0.670331
vt 0.160206 0.670331
vt 0.122304 0.696036
vt 0.837691 0.696036
vt 0.833050 0.670331
vt 0.839794 0.670331
vt 0.164457 0.645193
vt 0.835543 0.645193
vt 0.157869 0.645193
vt 0.162792 0.629435
vt 0.160283 0.629467
vt 0.842131 0.645193
vt 0.839717 0.629467
vt 0.837208 0.629435
vt 0.878340 0.670331
vt 0.879147 0.645193
vt 0.843671 0.629530
vt 0.857472 0.629232
vt 0.465647 0.000000
vt 0.467996 0.000000
vt 0.470344 0.000000
vt 0.476823 0.000000
vt 0.484063 0.000000
vt 0.502282 0.000000
vt 0.505530 0.000000
vt 0.512531 0.000000
vt 0.505888 0.000000
vt 0.502318 0.000000
vt 0.486471 0.000000
vt 0.476860 0.000000
vt 0.471417 0.000000
vt 0.464575 0.000000
vt 0.459131 0.000000
vt 0.449521 0.000000
vt 0.433674 0.000000
vt 0.430104 0.000000
vt 0.423461 0.000000
vt 0.430462 0.000000
vt 0.433710 0.000000
vt 0.451929 0.000000
vt 0.459169 0.000000
vt 0.879741 0.628757
vt 0.907719 0.645193
vt 0.889608 0.628546
vt 0.907719 0.628158
vt 0.923423 0.627727
vt 0.930970 0.627519
vt 0.931877 0.645193
vt 0.956938 0.626897
vt 0.907719 0.670331
vt 0.933116 0.670331
vt 0.969898 0.645193
vt 0.967559 0.626642
vt 0.907719 0.696036
vt 0.934277 0.696036
vt 0.972993 0.670331
vt 0.975885 0.696036
vt 0.979814 0.670331
vt 0.976513 0.645193
vt 0.030102 0.645193
vt 0.023487 0.645193
vt 0.026036 0.626351
vt 0.027757 0.626426
vt 0.972243 0.626426
vt 0.973964 0.626351
vt 0.027007 0.670331
vt 0.020186 0.670331
vt 0.068123 0.645193
vt 0.066884 0.670331
vt 0.032441 0.626642
vt 0.043062 0.626897
vt 0.092281 0.670331
vt 0.092281 0.645193
vt 0.069030 0.627519
vt 0.076577 0.627727
vt 0.120259 0.628757
vt 0.120853 0.645193
vt 0.110392 0.628546
vt 0.092282 0.628158
vt 0.121660 0.670331
vt 0.142528 0.629232
vt 0.156329 0.629530
vt 0.092282 0.696036
vt 0.065723 0.696036
vt 0.092281 0.721479
vt 0.064659 0.721479
vt 0.092281 0.747272
vt 0.063649 0.746687
vt 0.084743 0.747272
vt 0.024115 0.696036
vt 0.021597 0.721479
vt 0.062635 0.746664
vt 0.019451 0.745662
vt 0.019002 0.745645
vt 0.014463 0.721479
vt 0.012205 0.745464
vt 0.978403 0.721479
vt 0.985537 0.721479
vt 0.980998 0.745645
vt 0.980549 0.745662
vt 0.987795 0.745464
vt 0.982873 0.696036
vt 0.017127 0.696036
vt 0.937365 0.746664
vt 0.092281 0.747481
vt 0.122298 0.748116
vt 0.123224 0.748138
vt 0.163103 0.749059
vt 0.165826 0.749122
vt 0.172434 0.749147
vt 0.172905 0.749154
vt 0.827095 0.749154
vt 0.877696 0.696036
s 0
usemtl pm0887_00_00-BodyA00
f 98/10/10 99/11/10 100/12/10 11/13/10 10/14/10 9/15/10 8/16/10 7/17/10 6/18/10 92/19/10 91/20/10 90/21/10 87/22/10 85/11/10 84/23/10 83/24/10 82/25/10 80/26/10 81/27/10 93/28/10 94/29/10 95/30/10 96/31/10 97/32/10
f 58/68/40 53/69/40 101/70/40 102/71/40 42/72/40 41/73/40 40/74/40 39/75/40 37/76/40 36/77/40 35/78/40 33/79/40 34/80/40 29/69/40 72/81/40 71/82/40 69/83/40 70/84/40 64/85/40 66/86/40 65/87/40 61/88/40 62/89/40 57/90/40
s 1
usemtl pm0887_00_00-BodyAVco00
f 1/1/1 4/2/2 2/3/3
f 1/1/1 2/3/3 92/4/4 6/5/5
f 5/6/6 1/1/1 3/7/7
f 3/7/7 1/1/1 7/8/8 8/9/9
f 5/6/6 4/2/2 1/1/1
f 1/1/1 6/5/5 7/8/8
f 3/7/7 8/9/9 9/33/11
f 12/34/12 3/7/7 9/33/11 10/35/13
f 12/34/12 10/35/13 11/36/14
f 14/37/15 3/7/7 12/34/12
f 12/34/12 13/38/16 15/39/17
f 100/40/18 13/38/16 12/34/12 11/36/14
f 12/34/12 15/39/17 14/37/15
f 14/37/15 15/39/17 16/41/19
f 16/42/19 15/43/17 18/44/20
f 15/43/17 13/45/16 17/46/21
f 15/43/17 17/46/21 18/44/20
f 18/44/20 17/46/21 19/47/22
f 16/42/19 18/44/20 21/48/23
f 18/44/20 19/47/22 20/49/24
f 20/49/24 21/48/23 18/44/20
f 24/50/25 16/42/19 21/48/23
f 23/51/26 21/48/23 22/52/27
f 20/49/24 22/52/27 21/48/23
f 24/50/25 21/48/23 23/51/26
f 25/53/28 24/54/25 26/55/29
f 25/53/28 16/41/19 24/54/25
f 27/56/30 24/50/25 23/51/26
f 26/55/29 24/54/25 27/57/30
f 27/56/30 23/51/26 28/58/31
f 29/59/32 27/56/30 28/58/31 72/60/33
f 26/55/29 27/57/30 30/61/34
f 34/62/35 30/61/34 27/57/30 29/63/32
f 30/61/34 31/64/36 26/55/29
f 30/61/34 32/65/37 31/64/36
f 32/65/37 30/61/34 33/66/38 35/67/39
f 33/66/38 30/61/34 34/62/35
f 32/65/37 35/67/39 36/91/41
f 38/92/42 32/65/37 36/91/41 37/93/43
f 38/92/42 37/93/43 39/94/44
f 38/92/42 39/94/44 40/95/45
f 40/95/45 41/96/46 43/97/47 38/92/42
f 43/97/47 41/96/46 42/98/48
f 44/99/49 38/92/42 43/97/47
f 44/99/49 43/97/47 46/100/50
f 46/100/50 43/97/47 45/101/51
f 42/98/48 102/102/52 45/101/51 43/97/47
f 48/103/53 46/100/50 47/104/54
f 47/104/54 46/100/50 49/105/55
f 48/103/53 44/99/49 46/100/50
f 46/100/50 45/101/51 49/105/55
f 47/104/54 49/105/55 50/106/56
f 50/106/56 49/105/55 51/107/57
f 49/105/55 52/108/58 51/107/57
f 49/105/55 45/101/51 52/108/58
f 55/109/59 52/110/58 53/111/60 58/112/61
f 101/113/62 53/114/60 52/108/58 45/101/51
f 52/110/58 55/109/59 54/115/63
f 52/110/58 54/115/63 51/116/57
f 55/109/59 59/117/64 56/118/65
f 55/109/59 56/118/65 54/115/63
f 55/109/59 58/112/61 57/119/66
f 55/109/59 57/119/66 62/120/67 59/117/64
f 59/117/64 60/121/68 56/118/65
f 59/117/64 63/122/69 60/121/68
f 59/117/64 61/123/70 65/124/71 63/122/69
f 59/117/64 62/120/67 61/123/70
f 70/125/72 67/126/73 63/122/69 64/127/74
f 63/122/69 66/128/75 64/127/74
f 63/122/69 65/124/71 66/128/75
f 67/126/73 60/121/68 63/122/69
f 28/58/31 68/129/76 67/126/73
f 67/126/73 68/129/76 60/121/68
f 28/58/31 67/126/73 69/130/77 71/131/78
f 67/126/73 70/125/72 69/130/77
f 28/58/31 71/131/78 72/60/33
f 28/58/31 23/51/26 68/129/76
f 23/51/26 22/52/27 68/129/76
f 68/129/76 73/132/79 60/121/68
f 68/129/76 22/52/27 73/132/79
f 73/132/79 74/133/80 56/118/65
f 74/133/80 73/132/79 75/134/81
f 75/134/81 73/132/79 22/52/27
f 73/132/79 56/118/65 60/121/68
f 74/133/80 75/134/81 77/135/82
f 75/134/81 22/52/27 20/49/24
f 20/49/24 76/136/83 75/134/81
f 77/135/82 75/134/81 76/136/83
f 80/137/84 77/135/82 76/136/83 81/138/85
f 79/139/86 77/135/82 78/140/87
f 77/135/82 80/137/84 82/141/88 78/140/87
f 79/139/86 74/133/80 77/135/82
f 78/140/87 82/141/88 83/142/89
f 84/143/90 86/144/91 78/140/87 83/142/89
f 86/144/91 84/143/90 85/145/92
f 88/146/93 86/147/91 87/148/94 90/149/95
f 85/150/92 87/148/94 86/147/91
f 88/146/93 89/151/96 86/147/91
f 89/152/96 78/140/87 86/144/91
f 50/106/56 51/107/57 89/151/96
f 88/146/93 50/106/56 89/151/96
f 51/116/57 79/139/86 89/152/96
f 89/152/96 79/139/86 78/140/87
f 2/3/3 50/106/56 88/146/93
f 91/153/97 92/4/4 2/3/3 88/146/93
f 88/146/93 90/149/95 91/153/97
f 76/136/83 93/154/98 81/138/85
f 76/136/83 19/47/22 94/155/99 93/154/98
f 19/47/22 95/156/100 94/155/99
f 95/156/100 19/47/22 17/46/21 96/157/101
f 17/46/21 97/158/102 96/157/101
f 17/46/21 13/45/16 98/159/103 97/158/102
f 13/45/16 99/160/104 98/159/103
f 99/161/104 13/38/16 100/40/18
f 51/116/57 54/115/63 79/139/86
f 54/115/63 74/133/80 79/139/86
f 20/49/24 19/47/22 76/136/83
f 54/115/63 56/118/65 74/133/80
f 102/102/52 101/113/62 45/101/51
f 2/3/3 47/104/54 50/106/56
f 4/2/2 48/103/53 47/104/54
f 103/162/105 48/103/53 4/2/2
f 48/103/53 103/162/105 31/64/36
f 48/103/53 31/64/36 44/99/49
f 103/162/105 4/2/2 5/6/6
f 25/53/28 103/162/105 5/6/6
f 26/55/29 103/162/105 25/53/28
f 26/55/29 31/64/36 103/162/105
f 4/2/2 47/104/54 2/3/3
f 44/99/49 31/64/36 32/65/37
f 44/99/49 32/65/37 38/92/42
f 14/37/15 16/41/19 25/53/28
f 25/53/28 5/6/6 14/37/15
f 14/37/15 5/6/6 3/7/7
