# Blender 3.6.22
# www.blender.org
mtllib cola4_pokemon.mtl
o pm0887_00_00_BodyASkin.007
v 0.000000 -0.055516 -0.122777
v 0.008247 -0.013712 -0.121915
v 0.000000 -0.013712 -0.127131
v -0.008246 -0.013712 -0.121915
v -0.015770 -0.055298 -0.113805
v 0.015770 -0.055298 -0.113805
v 0.000000 -0.130692 -0.115123
v 0.016983 -0.130537 -0.106784
v 0.000000 -0.207706 -0.107106
v -0.016983 -0.130537 -0.106784
v -0.055814 -0.057127 -0.040231
v -0.053972 -0.132239 -0.038235
v -0.018153 -0.207970 -0.099390
v 0.000000 -0.282129 -0.099353
v -0.051904 -0.209539 -0.036157
v -0.019200 -0.282488 -0.091406
v 0.000000 -0.353565 -0.092337
v -0.049845 -0.283908 -0.034132
v -0.019932 -0.353881 -0.083798
v -0.047933 -0.355156 -0.032352
v -0.020423 -0.423393 -0.076758
v 0.000000 -0.423223 -0.086052
v 0.019933 -0.353881 -0.083798
v 0.000000 -0.500539 -0.079720
v 0.020423 -0.423393 -0.076758
v 0.047934 -0.355156 -0.032352
v 0.021292 -0.500422 -0.070079
v 0.046062 -0.424526 -0.030835
v 0.059291 -0.425483 0.007519
v 0.043529 -0.501405 -0.029419
v 0.061817 -0.356194 0.009238
v 0.064391 -0.285032 0.010991
v 0.047934 -0.357227 0.050827
v 0.046062 -0.426436 0.045874
v 0.020441 -0.427590 0.091797
v 0.043529 -0.503149 0.040606
v 0.021375 -0.504190 0.081216
v 0.000000 -0.504787 0.090891
v 0.000000 -0.573154 0.081943
v 0.021617 -0.572504 0.071577
v 0.042248 -0.571618 0.035877
v 0.021876 -0.644047 0.062581
v 0.000000 -0.644529 0.072497
v 0.000000 -0.715462 0.061792
v -0.021876 -0.644047 0.062581
v -0.021617 -0.572504 0.071577
v -0.021374 -0.504190 0.081216
v -0.042248 -0.571618 0.035877
v -0.043528 -0.503149 0.040606
v -0.046061 -0.426436 0.045874
v -0.059291 -0.425483 0.007519
v -0.055790 -0.502279 0.005594
v -0.043528 -0.501405 -0.029419
v -0.042248 -0.570022 -0.028201
v -0.052645 -0.570823 0.003838
v -0.040225 -0.641794 -0.026949
v -0.048532 -0.642519 0.001945
v -0.040225 -0.643233 0.030839
v -0.037496 -0.714267 0.026614
v -0.020885 -0.715023 0.053682
v 0.000000 -0.780752 0.051435
v -0.019309 -0.780317 0.044325
v -0.017063 -0.842356 0.034870
v 0.000000 -0.842809 0.040995
v -0.033894 -0.779631 0.022336
v -0.039492 -0.779071 -0.001831
v -0.044216 -0.713621 -0.000015
v -0.029679 -0.841765 0.017566
v -0.034227 -0.841343 -0.003549
v -0.014056 -0.906742 0.024555
v -0.024417 -0.906349 0.011767
v -0.010755 -0.960981 0.014715
v -0.018628 -0.960757 0.005716
v -0.028062 -0.906141 -0.005301
v -0.024417 -0.905500 -0.022359
v -0.021509 -0.960555 -0.006581
v -0.018628 -0.960146 -0.018872
v -0.012376 -1.003799 -0.014359
v -0.010754 -0.959922 -0.027871
v 0.000000 -0.959840 -0.031165
v -0.014056 -0.905256 -0.035153
v -0.006614 -1.009294 -0.018431
v -0.006295 -1.016135 -0.007945
v 0.000000 -1.011282 -0.019621
v -0.012874 -1.006110 -0.007681
v -0.012376 -1.004134 -0.000890
v -0.006614 -1.009825 0.002888
v 0.000000 -0.961064 0.018009
v 0.000000 -1.011869 0.003969
v 0.006614 -1.009825 0.002888
v 0.006296 -1.016135 -0.007945
v 0.000000 -1.020103 -0.008050
v 0.012875 -1.006110 -0.007681
v 0.006615 -1.009294 -0.018431
v 0.012377 -1.003799 -0.014359
v 0.010755 -0.959922 -0.027871
v 0.024417 -0.905500 -0.022359
v 0.014057 -0.905256 -0.035153
v 0.018628 -0.960146 -0.018872
v 0.028062 -0.906141 -0.005301
v 0.021510 -0.960555 -0.006581
v 0.012377 -1.004134 -0.000890
v 0.018628 -0.960757 0.005716
v 0.010755 -0.960981 0.014715
v 0.024417 -0.906349 0.011767
v 0.034227 -0.841343 -0.003549
v 0.014057 -0.906742 0.024555
v 0.029679 -0.841765 0.017566
v 0.039493 -0.779071 -0.001831
v 0.033895 -0.779631 0.022336
v 0.017063 -0.842356 0.034870
v 0.019310 -0.780317 0.044325
v 0.000000 -0.907013 0.029266
v 0.037497 -0.714267 0.026614
v 0.020886 -0.715023 0.053682
v 0.040226 -0.643233 0.030839
v 0.052646 -0.570823 0.003838
v 0.048533 -0.642519 0.001945
v 0.040226 -0.641794 -0.026949
v 0.037497 -0.712941 -0.026643
v 0.044217 -0.713621 -0.000015
v 0.033895 -0.778427 -0.025995
v 0.019302 -0.778024 -0.047782
v 0.017063 -0.840443 -0.041960
v 0.029679 -0.840714 -0.024658
v 0.000000 -0.840590 -0.048112
v 0.000000 -0.905291 -0.039870
v -0.017063 -0.840443 -0.041960
v -0.033894 -0.778427 -0.025995
v -0.029679 -0.840714 -0.024658
v -0.019302 -0.778024 -0.047782
v -0.020810 -0.712360 -0.053289
v -0.037496 -0.712941 -0.026643
v 0.000000 -0.778098 -0.055115
v 0.000000 -0.712383 -0.061838
v 0.020810 -0.712360 -0.053289
v 0.021645 -0.641023 -0.058871
v 0.000000 -0.641015 -0.068620
v 0.021799 -0.569114 -0.064562
v 0.042248 -0.570022 -0.028201
v 0.055790 -0.502279 0.005594
v 0.000000 -0.569264 -0.074283
v -0.021292 -0.500422 -0.070079
v -0.021799 -0.569114 -0.064562
v -0.021644 -0.641023 -0.058871
v -0.046061 -0.424526 -0.030835
v -0.061816 -0.356194 0.009238
v -0.047933 -0.357227 0.050827
v -0.064390 -0.285032 0.010991
v -0.067153 -0.210757 0.012808
v -0.049845 -0.286155 0.056115
v -0.019199 -0.287587 0.113388
v -0.019934 -0.358514 0.102274
v -0.051904 -0.211978 0.061774
v -0.069910 -0.133554 0.014662
v -0.053972 -0.134874 0.067560
v -0.018153 -0.213557 0.125006
v 0.000000 -0.213678 0.132723
v 0.000000 -0.287625 0.121340
v -0.016982 -0.136585 0.136108
v -0.055814 -0.059950 0.073115
v -0.015768 -0.061784 0.146687
v 0.000000 -0.137155 0.144429
v 0.016983 -0.136585 0.136108
v 0.000000 -0.062449 0.155637
v 0.015768 -0.061784 0.146687
v 0.015416 -0.013712 0.153663
v 0.041460 -0.013712 0.105144
v 0.055814 -0.059950 0.073115
v 0.056933 -0.013712 0.076631
v 0.067052 -0.013712 0.040656
v 0.072352 -0.058533 0.016442
v 0.053972 -0.134874 0.067560
v 0.069910 -0.133554 0.014662
v 0.018153 -0.213557 0.125006
v 0.051905 -0.211978 0.061774
v 0.067154 -0.210757 0.012808
v 0.049845 -0.286155 0.056115
v 0.019199 -0.287587 0.113388
v 0.019934 -0.358514 0.102274
v 0.000000 -0.358624 0.110816
v 0.000000 -0.427883 0.101087
v -0.020441 -0.427590 0.091797
v 0.051905 -0.209539 -0.036157
v 0.049845 -0.283908 -0.034132
v 0.019200 -0.282488 -0.091406
v 0.018153 -0.207970 -0.099390
v 0.053972 -0.132239 -0.038235
v 0.055814 -0.057127 -0.040231
v 0.056862 -0.013712 -0.041420
v 0.066762 -0.013712 -0.006464
v 0.073779 -0.013712 0.017530
v 0.039022 -0.013712 -0.074138
v 0.015468 -0.013712 -0.117798
v 0.009613 -0.013712 0.156991
v 0.000000 -0.013712 0.163111
v -0.009613 -0.013712 0.156991
v -0.015416 -0.013712 0.153663
v -0.041460 -0.013712 0.105144
v -0.056933 -0.013712 0.076631
v -0.067052 -0.013712 0.040656
v -0.073778 -0.013712 0.017530
v -0.066762 -0.013712 -0.006464
v -0.072351 -0.058533 0.016442
v -0.056862 -0.013712 -0.041420
v -0.039022 -0.013712 -0.074138
v -0.015468 -0.013712 -0.117798
vn 0.7084 0.0312 -0.7051
vn -0.0000 0.0009 -1.0000
vn 0.5111 -0.0832 -0.8555
vn 0.7051 -0.0627 -0.7064
vn -0.0000 -0.1036 -0.9946
vn -0.5111 -0.0832 -0.8555
vn -0.7100 -0.0304 -0.7036
vn -0.7050 -0.0627 -0.7064
vn -0.0000 0.1612 -0.9869
vn 0.8173 -0.0435 -0.5745
vn -0.0000 0.1253 -0.9921
vn -0.6215 -0.1010 -0.7768
vn -0.6414 -0.1960 -0.7418
vn -0.9221 -0.0254 -0.3861
vn -0.9172 -0.0326 -0.3971
vn -0.0000 0.1151 -0.9934
vn -0.7447 -0.1220 -0.6562
vn -0.9165 -0.0350 -0.3984
vn -0.0000 0.1260 -0.9920
vn -0.7484 -0.0640 -0.6601
vn -0.9147 -0.0355 -0.4026
vn -0.9116 -0.0346 -0.4096
vn -0.6695 -0.0084 -0.7427
vn -0.0000 0.0665 -0.9978
vn 0.7829 -0.0553 -0.6197
vn 0.7162 -0.0522 -0.6960
vn -0.0000 -0.0014 -1.0000
vn 0.9116 -0.0346 -0.4096
vn 0.9103 -0.0335 -0.4127
vn 0.6780 0.0001 -0.7351
vn 0.9141 -0.0316 -0.4043
vn 0.9991 -0.0417 -0.0032
vn 0.9993 -0.0383 -0.0009
vn 0.9992 -0.0388 -0.0010
vn 0.9116 -0.0547 0.4074
vn 0.9130 -0.0479 0.4052
vn 0.6695 -0.0453 0.7414
vn 0.7325 -0.0908 0.6747
vn 0.9113 -0.0496 0.4088
vn 0.0739 0.1042 0.9918
vn 0.1571 -0.1339 0.9785
vn 0.7402 -0.0840 0.6671
vn -0.0000 -0.3670 0.9302
vn 0.7202 -0.0926 0.6876
vn 0.9084 -0.0522 0.4148
vn 0.2055 -0.1490 0.9672
vn -0.6424 -0.1009 0.7597
vn -0.6799 -0.0510 0.7315
vn -0.6892 -0.0810 0.7200
vn -0.9119 -0.0585 0.4063
vn -0.9084 -0.0522 0.4148
vn -0.9104 -0.0540 0.4102
vn -0.9992 -0.0397 -0.0010
vn -0.9991 -0.0415 -0.0010
vn -0.9115 -0.0291 -0.4103
vn -0.9103 -0.0321 -0.4126
vn -0.9989 -0.0460 -0.0011
vn -0.9129 -0.0403 -0.4062
vn -0.9137 -0.0615 0.4017
vn -0.9985 -0.0539 -0.0013
vn -0.9149 -0.0724 0.3972
vn -0.6605 -0.0938 0.7450
vn -0.6014 -0.1308 0.7882
vn -0.0000 -0.3463 0.9381
vn 0.1875 -0.1751 0.9665
vn -0.6095 -0.1353 0.7811
vn -0.9133 -0.0886 0.3974
vn -0.9980 -0.0633 -0.0016
vn -0.9971 -0.0759 -0.0019
vn -0.9093 -0.1053 0.4027
vn -0.9960 -0.0893 -0.0023
vn -0.9009 -0.1261 0.4154
vn -0.5672 -0.1539 0.8091
vn -0.5367 -0.2025 0.8191
vn -0.9941 -0.1080 -0.0029
vn -0.8846 -0.1630 0.4370
vn -0.8845 -0.1420 -0.4444
vn -0.9007 -0.1048 -0.4216
vn -0.9899 -0.1420 -0.0035
vn -0.5374 -0.1671 -0.8266
vn -0.8538 -0.2226 -0.4706
vn 0.1540 -0.1881 -0.9700
vn -0.5588 -0.1320 -0.8187
vn -0.5540 -0.3592 -0.7510
vn -0.9510 -0.3091 -0.0075
vn -0.6323 -0.7747 -0.0087
vn -0.0000 -0.3930 -0.9195
vn -0.4159 -0.6276 0.6581
vn -0.8535 -0.2454 0.4596
vn 0.2189 -0.5874 0.7791
vn 0.0386 -0.0794 0.9961
vn 0.4628 -0.3652 0.8077
vn 0.6744 -0.7382 -0.0184
vn -0.0000 -0.9417 -0.3366
vn 0.4640 -0.3249 -0.8241
vn 0.9510 -0.3091 -0.0077
vn 0.8538 -0.2226 -0.4706
vn 0.5392 -0.1635 -0.8261
vn 0.9007 -0.1048 -0.4216
vn 0.5861 -0.1216 -0.8011
vn 0.8845 -0.1420 -0.4444
vn 0.9942 -0.1077 -0.0029
vn 0.9899 -0.1420 -0.0035
vn 0.8846 -0.1629 0.4370
vn 0.8535 -0.2454 0.4596
vn 0.9009 -0.1261 0.4154
vn 0.5393 -0.2027 0.8174
vn 0.9960 -0.0893 -0.0023
vn 0.9093 -0.1053 0.4026
vn 0.5864 -0.1623 0.7936
vn 0.9971 -0.0759 -0.0019
vn 0.9134 -0.0886 0.3974
vn 0.6240 -0.1427 0.7683
vn 0.6563 -0.1258 0.7439
vn 0.0446 -0.0202 0.9988
vn 0.9149 -0.0724 0.3972
vn 0.6875 -0.1065 0.7183
vn 0.9137 -0.0615 0.4017
vn 0.9985 -0.0539 -0.0013
vn 0.9989 -0.0460 -0.0011
vn 0.9129 -0.0403 -0.4062
vn 0.9135 -0.0499 -0.4038
vn 0.9980 -0.0633 -0.0016
vn 0.9129 -0.0662 -0.4028
vn 0.6559 -0.0828 -0.7503
vn 0.6238 -0.0998 -0.7752
vn 0.9095 -0.0832 -0.4074
vn -0.0000 0.0731 -0.9973
vn 0.0446 0.0304 -0.9985
vn -0.6112 -0.1010 -0.7850
vn -0.9129 -0.0662 -0.4028
vn -0.6335 -0.1002 -0.7672
vn -0.9094 -0.0832 -0.4076
vn -0.0000 0.0978 -0.9952
vn -0.6244 -0.0881 -0.7761
vn -0.9135 -0.0499 -0.4038
vn -0.0000 0.1234 -0.9924
vn 0.6888 -0.0675 -0.7218
vn 0.7215 -0.0589 -0.6899
vn -0.0000 0.1476 -0.9890
vn 0.7396 -0.0496 -0.6712
vn 0.9103 -0.0321 -0.4126
vn 0.9991 -0.0415 -0.0010
vn -0.0000 0.1556 -0.9878
vn -0.6733 -0.1166 -0.7301
vn -0.6687 -0.0439 -0.7422
vn -0.6611 -0.1123 -0.7418
vn -0.9129 -0.0276 -0.4073
vn -0.9993 -0.0383 -0.0009
vn -0.9992 -0.0388 -0.0010
vn -0.9116 -0.0547 0.4074
vn -0.9147 -0.0552 0.4003
vn -0.9993 -0.0385 -0.0009
vn -0.7112 0.0057 0.7030
vn -0.9166 -0.0542 0.3962
vn -0.6722 -0.0243 0.7400
vn -0.9993 -0.0361 -0.0009
vn -0.9172 -0.0515 0.3951
vn -0.7370 -0.0546 0.6737
vn -0.0000 -0.3559 0.9345
vn 0.0477 0.0719 0.9963
vn -0.6390 0.0118 0.7691
vn -0.6961 -0.1182 0.7082
vn -0.9275 -0.0490 0.3705
vn 0.0524 0.1086 0.9927
vn 0.0191 -0.0489 0.9986
vn 0.8174 -0.0708 0.5718
vn 0.6635 -0.1658 0.7296
vn 0.5115 -0.1245 0.8502
vn 0.7006 -0.0975 0.7069
vn 0.8779 -0.0586 0.4752
vn 0.9222 -0.0439 0.3843
vn 0.9237 -0.0512 0.3797
vn 0.9602 -0.0393 0.2765
vn 0.9994 -0.0341 -0.0009
vn 0.9995 -0.0319 0.0036
vn 0.9172 -0.0515 0.3951
vn 0.9993 -0.0361 -0.0009
vn 0.8060 -0.0775 0.5869
vn 0.9165 -0.0542 0.3963
vn 0.9993 -0.0385 -0.0009
vn 0.7950 -0.0837 0.6008
vn 0.9147 -0.0552 0.4003
vn 0.7829 -0.0858 0.6163
vn 0.2198 -0.1534 0.9634
vn 0.0431 0.0106 0.9990
vn -0.6888 -0.0641 0.7221
vn 0.9165 -0.0350 -0.3984
vn 0.9147 -0.0355 -0.4026
vn 0.7950 -0.0541 -0.6041
vn 0.8060 -0.0490 -0.5899
vn 0.9172 -0.0326 -0.3971
vn 0.9275 -0.0312 -0.3725
vn 0.8779 -0.0354 -0.4775
vn 0.9249 -0.0327 -0.3788
vn 0.9602 -0.0257 -0.2783
vn -0.0000 1.0000 -0.0000
vn -0.0000 -0.1516 0.9884
vn -0.5115 -0.1245 0.8502
vn -0.7006 -0.0975 0.7069
vn -0.8779 -0.0586 0.4752
vn -0.9237 -0.0512 0.3797
vn -0.9602 -0.0393 0.2765
vn -0.9994 -0.0341 -0.0009
vn -0.9995 -0.0319 0.0036
vn -0.9602 -0.0257 -0.2783
vn -0.9249 -0.0327 -0.3788
vn -0.8779 -0.0354 -0.4775
vt 0.945869 0.456928
vt 0.951085 0.456928
vt 0.949808 0.468890
vt 0.947416 0.468862
vt 0.952616 0.468926
vt 0.048915 0.456928
vt 0.050192 0.468890
vt 0.047384 0.468926
vt 0.054131 0.456928
vt 0.052584 0.468862
vt 0.051524 0.435690
vt 0.948476 0.435690
vt 0.943037 0.435690
vt 0.945777 0.413476
vt 0.056963 0.435690
vt 0.054223 0.413476
vt 0.059900 0.413476
vt 0.078305 0.456928
vt 0.079436 0.435690
vt 0.056925 0.392062
vt 0.062908 0.392062
vt 0.080578 0.413476
vt 0.059472 0.371543
vt 0.065716 0.371542
vt 0.081653 0.392062
vt 0.082617 0.371542
vt 0.068292 0.351562
vt 0.061832 0.351562
vt 0.934284 0.371542
vt 0.938168 0.351562
vt 0.940528 0.371543
vt 0.931708 0.351562
vt 0.068292 0.351192
vt 0.061832 0.351192
vt 0.064208 0.329026
vt 0.935792 0.329396
vt 0.917383 0.371542
vt 0.916530 0.351562
vt 0.929069 0.329396
vt 0.915691 0.329396
vt 0.907719 0.351562
vt 0.907719 0.371543
vt 0.907719 0.392062
vt 0.892071 0.371543
vt 0.893122 0.351562
vt 0.877948 0.351562
vt 0.880921 0.329396
vt 0.894266 0.329396
vt 0.876654 0.309652
vt 0.874181 0.329396
vt 0.883543 0.309652
vt 0.879264 0.289010
vt 0.886160 0.289010
vt 0.895438 0.309652
vt 0.882241 0.268496
vt 0.117759 0.268126
vt 0.120736 0.288640
vt 0.113840 0.288640
vt 0.123346 0.309282
vt 0.116457 0.309282
vt 0.119079 0.329026
vt 0.105734 0.329026
vt 0.104562 0.309282
vt 0.106878 0.351192
vt 0.092281 0.351192
vt 0.092281 0.329026
vt 0.084309 0.329026
vt 0.085130 0.309282
vt 0.092281 0.309282
vt 0.085910 0.288640
vt 0.103267 0.288640
vt 0.092281 0.288640
vt 0.102193 0.268126
vt 0.111341 0.268126
vt 0.108712 0.249256
vt 0.114629 0.248480
vt 0.111199 0.230450
vt 0.106050 0.231290
vt 0.101020 0.249701
vt 0.092281 0.268126
vt 0.092281 0.250276
vt 0.099898 0.231738
vt 0.092281 0.232341
vt 0.098386 0.213153
vt 0.103099 0.212685
vt 0.100071 0.197064
vt 0.092281 0.213676
vt 0.096642 0.197560
vt 0.089357 0.197749
vt 0.088338 0.213313
vt 0.092281 0.198048
vt 0.085909 0.197434
vt 0.090746 0.185374
vt 0.082724 0.196782
vt 0.083610 0.213003
vt 0.089190 0.183383
vt 0.092281 0.184903
vt 0.092281 0.181624
vt 0.087678 0.182073
vt 0.095798 0.183139
vt 0.094399 0.185247
vt 0.097206 0.181718
vt 0.103218 0.196241
vt 0.896782 0.196611
vt 0.902794 0.182088
vt 0.904202 0.183509
vt 0.907719 0.181994
vt 0.907719 0.179946
vt 0.092281 0.179576
vt 0.912322 0.182443
vt 0.910810 0.183753
vt 0.907719 0.185273
vt 0.909254 0.185745
vt 0.914091 0.197804
vt 0.917276 0.197152
vt 0.911662 0.213683
vt 0.916391 0.213373
vt 0.910643 0.198119
vt 0.907719 0.214046
vt 0.907719 0.198418
vt 0.903358 0.197930
vt 0.905601 0.185618
vt 0.901614 0.213523
vt 0.899929 0.197434
vt 0.907719 0.232712
vt 0.900102 0.232108
vt 0.896901 0.213055
vt 0.907719 0.250646
vt 0.898980 0.250071
vt 0.893950 0.231660
vt 0.891288 0.249626
vt 0.888801 0.230820
vt 0.892715 0.212261
vt 0.107285 0.211891
vt 0.897807 0.268496
vt 0.888659 0.268496
vt 0.885371 0.248850
vt 0.896733 0.289010
vt 0.907719 0.289010
vt 0.907719 0.309652
vt 0.914090 0.289010
vt 0.913645 0.268496
vt 0.907719 0.268496
vt 0.913390 0.249761
vt 0.920954 0.249605
vt 0.918753 0.231811
vt 0.912574 0.232149
vt 0.923929 0.231101
vt 0.920603 0.212726
vt 0.079397 0.212356
vt 0.081247 0.231441
vt 0.076071 0.230731
vt 0.086610 0.249391
vt 0.079046 0.249235
vt 0.087426 0.231779
vt 0.073112 0.248654
vt 0.077289 0.268126
vt 0.086355 0.268126
vt 0.070825 0.268126
vt 0.926888 0.249024
vt 0.929175 0.268496
vt 0.922711 0.268496
vt 0.924750 0.289010
vt 0.931580 0.289010
vt 0.926903 0.309652
vt 0.914870 0.309652
vt 0.907719 0.329396
vt 0.933767 0.309652
vt 0.073097 0.309282
vt 0.066233 0.309282
vt 0.068420 0.288640
vt 0.070931 0.329026
vt 0.075250 0.288640
vt 0.083470 0.351192
vt 0.092281 0.371543
vt 0.083470 0.351562
vt 0.092281 0.351562
vt 0.092281 0.392062
vt 0.106878 0.351562
vt 0.107929 0.371543
vt 0.109025 0.392062
vt 0.092281 0.413476
vt 0.127770 0.392062
vt 0.110173 0.413476
vt 0.124829 0.371543
vt 0.092281 0.435690
vt 0.111315 0.435690
vt 0.130850 0.413476
vt 0.133751 0.392062
vt 0.136526 0.413476
vt 0.133788 0.435690
vt 0.136561 0.456928
vt 0.112386 0.456928
vt 0.139227 0.435690
vt 0.141778 0.456928
vt 0.863474 0.413476
vt 0.866212 0.435690
vt 0.860772 0.435690
vt 0.863439 0.456928
vt 0.858222 0.456928
vt 0.859767 0.470877
vt 0.861695 0.470806
vt 0.877586 0.470459
vt 0.887614 0.456928
vt 0.886948 0.470254
vt 0.899520 0.469995
vt 0.907719 0.456928
vt 0.907719 0.469829
vt 0.888685 0.435690
vt 0.907719 0.435690
vt 0.869150 0.413476
vt 0.889827 0.413476
vt 0.907719 0.413476
vt 0.872230 0.392062
vt 0.890975 0.392062
vt 0.875171 0.371543
vt 0.868931 0.371543
vt 0.866249 0.392062
vt 0.871489 0.351562
vt 0.131069 0.371543
vt 0.128511 0.351562
vt 0.125819 0.329026
vt 0.128511 0.351192
vt 0.122052 0.351192
vt 0.122052 0.351562
vt 0.919422 0.413476
vt 0.918347 0.392062
vt 0.937092 0.392062
vt 0.943075 0.392062
vt 0.940100 0.413476
vt 0.920564 0.435690
vt 0.921695 0.456928
vt 0.933114 0.469174
vt 0.922369 0.469408
vt 0.913633 0.469658
vt 0.541375 0.000000
vt 0.546181 0.000000
vt 0.549083 0.000000
vt 0.562105 0.000000
vt 0.569841 0.000000
vt 0.574901 0.000000
vt 0.578264 0.000000
vt 0.574756 0.000000
vt 0.569806 0.000000
vt 0.560886 0.000000
vt 0.549109 0.000000
vt 0.545498 0.000000
vt 0.537252 0.000000
vt 0.533641 0.000000
vt 0.521863 0.000000
vt 0.512944 0.000000
vt 0.507994 0.000000
vt 0.504486 0.000000
vt 0.507849 0.000000
vt 0.512908 0.000000
vt 0.520645 0.000000
vt 0.533667 0.000000
vt 0.536568 0.000000
vt 0.856482 0.471006
vt 0.143518 0.471006
vt 0.140233 0.470877
vt 0.138305 0.470806
vt 0.122414 0.470459
vt 0.113052 0.470254
vt 0.100481 0.469995
vt 0.092281 0.456928
vt 0.092282 0.469829
vt 0.086368 0.469658
vt 0.077631 0.469408
vt 0.066886 0.469174
s 1
usemtl pm0887_00_00-BodyAVco00
f 6/1/1 1/2/2 2/3/3 194/4/4
f 3/5/5 2/3/3 1/2/2
f 1/6/2 4/7/6 3/8/5
f 1/6/2 5/9/7 207/10/8 4/7/6
f 7/11/9 5/9/7 1/6/2
f 6/1/1 7/12/9 1/2/2
f 8/13/10 9/14/11 7/12/9
f 6/1/1 8/13/10 7/12/9
f 10/15/12 7/11/9 9/16/11
f 7/11/9 10/15/12 5/9/7
f 10/15/12 9/16/11 13/17/13
f 10/15/12 11/18/14 5/9/7
f 10/15/12 12/19/15 11/18/14
f 12/19/15 10/15/12 13/17/13
f 13/17/13 9/16/11 14/20/16
f 13/17/13 14/20/16 16/21/17
f 12/19/15 13/17/13 15/22/18
f 15/22/18 13/17/13 16/21/17
f 16/21/17 14/20/16 17/23/19
f 16/21/17 17/23/19 19/24/20
f 15/22/18 16/21/17 18/25/21
f 18/25/21 16/21/17 19/24/20
f 20/26/22 19/24/20 21/27/23
f 18/25/21 19/24/20 20/26/22
f 19/24/20 17/23/19 22/28/24
f 19/24/20 22/28/24 21/27/23
f 23/29/25 22/30/24 17/31/19
f 23/29/25 25/32/26 22/30/24
f 26/37/28 25/32/26 23/29/25
f 26/37/28 28/38/29 25/32/26
f 31/42/33 29/41/32 28/38/29
f 31/42/33 28/38/29 26/37/28
f 32/43/34 31/42/33 26/37/28
f 33/44/35 31/42/33 32/43/34
f 34/45/36 31/42/33 33/44/35
f 34/45/36 29/41/32 31/42/33
f 35/46/37 34/45/36 33/44/35
f 147/175/149 146/176/148 51/177/53
f 147/175/149 20/26/22 146/176/148
f 20/26/22 21/27/23 146/176/148
f 149/178/150 20/26/22 147/175/149
f 50/179/52 147/175/149 51/177/53
f 50/179/52 148/180/151 147/175/149
f 149/178/150 147/175/149 148/180/151
f 151/181/152 150/182/153 149/178/150
f 150/182/153 18/25/21 149/178/150
f 149/178/150 148/180/151 151/181/152
f 149/178/150 18/25/21 20/26/22
f 152/183/154 154/184/155 151/181/152
f 151/181/152 153/185/156 152/183/154
f 151/181/152 148/180/151 153/185/156
f 151/181/152 154/184/155 150/182/153
f 155/186/157 154/184/155 156/187/158
f 155/186/157 150/182/153 154/184/155
f 156/187/158 154/184/155 157/188/159
f 152/183/154 157/188/159 154/184/155
f 159/189/160 158/190/161 157/188/159
f 160/191/162 157/188/159 158/190/161
f 159/189/160 157/188/159 152/183/154
f 156/187/158 157/188/159 160/191/162
f 160/191/162 162/192/163 161/193/164
f 160/191/162 161/193/164 156/187/158
f 163/194/165 162/192/163 160/191/162
f 160/191/162 158/190/161 163/194/165
f 163/194/165 165/195/166 162/192/163
f 158/196/161 164/197/167 163/198/165
f 166/199/168 163/198/165 164/197/167
f 166/199/168 165/200/166 163/198/165
f 195/201/169 165/200/166 166/199/168 167/202/170
f 166/199/168 168/203/171 167/202/170
f 166/199/168 169/204/172 170/205/173 168/203/171
f 169/204/172 166/199/168 164/197/167
f 169/204/172 171/206/174 170/205/173
f 169/204/172 172/207/175 192/208/176 171/206/174
f 172/207/175 169/204/172 173/209/177
f 169/204/172 164/197/167 173/209/177
f 172/207/175 173/209/177 174/210/178
f 175/211/179 173/209/177 164/197/167
f 176/212/180 174/210/178 173/209/177
f 175/211/179 176/212/180 173/209/177
f 176/212/180 177/213/181 174/210/178
f 179/214/182 176/212/180 175/211/179
f 178/215/183 177/213/181 176/212/180
f 179/214/182 178/215/183 176/212/180
f 180/216/184 178/215/183 179/214/182
f 181/217/185 180/216/184 179/214/182
f 181/217/185 179/214/182 159/218/160
f 159/218/160 179/214/182 175/211/179
f 182/219/186 180/216/184 181/217/185
f 152/183/154 181/220/185 159/189/160
f 182/221/186 181/220/185 153/185/156
f 152/183/154 153/185/156 181/220/185
f 182/221/186 153/185/156 183/225/187
f 182/219/186 35/46/37 180/216/184
f 183/225/187 153/185/156 148/180/151
f 183/225/187 148/180/151 50/179/52
f 35/46/37 33/44/35 180/216/184
f 180/216/184 33/44/35 178/215/183
f 33/44/35 32/43/34 178/215/183
f 178/215/183 32/43/34 177/213/181
f 174/210/178 177/213/181 184/226/188
f 185/227/189 184/226/188 177/213/181
f 185/227/189 177/213/181 32/43/34
f 186/228/190 184/226/188 185/227/189
f 185/227/189 23/29/25 186/228/190
f 185/227/189 26/37/28 23/29/25
f 32/43/34 26/37/28 185/227/189
f 186/228/190 17/31/19 14/229/16
f 14/229/16 187/230/191 186/228/190
f 186/228/190 23/29/25 17/31/19
f 186/228/190 187/230/191 184/226/188
f 14/229/16 9/14/11 187/230/191
f 8/13/10 187/230/191 9/14/11
f 188/231/192 184/226/188 187/230/191
f 188/231/192 187/230/191 8/13/10
f 172/207/175 174/210/178 188/231/192
f 172/207/175 188/231/192 189/232/193
f 189/232/193 188/231/192 8/13/10
f 174/210/178 184/226/188 188/231/192
f 189/232/193 8/13/10 6/1/1
f 189/232/193 6/1/1 193/233/194 190/234/195
f 189/232/193 190/234/195 191/235/196
f 172/207/175 189/232/193 191/235/196 192/208/176
f 193/233/194 6/1/1 194/4/4
f 159/218/160 175/211/179 158/196/161
f 158/196/161 175/211/179 164/197/167
f 196/259/198 165/200/166 195/201/169
f 165/195/166 196/260/198 197/261/199
f 198/262/200 162/192/163 165/195/166 197/261/199
f 162/192/163 198/262/200 199/263/201
f 161/193/164 162/192/163 199/263/201 200/264/202
f 161/193/164 200/264/202 201/265/203
f 204/266/204 161/193/164 201/265/203 202/267/205
f 204/266/204 202/267/205 203/268/206 11/18/14
f 12/19/15 204/266/204 11/18/14
f 12/19/15 155/186/157 204/266/204
f 156/187/158 204/266/204 155/186/157
f 156/187/158 161/193/164 204/266/204
f 11/18/14 203/268/206 205/269/207
f 11/18/14 205/269/207 206/270/208 5/9/7
f 5/9/7 206/270/208 207/10/8
f 155/186/157 12/19/15 15/22/18
f 155/186/157 15/22/18 150/182/153
f 150/182/153 15/22/18 18/25/21
usemtl pm0887_00_00-BodyAVco01
f 21/33/23 22/34/24 24/35/27
f 25/32/26 24/36/27 22/30/24
f 25/32/26 27/39/30 24/36/27
f 28/38/29 27/39/30 25/32/26
f 28/38/29 30/40/31 27/39/30
f 29/41/32 30/40/31 28/38/29
f 37/47/38 34/45/36 35/46/37
f 37/47/38 36/48/39 34/45/36
f 36/48/39 29/41/32 34/45/36
f 39/49/40 37/47/38 38/50/41
f 38/50/41 37/47/38 35/46/37
f 39/49/40 40/51/42 37/47/38
f 40/51/42 36/48/39 37/47/38
f 43/52/43 40/51/42 39/49/40
f 42/53/44 41/54/45 40/51/42
f 40/51/42 41/54/45 36/48/39
f 43/52/43 42/53/44 40/51/42
f 42/53/44 43/52/43 44/55/46
f 44/56/46 43/57/43 45/58/47
f 43/57/43 39/59/40 46/60/48
f 43/57/43 46/60/48 45/58/47
f 46/60/48 47/61/49 49/62/50
f 39/59/40 47/61/49 46/60/48
f 45/58/47 46/60/48 48/63/51
f 46/60/48 49/62/50 48/63/51
f 47/61/49 50/64/52 49/62/50
f 49/62/50 50/64/52 51/65/53
f 49/62/50 51/65/53 52/66/54
f 48/63/51 49/62/50 52/66/54
f 51/65/53 53/67/55 52/66/54
f 52/66/54 53/67/55 54/68/56
f 52/66/54 54/68/56 55/69/57
f 48/63/51 52/66/54 55/69/57
f 55/69/57 54/68/56 56/70/58
f 58/71/59 48/63/51 55/69/57
f 55/69/57 56/70/58 57/72/60
f 58/71/59 55/69/57 57/72/60
f 59/73/61 58/71/59 57/72/60
f 60/74/62 58/71/59 59/73/61
f 45/58/47 48/63/51 58/71/59
f 60/74/62 45/58/47 58/71/59
f 62/75/63 60/74/62 59/73/61
f 61/76/64 44/56/46 60/74/62
f 61/76/64 60/74/62 62/75/63
f 44/56/46 45/58/47 60/74/62
f 64/77/65 62/75/63 63/78/66
f 63/78/66 62/75/63 65/79/67
f 64/77/65 61/76/64 62/75/63
f 62/75/63 59/73/61 65/79/67
f 65/79/67 67/80/68 66/81/69
f 68/82/70 65/79/67 66/81/69
f 65/79/67 59/73/61 67/80/68
f 63/78/66 65/79/67 68/82/70
f 68/82/70 66/81/69 69/83/71
f 71/84/72 68/82/70 69/83/71
f 70/85/73 63/78/66 68/82/70
f 70/85/73 68/82/70 71/84/72
f 72/86/74 70/85/73 71/84/72
f 71/84/72 69/83/71 74/87/75
f 72/86/74 71/84/72 73/88/76
f 73/88/76 71/84/72 74/87/75
f 77/89/77 74/87/75 75/90/78
f 75/90/78 74/87/75 69/83/71
f 73/88/76 74/87/75 76/91/79
f 77/89/77 76/91/79 74/87/75
f 79/92/80 77/89/77 75/90/78
f 78/93/81 76/91/79 77/89/77
f 78/93/81 77/89/77 79/92/80
f 80/94/82 79/92/80 81/95/83
f 82/96/84 79/92/80 80/94/82
f 79/92/80 75/90/78 81/95/83
f 78/93/81 79/92/80 82/96/84
f 85/97/85 82/96/84 83/98/86
f 83/98/86 82/96/84 84/99/87
f 82/96/84 80/94/82 84/99/87
f 85/97/85 78/93/81 82/96/84
f 87/100/88 86/101/89 85/97/85
f 86/101/89 76/91/79 85/97/85
f 87/100/88 85/97/85 83/98/86
f 78/93/81 85/97/85 76/91/79
f 72/86/74 86/101/89 87/100/88
f 83/98/86 89/102/90 87/100/88
f 88/103/91 87/100/88 89/102/90
f 88/103/91 72/86/74 87/100/88
f 88/104/91 89/105/90 90/106/92
f 89/105/90 91/107/93 90/106/92
f 89/105/90 92/108/94 91/107/93
f 83/98/86 92/109/94 89/102/90
f 83/98/86 84/99/87 92/109/94
f 84/110/87 91/107/93 92/108/94
f 84/110/87 94/111/95 91/107/93
f 90/106/92 91/107/93 93/112/96
f 93/112/96 91/107/93 94/111/95
f 93/112/96 94/111/95 95/113/97
f 95/113/97 94/111/95 96/114/98
f 94/111/95 80/115/82 96/114/98
f 94/111/95 84/110/87 80/115/82
f 97/116/99 96/114/98 98/117/100
f 97/116/99 99/118/101 96/114/98
f 98/117/100 96/114/98 80/115/82
f 95/113/97 96/114/98 99/118/101
f 100/119/102 99/118/101 97/116/99
f 100/119/102 101/120/103 99/118/101
f 101/120/103 95/113/97 99/118/101
f 100/119/102 103/121/104 101/120/103
f 101/120/103 102/122/105 93/112/96
f 101/120/103 103/121/104 102/122/105
f 101/120/103 93/112/96 95/113/97
f 100/119/102 105/123/106 103/121/104
f 104/124/107 102/122/105 103/121/104
f 105/123/106 104/124/107 103/121/104
f 106/125/108 105/123/106 100/119/102
f 106/125/108 108/126/109 105/123/106
f 105/123/106 107/127/110 104/124/107
f 108/126/109 107/127/110 105/123/106
f 109/128/111 110/129/112 108/126/109
f 109/128/111 108/126/109 106/125/108
f 110/129/112 111/130/113 108/126/109
f 108/126/109 111/130/113 107/127/110
f 110/129/112 112/131/114 111/130/113
f 112/131/114 64/132/65 111/130/113
f 111/130/113 64/132/65 113/133/115
f 111/130/113 113/133/115 107/127/110
f 113/134/115 64/77/65 63/78/66
f 107/127/110 113/133/115 88/104/91
f 88/103/91 113/134/115 70/85/73
f 113/134/115 63/78/66 70/85/73
f 114/135/116 112/131/114 110/129/112
f 114/135/116 115/136/117 112/131/114
f 112/131/114 61/137/64 64/132/65
f 115/136/117 61/137/64 112/131/114
f 116/138/118 115/136/117 114/135/116
f 116/138/118 42/53/44 115/136/117
f 42/53/44 44/55/46 115/136/117
f 115/136/117 44/55/46 61/137/64
f 116/138/118 118/139/119 117/140/120
f 116/138/118 117/140/120 41/54/45
f 118/139/119 116/138/118 114/135/116
f 42/53/44 116/138/118 41/54/45
f 119/141/121 117/140/120 118/139/119
f 118/139/119 120/142/122 119/141/121
f 118/139/119 121/143/123 120/142/122
f 118/139/119 114/135/116 121/143/123
f 121/143/123 114/135/116 110/129/112
f 122/144/124 121/143/123 109/128/111
f 122/144/124 120/142/122 121/143/123
f 121/143/123 110/129/112 109/128/111
f 123/145/125 120/142/122 122/144/124
f 124/146/126 123/145/125 122/144/124
f 124/146/126 122/144/124 125/147/127
f 125/147/127 122/144/124 109/128/111
f 125/147/127 98/117/100 124/146/126
f 125/147/127 109/128/111 106/125/108
f 106/125/108 97/116/99 125/147/127
f 125/147/127 97/116/99 98/117/100
f 126/148/128 123/145/125 124/146/126
f 124/146/126 127/149/129 126/148/128
f 124/146/126 98/117/100 127/149/129
f 127/150/129 128/151/130 126/152/128
f 98/117/100 80/115/82 127/149/129
f 80/94/82 81/95/83 127/150/129
f 127/150/129 81/95/83 128/151/130
f 128/151/130 129/153/131 131/154/132
f 128/151/130 130/155/133 129/153/131
f 126/152/128 128/151/130 131/154/132
f 81/95/83 130/155/133 128/151/130
f 134/156/134 131/154/132 132/157/135
f 131/154/132 133/158/136 132/157/135
f 131/154/132 129/153/131 133/158/136
f 126/152/128 131/154/132 134/156/134
f 134/156/134 132/157/135 135/159/137
f 134/160/134 135/161/137 136/162/138
f 134/160/134 136/162/138 123/145/125
f 126/148/128 134/160/134 123/145/125
f 119/141/121 136/162/138 137/163/139
f 137/163/139 136/162/138 135/161/137
f 123/145/125 136/162/138 120/142/122
f 119/141/121 120/142/122 136/162/138
f 137/163/139 135/161/137 138/164/140
f 138/164/140 139/165/141 137/163/139
f 137/163/139 140/166/142 119/141/121
f 137/163/139 139/165/141 140/166/142
f 30/40/31 140/166/142 139/165/141
f 119/141/121 140/166/142 117/140/120
f 141/167/143 117/140/120 140/166/142
f 141/167/143 140/166/142 30/40/31
f 36/48/39 141/167/143 29/41/32
f 29/41/32 141/167/143 30/40/31
f 41/54/45 117/140/120 141/167/143
f 41/54/45 141/167/143 36/48/39
f 138/164/140 142/168/144 139/165/141
f 27/39/30 139/165/141 142/168/144
f 30/40/31 139/165/141 27/39/30
f 144/169/145 142/170/144 138/171/140
f 143/172/146 142/170/144 144/169/145
f 143/172/146 24/35/27 142/170/144
f 27/39/30 142/168/144 24/36/27
f 144/169/145 138/171/140 145/173/147
f 54/68/56 144/169/145 145/173/147
f 53/67/55 144/169/145 54/68/56
f 53/67/55 143/172/146 144/169/145
f 135/159/137 145/173/147 138/171/140
f 54/68/56 145/173/147 56/70/58
f 135/159/137 132/157/135 145/173/147
f 132/157/135 56/70/58 145/173/147
f 21/33/23 24/35/27 143/172/146
f 146/174/148 143/172/146 53/67/55
f 146/174/148 21/33/23 143/172/146
f 51/65/53 146/174/148 53/67/55
f 38/222/41 182/223/186 183/224/187
f 38/50/41 35/46/37 182/219/186
f 38/222/41 183/224/187 47/61/49
f 47/61/49 183/224/187 50/64/52
f 132/157/135 133/158/136 56/70/58
f 133/158/136 67/80/68 57/72/60
f 133/158/136 57/72/60 56/70/58
f 129/153/131 67/80/68 133/158/136
f 130/155/133 66/81/69 129/153/131
f 130/155/133 69/83/71 66/81/69
f 75/90/78 69/83/71 130/155/133
f 81/95/83 75/90/78 130/155/133
f 129/153/131 66/81/69 67/80/68
f 107/127/110 88/104/91 104/124/107
f 106/125/108 100/119/102 97/116/99
f 88/104/91 90/106/92 104/124/107
f 104/124/107 90/106/92 102/122/105
f 90/106/92 93/112/96 102/122/105
f 88/103/91 70/85/73 72/86/74
f 86/101/89 73/88/76 76/91/79
f 72/86/74 73/88/76 86/101/89
f 59/73/61 57/72/60 67/80/68
f 39/59/40 38/222/41 47/61/49
s 0
usemtl 
f 196/236/197 195/237/197 167/238/197 168/239/197 170/240/197 171/241/197 192/242/197 191/243/197 190/244/197 193/245/197 194/246/197 2/247/197 3/236/197 4/248/197 207/249/197 206/250/197 205/251/197 203/252/197 202/253/197 201/254/197 200/255/197 199/256/197 198/257/197 197/258/197
