# Blender 3.6.22
# www.blender.org
mtllib cola3_pokemon.mtl
o pm0887_00_00_BodyASkin.006
v 0.000000 -0.043688 -0.221884
v -0.002647 -0.030772 -0.221150
v 0.000000 -0.030772 -0.223234
v 0.002647 -0.030772 -0.221150
v -0.017544 -0.044711 -0.208446
v 0.017545 -0.044711 -0.208446
v 0.000000 -0.127596 -0.212866
v -0.017134 -0.128672 -0.200282
v 0.017134 -0.128672 -0.200282
v 0.000000 -0.209828 -0.204026
v 0.016679 -0.210548 -0.192246
v 0.000000 -0.293130 -0.195367
v -0.016679 -0.210548 -0.192246
v -0.064853 -0.213160 -0.090030
v -0.016219 -0.293491 -0.184120
v -0.066578 -0.131496 -0.092115
v -0.088442 -0.049900 -0.008803
v -0.086418 -0.133519 -0.010849
v -0.068113 -0.047720 -0.093946
v -0.068401 -0.030772 -0.094283
v -0.072487 -0.030772 -0.076771
v -0.088854 -0.030772 -0.008338
v -0.073324 -0.030772 0.056840
v -0.068112 -0.051959 0.076283
v -0.068473 -0.030772 0.077715
v -0.031227 -0.030772 0.160431
v -0.017596 -0.054587 0.188191
v -0.017690 -0.030772 0.191285
v -0.004797 -0.030772 0.201150
v 0.000000 -0.030772 0.204915
v 0.000000 -0.054235 0.201702
v 0.017596 -0.054587 0.188191
v 0.004797 -0.030772 0.201150
v 0.000000 -0.137623 0.189817
v 0.017303 -0.138068 0.177091
v 0.000000 -0.219326 0.177446
v -0.017303 -0.138068 0.177091
v -0.066578 -0.135542 0.070404
v -0.017058 -0.219465 0.165883
v 0.000000 -0.302103 0.165074
v -0.016521 -0.301912 0.154074
v -0.064853 -0.217001 0.064263
v -0.084180 -0.215078 -0.012880
v -0.063086 -0.299597 0.058098
v -0.081881 -0.297770 -0.014932
v -0.061323 -0.381124 0.052028
v -0.015802 -0.383244 0.142079
v 0.000000 -0.383767 0.152918
v 0.000000 -0.461801 0.140666
v -0.015343 -0.461078 0.130429
v 0.000000 -0.541568 0.128120
v -0.015208 -0.540860 0.118548
v -0.059574 -0.459014 0.045942
v -0.079583 -0.379390 -0.016955
v -0.057667 -0.538899 0.039706
v -0.077294 -0.457388 -0.018931
v -0.074792 -0.537381 -0.020929
v -0.057667 -0.535878 -0.081564
v -0.059574 -0.455785 -0.083805
v -0.061323 -0.377688 -0.085940
v -0.015211 -0.533915 -0.160419
v -0.015346 -0.453639 -0.168338
v 0.000000 -0.453852 -0.178605
v 0.000000 -0.534144 -0.170016
v -0.015764 -0.375323 -0.176103
v -0.063086 -0.295960 -0.087965
v 0.000000 -0.375305 -0.186998
v 0.016219 -0.293491 -0.184120
v 0.015765 -0.375323 -0.176103
v 0.063086 -0.295960 -0.087965
v 0.015346 -0.453639 -0.168338
v 0.061324 -0.377688 -0.085940
v 0.079584 -0.379390 -0.016955
v 0.059575 -0.455785 -0.083805
v 0.081881 -0.297770 -0.014932
v 0.084180 -0.215078 -0.012880
v 0.063086 -0.299597 0.058098
v 0.061324 -0.381124 0.052028
v 0.015802 -0.383244 0.142079
v 0.059575 -0.459014 0.045942
v 0.015343 -0.461078 0.130429
v 0.015208 -0.540860 0.118548
v 0.057667 -0.538899 0.039706
v 0.011586 -0.559224 0.118038
v 0.015343 -0.559224 0.115883
v 0.046804 -0.559224 0.057271
v 0.057175 -0.559224 0.038160
v 0.069483 -0.559224 -0.005595
v 0.074097 -0.559224 -0.021459
v 0.074792 -0.537381 -0.020929
v 0.057667 -0.535878 -0.081564
v 0.077295 -0.457388 -0.018931
v 0.069284 -0.559224 -0.037918
v 0.057103 -0.559224 -0.080925
v 0.044614 -0.559224 -0.103832
v 0.015396 -0.559224 -0.157989
v 0.015212 -0.533915 -0.160419
v 0.010219 -0.559224 -0.160941
v 0.000000 -0.559224 -0.167404
v -0.010219 -0.559224 -0.160941
v -0.015395 -0.559224 -0.157989
v -0.044614 -0.559224 -0.103832
v -0.057103 -0.559224 -0.080925
v -0.069284 -0.559224 -0.037918
v -0.074097 -0.559224 -0.021459
v -0.069483 -0.559224 -0.005595
v -0.057175 -0.559224 0.038160
v -0.046804 -0.559224 0.057271
v -0.015343 -0.559224 0.115883
v -0.011586 -0.559224 0.118038
v 0.000000 -0.559224 0.125413
v 0.016521 -0.301912 0.154074
v 0.064853 -0.217001 0.064263
v 0.017058 -0.219465 0.165883
v 0.066578 -0.135542 0.070404
v 0.088442 -0.049900 -0.008803
v 0.068113 -0.051959 0.076283
v 0.086418 -0.133519 -0.010849
v 0.066578 -0.131496 -0.092115
v 0.064853 -0.213160 -0.090030
v 0.068113 -0.047720 -0.093946
v 0.068401 -0.030772 -0.094283
v 0.072487 -0.030772 -0.076771
v 0.088854 -0.030772 -0.008338
v 0.073325 -0.030772 0.056840
v 0.068474 -0.030772 0.077715
v 0.031227 -0.030772 0.160431
v 0.017690 -0.030772 0.191285
v 0.026040 -0.030772 -0.190053
v 0.017609 -0.030772 -0.209777
v -0.026039 -0.030772 -0.190053
v -0.017608 -0.030772 -0.209777
vn -0.0000 0.0234 -0.9997
vn -0.6091 -0.0800 -0.7890
vn -0.0000 -0.1039 -0.9946
vn -0.7852 -0.0321 -0.6184
vn -0.7798 -0.0630 -0.6228
vn 0.6091 -0.0800 -0.7891
vn 0.7837 0.0287 -0.6205
vn 0.7798 -0.0630 -0.6229
vn -0.0000 0.2588 -0.9659
vn -0.7141 -0.0952 -0.6936
vn -0.0000 0.2486 -0.9686
vn 0.8764 -0.0484 -0.4791
vn -0.7040 -0.0968 -0.7036
vn 0.8696 -0.0502 -0.4911
vn -0.0000 0.2445 -0.9697
vn -0.6985 -0.0976 -0.7089
vn -0.9352 -0.0303 -0.3528
vn -0.9385 -0.0280 -0.3441
vn -0.9996 -0.0273 -0.0006
vn -0.9997 -0.0241 -0.0005
vn -0.9451 -0.0193 -0.3263
vn -0.9478 -0.0224 -0.3179
vn -0.9152 -0.0271 -0.4022
vn -0.9727 -0.0167 -0.2313
vn -0.9998 -0.0216 0.0032
vn -0.0000 1.0000 -0.0000
vn -0.9464 -0.0463 0.3198
vn -0.9727 -0.0279 0.2303
vn -0.9456 -0.0379 0.3232
vn -0.7977 -0.0683 0.5992
vn -0.9117 -0.0458 0.4083
vn -0.7742 -0.0845 0.6273
vn 0.1253 -0.1508 0.9806
vn -0.6086 -0.1059 0.7864
vn -0.0000 -0.1357 0.9908
vn 0.8336 -0.0788 0.5467
vn 0.0751 0.2138 0.9740
vn 0.6086 -0.1059 0.7864
vn 0.7742 -0.0845 0.6273
vn 0.8735 -0.0665 0.4822
vn -0.0000 -0.4679 0.8838
vn -0.7711 0.0017 0.6367
vn -0.7108 -0.0338 0.7026
vn -0.9382 -0.0441 0.3434
vn -0.9355 -0.0475 0.3501
vn 0.3289 -0.1665 0.9296
vn -0.7088 0.0057 0.7053
vn -0.9996 -0.0292 -0.0007
vn -0.9318 -0.0488 0.3596
vn -0.9996 -0.0296 -0.0007
vn -0.9274 -0.0502 0.3707
vn -0.8045 -0.0649 0.5904
vn -0.0000 -0.4740 0.8805
vn 0.0676 0.1838 0.9806
vn -0.7415 -0.0148 0.6707
vn 0.2132 -0.1572 0.9643
vn -0.7090 -0.0501 0.7034
vn -0.9231 -0.0522 0.3809
vn -0.9995 -0.0306 -0.0007
vn -0.9995 -0.0323 -0.0008
vn -0.9296 -0.0501 0.3651
vn -0.9232 -0.0330 -0.3829
vn -0.9994 -0.0335 -0.0009
vn -0.9266 -0.0234 -0.3754
vn -0.9274 -0.0316 -0.3727
vn -0.8053 -0.1167 -0.5812
vn -0.7685 -0.0648 -0.6365
vn -0.7237 -0.1793 -0.6664
vn -0.0000 0.1127 -0.9936
vn -0.0000 0.2327 -0.9725
vn -0.0000 0.2417 -0.9704
vn -0.9315 -0.0306 -0.3624
vn 0.8631 -0.0508 -0.5025
vn 0.8560 -0.0520 -0.5144
vn 0.9315 -0.0306 -0.3624
vn 0.9274 -0.0316 -0.3727
vn 0.8476 -0.0524 -0.5281
vn 0.9232 -0.0330 -0.3829
vn 0.9995 -0.0306 -0.0007
vn 0.9996 -0.0296 -0.0007
vn 0.9996 -0.0292 -0.0007
vn 0.9318 -0.0488 0.3596
vn 0.9274 -0.0502 0.3707
vn 0.8558 -0.0785 0.5113
vn 0.8474 -0.0788 0.5251
vn 0.9231 -0.0522 0.3809
vn 0.7870 -0.0927 0.6099
vn 0.9266 -0.0419 0.3737
vn 0.7272 -0.0934 0.6801
vn 0.8789 -0.0609 0.4731
vn 0.5152 -0.1252 0.8479
vn -0.0000 -0.1516 0.9884
vn -0.0000 -1.0000 -0.0000
vn 0.9270 -0.0507 0.3717
vn 0.9994 -0.0335 -0.0009
vn 0.9611 -0.0419 0.2731
vn 0.9995 -0.0317 -0.0051
vn 0.9611 -0.0287 -0.2747
vn 0.9258 -0.0327 -0.3767
vn 0.9296 -0.0321 -0.3672
vn 0.9995 -0.0323 -0.0008
vn 0.8790 -0.0380 -0.4754
vn 0.7231 -0.0608 -0.6881
vn 0.7275 0.0230 -0.6857
vn 0.5154 -0.0841 -0.8528
vn -0.0000 -0.1036 -0.9946
vn -0.5154 -0.0841 -0.8528
vn -0.7231 -0.0608 -0.6881
vn -0.8790 -0.0380 -0.4754
vn -0.9258 -0.0327 -0.3767
vn -0.9611 -0.0287 -0.2747
vn -0.9995 -0.0317 -0.0051
vn -0.9611 -0.0419 0.2731
vn -0.9270 -0.0507 0.3717
vn -0.8789 -0.0609 0.4731
vn -0.7272 -0.0934 0.6801
vn -0.5152 -0.1252 0.8479
vn 0.8621 -0.0760 0.5010
vn 0.9355 -0.0475 0.3501
vn 0.8675 -0.0715 0.4923
vn 0.9382 -0.0441 0.3434
vn 0.9997 -0.0241 -0.0005
vn 0.9996 -0.0273 -0.0006
vn 0.9457 -0.0321 0.3233
vn 0.9385 -0.0280 -0.3442
vn 0.9352 -0.0303 -0.3528
vn 0.9491 -0.0245 -0.3140
vn 0.9727 -0.0167 -0.2313
vn 0.9998 -0.0216 0.0032
vn 0.9478 -0.0225 -0.3179
vn 0.9152 -0.0271 -0.4022
vn 0.9727 -0.0279 0.2303
vn 0.9456 -0.0379 0.3232
vn 0.9117 -0.0458 0.4083
vt 0.026926 0.619775
vt 0.027394 0.623523
vt 0.026425 0.623481
vt 0.033307 0.619775
vt 0.032803 0.623774
vt 0.973575 0.623481
vt 0.972606 0.623523
vt 0.973074 0.619775
vt 0.966693 0.619775
vt 0.967197 0.623774
vt 0.030245 0.595707
vt 0.969755 0.595707
vt 0.036385 0.595706
vt 0.033511 0.572178
vt 0.963615 0.595706
vt 0.966489 0.572178
vt 0.039402 0.572178
vt 0.960598 0.572178
vt 0.963238 0.548336
vt 0.036762 0.548336
vt 0.042448 0.548336
vt 0.072013 0.572178
vt 0.070705 0.595706
vt 0.092281 0.595707
vt 0.092282 0.619775
vt 0.069428 0.619775
vt 0.069178 0.624645
vt 0.038987 0.623922
vt 0.073924 0.624776
vt 0.092282 0.625280
vt 0.465597 0.000000
vt 0.467996 0.000000
vt 0.470394 0.000000
vt 0.476841 0.000000
vt 0.483609 0.000000
vt 0.502233 0.000000
vt 0.504658 0.000000
vt 0.512423 0.000000
vt 0.504239 0.000000
vt 0.502197 0.000000
vt 0.481016 0.000000
vt 0.476800 0.000000
vt 0.469320 0.000000
vt 0.466672 0.000000
vt 0.459192 0.000000
vt 0.454976 0.000000
vt 0.433795 0.000000
vt 0.431752 0.000000
vt 0.423569 0.000000
vt 0.431334 0.000000
vt 0.433759 0.000000
vt 0.452383 0.000000
vt 0.459151 0.000000
vt 0.119935 0.619775
vt 0.113452 0.625734
vt 0.120155 0.625877
vt 0.155370 0.619775
vt 0.146326 0.626435
vt 0.156045 0.626645
vt 0.161771 0.619775
vt 0.160728 0.626571
vt 0.162487 0.626549
vt 0.844630 0.619775
vt 0.838229 0.619775
vt 0.840907 0.595707
vt 0.839272 0.626571
vt 0.843955 0.626645
vt 0.837513 0.626548
vt 0.159093 0.595707
vt 0.847106 0.595707
vt 0.843719 0.572178
vt 0.156281 0.572178
vt 0.152894 0.595707
vt 0.150338 0.572178
vt 0.118979 0.595707
vt 0.117927 0.572178
vt 0.153363 0.548336
vt 0.147643 0.548335
vt 0.092281 0.572178
vt 0.116855 0.548335
vt 0.092282 0.548335
vt 0.115780 0.524532
vt 0.144900 0.524532
vt 0.147486 0.502030
vt 0.150419 0.524532
vt 0.142178 0.502030
vt 0.144505 0.478994
vt 0.139334 0.478994
vt 0.114657 0.502030
vt 0.092281 0.524532
vt 0.092281 0.502030
vt 0.113489 0.478994
vt 0.075840 0.502030
vt 0.092282 0.478994
vt 0.077114 0.478994
vt 0.074589 0.524532
vt 0.048312 0.502030
vt 0.051270 0.478994
vt 0.045439 0.524532
vt 0.046100 0.478994
vt 0.043004 0.502030
vt 0.039926 0.524532
vt 0.073318 0.548336
vt 0.957552 0.548336
vt 0.960074 0.524532
vt 0.954561 0.524532
vt 0.956996 0.502030
vt 0.926682 0.548336
vt 0.925411 0.524532
vt 0.951688 0.502030
vt 0.924160 0.502030
vt 0.907719 0.524532
vt 0.907719 0.548335
vt 0.907719 0.572178
vt 0.883145 0.548335
vt 0.884220 0.524532
vt 0.855100 0.524532
vt 0.857822 0.502030
vt 0.885342 0.502030
vt 0.852514 0.502030
vt 0.855495 0.478994
vt 0.860666 0.478994
vt 0.886511 0.478994
vt 0.861332 0.473693
vt 0.880529 0.473273
vt 0.860084 0.473738
vt 0.856125 0.473894
vt 0.536265 0.000000
vt 0.541375 0.000000
vt 0.546484 0.000000
vt 0.549073 0.000000
vt 0.563682 0.000000
vt 0.569926 0.000000
vt 0.576017 0.000000
vt 0.578423 0.000000
vt 0.576116 0.000000
vt 0.569962 0.000000
vt 0.564777 0.000000
vt 0.549046 0.000000
vt 0.547168 0.000000
vt 0.535582 0.000000
vt 0.533703 0.000000
vt 0.517973 0.000000
vt 0.512787 0.000000
vt 0.506633 0.000000
vt 0.504326 0.000000
vt 0.506733 0.000000
vt 0.512823 0.000000
vt 0.519068 0.000000
vt 0.533677 0.000000
vt 0.886804 0.473136
vt 0.907719 0.478994
vt 0.902095 0.472821
vt 0.907719 0.472707
vt 0.911775 0.472589
vt 0.922524 0.472283
vt 0.922886 0.478994
vt 0.907719 0.502030
vt 0.930046 0.472119
vt 0.947788 0.471731
vt 0.948730 0.478994
vt 0.949503 0.471752
vt 0.952982 0.471796
vt 0.953901 0.478994
vt 0.047018 0.471796
vt 0.050497 0.471752
vt 0.052212 0.471731
vt 0.069954 0.472119
vt 0.077476 0.472283
vt 0.088225 0.472590
vt 0.092282 0.472707
vt 0.097906 0.472821
vt 0.113196 0.473136
vt 0.119471 0.473273
vt 0.138668 0.473693
vt 0.139916 0.473738
vt 0.143875 0.473894
vt 0.852357 0.548335
vt 0.849581 0.524532
vt 0.882073 0.572178
vt 0.849662 0.572178
vt 0.846637 0.548336
vt 0.881021 0.595707
vt 0.907719 0.619775
vt 0.907719 0.595707
vt 0.880065 0.619775
vt 0.929295 0.595706
vt 0.927988 0.572178
vt 0.930572 0.619775
vt 0.926076 0.624776
vt 0.907719 0.625280
vt 0.930822 0.624645
vt 0.961013 0.623922
vt 0.886548 0.625734
vt 0.879845 0.625877
vt 0.853674 0.626435
s 0
usemtl pm0887_00_00-BodyA00
f 29/31/26 30/32/26 33/33/26 128/34/26 127/35/26 126/36/26 125/37/26 124/38/26 123/39/26 122/40/26 129/41/26 130/42/26 4/43/26 3/32/26 2/44/26 132/45/26 131/46/26 20/47/26 21/48/26 22/49/26 23/50/26 25/51/26 26/52/26 28/53/26
s 1
usemtl pm0887_00_00-BodyAVco00
f 1/1/1 2/2/2 3/3/3
f 1/1/1 5/4/4 132/5/5 2/2/2
f 3/6/3 4/7/6 1/8/1
f 6/9/7 1/8/1 4/7/6 130/10/8
f 7/11/9 5/4/4 1/1/1
f 6/9/7 7/12/9 1/8/1
f 7/11/9 8/13/10 5/4/4
f 10/14/11 8/13/10 7/11/9
f 9/15/12 10/16/11 7/12/9
f 6/9/7 9/15/12 7/12/9
f 10/14/11 13/17/13 8/13/10
f 11/18/14 12/19/15 10/16/11
f 9/15/12 11/18/14 10/16/11
f 12/20/15 13/17/13 10/14/11
f 12/20/15 15/21/16 13/17/13
f 15/21/16 14/22/17 13/17/13
f 13/17/13 14/22/17 16/23/18
f 13/17/13 16/23/18 8/13/10
f 16/23/18 18/24/19 17/25/20
f 16/23/18 17/25/20 19/26/21
f 8/13/10 16/23/18 19/26/21
f 14/22/17 18/24/19 16/23/18
f 8/13/10 19/26/21 5/4/4
f 19/26/21 20/27/22 131/28/23 5/4/4
f 19/26/21 21/29/24 20/27/22
f 17/25/20 22/30/25 21/29/24 19/26/21
f 17/25/20 24/54/27 23/55/28 22/30/25
f 24/54/27 25/56/29 23/55/28
f 24/54/27 27/57/30 26/58/31 25/56/29
f 27/57/30 28/59/32 26/58/31
f 27/57/30 31/60/33 29/61/34 28/59/32
f 31/60/33 30/62/35 29/61/34
f 32/63/36 31/64/33 34/65/37
f 33/66/38 31/64/33 32/63/36 128/67/39
f 30/68/35 31/64/33 33/66/38
f 34/69/37 31/60/33 27/57/30
f 35/70/40 34/65/37 36/71/41
f 32/63/36 34/65/37 35/70/40
f 36/72/41 34/69/37 37/73/42
f 34/69/37 27/57/30 37/73/42
f 39/74/43 37/73/42 38/75/44
f 37/73/42 24/54/27 38/75/44
f 36/72/41 37/73/42 39/74/43
f 37/73/42 27/57/30 24/54/27
f 39/74/43 38/75/44 42/76/45
f 40/77/46 36/72/41 39/74/43
f 40/77/46 39/74/43 41/78/47
f 41/78/47 39/74/43 42/76/45
f 42/76/45 18/24/19 43/79/48
f 44/80/49 42/76/45 43/79/48
f 42/76/45 38/75/44 18/24/19
f 41/78/47 42/76/45 44/80/49
f 44/80/49 43/79/48 45/81/50
f 45/81/50 46/82/51 44/80/49
f 44/80/49 46/82/51 47/83/52
f 44/80/49 47/83/52 41/78/47
f 49/84/53 48/85/54 47/83/52
f 41/78/47 47/83/52 48/85/54
f 49/84/53 47/83/52 50/86/55
f 50/86/55 47/83/52 46/82/51
f 51/87/56 50/86/55 52/88/57
f 51/87/56 49/84/53 50/86/55
f 52/88/57 50/86/55 53/89/58
f 50/86/55 46/82/51 53/89/58
f 53/89/58 46/82/51 54/90/59
f 53/89/58 54/90/59 56/91/60
f 52/88/57 53/89/58 55/92/61
f 55/92/61 53/89/58 56/91/60
f 54/90/59 59/93/62 56/91/60
f 55/92/61 56/91/60 57/94/63
f 58/95/64 57/94/63 56/91/60
f 58/95/64 56/91/60 59/93/62
f 54/90/59 60/96/65 59/93/62
f 60/96/65 62/97/66 59/93/62
f 61/98/67 58/95/64 59/93/62
f 61/98/67 59/93/62 62/97/66
f 60/96/65 65/99/68 62/97/66
f 64/100/69 61/98/67 62/97/66
f 65/99/68 63/101/70 62/97/66
f 64/100/69 62/97/66 63/101/70
f 15/21/16 67/102/71 65/99/68
f 66/103/72 15/21/16 65/99/68
f 65/99/68 67/102/71 63/101/70
f 66/103/72 65/99/68 60/96/65
f 15/21/16 12/20/15 67/102/71
f 68/104/73 67/105/71 12/19/15
f 68/104/73 69/106/74 67/105/71
f 63/107/70 67/105/71 69/106/74
f 70/108/75 69/106/74 68/104/73
f 70/108/75 72/109/76 69/106/74
f 71/110/77 69/106/74 72/109/76
f 63/107/70 69/106/74 71/110/77
f 74/111/78 72/109/76 73/112/79
f 75/113/80 73/112/79 72/109/76
f 71/110/77 72/109/76 74/111/78
f 75/113/80 72/109/76 70/108/75
f 76/114/81 75/113/80 70/108/75
f 76/114/81 77/115/82 75/113/80
f 78/116/83 75/113/80 77/115/82
f 78/116/83 73/112/79 75/113/80
f 79/117/84 78/116/83 77/115/82
f 81/118/85 78/116/83 79/117/84
f 80/119/86 73/112/79 78/116/83
f 81/118/85 80/119/86 78/116/83
f 81/118/85 49/120/53 51/121/56
f 81/118/85 51/121/56 82/122/87
f 49/120/53 81/118/85 79/117/84
f 80/119/86 81/118/85 82/122/87
f 83/123/88 82/122/87 85/124/89 86/125/90
f 80/119/86 82/122/87 83/123/88
f 84/126/91 82/122/87 51/121/56 111/127/92
f 85/124/89 82/122/87 84/126/91
f 83/123/88 86/125/90 87/151/94
f 90/152/95 83/123/88 87/151/94 88/153/96
f 90/152/95 88/153/96 89/154/97
f 93/155/98 94/156/99 91/157/100 90/152/95
f 92/158/101 90/152/95 91/157/100
f 92/158/101 83/123/88 90/152/95
f 90/152/95 89/154/97 93/155/98
f 91/157/100 94/156/99 95/159/102
f 96/160/103 97/161/104 91/157/100 95/159/102
f 96/160/103 98/162/105 97/161/104
f 98/162/105 99/163/106 64/164/69 97/161/104
f 61/98/67 64/100/69 99/165/106 100/166/107
f 100/166/107 101/167/108 61/98/67
f 61/98/67 101/167/108 102/168/109 58/95/64
f 58/95/64 102/168/109 103/169/110
f 58/95/64 103/169/110 104/170/111 57/94/63
f 105/171/112 57/94/63 104/170/111
f 57/94/63 105/171/112 106/172/113
f 107/173/114 55/92/61 57/94/63 106/172/113
f 55/92/61 107/173/114 108/174/115
f 108/174/115 109/175/116 52/88/57 55/92/61
f 110/176/117 52/88/57 109/175/116
f 111/177/92 51/87/56 52/88/57 110/176/117
f 74/111/78 91/157/100 97/161/104
f 74/111/78 97/161/104 71/110/77
f 71/110/77 97/161/104 64/164/69
f 74/111/78 73/112/79 92/158/101
f 92/158/101 91/157/100 74/111/78
f 92/158/101 80/119/86 83/123/88
f 80/119/86 92/158/101 73/112/79
f 79/117/84 77/115/82 112/178/118
f 49/120/53 79/117/84 48/179/54
f 48/179/54 79/117/84 112/178/118
f 113/180/119 112/178/118 77/115/82
f 113/180/119 114/181/120 112/178/118
f 114/181/120 40/182/46 112/178/118
f 48/179/54 112/178/118 40/182/46
f 115/183/121 114/181/120 113/180/119
f 114/181/120 36/71/41 40/182/46
f 35/70/40 36/71/41 114/181/120
f 115/183/121 35/70/40 114/181/120
f 116/184/122 115/183/121 118/185/123
f 116/184/122 117/186/124 115/183/121
f 117/186/124 35/70/40 115/183/121
f 118/185/123 115/183/121 113/180/119
f 116/184/122 118/185/123 119/187/125
f 118/185/123 120/188/126 119/187/125
f 118/185/123 76/114/81 120/188/126
f 118/185/123 113/180/119 76/114/81
f 119/187/125 120/188/126 11/18/14
f 120/188/126 68/104/73 11/18/14
f 120/188/126 70/108/75 68/104/73
f 76/114/81 70/108/75 120/188/126
f 116/184/122 119/187/125 121/189/127
f 121/189/127 119/187/125 9/15/12
f 119/187/125 11/18/14 9/15/12
f 116/184/122 121/189/127 123/190/128 124/191/129
f 121/189/127 9/15/12 6/9/7
f 121/189/127 122/192/130 123/190/128
f 121/189/127 6/9/7 129/193/131 122/192/130
f 117/186/124 116/184/122 124/191/129 125/194/132
f 117/186/124 125/194/132 126/195/133
f 32/63/36 117/186/124 126/195/133 127/196/134
f 32/63/36 127/196/134 128/67/39
f 6/9/7 130/10/8 129/193/131
f 117/186/124 32/63/36 35/70/40
f 76/114/81 113/180/119 77/115/82
f 71/110/77 64/164/69 63/107/70
f 11/18/14 68/104/73 12/19/15
f 66/103/72 43/79/48 14/22/17
f 15/21/16 66/103/72 14/22/17
f 45/81/50 66/103/72 60/96/65
f 66/103/72 45/81/50 43/79/48
f 45/81/50 60/96/65 54/90/59
f 45/81/50 54/90/59 46/82/51
f 41/78/47 48/85/54 40/77/46
f 14/22/17 43/79/48 18/24/19
f 38/75/44 17/25/20 18/24/19
f 38/75/44 24/54/27 17/25/20
f 5/4/4 131/28/23 132/5/5
s 0
usemtl 
f 100/128/93 99/129/93 98/130/93 96/131/93 95/132/93 94/133/93 93/134/93 89/135/93 88/136/93 87/137/93 86/138/93 85/139/93 84/140/93 111/129/93 110/141/93 109/142/93 108/143/93 107/144/93 106/145/93 105/146/93 104/147/93 103/148/93 102/149/93 101/150/93
