# Blender 3.6.22
# www.blender.org
mtllib cola1_pokemon.mtl
o pm0887_00_00_BodyASkin.004
v 0.073724 -0.030084 -0.104570
v 0.065348 -0.015424 -0.123976
v 0.073184 -0.015424 -0.105814
v 0.075805 -0.015424 -0.093565
v 0.021699 -0.031178 -0.237974
v 0.099198 -0.048010 0.011007
v 0.076961 -0.129493 -0.102582
v 0.099987 -0.135875 0.008865
v 0.077575 -0.227323 -0.101322
v 0.020501 -0.223702 -0.247781
v 0.021017 -0.127164 -0.245081
v 0.000000 -0.127248 -0.260885
v 0.000000 -0.031545 -0.253054
v 0.000000 -0.015424 -0.250443
v -0.021699 -0.031178 -0.237974
v -0.021017 -0.127164 -0.245081
v -0.076961 -0.129493 -0.102583
v -0.020501 -0.223702 -0.247781
v 0.000000 -0.323249 -0.263029
v -0.077575 -0.227323 -0.101322
v -0.020035 -0.323674 -0.246911
v 0.000000 -0.223527 -0.263889
v -0.019516 -0.418406 -0.243269
v -0.000760 -0.418406 -0.258614
v -0.076431 -0.327318 -0.100519
v -0.022119 -0.418406 -0.236522
v -0.074900 -0.418406 -0.099934
v -0.099157 -0.229652 0.006571
v -0.097403 -0.329914 0.004129
v -0.076432 -0.332484 0.106927
v -0.076636 -0.418406 -0.091289
v -0.077665 -0.418406 0.089536
v -0.096033 -0.418406 0.002015
v -0.074984 -0.418406 0.102719
v -0.028615 -0.418406 0.217500
v -0.019582 -0.418406 0.239950
v -0.020052 -0.335965 0.246715
v -0.003343 -0.418406 0.252326
v 0.000000 -0.418406 0.254788
v 0.003343 -0.418406 0.252326
v 0.000000 -0.336309 0.261456
v 0.000000 -0.236736 0.266539
v -0.020585 -0.236145 0.251937
v 0.020052 -0.335965 0.246715
v 0.020585 -0.236145 0.251937
v 0.020915 -0.139581 0.253595
v 0.076992 -0.134974 0.117532
v 0.077582 -0.232636 0.112043
v 0.000000 -0.140519 0.268040
v 0.000000 -0.044825 0.265366
v -0.020915 -0.139581 0.253595
v -0.020952 -0.043356 0.251103
v -0.076992 -0.134974 0.117532
v -0.099197 -0.048010 0.011007
v -0.073802 -0.035769 0.123792
v -0.099987 -0.135875 0.008865
v -0.077582 -0.232636 0.112043
v -0.076353 -0.015424 0.110247
v -0.060941 -0.015424 0.152648
v -0.072448 -0.015424 0.126077
v -0.020928 -0.015424 0.248486
v -0.014521 -0.015424 0.252426
v 0.000000 -0.015424 0.262202
v 0.014521 -0.015424 0.252426
v 0.020928 -0.015424 0.248486
v 0.020952 -0.043356 0.251103
v 0.073803 -0.035769 0.123792
v 0.076354 -0.015424 0.110247
v 0.072449 -0.015424 0.126077
v 0.060941 -0.015424 0.152648
v 0.092837 -0.015424 0.036222
v 0.097435 -0.015424 0.011795
v 0.093354 -0.015424 -0.012744
v -0.092837 -0.015424 0.036222
v -0.097434 -0.015424 0.011795
v -0.093353 -0.015424 -0.012744
v -0.075804 -0.015424 -0.093565
v -0.073723 -0.030084 -0.104570
v -0.073183 -0.015424 -0.105814
v -0.065347 -0.015424 -0.123976
v -0.021763 -0.015424 -0.235609
v -0.017962 -0.015424 -0.238009
v 0.099157 -0.229652 0.006571
v 0.076432 -0.332484 0.106927
v 0.074984 -0.418406 0.102719
v 0.028615 -0.418406 0.217500
v 0.097404 -0.329914 0.004129
v 0.076431 -0.327318 -0.100519
v 0.076637 -0.418406 -0.091289
v 0.096033 -0.418406 0.002015
v 0.077665 -0.418406 0.089536
v 0.074901 -0.418406 -0.099934
v 0.022119 -0.418406 -0.236522
v 0.019516 -0.418406 -0.243269
v 0.020035 -0.323674 -0.246911
v 0.000760 -0.418406 -0.258614
v 0.000000 -0.418406 -0.259224
v 0.019582 -0.418406 0.239950
v 0.017962 -0.015424 -0.238009
v 0.021763 -0.015424 -0.235609
vn 0.9574 0.0253 -0.2878
vn 0.8229 0.1349 -0.5520
vn 0.7832 0.0892 -0.6153
vn 0.9283 0.0410 -0.3697
vn 0.9508 0.0088 -0.3096
vn 0.9772 0.0199 -0.2113
vn 0.9996 0.0257 0.0068
vn 0.9797 0.0314 -0.1979
vn 0.9549 0.0126 -0.2966
vn 0.8984 0.0174 -0.4387
vn 1.0000 0.0016 -0.0000
vn 0.9554 -0.0057 -0.2952
vn 0.9015 -0.0005 -0.4327
vn 0.3684 0.0651 -0.9274
vn -0.0000 0.3408 -0.9401
vn -0.0000 0.1599 -0.9871
vn 0.5492 0.1284 -0.8257
vn -0.7517 0.1308 -0.6464
vn -0.5492 0.1284 -0.8257
vn -0.7279 -0.0387 -0.6846
vn -0.9549 0.0126 -0.2966
vn -0.7449 -0.0660 -0.6639
vn -0.0000 0.2374 -0.9714
vn -0.0001 0.4025 -0.9154
vn -0.7754 0.0213 -0.6311
vn -0.9554 -0.0057 -0.2952
vn -0.0000 -0.0400 -0.9992
vn -0.6290 -0.0320 -0.7768
vn -0.9586 -0.0101 -0.2846
vn -0.8124 -0.0268 -0.5825
vn -0.9328 -0.0188 -0.3599
vn -0.9999 -0.0132 -0.0003
vn -0.9600 -0.0179 -0.2796
vn -0.9998 -0.0179 0.0010
vn -0.9800 -0.0160 -0.1984
vn -0.9580 -0.0354 0.2845
vn -0.9579 -0.0301 0.2856
vn -0.9793 -0.0247 0.2007
vn -0.9999 -0.0154 -0.0022
vn -0.0000 -1.0000 -0.0000
vn -0.9270 -0.0355 0.3733
vn -0.8006 -0.0535 0.5967
vn -0.8251 -0.0172 0.5647
vn -0.5974 -0.0667 0.7991
vn -0.0000 -0.0810 0.9967
vn -0.0000 -0.3084 0.9513
vn 0.5974 -0.0667 0.7991
vn 0.7251 -0.0778 0.6842
vn -0.8496 -0.0218 0.5270
vn 0.3605 -0.0293 0.9323
vn 0.8927 -0.0202 0.4503
vn 0.0723 -0.3320 0.9405
vn 0.8897 0.0003 0.4566
vn 0.9514 -0.0003 0.3081
vn 0.9524 -0.0192 0.3043
vn 0.2253 0.0880 0.9703
vn -0.7983 0.0750 0.5975
vn -0.7910 0.0987 0.6038
vn -0.9514 -0.0003 0.3081
vn -0.9535 0.0180 0.3010
vn -0.9997 0.0252 0.0024
vn -1.0000 0.0016 0.0001
vn -0.9524 -0.0192 0.3044
vn -0.9742 0.0271 0.2242
vn -0.9777 0.0299 0.2080
vn -0.9451 0.0263 0.3258
vn -0.9214 0.0332 0.3873
vn -0.7676 0.0604 0.6380
vn -0.0000 1.0000 -0.0000
vn -0.5417 0.0851 0.8363
vn -0.0000 0.1070 0.9943
vn 0.6988 0.0404 0.7142
vn 0.5417 0.0851 0.8363
vn 0.7676 0.0604 0.6380
vn 0.9528 0.0232 0.3027
vn 0.9214 0.0332 0.3873
vn 0.9777 0.0299 0.2080
vn 0.9742 0.0271 0.2242
vn 0.9451 0.0263 0.3258
vn 0.9985 0.0537 0.0134
vn -0.9985 0.0537 0.0134
vn -0.9797 0.0314 -0.1979
vn -0.9556 0.0264 -0.2935
vn -0.9772 0.0199 -0.2113
vn -0.9508 0.0088 -0.3096
vn -0.9283 0.0410 -0.3697
vn -0.7832 0.0892 -0.6153
vn 0.9999 -0.0132 -0.0002
vn 0.9558 -0.0230 0.2931
vn 0.9998 -0.0179 0.0013
vn 0.8006 -0.0535 0.5967
vn 0.9270 -0.0355 0.3733
vn 0.9579 -0.0301 0.2856
vn 0.9793 -0.0247 0.2007
vn 0.9622 -0.0157 -0.2718
vn 0.9800 -0.0160 -0.1985
vn 0.9600 -0.0179 -0.2796
vn 0.9999 -0.0154 -0.0022
vn 0.9328 -0.0188 -0.3599
vn 0.8430 0.0501 -0.5356
vn 0.8124 -0.0268 -0.5825
vn 0.6290 -0.0320 -0.7768
vt 0.941737 0.861340
vt 0.983020 0.859624
vt 0.982526 0.864180
vt 0.947966 0.865353
vt 0.942256 0.865545
vt 0.938632 0.865675
vt 0.907719 0.857365
vt 0.914947 0.866506
vt 0.940026 0.832748
vt 0.984149 0.831916
vt 0.907719 0.832118
vt 0.938660 0.804697
vt 0.983990 0.804697
vt 0.991734 0.831753
vt 0.990642 0.859556
vt 0.990123 0.864252
vt 0.983823 0.864220
vt 0.009358 0.859556
vt 0.016980 0.859624
vt 0.016177 0.864220
vt 0.009877 0.864252
vt 0.015851 0.831916
vt 0.008266 0.831753
vt 0.059974 0.832748
vt 0.016011 0.804697
vt 0.009835 0.775838
vt 0.008497 0.804697
vt 0.017253 0.775838
vt 0.061340 0.804697
vt 0.991503 0.804697
vt 0.990165 0.775838
vt 0.011952 0.748351
vt 0.012233 0.748355
vt 0.062523 0.775838
vt 0.019217 0.748541
vt 0.021302 0.748590
vt 0.092281 0.804697
vt 0.063537 0.749571
vt 0.092281 0.775838
vt 0.065994 0.749632
vt 0.123605 0.775838
vt 0.123264 0.751026
vt 0.119250 0.750931
vt 0.092281 0.750360
vt 0.456821 0.000000
vt 0.457201 0.000000
vt 0.457581 0.000000
vt 0.466959 0.000000
vt 0.468261 0.000000
vt 0.494652 0.000000
vt 0.495520 0.000000
vt 0.505218 0.000000
vt 0.496034 0.000000
vt 0.494693 0.000000
vt 0.471509 0.000000
vt 0.466992 0.000000
vt 0.458873 0.000000
vt 0.455530 0.000000
vt 0.447411 0.000000
vt 0.442894 0.000000
vt 0.419709 0.000000
vt 0.418369 0.000000
vt 0.409185 0.000000
vt 0.418883 0.000000
vt 0.419751 0.000000
vt 0.446142 0.000000
vt 0.447443 0.000000
vt 0.158985 0.751850
vt 0.165965 0.752012
vt 0.167104 0.775838
vt 0.171857 0.752035
vt 0.173055 0.752051
vt 0.174286 0.775838
vt 0.828143 0.752035
vt 0.832896 0.775838
vt 0.825714 0.775838
vt 0.826945 0.752051
vt 0.167625 0.804697
vt 0.174901 0.804697
vt 0.832375 0.804697
vt 0.825099 0.804697
vt 0.825538 0.833441
vt 0.832876 0.833458
vt 0.875295 0.833396
vt 0.875934 0.804697
vt 0.172772 0.861211
vt 0.167124 0.833458
vt 0.174462 0.833441
vt 0.827228 0.861211
vt 0.165448 0.861218
vt 0.124705 0.833396
vt 0.125636 0.862045
vt 0.092282 0.857365
vt 0.092281 0.832118
vt 0.124066 0.804697
vt 0.121444 0.867777
vt 0.099483 0.867023
vt 0.126163 0.867935
vt 0.134518 0.868225
vt 0.164451 0.869251
vt 0.442653 0.000000
vt 0.449913 0.000000
vt 0.457174 0.000000
vt 0.460377 0.000000
vt 0.480384 0.000000
vt 0.486138 0.000000
vt 0.488090 0.000000
vt 0.496332 0.000000
vt 0.498631 0.000000
vt 0.496590 0.000000
vt 0.487816 0.000000
vt 0.486505 0.000000
vt 0.482587 0.000000
vt 0.460795 0.000000
vt 0.458894 0.000000
vt 0.440932 0.000000
vt 0.439032 0.000000
vt 0.417240 0.000000
vt 0.413322 0.000000
vt 0.412011 0.000000
vt 0.403237 0.000000
vt 0.401196 0.000000
vt 0.403495 0.000000
vt 0.411737 0.000000
vt 0.413689 0.000000
vt 0.419443 0.000000
vt 0.439449 0.000000
vt 0.166615 0.869428
vt 0.171652 0.869717
vt 0.828348 0.869717
vt 0.834552 0.861218
vt 0.833385 0.869428
vt 0.835549 0.869251
vt 0.874364 0.862045
vt 0.865482 0.868225
vt 0.900517 0.867023
vt 0.878556 0.867777
vt 0.873837 0.867935
vt 0.907722 0.866733
vt 0.092278 0.866733
vt 0.085053 0.866506
vt 0.058263 0.861340
vt 0.061368 0.865675
vt 0.057744 0.865545
vt 0.052034 0.865353
vt 0.017474 0.864180
vt 0.907719 0.804697
vt 0.876395 0.775838
vt 0.907719 0.775838
vt 0.834035 0.752012
vt 0.841015 0.751850
vt 0.876736 0.751026
vt 0.880750 0.750931
vt 0.937477 0.775838
vt 0.934006 0.749632
vt 0.936463 0.749570
vt 0.907719 0.750360
vt 0.978698 0.748590
vt 0.982747 0.775838
vt 0.980783 0.748541
vt 0.987767 0.748355
vt 0.988048 0.748350
s 0
usemtl pm0887_00_00-BodyA00
f 24/45/40 97/46/40 96/47/40 94/48/40 93/49/40 92/50/40 89/51/40 90/52/40 91/53/40 85/54/40 86/55/40 98/56/40 40/57/40 39/46/40 38/58/40 36/59/40 35/60/40 34/61/40 32/62/40 33/63/40 31/64/40 27/65/40 26/66/40 23/67/40
f 62/101/69 63/102/69 64/103/69 65/104/69 70/105/69 69/106/69 68/107/69 71/108/69 72/109/69 73/110/69 4/111/69 3/112/69 2/113/69 100/114/69 99/115/69 14/102/69 82/116/69 81/117/69 80/118/69 79/119/69 77/120/69 76/121/69 75/122/69 74/123/69 58/124/69 60/125/69 59/126/69 61/127/69
s 1
usemtl pm0887_00_00-BodyAVco00
f 1/1/1 5/2/2 100/3/3 2/4/4
f 1/1/1 2/4/4 3/5/5
f 1/1/1 3/5/5 4/6/6
f 6/7/7 1/1/1 4/6/6 73/8/8
f 5/2/2 1/1/1 7/9/9
f 7/9/9 1/1/1 6/7/7
f 5/2/2 7/9/9 11/10/10
f 7/9/9 6/7/7 8/11/11
f 8/11/11 9/12/12 7/9/9
f 7/9/9 9/12/12 10/13/13
f 7/9/9 10/13/13 11/10/10
f 11/10/10 12/14/14 13/15/15
f 10/13/13 12/14/14 11/10/10
f 11/10/10 13/15/15 5/2/2
f 5/2/2 13/15/15 14/16/16 99/17/17
f 13/18/15 15/19/18 82/20/19 14/21/16
f 16/22/20 13/18/15 12/23/14
f 16/22/20 15/19/18 13/18/15
f 17/24/21 15/19/18 16/22/20
f 18/25/22 16/22/20 12/23/14
f 18/25/22 17/24/21 16/22/20
f 19/26/23 18/25/22 22/27/24
f 19/26/23 21/28/25 18/25/22
f 20/29/26 18/25/22 21/28/25
f 18/25/22 20/29/26 17/24/21
f 18/25/22 12/23/14 22/27/24
f 10/13/13 22/30/24 12/14/14
f 10/13/13 19/31/23 22/30/24
f 21/28/25 19/26/23 97/32/27 24/33/28
f 20/29/26 21/28/25 25/34/29
f 21/28/25 24/33/28 23/35/30
f 25/34/29 21/28/25 23/35/30 26/36/31
f 28/37/32 20/29/26 25/34/29
f 27/38/33 25/34/29 26/36/31
f 29/39/34 25/34/29 27/38/33 31/40/35
f 28/37/32 25/34/29 29/39/34
f 28/37/32 29/39/34 30/41/36
f 34/42/37 30/41/36 29/39/34 32/43/38
f 29/39/34 31/40/35 33/44/39
f 29/39/34 33/44/39 32/43/38
f 35/68/41 30/41/36 34/42/37
f 36/69/42 37/70/43 30/41/36 35/68/41
f 37/70/43 36/69/42 38/71/44
f 39/72/45 41/73/46 37/70/43 38/71/44
f 40/74/47 44/75/48 41/76/46 39/77/45
f 43/78/49 41/73/46 42/79/50
f 41/76/46 45/80/51 42/81/50
f 43/78/49 37/70/43 41/73/46
f 41/76/46 44/75/48 45/80/51
f 49/82/52 45/80/51 46/83/53
f 45/80/51 47/84/54 46/83/53
f 45/80/51 48/85/55 47/84/54
f 44/75/48 48/85/55 45/80/51
f 49/82/52 42/81/50 45/80/51
f 50/86/56 51/87/57 49/88/52
f 46/83/53 50/89/56 49/82/52
f 49/88/52 51/87/57 43/78/49
f 49/88/52 43/78/49 42/79/50
f 50/86/56 52/90/58 51/87/57
f 53/91/59 51/87/57 52/90/58
f 43/78/49 51/87/57 53/91/59
f 53/91/59 52/90/58 55/92/60
f 53/91/59 54/93/61 56/94/62
f 53/91/59 55/92/60 54/93/61
f 57/95/63 53/91/59 56/94/62
f 43/78/49 53/91/59 57/95/63
f 57/95/63 56/94/62 28/37/32
f 28/37/32 30/41/36 57/95/63
f 57/95/63 30/41/36 37/70/43
f 57/95/63 37/70/43 43/78/49
f 54/93/61 17/24/21 56/94/62
f 20/29/26 56/94/62 17/24/21
f 20/29/26 28/37/32 56/94/62
f 55/92/60 58/96/64 74/97/65 54/93/61
f 55/92/60 60/98/66 58/96/64
f 59/99/67 55/92/60 52/90/58 61/100/68
f 55/92/60 59/99/67 60/98/66
f 61/100/68 52/90/58 62/128/70
f 62/128/70 52/90/58 50/86/56 63/129/71
f 63/130/71 50/89/56 66/131/72 64/132/73
f 66/131/72 65/133/74 64/132/73
f 66/131/72 47/84/54 67/134/75
f 66/131/72 67/134/75 70/135/76 65/133/74
f 46/83/53 66/131/72 50/89/56
f 66/131/72 46/83/53 47/84/54
f 47/84/54 6/7/7 67/134/75
f 67/134/75 6/7/7 71/136/77 68/137/78
f 67/134/75 68/137/78 69/138/79
f 67/134/75 69/138/79 70/135/76
f 6/7/7 72/139/80 71/136/77
f 6/7/7 73/8/8 72/139/80
f 54/93/61 74/97/65 75/140/81
f 54/93/61 75/140/81 76/141/82
f 78/142/83 54/93/61 76/141/82 77/143/84
f 78/142/83 77/143/84 79/144/85
f 78/142/83 79/144/85 80/145/86
f 15/19/18 78/142/83 80/145/86 81/146/87
f 15/19/18 81/146/87 82/20/19
f 17/24/21 78/142/83 15/19/18
f 54/93/61 78/142/83 17/24/21
f 8/11/11 48/85/55 83/147/88
f 8/11/11 47/84/54 48/85/55
f 84/148/89 83/147/88 48/85/55
f 44/75/48 84/148/89 48/85/55
f 84/148/89 87/149/90 83/147/88
f 84/148/89 44/75/48 98/150/91 86/151/92
f 84/148/89 86/151/92 85/152/93
f 87/149/90 84/148/89 85/152/93 91/153/94
f 88/154/95 87/149/90 89/155/96 92/156/97
f 83/147/88 87/149/90 88/154/95
f 87/149/90 90/157/98 89/155/96
f 87/149/90 91/153/94 90/157/98
f 92/156/97 93/158/99 88/154/95
f 95/159/100 88/154/95 93/158/99 94/160/101
f 94/160/101 96/161/102 95/159/100
f 96/161/102 97/162/27 19/31/23 95/159/100
f 9/12/12 88/154/95 95/159/100
f 10/13/13 95/159/100 19/31/23
f 9/12/12 95/159/100 10/13/13
f 83/147/88 88/154/95 9/12/12
f 98/150/91 44/75/48 40/74/47
f 8/11/11 83/147/88 9/12/12
f 47/84/54 8/11/11 6/7/7
f 5/2/2 99/17/17 100/3/3
