# Blender 3.6.22
# www.blender.org
mtllib dado.mtl
o Cube
v 1.000000 1.000000 -1.000000
v 1.000000 -1.000000 -1.000000
v 1.000000 1.000000 1.000000
v 1.000000 -1.000000 1.000000
v -1.000000 1.000000 -1.000000
v -1.000000 -1.000000 -1.000000
v -1.000000 1.000000 1.000000
v -1.000000 -1.000000 1.000000
vn -0.0000 1.0000 -0.0000
vn -0.0000 -0.0000 1.0000
vn -1.0000 -0.0000 -0.0000
vn -0.0000 -1.0000 -0.0000
vn 1.0000 -0.0000 -0.0000
vn -0.0000 -0.0000 -1.0000
vt 0.402595 0.145876
vt 0.600973 0.434155
vt 0.403070 0.435447
vt 0.610842 0.889248
vt 0.395885 0.605285
vt 0.608530 0.602162
vt 0.305201 0.882277
vt 0.099992 0.608284
vt 0.304233 0.606979
vt 0.689496 0.162143
vt 0.901640 0.419343
vt 0.689084 0.418844
vt 0.898630 0.884827
vt 0.699372 0.603709
vt 0.898993 0.599622
vt 0.306794 0.425390
vt 0.099373 0.152842
vt 0.307030 0.153151
vt 0.600499 0.144583
vt 0.100960 0.883581
vt 0.902053 0.162641
vt 0.699010 0.888914
vt 0.398198 0.892370
vt 0.099137 0.425081
s 0
usemtl Material.003
f 5/1/1 3/2/1 1/3/1
f 3/4/2 8/5/2 4/6/2
f 7/7/3 6/8/3 8/9/3
f 2/10/4 8/11/4 6/12/4
f 1/13/5 4/14/5 2/15/5
f 5/16/6 2/17/6 6/18/6
f 5/1/1 7/19/1 3/2/1
f 7/7/3 5/20/3 6/8/3
f 2/10/4 4/21/4 8/11/4
f 1/13/5 3/22/5 4/14/5
f 3/4/2 7/23/2 8/5/2
f 5/16/6 1/24/6 2/17/6
