# Blender 3.6.22
# www.blender.org
mtllib fuego.mtl
o fire3:Group20972.001
v 0.021061 0.368401 0.201189
v 0.096453 0.185542 -0.220654
v 0.018993 0.352437 0.207508
v 0.093337 0.184584 -0.220675
v 0.094786 0.177765 -0.220459
v 0.028770 0.289970 0.199765
v 0.002180 0.273569 0.089853
v 0.024457 0.347117 0.197772
v 0.027672 0.349883 0.203313
v -0.107534 0.563977 -0.027196
v -0.126386 -0.128369 0.208936
v -0.093635 0.578556 -0.027372
v -0.014954 0.074492 -0.153847
v 0.167347 0.118052 -0.034555
v 0.063114 0.278731 0.042726
v 0.027066 0.068835 -0.200358
v -0.085908 0.268478 0.050741
v 0.095816 0.077499 -0.187761
v 0.238532 -0.101207 0.184415
v -0.137730 -0.221427 0.037959
v 0.069967 -0.268586 -0.015033
v 0.023924 0.364623 0.199398
v 0.021655 0.353804 0.199344
v 0.019150 0.356643 0.203120
v 0.021606 0.357777 0.206693
v 0.025356 0.356108 0.205004
v 0.092684 0.179946 -0.218717
v 0.094844 0.179505 -0.222423
v 0.089207 0.177932 -0.222578
v -0.097055 0.621187 -0.012201
v -0.097603 0.619024 -0.014350
v -0.103514 0.618538 -0.012523
v -0.104757 0.615176 -0.010756
v 0.018053 0.331273 0.214290
v 0.021476 0.332859 0.215016
v 0.017616 0.331610 0.209620
v 0.083029 0.174661 -0.220876
v 0.087210 0.178450 -0.218845
v 0.084621 0.162623 -0.220277
v 0.083395 0.161757 -0.224463
v 0.078304 0.162832 -0.216826
v 0.012427 0.263167 0.189101
v 0.008260 0.262246 0.208857
v 0.020818 0.295864 0.210722
v 0.031157 0.266913 0.175332
v 0.010443 0.263839 0.152337
v 0.034586 0.295666 0.205260
v 0.038031 0.264070 0.195596
v 0.028147 0.253207 0.132934
v -0.041469 0.281135 0.080991
v -0.032596 0.253988 0.127885
v 0.004885 0.326081 0.060652
v -0.028316 0.328178 0.063426
v 0.047869 0.335100 0.030155
v 0.049366 0.241462 0.090728
v 0.025600 0.325875 0.200049
v 0.020591 0.329353 0.203962
v 0.026690 0.351848 0.199243
v 0.029079 0.328341 0.202284
v 0.026147 0.332155 0.212602
v 0.029345 0.329595 0.207936
v -0.111076 0.569719 -0.026373
v -0.101800 0.548412 -0.036452
v -0.098441 0.547919 -0.033263
v -0.094585 0.552960 -0.027925
v -0.106001 0.573197 -0.021118
v -0.111515 0.587922 -0.016361
v -0.097017 -0.135242 0.229609
v -0.101431 -0.094087 0.235182
v -0.139047 -0.097625 0.205502
v -0.135266 -0.148236 0.189272
v -0.094686 -0.172048 0.210564
v -0.162565 -0.111494 0.174117
v -0.084976 0.559376 -0.035498
v -0.090230 0.557051 -0.038926
v -0.098457 0.581533 -0.027304
v -0.091680 0.587736 -0.022318
v -0.081566 0.564843 -0.029876
v -0.097326 0.599946 -0.019359
v 0.013104 0.096783 -0.157697
v 0.018344 0.046368 -0.175013
v -0.009246 0.006632 -0.167331
v -0.061364 0.041312 -0.141095
v -0.040076 0.132054 -0.137384
v 0.019619 0.157417 -0.142645
v 0.140223 0.185351 -0.025386
v 0.143844 0.183483 0.030905
v 0.174894 0.125553 0.041562
v 0.207505 0.054051 0.010138
v 0.205685 0.031480 -0.059125
v 0.164669 0.074476 -0.100698
v 0.204959 0.063998 0.075920
v 0.093640 0.215940 0.078038
v 0.109127 0.233786 0.031795
v 0.117227 0.242073 -0.019232
v 0.094569 0.294454 -0.013686
v 0.080993 0.347365 -0.013076
v 0.040075 0.056971 -0.220140
v 0.074462 0.015037 -0.221482
v 0.038790 0.021937 -0.200238
v 0.023066 0.101784 -0.211031
v 0.025373 0.095195 -0.222191
v 0.030877 0.081010 -0.177060
v 0.049545 0.086947 -0.193401
v 0.040144 0.108527 -0.207797
v 0.072453 0.099733 -0.163917
v -0.061215 0.331330 0.034535
v -0.065252 0.341295 -0.006899
v -0.082553 0.285771 -0.012877
v -0.085113 0.234032 0.095438
v 0.151651 0.045945 -0.158713
v 0.137861 0.027137 -0.202372
v 0.091816 0.063485 -0.217226
v 0.116934 0.097007 -0.139736
v 0.060502 0.099858 -0.225566
v 0.059701 0.104831 -0.212834
v 0.241409 -0.119148 0.152335
v 0.244471 -0.071453 0.135582
v 0.230632 -0.056889 0.181972
v 0.221133 -0.109446 0.216579
v 0.218875 -0.147550 0.184536
v 0.213753 -0.050520 0.227439
v -0.144218 -0.210535 0.074556
v -0.179366 -0.181732 0.043708
v -0.152998 -0.200848 -0.002742
v -0.115011 -0.216528 -0.037923
v -0.110206 -0.239800 0.029100
v -0.105315 -0.236857 0.083904
v 0.095692 -0.267409 0.026846
v 0.042440 -0.274600 0.056325
v 0.028270 -0.272244 -0.009293
v -0.021483 -0.269347 -0.000220
v -0.011647 -0.240959 -0.083808
v 0.044161 -0.246569 -0.084082
v 0.097256 -0.244217 -0.071250
v -0.013052 -0.269910 0.078162
v 0.068611 -0.259988 0.119097
v 0.009707 -0.256310 0.137751
v -0.047767 -0.243497 0.142794
v -0.059714 -0.257446 0.084807
v -0.069283 -0.258081 0.012255
v -0.065379 -0.229428 -0.067210
v -0.096947 -0.165434 -0.088214
v -0.040453 -0.172002 -0.122315
v 0.015640 -0.186962 -0.146856
v -0.009856 -0.110176 -0.164978
v 0.047636 -0.126912 -0.185584
v 0.097285 -0.132842 -0.185521
v 0.074390 -0.196243 -0.149603
v 0.144913 -0.129497 -0.167522
v 0.131551 -0.192149 -0.131780
v 0.195127 -0.119514 -0.118689
v 0.184052 -0.186480 -0.082073
v 0.144919 -0.241917 -0.026151
v 0.226580 -0.173749 -0.019588
v 0.186780 -0.225374 0.027865
v 0.131350 -0.252171 0.080554
v 0.207110 -0.203472 0.088887
v 0.152368 -0.226296 0.135054
v 0.091019 -0.229982 0.174255
v 0.164394 -0.192566 0.184375
v 0.103256 -0.190894 0.220084
v 0.034194 -0.188318 0.237236
v 0.027185 -0.226567 0.193957
v -0.038481 -0.180984 0.232408
v -0.039426 -0.216020 0.195320
v -0.096192 -0.201558 0.179026
v -0.099952 -0.223242 0.136320
v -0.142662 -0.173239 0.157013
v -0.145988 -0.193349 0.118564
v -0.179077 -0.132842 0.133504
v -0.185214 -0.157362 0.090924
v -0.199998 -0.092424 0.107922
v -0.201571 -0.121392 0.054312
v -0.183801 -0.144929 0.000538
v -0.196887 -0.067580 0.032601
v -0.172581 -0.089236 -0.020657
v -0.126542 -0.103757 -0.070943
v -0.147513 -0.158268 -0.047941
v -0.072219 -0.104162 -0.121327
v -0.110618 -0.033753 -0.087374
v -0.067273 -0.035002 -0.135283
v -0.010555 -0.055821 -0.164555
v 0.038357 -0.026871 -0.196324
v 0.038223 -0.075765 -0.185971
v 0.087018 -0.032791 -0.214954
v 0.095536 -0.082577 -0.197203
v 0.127826 -0.025992 -0.212150
v 0.138364 -0.076944 -0.186831
v 0.166798 -0.014027 -0.180819
v 0.185512 -0.059472 -0.150410
v 0.192124 0.007299 -0.125151
v 0.225466 -0.038575 -0.084458
v 0.239379 -0.108144 -0.054968
v 0.239452 -0.021072 -0.012417
v 0.260637 -0.093982 0.012357
v 0.246509 -0.159124 0.046909
v 0.258809 -0.080391 0.077072
v 0.247401 -0.137931 0.105642
v 0.215475 -0.176864 0.141824
v 0.169561 -0.153880 0.218800
v 0.177056 -0.107705 0.243774
v 0.107681 -0.109576 0.262635
v 0.108059 -0.151821 0.248869
v 0.030341 -0.108306 0.271109
v 0.033086 -0.149788 0.262731
v -0.047224 -0.100763 0.258272
v -0.042969 -0.141944 0.253267
v 0.026447 -0.064333 0.266328
v -0.051233 -0.055157 0.250838
v -0.108163 -0.046947 0.225986
v -0.054503 -0.007101 0.224383
v -0.108404 -0.002756 0.198054
v -0.150916 -0.007522 0.169391
v -0.150423 -0.052756 0.194188
v -0.182446 -0.020727 0.134004
v -0.181761 -0.067351 0.157834
v -0.200143 -0.043339 0.087451
v -0.169622 0.032131 0.114922
v -0.183833 0.019007 0.071560
v -0.181734 0.000709 0.018458
v -0.163454 0.083873 0.062188
v -0.161320 0.077299 0.012254
v -0.134351 0.061050 -0.050922
v -0.152713 -0.021486 -0.032550
v -0.102469 0.053929 -0.104816
v -0.130600 0.156802 -0.067833
v -0.095977 0.150247 -0.109471
v -0.105414 0.230435 -0.043225
v -0.076811 0.231536 -0.093603
v -0.030267 0.229168 -0.123646
v -0.062183 0.292950 -0.066583
v -0.026417 0.294639 -0.101783
v 0.015760 0.293183 -0.112360
v 0.017958 0.230581 -0.127384
v 0.053742 0.293414 -0.105695
v 0.057502 0.236463 -0.118225
v 0.056844 0.175717 -0.133594
v 0.089096 0.242405 -0.097771
v 0.090304 0.186627 -0.111750
v 0.086204 0.135892 -0.133658
v 0.050306 0.120158 -0.155625
v 0.119851 0.189826 -0.076080
v 0.125933 0.136494 -0.097564
v 0.109397 0.244605 -0.064082
v 0.082387 0.295936 -0.086952
v 0.097800 0.297670 -0.056313
v 0.071421 0.344414 -0.075991
v 0.084840 0.346624 -0.049381
v 0.051182 0.390341 -0.058701
v 0.061565 0.391258 -0.035390
v 0.052779 0.391265 -0.004307
v 0.027799 0.434892 -0.032337
v 0.022569 0.436391 -0.010461
v 0.007118 0.436492 0.008699
v 0.028468 0.387181 0.024725
v -0.013304 0.436530 0.018711
v -0.002656 0.384689 0.041859
v -0.032422 0.437029 0.015927
v -0.029520 0.386831 0.039613
v -0.045851 0.437675 0.002593
v -0.048190 0.389685 0.019445
v -0.050338 0.437580 -0.016572
v -0.052480 0.393103 -0.008677
v -0.045500 0.436822 -0.035897
v -0.043589 0.394535 -0.036398
v -0.050217 0.345916 -0.046387
v -0.024579 0.394178 -0.057961
v -0.023517 0.346893 -0.075896
v 0.001045 0.392509 -0.070018
v 0.010706 0.345752 -0.092212
v 0.028463 0.390843 -0.070406
v 0.045757 0.343917 -0.092188
v -0.014621 0.433497 -0.059983
v 0.004973 0.432608 -0.059774
v 0.020944 0.433184 -0.050130
v -0.021688 0.467740 -0.057980
v -0.010457 0.469184 -0.050901
v -0.004830 0.471830 -0.038451
v -0.040580 0.501452 -0.050360
v -0.035988 0.504657 -0.041336
v -0.036326 0.507141 -0.031653
v -0.006959 0.474294 -0.023754
v -0.041538 0.507600 -0.024397
v -0.016078 0.475499 -0.011482
v -0.049835 0.506358 -0.021621
v -0.029267 0.475504 -0.005470
v -0.058773 0.504400 -0.023769
v -0.042510 0.474969 -0.007321
v -0.066179 0.502466 -0.029875
v -0.052552 0.474101 -0.015910
v -0.070379 0.500890 -0.038174
v -0.057064 0.472864 -0.028430
v -0.070286 0.499535 -0.046767
v -0.055131 0.471182 -0.041594
v -0.065770 0.498495 -0.053664
v -0.047231 0.469305 -0.052383
v -0.032722 0.435215 -0.051381
v -0.035128 0.467906 -0.058365
v -0.057880 0.498177 -0.057130
v -0.048654 0.499108 -0.056046
v -0.079486 0.526939 -0.051600
v -0.072692 0.528831 -0.049789
v -0.066498 0.531846 -0.044923
v -0.062575 0.535868 -0.037923
v -0.080569 0.568412 -0.024842
v -0.062067 0.538436 -0.031220
v -0.083764 0.566481 -0.022253
v -0.065485 0.537538 -0.027166
v -0.089344 0.560202 -0.023437
v -0.071324 0.533980 -0.026993
v -0.077621 0.529767 -0.030324
v -0.083044 0.526579 -0.035659
v -0.086780 0.525410 -0.041287
v -0.103016 0.550799 -0.038831
v -0.087643 0.525371 -0.046498
v -0.100942 0.553396 -0.040345
v -0.085010 0.525919 -0.050272
v -0.096100 0.555301 -0.040549
v -0.109839 0.580708 -0.026708
v -0.104416 0.582272 -0.027305
v -0.109515 0.604592 -0.015947
v -0.103332 0.604842 -0.017826
v -0.093544 0.611306 -0.015377
v -0.095951 0.612027 -0.012283
v -0.093343 0.592761 -0.015400
v -0.089841 0.594257 -0.018104
v -0.104599 0.603064 -0.011330
v -0.100431 0.584257 -0.016106
v -0.112603 0.598712 -0.014897
v -0.112356 0.576003 -0.026192
v -0.119575 0.222994 0.023822
v -0.143445 0.166485 -0.011136
v -0.144405 0.148611 0.057516
v -0.121978 0.198860 0.073581
v -0.110937 0.180262 0.115984
v -0.066741 0.212586 0.142197
v -0.138492 0.139044 0.101870
v -0.118223 0.130509 0.134861
v -0.086883 0.166354 0.153176
v -0.153898 0.086813 0.103834
v -0.132140 0.087191 0.134007
v -0.094925 0.084133 0.154911
v -0.083292 0.121867 0.158741
v -0.142439 0.039911 0.147446
v -0.101749 0.042106 0.171358
v -0.045264 0.039587 0.188975
v -0.041246 0.079185 0.164662
v 0.022670 0.077424 0.145562
v 0.004972 0.115373 0.158863
v -0.039600 0.115417 0.169765
v 0.026306 0.038948 0.197683
v 0.091910 0.047399 0.196694
v 0.075420 0.093376 0.146924
v 0.022331 -0.016105 0.243881
v 0.097768 -0.013238 0.247255
v 0.150268 -0.007177 0.235728
v 0.135145 0.056823 0.186744
v 0.106178 -0.065674 0.265016
v 0.169314 -0.059461 0.253957
v 0.184952 -0.003077 0.211764
v 0.206304 -0.003213 0.174784
v 0.193147 0.066759 0.128748
v 0.169510 0.063470 0.164436
v 0.167282 0.125871 0.093890
v 0.145677 0.119499 0.128021
v 0.112847 0.108132 0.144764
v 0.109484 0.163886 0.112104
v 0.077050 0.147193 0.131308
v 0.046369 0.130361 0.134817
v 0.048862 0.170876 0.162535
v 0.030688 0.154868 0.179019
v 0.006742 0.148244 0.191697
v 0.034570 0.187110 0.206848
v 0.016663 0.183264 0.216301
v -0.004669 0.184636 0.214932
v -0.022901 0.149384 0.193653
v -0.026608 0.190032 0.202175
v -0.055533 0.155944 0.180228
v -0.047009 0.198924 0.178281
v -0.012367 0.224853 0.212345
v -0.019994 0.230543 0.194528
v -0.024231 0.239122 0.168028
v 0.006883 0.260694 0.221087
v 0.010951 0.258954 0.228175
v 0.018153 0.297678 0.224707
v 0.017117 0.297717 0.219228
v 0.000777 0.221027 0.223321
v 0.016775 0.219545 0.226392
v 0.019452 0.258014 0.229703
v 0.029123 0.258434 0.224688
v 0.029336 0.297573 0.222095
v 0.023050 0.297821 0.225772
v 0.031202 0.221295 0.219924
v 0.040339 0.226989 0.202827
v 0.036355 0.260566 0.212928
v 0.046862 0.196765 0.186736
v 0.050367 0.212309 0.147886
v 0.040617 0.237147 0.173575
v 0.068227 0.195746 0.117156
v 0.133456 0.176282 0.078108
v 0.034020 0.296912 0.214433
v 0.225496 -0.003222 0.117636
v 0.236568 -0.008677 0.054113
v 0.113658 0.019352 -0.225068
v 0.067167 0.057319 -0.228463
v 0.042567 0.095421 -0.229751
v 0.038576 0.130640 -0.222900
v 0.050379 0.131106 -0.228300
v 0.064375 0.134099 -0.226620
v 0.073979 0.159624 -0.225094
v 0.065488 0.136468 -0.219275
v 0.054222 0.137093 -0.214361
v 0.069217 0.160799 -0.217400
v 0.040393 0.133944 -0.215921
v 0.066324 0.158546 -0.221606
vn -0.6787 0.0648 -0.7315
vn -0.8285 0.2956 0.4757
vn 0.6697 0.4233 0.6101
vn 0.8429 -0.1679 0.5112
vn -0.0694 0.3062 -0.9494
vn -0.3319 0.3008 0.8941
vn -0.9951 0.0726 0.0675
vn -0.1303 0.4011 0.9067
vn 0.8192 -0.5253 -0.2302
vn 0.4440 -0.2832 0.8501
vn -0.7969 0.4619 -0.3893
vn -0.4043 0.8581 -0.3165
vn 0.8188 0.3642 -0.4437
vn 0.4458 0.8914 -0.0817
vn -0.1541 0.9287 0.3373
vn -0.0179 0.4274 0.9039
vn 0.5274 0.3566 0.7712
vn 0.5076 0.7572 0.4110
vn -0.6650 -0.1126 -0.7383
vn 0.5869 -0.0497 -0.8081
vn 0.0161 0.0930 -0.9955
vn 0.8535 0.1824 0.4882
vn 0.9900 0.0705 -0.1219
vn 0.9663 0.2550 0.0352
vn -0.6673 -0.5466 0.5058
vn -0.3726 -0.4901 0.7881
vn -0.4939 -0.4253 0.7584
vn -0.5979 -0.1653 0.7844
vn -0.5945 -0.4056 0.6943
vn -0.7297 -0.2576 0.6334
vn 0.3044 0.4878 -0.8182
vn 0.3561 0.4617 -0.8124
vn 0.2972 0.3795 -0.8761
vn -0.4032 0.1955 -0.8940
vn -0.2178 0.2193 -0.9510
vn -0.3511 0.1349 -0.9266
vn 0.9033 0.4185 -0.0940
vn 0.8576 0.4503 -0.2485
vn 0.8916 0.4445 -0.0861
vn 0.6026 0.5932 0.5338
vn 0.7807 0.4839 0.3955
vn 0.7728 0.2668 0.5758
vn -0.6791 -0.3436 -0.6487
vn -0.9151 -0.2905 -0.2797
vn -0.9458 0.0008 -0.3248
vn -0.4086 0.2964 0.8632
vn -0.4442 0.8757 -0.1893
vn -0.9357 0.3401 0.0943
vn -0.5503 0.6648 0.5052
vn -0.5842 0.4154 0.6972
vn 0.6215 0.6470 -0.4416
vn 0.6327 0.6083 -0.4792
vn 0.2741 0.8225 -0.4984
vn 0.7296 0.6013 -0.3259
vn 0.1321 0.6940 0.7077
vn 0.9811 0.0876 0.1727
vn 0.8694 -0.3679 0.3299
vn 0.9091 0.1016 0.4039
vn -0.6909 -0.7229 -0.0121
vn -0.5622 -0.7973 -0.2198
vn -0.5551 -0.8238 0.1150
vn 0.0963 -0.9943 -0.0466
vn -0.1052 -0.9358 -0.3365
vn 0.0844 -0.9398 -0.3312
vn -0.0744 -0.9972 -0.0085
vn 0.0072 -0.9750 0.2219
vn -0.1969 -0.9401 0.2784
vn -0.2380 -0.9708 0.0289
vn -0.4427 -0.8460 -0.2972
vn -0.2972 -0.8932 -0.3375
vn -0.3979 -0.9147 0.0709
vn -0.5123 -0.4853 -0.7086
vn -0.4053 -0.5689 -0.7156
vn -0.4277 -0.3397 -0.8376
vn -0.0897 -0.4858 -0.8694
vn -0.1143 -0.7458 -0.6563
vn 0.3070 -0.5355 -0.7867
vn 0.2011 -0.8082 -0.5535
vn 0.6502 -0.4601 -0.6046
vn 0.4640 -0.7772 -0.4249
vn 0.6293 -0.7276 -0.2730
vn 0.4191 -0.9073 -0.0339
vn 0.2989 -0.9297 -0.2150
vn 0.5212 -0.8383 0.1601
vn 0.2949 -0.8935 0.3385
vn 0.2066 -0.9686 0.1386
vn 0.3304 -0.7883 0.5190
vn 0.1407 -0.7626 0.6314
vn 0.0880 -0.8906 0.4463
vn -0.1104 -0.7289 0.6756
vn -0.1373 -0.8628 0.4866
vn -0.3578 -0.6738 0.6465
vn -0.3555 -0.8114 0.4640
vn -0.6053 -0.6849 0.4056
vn -0.5896 -0.7628 0.2656
vn -0.3879 -0.8781 0.2801
vn -0.7720 -0.5144 0.3735
vn -0.7355 -0.6376 0.2290
vn -0.9353 -0.2722 0.2263
vn -0.9402 -0.3353 -0.0608
vn -0.9317 -0.0070 -0.3633
vn -0.7718 -0.0293 -0.6351
vn -0.8152 -0.4260 -0.3924
vn -0.6546 -0.1045 -0.7487
vn -0.6411 -0.4629 -0.6122
vn -0.7090 -0.0473 -0.7037
vn -0.7087 -0.0397 -0.7044
vn -0.7089 -0.0470 -0.7037
vn -0.5329 -0.0740 -0.8429
vn -0.5488 -0.2453 -0.7992
vn -0.4664 -0.0305 -0.8840
vn -0.5022 -0.0948 -0.8596
vn -0.3782 -0.0359 -0.9250
vn -0.2915 -0.2848 -0.9132
vn -0.1183 -0.1302 -0.9844
vn 0.1966 -0.3538 -0.9144
vn 0.3123 -0.2510 -0.9162
vn 0.6487 -0.2237 -0.7274
vn 0.6770 -0.2210 -0.7020
vn 0.8610 0.1031 -0.4980
vn 0.8455 -0.0947 -0.5255
vn 0.9535 0.1317 -0.2710
vn 0.9260 -0.3077 -0.2188
vn 0.7901 -0.3962 -0.4676
vn 0.9829 -0.1753 0.0569
vn 0.8206 -0.5469 0.1661
vn 0.7486 -0.6614 -0.0469
vn 0.8626 -0.4347 0.2589
vn 0.5429 -0.6589 0.5206
vn 0.5581 -0.7586 0.3363
vn 0.4848 -0.5279 0.6973
vn 0.3202 -0.4017 0.8580
vn 0.3576 -0.6162 0.7017
vn 0.1353 -0.2486 0.9591
vn 0.1553 -0.5712 0.8060
vn -0.1583 -0.1708 0.9725
vn -0.1339 -0.5154 0.8464
vn -0.4079 -0.1585 0.8992
vn -0.3941 -0.4554 0.7983
vn -0.1658 0.1189 0.9790
vn -0.3796 0.1205 0.9173
vn -0.3253 0.4710 0.8199
vn -0.5617 0.4168 0.7147
vn -0.6130 0.0550 0.7881
vn -0.7727 0.2892 0.5651
vn -0.7627 -0.0623 0.6438
vn -0.9484 0.1264 0.2908
vn -0.8765 -0.1988 0.4384
vn -0.9305 0.2994 0.2112
vn -0.9705 0.2042 -0.1286
vn -0.9990 0.0314 -0.0309
vn -0.9587 0.2651 -0.1034
vn -0.8699 0.1389 -0.4733
vn -0.8604 0.1271 -0.4935
vn -0.8259 0.0100 -0.5638
vn -0.7568 0.0629 -0.6506
vn -0.8219 -0.0201 -0.5693
vn -0.5336 0.0750 -0.8424
vn -0.7087 -0.0391 -0.7044
vn -0.7591 0.3592 -0.5429
vn -0.4474 0.2167 -0.8677
vn -0.5763 0.3655 -0.7309
vn -0.1502 0.2754 -0.9495
vn -0.1242 0.1724 -0.9772
vn 0.1773 0.2294 -0.9571
vn 0.1585 0.2213 -0.9622
vn 0.4927 0.2147 -0.8433
vn 0.4195 0.3106 -0.8530
vn -0.0297 0.3069 -0.9513
vn 0.1554 0.5116 -0.8450
vn -0.4795 0.4114 -0.7752
vn 0.6801 0.2932 -0.6720
vn 0.5089 0.5105 -0.6931
vn 0.8543 0.3359 -0.3965
vn 0.7449 0.4882 -0.4547
vn 0.7841 0.2191 -0.5806
vn 0.9162 0.3151 -0.2473
vn 0.8450 0.2294 -0.4831
vn 0.9496 0.3122 -0.0294
vn 0.8466 0.2899 -0.4463
vn 0.9651 0.2444 0.0942
vn 0.7662 0.5053 -0.3970
vn 0.8707 0.4657 0.1581
vn 0.7927 0.5781 0.1934
vn 0.6514 0.4914 0.5781
vn 0.7026 0.3265 0.6323
vn 0.4023 0.4385 0.8036
vn 0.4830 0.2978 0.8234
vn -0.0761 0.4076 0.9100
vn 0.0325 0.3435 0.9386
vn -0.6793 0.2767 0.6797
vn -0.6389 0.3001 0.7083
vn -0.9772 0.0977 0.1883
vn -0.9550 0.2485 0.1621
vn -0.9597 -0.0213 -0.2804
vn -0.9278 0.2047 -0.3119
vn -0.7264 0.2307 -0.6474
vn -0.6749 0.3740 -0.6361
vn -0.8996 0.3155 -0.3018
vn -0.3931 0.3226 -0.8611
vn -0.2958 0.3790 -0.8769
vn 0.0188 0.4293 -0.9030
vn 0.0934 0.3197 -0.9429
vn 0.4347 0.4929 -0.7537
vn 0.5049 0.2970 -0.8105
vn 0.0097 0.2466 -0.9691
vn 0.4306 0.4509 -0.7819
vn 0.4615 0.3882 -0.7977
vn 0.7128 0.5900 -0.3791
vn 0.7319 0.5880 -0.3445
vn 0.6504 0.5953 -0.4717
vn 0.7390 0.6709 -0.0614
vn 0.7562 0.6492 0.0818
vn 0.6301 0.6620 0.4060
vn 0.6247 0.6294 0.4622
vn 0.2842 0.5653 0.7744
vn 0.3482 0.5895 0.7289
vn -0.2048 0.3658 0.9079
vn -0.1241 0.4900 0.8628
vn -0.6488 0.0635 0.7583
vn -0.6626 0.2473 0.7069
vn -0.8803 -0.2514 0.4023
vn -0.9593 -0.0631 0.2751
vn -0.8904 -0.4548 -0.0194
vn -0.9472 -0.2672 -0.1773
vn -0.7498 -0.4890 -0.4457
vn -0.7638 -0.3240 -0.5582
vn -0.4425 -0.2184 -0.8698
vn -0.4226 0.0605 -0.9043
vn -0.7594 -0.0364 -0.6496
vn -0.4286 -0.2983 -0.8528
vn 0.0610 0.1002 -0.9931
vn 0.0199 0.0625 -0.9978
vn 0.1213 0.2862 -0.9504
vn 0.3969 0.4818 -0.7813
vn 0.4397 0.4252 -0.7911
vn 0.3380 0.5069 -0.7929
vn 0.4889 0.5368 -0.6876
vn 0.5827 0.5786 -0.5706
vn 0.7323 0.5604 -0.3869
vn 0.7445 0.6358 -0.2037
vn 0.6299 0.2524 0.7345
vn 0.6535 0.5501 0.5200
vn 0.0276 -0.1339 0.9906
vn 0.1222 0.2329 0.9648
vn -0.2953 -0.3176 0.9011
vn -0.3256 -0.0352 0.9449
vn -0.4862 -0.4349 0.7580
vn -0.5927 -0.2357 0.7701
vn -0.6404 -0.5299 0.5559
vn -0.7504 -0.4199 0.5104
vn -0.8381 -0.5420 0.0619
vn -0.8290 -0.5500 0.1018
vn -0.6842 -0.1689 -0.7095
vn -0.7405 -0.4762 -0.4742
vn -0.2069 0.2361 -0.9494
vn -0.3309 -0.0914 -0.9392
vn -0.1999 0.3832 -0.9018
vn 0.0828 0.4551 -0.8866
vn 0.1223 0.4218 -0.8984
vn -0.2502 0.3931 -0.8848
vn 0.0647 0.3875 -0.9196
vn -0.2943 0.3417 -0.8925
vn 0.0734 0.2543 -0.9643
vn 0.9435 0.2766 0.1824
vn 0.6999 0.0067 0.7142
vn 0.3681 0.2893 -0.8836
vn 0.6147 0.0167 0.7886
vn 0.6085 0.4364 -0.6628
vn 0.1983 -0.1650 0.9662
vn 0.1175 -0.2244 0.9674
vn -0.1222 -0.3039 0.9448
vn -0.1659 -0.3754 0.9119
vn 0.1636 -0.0207 0.9863
vn -0.3581 -0.1021 0.9281
vn -0.9078 0.4188 -0.0218
vn -0.7284 0.2941 -0.6188
vn -0.9491 -0.1579 0.2726
vn -0.6142 0.1721 -0.7702
vn -0.9410 -0.3070 -0.1425
vn 0.5093 0.2239 -0.8310
vn -0.8259 0.4390 -0.3537
vn -0.8667 0.4984 -0.0218
vn -0.8830 0.4245 -0.2004
vn -0.9294 0.3554 0.0997
vn -0.9456 0.0402 -0.3228
vn -0.9725 0.2327 -0.0032
vn -0.7126 0.5215 0.4693
vn -0.8006 0.5152 0.3059
vn -0.8761 0.3814 0.2950
vn -0.7476 0.3285 0.5772
vn -0.9386 0.2873 0.1910
vn -0.7911 0.2493 0.5586
vn -0.5109 0.1118 0.8523
vn -0.7648 0.3285 0.5542
vn -0.4622 0.3598 0.8105
vn -0.1849 0.4586 0.8692
vn -0.5001 0.4665 0.7296
vn -0.2724 0.5721 0.7736
vn 0.2595 -0.1793 0.9490
vn -0.2168 -0.0786 0.9730
vn 0.0671 0.6978 0.7131
vn -0.1557 0.7452 0.6484
vn -0.1052 0.6305 0.7690
vn -0.0643 0.6396 0.7660
vn 0.0716 0.6298 0.7734
vn -0.0160 0.3692 0.9292
vn 0.1428 0.3550 0.9239
vn 0.4200 0.4662 0.7786
vn 0.2253 -0.1094 0.9681
vn 0.5220 -0.0928 0.8479
vn 0.7363 0.4802 0.4767
vn 0.3758 0.6055 0.7015
vn 0.8018 0.4965 0.3326
vn 0.6417 0.5844 0.4967
vn 0.2512 0.6390 0.7270
vn 0.2421 0.5012 0.8308
vn -0.0499 0.2797 0.9588
vn -0.0879 0.6647 0.7419
vn 0.5890 -0.4807 0.6496
vn 0.5277 -0.6328 0.5666
vn 0.1990 0.1086 0.9740
vn 0.4866 -0.5970 0.6378
vn -0.0170 -0.5418 0.8403
vn 0.1178 -0.6613 0.7408
vn -0.4609 -0.2222 0.8592
vn -0.3396 -0.3581 0.8697
vn -0.6603 0.1641 0.7329
vn -0.5991 0.0516 0.7990
vn -0.7657 0.2378 0.5976
vn -0.7167 0.5236 0.4606
vn -0.6898 0.4375 0.5768
vn -0.6893 0.7094 0.1467
vn -0.4912 0.8386 0.2355
vn -0.6013 0.6544 0.4584
vn -0.8268 0.4830 0.2884
vn -0.8892 0.2324 0.3941
vn -0.9259 0.2988 -0.2311
vn -0.6932 0.1465 0.7057
vn -0.1909 -0.0725 0.9789
vn -0.5695 -0.0563 0.8200
vn -0.1325 -0.2347 0.9630
vn 0.4774 0.0495 0.8773
vn -0.1820 0.1170 0.9763
vn 0.4353 -0.0990 0.8948
vn 0.8727 -0.0277 0.4875
vn 0.4624 -0.2576 0.8485
vn 0.8776 -0.0793 0.4727
vn 0.9733 0.1917 0.1264
vn 0.8232 -0.3932 0.4096
vn 0.9540 0.0686 0.2919
vn 0.6954 0.5525 0.4595
vn 0.6273 0.3208 0.7096
vn 0.5406 0.5697 0.6191
vn 0.7204 0.5936 0.3586
vn 0.5729 0.6072 0.5505
vn 0.8223 0.5378 0.1859
vn 0.9303 0.3075 -0.2000
vn 0.9952 0.0743 0.0635
vn 0.8542 0.5067 0.1166
vn 0.9935 0.0697 0.0900
vn 0.8509 0.0315 0.5244
vn 0.9882 0.1531 -0.0058
vn 0.8474 0.2145 0.4857
vn 0.4853 0.2746 0.8301
vn 0.4841 0.2759 0.8304
vn -0.2572 0.2791 0.9252
vn -0.9882 0.0489 0.1452
vn -0.9108 -0.0940 -0.4020
vn 0.8632 0.4835 0.1453
vn 0.8947 0.3750 0.2428
vn 0.8950 0.3745 0.2422
vn 0.8992 0.3686 0.2358
vn 0.9213 0.3854 0.0511
vn 0.8996 0.3680 0.2352
vn 0.9341 0.3209 0.1566
vn 0.9045 0.4146 -0.0997
vn 0.9594 0.2811 -0.0212
vn 0.0627 0.0311 0.9975
vn -0.1491 0.4387 0.8862
vn -0.7547 0.3793 0.5353
vn -0.9280 0.3145 0.2000
vn 0.9783 -0.0477 0.2016
vn 0.8907 0.3545 -0.2847
vn 0.8012 0.3744 -0.4668
vn 0.8053 0.4636 -0.3696
vn 0.6465 0.0182 -0.7627
vn -0.1609 -0.1877 -0.9690
vn 0.4565 0.3697 -0.8092
vn 0.0181 -0.1993 -0.9798
vn -0.3277 -0.2091 -0.9214
vn 0.3133 0.1133 -0.9429
vn -0.4072 0.1297 -0.9041
vn 0.1863 -0.0256 -0.9822
vn 0.0929 0.0246 -0.9954
vn 0.8158 -0.5783 -0.0032
vn 0.9894 -0.1410 0.0362
vn 0.4021 -0.2766 0.8728
vn 0.3182 0.0987 0.9429
vn -0.1379 0.2113 0.9677
vn -0.2387 0.2978 0.9243
vn -0.6942 0.7169 -0.0639
vn -0.8933 0.3841 -0.2336
vn -0.6933 0.7144 0.0942
vn -0.4362 0.4766 -0.7632
vn -0.4030 0.4311 -0.8073
vn -0.0904 0.1782 0.9798
vn 0.0257 0.1066 -0.9940
vn -0.4412 -0.1509 -0.8846
vn -0.5801 0.0774 -0.8108
vn -0.7737 -0.3881 0.5007
vn -0.6125 -0.5567 0.5612
vn 0.8795 0.4689 0.0811
vn 0.4828 0.2772 0.8307
vn 0.6141 0.0468 -0.7878
vn -0.8771 -0.0610 -0.4765
vn -0.7795 -0.0959 -0.6190
vn -0.3800 0.9012 0.2085
vn -0.6236 0.6564 -0.4247
vt 0.363803 0.614159
vt 0.366458 0.611040
vt 0.365284 0.602108
vt 0.361568 0.604452
vt 0.358717 0.600980
vt 0.360622 0.605389
vt 0.363685 0.604011
vt 0.670049 0.463201
vt 0.666820 0.458581
vt 0.669039 0.456781
vt 0.670308 0.458217
vt 0.667405 0.456919
vt 0.668403 0.462410
vt 0.353938 0.583509
vt 0.355303 0.584818
vt 0.356651 0.583786
vt 0.663986 0.457346
vt 0.663510 0.444280
vt 0.665498 0.443566
vt 0.657969 0.444453
vt 0.368808 0.549411
vt 0.366830 0.527284
vt 0.352149 0.526523
vt 0.357661 0.554276
vt 0.385491 0.530376
vt 0.388964 0.527839
vt 0.368439 0.554113
vt 0.376369 0.528030
vt 0.423978 0.535871
vt 0.410632 0.519062
vt 0.406322 0.542117
vt 0.381468 0.519706
vt 0.443838 0.579222
vt 0.424407 0.580954
vt 0.486156 0.540133
vt 0.485967 0.586668
vt 0.448556 0.509365
vt 0.367767 0.596588
vt 0.366940 0.579052
vt 0.361804 0.581923
vt 0.368029 0.600494
vt 0.367383 0.581088
vt 0.365985 0.598872
vt 0.359313 0.584237
vt 0.363959 0.582123
vt 0.439381 0.775616
vt 0.436976 0.780356
vt 0.448274 0.762766
vt 0.448051 0.762359
vt 0.446737 0.766520
vt 0.436364 0.783227
vt 0.430427 0.795384
vt 0.280392 0.204053
vt 0.282992 0.198380
vt 0.277127 0.232355
vt 0.275815 0.229434
vt 0.288066 0.187653
vt 0.296247 0.167995
vt 0.283087 0.217985
vt 0.446894 0.787652
vt 0.456632 0.771817
vt 0.455996 0.769898
vt 0.444284 0.790109
vt 0.444747 0.795230
vt 0.454901 0.776331
vt 0.439874 0.805310
vt 0.568577 0.371524
vt 0.585948 0.389927
vt 0.599661 0.348306
vt 0.580122 0.315503
vt 0.544813 0.419044
vt 0.579923 0.439983
vt 0.535816 0.344133
vt 0.590416 0.407485
vt 0.570187 0.463043
vt 0.536607 0.461501
vt 0.546421 0.413678
vt 0.583610 0.354650
vt 0.626331 0.336016
vt 0.630712 0.371511
vt 0.540760 0.362861
vt 0.480140 0.488296
vt 0.517557 0.503029
vt 0.554057 0.509870
vt 0.538493 0.553112
vt 0.530878 0.596793
vt 0.620293 0.366854
vt 0.639700 0.357060
vt 0.658860 0.322441
vt 0.626462 0.328138
vt 0.624896 0.394055
vt 0.633164 0.388616
vt 0.607627 0.376905
vt 0.627877 0.381806
vt 0.631951 0.399621
vt 0.621479 0.392362
vt 0.401736 0.531668
vt 0.425110 0.583556
vt 0.449097 0.591782
vt 0.443653 0.545945
vt 0.373965 0.503231
vt 0.648961 0.374007
vt 0.660374 0.347957
vt 0.680570 0.332431
vt 0.665418 0.362437
vt 0.629914 0.390111
vt 0.654001 0.392465
vt 0.645544 0.396570
vt 0.490202 0.226478
vt 0.511970 0.211666
vt 0.524168 0.251040
vt 0.487536 0.263064
vt 0.460648 0.219676
vt 0.479656 0.188219
vt 0.449866 0.268322
vt 0.382201 0.127230
vt 0.355660 0.136222
vt 0.356401 0.160000
vt 0.399744 0.144219
vt 0.442166 0.131275
vt 0.402447 0.112063
vt 0.370483 0.114492
vt 0.526240 0.088298
vt 0.513523 0.089270
vt 0.466568 0.083333
vt 0.500413 0.085279
vt 0.468193 0.087670
vt 0.526157 0.111105
vt 0.556052 0.106474
vt 0.576235 0.108416
vt 0.423241 0.087205
vt 0.440910 0.095397
vt 0.397773 0.098433
vt 0.363984 0.109011
vt 0.394199 0.097495
vt 0.434867 0.096971
vt 0.487072 0.120625
vt 0.483510 0.173455
vt 0.535107 0.168033
vt 0.580460 0.155683
vt 0.578313 0.219073
vt 0.621929 0.205256
vt 0.648331 0.200361
vt 0.613481 0.148021
vt 0.662343 0.203122
vt 0.632681 0.151401
vt 0.658281 0.211364
vt 0.629286 0.156081
vt 0.573170 0.110315
vt 0.612520 0.166591
vt 0.561391 0.123972
vt 0.498635 0.101850
vt 0.533726 0.142053
vt 0.475450 0.123211
vt 0.418051 0.120168
vt 0.450744 0.151057
vt 0.395659 0.152437
vt 0.348059 0.154563
vt 0.371627 0.122987
vt 0.312401 0.160618
vt 0.335293 0.131694
vt 0.315339 0.143633
vt 0.340275 0.125732
vt 0.304476 0.167012
vt 0.326958 0.150410
vt 0.299913 0.200361
vt 0.323503 0.180119
vt 0.304908 0.233728
vt 0.337886 0.209814
vt 0.381271 0.190382
vt 0.354076 0.254238
vt 0.400615 0.236360
vt 0.456854 0.224372
vt 0.431176 0.179371
vt 0.517566 0.224037
vt 0.475699 0.282163
vt 0.529003 0.281132
vt 0.577674 0.263945
vt 0.623762 0.287845
vt 0.617161 0.247481
vt 0.661429 0.282958
vt 0.654768 0.241857
vt 0.681393 0.288571
vt 0.671034 0.246507
vt 0.682386 0.298448
vt 0.673170 0.260931
vt 0.660758 0.316054
vt 0.652846 0.278182
vt 0.641654 0.220750
vt 0.614852 0.292632
vt 0.610507 0.232442
vt 0.581187 0.178664
vt 0.568712 0.243662
vt 0.544614 0.196160
vt 0.504788 0.164019
vt 0.431781 0.182993
vt 0.420019 0.221113
vt 0.371175 0.219568
vt 0.380060 0.184693
vt 0.324641 0.220616
vt 0.331388 0.186372
vt 0.291430 0.226844
vt 0.296854 0.192847
vt 0.325583 0.256918
vt 0.293984 0.264494
vt 0.279342 0.271271
vt 0.308931 0.304166
vt 0.296833 0.307753
vt 0.292272 0.303818
vt 0.276894 0.266475
vt 0.297803 0.292917
vt 0.283136 0.254427
vt 0.317743 0.274249
vt 0.316669 0.336554
vt 0.336453 0.325719
vt 0.371067 0.310613
vt 0.353218 0.379268
vt 0.385852 0.373842
vt 0.440066 0.360427
vt 0.418698 0.292290
vt 0.491041 0.354549
vt 0.452731 0.439475
vt 0.497435 0.434063
vt 0.450621 0.500262
vt 0.497632 0.501171
vt 0.541371 0.499216
vt 0.488378 0.551871
vt 0.529630 0.553265
vt 0.558764 0.552063
vt 0.569411 0.500382
vt 0.574789 0.552254
vt 0.584694 0.505239
vt 0.594038 0.455090
vt 0.588618 0.510144
vt 0.598079 0.464097
vt 0.609715 0.422213
vt 0.604453 0.409224
vt 0.591314 0.466738
vt 0.608106 0.422710
vt 0.578179 0.511960
vt 0.578220 0.554336
vt 0.567102 0.555767
vt 0.565466 0.594357
vt 0.555827 0.596181
vt 0.543781 0.632271
vt 0.534606 0.633028
vt 0.510320 0.633034
vt 0.514698 0.669051
vt 0.498114 0.670288
vt 0.477799 0.670371
vt 0.479060 0.629663
vt 0.460607 0.670402
vt 0.451677 0.627606
vt 0.452182 0.670814
vt 0.438787 0.629374
vt 0.453441 0.671348
vt 0.441565 0.631730
vt 0.463140 0.671270
vt 0.457019 0.634552
vt 0.477908 0.670644
vt 0.479240 0.635734
vt 0.482012 0.595597
vt 0.502967 0.635439
vt 0.514846 0.596403
vt 0.524218 0.634062
vt 0.543363 0.595461
vt 0.539066 0.632686
vt 0.562016 0.593947
vt 0.509546 0.667899
vt 0.519849 0.667165
vt 0.522271 0.667641
vt 0.504518 0.696168
vt 0.506034 0.697360
vt 0.501178 0.699545
vt 0.489650 0.723999
vt 0.486404 0.726644
vt 0.480116 0.728695
vt 0.490773 0.701578
vt 0.472763 0.729074
vt 0.478175 0.702573
vt 0.466593 0.728049
vt 0.467359 0.702577
vt 0.463188 0.726432
vt 0.461474 0.702136
vt 0.463096 0.724836
vt 0.461544 0.701419
vt 0.466094 0.723534
vt 0.467039 0.700398
vt 0.471564 0.722416
vt 0.476371 0.699009
vt 0.478320 0.721558
vt 0.487385 0.697460
vt 0.494480 0.669317
vt 0.497604 0.696305
vt 0.484707 0.721295
vt 0.488938 0.722064
vt 0.469713 0.745039
vt 0.472189 0.746601
vt 0.472418 0.749090
vt 0.470091 0.752410
vt 0.452258 0.779277
vt 0.466134 0.754530
vt 0.448922 0.777683
vt 0.461756 0.753789
vt 0.446697 0.772499
vt 0.458538 0.750852
vt 0.457285 0.747374
vt 0.457762 0.744742
vt 0.459323 0.743777
vt 0.449126 0.764737
vt 0.462150 0.743745
vt 0.451186 0.766881
vt 0.465933 0.744197
vt 0.453894 0.768453
vt 0.437846 0.789427
vt 0.441111 0.790719
vt 0.431231 0.809145
vt 0.435709 0.809352
vt 0.432267 0.820658
vt 0.436567 0.821059
vt 0.439377 0.814688
vt 0.435504 0.822845
vt 0.436143 0.815283
vt 0.439498 0.799378
vt 0.443069 0.800613
vt 0.430936 0.807884
vt 0.436169 0.792358
vt 0.430490 0.817882
vt 0.428924 0.804291
vt 0.436180 0.785544
vt 0.400787 0.494119
vt 0.410126 0.447468
vt 0.366310 0.432713
vt 0.368120 0.474196
vt 0.347253 0.458842
vt 0.354255 0.485527
vt 0.341480 0.424815
vt 0.331465 0.417769
vt 0.336603 0.447360
vt 0.332037 0.381696
vt 0.324592 0.382008
vt 0.331225 0.379483
vt 0.335005 0.410634
vt 0.310629 0.342976
vt 0.317217 0.344788
vt 0.336186 0.342709
vt 0.353662 0.375399
vt 0.399750 0.373945
vt 0.381934 0.405273
vt 0.351320 0.405310
vt 0.368808 0.342181
vt 0.404371 0.349158
vt 0.426984 0.387114
vt 0.337551 0.296733
vt 0.375598 0.299100
vt 0.410828 0.304103
vt 0.433673 0.356938
vt 0.368872 0.255811
vt 0.409472 0.260940
vt 0.444415 0.307488
vt 0.479113 0.307376
vt 0.501145 0.365140
vt 0.466046 0.362425
vt 0.509359 0.413940
vt 0.476324 0.408679
vt 0.448278 0.399295
vt 0.467088 0.445323
vt 0.437701 0.431542
vt 0.419149 0.417647
vt 0.402992 0.451094
vt 0.382915 0.437879
vt 0.362165 0.432410
vt 0.367428 0.464495
vt 0.351929 0.461321
vt 0.341432 0.462453
vt 0.345145 0.433351
vt 0.337795 0.466908
vt 0.336234 0.438767
vt 0.342002 0.474248
vt 0.338964 0.495654
vt 0.346141 0.500351
vt 0.360600 0.507433
vt 0.343701 0.525242
vt 0.341397 0.523806
vt 0.347420 0.555774
vt 0.350324 0.555806
vt 0.339040 0.492495
vt 0.345623 0.491272
vt 0.344960 0.523030
vt 0.353274 0.523377
vt 0.355023 0.555688
vt 0.349357 0.555892
vt 0.357386 0.492717
vt 0.373037 0.497417
vt 0.364544 0.525136
vt 0.386661 0.472466
vt 0.413034 0.485298
vt 0.391637 0.505803
vt 0.441929 0.471625
vt 0.501300 0.455556
vt 0.362351 0.555142
vt 0.525383 0.307368
vt 0.571350 0.302865
vt 0.681996 0.326004
vt 0.659379 0.357347
vt 0.647089 0.388802
vt 0.640643 0.417877
vt 0.650335 0.418262
vt 0.656729 0.420733
vt 0.660881 0.441804
vt 0.652689 0.422688
vt 0.643589 0.423204
vt 0.653492 0.442774
vt 0.637208 0.420604
vt 0.654604 0.440915
vt 0.663041 0.454219
s 1
usemtl Material.002
f 1/1/1 22/2/1 23/3/1 24/4/1
f 1/1/2 24/4/2 3/5/2 25/6/2
f 1/1/3 25/6/3 26/7/3 22/2/3
f 2/8/4 27/9/4 5/10/4 28/11/4
f 2/8/5 28/11/5 29/12/5 4/13/5
f 3/5/6 34/14/6 35/15/6 25/6/6
f 3/5/7 24/4/7 36/16/7 34/14/7
f 2/8/8 4/13/8 38/17/8 27/9/8
f 5/10/9 39/18/9 40/19/9 28/11/9
f 5/10/10 27/9/10 41/20/10 39/18/10
f 6/21/11 42/22/11 43/23/11 44/24/11
f 6/21/12 45/25/12 46/26/12 42/22/12
f 6/21/13 47/27/13 48/28/13 45/25/13
f 7/29/14 46/26/14 45/25/14 49/30/14
f 7/29/15 50/31/15 51/32/15 46/26/15
f 7/29/16 52/33/16 53/34/16 50/31/16
f 7/29/17 15/35/17 54/36/17 52/33/17
f 7/29/18 49/30/18 55/37/18 15/35/18
f 8/38/19 56/39/19 57/40/19 23/3/19
f 8/38/20 58/41/20 59/42/20 56/39/20
f 8/38/21 23/3/21 22/2/21 58/41/21
f 9/43/22 26/7/22 60/44/22 61/45/22
f 9/43/23 61/45/23 59/42/23 58/41/23
f 9/43/24 58/41/24 22/2/24 26/7/24
f 10/46/25 62/47/25 63/48/25 64/49/25
f 10/46/26 64/49/26 65/50/26 66/51/26
f 10/46/27 66/51/27 67/52/27 62/47/27
f 11/53/28 68/54/28 69/55/28 70/56/28
f 11/53/29 71/57/29 72/58/29 68/54/29
f 11/53/30 70/56/30 73/59/30 71/57/30
f 12/60/31 74/61/31 75/62/31 76/63/31
f 12/60/32 77/64/32 78/65/32 74/61/32
f 12/60/33 76/63/33 79/66/33 77/64/33
f 13/67/34 80/68/34 81/69/34 82/70/34
f 84/71/35 85/72/35 80/68/35 13/67/35
f 13/67/36 82/70/36 83/73/36 84/71/36
f 14/74/37 86/75/37 87/76/37 88/77/37
f 14/74/38 89/78/38 90/79/38 91/80/38
f 14/74/39 88/77/39 92/81/39 89/78/39
f 15/35/40 55/37/40 93/82/40 94/83/40
f 15/35/41 94/83/41 95/84/41 96/85/41
f 15/35/42 96/85/42 97/86/42 54/36/42
f 16/87/43 98/88/43 99/89/43 100/90/43
f 16/87/44 101/91/44 102/92/44 98/88/44
f 16/87/45 100/90/45 81/69/45 103/93/45
f 16/87/46 104/94/46 105/95/46 101/91/46
f 16/87/47 103/93/47 106/96/47 104/94/47
f 17/97/48 107/98/48 108/99/48 109/100/48
f 17/97/49 110/101/49 51/32/49 50/31/49
f 17/97/50 50/31/50 53/34/50 107/98/50
f 18/102/51 111/103/51 112/104/51 113/105/51
f 18/102/52 114/106/52 91/80/52 111/103/52
f 18/102/53 104/94/53 106/96/53 114/106/53
f 18/102/54 113/105/54 115/107/54 116/108/54
f 18/102/55 116/108/55 105/95/55 104/94/55
f 19/109/56 117/110/56 118/111/56 119/112/56
f 19/109/57 120/113/57 121/114/57 117/110/57
f 19/109/58 119/112/58 122/115/58 120/113/58
f 20/116/59 123/117/59 124/118/59 125/119/59
f 20/116/60 125/119/60 126/120/60 127/121/60
f 20/116/61 127/121/61 128/122/61 123/117/61
f 21/123/62 129/124/62 130/125/62 131/126/62
f 131/126/63 132/127/63 133/128/63 134/129/63
f 131/126/64 134/129/64 135/130/64 21/123/64
f 131/126/65 130/125/65 136/131/65 132/127/65
f 136/131/66 130/125/66 137/132/66 138/133/66
f 136/131/67 138/133/67 139/134/67 140/135/67
f 136/131/68 140/135/68 141/136/68 132/127/68
f 141/136/69 127/121/69 126/120/69 142/137/69
f 141/136/70 142/137/70 133/128/70 132/127/70
f 141/136/71 140/135/71 128/122/71 127/121/71
f 142/137/72 126/120/72 143/138/72 144/139/72
f 142/137/73 144/139/73 145/140/73 133/128/73
f 145/140/74 144/139/74 146/141/74 147/142/74
f 145/140/75 147/142/75 148/143/75 149/144/75
f 145/140/76 149/144/76 134/129/76 133/128/76
f 149/144/77 148/143/77 150/145/77 151/146/77
f 149/144/78 151/146/78 135/130/78 134/129/78
f 151/146/79 150/145/79 152/147/79 153/148/79
f 151/146/80 153/148/80 154/149/80 135/130/80
f 154/149/81 153/148/81 155/150/81 156/151/81
f 154/149/82 156/151/82 157/152/82 129/124/82
f 154/149/83 129/124/83 21/123/83 135/130/83
f 157/152/84 156/151/84 158/153/84 159/154/84
f 157/152/85 159/154/85 160/155/85 137/132/85
f 157/152/86 137/132/86 130/125/86 129/124/86
f 160/155/87 159/154/87 161/156/87 162/157/87
f 160/155/88 162/157/88 163/158/88 164/159/88
f 160/155/89 164/159/89 138/133/89 137/132/89
f 164/159/90 163/158/90 165/160/90 166/161/90
f 164/159/91 166/161/91 139/134/91 138/133/91
f 166/161/92 165/160/92 72/58/92 167/162/92
f 166/161/93 167/162/93 168/163/93 139/134/93
f 168/163/94 167/162/94 169/164/94 170/165/94
f 168/163/95 170/165/95 123/117/95 128/122/95
f 168/163/96 128/122/96 140/135/96 139/134/96
f 170/165/97 169/164/97 171/166/97 172/167/97
f 170/165/98 172/167/98 124/118/98 123/117/98
f 172/167/99 171/166/99 173/168/99 174/169/99
f 172/167/100 174/169/100 175/170/100 124/118/100
f 175/170/101 174/169/101 176/171/101 177/172/101
f 175/170/102 177/172/102 178/173/102 179/174/102
f 175/170/103 179/174/103 125/119/103 124/118/103
f 179/174/104 178/173/104 180/175/104 143/138/104
f 179/174/105 143/138/105 126/120/105 125/119/105
f 180/175/106 178/173/106 181/176/107 182/177/108
f 180/175/109 182/177/109 183/178/109 146/141/109
f 180/175/110 146/141/110 144/139/110 143/138/110
f 183/178/111 182/177/111 83/73/111 82/70/111
f 183/178/112 82/70/112 184/179/112 185/180/112
f 183/178/113 185/180/113 147/142/113 146/141/113
f 185/180/114 184/179/114 186/181/114 187/182/114
f 185/180/115 187/182/115 148/143/115 147/142/115
f 187/182/116 186/181/116 188/183/116 189/184/116
f 187/182/117 189/184/117 150/145/117 148/143/117
f 189/184/118 188/183/118 190/185/118 191/186/118
f 189/184/119 191/186/119 152/147/119 150/145/119
f 191/186/120 190/185/120 192/187/120 193/188/120
f 191/186/121 193/188/121 194/189/121 152/147/121
f 194/189/122 193/188/122 195/190/122 196/191/122
f 194/189/123 196/191/123 197/192/123 155/150/123
f 194/189/124 155/150/124 153/148/124 152/147/124
f 197/192/125 196/191/125 198/193/125 199/194/125
f 197/192/126 199/194/126 200/195/126 158/153/126
f 197/192/127 158/153/127 156/151/127 155/150/127
f 200/195/128 199/194/128 117/110/128 121/114/128
f 200/195/129 121/114/129 201/196/129 161/156/129
f 200/195/130 161/156/130 159/154/130 158/153/130
f 201/196/131 121/114/131 120/113/131 202/197/131
f 201/196/132 202/197/132 203/198/132 204/199/132
f 201/196/133 204/199/133 162/157/133 161/156/133
f 204/199/134 203/198/134 205/200/134 206/201/134
f 204/199/135 206/201/135 163/158/135 162/157/135
f 206/201/136 205/200/136 207/202/136 208/203/136
f 206/201/137 208/203/137 165/160/137 163/158/137
f 208/203/138 207/202/138 69/55/138 68/54/138
f 208/203/139 68/54/139 72/58/139 165/160/139
f 207/202/140 205/200/140 209/204/140 210/205/140
f 207/202/141 210/205/141 211/206/141 69/55/141
f 211/206/142 210/205/142 212/207/142 213/208/142
f 211/206/143 213/208/143 214/209/143 215/210/143
f 211/206/144 215/210/144 70/56/144 69/55/144
f 215/210/145 214/209/145 216/211/145 217/212/145
f 215/210/146 217/212/146 73/59/146 70/56/146
f 217/212/147 216/211/147 218/213/147 173/168/147
f 217/212/148 173/168/148 171/166/148 73/59/148
f 218/213/149 216/211/149 219/214/149 220/215/149
f 218/213/150 220/215/150 221/216/150 176/171/150
f 218/213/151 176/171/151 174/169/151 173/168/151
f 221/216/152 220/215/152 222/217/152 223/218/152
f 221/216/153 223/218/153 224/219/153 225/220/153
f 221/216/154 225/220/154 177/172/154 176/171/154
f 225/220/155 224/219/155 226/221/155 181/176/155
f 225/220/156 181/176/156 178/173/156 177/172/156
f 226/221/157 224/219/157 227/222/157 228/223/157
f 226/221/158 228/223/158 84/71/158 83/73/158
f 226/221/159 83/73/159 182/177/108 181/176/107
f 228/223/160 227/222/160 229/224/160 230/225/160
f 228/223/161 230/225/161 231/226/161 84/71/161
f 231/226/162 230/225/162 232/227/162 233/228/162
f 231/226/163 233/228/163 234/229/163 235/230/163
f 231/226/164 235/230/164 85/72/164 84/71/164
f 235/230/165 234/229/165 236/231/165 237/232/165
f 235/230/166 237/232/166 238/233/166 85/72/166
f 238/233/167 237/232/167 239/234/167 240/235/167
f 238/233/168 240/235/168 241/236/168 242/237/168
f 238/233/169 242/237/169 80/68/169 85/72/169
f 242/237/170 241/236/170 106/96/170 103/93/170
f 242/237/171 103/93/171 81/69/171 80/68/171
f 241/236/172 240/235/172 243/238/172 244/239/172
f 241/236/173 244/239/173 114/106/173 106/96/173
f 244/239/174 243/238/174 86/75/174 14/74/174
f 244/239/175 14/74/175 91/80/175 114/106/175
f 243/238/176 240/235/176 239/234/176 245/240/176
f 243/238/177 245/240/177 95/84/177 86/75/177
f 245/240/178 239/234/178 246/241/178 247/242/178
f 245/240/179 247/242/179 96/85/179 95/84/179
f 247/242/180 246/241/180 248/243/180 249/244/180
f 247/242/181 249/244/181 97/86/181 96/85/181
f 249/244/182 248/243/182 250/245/182 251/246/182
f 249/244/183 251/246/183 252/247/183 97/86/183
f 252/247/184 251/246/184 253/248/184 254/249/184
f 252/247/185 254/249/185 255/250/185 256/251/185
f 252/247/186 256/251/186 54/36/186 97/86/186
f 256/251/187 255/250/187 257/252/187 258/253/187
f 256/251/188 258/253/188 52/33/188 54/36/188
f 258/253/189 257/252/189 259/254/189 260/255/189
f 258/253/190 260/255/190 53/34/190 52/33/190
f 260/255/191 259/254/191 261/256/191 262/257/191
f 260/255/192 262/257/192 107/98/192 53/34/192
f 262/257/193 261/256/193 263/258/193 264/259/193
f 262/257/194 264/259/194 108/99/194 107/98/194
f 264/259/195 263/258/195 265/260/195 266/261/195
f 264/259/196 266/261/196 267/262/196 108/99/196
f 267/262/197 266/261/197 268/263/197 269/264/197
f 267/262/198 269/264/198 233/228/198 232/227/198
f 267/262/199 232/227/199 109/100/199 108/99/199
f 269/264/200 268/263/200 270/265/200 271/266/200
f 269/264/201 271/266/201 234/229/201 233/228/201
f 271/266/202 270/265/202 272/267/202 273/268/202
f 271/266/203 273/268/203 236/231/203 234/229/203
f 273/268/204 272/267/204 250/245/204 248/243/204
f 273/268/205 248/243/205 246/241/205 236/231/205
f 272/267/206 270/265/206 274/269/206 275/270/206
f 272/267/207 275/270/207 276/271/207 250/245/207
f 276/271/208 275/270/208 277/272/208 278/273/208
f 276/271/209 278/273/209 279/274/209 253/248/209
f 276/271/210 253/248/210 251/246/210 250/245/210
f 279/274/211 278/273/211 280/275/211 281/276/211
f 279/274/212 281/276/212 282/277/212 283/278/212
f 279/274/213 283/278/213 254/249/213 253/248/213
f 283/278/214 282/277/214 284/279/214 285/280/214
f 283/278/215 285/280/215 255/250/215 254/249/215
f 285/280/216 284/279/216 286/281/216 287/282/216
f 285/280/217 287/282/217 257/252/217 255/250/217
f 287/282/218 286/281/218 288/283/218 289/284/218
f 287/282/219 289/284/219 259/254/219 257/252/219
f 289/284/220 288/283/220 290/285/220 291/286/220
f 289/284/221 291/286/221 261/256/221 259/254/221
f 291/286/222 290/285/222 292/287/222 293/288/222
f 291/286/223 293/288/223 263/258/223 261/256/223
f 293/288/224 292/287/224 294/289/224 295/290/224
f 293/288/225 295/290/225 265/260/225 263/258/225
f 295/290/226 294/289/226 296/291/226 297/292/226
f 295/290/227 297/292/227 298/293/227 265/260/227
f 298/293/228 297/292/228 299/294/228 274/269/228
f 298/293/229 274/269/229 270/265/229 268/263/229
f 298/293/230 268/263/230 266/261/230 265/260/230
f 299/294/231 297/292/231 296/291/231 300/295/231
f 299/294/232 300/295/232 301/296/232 277/272/232
f 299/294/233 277/272/233 275/270/233 274/269/233
f 301/296/234 300/295/234 302/297/234 303/298/234
f 301/296/235 303/298/235 304/299/235 280/275/235
f 301/296/236 280/275/236 278/273/236 277/272/236
f 304/299/237 303/298/237 75/62/237 74/61/237
f 304/299/238 74/61/238 78/65/238 305/300/238
f 304/299/239 305/300/239 281/276/239 280/275/239
f 305/300/240 78/65/240 306/301/240 307/302/240
f 305/300/241 307/302/241 282/277/241 281/276/241
f 307/302/242 306/301/242 308/303/242 309/304/242
f 307/302/243 309/304/243 284/279/243 282/277/243
f 309/304/244 308/303/244 310/305/244 311/306/244
f 309/304/245 311/306/245 286/281/245 284/279/245
f 311/306/246 310/305/246 65/50/246 312/307/246
f 311/306/247 312/307/247 288/283/247 286/281/247
f 312/307/248 65/50/248 64/49/248 313/308/248
f 312/307/249 313/308/249 290/285/249 288/283/249
f 313/308/250 64/49/250 63/48/250 314/309/250
f 313/308/251 314/309/251 292/287/251 290/285/251
f 314/309/252 63/48/252 315/310/252 316/311/252
f 314/309/253 316/311/253 294/289/253 292/287/253
f 316/311/254 315/310/254 317/312/254 318/313/254
f 316/311/255 318/313/255 296/291/255 294/289/255
f 318/313/256 317/312/256 319/314/256 302/297/256
f 318/313/257 302/297/257 300/295/257 296/291/257
f 319/314/258 317/312/258 320/315/258 321/316/258
f 319/314/259 321/316/259 76/63/259 75/62/259
f 319/314/260 75/62/260 303/298/260 302/297/260
f 321/316/261 320/315/261 322/317/261 323/318/261
f 321/316/262 323/318/262 79/66/262 76/63/262
f 323/318/263 322/317/263 32/319/263 31/320/263
f 323/318/264 31/320/264 324/321/264 79/66/264
f 324/321/265 31/320/265 30/322/265 325/323/265
f 324/321/266 325/323/266 326/324/266 327/325/266
f 324/321/267 327/325/267 77/64/267 79/66/267
f 327/325/268 326/324/268 308/303/268 306/301/268
f 327/325/269 306/301/269 78/65/269 77/64/269
f 326/324/270 325/323/270 328/326/270 329/327/270
f 326/324/271 329/327/271 310/305/271 308/303/271
f 329/327/272 328/326/272 67/52/272 66/51/272
f 329/327/273 66/51/273 65/50/273 310/305/273
f 328/326/274 325/323/274 30/322/274 33/328/274
f 328/326/275 33/328/275 330/329/275 67/52/275
f 330/329/276 33/328/276 32/319/276 322/317/276
f 330/329/277 322/317/277 320/315/277 331/330/277
f 330/329/278 331/330/278 62/47/278 67/52/278
f 331/330/279 320/315/279 317/312/279 315/310/279
f 331/330/280 315/310/280 63/48/280 62/47/280
f 246/241/281 239/234/281 237/232/281 236/231/281
f 232/227/282 230/225/282 229/224/282 109/100/282
f 229/224/283 332/331/283 17/97/283 109/100/283
f 229/224/284 227/222/284 333/332/284 332/331/284
f 333/332/285 334/333/285 335/334/285 332/331/285
f 333/332/286 227/222/286 224/219/286 223/218/286
f 333/332/287 223/218/287 222/217/287 334/333/287
f 335/334/288 336/335/288 337/336/288 110/101/288
f 335/334/289 110/101/289 17/97/289 332/331/289
f 335/334/290 334/333/290 338/337/290 336/335/290
f 338/337/291 339/338/291 340/339/291 336/335/291
f 338/337/292 334/333/292 222/217/292 341/340/292
f 338/337/293 341/340/293 342/341/293 339/338/293
f 342/341/294 343/342/294 344/343/294 339/338/294
f 342/341/295 341/340/295 219/214/295 345/344/295
f 342/341/296 345/344/296 346/345/296 343/342/296
f 346/345/297 347/346/297 348/347/297 343/342/297
f 346/345/298 345/344/298 214/209/298 213/208/298
f 346/345/299 213/208/299 212/207/299 347/346/299
f 348/347/300 349/348/300 350/349/300 351/350/300
f 348/347/301 351/350/301 344/343/301 343/342/301
f 348/347/302 347/346/302 352/351/302 349/348/302
f 352/351/303 353/352/303 354/353/303 349/348/303
f 352/351/304 347/346/304 212/207/304 355/354/304
f 352/351/305 355/354/305 356/355/305 353/352/305
f 356/355/306 357/356/306 358/357/306 353/352/306
f 356/355/307 355/354/307 209/204/307 359/358/307
f 356/355/308 359/358/308 360/359/308 357/356/308
f 360/359/309 122/115/309 361/360/309 357/356/309
f 360/359/310 359/358/310 203/198/310 202/197/310
f 360/359/311 202/197/311 120/113/311 122/115/311
f 361/360/312 362/361/312 363/362/312 364/363/312
f 361/360/313 364/363/313 358/357/313 357/356/313
f 361/360/314 122/115/314 119/112/314 362/361/314
f 364/363/315 363/362/315 365/364/315 366/365/315
f 364/363/316 366/365/316 367/366/316 358/357/316
f 367/366/317 366/365/317 368/367/317 369/368/317
f 367/366/318 369/368/318 370/369/318 354/353/318
f 367/366/319 354/353/319 353/352/319 358/357/319
f 370/369/320 369/368/320 371/370/320 372/371/320
f 370/369/321 372/371/321 373/372/321 350/349/321
f 370/369/322 350/349/322 349/348/322 354/353/322
f 373/372/323 372/371/323 374/373/323 375/374/323
f 373/372/324 375/374/324 376/375/324 377/376/324
f 373/372/325 377/376/325 351/350/325 350/349/325
f 377/376/326 376/375/326 378/377/326 379/378/326
f 377/376/327 379/378/327 344/343/327 351/350/327
f 379/378/328 378/377/328 380/379/328 340/339/328
f 379/378/329 340/339/329 339/338/329 344/343/329
f 380/379/330 378/377/330 381/380/330 382/381/330
f 380/379/331 382/381/331 383/382/331 337/336/331
f 380/379/332 337/336/332 336/335/332 340/339/332
f 383/382/333 382/381/333 43/23/333 42/22/333
f 383/382/334 42/22/334 46/26/334 51/32/334
f 383/382/335 51/32/335 110/101/335 337/336/335
f 382/381/336 381/380/336 384/383/336 43/23/336
f 384/383/337 385/384/337 386/385/337 387/386/337
f 384/383/338 387/386/338 44/24/338 43/23/338
f 384/383/339 381/380/339 388/387/339 385/384/339
f 388/387/340 389/388/340 390/389/340 385/384/340
f 388/387/341 381/380/341 378/377/341 376/375/341
f 388/387/342 376/375/342 375/374/342 389/388/342
f 390/389/343 391/390/343 392/391/343 393/392/343
f 390/389/344 393/392/344 386/385/344 385/384/344
f 390/389/345 389/388/345 394/393/345 391/390/345
f 394/393/346 395/394/346 396/395/346 391/390/346
f 394/393/347 389/388/347 375/374/347 374/373/347
f 394/393/348 374/373/348 397/396/348 395/394/348
f 397/396/349 398/397/349 399/398/349 395/394/349
f 397/396/350 374/373/350 372/371/350 371/370/350
f 397/396/351 371/370/351 400/399/351 398/397/351
f 400/399/352 93/82/352 55/37/352 398/397/352
f 400/399/353 371/370/353 369/368/353 368/367/353
f 400/399/354 368/367/354 401/400/354 93/82/354
f 401/400/355 87/76/355 94/83/355 93/82/355
f 401/400/356 368/367/356 366/365/356 365/364/356
f 401/400/357 365/364/357 88/77/357 87/76/357
f 399/398/358 49/30/358 45/25/358 48/28/358
f 399/398/359 48/28/359 396/395/359 395/394/359
f 399/398/360 398/397/360 55/37/360 49/30/360
f 396/395/361 48/28/361 47/27/361 402/401/361
f 396/395/362 402/401/362 392/391/362 391/390/362
f 402/401/363 47/27/363 59/42/363 61/45/363
f 402/401/364 61/45/364 60/44/364 392/391/364
f 393/392/365 392/391/365 60/44/366 35/15/366
f 393/392/367 35/15/367 34/14/367 386/385/367
f 387/386/368 386/385/368 34/14/368 36/16/368
f 387/386/369 36/16/369 57/40/369 44/24/369
f 365/364/370 363/362/370 92/81/370 88/77/370
f 363/362/371 362/361/372 403/402/373 92/81/371
f 403/402/374 404/403/374 89/78/374 92/81/374
f 403/402/373 362/361/372 119/112/375 118/111/375
f 403/402/376 118/111/376 198/193/376 404/403/376
f 404/403/377 195/190/377 90/79/377 89/78/377
f 404/403/378 198/193/378 196/191/378 195/190/378
f 359/358/379 209/204/379 205/200/379 203/198/379
f 355/354/380 212/207/380 210/205/380 209/204/380
f 345/344/381 219/214/381 216/211/381 214/209/381
f 341/340/382 222/217/382 220/215/382 219/214/382
f 199/194/383 198/193/383 118/111/383 117/110/383
f 195/190/384 193/188/384 192/187/384 90/79/384
f 192/187/385 190/185/385 112/104/385 111/103/385
f 192/187/386 111/103/386 91/80/386 90/79/386
f 190/185/387 188/183/387 405/404/387 112/104/387
f 405/404/388 99/89/388 98/88/388 406/405/388
f 405/404/389 406/405/389 113/105/389 112/104/389
f 405/404/390 188/183/390 186/181/390 99/89/390
f 406/405/391 98/88/391 102/92/391 407/406/391
f 406/405/392 407/406/392 115/107/392 113/105/392
f 407/406/393 102/92/393 408/407/393 409/408/393
f 407/406/394 409/408/394 410/409/394 115/107/394
f 410/409/395 409/408/395 411/410/395 40/19/395
f 410/409/396 40/19/396 39/18/396 412/411/396
f 410/409/397 412/411/397 116/108/397 115/107/397
f 412/411/398 39/18/398 41/20/398 413/412/398
f 412/411/399 413/412/399 105/95/399 116/108/399
f 413/412/400 41/20/400 414/413/400 415/414/400
f 413/412/401 415/414/401 101/91/401 105/95/401
f 415/414/402 414/413/402 416/415/402 408/407/402
f 415/414/403 408/407/403 102/92/403 101/91/403
f 416/415/404 414/413/404 38/17/404 37/416/404
f 416/415/405 37/416/405 29/12/405 411/410/405
f 416/415/406 411/410/406 409/408/406 408/407/406
f 414/413/407 41/20/407 27/9/407 38/17/407
f 411/410/408 29/12/408 28/11/408 40/19/408
f 186/181/409 184/179/409 100/90/409 99/89/409
f 184/179/410 82/70/410 81/69/410 100/90/410
f 171/166/411 169/164/411 71/57/411 73/59/411
f 169/164/412 167/162/412 72/58/412 71/57/412
f 95/84/413 94/83/413 87/76/413 86/75/413
f 60/44/366 26/7/414 25/6/414 35/15/366
f 59/42/415 47/27/415 6/21/415 56/39/415
f 57/40/416 36/16/416 24/4/416 23/3/416
f 57/40/417 56/39/417 6/21/417 44/24/417
f 30/322/418 31/320/418 32/319/418 33/328/418
f 4/13/419 29/12/419 37/416/419 38/17/419
