# Blender 3.6.22
# www.blender.org
mtllib GUNTER_BOLO_DEFINITIVO.mtl
o Gunter_Model
v -1.323179 0.158150 -1.245652
v -2.392903 0.286500 -1.117624
v -2.064519 0.318650 -1.943556
v -1.259893 0.286500 -2.321150
v -0.041650 0.115600 -1.380072
v -0.076392 0.270650 -2.531247
v -1.380072 0.115600 0.041650
v -2.531247 0.270650 0.076392
v -0.000000 0.070450 0.000000
v 1.943556 0.318650 -2.064519
v 2.321150 0.286500 -1.259893
v 1.245652 0.158150 -1.323179
v 1.117624 0.286500 -2.392903
v 2.531247 0.270650 -0.076392
v 1.380072 0.115600 -0.041650
v 1.117624 8.263600 -2.392903
v 1.245651 8.912950 -1.323179
v 2.321150 8.263600 -1.259893
v 1.943556 7.910450 -2.064519
v -0.076393 8.437900 -2.531247
v -0.041651 9.131650 -1.380072
v 1.380071 9.131650 -0.041650
v 2.531247 8.437900 -0.076392
v -0.000001 9.364050 0.000000
v -1.323179 8.912950 -1.245652
v -1.259894 8.263600 -2.321150
v -2.064520 7.910450 -1.943556
v -2.392904 8.263600 -1.117624
v -1.380072 9.131650 0.041650
v -2.531248 8.437900 0.076392
v 2.285892 0.578800 -2.428161
v 2.967318 0.556950 -1.375138
v 2.454855 1.072950 -2.607640
v 3.183032 1.072950 -1.477392
v 3.224682 0.535150 -0.097320
v 3.456976 1.072950 -0.104331
v 2.967318 7.190500 -1.375138
v 2.285892 7.094800 -2.428161
v 3.224681 7.286201 -0.097320
v 3.183031 5.905500 -1.477392
v 2.454854 5.905500 -2.607640
v 3.456975 5.905500 -0.104331
v 1.193692 0.556950 -3.044845
v -0.097320 0.535150 -3.224682
v 1.282751 1.072950 -3.266332
v -0.104331 1.072950 -3.456976
v -2.428161 0.578800 -2.285892
v -1.375138 0.556950 -2.967318
v -2.607640 1.072950 -2.454855
v -1.477392 1.072950 -3.183032
v -1.375139 7.190500 -2.967318
v -2.428162 7.094800 -2.285892
v -0.097321 7.286200 -3.224682
v -1.477392 5.905500 -3.183032
v -2.607640 5.905500 -2.454855
v -0.104331 5.905500 -3.456976
v 1.193692 7.190500 -3.044845
v 1.282751 5.905500 -3.266332
v -3.044845 0.556950 -1.193692
v -3.224682 0.535150 0.097320
v -3.266332 1.072950 -1.282752
v -3.456976 1.072950 0.104331
v -3.044846 7.190500 -1.193692
v -3.266333 5.905499 -1.282752
v -3.224682 7.286200 0.097320
v -3.456976 5.905499 0.104331
v 3.233646 2.054250 -1.500879
v 3.511951 2.054200 -0.105990
v 2.493872 2.054300 -2.649086
v 1.303144 2.054250 -3.318271
v -0.105990 2.054200 -3.511951
v -1.500879 2.054250 -3.233646
v -2.649086 2.054300 -2.493872
v -3.318271 2.054250 -1.303144
v -3.511951 2.054200 0.105990
v 3.511951 4.691650 -0.105990
v 3.233646 4.691650 -1.500879
v 2.493872 4.691600 -2.649086
v 1.303144 4.691650 -3.318271
v -0.105990 4.691650 -3.511951
v -1.500880 4.691650 -3.233646
v -2.649086 4.691600 -2.493872
v -3.318271 4.691649 -1.303144
v -3.511951 4.691649 0.105990
v -0.389168 -0.000000 -1.169893
v -0.597805 -0.000000 -1.557475
v -0.412921 -0.000000 -1.956934
v 0.302437 0.000000 -1.092320
v 0.889750 0.000000 -1.208490
v 0.297067 0.196850 -1.270239
v 0.785456 0.000000 -1.402282
v 0.976278 0.000000 -1.604981
v 0.287592 0.295300 -1.584196
v 0.773580 0.000000 -1.795803
v 0.278117 0.196850 -1.898154
v 0.865997 0.000000 -1.995532
v 0.272746 0.000000 -2.076123
v -0.302689 0.295300 -1.566382
v 3.344927 6.397650 -0.100949
v 4.919010 6.003951 -0.148455
v 3.319944 5.905500 -0.789509
v 3.344927 5.413401 -0.100949
v 4.919010 5.807100 -0.148455
v 3.541687 5.905500 -0.106887
v 3.233646 3.403150 -1.500879
v 3.511951 3.403150 -0.105990
v 2.493872 3.403150 -2.649086
v 1.303144 3.403150 -3.318271
v -0.105990 3.403150 -3.511951
v -1.500880 3.403150 -3.233646
v -2.649086 3.403150 -2.493872
v -3.318271 3.403150 -1.303144
v -3.511951 3.403150 0.105990
v 0.623380 2.952750 -3.563727
v -0.116375 2.952750 -3.856044
v -0.114336 3.543300 -3.788475
v 0.502285 3.543300 -3.560072
v -0.837155 2.952750 -3.519648
v -0.716060 3.543300 -3.523303
v 0.626029 2.460650 -3.563807
v -0.116722 2.460650 -3.867539
v -0.839804 2.460650 -3.519568
v 0.553012 1.968500 -3.561603
v 0.343058 1.476400 -3.555267
v -0.113221 1.476400 -3.751542
v -0.115808 1.968500 -3.837253
v -0.766787 1.968500 -3.521772
v -0.556833 1.476400 -3.528108
v -0.111239 4.035450 -3.685872
v -0.106888 4.626000 -3.541687
v 0.295329 4.035450 -3.553826
v -0.509104 4.035450 -3.529549
v -0.106887 0.984250 -3.541687
v 3.572637 5.569201 -1.083615
v 2.537410 5.569200 -2.757899
v 2.246650 7.507800 -2.578146
v 3.281879 7.507801 -0.903813
v -1.245652 0.158150 1.323179
v -1.117624 0.286500 2.392903
v -1.943556 0.318650 2.064519
v -2.321150 0.286500 1.259893
v 0.041650 0.115600 1.380072
v 0.076392 0.270650 2.531247
v 1.323179 0.158150 1.245652
v 2.392903 0.286500 1.117624
v 2.064519 0.318650 1.943556
v 1.259893 0.286500 2.321150
v 1.259893 8.263600 2.321150
v 2.064518 7.910450 1.943556
v 2.392903 8.263600 1.117624
v 1.323178 8.912950 1.245652
v 0.076392 8.437900 2.531247
v 0.041650 9.131650 1.380072
v -1.245653 8.912950 1.323179
v -2.321151 8.263600 1.259893
v -1.943557 7.910450 2.064519
v -1.117625 8.263600 2.392903
v 3.044845 0.556950 1.193692
v 2.428161 0.578800 2.285892
v 2.607640 1.072950 2.454855
v 3.266332 1.072950 1.282752
v 3.044844 7.190500 1.193692
v 2.428161 7.094800 2.285892
v 3.266332 5.905500 1.282752
v 2.607639 5.905500 2.454855
v 1.375138 0.556950 2.967318
v 0.097320 0.535150 3.224682
v 1.477392 1.072950 3.183032
v 0.104331 1.072950 3.456976
v -1.193692 0.556950 3.044845
v -2.285892 0.578800 2.428161
v -2.454855 1.072950 2.607640
v -1.282752 1.072950 3.266332
v -1.193693 7.190500 3.044845
v -2.285893 7.094800 2.428161
v 0.097320 7.286200 3.224682
v -1.282752 5.905500 3.266332
v -2.454855 5.905500 2.607640
v 0.104330 5.905500 3.456976
v 1.375138 7.190500 2.967318
v 1.477391 5.905500 3.183032
v -2.967318 0.556950 1.375138
v -3.183032 1.072950 1.477392
v -2.967319 7.190500 1.375138
v -3.183032 5.905499 1.477392
v 3.318271 2.054250 1.303144
v 2.649086 2.054300 2.493872
v 1.500879 2.054250 3.233646
v 0.105990 2.054200 3.511951
v -1.303144 2.054250 3.318271
v -2.493873 2.054300 2.649086
v -3.233646 2.054250 1.500879
v 3.318270 4.691650 1.303144
v 2.649085 4.691600 2.493872
v 1.500879 4.691650 3.233646
v 0.105989 4.691650 3.511951
v -1.303144 4.691650 3.318271
v -2.493873 4.691600 2.649086
v -3.233647 4.691649 1.500879
v -0.317910 -0.000000 1.191232
v -0.294157 -0.000000 1.978274
v -0.502794 -0.000000 1.590691
v 0.367758 0.000000 1.072094
v 0.373128 0.196850 1.250013
v 0.961008 0.000000 1.152635
v 0.868591 0.000000 1.352364
v 1.071289 0.000000 1.543186
v 0.382603 0.295300 1.563970
v 0.880467 0.000000 1.745884
v 0.392078 0.196850 1.877927
v 0.984761 0.000000 1.939676
v 0.397449 0.000000 2.055896
v -0.207678 0.295300 1.581785
v 3.361513 5.905500 0.587864
v 3.318271 3.403150 1.303144
v 2.649086 3.403150 2.493872
v 1.500879 3.403150 3.233646
v 0.105990 3.403150 3.511951
v -1.303144 3.403150 3.318271
v -2.493873 3.403150 2.649086
v -3.233646 3.403150 1.500879
v 0.837155 2.952750 3.519648
v 0.716060 3.543300 3.523303
v 0.114335 3.543300 3.788475
v 0.116374 2.952750 3.856044
v -0.623380 2.952750 3.563727
v -0.502286 3.543300 3.560072
v 0.116721 2.460650 3.867539
v 0.839803 2.460650 3.519568
v -0.626029 2.460650 3.563807
v 0.766787 1.968500 3.521772
v 0.115807 1.968500 3.837253
v 0.113221 1.476400 3.751542
v 0.556832 1.476400 3.528108
v -0.553012 1.968500 3.561603
v -0.343058 1.476400 3.555267
v 0.111238 4.035450 3.685872
v 0.509104 4.035450 3.529549
v 0.106887 4.626000 3.541687
v -0.295330 4.035450 3.553826
v 0.106887 0.984250 3.541687
v 3.631482 5.569201 0.866197
v 3.330410 7.507801 0.704255
v 2.398035 7.507800 2.437971
v 2.699106 5.569200 2.599862
vn -0.0803 -0.9935 -0.0803
vn -0.2731 -0.9504 -0.1491
vn -0.0909 -0.9580 -0.2722
vn -0.0166 -0.9968 -0.0781
vn -0.1479 -0.9636 -0.2229
vn -0.0045 -0.9649 -0.2625
vn -0.0958 -0.9953 0.0132
vn -0.2654 -0.9637 -0.0298
vn -0.0735 -0.9941 -0.0793
vn -0.0174 -0.9998 0.0122
vn -0.0938 -0.9943 -0.0509
vn -0.0028 -0.9966 -0.0829
vn 0.2636 -0.9504 -0.1653
vn 0.0754 -0.9935 -0.0855
vn 0.0743 -0.9590 -0.2734
vn 0.0801 -0.9966 -0.0171
vn 0.2224 -0.9641 -0.1453
vn 0.2631 -0.9648 -0.0032
vn -0.0115 -0.9952 -0.0968
vn 0.0289 -0.9644 -0.2630
vn 0.0797 -0.9941 -0.0739
vn -0.0131 -0.9998 -0.0170
vn 0.0511 -0.9942 -0.0943
vn 0.0845 -0.9964 -0.0040
vn 0.4266 0.8605 -0.2783
vn 0.6433 0.5900 -0.4879
vn 0.3471 0.6690 -0.6572
vn 0.0804 0.9545 -0.2871
vn 0.4044 0.6952 -0.5943
vn -0.0157 0.7135 -0.7004
vn 0.4349 0.8990 0.0523
vn 0.7230 0.6457 -0.2455
vn 0.3441 0.8725 -0.3471
vn 0.0807 0.9950 0.0586
vn 0.4051 0.8769 -0.2587
vn -0.0061 0.9388 -0.3445
vn -0.2806 0.8593 -0.4276
vn -0.4877 0.6015 -0.6327
vn -0.6521 0.6727 -0.3495
vn -0.2884 0.9538 -0.0841
vn -0.5883 0.7000 -0.4048
vn -0.6978 0.7162 0.0115
vn 0.0486 0.8998 -0.4335
vn -0.2512 0.6486 -0.7184
vn -0.3488 0.8711 -0.3457
vn 0.0541 0.9951 -0.0825
vn -0.2595 0.8756 -0.4074
vn -0.3448 0.9387 0.0024
vn 0.6474 -0.6168 -0.4476
vn 0.3957 -0.9171 -0.0489
vn 0.2861 -0.9274 -0.2410
vn 0.8949 -0.3557 -0.2695
vn 0.5279 -0.7129 -0.4616
vn 0.6643 -0.2599 -0.7009
vn 0.7180 -0.6829 -0.1346
vn 0.3162 -0.9477 0.0422
vn 0.2641 -0.9592 -0.1007
vn 0.9410 -0.3345 0.0513
vn 0.6672 -0.7244 -0.1735
vn 0.8990 -0.2463 -0.3620
vn 0.8458 0.2675 -0.4616
vn 0.5818 0.4833 -0.6541
vn 0.6614 0.6412 -0.3892
vn 0.9505 0.2860 -0.1214
vn 0.6871 0.5756 -0.4433
vn 0.7156 0.6978 -0.0311
vn 0.9091 0.0526 -0.4131
vn 0.6315 0.2302 -0.7404
vn 0.8600 0.3381 -0.3822
vn 0.9966 0.0516 -0.0644
vn 0.8627 0.2470 -0.4412
vn 0.9379 0.3449 -0.0363
vn 0.5688 -0.7147 -0.4070
vn 0.1311 -0.9720 -0.1952
vn 0.2359 -0.7184 -0.6544
vn 0.3731 -0.7267 -0.5768
vn 0.0325 -0.9724 -0.2311
vn -0.0164 -0.7124 -0.7016
vn 0.3610 -0.1970 -0.9115
vn 0.6607 -0.5380 -0.5234
vn 0.2389 -0.6856 -0.6876
vn 0.0166 -0.1893 -0.9818
vn 0.4007 -0.5814 -0.7081
vn -0.0157 -0.6960 -0.7179
vn -0.4476 -0.6168 -0.6474
vn -0.0515 -0.9169 -0.3959
vn -0.2410 -0.9274 -0.2861
vn -0.2695 -0.3557 -0.8949
vn -0.4616 -0.7129 -0.5279
vn -0.7009 -0.2600 -0.6642
vn -0.1346 -0.6829 -0.7180
vn 0.0412 -0.9483 -0.3148
vn -0.1026 -0.9586 -0.2657
vn 0.0520 -0.3365 -0.9402
vn -0.1735 -0.7244 -0.6672
vn -0.3620 -0.2463 -0.8990
vn -0.4616 0.2675 -0.8458
vn -0.6529 0.4979 -0.5707
vn -0.3912 0.6453 -0.6562
vn -0.1254 0.2866 -0.9498
vn -0.4474 0.5785 -0.6820
vn -0.0351 0.7008 -0.7125
vn -0.4131 0.0526 -0.9091
vn -0.7404 0.2299 -0.6317
vn -0.3822 0.3381 -0.8600
vn -0.0668 0.0502 -0.9965
vn -0.4412 0.2470 -0.8627
vn -0.0399 0.3445 -0.9379
vn 0.2393 0.4349 -0.8681
vn 0.4800 0.6461 -0.5935
vn 0.6300 0.3690 -0.6833
vn 0.2891 0.2110 -0.9338
vn 0.5633 0.4264 -0.7077
vn 0.6745 0.1305 -0.7266
vn -0.0960 0.4348 -0.8954
vn 0.2046 0.7253 -0.6574
vn 0.3101 0.3544 -0.8822
vn -0.0509 0.1950 -0.9795
vn 0.2198 0.4127 -0.8839
vn 0.3112 0.1192 -0.9428
vn -0.4070 -0.7147 -0.5688
vn -0.1974 -0.9713 -0.1325
vn -0.6544 -0.7184 -0.2359
vn -0.5768 -0.7267 -0.3731
vn -0.2310 -0.9723 -0.0340
vn -0.7035 -0.7105 0.0167
vn -0.9116 -0.1969 -0.3610
vn -0.5234 -0.5380 -0.6607
vn -0.6876 -0.6856 -0.2389
vn -0.9816 -0.1902 -0.0148
vn -0.7081 -0.5814 -0.4007
vn -0.7198 -0.6940 0.0159
vn -0.8681 0.4349 -0.2393
vn -0.5927 0.6575 -0.4652
vn -0.6834 0.3687 -0.6301
vn -0.9338 0.2110 -0.2891
vn -0.7077 0.4261 -0.5635
vn -0.7266 0.1305 -0.6745
vn -0.8966 0.4330 0.0925
vn -0.6523 0.7300 -0.2039
vn -0.8822 0.3544 -0.3101
vn -0.9800 0.1924 0.0501
vn -0.8839 0.4127 -0.2198
vn -0.9428 0.1192 -0.3112
vn 0.8930 -0.1284 -0.4313
vn 0.9992 0.0082 -0.0404
vn 0.9737 -0.2258 -0.0294
vn 0.6341 -0.1130 -0.7649
vn 0.9225 0.0134 -0.3858
vn 0.8998 -0.2361 -0.3669
vn 0.3295 0.0135 -0.9441
vn 0.7232 -0.1148 -0.6810
vn 0.3119 -0.2386 -0.9197
vn -0.0200 0.0082 -0.9998
vn 0.3777 -0.1310 -0.9166
vn -0.0280 -0.2270 -0.9735
vn -0.4313 -0.1284 -0.8930
vn -0.0404 0.0082 -0.9992
vn -0.7650 -0.1131 -0.6340
vn -0.3858 0.0134 -0.9225
vn -0.3669 -0.2361 -0.8998
vn -0.9441 0.0135 -0.3295
vn -0.6809 -0.1149 -0.7233
vn -0.9197 -0.2385 -0.3119
vn -0.9998 0.0082 0.0200
vn -0.9167 -0.1309 -0.3776
vn -0.9732 -0.2281 0.0294
vn 0.9232 0.1663 -0.3465
vn 0.9929 0.1113 -0.0419
vn 0.9266 0.0229 -0.3753
vn 0.6969 0.1866 -0.6925
vn 0.9148 0.1206 -0.3854
vn 0.6853 0.0233 -0.7279
vn 0.6909 -0.0060 -0.7229
vn 0.3303 -0.0247 -0.9435
vn 0.3187 0.1118 -0.9412
vn 0.3284 0.0103 -0.9445
vn -0.0191 -0.0190 -0.9996
vn -0.0317 0.1068 -0.9938
vn -0.3465 0.1663 -0.9232
vn -0.0419 0.1113 -0.9929
vn -0.3753 0.0229 -0.9266
vn -0.6925 0.1866 -0.6969
vn -0.3854 0.1206 -0.9148
vn -0.7279 0.0233 -0.6853
vn -0.7229 -0.0060 -0.6909
vn -0.9435 -0.0247 -0.3303
vn -0.9412 0.1118 -0.3187
vn -0.9445 0.0103 -0.3284
vn -0.9996 -0.0190 0.0191
vn -0.9940 0.1051 0.0300
vn -0.0000 -1.0000 -0.0000
vn 0.0305 0.6708 0.7410
vn 0.3031 0.9468 0.1086
vn 0.1389 0.8190 0.5567
vn 0.3031 0.9467 0.1086
vn 0.4080 0.8966 0.1723
vn 0.1388 0.8190 0.5567
vn 0.2808 0.9586 0.0483
vn 0.4088 0.8853 0.2216
vn 0.3955 0.9176 0.0397
vn 0.3813 0.9046 -0.1905
vn 0.2826 0.9555 -0.0844
vn 0.3914 0.9168 -0.0796
vn 0.3664 0.9187 -0.1475
vn 0.2960 0.9467 -0.1267
vn 0.1142 0.8215 -0.5586
vn -0.0143 0.6708 -0.7415
vn -0.3780 0.7678 -0.5172
vn 0.1141 0.8216 -0.5586
vn -0.3780 0.7679 -0.5172
vn -0.7068 0.7071 0.0214
vn -0.4555 0.8901 0.0138
vn -0.7068 0.7071 0.0213
vn -0.3462 0.7678 0.5391
vn -0.4555 0.8901 0.0137
vn 0.0090 0.9542 0.2990
vn -0.0090 0.9542 -0.2990
vn 0.1141 0.8215 -0.5586
vn 0.2960 0.9468 -0.1267
vn -0.3780 0.7678 -0.5173
vn 0.2425 0.9701 -0.0073
vn 0.2424 0.9701 -0.0073
vn 0.3012 -0.0000 -0.9536
vn 0.2425 -0.9701 -0.0073
vn 0.9510 -0.0000 -0.3091
vn 0.0713 -0.9975 -0.0021
vn 0.9995 -0.0000 -0.0302
vn 0.9995 -0.0000 -0.0316
vn 0.0713 0.9975 -0.0022
vn 0.9949 -0.0855 -0.0534
vn 0.9294 -0.0782 -0.3607
vn 0.9269 -0.0000 -0.3752
vn 0.9132 -0.0940 -0.3966
vn 0.6945 -0.0942 -0.7133
vn 0.6854 -0.0001 -0.7281
vn 0.3241 0.0479 -0.9448
vn 0.6709 0.0918 -0.7359
vn 0.3186 -0.0281 -0.9475
vn -0.0250 0.0415 -0.9988
vn 0.3084 0.0676 -0.9489
vn -0.0302 -0.0280 -0.9992
vn -0.0534 -0.0855 -0.9949
vn -0.3607 -0.0782 -0.9294
vn -0.3752 -0.0000 -0.9269
vn -0.3966 -0.0940 -0.9132
vn -0.7133 -0.0942 -0.6945
vn -0.7281 -0.0000 -0.6854
vn -0.9448 0.0479 -0.3241
vn -0.7358 0.0918 -0.6710
vn -0.9475 -0.0281 -0.3186
vn -0.9988 0.0415 0.0250
vn -0.9489 0.0676 -0.3084
vn -0.9992 -0.0280 0.0302
vn 0.9970 -0.0649 -0.0415
vn 0.9280 -0.0453 -0.3698
vn 0.6933 0.0861 -0.7155
vn 0.9124 0.0964 -0.3978
vn 0.6854 -0.0000 -0.7281
vn 0.6670 -0.1008 -0.7382
vn 0.3238 -0.0465 -0.9450
vn 0.3188 0.0229 -0.9476
vn 0.3045 -0.0755 -0.9495
vn -0.0253 -0.0403 -0.9989
vn -0.0302 0.0225 -0.9993
vn -0.0415 -0.0649 -0.9970
vn -0.3698 -0.0453 -0.9280
vn -0.7155 0.0861 -0.6933
vn -0.3978 0.0964 -0.9124
vn -0.7382 -0.1008 -0.6670
vn -0.9450 -0.0465 -0.3238
vn -0.9476 0.0229 -0.3188
vn -0.9495 -0.0755 -0.3045
vn -0.9989 -0.0403 0.0253
vn -0.9993 0.0225 0.0302
vn 0.0158 0.2494 -0.9683
vn 0.3483 0.0890 -0.9331
vn 0.3715 0.0317 -0.9279
vn -0.3959 0.0892 -0.9140
vn -0.0742 0.2494 -0.9656
vn -0.4268 0.0317 -0.9038
vn -0.0099 0.1517 -0.9884
vn 0.3914 -0.0118 -0.9201
vn -0.0222 -0.0107 -0.9997
vn -0.0687 -0.2011 -0.9772
vn -0.4126 -0.0322 -0.9103
vn -0.4126 0.0335 -0.9103
vn 0.3469 -0.2402 -0.9066
vn -0.0240 -0.3112 -0.9501
vn 0.3748 -0.1105 -0.9205
vn -0.0333 -0.3112 -0.9498
vn -0.4010 -0.2402 -0.8841
vn -0.4297 -0.1105 -0.8962
vn 0.0302 -0.0000 0.9995
vn -0.0361 0.2144 -0.9761
vn -0.0293 0.2373 -0.9710
vn 0.3177 0.1898 -0.9290
vn -0.3604 0.1695 -0.9173
vn 0.3637 -0.1037 -0.9257
vn 0.0142 -0.2631 -0.9647
vn 0.3734 -0.0260 -0.9273
vn -0.0723 -0.2631 -0.9621
vn -0.4189 -0.1037 -0.9021
vn -0.4286 -0.0261 -0.9031
vn 0.3839 -0.2371 -0.8924
vn -0.0278 -0.3924 -0.9194
vn -0.0290 -0.2803 -0.9595
vn -0.0277 -0.3924 -0.9194
vn -0.4370 -0.2371 -0.8677
vn 0.0055 0.2846 -0.9586
vn 0.3253 0.1666 -0.9308
vn 0.3607 0.0937 -0.9280
vn -0.3847 0.1382 -0.9126
vn -0.0705 0.2814 -0.9570
vn -0.4093 0.0990 -0.9070
vn 0.8376 0.1737 -0.5179
vn -0.0803 -0.9935 0.0803
vn -0.1491 -0.9504 0.2731
vn -0.2701 -0.9584 0.0927
vn 0.0139 -0.9951 0.0980
vn -0.0268 -0.9635 0.2663
vn -0.0793 -0.9941 0.0735
vn -0.0770 -0.9969 0.0186
vn -0.2199 -0.9641 0.1490
vn -0.2620 -0.9651 0.0032
vn 0.0117 -0.9998 0.0163
vn -0.0509 -0.9943 0.0938
vn -0.0813 -0.9967 0.0039
vn 0.0804 -0.9935 0.0808
vn 0.2731 -0.9504 0.1491
vn 0.0907 -0.9590 0.2685
vn 0.2308 -0.9641 0.1316
vn 0.0810 -0.9966 0.0122
vn 0.2628 -0.9648 -0.0127
vn 0.0447 -0.9644 0.2607
vn -0.0056 -0.9952 0.0973
vn 0.0840 -0.9941 0.0690
vn 0.0566 -0.9942 0.0911
vn -0.0120 -0.9998 0.0177
vn 0.0846 -0.9964 -0.0011
vn 0.6716 0.5900 0.4482
vn 0.4426 0.8605 0.2521
vn 0.3861 0.6690 0.6351
vn 0.4395 0.6952 0.5688
vn 0.0976 0.9545 0.2818
vn 0.0266 0.7135 0.7001
vn 0.7365 0.6457 0.2014
vn 0.4309 0.8990 -0.0784
vn 0.3644 0.8725 0.3257
vn 0.4199 0.8769 0.2338
vn 0.0770 0.9950 -0.0633
vn 0.0147 0.9388 0.3443
vn -0.4276 0.8593 0.2806
vn -0.6201 0.5903 0.5168
vn -0.3516 0.6678 0.6561
vn -0.4353 0.8988 -0.0522
vn -0.7137 0.6536 0.2519
vn -0.3457 0.8711 0.3488
vn -0.0880 0.9532 0.2894
vn -0.4089 0.6953 0.5910
vn 0.0075 0.7135 0.7007
vn -0.0877 0.9946 -0.0562
vn -0.4074 0.8756 0.2595
vn -0.0012 0.9387 0.3447
vn 0.4022 -0.7154 0.5713
vn 0.1970 -0.9719 0.1285
vn 0.6519 -0.7216 0.2330
vn 0.5548 -0.7129 0.4289
vn 0.9095 -0.3557 0.2151
vn 0.7053 -0.2599 0.6595
vn 0.5759 -0.7296 0.3689
vn 0.2321 -0.9721 0.0336
vn 0.6995 -0.7144 -0.0166
vn 0.6764 -0.7244 0.1329
vn 0.9362 -0.3345 -0.1079
vn 0.9192 -0.2463 0.3071
vn 0.8670 0.4358 0.2416
vn 0.6156 0.6364 0.4648
vn 0.6918 0.3690 0.6207
vn 0.8963 0.4337 -0.0923
vn 0.6603 0.7209 0.2106
vn 0.8809 0.3560 0.3118
vn 0.9325 0.2146 0.2906
vn 0.7171 0.4224 0.5544
vn 0.7292 0.1305 0.6717
vn 0.9794 0.1959 -0.0486
vn 0.8827 0.4150 0.2206
vn 0.9423 0.1228 0.3114
vn 0.1426 -0.9720 0.1870
vn 0.5923 -0.7147 0.3719
vn 0.2749 -0.7184 0.6390
vn 0.0463 -0.9724 0.2288
vn 0.4072 -0.7267 0.5532
vn 0.0259 -0.7124 0.7013
vn 0.2704 -0.3581 0.8937
vn 0.4585 -0.7121 0.5317
vn 0.6987 -0.2599 0.6665
vn -0.0494 -0.3348 0.9410
vn 0.1777 -0.7217 0.6691
vn 0.3619 -0.2488 0.8984
vn -0.5713 -0.7154 0.4022
vn -0.1299 -0.9713 0.1991
vn -0.2330 -0.7216 0.6519
vn -0.4289 -0.7129 0.5548
vn -0.2151 -0.3557 0.9095
vn -0.6595 -0.2600 0.7053
vn -0.3689 -0.7296 0.5759
vn -0.0352 -0.9721 0.2319
vn 0.0168 -0.7124 0.7016
vn -0.1329 -0.7244 0.6764
vn 0.1086 -0.3365 0.9354
vn -0.3071 -0.2463 0.9192
vn -0.2416 0.4358 0.8670
vn -0.4500 0.6473 0.6153
vn -0.6208 0.3687 0.6919
vn 0.0888 0.4319 0.8975
vn -0.2097 0.7258 0.6552
vn -0.3118 0.3560 0.8809
vn -0.2906 0.2146 0.9325
vn -0.5546 0.4221 0.7171
vn -0.6717 0.1305 0.7292
vn 0.0478 0.1933 0.9800
vn -0.2206 0.4150 0.8827
vn -0.3114 0.1228 0.9423
vn 0.5149 0.6461 0.5634
vn 0.2912 0.4349 0.8521
vn 0.6701 0.3690 0.6441
vn 0.6050 0.4264 0.6725
vn 0.3449 0.2110 0.9146
vn 0.7171 0.1305 0.6846
vn 0.2439 0.7253 0.6438
vn -0.0418 0.4348 0.8996
vn 0.3627 0.3544 0.8619
vn 0.2726 0.4127 0.8691
vn 0.0083 0.1950 0.9808
vn 0.3675 0.1192 0.9223
vn -0.1891 -0.9713 0.1442
vn -0.3719 -0.7147 0.5923
vn -0.6390 -0.7184 0.2749
vn -0.2286 -0.9723 0.0479
vn -0.5532 -0.7267 0.4072
vn -0.7032 -0.7105 0.0258
vn -0.8938 -0.3579 0.2703
vn -0.5317 -0.7121 0.4585
vn -0.6665 -0.2600 0.6987
vn -0.9402 -0.3368 -0.0502
vn -0.6691 -0.7217 0.1777
vn -0.8985 -0.2487 0.3619
vn -0.5636 0.6575 0.5001
vn -0.8521 0.4349 0.2912
vn -0.6441 0.3687 0.6702
vn -0.6725 0.4261 0.6052
vn -0.9146 0.2110 0.3449
vn -0.6846 0.1305 0.7171
vn -0.6389 0.7300 0.2429
vn -0.9006 0.4330 -0.0383
vn -0.8619 0.3544 0.3627
vn -0.8691 0.4127 0.2727
vn -0.9813 0.1924 0.0091
vn -0.9223 0.1192 0.3675
vn 0.9263 -0.2826 0.2491
vn 0.9918 -0.1265 -0.0169
vn 0.9474 -0.0282 0.3187
vn 0.7348 -0.3094 0.6036
vn 0.9339 -0.1369 0.3303
vn 0.7278 -0.0289 0.6852
vn 0.7630 -0.1148 0.6361
vn 0.3858 0.0135 0.9225
vn 0.3668 -0.2386 0.8992
vn 0.4323 -0.1310 0.8922
vn 0.0404 0.0082 0.9992
vn 0.0308 -0.2270 0.9734
vn -0.2491 -0.2826 0.9263
vn 0.0169 -0.1265 0.9918
vn -0.3187 -0.0282 0.9474
vn -0.6036 -0.3095 0.7348
vn -0.3303 -0.1369 0.9339
vn -0.6852 -0.0289 0.7278
vn -0.6361 -0.1149 0.7630
vn -0.9225 0.0135 0.3858
vn -0.8992 -0.2385 0.3668
vn -0.8922 -0.1309 0.4322
vn -0.9992 0.0082 0.0404
vn 0.9438 0.0140 0.3303
vn 0.9996 -0.0190 -0.0191
vn 0.9936 0.1085 -0.0300
vn 0.7252 -0.0040 0.6885
vn 0.9435 -0.0247 0.3303
vn 0.9408 0.1154 0.3188
vn 0.3866 -0.0247 0.9219
vn 0.7332 -0.0060 0.6799
vn 0.3748 0.1118 0.9203
vn 0.0413 -0.0190 0.9990
vn 0.3847 0.0103 0.9230
vn 0.0283 0.1068 0.9939
vn -0.3303 0.0140 0.9438
vn 0.0191 -0.0190 0.9996
vn -0.6885 -0.0040 0.7252
vn -0.3303 -0.0247 0.9435
vn -0.3188 0.1154 0.9408
vn -0.9219 -0.0247 0.3866
vn -0.6799 -0.0060 0.7332
vn -0.9203 0.1118 0.3748
vn -0.9990 -0.0190 0.0413
vn -0.9230 0.0103 0.3847
vn 0.1050 0.8190 -0.5641
vn 0.1050 0.8190 -0.5640
vn 0.3968 0.8966 -0.1966
vn 0.3947 0.8853 -0.2458
vn 0.2774 0.9586 -0.0651
vn 0.3924 0.9176 -0.0634
vn 0.2411 0.9415 0.2353
vn 0.4866 0.8721 -0.0513
vn 0.1788 0.8427 0.5078
vn 0.3746 0.9187 0.1251
vn 0.1476 0.8215 0.5507
vn 0.0304 0.6708 0.7410
vn 0.1476 0.8216 0.5507
vn -0.3461 0.7678 0.5391
vn -0.3461 0.7679 0.5391
vn -0.3781 0.7678 -0.5172
vn -0.3781 0.7678 -0.5173
vn 0.3581 -0.0000 0.9337
vn 0.2424 -0.9701 -0.0073
vn 0.9679 -0.0000 0.2512
vn 0.9996 -0.0000 -0.0287
vn 0.0713 -0.9975 -0.0022
vn 0.0713 0.9975 -0.0021
vn 0.9495 -0.0782 0.3040
vn 0.9963 -0.0855 -0.0067
vn 0.9479 -0.0000 0.3187
vn 0.7362 -0.0942 0.6701
vn 0.9354 -0.0940 0.3408
vn 0.7281 -0.0000 0.6855
vn 0.3966 -0.0940 0.9132
vn 0.7132 -0.0941 0.6946
vn 0.7281 -0.0000 0.6854
vn 0.0534 -0.0855 0.9949
vn 0.3607 -0.0781 0.9294
vn 0.3752 -0.0000 0.9269
vn -0.3040 -0.0782 0.9495
vn 0.0067 -0.0855 0.9963
vn -0.3187 -0.0000 0.9479
vn -0.6701 -0.0942 0.7363
vn -0.3408 -0.0940 0.9354
vn -0.6855 -0.0000 0.7281
vn -0.9132 -0.0940 0.3966
vn -0.6945 -0.0942 0.7133
vn -0.6854 -0.0001 0.7281
vn -0.9949 -0.0855 0.0534
vn -0.9294 -0.0781 0.3607
vn -0.9269 -0.0000 0.3752
vn 0.9486 -0.0453 0.3131
vn 0.9977 -0.0649 -0.0187
vn 0.9476 0.0229 0.3188
vn 0.7382 -0.1008 0.6670
vn 0.9450 -0.0465 0.3238
vn 0.3802 -0.0465 0.9237
vn 0.7103 -0.1008 0.6966
vn 0.3753 0.0229 0.9266
vn 0.0350 -0.0403 0.9986
vn 0.3612 -0.0755 0.9294
vn 0.0302 0.0225 0.9993
vn -0.3131 -0.0453 0.9486
vn 0.0187 -0.0649 0.9977
vn -0.3188 0.0229 0.9476
vn -0.6670 -0.1008 0.7382
vn -0.3238 -0.0465 0.9450
vn -0.9237 -0.0465 0.3802
vn -0.6966 -0.1008 0.7103
vn -0.9266 0.0229 0.3753
vn -0.9986 -0.0403 0.0350
vn -0.9294 -0.0755 0.3612
vn 0.4040 0.0890 0.9104
vn 0.0742 0.2494 0.9656
vn 0.4268 0.0317 0.9038
vn -0.0158 0.2494 0.9683
vn -0.3400 0.0892 0.9362
vn -0.3715 0.0317 0.9279
vn 0.0687 -0.2011 0.9772
vn 0.4127 -0.0321 0.9103
vn 0.4126 0.0335 0.9103
vn 0.0099 0.1517 0.9884
vn -0.3914 -0.0119 0.9201
vn 0.0222 -0.0107 0.9997
vn 0.0333 -0.3112 0.9498
vn 0.4010 -0.2402 0.8841
vn 0.4297 -0.1105 0.8962
vn -0.3469 -0.2402 0.9066
vn 0.0240 -0.3112 0.9501
vn -0.3748 -0.1105 0.9205
vn -0.0302 -0.0000 -0.9995
vn 0.0229 0.2144 0.9765
vn 0.3732 0.1898 0.9081
vn 0.0293 0.2373 0.9710
vn -0.3044 0.1695 0.9373
vn 0.0228 0.2144 0.9765
vn 0.4528 -0.0967 0.8864
vn 0.0475 0.0661 0.9967
vn 0.0320 -0.1131 0.9931
vn 0.0127 0.0661 0.9977
vn -0.3985 -0.0967 0.9121
vn 0.0279 -0.1131 0.9932
vn 0.4370 -0.2371 0.8677
vn 0.0290 -0.2803 0.9595
vn 0.0277 -0.3924 0.9194
vn -0.3839 -0.2371 0.8924
vn 0.0278 -0.3924 0.9194
vn 0.0291 0.0672 0.9973
vn 0.3545 0.2132 0.9104
vn -0.0085 0.2335 0.9723
vn -0.0127 0.2814 0.9595
vn -0.3290 0.1382 0.9342
vn -0.3538 0.0990 0.9301
vn 0.8673 0.1737 0.4665
vn -0.0850 -0.9935 -0.0753
vn -0.2752 -0.9584 -0.0762
vn -0.1653 -0.9504 -0.2636
vn 0.0079 -0.9951 -0.0987
vn -0.0836 -0.9941 -0.0686
vn -0.0428 -0.9635 -0.2642
vn -0.0780 -0.9969 -0.0139
vn -0.2617 -0.9651 0.0126
vn -0.2285 -0.9641 -0.1355
vn 0.0107 -0.9998 -0.0170
vn -0.0813 -0.9967 0.0010
vn -0.0564 -0.9943 -0.0905
vn 0.1491 -0.9504 -0.2731
vn 0.2706 -0.9586 -0.0889
vn 0.0808 -0.9935 -0.0804
vn 0.0997 -0.9950 0.0061
vn 0.0690 -0.9941 -0.0840
vn 0.2619 -0.9642 -0.0416
vn 0.0143 -0.9967 -0.0799
vn -0.0139 -0.9649 -0.2622
vn 0.1329 -0.9646 -0.2278
vn 0.0167 -0.9998 0.0116
vn 0.0002 -0.9966 -0.0830
vn 0.0911 -0.9942 -0.0566
vn 0.2521 0.8605 -0.4427
vn 0.6390 0.6639 -0.3886
vn 0.4780 0.5788 -0.6607
vn -0.0820 0.8979 -0.4325
vn 0.3257 0.8725 -0.3644
vn 0.2023 0.6509 -0.7317
vn 0.2824 0.9539 -0.1015
vn 0.7030 0.7105 -0.0307
vn 0.5713 0.6903 -0.4440
vn -0.0657 0.9945 -0.0821
vn 0.3439 0.9388 -0.0184
vn 0.2337 0.8769 -0.4199
vn -0.4437 0.8593 -0.2543
vn -0.3905 0.6678 -0.6337
vn -0.6501 0.5903 -0.4785
vn -0.4314 0.8988 0.0783
vn -0.3661 0.8711 -0.3273
vn -0.7276 0.6536 -0.2084
vn -0.1053 0.9532 -0.2836
vn -0.0347 0.7135 -0.6998
vn -0.4438 0.6953 -0.5653
vn -0.0842 0.9946 0.0614
vn -0.0220 0.9387 -0.3440
vn -0.4223 0.8756 -0.2345
vn 0.3670 -0.7154 -0.5946
vn 0.6366 -0.7216 -0.2719
vn 0.1889 -0.9719 -0.1402
vn 0.8884 -0.1944 -0.4159
vn 0.6697 -0.6890 -0.2770
vn 0.4805 -0.5348 -0.6951
vn 0.5526 -0.7296 -0.4029
vn 0.6992 -0.7144 -0.0256
vn 0.2297 -0.9721 -0.0475
vn 0.9794 -0.1878 -0.0746
vn 0.7155 -0.6981 -0.0274
vn 0.6794 -0.5862 -0.4414
vn 0.8509 0.4358 -0.2934
vn 0.6531 0.3690 -0.6613
vn 0.5865 0.6364 -0.5011
vn 0.9003 0.4337 0.0381
vn 0.8605 0.3560 -0.3644
vn 0.6464 0.7209 -0.2500
vn 0.9132 0.2146 -0.3463
vn 0.6874 0.1305 -0.7145
vn 0.6824 0.4224 -0.5966
vn 0.9806 0.1959 -0.0106
vn 0.9218 0.1228 -0.3676
vn 0.8678 0.4150 -0.2734
vn 0.4031 -0.6174 -0.6756
vn 0.2233 -0.9274 -0.3001
vn 0.0257 -0.9185 -0.3945
vn 0.0928 -0.6792 -0.7280
vn 0.0864 -0.9596 -0.2677
vn -0.0627 -0.9476 -0.3133
vn 0.2160 -0.3581 -0.9084
vn 0.6573 -0.2599 -0.7074
vn 0.4256 -0.7121 -0.5583
vn -0.1060 -0.3348 -0.9363
vn 0.3070 -0.2488 -0.9186
vn 0.1370 -0.7217 -0.6786
vn -0.5946 -0.7154 -0.3670
vn -0.2719 -0.7216 -0.6366
vn -0.1417 -0.9713 -0.1909
vn -0.4159 -0.1944 -0.8884
vn -0.2770 -0.6890 -0.6697
vn -0.6951 -0.5348 -0.4805
vn -0.4029 -0.7296 -0.5526
vn -0.0255 -0.7124 -0.7013
vn -0.0491 -0.9721 -0.2293
vn -0.0729 -0.1888 -0.9793
vn -0.0272 -0.6959 -0.7176
vn -0.4414 -0.5862 -0.6794
vn -0.2934 0.4358 -0.8509
vn -0.6614 0.3687 -0.6532
vn -0.4862 0.6473 -0.5870
vn 0.0345 0.4319 -0.9013
vn -0.3644 0.3560 -0.8605
vn -0.2488 0.7258 -0.6414
vn -0.3463 0.2146 -0.9132
vn -0.7145 0.1305 -0.6874
vn -0.5969 0.4221 -0.6824
vn -0.0114 0.1933 -0.9811
vn -0.3676 0.1228 -0.9218
vn -0.2734 0.4150 -0.8678
vn 0.4087 0.2654 -0.8732
vn 0.3464 0.6465 -0.6798
vn 0.6397 0.4683 -0.6095
vn 0.3587 0.0487 -0.9322
vn 0.3279 0.3365 -0.8827
vn 0.7102 0.2235 -0.6676
vn 0.0602 0.2846 -0.9568
vn -0.0161 0.7008 -0.7132
vn 0.4010 0.5818 -0.7076
vn 0.0032 0.0493 -0.9988
vn -0.0240 0.3446 -0.9385
vn 0.3861 0.2463 -0.8890
vn -0.6756 -0.6174 -0.4031
vn -0.3001 -0.9274 -0.2233
vn -0.3951 -0.9182 -0.0283
vn -0.7280 -0.6792 -0.0928
vn -0.2694 -0.9590 -0.0883
vn -0.3120 -0.9481 0.0616
vn -0.9084 -0.3579 -0.2159
vn -0.7074 -0.2600 -0.6573
vn -0.5583 -0.7121 -0.4256
vn -0.9355 -0.3368 0.1068
vn -0.9186 -0.2487 -0.3070
vn -0.6786 -0.7217 -0.1370
vn -0.8732 0.2654 -0.4087
vn -0.6748 0.6503 -0.3488
vn -0.5979 0.4830 -0.6397
vn -0.9322 0.0487 -0.3587
vn -0.8827 0.3365 -0.3279
vn -0.6678 0.2232 -0.7101
vn -0.9563 0.2853 -0.0642
vn -0.7106 0.7035 0.0119
vn -0.7030 0.5844 -0.4054
vn -0.9988 0.0479 -0.0056
vn -0.9387 0.3443 0.0204
vn -0.8890 0.2463 -0.3861
vn 0.9096 -0.2826 -0.3045
vn 0.9265 -0.0282 -0.3752
vn 0.9910 -0.1265 -0.0430
vn 0.6971 -0.3094 -0.6468
vn 0.6851 -0.0289 -0.7279
vn 0.9123 -0.1369 -0.3860
vn 0.3302 -0.1367 -0.9339
vn 0.6851 -0.0289 -0.7278
vn 0.6013 -0.3087 -0.7370
vn -0.0169 -0.1265 -0.9918
vn 0.3187 -0.0281 -0.9474
vn 0.2481 -0.2851 -0.9258
vn -0.3045 -0.2826 -0.9096
vn -0.3752 -0.0282 -0.9265
vn -0.0430 -0.1265 -0.9910
vn -0.6468 -0.3095 -0.6970
vn -0.7278 -0.0289 -0.6852
vn -0.3860 -0.1369 -0.9123
vn -0.9339 -0.1367 -0.3302
vn -0.7370 -0.3088 -0.6013
vn -0.9918 -0.1265 0.0169
vn -0.9474 -0.0281 -0.3187
vn -0.9259 -0.2850 -0.2481
vn 0.9221 0.0140 -0.3866
vn 0.9990 -0.0190 -0.0413
vn 0.6824 -0.0040 -0.7310
vn 0.9198 0.1154 -0.3749
vn 0.9219 -0.0247 -0.3866
vn 0.6519 0.1876 -0.7347
vn 0.3295 0.1206 -0.9364
vn 0.2914 0.1623 -0.9427
vn -0.0180 0.1113 -0.9936
vn -0.3866 0.0140 -0.9221
vn -0.0413 -0.0190 -0.9990
vn -0.7310 -0.0040 -0.6824
vn -0.3749 0.1154 -0.9198
vn -0.3866 -0.0247 -0.9219
vn -0.7347 0.1876 -0.6519
vn -0.9364 0.1206 -0.3295
vn -0.9427 0.1623 -0.2914
vn -0.9936 0.1113 0.0180
vn 0.4895 0.8691 -0.0711
vn 0.1704 0.8407 0.5140
vn 0.2940 0.9259 0.2371
vn 0.2265 0.9415 -0.2495
vn 0.1478 0.8427 -0.5177
vn 0.4888 0.8721 0.0219
vn 0.9985 0.0415 -0.0353
vn 0.9992 -0.0280 -0.0302
vn 0.9285 0.0675 -0.3651
vn 0.9235 0.0479 -0.3805
vn 0.6940 0.0918 -0.7141
vn 0.3408 -0.0940 -0.9354
vn 0.6855 -0.0000 -0.7281
vn 0.6700 -0.0941 -0.7363
vn -0.0067 -0.0855 -0.9963
vn 0.3187 -0.0000 -0.9479
vn 0.3040 -0.0781 -0.9495
vn -0.0353 0.0415 -0.9985
vn -0.3651 0.0675 -0.9285
vn -0.3805 0.0479 -0.9235
vn -0.7141 0.0918 -0.6940
vn -0.9354 -0.0940 -0.3408
vn -0.7281 -0.0000 -0.6855
vn -0.7363 -0.0942 -0.6701
vn -0.9963 -0.0855 0.0067
vn -0.9479 -0.0000 -0.3187
vn -0.9495 -0.0781 -0.3040
vn 0.9970 0.0654 -0.0417
vn 0.9995 -0.0000 -0.0301
vn 0.9324 0.0986 -0.3476
vn 0.6966 -0.1008 -0.7103
vn 0.9237 -0.0465 -0.3802
vn 0.6724 0.0861 -0.7351
vn 0.3421 0.0964 -0.9347
vn 0.3064 0.0709 -0.9493
vn -0.0054 0.0877 -0.9961
vn -0.0417 0.0654 -0.9970
vn -0.0301 -0.0000 -0.9995
vn -0.3476 0.0986 -0.9324
vn -0.7103 -0.1008 -0.6966
vn -0.3802 -0.0465 -0.9237
vn -0.7351 0.0861 -0.6724
vn -0.9347 0.0964 -0.3421
vn -0.9493 0.0709 -0.3064
vn -0.9961 0.0877 0.0054
vn -0.0198 -0.0171 -0.9997
vn -0.0494 0.1585 -0.9861
vn 0.3375 0.1246 -0.9331
vn -0.3870 0.1308 -0.9128
vn -0.0182 0.1586 -0.9872
vn -0.0405 -0.0171 -0.9990
vn 0.0097 -0.2011 -0.9795
vn 0.3569 0.0335 -0.9335
vn 0.3570 -0.0321 -0.9335
vn -0.0497 0.1517 -0.9872
vn -0.0381 -0.0107 -0.9992
vn -0.4462 -0.0119 -0.8949
vn 0.4228 -0.2167 -0.8799
vn -0.0167 -0.2720 -0.9622
vn 0.0070 0.0020 -1.0000
vn -0.0673 0.0020 -0.9977
vn -0.0414 -0.2720 -0.9614
vn -0.4751 -0.2167 -0.8528
vn 0.3985 -0.0967 -0.9121
vn -0.0279 -0.1131 -0.9932
vn -0.0127 0.0661 -0.9977
vn -0.0475 0.0661 -0.9967
vn -0.0320 -0.1131 -0.9931
vn -0.4528 -0.0967 -0.8864
vn -0.0311 0.0672 -0.9973
vn -0.0672 0.2335 -0.9700
vn 0.2989 0.2132 -0.9302
vn -0.3364 0.1921 -0.9219
vn -0.0048 0.2337 -0.9723
vn -0.0367 0.0693 -0.9969
vn -0.0753 -0.9935 0.0850
vn -0.0743 -0.9580 0.2771
vn -0.2636 -0.9504 0.1653
vn -0.0119 -0.9968 0.0790
vn 0.0113 -0.9649 0.2623
vn -0.1342 -0.9636 0.2314
vn -0.0964 -0.9953 -0.0074
vn -0.0686 -0.9941 0.0836
vn -0.2631 -0.9637 0.0458
vn -0.0181 -0.9998 -0.0112
vn 0.0022 -0.9966 0.0829
vn -0.0905 -0.9943 0.0564
vn 0.0855 -0.9935 0.0754
vn 0.2755 -0.9586 0.0725
vn 0.1653 -0.9504 0.2636
vn 0.2639 -0.9642 0.0258
vn 0.0739 -0.9941 0.0797
vn 0.0992 -0.9950 -0.0121
vn 0.1464 -0.9646 0.2194
vn 0.0019 -0.9649 0.2625
vn 0.0191 -0.9967 0.0789
vn 0.0943 -0.9942 0.0511
vn 0.0052 -0.9966 0.0828
vn 0.0159 -0.9998 -0.0126
vn 0.5170 0.5788 0.6307
vn 0.6612 0.6639 0.3493
vn 0.2783 0.8605 0.4267
vn 0.2461 0.6509 0.7182
vn 0.3471 0.8725 0.3441
vn -0.0558 0.8979 0.4367
vn 0.5971 0.6903 0.4087
vn 0.7036 0.7105 -0.0117
vn 0.2880 0.9539 0.0843
vn 0.2586 0.8769 0.4051
vn 0.3444 0.9388 -0.0024
vn -0.0607 0.9945 0.0859
vn -0.2543 0.8593 0.4437
vn -0.6299 0.6727 0.3882
vn -0.4487 0.6015 0.6610
vn -0.2829 0.9538 0.1013
vn -0.6973 0.7162 0.0306
vn -0.5628 0.7000 0.4395
vn 0.0747 0.8998 0.4298
vn -0.3273 0.8711 0.3661
vn -0.2074 0.6486 0.7323
vn 0.0590 0.9951 0.0791
vn -0.3444 0.9387 0.0184
vn -0.2344 0.8756 0.4223
vn 0.6732 -0.6168 0.4078
vn 0.3001 -0.9274 0.2233
vn 0.3979 -0.9171 0.0250
vn 0.5215 -0.5348 0.6648
vn 0.6852 -0.6890 0.2361
vn 0.9118 -0.1944 0.3616
vn 0.7248 -0.6829 0.0911
vn 0.2697 -0.9592 0.0846
vn 0.3131 -0.9477 -0.0612
vn 0.7048 -0.5862 0.3996
vn 0.7158 -0.6981 -0.0158
vn 0.9821 -0.1878 0.0154
vn 0.8721 0.2675 0.4098
vn 0.6837 0.6412 0.3486
vn 0.6202 0.4833 0.6179
vn 0.9561 0.2860 0.0639
vn 0.7162 0.6978 -0.0121
vn 0.7126 0.5756 0.4011
vn 0.9324 0.0526 0.3576
vn 0.8815 0.3381 0.3297
vn 0.6750 0.2302 0.7010
vn 0.9987 0.0516 0.0042
vn 0.9384 0.3449 -0.0203
vn 0.8878 0.2470 0.3884
vn 0.0494 -0.9185 0.3923
vn 0.2410 -0.9274 0.2861
vn 0.4431 -0.6174 0.6500
vn -0.0437 -0.9476 0.3165
vn 0.1024 -0.9596 0.2620
vn 0.1365 -0.6792 0.7211
vn 0.4153 -0.1970 0.8881
vn 0.2799 -0.6856 0.6720
vn 0.6911 -0.5380 0.4827
vn 0.0758 -0.1893 0.9790
vn 0.0276 -0.6960 0.7176
vn 0.4427 -0.5814 0.6827
vn -0.4078 -0.6168 0.6732
vn -0.2233 -0.9274 0.3001
vn -0.0275 -0.9169 0.3983
vn -0.6648 -0.5348 0.5215
vn -0.2361 -0.6890 0.6852
vn -0.3616 -0.1944 0.9118
vn -0.0911 -0.6829 0.7248
vn -0.0864 -0.9586 0.2714
vn 0.0601 -0.9483 0.3117
vn -0.3996 -0.5862 0.7048
vn 0.0161 -0.6959 0.7179
vn -0.0137 -0.1888 0.9819
vn -0.4098 0.2675 0.8721
vn -0.3509 0.6453 0.6786
vn -0.6173 0.4979 0.6090
vn -0.0679 0.2866 0.9556
vn 0.0079 0.7008 0.7133
vn -0.4054 0.5785 0.7078
vn -0.3576 0.0526 0.9324
vn -0.3297 0.3381 0.8815
vn -0.7009 0.2299 0.6752
vn -0.0066 0.0502 0.9987
vn 0.0167 0.3445 0.9386
vn -0.3884 0.2470 0.8878
vn 0.6753 0.4683 0.5698
vn 0.3868 0.6465 0.6576
vn 0.4606 0.2654 0.8470
vn 0.7491 0.2235 0.6236
vn 0.3805 0.3365 0.8613
vn 0.4143 0.0487 0.9088
vn 0.4429 0.5818 0.6822
vn 0.0270 0.7008 0.7128
vn 0.1178 0.2846 0.9514
vn 0.4390 0.2463 0.8641
vn 0.0326 0.3446 0.9382
vn 0.0634 0.0493 0.9968
vn -0.3926 -0.9182 0.0521
vn -0.2861 -0.9274 0.2410
vn -0.6500 -0.6174 0.4431
vn -0.3152 -0.9481 -0.0427
vn -0.2636 -0.9590 0.1043
vn -0.7211 -0.6792 0.1365
vn -0.8881 -0.1969 0.4153
vn -0.6720 -0.6856 0.2799
vn -0.4827 -0.5380 0.6911
vn -0.9790 -0.1902 0.0740
vn -0.7194 -0.6940 0.0275
vn -0.6827 -0.5814 0.4427
vn -0.5583 0.4830 0.6746
vn -0.6526 0.6503 0.3889
vn -0.8470 0.2654 0.4606
vn -0.6237 0.2232 0.7491
vn -0.8613 0.3365 0.3805
vn -0.9088 0.0487 0.4143
vn -0.6772 0.5844 0.4470
vn -0.7100 0.7035 0.0309
vn -0.9507 0.2853 0.1217
vn -0.8641 0.2463 0.4390
vn -0.9382 0.3443 0.0363
vn -0.9967 0.0479 0.0658
vn 0.9174 -0.1284 0.3767
vn 0.9998 0.0082 -0.0200
vn 0.6791 -0.1130 0.7253
vn 0.9203 -0.2361 0.3120
vn 0.9441 0.0134 0.3294
vn 0.6447 -0.3087 0.6994
vn 0.3859 -0.1367 0.9123
vn 0.3035 -0.2851 0.9092
vn 0.3752 -0.0281 0.9265
vn 0.0430 -0.1265 0.9910
vn -0.3767 -0.1284 0.9174
vn 0.0200 0.0082 0.9998
vn -0.7254 -0.1131 0.6790
vn -0.3120 -0.2361 0.9203
vn -0.3294 0.0134 0.9441
vn -0.6994 -0.3088 0.6446
vn -0.9123 -0.1367 0.3859
vn -0.9092 -0.2850 0.3035
vn -0.9265 -0.0281 0.3752
vn -0.9910 -0.1265 0.0430
vn 0.9424 0.1663 0.2902
vn 0.9936 0.1113 -0.0180
vn 0.7373 0.1866 0.6492
vn 0.7279 0.0233 0.6853
vn 0.9364 0.1206 0.3295
vn 0.3854 0.1206 0.9148
vn 0.6951 0.1876 0.6940
vn 0.0419 0.1113 0.9929
vn 0.3477 0.1623 0.9234
vn -0.2902 0.1663 0.9424
vn 0.0180 0.1113 0.9936
vn -0.6492 0.1866 0.7373
vn -0.6853 0.0233 0.7279
vn -0.3295 0.1206 0.9364
vn -0.9148 0.1206 0.3854
vn -0.6940 0.1876 0.6951
vn -0.9929 0.1113 0.0419
vn -0.9234 0.1623 0.3477
vn 0.2791 0.9259 -0.2544
vn 0.1390 0.8407 -0.5233
vn 0.4929 0.8691 0.0414
vn 0.3921 0.9046 0.1672
vn 0.3955 0.9168 0.0558
vn 0.2872 0.9555 0.0672
vn 0.9489 0.0675 0.3084
vn 0.9988 0.0415 -0.0250
vn 0.7358 0.0918 0.6710
vn 0.9475 -0.0282 0.3187
vn 0.9448 0.0479 0.3241
vn 0.3805 0.0479 0.9235
vn 0.7140 0.0918 0.6941
vn 0.0353 0.0415 0.9985
vn 0.0302 -0.0280 0.9992
vn 0.3650 0.0676 0.9285
vn -0.3084 0.0675 0.9489
vn 0.0250 0.0415 0.9988
vn -0.6710 0.0918 0.7358
vn -0.3187 -0.0282 0.9475
vn -0.3241 0.0479 0.9448
vn -0.9235 0.0479 0.3805
vn -0.6940 0.0918 0.7141
vn -0.9985 0.0415 0.0353
vn -0.9285 0.0676 0.3650
vn 0.9517 0.0986 0.2908
vn 0.9977 0.0654 -0.0185
vn 0.7351 0.0861 0.6724
vn 0.9347 0.0964 0.3421
vn 0.3978 0.0964 0.9124
vn 0.7155 0.0861 0.6933
vn 0.0547 0.0877 0.9946
vn 0.3631 0.0709 0.9290
vn -0.2908 0.0986 0.9517
vn 0.0185 0.0654 0.9977
vn -0.6724 0.0861 0.7351
vn -0.6855 0.0001 0.7281
vn -0.3421 0.0964 0.9347
vn -0.9124 0.0964 0.3978
vn -0.6854 -0.0000 0.7281
vn -0.6933 0.0861 0.7155
vn -0.9946 0.0877 0.0547
vn -0.9290 0.0709 0.3631
vn 0.3931 0.1246 0.9110
vn 0.0101 0.1585 0.9873
vn 0.0405 -0.0171 0.9990
vn 0.0198 -0.0171 0.9997
vn 0.0414 0.1586 0.9865
vn -0.3313 0.1308 0.9344
vn 0.0497 0.1517 0.9872
vn 0.0381 -0.0107 0.9992
vn 0.4462 -0.0118 0.8949
vn -0.0097 -0.2011 0.9795
vn -0.3569 0.0335 0.9335
vn -0.3570 -0.0322 0.9335
vn 0.0673 0.0020 0.9977
vn 0.0414 -0.2720 0.9614
vn 0.4751 -0.2167 0.8528
vn -0.4228 -0.2167 0.8799
vn 0.0167 -0.2720 0.9622
vn -0.0070 0.0020 1.0000
vn 0.4189 -0.1037 0.9021
vn 0.4287 -0.0260 0.9031
vn 0.0723 -0.2631 0.9621
vn -0.0142 -0.2631 0.9647
vn -0.3734 -0.0261 0.9273
vn -0.3637 -0.1037 0.9257
vn 0.0633 0.2846 0.9566
vn 0.4160 0.0937 0.9045
vn 0.3808 0.1666 0.9095
vn 0.0235 0.0693 0.9973
vn 0.0538 0.2337 0.9708
vn -0.2802 0.1921 0.9405
vn 0.8673 0.1737 0.4664
vt 0.747200 0.537700
vt 0.747200 0.540200
vt 0.647000 0.539700
vt 0.501100 0.537000
vt 0.501100 0.539500
vt 0.999100 0.537000
vt 0.848600 0.539700
vt 0.499700 0.536300
vt 0.253900 0.540200
vt 0.374900 0.537700
vt 0.375000 0.539700
vt 0.374800 0.537000
vt 0.151900 0.539700
vt 0.182500 0.539500
vt 0.253900 0.950500
vt 0.253900 0.842800
vt 0.354800 0.880700
vt 0.501100 0.974000
vt 0.501100 0.899500
vt 0.001000 0.974000
vt 0.151900 0.880700
vt 0.503200 0.999000
vt 0.747200 0.950500
vt 0.747200 0.842800
vt 0.848600 0.880700
vt 0.999100 0.974000
vt 0.999100 0.899500
vt 0.647000 0.880700
vt 0.253900 0.544300
vt 0.131700 0.552000
vt 0.253900 0.552000
vt 0.131500 0.543900
vt 0.001000 0.552000
vt 0.131500 0.765400
vt 0.001000 0.775700
vt 0.001000 0.899500
vt 0.131700 0.627200
vt 0.253900 0.755100
vt 0.001000 0.627200
vt 0.374700 0.543900
vt 0.501100 0.543600
vt 0.374500 0.552000
vt 0.501100 0.552000
vt 0.747200 0.544300
vt 0.627300 0.552000
vt 0.747200 0.552000
vt 0.627100 0.543900
vt 0.627100 0.765400
vt 0.501100 0.775700
vt 0.627300 0.627200
vt 0.747200 0.755100
vt 0.501100 0.627200
vt 0.374700 0.765400
vt 0.374500 0.627200
vt 0.253900 0.627200
vt 0.868900 0.543900
vt 0.999100 0.539500
vt 0.999100 0.543600
vt 0.868700 0.552000
vt 0.999100 0.552000
vt 0.868900 0.765400
vt 0.868700 0.627200
vt 0.747200 0.627200
vt 0.999100 0.775700
vt 0.999100 0.627200
vt 0.001000 0.567200
vt 0.131700 0.567200
vt 0.374500 0.567200
vt 0.501100 0.567200
vt 0.627300 0.567200
vt 0.868700 0.567200
vt 0.999100 0.567200
vt 0.001000 0.608300
vt 0.131700 0.608300
vt 0.253900 0.608300
vt 0.374500 0.608300
vt 0.501100 0.608300
vt 0.627300 0.608300
vt 0.747200 0.608300
vt 0.868700 0.608300
vt 0.999100 0.608300
vt 0.555400 0.241100
vt 0.629500 0.382500
vt 0.770900 0.456600
vt 0.646300 0.096200
vt 0.774300 0.022200
vt 0.695100 0.145000
vt 0.811400 0.092900
vt 0.781000 0.231000
vt 0.898900 0.113100
vt 0.919100 0.200700
vt 0.989900 0.237700
vt 0.867000 0.317000
vt 0.915800 0.365700
vt 0.680000 0.332000
vt 0.991400 0.141100
vt 0.895500 0.373600
vt 0.895500 0.141100
vt 0.528600 0.141100
vt 0.001000 0.588300
vt 0.131700 0.588300
vt 0.253900 0.567200
vt 0.253900 0.588300
vt 0.374500 0.588300
vt 0.501100 0.588300
vt 0.627300 0.588300
vt 0.747200 0.567200
vt 0.747200 0.588300
vt 0.868700 0.588300
vt 0.999100 0.588300
vt 0.728100 0.813200
vt 0.593800 0.774000
vt 0.641400 0.726500
vt 0.680900 0.686900
vt 0.770900 0.776800
vt 0.760100 0.607700
vt 0.802100 0.728800
vt 0.720500 0.647300
vt 0.594000 0.853400
vt 0.501400 0.866400
vt 0.554200 0.813600
vt 0.799700 0.568100
vt 0.818000 0.665600
vt 0.661900 0.842100
vt 0.043500 0.043500
vt 0.456500 0.456500
vt 0.043500 0.456500
vt 0.001000 0.543600
vt 0.456500 0.043500
s 0
usemtl Gunter
f 1/1/1 3/2/2 4/3/3
f 5/4/4 4/3/5 6/5/6
f 7/6/7 2/7/8 1/1/9
f 9/8/10 1/1/11 5/4/12
f 10/9/13 12/10/14 13/11/15
f 15/12/16 11/13/17 14/14/18
f 5/4/19 13/11/20 12/10/21
f 9/8/22 12/10/23 15/12/24
f 17/15/25 19/16/26 16/17/27
f 21/18/28 16/17/29 20/19/30
f 22/20/31 18/21/32 17/15/33
f 24/22/34 17/15/35 21/18/36
f 25/23/37 27/24/38 28/25/39
f 29/26/40 28/25/41 30/27/42
f 21/18/43 26/28/44 25/23/45
f 24/22/46 25/23/47 29/26/48
f 31/29/49 11/13/50 10/9/51
f 34/30/52 31/29/53 33/31/54
f 32/32/55 14/14/56 11/13/57
f 36/33/58 32/32/59 34/30/60
f 37/34/61 19/16/62 18/21/63
f 39/35/64 18/21/65 23/36/66
f 40/37/67 38/38/68 37/34/69
f 42/39/70 37/34/71 39/35/72
f 31/29/73 13/11/74 43/40/75
f 43/40/76 6/5/77 44/41/78
f 45/42/79 31/29/80 43/40/81
f 46/43/82 43/40/83 44/41/84
f 47/44/85 4/3/86 3/2/87
f 50/45/88 47/44/89 49/46/90
f 48/47/91 6/5/92 4/3/93
f 46/43/94 48/47/95 50/45/96
f 51/48/97 27/24/98 26/28/99
f 53/49/100 26/28/101 20/19/102
f 54/50/103 52/51/104 51/48/105
f 56/52/106 51/48/107 53/49/108
f 57/53/109 19/16/110 38/38/111
f 58/54/112 38/38/113 41/55/114
f 53/49/115 16/17/116 57/53/117
f 56/52/118 57/53/119 58/54/120
f 47/44/121 2/7/122 59/56/123
f 59/56/124 8/57/125 60/58/126
f 61/59/127 47/44/128 59/56/129
f 62/60/130 59/56/131 60/58/132
f 63/61/133 27/24/134 52/51/135
f 64/62/136 52/51/137 55/63/138
f 65/64/139 28/25/140 63/61/141
f 66/65/142 63/61/143 64/62/144
f 34/30/145 68/66/146 36/33/147
f 33/31/148 67/67/149 34/30/150
f 70/68/151 33/31/152 45/42/153
f 71/69/154 45/42/155 46/43/156
f 50/45/157 71/69/158 46/43/156
f 49/46/159 72/70/160 50/45/161
f 74/71/162 49/46/163 61/59/164
f 75/72/165 61/59/166 62/60/167
f 40/37/168 76/73/169 77/74/170
f 41/55/171 77/74/172 78/75/173
f 41/55/174 79/76/175 58/54/176
f 58/54/177 80/77/178 56/52/179
f 54/50/180 80/77/181 81/78/182
f 55/63/183 81/78/184 82/79/185
f 55/63/186 83/80/187 64/62/188
f 64/62/189 84/81/190 66/65/191
f 85/82/192 86/83/192 87/84/192
f 88/85/193 89/86/194 90/87/195
f 89/86/196 91/88/197 90/87/198
f 93/89/199 91/88/200 92/90/201
f 94/91/202 93/89/203 92/90/204
f 94/91/205 96/92/206 95/93/207
f 97/94/208 87/84/209 95/93/210
f 87/84/211 86/83/212 98/95/213
f 86/83/214 85/82/215 98/95/216
f 85/82/215 88/85/193 90/87/195
f 93/89/217 98/95/217 90/87/217
f 95/93/218 98/95/218 93/89/218
f 95/93/219 96/92/220 97/94/208
f 87/84/221 98/95/213 95/93/219
f 90/87/198 98/95/216 85/82/215
f 94/91/192 92/90/192 91/88/192
f 87/84/192 88/85/192 85/82/192
f 97/94/192 96/92/192 94/91/192
f 88/85/192 94/91/192 91/88/192
f 91/88/192 89/86/192 88/85/192
f 99/96/222 100/97/223 101/98/224
f 102/96/225 101/98/224 103/97/225
f 101/98/226 100/97/227 104/99/228
f 101/98/226 104/99/229 103/97/230
f 106/100/231 67/67/232 105/101/233
f 105/101/234 69/102/235 107/103/236
f 108/104/237 69/102/238 70/68/239
f 109/105/240 70/68/241 71/69/242
f 109/105/243 72/70/244 110/106/245
f 110/106/246 73/107/247 111/108/248
f 112/109/249 73/107/250 74/71/251
f 113/110/252 74/71/253 75/72/254
f 76/73/255 105/101/256 77/74/170
f 78/75/257 105/101/258 107/103/259
f 78/75/260 108/104/261 79/76/262
f 79/76/263 109/105/264 80/77/265
f 80/77/266 110/106/267 81/78/182
f 82/79/268 110/106/269 111/108/248
f 82/79/270 112/109/271 83/80/272
f 83/80/273 113/110/274 84/81/275
f 115/111/276 117/112/277 114/113/278
f 119/112/279 115/111/280 118/113/281
f 115/111/282 120/114/283 121/115/284
f 115/111/285 122/114/286 118/113/287
f 124/116/288 126/117/289 123/118/290
f 126/117/291 128/116/292 127/118/293
f 120/114/294 118/113/294 122/114/294
f 114/113/294 119/112/294 118/113/294
f 128/116/294 123/118/294 127/118/294
f 129/119/295 130/120/296 131/121/297
f 132/121/298 130/120/296 129/119/295
f 123/118/299 121/115/300 120/114/301
f 121/115/302 127/118/303 122/114/304
f 124/116/305 133/122/306 125/123/307
f 125/123/307 133/122/308 128/116/309
f 123/118/294 122/114/294 127/118/294
f 131/121/294 130/120/294 132/121/294
f 128/116/294 133/122/294 124/116/294
f 116/124/310 131/121/311 117/112/312
f 132/121/313 116/124/314 119/112/315
f 117/112/294 132/121/294 119/112/294
f 134/125/316 136/126/316 137/127/316
f 138/1/317 140/2/318 141/7/319
f 142/4/320 139/3/321 138/1/322
f 7/6/323 141/7/324 8/57/325
f 9/8/326 138/1/327 7/6/328
f 144/10/329 146/9/330 147/11/331
f 145/13/332 15/12/333 14/14/334
f 147/11/335 142/4/336 144/10/337
f 144/10/338 9/8/339 15/12/340
f 149/16/341 151/15/342 148/17/343
f 148/17/344 153/18/345 152/19/346
f 150/21/347 22/20/348 151/15/349
f 151/15/350 24/22/351 153/18/352
f 154/23/353 156/24/354 157/28/355
f 29/26/356 155/25/357 154/23/358
f 153/18/359 157/28/360 152/19/361
f 24/22/362 154/23/363 153/18/364
f 159/29/365 145/13/366 158/32/367
f 159/29/368 161/30/369 160/31/370
f 158/32/371 14/14/372 35/128/373
f 158/32/374 36/33/375 161/30/376
f 162/34/377 149/16/378 163/38/379
f 39/35/380 150/21/381 162/34/382
f 164/37/383 163/38/384 165/55/385
f 42/39/386 162/34/387 164/37/388
f 147/11/389 159/29/390 166/40/391
f 143/5/392 166/40/393 167/41/394
f 168/42/395 159/29/396 160/31/397
f 169/43/398 166/40/399 168/42/400
f 171/44/401 139/3/402 170/47/403
f 171/44/404 173/45/405 172/46/406
f 170/47/407 143/5/408 167/41/409
f 170/47/410 169/43/411 173/45/412
f 174/48/413 156/24/414 175/51/415
f 176/49/416 157/28/417 174/48/418
f 177/50/419 175/51/420 178/63/421
f 179/52/422 174/48/423 177/50/424
f 149/16/425 180/53/426 163/38/427
f 163/38/428 181/54/429 165/55/430
f 148/17/431 176/49/432 180/53/433
f 180/53/434 179/52/435 181/54/436
f 141/7/437 171/44/438 182/56/439
f 8/57/440 182/56/441 60/58/442
f 183/59/443 171/44/444 172/46/445
f 62/60/446 182/56/447 183/59/448
f 156/24/449 184/61/450 175/51/451
f 175/51/452 185/62/453 178/63/454
f 155/25/455 65/64/456 184/61/457
f 184/61/458 66/65/459 185/62/460
f 161/30/461 68/66/462 186/67/463
f 160/31/464 186/67/465 187/102/466
f 160/31/467 188/68/468 168/42/469
f 168/42/470 189/69/471 169/43/472
f 173/45/473 189/69/474 190/70/475
f 172/46/476 190/70/477 191/107/478
f 172/46/479 192/71/480 183/59/481
f 183/59/482 75/72/483 62/60/167
f 164/37/484 76/73/485 42/39/486
f 165/55/487 193/74/488 164/37/489
f 195/76/490 165/55/491 181/54/492
f 196/77/493 181/54/494 179/52/495
f 177/50/496 196/77/497 179/52/495
f 178/63/498 197/78/499 177/50/500
f 199/80/501 178/63/502 185/62/503
f 84/81/504 185/62/505 66/65/191
f 200/82/192 201/84/192 202/83/192
f 203/85/208 204/87/506 205/86/220
f 205/86/206 204/87/507 206/88/508
f 206/88/509 208/89/510 207/90/511
f 209/91/512 208/89/513 210/93/514
f 209/91/515 210/93/516 211/92/196
f 212/94/517 210/93/518 201/84/519
f 201/84/520 213/95/216 202/83/214
f 202/83/212 213/95/213 200/82/521
f 200/82/522 204/87/506 203/85/208
f 208/89/218 204/87/218 213/95/218
f 210/93/217 208/89/217 213/95/217
f 210/93/516 212/94/193 211/92/194
f 201/84/519 210/93/516 213/95/216
f 204/87/506 200/82/521 213/95/213
f 209/91/192 206/88/192 207/90/192
f 203/85/192 201/84/192 200/82/192
f 212/94/192 209/91/192 211/92/192
f 209/91/192 203/85/192 206/88/192
f 206/88/192 203/85/192 205/86/192
f 99/96/222 214/98/523 100/97/223
f 102/96/225 103/97/524 214/98/523
f 214/98/525 104/99/526 100/97/527
f 214/98/525 103/97/528 104/99/228
f 186/67/529 106/100/530 215/101/531
f 187/102/532 215/101/533 216/103/534
f 217/104/535 187/102/536 216/103/537
f 218/105/538 188/68/539 217/104/540
f 190/70/541 218/105/542 219/106/543
f 191/107/544 219/106/545 220/108/546
f 221/109/547 191/107/548 220/108/549
f 113/110/550 192/71/551 221/109/552
f 215/101/553 76/73/554 193/74/555
f 194/75/556 215/101/557 193/74/555
f 217/104/558 194/75/559 195/76/560
f 218/105/561 195/76/562 196/77/563
f 219/106/564 196/77/565 197/78/566
f 198/79/567 219/106/568 197/78/566
f 221/109/569 198/79/570 199/80/571
f 113/110/572 199/80/573 84/81/275
f 223/112/574 225/111/575 222/113/576
f 225/111/577 227/112/578 226/113/579
f 225/111/580 229/114/581 222/113/582
f 225/111/583 230/114/584 228/115/585
f 232/117/586 234/116/587 231/118/588
f 236/116/589 232/117/590 235/118/591
f 226/113/592 229/114/592 230/114/592
f 227/112/592 222/113/592 226/113/592
f 231/118/592 236/116/592 235/118/592
f 237/119/593 238/121/594 239/120/595
f 240/121/596 237/119/597 239/120/595
f 231/118/598 228/115/599 232/117/600
f 228/115/601 235/118/602 232/117/603
f 234/116/604 233/123/605 241/122/606
f 233/123/605 236/116/607 241/122/608
f 230/114/592 231/118/592 235/118/592
f 238/121/592 240/121/592 239/120/592
f 236/116/592 234/116/592 241/122/592
f 224/124/609 238/121/610 237/119/611
f 224/124/612 240/121/613 227/112/614
f 227/112/592 238/121/592 223/112/592
f 242/125/615 244/126/615 245/129/615
f 1/1/616 2/7/617 3/2/618
f 5/4/619 1/1/620 4/3/621
f 7/6/622 8/57/623 2/7/624
f 9/8/625 7/6/626 1/1/627
f 10/9/628 11/13/629 12/10/630
f 15/12/631 12/10/632 11/13/633
f 5/4/634 6/5/635 13/11/636
f 9/8/637 5/4/638 12/10/639
f 17/15/640 18/21/641 19/16/642
f 21/18/643 17/15/644 16/17/645
f 22/20/646 23/36/647 18/21/648
f 24/22/649 22/20/650 17/15/651
f 25/23/652 26/28/653 27/24/654
f 29/26/655 25/23/656 28/25/657
f 21/18/658 20/19/659 26/28/660
f 24/22/661 21/18/662 25/23/663
f 31/29/664 32/32/665 11/13/666
f 34/30/667 32/32/668 31/29/669
f 32/32/670 35/128/671 14/14/672
f 36/33/673 35/128/674 32/32/675
f 37/34/676 38/38/677 19/16/678
f 39/35/679 37/34/680 18/21/681
f 40/37/682 41/55/683 38/38/684
f 42/39/685 40/37/686 37/34/687
f 31/29/688 10/9/689 13/11/690
f 43/40/691 13/11/692 6/5/693
f 45/42/694 33/31/695 31/29/696
f 46/43/697 45/42/698 43/40/699
f 47/44/700 48/47/701 4/3/702
f 50/45/703 48/47/704 47/44/705
f 48/47/706 44/41/707 6/5/708
f 46/43/709 44/41/710 48/47/711
f 51/48/712 52/51/713 27/24/714
f 53/49/715 51/48/716 26/28/717
f 54/50/718 55/63/719 52/51/720
f 56/52/721 54/50/722 51/48/723
f 57/53/724 16/17/725 19/16/726
f 58/54/727 57/53/728 38/38/729
f 53/49/730 20/19/731 16/17/732
f 56/52/733 53/49/734 57/53/735
f 47/44/736 3/2/737 2/7/738
f 59/56/739 2/7/740 8/57/741
f 61/59/742 49/46/743 47/44/744
f 62/60/745 61/59/746 59/56/747
f 63/61/748 28/25/749 27/24/750
f 64/62/751 63/61/752 52/51/753
f 65/64/754 30/27/755 28/25/756
f 66/65/757 65/64/758 63/61/759
f 34/30/760 67/67/761 68/66/762
f 33/31/763 69/102/764 67/67/765
f 70/68/766 69/102/767 33/31/768
f 71/69/769 70/68/770 45/42/771
f 50/45/772 72/70/773 71/69/774
f 49/46/775 73/107/776 72/70/777
f 74/71/778 73/107/776 49/46/779
f 75/72/780 74/71/781 61/59/782
f 40/37/783 42/39/486 76/73/784
f 41/55/785 40/37/786 77/74/787
f 41/55/788 78/75/173 79/76/789
f 58/54/790 79/76/262 80/77/791
f 54/50/792 56/52/179 80/77/793
f 55/63/794 54/50/795 81/78/796
f 55/63/797 82/79/185 83/80/798
f 64/62/799 83/80/272 84/81/800
f 93/89/801 90/87/802 91/88/803
f 94/91/804 95/93/805 93/89/806
f 87/84/192 97/94/192 88/85/192
f 88/85/192 97/94/192 94/91/192
f 106/100/807 68/66/808 67/67/809
f 105/101/810 67/67/761 69/102/811
f 108/104/812 107/103/813 69/102/814
f 109/105/815 108/104/816 70/68/817
f 109/105/818 71/69/242 72/70/819
f 110/106/820 72/70/773 73/107/821
f 112/109/822 111/108/823 73/107/824
f 113/110/825 112/109/826 74/71/827
f 76/73/828 106/100/829 105/101/830
f 78/75/831 77/74/170 105/101/832
f 78/75/833 107/103/813 108/104/834
f 79/76/835 108/104/816 109/105/836
f 80/77/837 109/105/838 110/106/839
f 82/79/840 81/78/182 110/106/841
f 82/79/842 111/108/823 112/109/843
f 83/80/844 112/109/826 113/110/845
f 115/111/846 116/124/847 117/112/848
f 119/112/849 116/124/850 115/111/851
f 115/111/852 114/113/853 120/114/854
f 115/111/855 121/115/856 122/114/857
f 124/116/858 125/123/859 126/117/860
f 126/117/861 125/123/862 128/116/863
f 120/114/294 114/113/294 118/113/294
f 114/113/294 117/112/294 119/112/294
f 128/116/294 124/116/294 123/118/294
f 123/118/864 126/117/865 121/115/866
f 121/115/867 126/117/868 127/118/869
f 123/118/294 120/114/294 122/114/294
f 116/124/870 129/119/871 131/121/872
f 132/121/873 129/119/874 116/124/875
f 117/112/294 131/121/294 132/121/294
f 134/125/316 135/129/316 136/126/316
f 138/1/876 139/3/877 140/2/878
f 142/4/879 143/5/880 139/3/881
f 7/6/882 138/1/883 141/7/884
f 9/8/885 142/4/886 138/1/887
f 144/10/888 145/13/889 146/9/890
f 145/13/891 144/10/892 15/12/893
f 147/11/894 143/5/895 142/4/896
f 144/10/897 142/4/898 9/8/899
f 149/16/900 150/21/901 151/15/902
f 148/17/903 151/15/904 153/18/905
f 150/21/906 23/36/907 22/20/908
f 151/15/909 22/20/910 24/22/911
f 154/23/912 155/25/913 156/24/914
f 29/26/915 30/27/916 155/25/917
f 153/18/918 154/23/919 157/28/920
f 24/22/921 29/26/922 154/23/923
f 159/29/924 146/9/925 145/13/926
f 159/29/927 158/32/928 161/30/929
f 158/32/930 145/13/931 14/14/932
f 158/32/933 35/128/934 36/33/935
f 162/34/936 150/21/937 149/16/938
f 39/35/939 23/36/940 150/21/941
f 164/37/942 162/34/943 163/38/944
f 42/39/945 39/35/946 162/34/947
f 147/11/948 146/9/949 159/29/950
f 143/5/951 147/11/952 166/40/953
f 168/42/954 166/40/955 159/29/956
f 169/43/957 167/41/958 166/40/959
f 171/44/960 140/2/961 139/3/962
f 171/44/963 170/47/964 173/45/965
f 170/47/966 139/3/967 143/5/968
f 170/47/969 167/41/970 169/43/971
f 174/48/972 157/28/973 156/24/974
f 176/49/975 152/19/976 157/28/977
f 177/50/978 174/48/979 175/51/980
f 179/52/981 176/49/982 174/48/983
f 149/16/984 148/17/985 180/53/986
f 163/38/987 180/53/988 181/54/989
f 148/17/990 152/19/991 176/49/992
f 180/53/993 176/49/994 179/52/995
f 141/7/996 140/2/997 171/44/998
f 8/57/999 141/7/1000 182/56/1001
f 183/59/1002 182/56/1003 171/44/1004
f 62/60/1005 60/58/1006 182/56/1007
f 156/24/1008 155/25/1009 184/61/1010
f 175/51/1011 184/61/1012 185/62/1013
f 155/25/1014 30/27/1015 65/64/1016
f 184/61/1017 65/64/1018 66/65/1019
f 161/30/1020 36/33/147 68/66/1021
f 160/31/1022 161/30/1023 186/67/1024
f 160/31/1025 187/102/466 188/68/1026
f 168/42/1027 188/68/1028 189/69/1029
f 173/45/1030 169/43/472 189/69/1031
f 172/46/1032 173/45/1033 190/70/1034
f 172/46/1035 191/107/478 192/71/1036
f 183/59/1037 192/71/1038 75/72/1039
f 164/37/1040 193/74/555 76/73/1041
f 165/55/1042 194/75/1043 193/74/1044
f 195/76/1045 194/75/1043 165/55/1046
f 196/77/1047 195/76/560 181/54/1048
f 177/50/1049 197/78/566 196/77/1050
f 178/63/1051 198/79/1052 197/78/1053
f 199/80/1054 198/79/1052 178/63/1055
f 84/81/1056 199/80/571 185/62/1057
f 206/88/1058 204/87/1059 208/89/1060
f 209/91/1061 207/90/1062 208/89/1063
f 203/85/192 212/94/192 201/84/192
f 209/91/192 212/94/192 203/85/192
f 186/67/1064 68/66/808 106/100/1065
f 187/102/1066 186/67/1067 215/101/1068
f 217/104/1069 188/68/1028 187/102/1070
f 218/105/1071 189/69/1072 188/68/1073
f 190/70/1074 189/69/1072 218/105/1075
f 191/107/1076 190/70/1077 219/106/1078
f 221/109/1079 192/71/1038 191/107/1080
f 113/110/1081 75/72/254 192/71/1082
f 215/101/1083 106/100/228 76/73/1084
f 194/75/1085 216/103/534 215/101/1086
f 217/104/1087 216/103/537 194/75/1088
f 218/105/1089 217/104/540 195/76/1090
f 219/106/1091 218/105/294 196/77/1092
f 198/79/1093 220/108/1094 219/106/1095
f 221/109/1096 220/108/1097 198/79/1098
f 113/110/1099 221/109/552 199/80/1100
f 223/112/1101 224/124/1102 225/111/1103
f 225/111/1104 224/124/1105 227/112/1106
f 225/111/1107 228/115/1108 229/114/1109
f 225/111/1110 226/113/1111 230/114/1112
f 232/117/1113 233/123/1114 234/116/1115
f 236/116/1116 233/123/1117 232/117/1118
f 226/113/592 222/113/592 229/114/592
f 227/112/592 223/112/592 222/113/592
f 231/118/592 234/116/592 236/116/592
f 231/118/1119 229/114/1120 228/115/1121
f 228/115/1122 230/114/1123 235/118/1124
f 230/114/592 229/114/592 231/118/592
f 224/124/1125 223/112/1126 238/121/1127
f 224/124/1128 237/119/1129 240/121/1130
f 227/112/592 240/121/592 238/121/592
f 242/125/1131 243/127/1131 244/126/1131
