# Blender 3.6.22
# www.blender.org
mtllib JAULAFINAL_CONLETRERO.mtl
o Object_2
v 0.000000 2.000000 -0.000000
v 0.000000 2.000000 -3.000001
v 0.000000 0.000000 0.000000
v 0.000000 -0.000000 -3.000000
v 4.000000 2.000000 -0.000000
v 4.000000 0.000000 0.000000
v 4.000000 -0.000000 -3.000000
v 4.000000 -0.000000 -3.000000
v 4.000000 2.000000 -3.000001
v 4.000000 2.000000 -3.000001
v 0.000000 2.000000 -0.000000
v 0.000000 2.000000 -0.000000
v 0.000000 0.000000 0.000000
v 0.000000 0.000000 0.000000
v 0.000000 2.000000 -3.000001
v 0.000000 2.000000 -3.000001
v 0.000000 -0.000000 -3.000000
v 0.000000 -0.000000 -3.000000
v 4.000000 0.000000 0.000000
v 4.000000 2.000000 -0.000000
vn -1.0000 -0.0000 -0.0000
vn -0.0000 -0.0000 1.0000
vn -0.0000 -0.0000 -1.0000
vn -0.0000 1.0000 -0.0000
vn -0.0000 -1.0000 -0.0000
vt 0.928630 0.880919
vt 0.217051 0.900270
vt 0.921172 0.060299
vt 0.209594 0.079650
vt 0.482124 0.728131
vt 0.005451 0.743347
vt 0.479619 0.003967
vt 0.002947 0.019184
vt 0.869018 0.718216
vt 0.374006 0.723621
vt 0.870333 -0.000697
vt 0.375321 0.004708
vt 0.688124 0.892302
vt 0.245329 0.897745
vt 0.683159 0.103228
vt 0.240364 0.108671
vt 0.627657 0.006186
vt 0.982081 -0.004730
vt 0.635801 0.839849
vt 0.990224 0.828933
s 0
usemtl Material.001
f 1/1/1 2/2/1 3/3/1
f 3/3/1 2/2/1 4/4/1
f 5/5/2 11/6/2 6/7/2
f 6/7/2 11/6/2 13/8/2
f 15/9/3 9/10/3 17/11/3
f 17/11/3 9/10/3 7/12/3
f 20/13/4 10/14/4 12/15/4
f 12/15/4 10/14/4 16/16/4
f 8/17/5 19/18/5 18/19/5
f 18/19/5 19/18/5 14/20/5
o Cube
v 3.845762 2.058581 1.191542
v 3.845762 2.941479 1.274079
v 3.845762 2.038291 -4.202427
v 3.845762 2.921189 -4.119890
v 3.701278 2.058581 1.191542
v 3.701278 2.941479 1.274079
v 3.701278 2.038291 -4.202427
v 3.701278 2.921189 -4.119890
vn -0.0000 -1.0000 0.0038
vn -0.0000 0.0931 -0.9957
vn -1.0000 -0.0000 -0.0000
vn -0.0000 1.0000 -0.0038
vn 1.0000 -0.0000 -0.0000
vn -0.0000 -0.0931 0.9957
vt 0.038888 0.004550
vt 0.959808 0.102125
vt 0.047556 0.102125
vt 0.069939 0.671183
vt 0.959808 0.943124
vt 0.007837 0.671183
vt 0.023363 0.337866
vt 0.023363 0.671183
vt 0.047556 0.943124
vt 0.054414 1.004500
vt 0.038888 1.004500
vt 0.054413 0.004550
vt 0.069939 0.337866
vt 0.007837 0.337866
s 0
usemtl Material.002
f 25/21/6 23/22/6 21/23/6
f 23/22/7 28/24/7 24/25/7
f 28/26/8 25/27/8 26/28/8
f 22/29/9 28/30/9 26/31/9
f 21/23/10 24/25/10 22/29/10
f 25/27/11 22/29/11 26/28/11
f 25/21/6 27/32/6 23/22/6
f 23/22/7 27/33/7 28/24/7
f 28/26/8 27/34/8 25/27/8
f 22/29/9 24/25/9 28/30/9
f 21/23/10 23/22/10 24/25/10
f 25/27/11 21/23/11 22/29/11
