# Blender 3.6.21
# www.blender.org
mtllib JAULABATEO_FINAL.mtl
o Object_2
v 0.000000 2.000000 -0.000000
v 0.000000 2.000000 -3.000001
v 0.000000 0.000000 0.000000
v 0.000000 -0.000000 -3.000000
v 4.000000 2.000000 -0.000000
v 4.000000 0.000000 0.000000
v 4.000000 -0.000000 -3.000000
v 4.000000 -0.000000 -3.000000
v 4.000000 2.000000 -3.000001
v 4.000000 2.000000 -3.000001
v 0.000000 2.000000 -0.000000
v 0.000000 2.000000 -0.000000
v 0.000000 0.000000 0.000000
v 0.000000 0.000000 0.000000
v 0.000000 2.000000 -3.000001
v 0.000000 2.000000 -3.000001
v 0.000000 -0.000000 -3.000000
v 0.000000 -0.000000 -3.000000
v 4.000000 0.000000 0.000000
v 4.000000 2.000000 -0.000000
vn -1.0000 -0.0000 -0.0000
vn -0.0000 -0.0000 1.0000
vn -0.0000 -0.0000 -1.0000
vn -0.0000 1.0000 -0.0000
vn -0.0000 -1.0000 -0.0000
vt 0.928630 0.880919
vt 0.217051 0.900270
vt 0.921172 0.060299
vt 0.209594 0.079650
vt 0.482124 0.728131
vt 0.005451 0.743347
vt 0.479619 0.003967
vt 0.002947 0.019184
vt 0.869018 0.718216
vt 0.374006 0.723621
vt 0.870333 -0.000697
vt 0.375321 0.004708
vt 0.688124 0.892302
vt 0.245329 0.897745
vt 0.683159 0.103228
vt 0.240364 0.108671
vt 0.627657 0.006186
vt 0.982081 -0.004730
vt 0.635801 0.839849
vt 0.990224 0.828933
s 0
usemtl Material.001
f 1/1/1 2/2/1 3/3/1
f 3/3/1 2/2/1 4/4/1
f 5/5/2 11/6/2 6/7/2
f 6/7/2 11/6/2 13/8/2
f 15/9/3 9/10/3 17/11/3
f 17/11/3 9/10/3 7/12/3
f 20/13/4 10/14/4 12/15/4
f 12/15/4 10/14/4 16/16/4
f 8/17/5 19/18/5 18/19/5
f 18/19/5 19/18/5 14/20/5
