# Blender 3.6.22
# www.blender.org
mtllib JUEGOBOLOS_USAR.mtl
o Boliche
v 2.215910 -0.067003 5.344399
v 2.303648 -0.067003 5.344399
v 2.215910 0.067004 5.344399
v 2.303648 0.067004 5.344399
v 2.215910 0.067003 -4.966631
v 2.303648 0.067003 -4.966631
v 2.215910 -0.067004 -4.966631
v 2.303648 -0.067004 -4.966631
v 1.906583 -0.067003 5.344399
v 1.994321 -0.067003 5.344399
v 1.906583 0.067004 5.344399
v 1.994321 0.067004 5.344399
v 1.906583 0.067003 -4.966631
v 1.994321 0.067003 -4.966631
v 1.906583 -0.067004 -4.966631
v 1.994321 -0.067004 -4.966631
v -1.954433 -0.067003 4.880893
v -1.866695 -0.067003 4.880893
v -1.954433 0.067004 4.880893
v -1.866695 0.067004 4.880893
v -1.954433 0.067003 -5.051858
v -1.866695 0.067003 -5.051858
v -1.954433 -0.067004 -5.051858
v -1.866695 -0.067004 -5.051858
v -2.263760 -0.067003 4.880893
v -2.176022 -0.067003 4.880893
v -2.263760 0.067004 4.880893
v -2.176022 0.067004 4.880893
v -2.263760 0.067003 -5.051858
v -2.176022 0.067003 -5.051858
v -2.263760 -0.067004 -5.051858
v -2.176022 -0.067004 -5.051858
v -2.468694 -0.034309 5.010729
v 2.468694 -0.034309 5.010729
v -2.468694 0.030712 5.010729
v 2.468694 0.030712 5.010729
v -2.468694 0.030711 -5.010729
v 2.468694 0.030711 -5.010729
v -2.468694 -0.034310 -5.010729
v 2.468694 -0.034310 -5.010729
v -1.658563 -0.034309 5.010729
v -1.658563 -0.034309 7.458423
v -1.658563 0.034310 7.458423
v -1.433186 0.091872 5.010729
v -1.433186 0.091871 -5.010729
v -1.658563 -0.034310 -5.010729
v 1.684279 -0.034309 5.010729
v 1.684279 -0.034309 7.458422
v 1.684279 0.034310 7.458422
v 1.458904 0.091872 5.010729
v 1.458904 0.091871 -5.010729
v 1.684279 -0.034310 -5.010729
v 2.076527 -0.034309 7.458422
v 2.468694 -0.034309 7.224868
v 2.076527 0.034310 7.458422
v 2.468694 0.034310 7.224868
v -2.468694 -0.034309 7.224868
v -2.076527 -0.034309 7.458422
v -2.076527 0.034310 7.458422
v -2.468694 0.034310 7.224868
v -1.433186 0.131072 5.010729
v -1.433186 0.131071 -5.010729
v 1.458904 0.131072 5.010729
v 1.458904 0.131071 -5.010729
v -2.458384 -0.037092 -2.075093
v 2.458384 -0.037092 -2.075093
v -2.458384 1.820144 -3.465332
v 2.458384 1.820144 -3.465332
v -2.458384 1.820144 -5.057386
v 2.458384 1.820144 -5.057386
v -2.458384 -0.037092 -5.057386
v 2.458384 -0.037092 -5.057386
v -2.458384 3.183391 -3.716993
v 2.458384 3.183391 -3.716993
v 2.458384 3.183391 -5.057386
v -2.458384 3.183391 -5.057386
v -2.458384 0.378121 -5.057386
v 2.458382 0.378121 -5.057386
v 2.458384 0.383215 -2.920439
v 2.458384 0.383215 -5.057386
v -2.458382 0.383215 -5.057386
v -2.458382 0.383215 -2.920439
v 2.622521 -0.037092 -5.057386
v 2.622521 -0.037092 -2.075093
v 2.622521 0.378121 -5.057386
v -2.622521 -0.037092 -5.057386
v -2.622521 -0.037092 -2.075093
v -2.622521 0.378121 -5.057386
v 2.622521 1.820144 -5.057386
v 2.622521 3.183391 -5.057386
v 2.622521 3.183391 -3.716993
v 2.622521 1.820144 -3.465332
v 2.622521 0.383215 -2.920439
v 2.622521 0.383215 -5.057386
v -2.622521 1.820144 -5.057386
v -2.622521 0.383215 -5.057386
v -2.622521 0.383215 -2.920439
v -2.622521 1.820144 -3.465332
v -2.622521 3.183391 -3.716993
v -2.622521 3.183391 -5.057386
v 2.458384 0.170536 -2.153827
v 2.458384 0.321641 -2.264227
v 2.458384 0.378122 -2.427705
v 2.458384 0.379333 -2.396020
v 2.622521 0.170536 -2.153827
v 2.622521 0.378122 -2.427705
v 2.622521 0.321641 -2.264227
v -2.458384 0.379333 -2.396020
v -2.458384 0.378122 -2.427705
v -2.458384 0.321641 -2.264227
v -2.458384 0.170536 -2.153827
v -2.622521 0.378122 -2.427705
v -2.622521 0.170536 -2.153827
v -2.622521 0.321641 -2.264227
v -2.458384 3.320491 -3.716993
v 2.458384 3.320491 -3.716993
v 2.458384 3.320491 -5.057386
v -2.458384 3.320491 -5.057386
v 2.622521 3.320491 -3.716993
v 2.622521 3.320491 -5.057386
v -2.622521 3.320491 -5.057386
v -2.622521 3.320491 -3.716993
v 2.661383 3.180943 -3.602124
v 2.600014 3.180943 -3.602124
v 2.538645 3.180943 -3.602124
v 2.563693 3.181571 -3.631582
v 2.661383 3.322939 -3.602124
v 2.563693 3.322311 -3.631582
v 2.538645 3.322939 -3.602124
v 2.600014 3.322939 -3.602124
v -2.661383 3.180943 -3.602124
v -2.563693 3.181571 -3.631582
v -2.538645 3.180943 -3.602124
v -2.600014 3.180943 -3.602124
v -2.661383 3.322939 -3.602124
v -2.600014 3.322939 -3.602124
v -2.538645 3.322939 -3.602124
v -2.563693 3.322311 -3.631582
v -2.661383 3.180943 -5.172256
v -2.600014 3.180943 -5.172256
v -2.538645 3.180943 -5.172256
v -2.563691 3.181571 -5.142797
v -2.661383 3.322939 -5.172256
v -2.563691 3.322311 -5.142797
v -2.538645 3.322939 -5.172256
v -2.600014 3.322939 -5.172256
v 2.661383 3.180943 -5.172256
v 2.563691 3.181571 -5.142797
v 2.538645 3.180943 -5.172256
v 2.600014 3.180943 -5.172256
v 2.661383 3.322939 -5.172256
v 2.600014 3.322939 -5.172256
v 2.538645 3.322939 -5.172256
v 2.563691 3.322311 -5.142797
v 2.773608 3.180943 -3.653810
v 2.748188 3.180943 -3.617262
v 2.686820 3.180943 -3.602124
v 2.735765 3.181556 -3.630895
v 2.773608 3.322939 -3.653810
v 2.735765 3.322325 -3.630895
v 2.686820 3.322939 -3.602124
v 2.748188 3.322939 -3.617262
v 2.686820 3.180943 -5.172256
v 2.748188 3.180943 -5.157117
v 2.773608 3.180943 -5.120570
v 2.735765 3.181556 -5.143485
v 2.686820 3.322939 -5.172256
v 2.735765 3.322325 -5.143485
v 2.773608 3.322939 -5.120570
v 2.748188 3.322939 -5.157117
v -2.773608 3.180943 -5.120570
v -2.748188 3.180943 -5.157117
v -2.686820 3.180943 -5.172256
v -2.735765 3.181556 -5.143485
v -2.773608 3.322939 -5.120570
v -2.735765 3.322325 -5.143485
v -2.686820 3.322939 -5.172256
v -2.748188 3.322939 -5.157117
v -2.686820 3.180943 -3.602124
v -2.748188 3.180943 -3.617262
v -2.773608 3.180943 -3.653810
v -2.735765 3.181556 -3.630895
v -2.686820 3.322939 -3.602124
v -2.735765 3.322325 -3.630895
v -2.773608 3.322939 -3.653810
v -2.748188 3.322939 -3.617262
v 2.622521 1.941536 -3.487741
v 2.458384 1.941536 -3.487741
v -2.458384 1.941536 -3.487741
v -2.622521 1.941536 -3.487741
v -2.458384 1.820144 -3.379656
v 2.458384 1.820144 -3.379656
v 2.458384 1.941536 -3.402066
v -2.458384 1.941536 -3.402066
v 2.601925 1.941536 -3.414611
v 2.622521 1.941536 -3.444899
v 2.552199 1.941536 -3.402066
v 2.601925 1.820144 -3.392202
v 2.552199 1.820144 -3.379656
v 2.622521 1.820144 -3.422490
v -2.601925 1.941536 -3.414611
v -2.552199 1.941536 -3.402066
v -2.622521 1.941536 -3.444899
v -2.552199 1.820144 -3.379656
v -2.601925 1.820144 -3.392202
v -2.622521 1.820144 -3.422490
v 1.406254 0.095892 5.883282
v 2.464570 0.095892 5.883282
v 1.406254 1.391306 5.755996
v 2.464570 1.391306 5.755996
v 1.406254 0.095892 4.919968
v 2.464570 0.095892 4.919968
v 1.406254 0.764687 5.031848
v 1.406254 1.303484 5.495249
v 1.406254 1.236213 5.331960
v 1.406254 1.116401 5.192719
v 1.406254 0.954513 5.089680
v 2.464570 0.764687 5.031848
v 2.464570 0.954513 5.089680
v 2.464570 1.116401 5.192719
v 2.464570 1.236213 5.331960
v 2.464570 1.303484 5.495249
v 1.406254 0.591521 5.822079
v 2.464570 0.591521 5.822079
v 1.406254 0.784436 5.815626
v 2.464570 0.784436 5.815626
v 1.523100 0.777075 5.808491
v 2.347724 0.777075 5.808491
v 2.347724 1.318689 5.763131
v 1.523100 1.318689 5.763131
v 1.601071 0.754202 5.567936
v 2.269752 0.754202 5.567936
v 2.269752 1.193392 5.531154
v 1.601071 1.193392 5.531154
v 1.399272 0.590248 5.874253
v 2.471552 0.590248 5.874253
v 2.471552 0.785708 5.867715
v 1.399272 0.785708 5.867715
v 2.347724 1.318689 5.815263
v 2.347724 0.777075 5.860622
v 1.523100 1.318689 5.815263
v 1.523100 0.777075 5.860622
v 1.406254 0.737688 5.817190
v 1.399272 0.738345 5.869299
v 2.471552 0.738345 5.869299
v 2.464570 0.737688 5.817190
v 1.406254 0.737688 5.869321
v 2.464570 0.737688 5.869321
v 2.464570 0.784436 5.867758
v 1.406254 0.784436 5.867758
v 1.524047 0.737688 5.869321
v 2.346777 0.737688 5.869321
v 2.346777 0.784436 5.867758
v 1.524047 0.784436 5.867758
v 2.292257 0.777075 5.821554
v 2.224776 0.754202 5.552260
v 1.646048 0.754202 5.552260
v 1.578565 0.777075 5.821554
v 1.477438 0.784436 5.827999
v 1.477438 0.784436 5.875090
v 2.393385 0.784436 5.875090
v 2.393385 0.784436 5.827999
v 2.393385 0.784436 5.875090
v 2.291438 0.784436 5.875090
v 1.477438 0.784436 5.875090
v 1.579387 0.784436 5.875090
v 1.524047 0.799212 5.867758
v 1.579387 0.799212 5.875090
v 2.346777 0.799212 5.867758
v 2.291438 0.799212 5.875090
v 2.207205 0.743506 6.298458
v 2.108607 0.743803 6.320394
v 2.257534 0.742759 6.243391
v 2.108607 0.778321 6.319239
v 2.207205 0.777826 6.297310
v 2.257534 0.776583 6.242260
v 1.663617 0.743506 6.298458
v 1.613288 0.742759 6.243391
v 1.762216 0.743803 6.320394
v 1.613288 0.776583 6.242260
v 1.663617 0.777826 6.297310
v 1.762216 0.778321 6.319239
v 1.613238 0.794145 6.241953
v 1.663751 0.793397 6.297222
v 1.762735 0.793098 6.319239
v 1.704821 0.778651 6.260887
v 1.803420 0.778321 6.282916
v 1.654881 0.779479 6.205671
v 1.654808 0.794262 6.205356
v 1.704952 0.793431 6.260797
v 1.803953 0.793098 6.282916
v 2.108089 0.793098 6.319239
v 2.207073 0.793397 6.297222
v 2.257586 0.794145 6.241953
v 2.166003 0.778651 6.260887
v 2.215942 0.779479 6.205671
v 2.067404 0.778321 6.282916
v 2.066870 0.793098 6.282916
v 2.165870 0.793431 6.260797
v 2.216014 0.794262 6.205356
v 1.613288 0.742759 6.243391
v 1.663617 0.743506 6.298458
v 1.524047 0.737688 5.869322
v 2.346775 0.737688 5.869322
v 2.257534 0.742759 6.243391
v 2.207205 0.743506 6.298458
v 2.108607 0.743803 6.320392
v 1.762216 0.743803 6.320392
v 1.866408 0.741177 6.126675
v 1.877190 0.741337 6.138471
v 1.847291 0.740091 6.046544
v 2.023531 0.740091 6.046544
v 2.004414 0.741177 6.126675
v 1.993635 0.741337 6.138471
v 1.972513 0.741401 6.143170
v 1.898310 0.741401 6.143170
v 1.866408 0.209809 6.126675
v 1.877190 0.209970 6.138471
v 1.847291 0.208722 6.046544
v 2.023531 0.208722 6.046544
v 2.004414 0.209809 6.126675
v 1.993635 0.209970 6.138471
v 1.972513 0.210032 6.143170
v 1.898310 0.210032 6.143170
v 1.855243 0.209879 6.131823
v 1.867770 0.210065 6.145528
v 1.833033 0.208616 6.038727
v 2.037789 0.208616 6.038727
v 2.015579 0.209879 6.131823
v 2.003054 0.210065 6.145528
v 1.978515 0.210138 6.150987
v 1.892307 0.210138 6.150987
v 1.855243 0.023557 6.131823
v 1.867770 0.023743 6.145528
v 1.833033 0.022295 6.038727
v 2.037789 0.022295 6.038727
v 2.015579 0.023557 6.131823
v 2.003054 0.023743 6.145528
v 1.978515 0.023818 6.150987
v 1.892307 0.023818 6.150987
v 1.406254 0.640543 5.820439
v 1.399272 0.639917 5.872591
v 2.471552 0.639917 5.872591
v 2.464570 0.640543 5.820439
v 2.421361 0.781714 5.865120
v 2.464570 0.784436 5.841694
v 2.451635 0.783621 5.859166
v 2.425730 1.364591 5.810753
v 2.453385 1.383612 5.802027
v 2.464570 1.391306 5.784318
v 1.447371 1.363024 5.810906
v 1.418091 1.383163 5.802073
v 1.406254 1.391306 5.784318
v 1.449463 0.781714 5.865120
v 1.419189 0.783621 5.859166
v 1.406254 0.784436 5.841694
v 1.534027 0.604242 5.018340
v 2.336798 0.604242 5.018340
v 2.336798 0.096937 4.933475
v 1.534027 0.096937 4.933475
v 1.595520 0.604726 5.398633
v 2.275303 0.604726 5.398633
v 2.275303 0.175142 5.326769
v 1.595520 0.175142 5.326769
v -1.572808 1.605548 -3.213229
v 1.572808 1.605548 -3.213229
v -1.572808 3.216703 -3.659548
v 1.572808 3.216703 -3.659548
v -1.572808 3.188584 -3.734672
v 1.572808 3.188584 -3.734672
v -1.572808 1.577428 -3.288353
v 1.572808 1.577428 -3.288353
v -1.572808 2.069947 -3.221137
v 1.572808 2.069947 -3.221137
v -1.572808 3.306911 -3.221137
v 1.572808 3.306911 -3.221137
v -1.572808 3.306910 -3.300060
v 1.572808 3.306910 -3.300060
v -1.572808 2.069947 -3.300060
v 1.572808 2.069947 -3.300060
v -1.572808 2.069947 -3.221137
v 1.572808 2.069947 -3.221137
v 1.572808 3.306911 -3.221137
v -1.572808 3.306911 -3.221137
v -1.572808 2.069947 -3.221137
v 1.572808 2.069947 -3.221137
v 1.572808 3.306911 -3.221137
v -1.572808 3.306911 -3.221137
vn -0.0000 -0.0000 1.0000
vn -0.0000 1.0000 -0.0000
vn -0.0000 -0.0000 -1.0000
vn -0.0000 -1.0000 -0.0000
vn 1.0000 -0.0000 -0.0000
vn -1.0000 -0.0000 -0.0000
vn -0.0352 0.9992 0.0165
vn -0.0590 0.9983 -0.0000
vn -0.0592 0.9982 -0.0009
vn -0.0024 1.0000 0.0086
vn -0.0001 1.0000 -0.0012
vn 0.0331 0.9990 0.0305
vn 0.0306 0.4042 0.9142
vn 0.0605 0.9982 -0.0000
vn 0.5117 -0.0000 0.8592
vn -0.5117 -0.0000 0.8592
vn -0.0000 0.1815 0.9834
vn -1.0000 0.0003 -0.0000
vn -0.0000 0.9998 0.0192
vn -0.0000 0.4663 0.8846
vn -0.0000 0.3546 0.9350
vn -0.0000 0.4664 0.8846
vn -0.0000 0.9998 0.0189
vn -0.0000 0.9998 0.0202
vn -0.1468 -0.0000 -0.9892
vn 0.0885 0.1808 0.9795
vn 0.0832 0.1809 0.9800
vn 0.2143 -0.0000 -0.9768
vn -0.0834 0.1809 0.9800
vn 1.0000 -0.0001 -0.0000
vn 1.0000 -0.0003 -0.0000
vn -0.0000 0.9452 0.3266
vn -0.0000 0.9998 0.0196
vn -0.0000 0.5899 0.8075
vn 0.1707 -0.0000 0.9853
vn 0.9999 -0.0000 0.0171
vn 0.9999 -0.0000 -0.0171
vn 0.9999 -0.0001 0.0169
vn 0.1707 -0.0000 -0.9853
vn 0.1718 -0.0000 -0.9851
vn -0.1707 -0.0000 -0.9853
vn -0.9999 -0.0000 -0.0171
vn -0.9999 -0.0000 0.0171
vn -0.9999 -0.0000 -0.0169
vn -0.1707 -0.0000 0.9853
vn -0.1718 -0.0000 0.9851
vn -0.0000 -0.9998 -0.0213
vn -0.0000 0.9998 -0.0213
vn -0.0000 -0.9998 0.0213
vn -0.0000 0.9998 0.0213
vn -0.0001 -0.9998 -0.0214
vn -0.0139 0.9999 -0.0032
vn -0.0162 -0.9999 -0.0000
vn -0.0139 -0.9999 -0.0033
vn -0.0162 0.9999 -0.0000
vn -0.0139 0.9999 0.0032
vn -0.0139 -0.9999 0.0033
vn -0.0001 0.9998 0.0214
vn 0.0001 -0.9998 0.0214
vn 0.0139 0.9999 0.0032
vn 0.0162 -0.9999 -0.0000
vn 0.0139 -0.9999 0.0033
vn 0.0162 0.9999 -0.0000
vn 0.0139 0.9999 -0.0032
vn 0.0139 -0.9999 -0.0033
vn 0.0001 0.9998 -0.0215
vn 0.2395 -0.0000 0.9709
vn 0.1718 -0.0000 0.9851
vn 0.8210 -0.0000 0.5710
vn 0.8209 -0.0000 -0.5710
vn 0.9999 -0.0000 -0.0169
vn 0.2395 -0.0000 -0.9709
vn -0.2395 -0.0000 -0.9709
vn -0.1718 -0.0000 -0.9851
vn -0.8210 -0.0000 -0.5710
vn -0.8209 -0.0000 -0.5710
vn -0.8210 -0.0000 0.5710
vn -0.9999 -0.0000 0.0169
vn -0.2395 -0.0000 0.9709
vn -0.0000 0.9998 0.0214
vn -0.0127 -0.9994 -0.0334
vn -0.0001 0.9998 -0.0214
vn -0.0127 0.9994 -0.0333
vn -0.0127 -0.9994 0.0334
vn -0.0127 0.9994 0.0333
vn 0.0127 -0.9994 0.0334
vn 0.0001 0.9998 0.0214
vn 0.0127 0.9994 0.0333
vn 0.0001 -0.9998 -0.0214
vn 0.0127 -0.9994 -0.0334
vn 0.0127 0.9994 -0.0333
vn 0.9674 0.0460 0.2490
vn 0.9544 0.0542 0.2935
vn -0.9674 0.0460 0.2490
vn 0.8225 0.1033 0.5593
vn 0.2408 0.1762 0.9544
vn -0.0884 0.1808 0.9795
vn -0.2408 0.1762 0.9544
vn -0.8225 0.1033 0.5593
vn -0.9544 0.0542 0.2935
vn -0.0000 0.0835 0.9965
vn -0.0000 0.9570 -0.2900
vn -0.0000 0.9391 -0.3435
vn -0.0000 0.9573 -0.2890
vn -0.0000 0.1650 -0.9863
vn -0.0000 0.4159 -0.9094
vn -0.0000 0.2914 -0.9566
vn -0.0000 0.6521 -0.7582
vn -0.0000 0.8505 -0.5260
vn -0.0000 0.1226 0.9925
vn -0.0000 0.9907 -0.1362
vn -0.9517 0.0256 0.3060
vn -0.0000 -0.8799 0.4752
vn 0.9517 0.0256 0.3060
vn -0.0000 -0.9997 -0.0244
vn 0.9911 -0.0044 -0.1327
vn -0.9911 -0.0044 -0.1327
vn -0.0000 0.0334 0.9994
vn -0.0003 -0.0334 -0.9994
vn -0.0000 -0.0338 -0.9994
vn -0.0000 0.0332 0.9994
vn 0.0003 0.0337 0.9994
vn -0.0207 0.9959 -0.0880
vn -0.0323 0.9952 -0.0926
vn 0.0556 0.9702 -0.2360
vn 0.0041 0.9997 -0.0239
vn -0.0000 -0.9854 -0.1701
vn -0.0163 0.9999 -0.0000
vn -0.0450 0.9649 -0.2588
vn -0.0000 -1.0000 0.0009
vn 0.0001 0.3156 0.9489
vn -0.0000 -1.0000 0.0008
vn 0.1314 -0.0000 -0.9913
vn -0.1313 -0.0000 -0.9913
vn 0.2171 0.0326 0.9756
vn 0.0485 0.0241 0.9985
vn 0.0489 0.0334 0.9982
vn 0.9541 0.0100 0.2995
vn 0.7381 0.0185 0.6744
vn 0.7381 0.0226 0.6743
vn -0.9540 0.0100 0.2995
vn -0.7381 0.0185 0.6744
vn -0.9548 0.0078 0.2973
vn -0.2171 0.0326 0.9756
vn -0.0491 0.0241 0.9985
vn -0.2172 0.0249 0.9758
vn -0.0484 0.0334 0.9983
vn 0.9727 0.0078 0.2320
vn 0.8624 0.1894 0.4695
vn -0.9727 0.0078 0.2319
vn -0.9727 0.0053 0.2319
vn -0.0014 0.9999 0.0152
vn 0.0061 0.9999 0.0123
vn -0.0020 0.9999 0.0155
vn 0.0011 1.0000 0.0014
vn -0.0006 1.0000 0.0006
vn 0.0006 1.0000 0.0006
vn 0.0014 0.9999 0.0152
vn -0.0061 0.9999 0.0123
vn -0.0053 0.9999 0.0114
vn -0.9518 0.0023 0.3067
vn -0.9727 -0.0000 0.2319
vn 0.9514 -0.0019 -0.3079
vn 0.9749 -0.0000 -0.2226
vn -0.0488 0.0017 0.9988
vn -0.0600 -0.0022 -0.9982
vn 0.0628 -0.0023 -0.9980
vn 0.0596 -0.0021 -0.9982
vn 0.9727 0.0053 0.2319
vn 0.9518 0.0023 0.3067
vn -0.9749 -0.0000 -0.2226
vn -0.9514 -0.0019 -0.3079
vn -0.0000 -0.9999 0.0136
vn -0.0000 -0.0117 -0.9999
vn 0.2171 0.0074 0.9761
vn 0.0493 0.0018 0.9988
vn 0.7381 0.0100 0.6746
vn -0.7381 0.0101 0.6746
vn -0.2171 0.0074 0.9761
vn 0.0053 0.9999 0.0114
vn 0.0043 1.0000 0.0061
vn 0.0040 1.0000 0.0055
vn 0.2180 -0.0079 -0.9759
vn 0.9493 -0.0021 -0.3145
vn 0.7415 -0.0107 -0.6708
vn -0.0011 1.0000 0.0014
vn -0.0043 1.0000 0.0061
vn -0.0040 1.0000 0.0055
vn -0.9493 -0.0020 -0.3145
vn -0.7415 -0.0107 -0.6708
vn -0.0625 -0.0022 -0.9980
vn -0.2180 -0.0079 -0.9759
vn 0.7185 0.0852 -0.6903
vn -0.0000 -0.9969 0.0788
vn -0.0487 -0.9988 -0.0000
vn -0.0000 -0.9966 0.0821
vn 0.0140 -0.9998 0.0172
vn 0.0072 -0.9997 0.0242
vn 0.0006 0.0020 1.0000
vn 0.0041 -1.0000 -0.0000
vn -0.0000 -1.0000 -0.0069
vn 0.0028 -0.9999 0.0112
vn 0.0043 -1.0000 -0.0000
vn -0.0000 -0.9999 0.0135
vn -0.7381 -0.0000 0.6747
vn -0.9727 -0.0000 0.2321
vn 0.9727 -0.0000 0.2321
vn 0.7382 -0.0000 0.6746
vn 0.2171 -0.0000 0.9761
vn -0.2172 -0.0000 0.9761
vn -0.0000 0.9999 -0.0135
vn -0.0000 0.9999 -0.0136
vn -0.7381 -0.0000 0.6746
vn 0.2171 -0.0000 0.9762
vn 0.1879 0.0899 0.9781
vn 0.0644 0.2005 0.9776
vn 0.0066 0.0866 0.9962
vn 0.9528 0.0275 0.3023
vn 0.8334 0.0520 0.5502
vn 0.8013 0.0544 0.5957
vn -0.0000 0.0952 0.9955
vn -0.0660 0.0833 0.9943
vn -0.0095 0.0869 0.9962
vn -0.0800 0.1729 0.9817
vn 0.9814 0.0182 0.1912
vn -0.0002 0.9900 0.1411
vn -0.9794 0.0191 0.2012
vn 0.0629 -0.9980 -0.0000
vn -0.0629 -0.9980 -0.0000
vn 0.1080 0.2817 0.9534
vn -0.0000 0.9091 0.4166
vn -0.0004 0.9173 0.3983
vn -0.1876 0.0906 0.9781
vn -0.8189 0.0540 0.5714
vn -0.9530 0.0280 0.3018
vn -0.8013 0.0553 0.5957
vn -0.0000 0.0839 -0.9965
vn -0.1024 0.1641 -0.9811
vn -0.0000 0.9970 -0.0771
vn 0.1024 0.1641 -0.9811
vn -0.0000 -1.0000 0.0013
vn -0.9868 0.0267 -0.1596
vn -0.0000 0.9808 -0.1950
vn 0.9868 0.0267 -0.1596
vn -0.0000 0.2670 0.9637
vn -0.0000 0.9365 -0.3505
vn -0.0000 -0.2670 -0.9637
vn -0.0000 -0.9365 0.3506
vn -0.0004 1.0000 -0.0014
vn -0.0545 -0.0000 -0.9985
vn 0.9999 0.0172 -0.0000
vn -1.0000 0.0028 -0.0000
vn 0.9999 -0.0113 -0.0000
vn -0.0000 0.9964 -0.0846
vn 0.0726 0.9974 -0.0000
vn -0.0726 0.9974 -0.0000
vn 0.0003 -0.0334 -0.9994
vn -0.0003 0.0337 0.9994
vn 0.0323 0.9952 -0.0926
vn 0.0207 0.9959 -0.0880
vn 0.0450 0.9649 -0.2588
vn 0.0163 0.9999 -0.0000
vn -0.0041 0.9997 -0.0239
vn -0.0556 0.9702 -0.2360
vn -0.0000 0.9999 0.0149
vn 0.1313 -0.0000 -0.9913
vn -0.1314 -0.0000 -0.9913
vn 0.2171 0.0249 0.9758
vn -0.7381 0.0226 0.6743
vn 0.0020 0.9999 0.0155
vn 0.9727 -0.0000 0.2319
vn -0.0000 0.9999 0.0150
vn -0.0000 0.3640 0.9314
vn -0.7415 -0.0108 -0.6708
vn -0.0452 0.9990 -0.0000
vn -0.0078 -0.9999 0.0132
vn 0.0469 -0.9937 -0.1020
vn -0.0000 -0.9998 -0.0215
vn -0.0000 -0.9998 -0.0224
vn -0.0006 0.0001 1.0000
vn -0.0043 -1.0000 -0.0000
vn -0.0029 -1.0000 -0.0000
vn -0.0041 -1.0000 -0.0000
vn -0.0072 -0.0000 1.0000
vn 0.2172 -0.0000 0.9761
vn -0.2171 -0.0000 0.9761
vn 0.0660 0.0833 0.9943
vn -0.0000 0.9890 0.1478
vn 0.0629 -0.9980 0.0001
vn -0.0628 -0.9980 -0.0000
vn -0.1038 0.2707 0.9570
vn -0.0000 0.9365 -0.3506
vt 0.625000 0.000000
vt 0.375000 0.250000
vt 0.375000 0.000000
vt 0.625000 0.250000
vt 0.375000 0.500000
vt 0.625000 0.500000
vt 0.375000 0.750000
vt 0.625000 0.750000
vt 0.375000 1.000000
vt 0.875000 0.000000
vt 0.125000 0.250000
vt 0.125000 0.000000
vt 0.394857 0.000000
vt 0.416020 0.250000
vt 0.394857 0.250000
vt 0.416020 0.750000
vt 0.416020 0.000000
vt 0.585282 0.250000
vt 0.585282 0.000000
vt 0.585282 0.500000
vt 0.416020 0.500000
vt 0.585282 0.750000
vt 0.585282 1.000000
vt 0.416020 1.000000
vt 0.605143 0.000000
vt 0.605143 0.250000
vt 0.625000 1.000000
vt 0.672318 0.974880
vt 0.890741 0.747478
vt 0.912925 1.013139
vt 0.061492 0.192257
vt 0.923995 0.166259
vt 0.179600 0.563143
vt 0.110620 0.704505
vt 0.000064 0.034569
vt 0.128753 0.419057
vt 0.370658 0.927654
vt 0.375782 0.287471
vt 0.389775 0.265727
vt 0.939800 0.749429
vt 0.746830 0.675653
vt 0.987030 0.342686
vt 0.200523 0.443358
vt 0.365008 0.237212
vt 0.281189 0.490983
vt 0.082137 0.077735
vt 0.095842 0.138940
vt 0.152734 0.403621
vt 0.011847 0.955850
vt 0.000064 0.964357
vt 0.126113 0.730580
vt 0.112905 0.720776
vt 0.057528 0.951771
vt 0.132989 0.726281
vt 0.028847 0.999936
vt 0.027002 0.963821
vt 0.131398 0.404631
vt 0.048574 0.000064
vt 0.019100 0.052345
vt 0.145408 0.397843
vt 0.073261 0.089026
vt 0.152467 0.403704
vt 0.229571 0.642284
vt 0.185949 0.700703
vt 0.183747 0.692504
vt 0.268986 0.650824
vt 0.238087 0.639551
vt 0.238201 0.635719
vt 0.352991 0.913404
vt 0.360074 0.934158
vt 0.071489 0.911255
vt 0.343672 0.952944
vt 0.380945 0.999776
vt 0.133215 0.726421
vt 0.083553 0.892269
vt 0.137326 0.733298
vt 0.197933 0.449980
vt 0.156843 0.398374
vt 0.404285 0.193980
vt 0.113854 0.174135
vt 0.380272 0.258107
vt 0.243819 0.520458
vt 0.275881 0.507945
vt 0.276344 0.512124
vt 0.239480 0.506066
vt 0.236035 0.511223
vt 0.046591 0.965398
vt 0.051917 0.941949
vt 0.042723 0.956973
vt 0.068329 0.053821
vt 0.041005 0.047579
vt 0.063108 0.065410
vt 0.056500 0.955019
vt 0.081140 0.072761
vt 0.282436 0.503652
vt 0.271440 0.655087
vt 0.279239 0.508568
vt 0.233033 0.640573
vt 0.241385 0.517338
vt 0.235586 0.637988
vt 0.271798 0.661911
vt 0.270066 0.658144
vt 0.270273 0.657694
vt 0.269773 0.663892
vt 0.236843 0.642334
vt 0.268675 0.658936
vt 0.234496 0.642916
vt 0.235964 0.640430
vt 0.236035 0.640893
vt 0.240485 0.512420
vt 0.242116 0.514557
vt 0.242016 0.514969
vt 0.241672 0.510401
vt 0.276770 0.503720
vt 0.243055 0.513412
vt 0.279813 0.501218
vt 0.278321 0.505571
vt 0.278128 0.505012
vt 0.277927 0.665961
vt 0.273854 0.660419
vt 0.282569 0.501203
vt 0.270490 0.655013
vt 0.239190 0.514028
vt 0.232724 0.642090
vt 0.242142 0.517134
vt 0.271684 0.670966
vt 0.271375 0.661997
vt 0.273788 0.662610
vt 0.269278 0.658400
vt 0.232341 0.649095
vt 0.235242 0.645016
vt 0.270652 0.663286
vt 0.268196 0.654699
vt 0.236525 0.641531
vt 0.234237 0.642663
vt 0.234778 0.644177
vt 0.236291 0.638406
vt 0.240770 0.512221
vt 0.239048 0.512504
vt 0.242673 0.514065
vt 0.278256 0.498792
vt 0.241134 0.511104
vt 0.244044 0.516540
vt 0.277355 0.504515
vt 0.287322 0.498920
vt 0.280237 0.501388
vt 0.279116 0.499628
vt 0.278269 0.508346
vt 0.272774 0.661326
vt 0.270790 0.656533
vt 0.281301 0.502335
vt 0.278725 0.506897
vt 0.239861 0.513106
vt 0.241745 0.516035
vt 0.233640 0.641734
vt 0.235807 0.639339
vt 0.270550 0.662587
vt 0.269452 0.658842
vt 0.234967 0.643783
vt 0.236311 0.641722
vt 0.241278 0.511548
vt 0.242488 0.513804
vt 0.278942 0.500331
vt 0.277590 0.504120
vt 0.347756 0.895276
vt 0.749352 -0.019238
vt 0.429434 0.488510
vt 0.256769 -0.006536
vt 0.365474 0.294141
vt 0.359397 0.274082
vt 0.357414 0.903726
vt 0.345866 0.917155
vt 0.352031 0.941122
vt 0.364888 0.272072
vt 0.349918 0.917716
vt 0.355597 0.934731
vt 0.371587 0.277077
vt 0.375713 0.256673
vt 0.368880 0.272309
vt 0.372529 0.249662
vt 0.625000 0.132881
vt 0.375000 0.132881
vt 0.375000 0.375012
vt 0.625000 0.600687
vt 0.375000 0.600687
vt 0.375000 0.550344
vt 0.625000 0.550344
vt 0.375000 0.437506
vt 0.625000 0.437506
vt 0.249988 0.250000
vt 0.625000 0.123428
vt 0.875000 0.199656
vt 0.812506 0.250000
vt 0.375000 0.120207
vt 0.625000 0.120208
vt 0.625000 0.129810
vt 0.375000 0.129810
vt 0.375000 0.123428
vt 0.571273 0.132881
vt 0.571273 0.129810
vt 0.375000 0.132698
vt 0.428727 0.132881
vt 0.428727 0.129810
vt 0.625000 0.132698
vt 0.428940 0.132881
vt 0.562506 0.132881
vt 0.437494 0.132881
vt 0.437240 0.132881
vt 0.571060 0.132881
vt 0.562760 0.132881
vt 0.625000 0.249503
vt 0.375000 0.249474
vt 0.856169 0.106645
vt -0.006662 0.960405
vt 0.136421 0.035362
vt 0.874063 0.143739
vt 0.228556 0.074971
vt 0.117098 0.164069
vt 0.040805 0.908850
vt 0.922747 0.030766
vt 0.980602 0.931947
vt 0.775104 0.137901
vt 0.194963 0.040214
vt 0.248114 0.136549
vt 0.866796 0.308165
vt 0.874414 0.101745
vt 0.933122 0.282434
vt 0.112583 0.000077
vt 0.000077 0.399163
vt 0.000077 0.198910
vt 0.192502 0.410564
vt 0.828236 0.326699
vt 0.164437 0.223081
vt 0.800354 0.546989
vt 0.925026 0.742940
vt 0.866681 0.521258
vt 0.051553 0.774549
vt 0.109716 0.588458
vt 0.983324 0.964857
vt 0.875000 0.250000
vt 0.690914 0.719754
vt 0.106162 0.008644
vt 0.869573 -0.009251
vt 0.923624 0.164255
vt 0.827514 0.538574
vt 0.687714 0.864618
vt 0.338265 0.887121
vt 0.061254 0.194070
vt 0.975274 0.499166
vt 0.974961 0.667438
vt 0.769428 0.703237
vt 0.934680 0.055932
vt 0.340449 0.914066
vt 0.566612 0.515942
vt 0.625000 0.375012
vt 0.125000 0.199656
vt 0.125000 0.149313
vt 0.187494 0.250000
vt 0.750013 0.250000
vt 0.875000 0.149313
vt 0.815355 0.089076
vt 0.080394 0.090006
vt 0.802815 0.082889
vt 0.839085 0.484024
vt 0.200331 0.399163
s 0
usemtl Material.001
f 2/1/1 3/2/1 1/3/1
f 4/4/2 5/5/2 3/2/2
f 6/6/3 7/7/3 5/5/3
f 8/8/4 1/9/4 7/7/4
f 8/10/5 4/4/5 2/1/5
f 1/3/6 5/11/6 7/12/6
f 10/1/1 11/2/1 9/3/1
f 12/4/2 13/5/2 11/2/2
f 14/6/3 15/7/3 13/5/3
f 16/8/4 9/9/4 15/7/4
f 16/10/5 12/4/5 10/1/5
f 9/3/6 13/11/6 15/12/6
f 18/1/1 19/2/1 17/3/1
f 20/4/2 21/5/2 19/2/2
f 22/6/3 23/7/3 21/5/3
f 24/8/4 17/9/4 23/7/4
f 24/10/5 20/4/5 18/1/5
f 17/3/6 21/11/6 23/12/6
f 26/1/1 27/2/1 25/3/1
f 28/4/2 29/5/2 27/2/2
f 30/6/3 31/7/3 29/5/3
f 32/8/4 25/9/4 31/7/4
f 32/10/5 28/4/5 26/1/5
f 25/3/6 29/11/6 31/12/6
s 1
f 116/28/2 118/29/2 115/30/2
f 78/31/3 81/32/3 70/33/3
f 72/34/4 65/35/4 71/36/4
f 192/37/17 194/38/17 191/39/17
s 0
f 91/40/5 92/41/5 94/42/5
f 95/43/6 98/44/6 99/45/6
s 1
f 109/46/6 82/47/18 81/48/18
f 72/34/4 84/49/4 66/50/4
f 72/34/3 85/51/3 83/52/3
f 103/53/19 85/51/2 78/54/2
f 101/55/20 84/49/21 105/56/22
f 65/35/4 86/57/4 71/36/4
f 111/58/20 87/59/21 65/35/21
f 109/46/23 88/60/2 112/61/24
f 71/36/3 88/60/3 77/62/25
f 75/63/3 89/64/3 70/65/3
f 116/66/2 120/67/2 117/68/2
f 197/69/26 192/37/17 199/70/27
s 0
f 79/71/21 92/72/21 68/73/21
f 80/74/4 93/75/4 79/71/4
s 1
f 70/65/3 94/76/3 80/74/3
f 69/77/28 96/78/3 95/43/3
s 0
f 82/47/4 96/78/4 81/48/4
f 67/79/21 97/80/21 82/47/21
s 1
f 194/38/17 204/81/29 191/39/17
f 118/82/2 122/83/2 115/84/2
f 69/77/28 100/85/3 76/86/3
f 103/53/30 80/74/31 79/71/5
f 102/87/32 106/88/33 103/53/19
f 101/55/20 107/89/34 102/87/34
f 110/90/34 113/91/20 111/58/20
f 109/46/23 114/92/32 110/90/32
s 0
f 104/93/6 101/55/6 102/87/6
s 1
f 104/93/5 102/87/5 103/53/30
s 0
f 84/49/5 85/51/5 107/89/5
s 1
f 108/94/6 109/46/6 110/90/6
s 0
f 108/94/5 110/90/5 111/58/5
f 88/60/6 87/59/6 114/92/6
s 1
f 133/95/1 129/96/1 137/97/1
f 149/98/3 145/99/3 153/100/3
f 123/101/1 161/102/35 127/103/1
f 155/104/36 169/105/37 159/106/38
f 163/107/39 151/108/3 167/109/40
f 139/110/3 177/111/41 143/112/3
f 171/113/42 185/114/43 175/115/44
f 179/116/45 135/117/1 183/118/46
f 74/119/47 125/120/47 132/121/47
f 115/84/48 137/97/48 128/122/48
f 76/86/49 141/123/49 148/124/49
f 117/68/50 153/100/50 144/125/50
f 91/126/47 157/127/51 126/128/47
f 116/66/48 127/103/48 160/129/52
f 90/130/53 165/131/53 158/132/54
f 119/133/55 159/106/55 168/134/56
f 75/63/49 147/135/49 166/136/57
f 120/67/50 167/109/58 154/137/50
f 100/85/49 173/138/59 142/139/49
f 118/82/50 143/112/50 176/140/60
f 99/45/61 181/141/61 174/142/62
f 121/143/63 175/115/63 184/144/64
f 73/145/47 131/146/47 182/147/65
f 122/83/48 183/118/66 138/148/48
f 124/149/1 129/96/1 125/120/1
f 123/101/1 130/150/1 124/149/1
f 134/151/1 135/117/1 131/146/1
f 133/95/1 136/152/1 134/151/1
f 140/153/3 145/99/3 141/123/3
f 139/110/3 146/154/3 140/153/3
f 150/155/3 151/108/3 147/135/3
f 149/98/3 152/156/3 150/155/3
f 156/157/67 161/102/35 157/127/68
f 155/104/36 162/158/69 156/157/69
f 164/159/70 169/105/37 165/131/71
f 163/107/39 170/160/72 164/159/72
f 172/161/73 177/111/41 173/138/74
f 171/113/42 178/162/75 172/161/76
f 180/163/77 185/114/43 181/141/78
f 179/116/45 186/164/79 180/163/79
f 126/128/47 123/101/47 124/149/47
f 126/128/47 124/149/47 125/120/47
f 128/122/48 129/96/48 130/150/48
f 128/122/48 130/150/48 127/103/48
f 132/121/47 133/95/47 134/151/47
f 132/121/47 134/151/47 131/146/47
f 138/148/48 135/117/48 136/152/48
f 138/148/48 136/152/48 137/97/48
f 142/139/49 139/110/49 140/153/49
f 142/139/49 140/153/49 141/123/49
f 144/125/50 145/99/50 146/154/50
f 144/125/50 146/154/50 143/112/50
f 148/124/49 149/98/49 150/155/49
f 148/124/49 150/155/49 147/135/49
f 154/137/50 151/108/80 152/156/50
f 154/137/50 152/156/50 153/100/50
f 158/132/54 155/104/53 156/157/81
f 158/132/54 156/157/81 157/127/51
f 160/129/52 161/102/82 162/158/83
f 160/129/52 162/158/83 159/106/55
f 166/136/57 163/107/49 164/159/84
f 166/136/57 164/159/84 165/131/53
f 168/134/56 169/105/55 170/160/85
f 168/134/56 170/160/85 167/109/58
f 174/142/62 171/113/61 172/161/86
f 174/142/62 172/161/86 173/138/59
f 176/140/60 177/111/87 178/162/88
f 176/140/60 178/162/88 175/115/63
f 182/147/65 179/116/89 180/163/90
f 182/147/65 180/163/90 181/141/61
f 184/144/64 185/114/63 186/164/91
f 184/144/64 186/164/91 183/118/66
f 188/165/17 91/126/17 74/119/17
f 188/166/17 73/167/17 189/168/17
f 189/169/17 99/45/17 190/170/17
f 68/73/4 191/39/4 67/79/4
f 189/169/2 193/171/2 188/165/2
f 92/72/5 196/172/92 200/173/93
f 98/44/6 203/174/94 190/170/6
f 195/175/95 200/173/93 196/172/92
f 197/69/26 198/176/96 195/175/96
f 202/177/97 205/178/98 204/81/29
f 201/179/99 206/180/100 205/178/99
f 196/172/2 188/165/2 197/69/2
f 199/70/4 68/73/4 200/173/4
f 202/177/2 189/169/2 203/174/2
f 67/79/4 204/81/4 206/180/4
s 0
f 2/1/1 4/4/1 3/2/1
f 4/4/2 6/6/2 5/5/2
f 6/6/3 8/8/3 7/7/3
f 8/8/4 2/27/4 1/9/4
f 8/10/5 6/240/5 4/4/5
f 1/3/6 3/2/6 5/11/6
f 10/1/1 12/4/1 11/2/1
f 12/4/2 14/6/2 13/5/2
f 14/6/3 16/8/3 15/7/3
f 16/8/4 10/27/4 9/9/4
f 16/10/5 14/240/5 12/4/5
f 9/3/6 11/2/6 13/11/6
f 18/1/1 20/4/1 19/2/1
f 20/4/2 22/6/2 21/5/2
f 22/6/3 24/8/3 23/7/3
f 24/8/4 18/27/4 17/9/4
f 24/10/5 22/240/5 20/4/5
f 17/3/6 19/2/6 21/11/6
f 26/1/1 28/4/1 27/2/1
f 28/4/2 30/6/2 29/5/2
f 30/6/3 32/8/3 31/7/3
f 32/8/4 26/27/4 25/9/4
f 32/10/5 30/240/5 28/4/5
f 25/3/6 27/2/6 29/11/6
s 1
f 116/28/2 117/241/2 118/29/2
f 78/31/3 72/242/3 71/243/3
f 71/243/3 77/244/25 81/32/3
f 81/32/3 69/245/28 76/246/3
f 76/246/3 75/247/3 70/33/3
f 70/33/3 80/248/250 78/31/3
f 78/31/3 71/243/3 81/32/3
f 81/32/3 76/246/3 70/33/3
f 72/34/4 66/50/4 65/35/4
f 192/37/17 193/171/17 194/38/17
s 0
f 89/249/5 90/250/5 91/40/5
f 91/40/251 187/251/251 92/41/251
f 92/41/5 93/252/5 94/42/5
f 94/42/5 89/249/5 91/40/5
f 95/43/6 96/78/6 97/80/6
f 98/44/6 190/170/6 99/45/6
f 95/43/6 97/80/6 98/44/6
f 99/45/6 100/85/6 95/43/6
s 1
f 81/48/18 77/62/18 109/46/6
f 109/46/6 108/94/6 82/47/18
f 72/34/4 83/52/4 84/49/4
f 72/34/3 78/54/3 85/51/3
f 103/53/19 106/88/33 85/51/2
f 101/55/20 66/50/21 84/49/21
f 65/35/4 87/59/4 86/57/4
f 111/58/20 113/91/20 87/59/21
f 109/46/23 77/62/2 88/60/2
f 71/36/3 86/57/3 88/60/3
f 75/63/3 90/130/3 89/64/3
f 116/66/2 119/133/2 120/67/2
f 197/69/26 193/171/17 192/37/17
s 0
f 79/71/21 93/75/21 92/72/21
f 80/74/4 94/76/4 93/75/4
s 1
f 70/65/3 89/64/3 94/76/3
f 69/77/28 81/48/3 96/78/3
s 0
f 82/47/4 97/80/4 96/78/4
f 67/79/21 98/44/21 97/80/21
s 1
f 194/38/17 202/177/97 204/81/29
f 118/82/2 121/143/2 122/83/2
f 69/77/28 95/43/3 100/85/3
f 79/71/5 104/93/5 103/53/30
f 103/53/30 78/54/31 80/74/31
f 102/87/32 107/89/32 106/88/33
f 101/55/20 105/56/22 107/89/34
f 110/90/34 114/92/34 113/91/20
f 109/46/23 112/61/24 114/92/32
s 0
f 107/89/5 105/56/5 84/49/5
f 84/49/5 83/52/5 85/51/5
f 85/51/5 106/88/5 107/89/5
f 114/92/6 112/61/6 88/60/6
f 88/60/6 86/57/6 87/59/6
f 87/59/6 113/91/6 114/92/6
s 1
f 133/95/1 125/120/1 129/96/1
f 149/98/3 141/123/3 145/99/3
f 123/101/1 157/127/68 161/102/35
f 155/104/36 165/131/71 169/105/37
f 163/107/39 147/135/3 151/108/3
f 139/110/3 173/138/74 177/111/41
f 171/113/42 181/141/78 185/114/43
f 179/116/45 131/146/1 135/117/1
f 132/121/47 73/145/47 74/119/47
f 74/119/47 126/128/47 125/120/47
f 125/120/47 133/95/47 132/121/47
f 128/122/48 116/66/48 115/84/48
f 115/84/48 138/148/48 137/97/48
f 137/97/48 129/96/48 128/122/48
f 148/124/49 75/63/49 76/86/49
f 76/86/49 142/139/49 141/123/49
f 141/123/49 149/98/49 148/124/49
f 144/125/50 118/82/50 117/68/50
f 117/68/50 154/137/50 153/100/50
f 153/100/50 145/99/50 144/125/50
f 126/128/47 74/119/47 91/126/47
f 91/126/47 158/132/54 157/127/51
f 157/127/51 123/101/47 126/128/47
f 160/129/52 119/133/48 116/66/48
f 116/66/48 128/122/48 127/103/48
f 127/103/48 161/102/82 160/129/52
f 158/132/54 91/126/53 90/130/53
f 90/130/53 166/136/57 165/131/53
f 165/131/53 155/104/53 158/132/54
f 168/134/56 120/67/55 119/133/55
f 119/133/55 160/129/52 159/106/55
f 159/106/55 169/105/55 168/134/56
f 166/136/57 90/130/49 75/63/49
f 75/63/49 148/124/49 147/135/49
f 147/135/49 163/107/49 166/136/57
f 154/137/50 117/68/50 120/67/50
f 120/67/50 168/134/56 167/109/58
f 167/109/58 151/108/80 154/137/50
f 142/139/49 76/86/49 100/85/49
f 100/85/49 174/142/62 173/138/59
f 173/138/59 139/110/49 142/139/49
f 176/140/60 121/143/50 118/82/50
f 118/82/50 144/125/50 143/112/50
f 143/112/50 177/111/87 176/140/60
f 174/142/62 100/85/61 99/45/61
f 99/45/61 182/147/65 181/141/61
f 181/141/61 171/113/61 174/142/62
f 184/144/64 122/83/63 121/143/63
f 121/143/63 176/140/60 175/115/63
f 175/115/63 185/114/63 184/144/64
f 182/147/65 99/45/47 73/145/47
f 73/145/47 132/121/47 131/146/47
f 131/146/47 179/116/89 182/147/65
f 138/148/48 115/84/48 122/83/48
f 122/83/48 184/144/64 183/118/66
f 183/118/66 135/117/48 138/148/48
f 124/149/1 130/150/1 129/96/1
f 123/101/1 127/103/1 130/150/1
f 134/151/1 136/152/1 135/117/1
f 133/95/1 137/97/1 136/152/1
f 140/153/3 146/154/3 145/99/3
f 139/110/3 143/112/3 146/154/3
f 150/155/3 152/156/3 151/108/3
f 149/98/3 153/100/3 152/156/3
f 156/157/67 162/158/67 161/102/35
f 155/104/36 159/106/38 162/158/69
f 164/159/70 170/160/70 169/105/37
f 163/107/39 167/109/40 170/160/72
f 172/161/73 178/162/73 177/111/41
f 171/113/42 175/115/44 178/162/75
f 180/163/77 186/164/77 185/114/43
f 179/116/45 183/118/46 186/164/79
f 188/165/17 187/253/17 91/126/17
f 188/166/17 74/254/17 73/167/17
f 189/169/17 73/145/17 99/45/17
f 68/73/4 192/37/4 191/39/4
f 189/169/2 194/38/2 193/171/2
f 92/72/5 187/253/5 196/172/92
f 98/44/6 206/180/100 203/174/94
f 195/175/95 198/176/95 200/173/93
f 197/69/26 199/70/27 198/176/96
f 202/177/97 201/179/98 205/178/98
f 201/179/99 203/174/94 206/180/100
f 197/69/2 195/175/2 196/172/2
f 196/172/2 187/253/2 188/165/2
f 188/165/2 193/171/2 197/69/2
f 200/173/4 198/176/4 199/70/4
f 199/70/4 192/37/4 68/73/4
f 68/73/4 92/72/4 200/173/4
f 203/174/2 201/179/2 202/177/2
f 202/177/2 194/38/2 189/169/2
f 189/169/2 190/170/2 203/174/2
f 206/180/4 98/44/4 67/79/4
f 67/79/4 191/39/4 204/81/4
f 204/81/4 205/178/4 206/180/4
usemtl Material.002
f 58/13/1 43/14/1 59/15/1
f 44/14/7 37/5/8 35/2/9
f 37/5/3 46/16/3 39/7/3
f 46/16/4 33/9/4 39/7/4
f 40/10/5 36/4/5 34/1/5
f 33/3/6 37/11/6 39/12/6
f 41/17/4 58/13/4 57/3/4
f 36/4/5 54/1/5 34/1/5
f 60/2/10 49/18/11 36/4/12
f 35/2/6 57/3/6 60/2/6
f 41/17/4 48/19/4 42/17/4
f 42/17/1 49/18/1 43/14/1
s 0
f 61/14/2 64/20/2 62/21/2
s 1
f 45/21/3 52/22/3 46/16/3
f 46/16/4 47/23/4 41/24/4
f 47/19/4 54/1/4 53/25/4
f 48/19/1 55/26/1 49/18/1
f 50/18/13 38/6/14 51/20/14
f 52/22/3 38/6/3 40/8/3
f 52/22/4 34/27/4 47/23/4
s 0
f 54/1/15 55/26/15 53/25/15
f 58/13/16 60/2/16 57/3/16
f 44/14/6 62/21/6 45/21/6
f 50/18/1 61/14/1 44/14/1
f 51/20/5 63/18/5 50/18/5
f 45/21/3 64/20/3 51/20/3
s 1
f 58/13/1 42/17/1 43/14/1
f 44/14/7 45/21/8 37/5/8
f 37/5/3 45/21/3 46/16/3
f 46/16/4 41/24/4 33/9/4
f 40/10/5 38/240/5 36/4/5
f 33/3/6 35/2/6 37/11/6
f 57/3/4 33/3/4 41/17/4
f 41/17/4 42/17/4 58/13/4
f 36/4/5 56/4/5 54/1/5
f 36/4/12 50/18/13 44/14/7
f 44/14/7 35/2/9 60/2/10
f 60/2/10 59/15/2 43/14/2
f 49/18/11 55/26/2 56/4/249
f 60/2/10 43/14/2 49/18/11
f 36/4/12 44/14/7 60/2/10
f 49/18/11 56/4/249 36/4/12
f 35/2/6 33/3/6 57/3/6
f 41/17/4 47/19/4 48/19/4
f 42/17/1 48/19/1 49/18/1
s 0
f 61/14/2 63/18/2 64/20/2
s 1
f 45/21/3 51/20/3 52/22/3
f 46/16/4 52/22/4 47/23/4
f 53/25/4 48/19/4 47/19/4
f 47/19/4 34/1/4 54/1/4
f 48/19/1 53/25/1 55/26/1
f 50/18/13 36/4/12 38/6/14
f 52/22/3 51/20/3 38/6/3
f 52/22/4 40/8/4 34/27/4
s 0
f 54/1/15 56/4/15 55/26/15
f 58/13/16 59/15/16 60/2/16
f 44/14/6 61/14/6 62/21/6
f 50/18/1 63/18/1 61/14/1
f 51/20/5 64/20/5 63/18/5
f 45/21/3 62/21/3 64/20/3
usemtl Material.005
f 232/181/101 234/2/101 231/182/101
s 1
f 210/4/102 214/183/103 209/2/104
s 0
f 362/184/105 364/7/105 361/185/105
f 212/8/4 207/9/4 211/7/4
s 1
f 217/186/106 218/184/107 213/185/107
f 216/5/108 219/187/106 217/186/106
f 215/188/109 220/6/108 216/5/108
f 214/183/103 221/189/109 215/188/109
f 211/12/6 225/182/6 214/190/6
f 344/191/5 219/192/5 221/193/5
s 0
f 208/1/110 223/194/110 207/3/110
f 255/181/111 258/182/111 261/181/111
f 228/181/112 233/4/112 232/181/112
f 230/2/113 233/4/113 229/4/113
f 227/182/114 234/2/114 230/2/114
f 223/194/115 236/195/115 235/194/115
s 1
f 246/196/116 237/181/116 245/196/116
f 243/197/117 238/182/117 225/182/117
s 0
f 228/181/6 239/4/6 229/4/6
f 229/4/4 241/2/4 230/2/4
f 227/182/5 241/2/5 242/182/5
s 1
f 244/197/117 341/198/117 342/198/117
f 343/191/118 244/197/118 342/198/118
f 344/191/116 245/196/116 343/191/116
s 0
f 245/196/119 247/197/120 244/197/120
f 245/196/118 249/181/118 248/196/118
f 237/181/121 250/182/122 249/181/121
f 244/197/118 250/182/118 238/182/118
f 247/197/1 252/196/1 251/197/1
f 249/181/118 252/196/118 248/196/118
f 247/197/118 254/182/118 250/182/118
f 232/181/123 255/181/123 228/181/123
f 232/181/4 257/182/4 256/181/4
f 231/182/124 258/182/124 257/182/124
f 227/182/125 259/182/125 258/182/125
f 238/182/126 259/182/126 225/182/126
f 238/182/127 261/181/127 260/182/127
f 237/181/128 262/181/128 261/181/128
f 228/181/129 262/181/129 226/181/129
s 1
f 253/181/4 263/181/130 264/181/131
s 0
f 250/182/2 263/181/2 249/181/2
s 1
f 254/182/4 265/182/132 250/182/4
s 0
f 254/182/133 268/182/133 266/182/133
f 264/181/134 269/181/134 253/181/134
s 1
f 271/196/135 274/199/136 272/200/137
f 273/196/138 275/181/139 271/196/140
f 278/197/141 281/182/142 280/201/143
f 277/197/144 282/202/145 281/182/146
f 279/203/147 274/199/136 282/202/145
f 252/196/148 276/204/149 273/196/138
f 251/197/150 280/201/143 254/182/151
f 267/182/152 289/182/153 268/182/154
f 285/205/155 298/206/156 291/207/157
f 269/181/158 300/181/159 294/181/160
f 254/182/151 283/182/161 267/182/162
f 289/182/163 266/182/164 268/182/164
f 274/199/136 285/205/165 282/202/145
f 298/206/166 287/208/167 291/207/168
f 253/181/169 294/181/170 276/204/149
f 264/181/171 300/181/172 270/181/171
s 0
f 336/196/173 338/196/173 340/203/173
s 1
f 264/182/131 263/182/130 265/182/174
f 274/199/136 293/181/175 292/209/176
f 276/204/149 293/181/177 275/181/139
f 280/201/143 284/182/178 283/182/161
f 282/202/145 284/182/179 281/182/146
f 283/182/180 290/182/181 289/182/153
f 285/205/155 290/182/181 284/182/182
f 287/208/167 290/182/183 291/207/168
f 288/182/184 290/182/185 286/182/185
f 292/209/186 299/181/187 298/206/156
f 294/181/160 299/181/187 293/181/188
f 296/181/189 299/181/190 300/181/172
f 297/210/191 299/181/192 295/181/192
s 0
f 277/197/1 301/197/1 302/197/1
f 278/197/1 303/197/193 301/197/1
f 251/197/194 304/196/195 303/197/196
f 252/196/197 305/196/198 304/196/197
f 273/196/1 306/196/1 305/196/1
f 271/196/1 307/200/199 306/196/1
f 279/203/200 307/200/201 272/200/201
f 279/203/202 302/197/203 308/203/202
f 301/197/173 310/197/173 302/197/173
f 301/197/204 311/197/204 309/197/204
f 304/196/173 311/197/173 303/197/173
f 305/196/173 312/196/173 304/196/173
f 305/196/173 314/196/173 313/196/173
f 307/200/204 314/196/204 306/196/204
f 308/203/173 315/200/173 307/200/173
f 308/203/173 310/197/173 316/203/173
f 309/197/205 318/197/205 310/197/205
f 311/197/206 317/197/206 309/197/206
f 312/196/3 319/197/3 311/197/3
f 312/196/207 321/196/207 320/196/207
f 313/196/208 322/196/208 321/196/208
f 314/196/209 323/200/209 322/196/209
f 316/203/1 323/200/1 315/200/1
f 310/197/210 324/203/210 316/203/210
f 318/197/211 325/197/211 326/197/211
f 319/197/212 325/197/212 317/197/212
f 319/197/211 328/196/211 327/197/211
f 320/196/212 329/196/212 328/196/212
f 322/196/212 329/196/212 321/196/212
f 322/196/211 331/200/211 330/196/211
f 324/203/211 331/200/211 323/200/211
f 318/197/211 332/203/211 324/203/211
f 325/197/213 334/197/213 326/197/213
f 327/197/206 333/197/206 325/197/206
f 328/196/3 335/197/3 327/197/3
f 328/196/207 337/196/207 336/196/207
f 329/196/208 338/196/208 337/196/208
f 330/196/214 339/200/214 338/196/214
f 332/203/1 339/200/1 331/200/1
f 326/197/210 340/203/210 332/203/210
s 1
f 342/198/117 223/194/117 235/194/117
f 236/195/118 342/198/118 235/194/118
f 224/195/116 343/191/116 236/195/116
f 347/181/215 348/211/216 345/181/217
f 346/181/218 349/4/219 347/181/220
f 345/181/217 239/4/221 240/181/222
f 348/211/216 241/2/221 239/4/221
f 354/182/223 241/2/221 351/212/224
f 226/181/5 350/4/225 346/181/218
f 209/2/104 350/4/226 210/4/102
f 225/182/6 353/2/227 209/2/6
s 0
f 240/181/228 226/181/228 347/181/228
f 227/182/229 354/182/229 356/182/229
s 1
f 349/4/230 351/212/224 348/211/216
f 350/4/226 352/2/231 349/4/232
f 351/212/224 355/182/233 354/182/223
f 352/2/234 356/182/235 355/182/236
s 0
f 218/184/237 357/185/237 213/185/237
f 212/8/238 358/184/238 218/184/238
f 211/7/239 359/8/239 212/8/239
f 211/7/240 357/185/240 360/7/240
f 357/185/241 362/184/241 361/185/241
f 358/184/242 363/8/242 362/184/242
f 360/7/243 363/8/243 359/8/243
f 357/185/244 364/7/244 360/7/244
f 232/181/101 233/4/101 234/2/101
s 1
f 210/4/102 222/255/103 214/183/103
s 0
f 362/184/105 363/8/105 364/7/105
f 212/8/4 208/27/4 207/9/4
s 1
f 217/186/106 219/187/106 218/184/107
f 216/5/108 220/6/108 219/187/106
f 215/188/109 221/189/109 220/6/108
f 214/183/103 222/255/103 221/189/109
f 217/256/6 213/257/6 211/12/6
f 211/12/6 207/3/6 223/194/6
f 341/198/6 243/197/252 225/182/6
f 211/12/6 223/194/6 341/198/6
f 216/11/6 217/256/6 211/12/6
f 214/190/6 215/258/6 216/11/6
f 225/182/6 209/2/6 214/190/6
f 211/12/6 341/198/6 225/182/6
f 214/190/6 216/11/6 211/12/6
f 222/259/5 210/4/5 226/181/5
f 226/181/5 246/196/253 344/191/5
f 224/195/5 208/1/5 212/10/5
f 222/259/5 226/181/5 344/191/5
f 344/191/5 224/195/5 212/10/5
f 212/10/5 218/260/5 219/192/5
f 219/192/5 220/240/5 221/193/5
f 221/193/5 222/259/5 344/191/5
f 344/191/5 212/10/5 219/192/5
s 0
f 208/1/110 224/195/110 223/194/110
f 255/181/254 256/181/254 257/182/254
f 258/182/255 259/182/255 260/182/255
f 255/181/254 257/182/254 258/182/254
f 261/181/256 262/181/256 255/181/256
f 258/182/111 260/182/111 261/181/111
f 228/181/112 229/4/112 233/4/112
f 230/2/113 234/2/113 233/4/113
f 227/182/114 231/182/114 234/2/114
f 223/194/115 224/195/115 236/195/115
s 1
f 246/196/116 226/181/116 237/181/116
f 243/197/117 244/197/117 238/182/117
s 0
f 228/181/6 240/181/6 239/4/6
f 229/4/4 239/4/4 241/2/4
f 227/182/5 230/2/5 241/2/5
s 1
f 244/197/117 243/197/117 341/198/117
f 343/191/118 245/196/118 244/197/118
f 344/191/116 246/196/116 245/196/116
s 0
f 245/196/120 248/196/120 247/197/257
f 245/196/118 237/181/118 249/181/118
f 237/181/258 238/182/121 250/182/121
f 244/197/118 247/197/118 250/182/118
f 247/197/3 248/196/3 252/196/3
f 249/181/118 253/181/118 252/196/118
f 247/197/118 251/197/118 254/182/118
f 232/181/259 256/181/259 255/181/259
f 232/181/4 231/182/4 257/182/4
f 231/182/260 227/182/260 258/182/260
f 227/182/261 225/182/261 259/182/261
f 238/182/262 260/182/262 259/182/262
f 238/182/127 237/181/127 261/181/127
f 237/181/263 226/181/263 262/181/263
f 228/181/264 255/181/264 262/181/264
s 1
f 253/181/4 249/181/4 263/181/130
s 0
f 250/182/2 265/182/2 263/181/2
s 1
f 254/182/4 266/182/265 265/182/132
s 0
f 254/182/266 267/182/266 268/182/266
f 264/181/267 270/181/267 269/181/267
s 1
f 271/196/135 275/181/268 274/199/136
f 273/196/138 276/204/149 275/181/139
f 278/197/141 277/197/269 281/182/142
f 277/197/144 279/203/147 282/202/145
f 279/203/147 272/200/137 274/199/136
f 252/196/148 253/181/169 276/204/149
f 251/197/150 278/197/141 280/201/143
f 267/182/152 283/182/180 289/182/153
f 285/205/155 292/209/186 298/206/156
f 269/181/158 270/181/270 300/181/159
f 254/182/151 280/201/143 283/182/161
f 289/182/163 288/182/184 266/182/164
f 274/199/136 292/209/176 285/205/165
f 298/206/166 297/210/191 287/208/167
f 253/181/169 269/181/271 294/181/170
f 264/181/171 296/181/189 300/181/172
s 0
f 340/203/173 334/197/173 333/197/173
f 333/197/173 335/197/173 336/196/173
f 336/196/173 337/196/173 338/196/173
f 338/196/173 339/200/173 340/203/173
f 340/203/173 333/197/173 336/196/173
s 1
f 297/210/272 295/181/272 296/181/272
f 297/210/272 296/181/272 264/182/131
f 286/182/272 287/208/272 297/210/272
f 266/182/273 288/182/272 286/182/272
f 266/182/273 286/182/272 297/210/272
f 266/182/273 297/210/272 264/182/131
f 265/182/174 266/182/273 264/182/131
f 274/199/136 275/181/268 293/181/175
f 276/204/149 294/181/170 293/181/177
f 280/201/143 281/182/142 284/182/178
f 282/202/145 285/205/165 284/182/179
f 283/182/180 284/182/182 290/182/181
f 285/205/155 291/207/157 290/182/181
f 287/208/167 286/182/183 290/182/183
f 288/182/184 289/182/163 290/182/185
f 292/209/186 293/181/188 299/181/187
f 294/181/160 300/181/159 299/181/187
f 296/181/189 295/181/274 299/181/190
f 297/210/191 298/206/166 299/181/192
s 0
f 277/197/1 278/197/1 301/197/1
f 278/197/275 251/197/276 303/197/276
f 251/197/277 252/196/278 304/196/279
f 252/196/280 273/196/1 305/196/1
f 273/196/1 271/196/1 306/196/1
f 271/196/281 272/200/282 307/200/282
f 279/203/201 308/203/201 307/200/283
f 279/203/284 277/197/1 302/197/1
f 301/197/173 309/197/173 310/197/173
f 301/197/173 303/197/173 311/197/173
f 304/196/173 312/196/173 311/197/173
f 305/196/204 313/196/204 312/196/204
f 305/196/173 306/196/173 314/196/173
f 307/200/173 315/200/173 314/196/173
f 308/203/204 316/203/204 315/200/204
f 308/203/204 302/197/204 310/197/204
f 309/197/213 317/197/213 318/197/213
f 311/197/206 319/197/206 317/197/206
f 312/196/3 320/196/3 319/197/3
f 312/196/207 313/196/207 321/196/207
f 313/196/208 314/196/208 322/196/208
f 314/196/285 315/200/285 323/200/285
f 316/203/1 324/203/1 323/200/1
f 310/197/286 318/197/286 324/203/286
f 318/197/212 317/197/212 325/197/212
f 319/197/212 327/197/212 325/197/212
f 319/197/211 320/196/211 328/196/211
f 320/196/212 321/196/212 329/196/212
f 322/196/211 330/196/211 329/196/211
f 322/196/211 323/200/211 331/200/211
f 324/203/211 332/203/211 331/200/211
f 318/197/211 326/197/211 332/203/211
f 325/197/205 333/197/205 334/197/205
f 327/197/206 335/197/206 333/197/206
f 328/196/3 336/196/3 335/197/3
f 328/196/207 329/196/207 337/196/207
f 329/196/208 330/196/208 338/196/208
f 330/196/285 331/200/285 339/200/285
f 332/203/1 340/203/1 339/200/1
f 326/197/286 334/197/286 340/203/286
s 1
f 342/198/117 341/198/117 223/194/117
f 236/195/118 343/191/118 342/198/118
f 224/195/116 344/191/116 343/191/116
f 347/181/215 349/4/230 348/211/216
f 346/181/218 350/4/225 349/4/219
f 345/181/217 348/211/216 239/4/221
f 348/211/216 351/212/224 241/2/221
f 354/182/223 242/182/287 241/2/221
f 226/181/5 210/4/5 350/4/225
f 209/2/104 353/2/288 350/4/226
f 225/182/6 356/182/235 353/2/227
s 0
f 347/181/289 345/181/289 240/181/289
f 240/181/228 228/181/228 226/181/228
f 226/181/228 346/181/228 347/181/228
f 356/182/229 225/182/229 227/182/229
f 227/182/229 242/182/229 354/182/229
f 354/182/290 355/182/290 356/182/290
s 1
f 349/4/230 352/2/291 351/212/224
f 350/4/226 353/2/288 352/2/231
f 351/212/224 352/2/291 355/182/233
f 352/2/234 353/2/227 356/182/235
s 0
f 218/184/237 358/184/237 357/185/237
f 212/8/238 359/8/238 358/184/238
f 211/7/239 360/7/239 359/8/239
f 211/7/240 213/185/240 357/185/240
f 357/185/241 358/184/241 362/184/241
f 358/184/242 359/8/242 363/8/242
f 360/7/243 364/7/243 363/8/243
f 357/185/244 361/185/244 364/7/244
usemtl Material.004
f 366/1/245 367/2/245 365/3/245
f 368/4/246 369/5/246 367/2/246
f 370/6/247 371/7/247 369/5/247
f 372/8/248 365/9/248 371/7/248
f 372/10/5 368/4/5 366/1/5
f 371/12/6 367/2/6 369/11/6
f 366/1/245 368/4/245 367/2/245
f 368/4/292 370/6/292 369/5/292
f 370/6/247 372/8/247 371/7/247
f 372/8/248 366/27/248 365/9/248
f 372/10/5 370/240/5 368/4/5
f 371/12/6 365/3/6 367/2/6
usemtl Material.003
f 386/213/1 388/214/1 385/215/1
f 376/216/2 377/217/2 375/218/2
f 378/219/3 379/220/3 377/221/3
f 380/222/4 373/223/4 379/224/4
f 374/225/5 378/226/5 376/227/5
f 373/228/6 377/229/6 379/230/6
f 373/231/1 382/232/1 381/233/1
f 374/234/1 383/235/1 382/232/1
f 376/236/1 384/237/1 383/235/1
f 375/238/1 381/233/1 384/237/1
f 381/233/1 386/213/1 385/215/1
f 382/232/1 387/239/1 386/213/1
f 383/235/1 388/214/1 387/239/1
f 384/237/1 385/215/1 388/214/1
f 386/213/1 387/239/1 388/214/1
f 376/216/2 378/261/2 377/217/2
f 378/219/3 380/262/3 379/220/3
f 380/222/4 374/263/4 373/223/4
f 374/225/5 380/264/5 378/226/5
f 373/228/6 375/265/6 377/229/6
f 373/231/1 374/234/1 382/232/1
f 374/234/1 376/236/1 383/235/1
f 376/236/1 375/238/1 384/237/1
f 375/238/1 373/231/1 381/233/1
f 381/233/1 382/232/1 386/213/1
f 382/232/1 383/235/1 387/239/1
f 383/235/1 384/237/1 388/214/1
f 384/237/1 381/233/1 385/215/1
