# Blender 3.6.22
# www.blender.org
mtllib LETRERO_STEVEN.mtl
o defaultMaterial
v -0.535714 0.789990 0.112372
v -0.267857 0.789990 0.112372
v -0.267857 0.829673 0.112372
v -0.500000 0.829673 0.112372
v 0.000000 0.789990 0.112372
v 0.000000 0.829673 0.112372
v 0.267857 0.789990 0.112372
v 0.267857 0.829673 0.112372
v 0.535714 0.789990 0.112372
v 0.535714 0.829673 0.112372
v -0.535714 0.948720 0.112372
v -0.267857 0.948720 0.112372
v -0.267857 0.988403 0.112372
v -0.535714 0.988403 0.112372
v 0.000000 0.948720 0.112372
v 0.000000 0.988403 0.112372
v 0.267857 0.948720 0.112372
v 0.267857 0.988403 0.112372
v 0.535714 0.948720 0.112372
v 0.500000 0.988403 0.112372
v -0.535714 1.028086 0.112372
v -0.267857 1.028086 0.112372
v -0.267857 1.186816 0.112372
v -0.535714 1.186816 0.112372
v 0.000000 1.028086 0.112372
v 0.000000 1.186816 0.112372
v 0.267857 1.028086 0.112372
v 0.267857 1.186816 0.112372
v 0.535714 1.028086 0.112372
v 0.535714 1.186816 0.112372
v -0.535714 1.186816 0.112372
v -0.267857 1.186816 0.112372
v -0.267857 1.186816 0.040943
v -0.535714 1.186816 0.040943
v 0.000000 1.186816 0.112372
v 0.000000 1.186816 0.040943
v 0.267857 1.186816 0.112372
v 0.267857 1.186816 0.040943
v 0.535714 1.186816 0.112372
v 0.535714 1.186816 0.040943
v -0.535714 1.186816 0.040943
v -0.267857 1.186816 0.040943
v -0.267857 1.028086 0.040943
v -0.535714 1.028086 0.040943
v 0.000000 1.186816 0.040943
v 0.000000 1.028086 0.040943
v 0.267857 1.186816 0.040943
v 0.267857 1.028086 0.040943
v 0.535714 1.186816 0.040943
v 0.535714 1.028086 0.040943
v -0.535714 0.988403 0.040943
v -0.267857 0.988403 0.040943
v -0.267857 0.948720 0.040943
v -0.535714 0.948720 0.040943
v 0.000000 0.988403 0.040943
v 0.000000 0.948720 0.040943
v 0.267857 0.988403 0.040943
v 0.267857 0.948720 0.040943
v 0.500000 0.988403 0.040943
v 0.535714 0.948720 0.040943
v -0.500000 0.829673 0.040943
v -0.267857 0.829673 0.040943
v -0.267857 0.789990 0.040943
v -0.535714 0.789990 0.040943
v 0.000000 0.829673 0.040943
v 0.000000 0.789990 0.040943
v 0.267857 0.829673 0.040943
v 0.267857 0.789990 0.040943
v 0.535714 0.829673 0.040943
v 0.535714 0.789990 0.040943
v -0.535714 0.710625 0.040943
v -0.267857 0.710625 0.040943
v -0.267857 0.710625 0.112372
v -0.535714 0.710625 0.112372
v 0.000000 0.710625 0.040943
v 0.000000 0.710625 0.112372
v 0.267857 0.710625 0.040943
v 0.267857 0.710625 0.112372
v 0.535714 0.710625 0.040943
v 0.535714 0.710625 0.112372
v 0.535714 0.789990 0.112372
v 0.535714 0.789990 0.040943
v 0.535714 0.829673 0.040943
v 0.535714 0.829673 0.112372
v 0.535714 0.948720 0.112372
v 0.535714 0.948720 0.040943
v 0.500000 0.988403 0.040943
v 0.500000 0.988403 0.112372
v 0.535714 1.028086 0.112372
v 0.535714 1.028086 0.040943
v 0.535714 1.186816 0.040943
v 0.535714 1.186816 0.112372
v -0.535714 0.789990 0.040943
v -0.535714 0.789990 0.112372
v -0.500000 0.829673 0.112372
v -0.500000 0.829673 0.040943
v -0.535714 0.948720 0.040943
v -0.535714 0.948720 0.112372
v -0.535714 0.988403 0.112372
v -0.535714 0.988403 0.040943
v -0.535714 1.028086 0.040943
v -0.535714 1.028086 0.112372
v -0.535714 1.186816 0.112372
v -0.535714 1.186816 0.040943
v -0.535714 0.869355 0.112372
v -0.267857 0.869355 0.112372
v 0.000000 0.869355 0.112372
v 0.267857 0.869355 0.112372
v 0.535714 0.869355 0.112372
v 0.535714 0.869355 0.112372
v 0.535714 0.869355 0.040943
v 0.535714 0.869355 0.040943
v 0.267857 0.869355 0.040943
v 0.000000 0.869355 0.040943
v -0.267857 0.869355 0.040943
v -0.535714 0.869355 0.040943
v -0.535714 0.869355 0.040943
v -0.535714 0.869355 0.112372
v 0.500000 0.988403 0.112372
v 0.500000 0.988403 0.040943
v -0.535714 0.710625 0.112372
v -0.267857 0.710625 0.112372
v 0.000000 0.710625 0.112372
v 0.267857 0.710625 0.112372
v 0.535714 0.710625 0.112372
v 0.535714 0.710625 0.112372
v 0.535714 0.710625 0.040943
v 0.535714 0.710625 0.040943
v 0.267857 0.710625 0.040943
v 0.000000 0.710625 0.040943
v -0.267857 0.710625 0.040943
v -0.535714 0.710625 0.040943
v -0.535714 0.710625 0.040943
v -0.535714 0.710625 0.112372
v -0.500000 0.829673 0.040943
v -0.500000 0.829673 0.112372
vn -0.0000 -0.0000 1.0000
vn -0.0000 1.0000 -0.0000
vn -0.0000 -0.0000 -1.0000
vn -0.0000 -1.0000 -0.0000
vn 1.0000 -0.0000 -0.0000
vn 0.9578 0.2874 -0.0000
vn 0.9842 -0.1771 -0.0001
vn 0.9842 -0.1771 -0.0000
vn -1.0000 -0.0000 -0.0000
vn -0.9578 0.2874 -0.0000
vn -0.9578 -0.2874 -0.0000
vt 0.059601 0.256257
vt 0.028254 0.176274
vt 0.260942 0.171186
vt 0.261264 0.251847
vt 0.493630 0.166098
vt 0.493953 0.246758
vt 0.726319 0.161009
vt 0.726641 0.241670
vt 0.959007 0.155920
vt 0.959329 0.236581
vt 0.029865 0.579576
vt 0.029543 0.498915
vt 0.262231 0.493827
vt 0.262553 0.574487
vt 0.494919 0.488738
vt 0.495241 0.569399
vt 0.727607 0.483650
vt 0.727929 0.564310
vt 0.960295 0.478561
vt 0.929593 0.559900
vt 0.031476 0.982877
vt 0.030187 0.660237
vt 0.262875 0.655148
vt 0.264164 0.977789
vt 0.495563 0.650060
vt 0.496852 0.972700
vt 0.728252 0.644971
vt 0.729540 0.967612
vt 0.960940 0.639883
vt 0.962228 0.962523
vt 0.613648 0.304231
vt 0.611064 0.304231
vt 0.611064 0.269478
vt 0.639305 0.344943
vt 0.639306 0.322434
vt 0.635689 0.322434
vt 0.642923 0.344943
vt 0.642924 0.322435
vt 0.605841 0.231616
vt 0.608424 0.231616
vt 0.608424 0.266369
vt 0.605841 0.266369
vt 0.608424 0.301122
vt 0.650159 0.344944
vt 0.650160 0.322436
vt 0.646542 0.322435
vt 0.292157 0.637949
vt 0.278050 0.637949
vt 0.278050 0.624155
vt 0.292157 0.624155
vt 0.278050 0.610360
vt 0.292157 0.610360
vt 0.278050 0.596566
vt 0.292157 0.596566
vt 0.278050 0.582772
vt 0.292157 0.582772
vt 0.299210 0.637949
vt 0.295683 0.637949
vt 0.295683 0.624155
vt 0.299210 0.624155
vt 0.295683 0.610360
vt 0.299210 0.610360
vt 0.295683 0.596566
vt 0.299210 0.596566
vt 0.295683 0.584611
vt 0.299210 0.582772
vt 0.313317 0.637949
vt 0.309790 0.636110
vt 0.309790 0.624155
vt 0.313317 0.624155
vt 0.309790 0.610360
vt 0.313317 0.610360
vt 0.309790 0.596566
vt 0.313317 0.596566
vt 0.309790 0.582772
vt 0.313317 0.582772
vt 0.386084 0.000158
vt 0.414981 0.000158
vt 0.414981 0.250079
vt 0.386084 0.250079
vt 0.414981 0.500000
vt 0.386084 0.500000
vt 0.414981 0.749921
vt 0.386084 0.749921
vt 0.414981 0.999842
vt 0.386084 0.999842
vt 0.611064 0.247061
vt 0.611064 0.241913
vt 0.613648 0.241913
vt 0.613648 0.247061
vt 0.611064 0.269434
vt 0.611064 0.262507
vt 0.613648 0.262507
vt 0.613648 0.269434
vt 0.613676 0.259137
vt 0.613676 0.238542
vt 0.616260 0.238542
vt 0.616260 0.259137
vt 0.608453 0.296999
vt 0.608453 0.290072
vt 0.611036 0.290072
vt 0.611036 0.296999
vt 0.608453 0.253988
vt 0.608453 0.248840
vt 0.611036 0.248840
vt 0.611036 0.253988
vt 0.608453 0.279731
vt 0.608453 0.259137
vt 0.611036 0.259137
vt 0.611036 0.279731
vt 0.028898 0.337595
vt 0.261587 0.332506
vt 0.494275 0.327418
vt 0.726963 0.322329
vt 0.959651 0.317241
vt 0.611064 0.252210
vt 0.613648 0.252210
vt 0.306264 0.596566
vt 0.306264 0.582772
vt 0.306264 0.610360
vt 0.306264 0.624155
vt 0.306264 0.637949
vt 0.608453 0.238542
vt 0.611036 0.238542
vt 0.613676 0.231616
vt 0.616260 0.231616
vt 0.027610 0.014954
vt 0.260298 0.009866
vt 0.492986 0.004777
vt 0.725674 -0.000311
vt 0.958362 -0.005400
vt 0.611064 0.231616
vt 0.613648 0.231616
vt 0.320370 0.596566
vt 0.320370 0.582772
vt 0.320370 0.610360
vt 0.320370 0.624155
vt 0.320370 0.637949
vt 0.608453 0.279775
vt 0.611036 0.279775
vt 0.608453 0.231616
vt 0.611036 0.231616
s 0
usemtl Material.001
f 4/1/1 1/2/1 2/3/1
f 2/3/1 3/4/1 4/1/1
f 3/4/1 2/3/1 5/5/1
f 5/5/1 6/6/1 3/4/1
f 6/6/1 5/5/1 7/7/1
f 7/7/1 8/8/1 6/6/1
f 8/8/1 7/7/1 9/9/1
f 9/9/1 10/10/1 8/8/1
f 14/11/1 11/12/1 12/13/1
f 12/13/1 13/14/1 14/11/1
f 13/14/1 12/13/1 15/15/1
f 15/15/1 16/16/1 13/14/1
f 16/16/1 15/15/1 17/17/1
f 17/17/1 18/18/1 16/16/1
f 18/18/1 17/17/1 19/19/1
f 19/19/1 20/20/1 18/18/1
f 24/21/1 21/22/1 22/23/1
f 22/23/1 23/24/1 24/21/1
f 23/24/1 22/23/1 25/25/1
f 25/25/1 26/26/1 23/24/1
f 26/26/1 25/25/1 27/27/1
f 27/27/1 28/28/1 26/26/1
f 28/28/1 27/27/1 29/29/1
f 29/29/1 30/30/1 28/28/1
f 34/31/2 31/32/2 32/33/2
f 32/34/2 33/35/2 34/36/2
f 33/35/2 32/34/2 35/37/2
f 35/37/2 36/38/2 33/35/2
f 36/39/2 35/40/2 37/41/2
f 37/41/2 38/42/2 36/39/2
f 38/42/2 37/41/2 39/43/2
f 39/44/2 40/45/2 38/46/2
f 44/47/3 41/48/3 42/49/3
f 42/49/3 43/50/3 44/47/3
f 43/50/3 42/49/3 45/51/3
f 45/51/3 46/52/3 43/50/3
f 46/52/3 45/51/3 47/53/3
f 47/53/3 48/54/3 46/52/3
f 48/54/3 47/53/3 49/55/3
f 49/55/3 50/56/3 48/54/3
f 54/57/3 51/58/3 52/59/3
f 52/59/3 53/60/3 54/57/3
f 53/60/3 52/59/3 55/61/3
f 55/61/3 56/62/3 53/60/3
f 56/62/3 55/61/3 57/63/3
f 57/63/3 58/64/3 56/62/3
f 58/64/3 57/63/3 59/65/3
f 59/65/3 60/66/3 58/64/3
f 64/67/3 61/68/3 62/69/3
f 62/69/3 63/70/3 64/67/3
f 63/70/3 62/69/3 65/71/3
f 65/71/3 66/72/3 63/70/3
f 66/72/3 65/71/3 67/73/3
f 67/73/3 68/74/3 66/72/3
f 68/74/3 67/73/3 69/75/3
f 69/75/3 70/76/3 68/74/3
f 74/77/4 71/78/4 72/79/4
f 72/79/4 73/80/4 74/77/4
f 73/80/4 72/79/4 75/81/4
f 75/81/4 76/82/4 73/80/4
f 76/82/4 75/81/4 77/83/4
f 77/83/4 78/84/4 76/82/4
f 78/84/4 77/83/4 79/85/4
f 79/85/4 80/86/4 78/84/4
f 84/87/5 81/88/5 82/89/5
f 82/89/5 83/90/5 84/87/5
s 1
f 88/91/5 85/92/6 86/93/6
f 86/93/6 87/94/5 88/91/5
f 92/95/5 89/96/7 90/97/8
f 90/97/8 91/98/5 92/95/5
f 96/99/9 93/100/10 94/101/10
f 94/101/10 95/102/9 96/99/9
s 0
f 100/103/9 97/104/9 98/105/9
f 98/105/9 99/106/9 100/103/9
f 104/107/9 101/108/9 102/109/9
f 102/109/9 103/110/9 104/107/9
f 11/12/1 105/111/1 106/112/1
f 106/112/1 12/13/1 11/12/1
f 12/13/1 106/112/1 107/113/1
f 107/113/1 15/15/1 12/13/1
f 15/15/1 107/113/1 108/114/1
f 108/114/1 17/17/1 15/15/1
f 17/17/1 108/114/1 109/115/1
f 109/115/1 19/19/1 17/17/1
s 1
f 85/92/6 110/116/5 111/117/5
f 111/117/5 86/93/6 85/92/6
s 0
f 113/118/3 58/64/3 60/66/3
f 60/66/3 112/119/3 113/118/3
f 114/120/3 56/62/3 58/64/3
f 58/64/3 113/118/3 114/120/3
f 115/121/3 53/60/3 56/62/3
f 56/62/3 114/120/3 115/121/3
f 116/122/3 54/57/3 53/60/3
f 53/60/3 115/121/3 116/122/3
s 1
f 97/104/9 117/123/11 118/124/11
f 118/124/11 98/105/9 97/104/9
s 0
f 51/58/3 44/47/3 43/50/3
f 43/50/3 52/59/3 51/58/3
f 52/59/3 43/50/3 46/52/3
f 46/52/3 55/61/3 52/59/3
f 55/61/3 46/52/3 48/54/3
f 48/54/3 57/63/3 55/61/3
f 57/63/3 48/54/3 50/56/3
f 50/56/3 59/65/3 57/63/3
s 1
f 89/96/7 119/125/5 120/126/5
f 120/126/5 90/97/8 89/96/7
s 0
f 27/27/1 18/18/1 20/20/1
f 20/20/1 29/29/1 27/27/1
f 25/25/1 16/16/1 18/18/1
f 18/18/1 27/27/1 25/25/1
f 22/23/1 13/14/1 16/16/1
f 16/16/1 25/25/1 22/23/1
f 21/22/1 14/11/1 13/14/1
f 13/14/1 22/23/1 21/22/1
f 101/108/9 100/103/9 99/106/9
f 99/106/9 102/109/9 101/108/9
f 1/2/1 121/127/1 122/128/1
f 122/128/1 2/3/1 1/2/1
f 2/3/1 122/128/1 123/129/1
f 123/129/1 5/5/1 2/3/1
f 5/5/1 123/129/1 124/130/1
f 124/130/1 7/7/1 5/5/1
f 7/7/1 124/130/1 125/131/1
f 125/131/1 9/9/1 7/7/1
f 81/88/5 126/132/5 127/133/5
f 127/133/5 82/89/5 81/88/5
f 129/134/3 68/74/3 70/76/3
f 70/76/3 128/135/3 129/134/3
f 130/136/3 66/72/3 68/74/3
f 68/74/3 129/134/3 130/136/3
f 131/137/3 63/70/3 66/72/3
f 66/72/3 130/136/3 131/137/3
f 132/138/3 64/67/3 63/70/3
f 63/70/3 131/137/3 132/138/3
s 1
f 93/100/10 133/139/9 134/140/9
f 134/140/9 94/101/10 93/100/10
s 0
f 61/68/3 116/122/3 115/121/3
f 115/121/3 62/69/3 61/68/3
f 62/69/3 115/121/3 114/120/3
f 114/120/3 65/71/3 62/69/3
f 65/71/3 114/120/3 113/118/3
f 113/118/3 67/73/3 65/71/3
f 67/73/3 113/118/3 112/119/3
f 112/119/3 69/75/3 67/73/3
f 110/116/5 84/87/5 83/90/5
f 83/90/5 111/117/5 110/116/5
f 108/114/1 8/8/1 10/10/1
f 10/10/1 109/115/1 108/114/1
f 107/113/1 6/6/1 8/8/1
f 8/8/1 108/114/1 107/113/1
f 106/112/1 3/4/1 6/6/1
f 6/6/1 107/113/1 106/112/1
f 105/111/1 4/1/1 3/4/1
f 3/4/1 106/112/1 105/111/1
s 1
f 117/123/11 135/141/9 136/142/9
f 136/142/9 118/124/11 117/123/11
o defaultMaterial.001
v 0.089494 -0.061708 -0.051154
v 0.072956 -0.061708 -0.079799
v 0.072956 0.224007 -0.079799
v 0.089494 0.224007 -0.051154
v 0.047619 -0.061708 -0.101059
v 0.047619 0.224007 -0.101059
v 0.016538 -0.061708 -0.112371
v 0.016538 0.224007 -0.112371
v -0.016538 -0.061708 -0.112372
v -0.016538 0.224007 -0.112372
v -0.016538 -0.061708 -0.112372
v -0.047619 -0.061708 -0.101059
v -0.047619 0.224007 -0.101059
v -0.016538 0.224007 -0.112372
v -0.072956 -0.061708 -0.079799
v -0.072956 0.224007 -0.079799
v -0.089494 -0.061708 -0.051154
v -0.089494 0.224007 -0.051154
v -0.095238 -0.061708 -0.018581
v -0.095238 0.224007 -0.018581
v -0.089494 -0.061708 0.013993
v -0.089494 0.224007 0.013993
v -0.072956 -0.061708 0.042637
v -0.072956 0.224007 0.042637
v -0.047619 -0.061708 0.063898
v -0.047619 0.224007 0.063898
v -0.016538 -0.061708 0.075211
v -0.016538 0.224007 0.075211
v 0.016538 -0.061708 0.075211
v 0.016538 0.224007 0.075211
v 0.047619 -0.061708 0.063898
v 0.047619 0.224007 0.063898
v 0.072956 -0.061708 0.042637
v 0.072956 0.224007 0.042637
v 0.089494 -0.061708 0.013993
v 0.089494 0.224007 0.013993
v 0.095238 -0.061708 -0.018581
v 0.095238 0.224007 -0.018581
v 0.072956 0.509721 -0.079799
v 0.089494 0.509721 -0.051154
v 0.047619 0.509721 -0.101059
v 0.016538 0.509721 -0.112371
v -0.016538 0.509721 -0.112372
v -0.047619 0.509721 -0.101059
v -0.016538 0.509721 -0.112372
v -0.072956 0.509721 -0.079799
v -0.089494 0.509721 -0.051154
v -0.095238 0.509721 -0.018581
v -0.089494 0.509721 0.013993
v -0.072956 0.509721 0.042637
v -0.047619 0.509721 0.063898
v -0.016538 0.509721 0.075211
v 0.016538 0.509721 0.075211
v 0.047619 0.509721 0.063898
v 0.072956 0.509721 0.042637
v 0.089494 0.509721 0.013993
v 0.095238 0.509721 -0.018581
v 0.072956 0.795435 -0.079799
v 0.089494 0.795435 -0.051154
v 0.047619 0.795435 -0.101059
v 0.016538 0.795435 -0.112371
v -0.016538 0.795435 -0.112372
v -0.047619 0.795435 -0.101059
v -0.016538 0.795435 -0.112372
v -0.072956 0.795435 -0.079799
v -0.089494 0.795435 -0.051154
v -0.095238 0.795435 -0.018581
v -0.089494 0.795435 0.013993
v -0.072956 0.795435 0.042637
v -0.047619 0.795435 0.063898
v -0.016538 0.795435 0.075211
v 0.016538 0.795435 0.075211
v 0.047619 0.795435 0.063898
v 0.072956 0.795435 0.042637
v 0.089494 0.795435 0.013993
v 0.095238 0.795435 -0.018581
v 0.072956 1.081150 -0.079799
v 0.089494 1.081150 -0.051154
v 0.047619 1.081150 -0.101059
v 0.016538 1.081150 -0.112371
v -0.016538 1.081150 -0.112372
v -0.047619 1.081150 -0.101059
v -0.016538 1.081150 -0.112372
v -0.072956 1.081150 -0.079799
v -0.089494 1.081150 -0.051154
v -0.095238 1.081150 -0.018581
v -0.089494 1.081150 0.013993
v -0.072956 1.081150 0.042637
v -0.047619 1.081150 0.063898
v -0.016538 1.081150 0.075211
v 0.016538 1.081150 0.075211
v 0.047619 1.081150 0.063898
v 0.072956 1.081150 0.042637
v 0.089494 1.081150 0.013993
v 0.095238 1.081150 -0.018581
v 0.072956 1.366864 -0.079799
v 0.089494 1.366864 -0.051154
v 0.047619 1.366864 -0.101059
v 0.016538 1.366864 -0.112371
v -0.016538 1.366864 -0.112372
v -0.047619 1.366864 -0.101059
v -0.016538 1.366864 -0.112372
v -0.072956 1.366864 -0.079799
v -0.089494 1.366864 -0.051154
v -0.095238 1.366864 -0.018581
v -0.089494 1.366864 0.013993
v -0.072956 1.366864 0.042637
v -0.047619 1.366864 0.063898
v -0.016538 1.366864 0.075211
v 0.016538 1.366864 0.075211
v 0.047619 1.366864 0.063898
v 0.072956 1.366864 0.042637
v 0.089494 1.366864 0.013993
v 0.095238 1.366864 -0.018581
v 0.072956 -0.061708 -0.079799
v 0.089494 -0.061708 -0.051154
v 0.000000 -0.061708 -0.018581
v 0.047619 -0.061708 -0.101059
v 0.016538 -0.061708 -0.112371
v -0.016538 -0.061708 -0.112372
v -0.047619 -0.061708 -0.101059
v -0.072956 -0.061708 -0.079799
v -0.089494 -0.061708 -0.051154
v -0.095238 -0.061708 -0.018581
v -0.089494 -0.061708 0.013993
v -0.072956 -0.061708 0.042637
v -0.047619 -0.061708 0.063898
v -0.016538 -0.061708 0.075211
v 0.016538 -0.061708 0.075211
v 0.047619 -0.061708 0.063898
v 0.072956 -0.061708 0.042637
v 0.089494 -0.061708 0.013993
v 0.095238 -0.061708 -0.018581
v 0.089494 1.366864 -0.051154
v 0.072956 1.366864 -0.079799
v 0.000000 1.366864 -0.018581
v 0.047619 1.366864 -0.101059
v 0.016538 1.366864 -0.112371
v -0.016538 1.366864 -0.112372
v -0.047619 1.366864 -0.101059
v -0.072956 1.366864 -0.079799
v -0.089494 1.366864 -0.051154
v -0.095238 1.366864 -0.018581
v -0.089494 1.366864 0.013993
v -0.072956 1.366864 0.042637
v -0.047619 1.366864 0.063898
v -0.016538 1.366864 0.075211
v 0.016538 1.366864 0.075211
v 0.047619 1.366864 0.063898
v 0.072956 1.366864 0.042637
v 0.089494 1.366864 0.013993
v 0.095238 1.366864 -0.018581
vn 0.9397 -0.0000 -0.3420
vn 0.7660 -0.0000 -0.6428
vn 0.5000 -0.0000 -0.8660
vn 0.1737 -0.0000 -0.9848
vn -0.1736 -0.0000 -0.9848
vn -0.5000 -0.0000 -0.8660
vn -0.7660 -0.0000 -0.6428
vn -0.9397 -0.0000 -0.3420
vn -1.0000 -0.0000 -0.0000
vn -0.9397 -0.0000 0.3420
vn -0.7660 -0.0000 0.6428
vn -0.5000 -0.0000 0.8660
vn -0.1736 -0.0000 0.9848
vn 0.1736 -0.0000 0.9848
vn 0.5000 -0.0000 0.8660
vn 0.7660 -0.0000 0.6428
vn 0.9397 -0.0000 0.3420
vn 1.0000 -0.0000 -0.0000
vn -0.0000 -1.0000 -0.0000
vn -0.0000 1.0000 -0.0000
vt 0.872026 0.749236
vt 0.865993 0.749236
vt 0.865993 0.761695
vt 0.872026 0.761696
vt 0.865993 0.774155
vt 0.872025 0.774156
vt 0.865993 0.786615
vt 0.872025 0.786615
vt 0.865993 0.799075
vt 0.872025 0.799075
vt 0.872027 0.574798
vt 0.865995 0.574798
vt 0.865995 0.587258
vt 0.872027 0.587258
vt 0.865995 0.599717
vt 0.872027 0.599718
vt 0.865995 0.612177
vt 0.872027 0.612178
vt 0.865995 0.624637
vt 0.872027 0.624637
vt 0.865994 0.637097
vt 0.872027 0.637097
vt 0.865994 0.649557
vt 0.872027 0.649557
vt 0.865994 0.662017
vt 0.872026 0.662017
vt 0.865994 0.674476
vt 0.872026 0.674477
vt 0.865994 0.686936
vt 0.872026 0.686937
vt 0.865994 0.699396
vt 0.872026 0.699396
vt 0.865994 0.711856
vt 0.872026 0.711856
vt 0.865994 0.724316
vt 0.872026 0.724316
vt 0.865993 0.736776
vt 0.872026 0.736776
vt 0.878058 0.749236
vt 0.878058 0.761696
vt 0.878058 0.774156
vt 0.878058 0.786616
vt 0.878058 0.799076
vt 0.878060 0.574798
vt 0.878059 0.587258
vt 0.878059 0.599718
vt 0.878059 0.612178
vt 0.878059 0.624638
vt 0.878059 0.637098
vt 0.878059 0.649557
vt 0.878059 0.662017
vt 0.878059 0.674477
vt 0.878058 0.686937
vt 0.878058 0.699397
vt 0.878058 0.711857
vt 0.878058 0.724316
vt 0.878058 0.736776
vt 0.884090 0.749236
vt 0.884090 0.761696
vt 0.884090 0.774156
vt 0.884090 0.786616
vt 0.884090 0.799076
vt 0.884092 0.574799
vt 0.884092 0.587258
vt 0.884092 0.599718
vt 0.884091 0.612178
vt 0.884091 0.624638
vt 0.884091 0.637098
vt 0.884091 0.649558
vt 0.884091 0.662018
vt 0.884091 0.674477
vt 0.884091 0.686937
vt 0.884091 0.699397
vt 0.884091 0.711857
vt 0.884090 0.724317
vt 0.884090 0.736777
vt 0.890122 0.749237
vt 0.890122 0.761697
vt 0.890122 0.774156
vt 0.890122 0.786616
vt 0.890122 0.799076
vt 0.890124 0.574799
vt 0.890124 0.587259
vt 0.890124 0.599719
vt 0.890124 0.612178
vt 0.890124 0.624638
vt 0.890123 0.637098
vt 0.890123 0.649558
vt 0.890123 0.662018
vt 0.890123 0.674478
vt 0.890123 0.686938
vt 0.890123 0.699397
vt 0.890123 0.711857
vt 0.890123 0.724317
vt 0.890123 0.736777
vt 0.896155 0.749237
vt 0.896155 0.761697
vt 0.896155 0.774157
vt 0.896155 0.786617
vt 0.896154 0.799077
vt 0.896156 0.574799
vt 0.896156 0.587259
vt 0.896156 0.599719
vt 0.896156 0.612179
vt 0.896156 0.624639
vt 0.896156 0.637098
vt 0.896156 0.649558
vt 0.896156 0.662018
vt 0.896155 0.674478
vt 0.896155 0.686938
vt 0.896155 0.699398
vt 0.896155 0.711858
vt 0.896155 0.724317
vt 0.896155 0.736777
vt 0.949189 0.705588
vt 0.948857 0.710069
vt 0.954364 0.710069
vt 0.950146 0.701648
vt 0.951611 0.698723
vt 0.953408 0.697167
vt 0.955320 0.697167
vt 0.957117 0.698723
vt 0.958582 0.701647
vt 0.959539 0.705587
vt 0.959871 0.710068
vt 0.959539 0.714549
vt 0.958583 0.718489
vt 0.957118 0.721413
vt 0.955321 0.722970
vt 0.953408 0.722970
vt 0.951611 0.721414
vt 0.950146 0.718490
vt 0.949190 0.714549
vt 0.939047 0.701647
vt 0.938091 0.705588
vt 0.943266 0.710066
vt 0.937760 0.710068
vt 0.938092 0.714549
vt 0.939048 0.718488
vt 0.940514 0.721412
vt 0.942311 0.722968
vt 0.944223 0.722967
vt 0.946020 0.721411
vt 0.947485 0.718486
vt 0.948441 0.714545
vt 0.948773 0.710064
vt 0.948441 0.705584
vt 0.947484 0.701644
vt 0.946019 0.698720
vt 0.944222 0.697165
vt 0.942309 0.697165
vt 0.940512 0.698722
s 1
usemtl Material.002
f 140/143/12 137/144/12 138/145/13
f 138/145/13 139/146/13 140/143/12
f 139/146/13 138/145/13 141/147/14
f 141/147/14 142/148/14 139/146/13
f 142/148/14 141/147/14 143/149/15
f 143/149/15 144/150/15 142/148/14
f 144/150/15 143/149/15 145/151/16
f 145/151/16 146/152/16 144/150/15
f 150/153/16 147/154/16 148/155/17
f 148/155/17 149/156/17 150/153/16
f 149/156/17 148/155/17 151/157/18
f 151/157/18 152/158/18 149/156/17
f 152/158/18 151/157/18 153/159/19
f 153/159/19 154/160/19 152/158/18
f 154/160/19 153/159/19 155/161/20
f 155/161/20 156/162/20 154/160/19
f 156/162/20 155/161/20 157/163/21
f 157/163/21 158/164/21 156/162/20
f 158/164/21 157/163/21 159/165/22
f 159/165/22 160/166/22 158/164/21
f 160/166/22 159/165/22 161/167/23
f 161/167/23 162/168/23 160/166/22
f 162/168/23 161/167/23 163/169/24
f 163/169/24 164/170/24 162/168/23
f 164/170/24 163/169/24 165/171/25
f 165/171/25 166/172/25 164/170/24
f 166/172/25 165/171/25 167/173/26
f 167/173/26 168/174/26 166/172/25
f 168/174/26 167/173/26 169/175/27
f 169/175/27 170/176/27 168/174/26
f 170/176/27 169/175/27 171/177/28
f 171/177/28 172/178/28 170/176/27
f 172/178/28 171/177/28 173/179/29
f 173/179/29 174/180/29 172/178/28
f 174/180/29 173/179/29 137/144/12
f 137/144/12 140/143/12 174/180/29
f 176/181/12 140/143/12 139/146/13
f 139/146/13 175/182/13 176/181/12
f 175/182/13 139/146/13 142/148/14
f 142/148/14 177/183/14 175/182/13
f 177/183/14 142/148/14 144/150/15
f 144/150/15 178/184/15 177/183/14
f 178/184/15 144/150/15 146/152/16
f 146/152/16 179/185/16 178/184/15
f 181/186/16 150/153/16 149/156/17
f 149/156/17 180/187/17 181/186/16
f 180/187/17 149/156/17 152/158/18
f 152/158/18 182/188/18 180/187/17
f 182/188/18 152/158/18 154/160/19
f 154/160/19 183/189/19 182/188/18
f 183/189/19 154/160/19 156/162/20
f 156/162/20 184/190/20 183/189/19
f 184/190/20 156/162/20 158/164/21
f 158/164/21 185/191/21 184/190/20
f 185/191/21 158/164/21 160/166/22
f 160/166/22 186/192/22 185/191/21
f 186/192/22 160/166/22 162/168/23
f 162/168/23 187/193/23 186/192/22
f 187/193/23 162/168/23 164/170/24
f 164/170/24 188/194/24 187/193/23
f 188/194/24 164/170/24 166/172/25
f 166/172/25 189/195/25 188/194/24
f 189/195/25 166/172/25 168/174/26
f 168/174/26 190/196/26 189/195/25
f 190/196/26 168/174/26 170/176/27
f 170/176/27 191/197/27 190/196/26
f 191/197/27 170/176/27 172/178/28
f 172/178/28 192/198/28 191/197/27
f 192/198/28 172/178/28 174/180/29
f 174/180/29 193/199/29 192/198/28
f 193/199/29 174/180/29 140/143/12
f 140/143/12 176/181/12 193/199/29
f 195/200/12 176/181/12 175/182/13
f 175/182/13 194/201/13 195/200/12
f 194/201/13 175/182/13 177/183/14
f 177/183/14 196/202/14 194/201/13
f 196/202/14 177/183/14 178/184/15
f 178/184/15 197/203/15 196/202/14
f 197/203/15 178/184/15 179/185/16
f 179/185/16 198/204/16 197/203/15
f 200/205/16 181/186/16 180/187/17
f 180/187/17 199/206/17 200/205/16
f 199/206/17 180/187/17 182/188/18
f 182/188/18 201/207/18 199/206/17
f 201/207/18 182/188/18 183/189/19
f 183/189/19 202/208/19 201/207/18
f 202/208/19 183/189/19 184/190/20
f 184/190/20 203/209/20 202/208/19
f 203/209/20 184/190/20 185/191/21
f 185/191/21 204/210/21 203/209/20
f 204/210/21 185/191/21 186/192/22
f 186/192/22 205/211/22 204/210/21
f 205/211/22 186/192/22 187/193/23
f 187/193/23 206/212/23 205/211/22
f 206/212/23 187/193/23 188/194/24
f 188/194/24 207/213/24 206/212/23
f 207/213/24 188/194/24 189/195/25
f 189/195/25 208/214/25 207/213/24
f 208/214/25 189/195/25 190/196/26
f 190/196/26 209/215/26 208/214/25
f 209/215/26 190/196/26 191/197/27
f 191/197/27 210/216/27 209/215/26
f 210/216/27 191/197/27 192/198/28
f 192/198/28 211/217/28 210/216/27
f 211/217/28 192/198/28 193/199/29
f 193/199/29 212/218/29 211/217/28
f 212/218/29 193/199/29 176/181/12
f 176/181/12 195/200/12 212/218/29
f 214/219/12 195/200/12 194/201/13
f 194/201/13 213/220/13 214/219/12
f 213/220/13 194/201/13 196/202/14
f 196/202/14 215/221/14 213/220/13
f 215/221/14 196/202/14 197/203/15
f 197/203/15 216/222/15 215/221/14
f 216/222/15 197/203/15 198/204/16
f 198/204/16 217/223/16 216/222/15
f 219/224/16 200/205/16 199/206/17
f 199/206/17 218/225/17 219/224/16
f 218/225/17 199/206/17 201/207/18
f 201/207/18 220/226/18 218/225/17
f 220/226/18 201/207/18 202/208/19
f 202/208/19 221/227/19 220/226/18
f 221/227/19 202/208/19 203/209/20
f 203/209/20 222/228/20 221/227/19
f 222/228/20 203/209/20 204/210/21
f 204/210/21 223/229/21 222/228/20
f 223/229/21 204/210/21 205/211/22
f 205/211/22 224/230/22 223/229/21
f 224/230/22 205/211/22 206/212/23
f 206/212/23 225/231/23 224/230/22
f 225/231/23 206/212/23 207/213/24
f 207/213/24 226/232/24 225/231/23
f 226/232/24 207/213/24 208/214/25
f 208/214/25 227/233/25 226/232/24
f 227/233/25 208/214/25 209/215/26
f 209/215/26 228/234/26 227/233/25
f 228/234/26 209/215/26 210/216/27
f 210/216/27 229/235/27 228/234/26
f 229/235/27 210/216/27 211/217/28
f 211/217/28 230/236/28 229/235/27
f 230/236/28 211/217/28 212/218/29
f 212/218/29 231/237/29 230/236/28
f 231/237/29 212/218/29 195/200/12
f 195/200/12 214/219/12 231/237/29
f 233/238/12 214/219/12 213/220/13
f 213/220/13 232/239/13 233/238/12
f 232/239/13 213/220/13 215/221/14
f 215/221/14 234/240/14 232/239/13
f 234/240/14 215/221/14 216/222/15
f 216/222/15 235/241/15 234/240/14
f 235/241/15 216/222/15 217/223/16
f 217/223/16 236/242/16 235/241/15
f 238/243/16 219/224/16 218/225/17
f 218/225/17 237/244/17 238/243/16
f 237/244/17 218/225/17 220/226/18
f 220/226/18 239/245/18 237/244/17
f 239/245/18 220/226/18 221/227/19
f 221/227/19 240/246/19 239/245/18
f 240/246/19 221/227/19 222/228/20
f 222/228/20 241/247/20 240/246/19
f 241/247/20 222/228/20 223/229/21
f 223/229/21 242/248/21 241/247/20
f 242/248/21 223/229/21 224/230/22
f 224/230/22 243/249/22 242/248/21
f 243/249/22 224/230/22 225/231/23
f 225/231/23 244/250/23 243/249/22
f 244/250/23 225/231/23 226/232/24
f 226/232/24 245/251/24 244/250/23
f 245/251/24 226/232/24 227/233/25
f 227/233/25 246/252/25 245/251/24
f 246/252/25 227/233/25 228/234/26
f 228/234/26 247/253/26 246/252/25
f 247/253/26 228/234/26 229/235/27
f 229/235/27 248/254/27 247/253/26
f 248/254/27 229/235/27 230/236/28
f 230/236/28 249/255/28 248/254/27
f 249/255/28 230/236/28 231/237/29
f 231/237/29 250/256/29 249/255/28
f 250/256/29 231/237/29 214/219/12
f 214/219/12 233/238/12 250/256/29
s 0
f 251/257/30 252/258/30 253/259/30
f 254/260/30 251/257/30 253/259/30
f 255/261/30 254/260/30 253/259/30
f 256/262/30 255/261/30 253/259/30
f 257/263/30 256/262/30 253/259/30
f 258/264/30 257/263/30 253/259/30
f 259/265/30 258/264/30 253/259/30
f 260/266/30 259/265/30 253/259/30
f 261/267/30 260/266/30 253/259/30
f 262/268/30 261/267/30 253/259/30
f 263/269/30 262/268/30 253/259/30
f 264/270/30 263/269/30 253/259/30
f 265/271/30 264/270/30 253/259/30
f 266/272/30 265/271/30 253/259/30
f 267/273/30 266/272/30 253/259/30
f 268/274/30 267/273/30 253/259/30
f 269/275/30 268/274/30 253/259/30
f 252/258/30 269/275/30 253/259/30
f 270/276/31 271/277/31 272/278/31
f 271/277/31 273/279/31 272/278/31
f 273/279/31 274/280/31 272/278/31
f 274/280/31 275/281/31 272/278/31
f 275/281/31 276/282/31 272/278/31
f 276/282/31 277/283/31 272/278/31
f 277/283/31 278/284/31 272/278/31
f 278/284/31 279/285/31 272/278/31
f 279/285/31 280/286/31 272/278/31
f 280/286/31 281/287/31 272/278/31
f 281/287/31 282/288/31 272/278/31
f 282/288/31 283/289/31 272/278/31
f 283/289/31 284/290/31 272/278/31
f 284/290/31 285/291/31 272/278/31
f 285/291/31 286/292/31 272/278/31
f 286/292/31 287/293/31 272/278/31
f 287/293/31 288/294/31 272/278/31
f 288/294/31 270/276/31 272/278/31
