# Blender 3.6.22
# www.blender.org
mtllib LETRERO_HDA.mtl
o defaultMaterial
v -0.535714 0.789990 0.112372
v -0.267857 0.789990 0.112372
v -0.267857 0.829673 0.112372
v -0.500000 0.829673 0.112372
v 0.000000 0.789990 0.112372
v 0.000000 0.829673 0.112372
v 0.267857 0.789990 0.112372
v 0.267857 0.829673 0.112372
v 0.535714 0.789990 0.112372
v 0.535714 0.829673 0.112372
v -0.535714 0.948720 0.112372
v -0.267857 0.948720 0.112372
v -0.267857 0.988403 0.112372
v -0.535714 0.988403 0.112372
v 0.000000 0.948720 0.112372
v 0.000000 0.988403 0.112372
v 0.267857 0.948720 0.112372
v 0.267857 0.988403 0.112372
v 0.535714 0.948720 0.112372
v 0.500000 0.988403 0.112372
v -0.535714 1.028086 0.112372
v -0.267857 1.028086 0.112372
v -0.267857 1.186816 0.112372
v -0.535714 1.186816 0.112372
v 0.000000 1.028086 0.112372
v 0.000000 1.186816 0.112372
v 0.267857 1.028086 0.112372
v 0.267857 1.186816 0.112372
v 0.535714 1.028086 0.112372
v 0.535714 1.186816 0.112372
v -0.535714 1.186816 0.112372
v -0.267857 1.186816 0.112372
v -0.267857 1.186816 0.040943
v -0.535714 1.186816 0.040943
v 0.000000 1.186816 0.112372
v 0.000000 1.186816 0.040943
v 0.267857 1.186816 0.112372
v 0.267857 1.186816 0.040943
v 0.535714 1.186816 0.112372
v 0.535714 1.186816 0.040943
v -0.535714 1.186816 0.040943
v -0.267857 1.186816 0.040943
v -0.267857 1.028086 0.040943
v -0.535714 1.028086 0.040943
v 0.000000 1.186816 0.040943
v 0.000000 1.028086 0.040943
v 0.267857 1.186816 0.040943
v 0.267857 1.028086 0.040943
v 0.535714 1.186816 0.040943
v 0.535714 1.028086 0.040943
v -0.535714 0.988403 0.040943
v -0.267857 0.988403 0.040943
v -0.267857 0.948720 0.040943
v -0.535714 0.948720 0.040943
v 0.000000 0.988403 0.040943
v 0.000000 0.948720 0.040943
v 0.267857 0.988403 0.040943
v 0.267857 0.948720 0.040943
v 0.500000 0.988403 0.040943
v 0.535714 0.948720 0.040943
v -0.500000 0.829673 0.040943
v -0.267857 0.829673 0.040943
v -0.267857 0.789990 0.040943
v -0.535714 0.789990 0.040943
v 0.000000 0.829673 0.040943
v 0.000000 0.789990 0.040943
v 0.267857 0.829673 0.040943
v 0.267857 0.789990 0.040943
v 0.535714 0.829673 0.040943
v 0.535714 0.789990 0.040943
v -0.535714 0.710625 0.040943
v -0.267857 0.710625 0.040943
v -0.267857 0.710625 0.112372
v -0.535714 0.710625 0.112372
v 0.000000 0.710625 0.040943
v 0.000000 0.710625 0.112372
v 0.267857 0.710625 0.040943
v 0.267857 0.710625 0.112372
v 0.535714 0.710625 0.040943
v 0.535714 0.710625 0.112372
v 0.535714 0.789990 0.112372
v 0.535714 0.789990 0.040943
v 0.535714 0.829673 0.040943
v 0.535714 0.829673 0.112372
v 0.535714 0.948720 0.112372
v 0.535714 0.948720 0.040943
v 0.500000 0.988403 0.040943
v 0.500000 0.988403 0.112372
v 0.535714 1.028086 0.112372
v 0.535714 1.028086 0.040943
v 0.535714 1.186816 0.040943
v 0.535714 1.186816 0.112372
v -0.535714 0.789990 0.040943
v -0.535714 0.789990 0.112372
v -0.500000 0.829673 0.112372
v -0.500000 0.829673 0.040943
v -0.535714 0.948720 0.040943
v -0.535714 0.948720 0.112372
v -0.535714 0.988403 0.112372
v -0.535714 0.988403 0.040943
v -0.535714 1.028086 0.040943
v -0.535714 1.028086 0.112372
v -0.535714 1.186816 0.112372
v -0.535714 1.186816 0.040943
v -0.535714 0.869355 0.112372
v -0.267857 0.869355 0.112372
v 0.000000 0.869355 0.112372
v 0.267857 0.869355 0.112372
v 0.535714 0.869355 0.112372
v 0.535714 0.869355 0.112372
v 0.535714 0.869355 0.040943
v 0.535714 0.869355 0.040943
v 0.267857 0.869355 0.040943
v 0.000000 0.869355 0.040943
v -0.267857 0.869355 0.040943
v -0.535714 0.869355 0.040943
v -0.535714 0.869355 0.040943
v -0.535714 0.869355 0.112372
v 0.500000 0.988403 0.112372
v 0.500000 0.988403 0.040943
v -0.535714 0.710625 0.112372
v -0.267857 0.710625 0.112372
v 0.000000 0.710625 0.112372
v 0.267857 0.710625 0.112372
v 0.535714 0.710625 0.112372
v 0.535714 0.710625 0.112372
v 0.535714 0.710625 0.040943
v 0.535714 0.710625 0.040943
v 0.267857 0.710625 0.040943
v 0.000000 0.710625 0.040943
v -0.267857 0.710625 0.040943
v -0.535714 0.710625 0.040943
v -0.535714 0.710625 0.040943
v -0.535714 0.710625 0.112372
v -0.500000 0.829673 0.040943
v -0.500000 0.829673 0.112372
vn -0.0000 -0.0000 1.0000
vn -0.0000 1.0000 -0.0000
vn -0.0000 -0.0000 -1.0000
vn -0.0000 -1.0000 -0.0000
vn 1.0000 -0.0000 -0.0000
vn 0.9578 0.2874 -0.0000
vn 0.9842 -0.1771 -0.0001
vn 0.9842 -0.1771 -0.0000
vn -1.0000 -0.0000 -0.0000
vn -0.9578 0.2874 -0.0000
vn -0.9578 -0.2874 -0.0000
vt 0.059601 0.256257
vt 0.028254 0.176274
vt 0.260942 0.171186
vt 0.261264 0.251847
vt 0.493630 0.166098
vt 0.493953 0.246758
vt 0.726319 0.161009
vt 0.726641 0.241670
vt 0.959007 0.155920
vt 0.959329 0.236581
vt 0.029865 0.579576
vt 0.029543 0.498915
vt 0.262231 0.493827
vt 0.262553 0.574487
vt 0.494919 0.488738
vt 0.495241 0.569399
vt 0.727607 0.483650
vt 0.727929 0.564310
vt 0.960295 0.478561
vt 0.929593 0.559900
vt 0.031476 0.982877
vt 0.030187 0.660237
vt 0.262875 0.655148
vt 0.264164 0.977789
vt 0.495563 0.650060
vt 0.496852 0.972700
vt 0.728252 0.644971
vt 0.729540 0.967612
vt 0.960940 0.639883
vt 0.962228 0.962523
vt 0.613648 0.304231
vt 0.611064 0.304231
vt 0.611064 0.269478
vt 0.639305 0.344943
vt 0.639306 0.322434
vt 0.635689 0.322434
vt 0.642923 0.344943
vt 0.642924 0.322435
vt 0.605841 0.231616
vt 0.608424 0.231616
vt 0.608424 0.266369
vt 0.605841 0.266369
vt 0.608424 0.301122
vt 0.650159 0.344944
vt 0.650160 0.322436
vt 0.646542 0.322435
vt 0.292157 0.637949
vt 0.278050 0.637949
vt 0.278050 0.624155
vt 0.292157 0.624155
vt 0.278050 0.610360
vt 0.292157 0.610360
vt 0.278050 0.596566
vt 0.292157 0.596566
vt 0.278050 0.582772
vt 0.292157 0.582772
vt 0.299210 0.637949
vt 0.295683 0.637949
vt 0.295683 0.624155
vt 0.299210 0.624155
vt 0.295683 0.610360
vt 0.299210 0.610360
vt 0.295683 0.596566
vt 0.299210 0.596566
vt 0.295683 0.584611
vt 0.299210 0.582772
vt 0.313317 0.637949
vt 0.309790 0.636110
vt 0.309790 0.624155
vt 0.313317 0.624155
vt 0.309790 0.610360
vt 0.313317 0.610360
vt 0.309790 0.596566
vt 0.313317 0.596566
vt 0.309790 0.582772
vt 0.313317 0.582772
vt 0.386084 0.000158
vt 0.414981 0.000158
vt 0.414981 0.250079
vt 0.386084 0.250079
vt 0.414981 0.500000
vt 0.386084 0.500000
vt 0.414981 0.749921
vt 0.386084 0.749921
vt 0.414981 0.999842
vt 0.386084 0.999842
vt 0.611064 0.247061
vt 0.611064 0.241913
vt 0.613648 0.241913
vt 0.613648 0.247061
vt 0.611064 0.269434
vt 0.611064 0.262507
vt 0.613648 0.262507
vt 0.613648 0.269434
vt 0.613676 0.259137
vt 0.613676 0.238542
vt 0.616260 0.238542
vt 0.616260 0.259137
vt 0.608453 0.296999
vt 0.608453 0.290072
vt 0.611036 0.290072
vt 0.611036 0.296999
vt 0.608453 0.253988
vt 0.608453 0.248840
vt 0.611036 0.248840
vt 0.611036 0.253988
vt 0.608453 0.279731
vt 0.608453 0.259137
vt 0.611036 0.259137
vt 0.611036 0.279731
vt 0.028898 0.337595
vt 0.261587 0.332506
vt 0.494275 0.327418
vt 0.726963 0.322329
vt 0.959651 0.317241
vt 0.611064 0.252210
vt 0.613648 0.252210
vt 0.306264 0.596566
vt 0.306264 0.582772
vt 0.306264 0.610360
vt 0.306264 0.624155
vt 0.306264 0.637949
vt 0.608453 0.238542
vt 0.611036 0.238542
vt 0.613676 0.231616
vt 0.616260 0.231616
vt 0.027610 0.014954
vt 0.260298 0.009866
vt 0.492986 0.004777
vt 0.725674 -0.000311
vt 0.958362 -0.005400
vt 0.611064 0.231616
vt 0.613648 0.231616
vt 0.320370 0.596566
vt 0.320370 0.582772
vt 0.320370 0.610360
vt 0.320370 0.624155
vt 0.320370 0.637949
vt 0.608453 0.279775
vt 0.611036 0.279775
vt 0.608453 0.231616
vt 0.611036 0.231616
s 0
usemtl Material.003
f 4/1/1 1/2/1 2/3/1
f 2/3/1 3/4/1 4/1/1
f 3/4/1 2/3/1 5/5/1
f 5/5/1 6/6/1 3/4/1
f 6/6/1 5/5/1 7/7/1
f 7/7/1 8/8/1 6/6/1
f 8/8/1 7/7/1 9/9/1
f 9/9/1 10/10/1 8/8/1
f 14/11/1 11/12/1 12/13/1
f 12/13/1 13/14/1 14/11/1
f 13/14/1 12/13/1 15/15/1
f 15/15/1 16/16/1 13/14/1
f 16/16/1 15/15/1 17/17/1
f 17/17/1 18/18/1 16/16/1
f 18/18/1 17/17/1 19/19/1
f 19/19/1 20/20/1 18/18/1
f 24/21/1 21/22/1 22/23/1
f 22/23/1 23/24/1 24/21/1
f 23/24/1 22/23/1 25/25/1
f 25/25/1 26/26/1 23/24/1
f 26/26/1 25/25/1 27/27/1
f 27/27/1 28/28/1 26/26/1
f 28/28/1 27/27/1 29/29/1
f 29/29/1 30/30/1 28/28/1
f 34/31/2 31/32/2 32/33/2
f 32/34/2 33/35/2 34/36/2
f 33/35/2 32/34/2 35/37/2
f 35/37/2 36/38/2 33/35/2
f 36/39/2 35/40/2 37/41/2
f 37/41/2 38/42/2 36/39/2
f 38/42/2 37/41/2 39/43/2
f 39/44/2 40/45/2 38/46/2
f 44/47/3 41/48/3 42/49/3
f 42/49/3 43/50/3 44/47/3
f 43/50/3 42/49/3 45/51/3
f 45/51/3 46/52/3 43/50/3
f 46/52/3 45/51/3 47/53/3
f 47/53/3 48/54/3 46/52/3
f 48/54/3 47/53/3 49/55/3
f 49/55/3 50/56/3 48/54/3
f 54/57/3 51/58/3 52/59/3
f 52/59/3 53/60/3 54/57/3
f 53/60/3 52/59/3 55/61/3
f 55/61/3 56/62/3 53/60/3
f 56/62/3 55/61/3 57/63/3
f 57/63/3 58/64/3 56/62/3
f 58/64/3 57/63/3 59/65/3
f 59/65/3 60/66/3 58/64/3
f 64/67/3 61/68/3 62/69/3
f 62/69/3 63/70/3 64/67/3
f 63/70/3 62/69/3 65/71/3
f 65/71/3 66/72/3 63/70/3
f 66/72/3 65/71/3 67/73/3
f 67/73/3 68/74/3 66/72/3
f 68/74/3 67/73/3 69/75/3
f 69/75/3 70/76/3 68/74/3
f 74/77/4 71/78/4 72/79/4
f 72/79/4 73/80/4 74/77/4
f 73/80/4 72/79/4 75/81/4
f 75/81/4 76/82/4 73/80/4
f 76/82/4 75/81/4 77/83/4
f 77/83/4 78/84/4 76/82/4
f 78/84/4 77/83/4 79/85/4
f 79/85/4 80/86/4 78/84/4
f 84/87/5 81/88/5 82/89/5
f 82/89/5 83/90/5 84/87/5
s 1
f 88/91/5 85/92/6 86/93/6
f 86/93/6 87/94/5 88/91/5
f 92/95/5 89/96/7 90/97/8
f 90/97/8 91/98/5 92/95/5
f 96/99/9 93/100/10 94/101/10
f 94/101/10 95/102/9 96/99/9
s 0
f 100/103/9 97/104/9 98/105/9
f 98/105/9 99/106/9 100/103/9
f 104/107/9 101/108/9 102/109/9
f 102/109/9 103/110/9 104/107/9
f 11/12/1 105/111/1 106/112/1
f 106/112/1 12/13/1 11/12/1
f 12/13/1 106/112/1 107/113/1
f 107/113/1 15/15/1 12/13/1
f 15/15/1 107/113/1 108/114/1
f 108/114/1 17/17/1 15/15/1
f 17/17/1 108/114/1 109/115/1
f 109/115/1 19/19/1 17/17/1
s 1
f 85/92/6 110/116/5 111/117/5
f 111/117/5 86/93/6 85/92/6
s 0
f 113/118/3 58/64/3 60/66/3
f 60/66/3 112/119/3 113/118/3
f 114/120/3 56/62/3 58/64/3
f 58/64/3 113/118/3 114/120/3
f 115/121/3 53/60/3 56/62/3
f 56/62/3 114/120/3 115/121/3
f 116/122/3 54/57/3 53/60/3
f 53/60/3 115/121/3 116/122/3
s 1
f 97/104/9 117/123/11 118/124/11
f 118/124/11 98/105/9 97/104/9
s 0
f 51/58/3 44/47/3 43/50/3
f 43/50/3 52/59/3 51/58/3
f 52/59/3 43/50/3 46/52/3
f 46/52/3 55/61/3 52/59/3
f 55/61/3 46/52/3 48/54/3
f 48/54/3 57/63/3 55/61/3
f 57/63/3 48/54/3 50/56/3
f 50/56/3 59/65/3 57/63/3
s 1
f 89/96/7 119/125/5 120/126/5
f 120/126/5 90/97/8 89/96/7
s 0
f 27/27/1 18/18/1 20/20/1
f 20/20/1 29/29/1 27/27/1
f 25/25/1 16/16/1 18/18/1
f 18/18/1 27/27/1 25/25/1
f 22/23/1 13/14/1 16/16/1
f 16/16/1 25/25/1 22/23/1
f 21/22/1 14/11/1 13/14/1
f 13/14/1 22/23/1 21/22/1
f 101/108/9 100/103/9 99/106/9
f 99/106/9 102/109/9 101/108/9
f 1/2/1 121/127/1 122/128/1
f 122/128/1 2/3/1 1/2/1
f 2/3/1 122/128/1 123/129/1
f 123/129/1 5/5/1 2/3/1
f 5/5/1 123/129/1 124/130/1
f 124/130/1 7/7/1 5/5/1
f 7/7/1 124/130/1 125/131/1
f 125/131/1 9/9/1 7/7/1
f 81/88/5 126/132/5 127/133/5
f 127/133/5 82/89/5 81/88/5
f 129/134/3 68/74/3 70/76/3
f 70/76/3 128/135/3 129/134/3
f 130/136/3 66/72/3 68/74/3
f 68/74/3 129/134/3 130/136/3
f 131/137/3 63/70/3 66/72/3
f 66/72/3 130/136/3 131/137/3
f 132/138/3 64/67/3 63/70/3
f 63/70/3 131/137/3 132/138/3
s 1
f 93/100/10 133/139/9 134/140/9
f 134/140/9 94/101/10 93/100/10
s 0
f 61/68/3 116/122/3 115/121/3
f 115/121/3 62/69/3 61/68/3
f 62/69/3 115/121/3 114/120/3
f 114/120/3 65/71/3 62/69/3
f 65/71/3 114/120/3 113/118/3
f 113/118/3 67/73/3 65/71/3
f 67/73/3 113/118/3 112/119/3
f 112/119/3 69/75/3 67/73/3
f 110/116/5 84/87/5 83/90/5
f 83/90/5 111/117/5 110/116/5
f 108/114/1 8/8/1 10/10/1
f 10/10/1 109/115/1 108/114/1
f 107/113/1 6/6/1 8/8/1
f 8/8/1 108/114/1 107/113/1
f 106/112/1 3/4/1 6/6/1
f 6/6/1 107/113/1 106/112/1
f 105/111/1 4/1/1 3/4/1
f 3/4/1 106/112/1 105/111/1
s 1
f 117/123/11 135/141/9 136/142/9
f 136/142/9 118/124/11 117/123/11
o defaultMaterial.001
v 0.089494 -0.061708 -0.051154
v 0.072956 -0.061708 -0.079799
v 0.072956 0.224007 -0.079799
v 0.089494 0.224007 -0.051154
v 0.047619 -0.061708 -0.101059
v 0.047619 0.224007 -0.101059
v 0.016538 -0.061708 -0.112371
v 0.016538 0.224007 -0.112371
v -0.016538 -0.061708 -0.112372
v -0.016538 0.224007 -0.112372
v -0.016538 -0.061708 -0.112372
v -0.047619 -0.061708 -0.101059
v -0.047619 0.224007 -0.101059
v -0.016538 0.224007 -0.112372
v -0.072956 -0.061708 -0.079799
v -0.072956 0.224007 -0.079799
v -0.089494 -0.061708 -0.051154
v -0.089494 0.224007 -0.051154
v -0.095238 -0.061708 -0.018581
v -0.095238 0.224007 -0.018581
v -0.089494 -0.061708 0.013993
v -0.089494 0.224007 0.013993
v -0.072956 -0.061708 0.042637
v -0.072956 0.224007 0.042637
v -0.047619 -0.061708 0.063898
v -0.047619 0.224007 0.063898
v -0.016538 -0.061708 0.075211
v -0.016538 0.224007 0.075211
v 0.016538 -0.061708 0.075211
v 0.016538 0.224007 0.075211
v 0.047619 -0.061708 0.063898
v 0.047619 0.224007 0.063898
v 0.072956 -0.061708 0.042637
v 0.072956 0.224007 0.042637
v 0.089494 -0.061708 0.013993
v 0.089494 0.224007 0.013993
v 0.095238 -0.061708 -0.018581
v 0.095238 0.224007 -0.018581
v 0.072956 0.509721 -0.079799
v 0.089494 0.509721 -0.051154
v 0.047619 0.509721 -0.101059
v 0.016538 0.509721 -0.112371
v -0.016538 0.509721 -0.112372
v -0.047619 0.509721 -0.101059
v -0.016538 0.509721 -0.112372
v -0.072956 0.509721 -0.079799
v -0.089494 0.509721 -0.051154
v -0.095238 0.509721 -0.018581
v -0.089494 0.509721 0.013993
v -0.072956 0.509721 0.042637
v -0.047619 0.509721 0.063898
v -0.016538 0.509721 0.075211
v 0.016538 0.509721 0.075211
v 0.047619 0.509721 0.063898
v 0.072956 0.509721 0.042637
v 0.089494 0.509721 0.013993
v 0.095238 0.509721 -0.018581
v 0.072956 0.795435 -0.079799
v 0.089494 0.795435 -0.051154
v 0.047619 0.795435 -0.101059
v 0.016538 0.795435 -0.112371
v -0.016538 0.795435 -0.112372
v -0.047619 0.795435 -0.101059
v -0.016538 0.795435 -0.112372
v -0.072956 0.795435 -0.079799
v -0.089494 0.795435 -0.051154
v -0.095238 0.795435 -0.018581
v -0.089494 0.795435 0.013993
v -0.072956 0.795435 0.042637
v -0.047619 0.795435 0.063898
v -0.016538 0.795435 0.075211
v 0.016538 0.795435 0.075211
v 0.047619 0.795435 0.063898
v 0.072956 0.795435 0.042637
v 0.089494 0.795435 0.013993
v 0.095238 0.795435 -0.018581
v 0.072956 1.081150 -0.079799
v 0.089494 1.081150 -0.051154
v 0.047619 1.081150 -0.101059
v 0.016538 1.081150 -0.112371
v -0.016538 1.081150 -0.112372
v -0.047619 1.081150 -0.101059
v -0.016538 1.081150 -0.112372
v -0.072956 1.081150 -0.079799
v -0.089494 1.081150 -0.051154
v -0.095238 1.081150 -0.018581
v -0.089494 1.081150 0.013993
v -0.072956 1.081150 0.042637
v -0.047619 1.081150 0.063898
v -0.016538 1.081150 0.075211
v 0.016538 1.081150 0.075211
v 0.047619 1.081150 0.063898
v 0.072956 1.081150 0.042637
v 0.089494 1.081150 0.013993
v 0.095238 1.081150 -0.018581
v 0.072956 1.366864 -0.079799
v 0.089494 1.366864 -0.051154
v 0.047619 1.366864 -0.101059
v 0.016538 1.366864 -0.112371
v -0.016538 1.366864 -0.112372
v -0.047619 1.366864 -0.101059
v -0.016538 1.366864 -0.112372
v -0.072956 1.366864 -0.079799
v -0.089494 1.366864 -0.051154
v -0.095238 1.366864 -0.018581
v -0.089494 1.366864 0.013993
v -0.072956 1.366864 0.042637
v -0.047619 1.366864 0.063898
v -0.016538 1.366864 0.075211
v 0.016538 1.366864 0.075211
v 0.047619 1.366864 0.063898
v 0.072956 1.366864 0.042637
v 0.089494 1.366864 0.013993
v 0.095238 1.366864 -0.018581
v 0.072956 -0.061708 -0.079799
v 0.089494 -0.061708 -0.051154
v 0.000000 -0.061708 -0.018581
v 0.047619 -0.061708 -0.101059
v 0.016538 -0.061708 -0.112371
v -0.016538 -0.061708 -0.112372
v -0.047619 -0.061708 -0.101059
v -0.072956 -0.061708 -0.079799
v -0.089494 -0.061708 -0.051154
v -0.095238 -0.061708 -0.018581
v -0.089494 -0.061708 0.013993
v -0.072956 -0.061708 0.042637
v -0.047619 -0.061708 0.063898
v -0.016538 -0.061708 0.075211
v 0.016538 -0.061708 0.075211
v 0.047619 -0.061708 0.063898
v 0.072956 -0.061708 0.042637
v 0.089494 -0.061708 0.013993
v 0.095238 -0.061708 -0.018581
v 0.089494 1.366864 -0.051154
v 0.072956 1.366864 -0.079799
v 0.000000 1.366864 -0.018581
v 0.047619 1.366864 -0.101059
v 0.016538 1.366864 -0.112371
v -0.016538 1.366864 -0.112372
v -0.047619 1.366864 -0.101059
v -0.072956 1.366864 -0.079799
v -0.089494 1.366864 -0.051154
v -0.095238 1.366864 -0.018581
v -0.089494 1.366864 0.013993
v -0.072956 1.366864 0.042637
v -0.047619 1.366864 0.063898
v -0.016538 1.366864 0.075211
v 0.016538 1.366864 0.075211
v 0.047619 1.366864 0.063898
v 0.072956 1.366864 0.042637
v 0.089494 1.366864 0.013993
v 0.095238 1.366864 -0.018581
vn 0.9397 -0.0000 -0.3420
vn 0.7660 -0.0000 -0.6428
vn 0.5000 -0.0000 -0.8660
vn 0.1737 -0.0000 -0.9848
vn -0.1736 -0.0000 -0.9848
vn -0.5000 -0.0000 -0.8660
vn -0.7660 -0.0000 -0.6428
vn -0.9397 -0.0000 -0.3420
vn -1.0000 -0.0000 -0.0000
vn -0.9397 -0.0000 0.3420
vn -0.7660 -0.0000 0.6428
vn -0.5000 -0.0000 0.8660
vn -0.1736 -0.0000 0.9848
vn 0.1736 -0.0000 0.9848
vn 0.5000 -0.0000 0.8660
vn 0.7660 -0.0000 0.6428
vn 0.9397 -0.0000 0.3420
vn 1.0000 -0.0000 -0.0000
vn -0.0000 -1.0000 -0.0000
vn -0.0000 1.0000 -0.0000
vt 0.476047 0.085923
vt 0.476924 0.097498
vt 0.483280 0.095689
vt 0.482404 0.084114
vt 0.489636 0.093879
vt 0.488760 0.082304
vt 0.495993 0.092069
vt 0.495117 0.080494
vt 0.502349 0.090259
vt 0.501473 0.078684
vt 0.387057 0.111263
vt 0.387933 0.122837
vt 0.394289 0.121027
vt 0.393413 0.109452
vt 0.400646 0.119217
vt 0.399770 0.107643
vt 0.407002 0.117408
vt 0.406126 0.105833
vt 0.413359 0.115598
vt 0.412483 0.104023
vt 0.419715 0.113788
vt 0.418839 0.102213
vt 0.539997 0.000106
vt 0.514040 0.000106
vt 0.514039 0.016072
vt 0.539996 0.016072
vt 0.514039 0.032038
vt 0.539996 0.032039
vt 0.514039 0.048005
vt 0.539996 0.048005
vt 0.514038 0.063971
vt 0.539995 0.063971
vt 0.514037 0.079937
vt 0.539995 0.079938
vt 0.514037 0.095904
vt 0.539994 0.095904
vt 0.514037 0.111870
vt 0.539994 0.111870
vt 0.514036 0.127836
vt 0.539992 0.127837
vt 0.514036 0.143803
vt 0.539992 0.143803
vt 0.475171 0.074349
vt 0.481528 0.072539
vt 0.487884 0.070729
vt 0.494241 0.068919
vt 0.500597 0.067109
vt 0.386180 0.099687
vt 0.392537 0.097877
vt 0.398893 0.096068
vt 0.405250 0.094258
vt 0.411606 0.092448
vt 0.417963 0.090638
vt 0.565954 0.000107
vt 0.425195 0.100403
vt 0.424319 0.088828
vt 0.565954 0.016073
vt 0.565953 0.032039
vt 0.565952 0.048006
vt 0.565951 0.063972
vt 0.565951 0.079938
vt 0.565951 0.095904
vt 0.565950 0.111871
vt 0.565949 0.127837
vt 0.565949 0.143803
vt 0.474295 0.062774
vt 0.480651 0.060964
vt 0.487008 0.059154
vt 0.493364 0.057344
vt 0.499721 0.055534
vt 0.385304 0.088112
vt 0.391661 0.086303
vt 0.398017 0.084493
vt 0.404374 0.082683
vt 0.410730 0.080873
vt 0.417087 0.079063
vt 0.423443 0.077253
vt 0.430676 0.087018
vt 0.429800 0.075443
vt 0.437032 0.085208
vt 0.436156 0.073633
vt 0.443389 0.083398
vt 0.442513 0.071823
vt 0.449745 0.081588
vt 0.448869 0.070013
vt 0.456102 0.079778
vt 0.455226 0.068203
vt 0.462458 0.077968
vt 0.461582 0.066394
vt 0.468815 0.076159
vt 0.467938 0.064583
vt 0.473419 0.051199
vt 0.479775 0.049389
vt 0.486132 0.047579
vt 0.492488 0.045769
vt 0.498845 0.043959
vt 0.384428 0.076538
vt 0.390785 0.074728
vt 0.397141 0.072918
vt 0.403498 0.071108
vt 0.409854 0.069298
vt 0.416210 0.067488
vt 0.422567 0.065678
vt 0.428923 0.063868
vt 0.435280 0.062059
vt 0.441636 0.060248
vt 0.447993 0.058439
vt 0.454349 0.056628
vt 0.460706 0.054819
vt 0.467062 0.053009
vt 0.472543 0.039624
vt 0.478899 0.037814
vt 0.485255 0.036004
vt 0.491612 0.034194
vt 0.497968 0.032384
vt 0.383552 0.064963
vt 0.389908 0.063153
vt 0.396265 0.061343
vt 0.402621 0.059533
vt 0.408978 0.057723
vt 0.415334 0.055913
vt 0.421691 0.054103
vt 0.428047 0.052293
vt 0.434404 0.050484
vt 0.440760 0.048673
vt 0.447117 0.046864
vt 0.453473 0.045054
vt 0.459830 0.043244
vt 0.466186 0.041434
vt 0.442570 -0.055799
vt 0.444904 -0.055813
vt 0.444104 -0.066379
vt 0.440421 -0.057061
vt 0.438716 -0.059447
vt 0.437661 -0.062670
vt 0.437383 -0.066339
vt 0.437916 -0.070013
vt 0.439195 -0.073250
vt 0.441066 -0.075657
vt 0.443304 -0.076945
vt 0.445638 -0.076959
vt 0.447787 -0.075696
vt 0.449492 -0.073311
vt 0.450547 -0.070088
vt 0.450825 -0.066419
vt 0.450292 -0.062744
vt 0.449013 -0.059508
vt 0.447142 -0.057101
vt 0.442033 -0.035765
vt 0.444182 -0.034504
vt 0.445715 -0.045084
vt 0.446516 -0.034518
vt 0.448754 -0.035806
vt 0.450624 -0.038214
vt 0.451903 -0.041450
vt 0.452436 -0.045125
vt 0.452158 -0.048794
vt 0.451102 -0.052016
vt 0.449397 -0.054402
vt 0.447248 -0.055664
vt 0.444914 -0.055650
vt 0.442677 -0.054361
vt 0.440806 -0.051953
vt 0.439527 -0.048717
vt 0.438994 -0.045043
vt 0.439273 -0.041373
vt 0.440328 -0.038151
s 1
usemtl Material.004
f 140/143/12 137/144/12 138/145/13
f 138/145/13 139/146/13 140/143/12
f 139/146/13 138/145/13 141/147/14
f 141/147/14 142/148/14 139/146/13
f 142/148/14 141/147/14 143/149/15
f 143/149/15 144/150/15 142/148/14
f 144/150/15 143/149/15 145/151/16
f 145/151/16 146/152/16 144/150/15
f 150/153/16 147/154/16 148/155/17
f 148/155/17 149/156/17 150/153/16
f 149/156/17 148/155/17 151/157/18
f 151/157/18 152/158/18 149/156/17
f 152/158/18 151/157/18 153/159/19
f 153/159/19 154/160/19 152/158/18
f 154/160/19 153/159/19 155/161/20
f 155/161/20 156/162/20 154/160/19
f 156/162/20 155/161/20 157/163/21
f 157/163/21 158/164/21 156/162/20
f 158/165/21 157/166/21 159/167/22
f 159/167/22 160/168/22 158/165/21
f 160/168/22 159/167/22 161/169/23
f 161/169/23 162/170/23 160/168/22
f 162/170/23 161/169/23 163/171/24
f 163/171/24 164/172/24 162/170/23
f 164/172/24 163/171/24 165/173/25
f 165/173/25 166/174/25 164/172/24
f 166/174/25 165/173/25 167/175/26
f 167/175/26 168/176/26 166/174/25
f 168/176/26 167/175/26 169/177/27
f 169/177/27 170/178/27 168/176/26
f 170/178/27 169/177/27 171/179/28
f 171/179/28 172/180/28 170/178/27
f 172/180/28 171/179/28 173/181/29
f 173/181/29 174/182/29 172/180/28
f 174/182/29 173/181/29 137/183/12
f 137/183/12 140/184/12 174/182/29
f 176/185/12 140/143/12 139/146/13
f 139/146/13 175/186/13 176/185/12
f 175/186/13 139/146/13 142/148/14
f 142/148/14 177/187/14 175/186/13
f 177/187/14 142/148/14 144/150/15
f 144/150/15 178/188/15 177/187/14
f 178/188/15 144/150/15 146/152/16
f 146/152/16 179/189/16 178/188/15
f 181/190/16 150/153/16 149/156/17
f 149/156/17 180/191/17 181/190/16
f 180/191/17 149/156/17 152/158/18
f 152/158/18 182/192/18 180/191/17
f 182/192/18 152/158/18 154/160/19
f 154/160/19 183/193/19 182/192/18
f 183/193/19 154/160/19 156/162/20
f 156/162/20 184/194/20 183/193/19
f 184/194/20 156/162/20 158/164/21
f 158/164/21 185/195/21 184/194/20
f 185/196/21 158/165/21 160/168/22
f 160/197/22 186/198/22 185/195/21
f 186/199/22 160/168/22 162/170/23
f 162/170/23 187/200/23 186/199/22
f 187/200/23 162/170/23 164/172/24
f 164/172/24 188/201/24 187/200/23
f 188/201/24 164/172/24 166/174/25
f 166/174/25 189/202/25 188/201/24
f 189/202/25 166/174/25 168/176/26
f 168/176/26 190/203/26 189/202/25
f 190/203/26 168/176/26 170/178/27
f 170/178/27 191/204/27 190/203/26
f 191/204/27 170/178/27 172/180/28
f 172/180/28 192/205/28 191/204/27
f 192/205/28 172/180/28 174/182/29
f 174/182/29 193/206/29 192/205/28
f 193/206/29 174/182/29 140/184/12
f 140/184/12 176/207/12 193/206/29
f 195/208/12 176/185/12 175/186/13
f 175/186/13 194/209/13 195/208/12
f 194/209/13 175/186/13 177/187/14
f 177/187/14 196/210/14 194/209/13
f 196/210/14 177/187/14 178/188/15
f 178/188/15 197/211/15 196/210/14
f 197/211/15 178/188/15 179/189/16
f 179/189/16 198/212/16 197/211/15
f 200/213/16 181/190/16 180/191/17
f 180/191/17 199/214/17 200/213/16
f 199/214/17 180/191/17 182/192/18
f 182/192/18 201/215/18 199/214/17
f 201/215/18 182/192/18 183/193/19
f 183/193/19 202/216/19 201/215/18
f 202/216/19 183/193/19 184/194/20
f 184/194/20 203/217/20 202/216/19
f 203/217/20 184/194/20 185/195/21
f 185/195/21 204/218/21 203/217/20
f 204/218/21 185/195/21 186/198/22
f 186/198/22 205/219/22 204/218/21
f 205/219/22 186/198/22 187/220/23
f 187/220/23 206/221/23 205/219/22
f 206/221/23 187/220/23 188/222/24
f 188/222/24 207/223/24 206/221/23
f 207/223/24 188/222/24 189/224/25
f 189/224/25 208/225/25 207/223/24
f 208/225/25 189/224/25 190/226/26
f 190/226/26 209/227/26 208/225/25
f 209/227/26 190/226/26 191/228/27
f 191/228/27 210/229/27 209/227/26
f 210/229/27 191/228/27 192/230/28
f 192/230/28 211/231/28 210/229/27
f 211/231/28 192/230/28 193/232/29
f 193/232/29 212/233/29 211/231/28
f 212/233/29 193/232/29 176/185/12
f 176/185/12 195/208/12 212/233/29
f 214/234/12 195/208/12 194/209/13
f 194/209/13 213/235/13 214/234/12
f 213/235/13 194/209/13 196/210/14
f 196/210/14 215/236/14 213/235/13
f 215/236/14 196/210/14 197/211/15
f 197/211/15 216/237/15 215/236/14
f 216/237/15 197/211/15 198/212/16
f 198/212/16 217/238/16 216/237/15
f 219/239/16 200/213/16 199/214/17
f 199/214/17 218/240/17 219/239/16
f 218/240/17 199/214/17 201/215/18
f 201/215/18 220/241/18 218/240/17
f 220/241/18 201/215/18 202/216/19
f 202/216/19 221/242/19 220/241/18
f 221/242/19 202/216/19 203/217/20
f 203/217/20 222/243/20 221/242/19
f 222/243/20 203/217/20 204/218/21
f 204/218/21 223/244/21 222/243/20
f 223/244/21 204/218/21 205/219/22
f 205/219/22 224/245/22 223/244/21
f 224/245/22 205/219/22 206/221/23
f 206/221/23 225/246/23 224/245/22
f 225/246/23 206/221/23 207/223/24
f 207/223/24 226/247/24 225/246/23
f 226/247/24 207/223/24 208/225/25
f 208/225/25 227/248/25 226/247/24
f 227/248/25 208/225/25 209/227/26
f 209/227/26 228/249/26 227/248/25
f 228/249/26 209/227/26 210/229/27
f 210/229/27 229/250/27 228/249/26
f 229/250/27 210/229/27 211/231/28
f 211/231/28 230/251/28 229/250/27
f 230/251/28 211/231/28 212/233/29
f 212/233/29 231/252/29 230/251/28
f 231/252/29 212/233/29 195/208/12
f 195/208/12 214/234/12 231/252/29
f 233/253/12 214/234/12 213/235/13
f 213/235/13 232/254/13 233/253/12
f 232/254/13 213/235/13 215/236/14
f 215/236/14 234/255/14 232/254/13
f 234/255/14 215/236/14 216/237/15
f 216/237/15 235/256/15 234/255/14
f 235/256/15 216/237/15 217/238/16
f 217/238/16 236/257/16 235/256/15
f 238/258/16 219/239/16 218/240/17
f 218/240/17 237/259/17 238/258/16
f 237/259/17 218/240/17 220/241/18
f 220/241/18 239/260/18 237/259/17
f 239/260/18 220/241/18 221/242/19
f 221/242/19 240/261/19 239/260/18
f 240/261/19 221/242/19 222/243/20
f 222/243/20 241/262/20 240/261/19
f 241/262/20 222/243/20 223/244/21
f 223/244/21 242/263/21 241/262/20
f 242/263/21 223/244/21 224/245/22
f 224/245/22 243/264/22 242/263/21
f 243/264/22 224/245/22 225/246/23
f 225/246/23 244/265/23 243/264/22
f 244/265/23 225/246/23 226/247/24
f 226/247/24 245/266/24 244/265/23
f 245/266/24 226/247/24 227/248/25
f 227/248/25 246/267/25 245/266/24
f 246/267/25 227/248/25 228/249/26
f 228/249/26 247/268/26 246/267/25
f 247/268/26 228/249/26 229/250/27
f 229/250/27 248/269/27 247/268/26
f 248/269/27 229/250/27 230/251/28
f 230/251/28 249/270/28 248/269/27
f 249/270/28 230/251/28 231/252/29
f 231/252/29 250/271/29 249/270/28
f 250/271/29 231/252/29 214/234/12
f 214/234/12 233/253/12 250/271/29
s 0
f 251/272/30 252/273/30 253/274/30
f 254/275/30 251/272/30 253/274/30
f 255/276/30 254/275/30 253/274/30
f 256/277/30 255/276/30 253/274/30
f 257/278/30 256/277/30 253/274/30
f 258/279/30 257/278/30 253/274/30
f 259/280/30 258/279/30 253/274/30
f 260/281/30 259/280/30 253/274/30
f 261/282/30 260/281/30 253/274/30
f 262/283/30 261/282/30 253/274/30
f 263/284/30 262/283/30 253/274/30
f 264/285/30 263/284/30 253/274/30
f 265/286/30 264/285/30 253/274/30
f 266/287/30 265/286/30 253/274/30
f 267/288/30 266/287/30 253/274/30
f 268/289/30 267/288/30 253/274/30
f 269/290/30 268/289/30 253/274/30
f 252/273/30 269/290/30 253/274/30
f 270/291/31 271/292/31 272/293/31
f 271/292/31 273/294/31 272/293/31
f 273/294/31 274/295/31 272/293/31
f 274/295/31 275/296/31 272/293/31
f 275/296/31 276/297/31 272/293/31
f 276/297/31 277/298/31 272/293/31
f 277/298/31 278/299/31 272/293/31
f 278/299/31 279/300/31 272/293/31
f 279/300/31 280/301/31 272/293/31
f 280/301/31 281/302/31 272/293/31
f 281/302/31 282/303/31 272/293/31
f 282/303/31 283/304/31 272/293/31
f 283/304/31 284/305/31 272/293/31
f 284/305/31 285/306/31 272/293/31
f 285/306/31 286/307/31 272/293/31
f 286/307/31 287/308/31 272/293/31
f 287/308/31 288/309/31 272/293/31
f 288/309/31 270/291/31 272/293/31
