# Blender 3.6.22
# www.blender.org
mtllib MAQUINA_MONEDA.mtl
o Cube
v 1.000000 2.052776 -1.000000
v 1.000000 0.052776 -1.000000
v 1.000000 2.052776 1.000000
v 1.000000 0.052776 1.000000
v -1.000000 2.052776 -1.000000
v -1.000000 0.052776 -1.000000
v -1.000000 2.052776 1.000000
v -1.000000 0.052776 1.000000
v 1.000000 2.052776 -1.000000
v 1.000000 2.052776 1.000000
v -1.000000 2.052776 -1.000000
v -1.000000 2.052776 1.000000
vn -0.0000 -0.0000 1.0000
vn -1.0000 -0.0000 -0.0000
vn -0.0000 -1.0000 -0.0000
vn 1.0000 -0.0000 -0.0000
vn -0.0000 -0.0000 -1.0000
vn -0.0000 1.0000 -0.0000
vt 0.979990 0.978192
vt 0.000823 -0.001268
vt 0.979327 -0.001938
vt 0.988285 0.998155
vt 0.011758 0.005599
vt 0.990637 0.007738
vt 0.312543 0.157005
vt 0.062587 0.406962
vt 0.062587 0.157005
vt 0.977652 0.979296
vt 0.003161 0.019453
vt 0.978191 0.019981
vt 0.995500 1.000231
vt 0.004543 0.010682
vt 0.994275 0.009244
vt 1.006844 0.027475
vt 0.008708 0.980189
vt 0.008708 0.027475
vt 0.001486 0.978862
vt 0.009406 0.996016
vt 0.312543 0.406962
vt 0.002621 0.978768
vt 0.005768 1.001669
vt 1.006844 0.980189
s 0
usemtl Material.001
f 3/1/1 8/2/1 4/3/1
f 7/4/2 6/5/2 8/6/2
f 2/7/3 8/8/3 6/9/3
f 1/10/4 4/11/4 2/12/4
f 5/13/5 2/14/5 6/15/5
f 3/1/1 7/19/1 8/2/1
f 7/4/2 5/20/2 6/5/2
f 2/7/3 4/21/3 8/8/3
f 1/10/4 3/22/4 4/11/4
f 5/13/5 1/23/5 2/14/5
usemtl Material.002
f 11/16/6 10/17/6 9/18/6
f 11/16/6 12/24/6 10/17/6
