# Blender 3.6.22
# www.blender.org
mtllib MONEDA.mtl
o Object_2
v 0.080279 -0.187215 0.128225
v -0.080279 -0.186645 0.134705
v -0.099045 -0.154104 -0.333092
v 0.061513 -0.154674 -0.339573
v -0.115974 0.021517 -0.767967
v 0.044584 0.020947 -0.774448
v -0.129409 0.323027 -1.127351
v 0.031149 0.322457 -1.133832
v -0.138035 0.720913 -1.376065
v 0.022524 0.720343 -1.382546
v -0.141007 1.176226 -1.489763
v 0.019551 1.175656 -1.496243
v -0.138035 1.644397 -1.457315
v 0.022524 1.643826 -1.463795
v -0.129409 2.079598 -1.281898
v 0.031149 2.079028 -1.288378
v -0.115974 2.439229 -0.980682
v 0.044584 2.438659 -0.987163
v -0.099045 2.688087 -0.583154
v 0.061513 2.687517 -0.589634
v -0.080279 2.801811 -0.128224
v 0.080279 2.801241 -0.134705
v -0.061513 2.769270 0.339573
v 0.099045 2.768700 0.333093
v -0.044584 2.593648 0.774449
v 0.115975 2.593079 0.767968
v -0.031149 2.292138 1.133832
v 0.129409 2.291568 1.127352
v -0.022524 1.894252 1.382546
v 0.138035 1.893682 1.376066
v -0.019551 1.438939 1.496243
v 0.141007 1.438369 1.489763
v -0.022524 0.970768 1.463795
v 0.138035 0.970198 1.457315
v -0.031149 0.535567 1.288377
v 0.129409 0.534997 1.281897
v -0.044584 0.175936 0.987161
v 0.115974 0.175366 0.980681
v -0.061513 -0.072921 0.589632
v 0.099045 -0.073491 0.583152
v -0.080279 -0.186645 0.134705
v 0.080279 -0.187215 0.128225
v 0.080279 -0.187215 0.128225
v 0.061513 -0.154674 -0.339573
v 0.044584 0.020947 -0.774448
v 0.031149 0.322457 -1.133832
v 0.022524 0.720343 -1.382546
v 0.019551 1.175656 -1.496243
v 0.022524 1.643826 -1.463795
v 0.031149 2.079028 -1.288378
v 0.044584 2.438659 -0.987163
v 0.061513 2.687517 -0.589634
v 0.080279 2.801241 -0.134705
v 0.099045 2.768700 0.333093
v 0.115975 2.593079 0.767968
v 0.129409 2.291568 1.127352
v 0.138035 1.893682 1.376066
v 0.141007 1.438369 1.489763
v 0.138035 0.970198 1.457315
v 0.129409 0.534997 1.281897
v 0.115974 0.175366 0.980681
v 0.099045 -0.073491 0.583152
v -0.061513 -0.072921 0.589632
v -0.044584 0.175936 0.987161
v -0.031149 0.535567 1.288377
v -0.022524 0.970768 1.463795
v -0.019551 1.438939 1.496243
v -0.022524 1.894252 1.382546
v -0.031149 2.292138 1.133832
v -0.044584 2.593648 0.774449
v -0.061513 2.769270 0.339573
v -0.080279 2.801811 -0.128224
v -0.099045 2.688087 -0.583154
v -0.115974 2.439229 -0.980682
v -0.129409 2.079598 -1.281898
v -0.138035 1.644397 -1.457315
v -0.141007 1.176226 -1.489763
v -0.138035 0.720913 -1.376065
v -0.129409 0.323027 -1.127351
v -0.115974 0.021517 -0.767967
v -0.099045 -0.154104 -0.333092
v -0.080279 -0.186645 0.134705
vn -0.0002 -0.9962 0.0877
vn 0.0002 -0.9962 0.0877
vn -0.0125 -0.9745 -0.2242
vn -0.0238 -0.8574 -0.5141
vn -0.0328 -0.6564 -0.7537
vn -0.0385 -0.3911 -0.9195
vn -0.0405 -0.0876 -0.9953
vn -0.0385 0.2245 -0.9737
vn -0.0328 0.5147 -0.8568
vn -0.0238 0.7544 -0.6559
vn -0.0125 0.9203 -0.3909
vn -0.0000 0.9962 -0.0876
vn 0.0125 0.9745 0.2242
vn 0.0238 0.8574 0.5141
vn 0.0328 0.6564 0.7537
vn 0.0385 0.3911 0.9195
vn 0.0405 0.0876 0.9953
vn 0.0385 -0.2245 0.9737
vn 0.0328 -0.5147 0.8568
vn 0.0238 -0.7544 0.6559
vn 0.0125 -0.9203 0.3909
vn 0.0002 -0.9962 0.0876
vn -0.0002 -0.9962 0.0876
vn 0.9992 -0.0035 -0.0403
vn -0.9992 0.0035 0.0403
vt 0.910565 0.596563
vt 0.866836 0.596563
vt 0.866836 0.582114
vt 0.910565 0.582114
vt 0.866836 0.567665
vt 0.910565 0.567665
vt 0.866836 0.553217
vt 0.910565 0.553217
vt 0.866836 0.538768
vt 0.910565 0.538768
vt 0.866836 0.524320
vt 0.910565 0.524320
vt 0.866836 0.509871
vt 0.910565 0.509871
vt 0.866836 0.495422
vt 0.910565 0.495422
vt 0.866836 0.480974
vt 0.910565 0.480974
vt 0.866836 0.466525
vt 0.910565 0.466525
vt 0.866836 0.452077
vt 0.910565 0.452077
vt 0.866836 0.437628
vt 0.910565 0.437628
vt 0.866836 0.423179
vt 0.910565 0.423179
vt 0.866836 0.408731
vt 0.910565 0.408731
vt 0.866836 0.394282
vt 0.910565 0.394282
vt 0.866836 0.379834
vt 0.910565 0.379834
vt 0.866836 0.365385
vt 0.910565 0.365385
vt 0.866836 0.350936
vt 0.910565 0.350936
vt 0.866836 0.336488
vt 0.910565 0.336488
vt 0.866836 0.322039
vt 0.910565 0.322039
vt 0.866836 0.307591
vt 0.910565 0.307591
vt 0.444997 0.020516
vt 0.591444 0.022863
vt 0.730288 0.071268
vt 0.847940 0.160994
vt 0.932882 0.283258
vt 0.976799 0.426091
vt 0.975393 0.575513
vt 0.928802 0.716896
vt 0.841585 0.836402
vt 0.722281 0.922331
vt 0.582567 0.966273
vt 0.436120 0.963926
vt 0.297275 0.915520
vt 0.179624 0.825794
vt 0.094682 0.703530
vt 0.050765 0.560697
vt 0.052171 0.411275
vt 0.098762 0.269892
vt 0.185979 0.150387
vt 0.305284 0.064458
vt 0.560465 0.010749
vt 0.699146 0.051521
vt 0.818755 0.134254
vt 0.907586 0.250848
vt 0.956941 0.389891
vt 0.961990 0.537773
vt 0.922240 0.680018
vt 0.841580 0.802701
vt 0.727907 0.893814
vt 0.592347 0.944437
vt 0.448171 0.949617
vt 0.309490 0.908844
vt 0.189881 0.826112
vt 0.101051 0.709517
vt 0.051696 0.570474
vt 0.046646 0.422593
vt 0.086397 0.280348
vt 0.167056 0.157665
vt 0.280730 0.066552
vt 0.416289 0.015929
s 1
usemtl Material.001
f 1/1/1 2/2/2 3/3/3
f 1/1/1 3/3/3 4/4/3
f 4/4/3 3/3/3 5/5/4
f 4/4/3 5/5/4 6/6/4
f 6/6/4 5/5/4 7/7/5
f 6/6/4 7/7/5 8/8/5
f 8/8/5 7/7/5 9/9/6
f 8/8/5 9/9/6 10/10/6
f 10/10/6 9/9/6 11/11/7
f 10/10/6 11/11/7 12/12/7
f 12/12/7 11/11/7 13/13/8
f 12/12/7 13/13/8 14/14/8
f 14/14/8 13/13/8 15/15/9
f 14/14/8 15/15/9 16/16/9
f 16/16/9 15/15/9 17/17/10
f 16/16/9 17/17/10 18/18/10
f 18/18/10 17/17/10 19/19/11
f 18/18/10 19/19/11 20/20/11
f 20/20/11 19/19/11 21/21/12
f 20/20/11 21/21/12 22/22/12
f 22/22/12 21/21/12 23/23/13
f 22/22/12 23/23/13 24/24/13
f 24/24/13 23/23/13 25/25/14
f 24/24/13 25/25/14 26/26/14
f 26/26/14 25/25/14 27/27/15
f 26/26/14 27/27/15 28/28/15
f 28/28/15 27/27/15 29/29/16
f 28/28/15 29/29/16 30/30/16
f 30/30/16 29/29/16 31/31/17
f 30/30/16 31/31/17 32/32/17
f 32/32/17 31/31/17 33/33/18
f 32/32/17 33/33/18 34/34/18
f 34/34/18 33/33/18 35/35/19
f 34/34/18 35/35/19 36/36/19
f 36/36/19 35/35/19 37/37/20
f 36/36/19 37/37/20 38/38/20
f 38/38/20 37/37/20 39/39/21
f 38/38/20 39/39/21 40/40/21
f 40/40/21 39/39/21 41/41/22
f 40/40/21 41/41/22 42/42/23
s 0
f 43/43/24 44/44/24 45/45/24
f 43/43/24 45/45/24 46/46/24
f 43/43/24 46/46/24 47/47/24
f 43/43/24 47/47/24 48/48/24
f 43/43/24 48/48/24 49/49/24
f 43/43/24 49/49/24 50/50/24
f 43/43/24 50/50/24 51/51/24
f 43/43/24 51/51/24 52/52/24
f 43/43/24 52/52/24 53/53/24
f 43/43/24 53/53/24 54/54/24
f 43/43/24 54/54/24 55/55/24
f 43/43/24 55/55/24 56/56/24
f 43/43/24 56/56/24 57/57/24
f 43/43/24 57/57/24 58/58/24
f 43/43/24 58/58/24 59/59/24
f 43/43/24 59/59/24 60/60/24
f 43/43/24 60/60/24 61/61/24
f 43/43/24 61/61/24 62/62/24
f 63/63/25 64/64/25 65/65/25
f 63/63/25 65/65/25 66/66/25
f 63/63/25 66/66/25 67/67/25
f 63/63/25 67/67/25 68/68/25
f 63/63/25 68/68/25 69/69/25
f 63/63/25 69/69/25 70/70/25
f 63/63/25 70/70/25 71/71/25
f 63/63/25 71/71/25 72/72/25
f 63/63/25 72/72/25 73/73/25
f 63/63/25 73/73/25 74/74/25
f 63/63/25 74/74/25 75/75/25
f 63/63/25 75/75/25 76/76/25
f 63/63/25 76/76/25 77/77/25
f 63/63/25 77/77/25 78/78/25
f 63/63/25 78/78/25 79/79/25
f 63/63/25 79/79/25 80/80/25
f 63/63/25 80/80/25 81/81/25
f 63/63/25 81/81/25 82/82/25
