# Blender 3.6.22
# www.blender.org
mtllib puerta_1.mtl
o ParkDoor1
v -0.122128 10.827659 -0.000002
v 9.928246 10.827658 -0.000002
v 9.928250 6.540003 -0.000001
v -0.122129 6.540003 -0.000013
v -1.122130 23.106766 -0.027280
v -1.122130 -0.011779 -0.027283
v -1.122130 -0.011779 0.646606
v -1.122130 23.106770 0.646603
v -0.122134 -0.011779 -0.126996
v -0.122130 23.106770 -0.127006
v -0.122131 23.106770 0.646590
v -0.122132 -0.011779 0.646594
v -1.022132 -0.011779 -0.126990
v -1.022130 23.106770 -0.126994
v -0.122128 23.085758 -0.000004
v 9.928248 23.085758 -0.000004
v 9.928246 18.152634 -0.000003
v -0.122129 18.152634 -0.000003
v -0.122129 16.633972 -0.000003
v 9.928248 16.633972 -0.000003
v 9.928248 12.346320 -0.000002
v -0.122129 12.346320 -0.000002
v 9.928246 0.028043 -0.000000
v -0.122129 0.028043 -0.000012
v -0.122130 5.021344 -0.000007
v 9.928246 5.021345 0.000005
v -0.122129 17.979774 0.288876
v 9.928246 17.979774 0.288876
v 9.928246 16.806831 0.288877
v -0.122130 16.806831 0.288877
v -0.122130 12.173456 0.288877
v 9.928246 12.173460 0.288877
v 9.928246 11.000520 0.288878
v -0.122130 11.000520 0.288878
v 9.928246 5.194206 0.288879
v -0.122130 5.194207 0.288885
v -0.122130 6.367141 0.288878
v 9.928246 6.367142 0.288878
v -0.122129 18.152634 -0.000003
v 9.928246 18.152634 -0.000003
v 9.928246 17.979774 0.288876
v -0.122129 17.979774 0.288876
v 9.928248 16.633972 -0.000003
v -0.122129 16.633972 -0.000003
v -0.122130 16.806831 0.288877
v 9.928246 16.806831 0.288877
v -0.122129 12.346320 -0.000002
v 9.928248 12.346320 -0.000002
v 9.928246 12.173460 0.288877
v -0.122130 12.173456 0.288877
v 9.928246 10.827658 -0.000002
v -0.122128 10.827659 -0.000002
v -0.122130 11.000520 0.288878
v 9.928246 11.000520 0.288878
v 9.928246 5.021345 0.000005
v -0.122130 5.021344 -0.000007
v -0.122130 5.194207 0.288885
v 9.928246 5.194206 0.288879
v -0.122129 6.540003 -0.000013
v 9.928250 6.540003 -0.000001
v 9.928246 6.367142 0.288878
v -0.122130 6.367141 0.288878
v -1.022132 -0.011779 -0.126990
v -1.022130 23.106770 -0.126994
v -0.122130 23.106770 -0.127006
v -0.122134 -0.011779 -0.126996
v 5.270659 0.431252 -0.262134
v 5.316596 0.431252 -0.151550
v 5.316593 22.330132 -0.151572
v 5.270659 22.330132 -0.262150
v 5.427485 0.431252 -0.105756
v 5.427485 22.330132 -0.105778
v 5.538375 0.431252 -0.151544
v 5.538376 22.330135 -0.151572
v 5.316596 0.431252 -0.372699
v 5.316595 22.330132 -0.372721
v 5.103434 7.579721 -0.194197
v 5.075091 7.579720 -0.068879
v 5.075088 7.968213 -0.068879
v 5.103432 7.968214 -0.194197
v 5.779870 7.579721 -0.068879
v 5.751530 7.579722 -0.194203
v 5.751531 7.968213 -0.194203
v 5.779871 7.968213 -0.068873
v 5.653312 7.579720 -0.262105
v 5.587170 7.579722 -0.421345
v 5.587171 7.968214 -0.421339
v 5.653313 7.968212 -0.262105
v 5.201649 7.579721 -0.262111
v 5.201649 7.968213 -0.262105
v 5.267794 7.968212 -0.421345
v 5.267792 7.579721 -0.421345
v 5.103432 0.635332 -0.194214
v 5.075091 0.635332 -0.068897
v 5.075089 1.604810 -0.068897
v 5.103434 1.604810 -0.194214
v 5.779873 0.635332 -0.068897
v 5.751530 0.635332 -0.194214
v 5.751531 1.604810 -0.194214
v 5.779874 1.604810 -0.068897
v 5.270655 0.128568 -0.262103
v 5.316593 0.128568 -0.151526
v 5.289608 0.170463 -0.124634
v 5.232502 0.170463 -0.262103
v 5.643909 -0.028258 -0.418433
v 5.643909 -0.139151 -0.372644
v 5.605179 -0.166131 -0.399530
v 5.605179 -0.028258 -0.456512
v 5.211047 0.082633 -0.151483
v 5.211048 -0.028258 -0.105707
v 5.249781 -0.028258 -0.067639
v 5.249778 0.109616 -0.124615
v 0.932024 4.671417 -0.102277
v 0.932026 4.671418 -0.267506
v 0.932024 4.377359 -0.267506
v 0.932023 4.377359 -0.102271
v 4.926723 4.961629 -0.102271
v 4.926728 4.961630 -0.267506
v 4.850790 4.744597 -0.267512
v 4.850788 4.744597 -0.102271
v 5.304360 4.961630 -0.102277
v 5.304360 4.961630 -0.267506
v 4.926728 4.961630 -0.267506
v 4.926723 4.961629 -0.102271
v 5.304363 4.087147 -0.102271
v 5.304358 4.087146 -0.267506
v 5.304360 4.961630 -0.267506
v 5.304360 4.961630 -0.102277
v 4.926728 4.087146 -0.102271
v 4.926726 4.087146 -0.267506
v 5.304358 4.087146 -0.267506
v 5.304363 4.087147 -0.102271
v 4.850788 4.304178 -0.102271
v 4.850788 4.304179 -0.267506
v 4.926726 4.087146 -0.267506
v 4.926728 4.087146 -0.102271
v 5.103432 21.056084 -0.194217
v 5.075091 21.056087 -0.068894
v 5.075091 22.025564 -0.068894
v 5.103432 22.025564 -0.194217
v 5.779874 21.056087 -0.068894
v 5.751531 21.056087 -0.194217
v 5.751530 22.025566 -0.194217
v 5.779874 22.025564 -0.068888
v 5.201650 21.056087 -0.262119
v 5.201650 22.025566 -0.262119
v 5.267796 22.025566 -0.421360
v 5.267797 21.056091 -0.421360
v 5.211050 22.805199 -0.418436
v 5.211050 22.916088 -0.372642
v 5.249781 22.943073 -0.399534
v 5.249781 22.805199 -0.456510
v 5.643912 22.694309 -0.151487
v 5.643912 22.805199 -0.105704
v 5.605184 22.805199 -0.067637
v 5.605183 22.667324 -0.124619
v 5.103436 15.015754 -0.194204
v 5.075091 15.015751 -0.068881
v 5.075091 15.404240 -0.068881
v 5.103434 15.404240 -0.194204
v 5.779874 15.015751 -0.068881
v 5.751530 15.015751 -0.194204
v 5.751530 15.404243 -0.194204
v 5.779871 15.404240 -0.068881
v 5.653313 15.015751 -0.262106
v 5.587170 15.015751 -0.421346
v 5.587170 15.404243 -0.421347
v 5.653313 15.404240 -0.262106
v 5.201649 15.015751 -0.262112
v 5.201649 15.404243 -0.262112
v 5.267794 15.404243 -0.421347
v 5.267792 15.015751 -0.421346
v 0.284334 0.431252 -0.151544
v 0.395225 0.431252 -0.105762
v 0.395226 22.330135 -0.105790
v 0.284333 22.330132 -0.151572
v 0.506121 0.431252 -0.151544
v 0.506121 22.330132 -0.151572
v 0.071177 7.579720 -0.194209
v 0.042835 7.579720 -0.068892
v 0.042833 7.968213 -0.068879
v 0.071177 7.968212 -0.194203
v 0.747614 7.579721 -0.068886
v 0.719270 7.579721 -0.194203
v 0.719270 7.968212 -0.194203
v 0.747614 7.968212 -0.068892
v 0.621057 7.579720 -0.262105
v 0.554911 7.579720 -0.421345
v 0.554910 7.968212 -0.421339
v 0.621055 7.968213 -0.262098
v 0.169392 7.579720 -0.262098
v 0.169392 7.968212 -0.262098
v 0.235534 7.968212 -0.421345
v 0.235537 7.579720 -0.421345
v 0.071177 0.635332 -0.194214
v 0.042833 0.635332 -0.068890
v 0.042835 1.604810 -0.068897
v 0.071178 1.604810 -0.194220
v 0.747617 0.635332 -0.068897
v 0.719271 0.635332 -0.194214
v 0.719271 1.604810 -0.194220
v 0.747617 1.604810 -0.068897
v 0.169392 0.635332 -0.262122
v 0.169394 1.604811 -0.262128
v 0.235534 1.604810 -0.421356
v 0.235536 0.635332 -0.421356
v 0.611652 -0.028258 -0.418433
v 0.611653 -0.139151 -0.372644
v 0.572923 -0.166131 -0.399536
v 0.572919 -0.028258 -0.456506
v 0.178788 0.082633 -0.151483
v 0.178791 -0.028258 -0.105707
v 0.217519 -0.028258 -0.067639
v 0.217519 0.109616 -0.124622
v 0.071177 21.056087 -0.194223
v 0.042835 21.056087 -0.068888
v 0.042835 22.025564 -0.068888
v 0.071177 22.025564 -0.194217
v 0.747616 21.056084 -0.068894
v 0.719270 21.056087 -0.194223
v 0.719273 22.025566 -0.194224
v 0.747616 22.025564 -0.068894
v 0.621057 21.056087 -0.262119
v 0.554913 21.056084 -0.421354
v 0.554913 22.025566 -0.421360
v 0.621058 22.025566 -0.262119
v 0.169392 21.056091 -0.262119
v 0.169393 22.025566 -0.262119
v 0.235536 22.025564 -0.421354
v 0.235537 21.056087 -0.421354
v 0.178791 22.805197 -0.418436
v 0.178791 22.916088 -0.372642
v 0.217523 22.943073 -0.399534
v 0.217521 22.805197 -0.456510
v 0.611652 22.694309 -0.151481
v 0.611653 22.805197 -0.105698
v 0.572924 22.805199 -0.067649
v 0.572924 22.667320 -0.124613
v 0.071177 15.015751 -0.194204
v 0.042835 15.015751 -0.068881
v 0.042835 15.404240 -0.068881
v 0.071178 15.404240 -0.194204
v 0.747616 15.015751 -0.068887
v 0.719270 15.015751 -0.194204
v 0.719270 15.404240 -0.194204
v 0.747616 15.404243 -0.068887
v 0.621057 15.015748 -0.262106
v 0.554911 15.015751 -0.421346
v 0.554911 15.404243 -0.421340
v 0.621055 15.404240 -0.262106
v 0.169390 15.015748 -0.262112
v 0.169392 15.404240 -0.262112
v 0.235537 15.404240 -0.421347
v 0.235536 15.015751 -0.421346
v 4.881838 2.320387 -0.102271
v 4.881836 2.320387 -0.267505
v 4.881836 2.614446 -0.267505
v 4.881838 2.614446 -0.102271
v 0.887136 2.030175 -0.102271
v 0.887137 2.030175 -0.267493
v 0.963076 2.247209 -0.267505
v 0.963073 2.247208 -0.102271
v 0.509503 2.030175 -0.102271
v 0.509502 2.030175 -0.267505
v 0.887137 2.030175 -0.267493
v 0.887136 2.030175 -0.102271
v 0.509503 2.904659 -0.102277
v 0.509502 2.904660 -0.267505
v 0.509502 2.030175 -0.267505
v 0.509503 2.030175 -0.102271
v 0.887136 2.904659 -0.102271
v 0.887137 2.904659 -0.267505
v 0.509502 2.904660 -0.267505
v 0.509503 2.904659 -0.102277
v 0.963076 2.687626 -0.102271
v 0.963073 2.687626 -0.267505
v 0.887137 2.904659 -0.267505
v 0.887136 2.904659 -0.102271
v 2.940721 4.333018 -0.335535
v 2.940720 4.695179 -0.335535
v 3.297406 4.696081 -0.335535
v 3.297406 4.331239 -0.335535
v 2.940724 3.903327 -0.119691
v 2.940724 3.903327 -0.192737
v 3.297410 3.898822 -0.192713
v 3.297410 3.898822 -0.119691
v 3.297412 5.095520 -0.119691
v 3.297410 5.095520 -0.192738
v 2.940724 5.091887 -0.192738
v 2.940724 5.091887 -0.119691
v 2.940724 3.903327 -0.192737
v 2.940722 4.258246 -0.192738
v 3.297408 4.255876 -0.192738
v 3.297410 3.898822 -0.192713
v 3.297410 5.095520 -0.192738
v 3.297409 4.771400 -0.192738
v 2.940722 4.770012 -0.192713
v 2.940724 5.091887 -0.192738
v 2.954552 2.658765 -0.335535
v 2.954552 2.296604 -0.335523
v 2.597864 2.295701 -0.335511
v 2.597865 2.660545 -0.335511
v 2.954545 3.088456 -0.119690
v 2.954545 3.088456 -0.192725
v 2.597859 3.092962 -0.192725
v 2.597859 3.092961 -0.119690
v 2.597859 1.896263 -0.119690
v 2.597859 1.896263 -0.192725
v 2.954545 1.899897 -0.192725
v 2.954545 1.899896 -0.119678
v 2.954545 3.088456 -0.192725
v 2.954545 2.733537 -0.192725
v 2.597861 2.735907 -0.192725
v 2.597859 3.092962 -0.192725
v 2.597859 1.896263 -0.192725
v 2.597859 2.220383 -0.192713
v 2.954548 2.221772 -0.192713
v 2.954545 1.899897 -0.192725
v -0.122128 10.827659 0.278764
v -0.122129 6.540003 0.278753
v 9.928250 6.540003 0.278765
v 9.928246 10.827658 0.278764
v -0.122128 23.085758 0.278762
v -0.122129 18.152634 0.278763
v 9.928246 18.152634 0.278763
v 9.928248 23.085758 0.278762
v -0.122129 16.633972 0.278763
v -0.122129 12.346320 0.278764
v 9.928248 12.346320 0.278764
v 9.928248 16.633972 0.278763
v 9.928246 0.028043 0.278766
v 9.928246 5.021344 0.278771
v -0.122130 5.021344 0.278759
v -0.122129 0.028043 0.278754
v -0.122129 17.979774 0.567642
v -0.122130 16.806831 0.567643
v 9.928246 16.806831 0.567643
v 9.928246 17.979774 0.567642
v -0.122130 12.173456 0.567643
v -0.122130 11.000520 0.567643
v 9.928246 11.000520 0.567643
v 9.928246 12.173460 0.567643
v 9.928246 5.194206 0.567644
v 9.928246 6.367142 0.567644
v -0.122130 6.367141 0.567644
v -0.122130 5.194207 0.567651
v -0.122129 18.152634 0.278763
v -0.122129 17.979774 0.567642
v 9.928246 17.979774 0.567642
v 9.928246 18.152634 0.278763
v 9.928248 16.633972 0.278763
v 9.928246 16.806831 0.567643
v -0.122130 16.806831 0.567643
v -0.122129 16.633972 0.278763
v -0.122129 12.346320 0.278764
v -0.122130 12.173456 0.567643
v 9.928246 12.173460 0.567643
v 9.928248 12.346320 0.278764
v 9.928246 10.827658 0.278764
v 9.928246 11.000520 0.567643
v -0.122130 11.000520 0.567643
v -0.122128 10.827659 0.278764
v 9.928246 5.021344 0.278771
v 9.928246 5.194206 0.567644
v -0.122130 5.194207 0.567651
v -0.122130 5.021344 0.278759
v -0.122129 6.540003 0.278753
v -0.122130 6.367141 0.567644
v 9.928246 6.367142 0.567644
v 9.928250 6.540003 0.278765
v -1.122130 -0.011779 0.646606
v -0.122132 -0.011779 0.646594
v -0.122131 23.106770 0.646590
v -1.122130 23.106770 0.646603
v 10.115208 23.106770 0.709951
v 10.115209 -0.011781 0.709955
v 10.115197 -0.011781 -0.241846
v 10.115196 23.106770 -0.241849
v 9.691536 -0.011781 0.709967
v 9.691533 23.106770 0.709969
v 9.691533 23.106770 -0.241837
v 9.691534 -0.011781 -0.241833
v 10.115209 -0.011781 0.709955
v 10.115208 23.106770 0.709951
v 9.691533 23.106770 0.709969
v 9.691536 -0.011781 0.709967
v 10.115197 -0.011781 -0.241846
v 9.691534 -0.011781 -0.241833
v 9.691533 23.106770 -0.241837
v 10.115196 23.106770 -0.241849
v 9.691533 23.106770 -0.241837
v 9.691533 23.106770 0.709969
v 10.115208 23.106770 0.709951
v 10.115196 23.106770 -0.241849
v 9.691536 -0.011781 0.709967
v 9.691534 -0.011781 -0.241833
v 10.115197 -0.011781 -0.241846
v 10.115209 -0.011781 0.709955
v 9.928248 23.085758 0.278762
v 9.928248 23.085758 -0.000004
v -0.122128 23.085758 -0.000004
v -0.122128 23.085758 0.278762
v -0.122129 0.028043 0.278754
v -0.122129 0.028043 -0.000012
v 9.928246 0.028043 -0.000000
v 9.928246 0.028043 0.278766
v 5.103432 7.968214 -0.194197
v 5.075088 7.968213 -0.068879
v 5.218381 7.968213 -0.069941
v 5.201649 7.968213 -0.262105
v 5.270655 7.991210 -0.262105
v 5.267794 7.968212 -0.421345
v 5.316588 7.991209 -0.372676
v 5.427482 7.968213 -0.487288
v 5.427482 7.991208 -0.418483
v 5.587171 7.968214 -0.421339
v 5.538373 7.991209 -0.372682
v 5.653313 7.968212 -0.262105
v 5.584309 7.991208 -0.262105
v 5.636578 7.968213 -0.069941
v 5.779871 7.968213 -0.068873
v 5.751531 7.968213 -0.194203
v 5.751530 7.579722 -0.194203
v 5.779870 7.579721 -0.068879
v 5.636579 7.579721 -0.069941
v 5.653312 7.579720 -0.262105
v 5.584311 7.556727 -0.262105
v 5.587170 7.579722 -0.421345
v 5.538373 7.556726 -0.372682
v 5.427486 7.579720 -0.487294
v 5.427482 7.556726 -0.418489
v 5.267792 7.579721 -0.421345
v 5.316588 7.556726 -0.372682
v 5.201649 7.579721 -0.262111
v 5.270655 7.556727 -0.262105
v 5.218384 7.579721 -0.069941
v 5.075091 7.579720 -0.068879
v 5.103434 7.579721 -0.194197
v 5.103434 1.604810 -0.194214
v 5.075089 1.604810 -0.068897
v 5.218388 1.604810 -0.069953
v 5.201650 1.604810 -0.262122
v 5.270658 1.662193 -0.262122
v 5.267797 1.604811 -0.421356
v 5.316590 1.662192 -0.372687
v 5.427485 1.604811 -0.487293
v 5.427482 1.662193 -0.418488
v 5.587173 1.604811 -0.421350
v 5.538373 1.662192 -0.372693
v 5.653313 1.604810 -0.262122
v 5.584309 1.662193 -0.262122
v 5.636579 1.604810 -0.069953
v 5.779874 1.604810 -0.068897
v 5.751531 1.604810 -0.194214
v 5.751530 0.635332 -0.194214
v 5.779873 0.635332 -0.068897
v 5.636579 0.635332 -0.069952
v 5.653313 0.635332 -0.262122
v 5.584310 0.577950 -0.262122
v 5.587168 0.635332 -0.421350
v 5.538373 0.577949 -0.372693
v 5.427485 0.635333 -0.487293
v 5.427483 0.577949 -0.418488
v 5.267797 0.635332 -0.421356
v 5.316587 0.577949 -0.372687
v 5.201650 0.635333 -0.262122
v 5.270657 0.577949 -0.262122
v 5.218389 0.635333 -0.069952
v 5.075091 0.635332 -0.068897
v 5.103432 0.635332 -0.194214
v 5.427483 0.128568 -0.105731
v 5.427483 0.170463 -0.067682
v 5.427482 0.406820 -0.067682
v 5.289609 0.406820 -0.124652
v 5.427483 0.448716 -0.105743
v 5.316593 0.448716 -0.151526
v 5.538373 0.128568 -0.151526
v 5.565357 0.170463 -0.124628
v 5.565356 0.406820 -0.124646
v 5.538375 0.448716 -0.151526
v 5.584309 0.128568 -0.262109
v 5.622463 0.170463 -0.262103
v 5.622465 0.406820 -0.262103
v 5.584309 0.448716 -0.262109
v 5.538372 0.117734 -0.358649
v 5.565357 0.170463 -0.399573
v 5.565356 0.406820 -0.399573
v 5.538373 0.448716 -0.372681
v 4.850788 4.304179 -0.267506
v 4.850788 4.304178 -0.102271
v 2.799851 4.351259 -0.102271
v 2.799848 4.351259 -0.267506
v 2.560895 4.356889 -0.102271
v 2.560895 4.356889 -0.267506
v 0.932023 4.377359 -0.102271
v 2.560891 4.420756 -0.486597
v 0.932024 4.377359 -0.267506
v 5.103432 22.025564 -0.194217
v 5.075091 22.025564 -0.068894
v 5.218386 22.025566 -0.069950
v 5.201650 22.025566 -0.262119
v 5.270658 22.082951 -0.262119
v 5.267796 22.025566 -0.421360
v 5.316592 22.082951 -0.372690
v 5.427485 22.025570 -0.487296
v 5.427482 22.082947 -0.418497
v 5.587170 22.025564 -0.421354
v 5.538373 22.082951 -0.372696
v 5.653315 22.025566 -0.262119
v 5.584310 22.082951 -0.262119
v 5.636580 22.025566 -0.069950
v 5.779874 22.025564 -0.068888
v 5.751530 22.025566 -0.194217
v 5.751531 21.056087 -0.194217
v 5.779874 21.056087 -0.068894
v 5.636584 21.056091 -0.069950
v 5.653313 21.056087 -0.262119
v 5.584309 20.998707 -0.262119
v 5.587168 21.056087 -0.421354
v 5.538373 20.998707 -0.372696
v 5.427485 21.056091 -0.487296
v 5.427483 20.998707 -0.418491
v 5.267797 21.056091 -0.421360
v 5.316592 20.998707 -0.372696
v 5.201650 21.056087 -0.262119
v 5.270658 20.998709 -0.262119
v 5.218386 21.056087 -0.069950
v 5.075091 21.056087 -0.068894
v 5.103432 21.056084 -0.194217
v 5.584300 22.648369 -0.262107
v 5.538366 22.648373 -0.151530
v 5.565346 22.606480 -0.124637
v 5.622462 22.606480 -0.262107
v 5.565348 22.370121 -0.124650
v 5.622458 22.370121 -0.262107
v 5.538366 22.328224 -0.151530
v 5.584301 22.328224 -0.262107
v 5.427477 22.648373 -0.105735
v 5.427479 22.606480 -0.067692
v 5.427477 22.370121 -0.067692
v 5.427477 22.328224 -0.105747
v 5.316586 22.648373 -0.151530
v 5.289602 22.606482 -0.124637
v 5.289600 22.370121 -0.124650
v 5.316586 22.328222 -0.151530
v 5.270650 22.648373 -0.262101
v 5.232494 22.606480 -0.262101
v 5.232494 22.370121 -0.262101
v 5.270650 22.328224 -0.262101
v 5.316588 22.659206 -0.358652
v 5.289602 22.606480 -0.399576
v 5.289600 22.370121 -0.399576
v 5.316586 22.328222 -0.372672
v 5.538367 22.659206 -0.358652
v 5.565346 22.606482 -0.399570
v 5.565346 22.370121 -0.399570
v 5.538367 22.328228 -0.372672
v 5.103434 15.404240 -0.194204
v 5.075091 15.404240 -0.068881
v 5.218384 15.404243 -0.069943
v 5.201649 15.404243 -0.262112
v 5.270655 15.427238 -0.262106
v 5.267794 15.404243 -0.421347
v 5.316593 15.427238 -0.372677
v 5.427485 15.404243 -0.487295
v 5.427483 15.427238 -0.418484
v 5.587170 15.404243 -0.421347
v 5.538373 15.427238 -0.372683
v 5.653313 15.404240 -0.262106
v 5.584309 15.427235 -0.262106
v 5.636580 15.404243 -0.069943
v 5.779871 15.404240 -0.068881
v 5.751530 15.404243 -0.194204
v 5.751530 15.015751 -0.194204
v 5.779874 15.015751 -0.068881
v 5.636580 15.015754 -0.069943
v 5.653313 15.015751 -0.262106
v 5.584309 14.992759 -0.262106
v 5.587170 15.015751 -0.421346
v 5.538373 14.992759 -0.372683
v 5.427485 15.015751 -0.487295
v 5.427483 14.992759 -0.418484
v 5.267792 15.015751 -0.421346
v 5.316593 14.992759 -0.372677
v 5.201649 15.015751 -0.262112
v 5.270655 14.992759 -0.262106
v 5.218384 15.015751 -0.069943
v 5.075091 15.015751 -0.068881
v 5.103436 15.015754 -0.194204
v 0.071177 7.968212 -0.194203
v 0.042833 7.968213 -0.068879
v 0.186126 7.968214 -0.069941
v 0.169392 7.968212 -0.262098
v 0.238395 7.991208 -0.262105
v 0.235534 7.968212 -0.421345
v 0.284331 7.991209 -0.372676
v 0.395225 7.968213 -0.487294
v 0.395223 7.991209 -0.418483
v 0.554910 7.968212 -0.421339
v 0.506113 7.991208 -0.372682
v 0.621055 7.968213 -0.262098
v 0.552050 7.991208 -0.262098
v 0.604319 7.968213 -0.069929
v 0.747614 7.968212 -0.068892
v 0.719270 7.968212 -0.194203
v 0.719270 7.579721 -0.194203
v 0.747614 7.579721 -0.068886
v 0.604319 7.579720 -0.069948
v 0.621057 7.579720 -0.262105
v 0.552052 7.556726 -0.262117
v 0.554911 7.579720 -0.421345
v 0.506115 7.556726 -0.372682
v 0.395225 7.579721 -0.487294
v 0.395225 7.556728 -0.418489
v 0.235537 7.579720 -0.421345
v 0.284333 7.556726 -0.372682
v 0.169392 7.579720 -0.262098
v 0.238400 7.556727 -0.262105
v 0.186124 7.579720 -0.069948
v 0.042835 7.579720 -0.068892
v 0.071177 7.579720 -0.194209
v 0.071178 1.604810 -0.194220
v 0.042835 1.604810 -0.068897
v 0.186128 1.604810 -0.069953
v 0.169394 1.604811 -0.262128
v 0.238400 1.662193 -0.262122
v 0.235534 1.604810 -0.421356
v 0.284333 1.662193 -0.372693
v 0.395225 1.604811 -0.487305
v 0.395223 1.662193 -0.418506
v 0.554914 1.604811 -0.421356
v 0.506116 1.662192 -0.372693
v 0.621057 1.604811 -0.262122
v 0.552052 1.662193 -0.262122
v 0.604321 1.604810 -0.069959
v 0.747617 1.604810 -0.068897
v 0.719271 1.604810 -0.194220
v 0.719271 0.635332 -0.194214
v 0.747617 0.635332 -0.068897
v 0.604321 0.635333 -0.069959
v 0.621058 0.635333 -0.262122
v 0.552052 0.577949 -0.262128
v 0.554911 0.635332 -0.421350
v 0.506116 0.577949 -0.372693
v 0.395225 0.635332 -0.487299
v 0.395223 0.577949 -0.418500
v 0.235536 0.635332 -0.421356
v 0.284333 0.577950 -0.372693
v 0.169392 0.635332 -0.262122
v 0.238400 0.577949 -0.262122
v 0.186128 0.635333 -0.069952
v 0.042833 0.635332 -0.068890
v 0.071177 0.635332 -0.194214
v 0.238397 0.128568 -0.262103
v 0.284333 0.128568 -0.151526
v 0.257354 0.170463 -0.124640
v 0.200242 0.170463 -0.262103
v 0.257352 0.406820 -0.124652
v 0.200242 0.406820 -0.262103
v 0.284333 0.448716 -0.151520
v 0.238400 0.448716 -0.262103
v 0.395223 0.128568 -0.105737
v 0.395223 0.170463 -0.067682
v 0.395223 0.406820 -0.067688
v 0.395223 0.448716 -0.105750
v 0.506115 0.128568 -0.151526
v 0.533101 0.170463 -0.124640
v 0.533100 0.406820 -0.124652
v 0.506118 0.448716 -0.151526
v 0.552052 0.128568 -0.262103
v 0.590203 0.170463 -0.262103
v 0.590204 0.406820 -0.262103
v 0.552052 0.448716 -0.262103
v 0.506112 0.117734 -0.358649
v 0.533098 0.170463 -0.399573
v 0.533098 0.406820 -0.399573
v 0.506118 0.448716 -0.372675
v 0.284333 0.117734 -0.358649
v 0.257356 0.170463 -0.399579
v 0.257354 0.406820 -0.399579
v 0.284333 0.448716 -0.372675
v 0.071177 22.025564 -0.194217
v 0.042835 22.025564 -0.068888
v 0.186128 22.025564 -0.069950
v 0.169393 22.025566 -0.262119
v 0.238400 22.082947 -0.262119
v 0.235536 22.025564 -0.421354
v 0.284333 22.082951 -0.372696
v 0.395225 22.025566 -0.487302
v 0.395223 22.082951 -0.418497
v 0.554913 22.025566 -0.421360
v 0.506118 22.082951 -0.372696
v 0.621058 22.025566 -0.262119
v 0.552050 22.082951 -0.262125
v 0.604321 22.025566 -0.069956
v 0.747616 22.025564 -0.068894
v 0.719273 22.025566 -0.194224
v 0.719270 21.056087 -0.194223
v 0.747616 21.056084 -0.068894
v 0.604321 21.056091 -0.069956
v 0.621057 21.056087 -0.262119
v 0.552052 20.998707 -0.262119
v 0.554913 21.056084 -0.421354
v 0.506116 20.998707 -0.372690
v 0.395223 21.056091 -0.487302
v 0.395222 20.998707 -0.418497
v 0.235537 21.056087 -0.421354
v 0.284333 20.998707 -0.372696
v 0.169392 21.056091 -0.262119
v 0.238400 20.998709 -0.262119
v 0.186128 21.056091 -0.069950
v 0.042835 21.056087 -0.068888
v 0.071177 21.056087 -0.194223
v 0.552047 22.648373 -0.262101
v 0.506110 22.648373 -0.151530
v 0.533092 22.606480 -0.124637
v 0.590201 22.606480 -0.262101
v 0.533092 22.370121 -0.124650
v 0.590199 22.370117 -0.262101
v 0.506110 22.328228 -0.151530
v 0.552044 22.328224 -0.262101
v 0.395219 22.648373 -0.105735
v 0.395217 22.606476 -0.067692
v 0.395217 22.370121 -0.067692
v 0.395217 22.328224 -0.105747
v 0.284329 22.648373 -0.151530
v 0.257346 22.606482 -0.124637
v 0.257344 22.370121 -0.124650
v 0.284329 22.328224 -0.151530
v 0.238393 22.648373 -0.262101
v 0.200237 22.606480 -0.262101
v 0.200235 22.370117 -0.262101
v 0.238393 22.328222 -0.262107
v 0.284329 22.659203 -0.358652
v 0.257344 22.606480 -0.399570
v 0.257344 22.370121 -0.399576
v 0.284327 22.328222 -0.372684
v 0.506108 22.659203 -0.358652
v 0.533091 22.606476 -0.399570
v 0.533091 22.370117 -0.399570
v 0.506108 22.328224 -0.372678
v 0.071178 15.404240 -0.194204
v 0.042835 15.404240 -0.068881
v 0.186126 15.404240 -0.069943
v 0.169392 15.404240 -0.262112
v 0.238398 15.427235 -0.262106
v 0.235537 15.404240 -0.421347
v 0.284331 15.427238 -0.372683
v 0.395226 15.404243 -0.487295
v 0.395223 15.427235 -0.418484
v 0.554911 15.404243 -0.421340
v 0.506115 15.427235 -0.372683
v 0.621055 15.404240 -0.262106
v 0.552050 15.427235 -0.262112
v 0.604319 15.404243 -0.069943
v 0.747616 15.404243 -0.068887
v 0.719270 15.404240 -0.194204
v 0.719270 15.015751 -0.194204
v 0.747616 15.015751 -0.068887
v 0.604319 15.015751 -0.069943
v 0.621057 15.015748 -0.262106
v 0.552049 14.992756 -0.262106
v 0.554911 15.015751 -0.421346
v 0.506115 14.992756 -0.372683
v 0.395226 15.015751 -0.487295
v 0.395226 14.992759 -0.418490
v 0.235536 15.015751 -0.421346
v 0.284333 14.992759 -0.372677
v 0.169390 15.015748 -0.262112
v 0.238398 14.992756 -0.262106
v 0.186126 15.015751 -0.069943
v 0.042835 15.015751 -0.068881
v 0.071177 15.015751 -0.194204
v 0.963073 2.687626 -0.267505
v 0.963076 2.687626 -0.102271
v 3.014010 2.640546 -0.102271
v 3.014013 2.640546 -0.267505
v 3.252968 2.634915 -0.102271
v 3.252968 2.634915 -0.267505
v 4.881838 2.614446 -0.102271
v 3.252967 2.571051 -0.486597
v 4.881836 2.614446 -0.267505
v -0.122130 23.106770 -0.127006
v -1.022130 23.106770 -0.126994
v -1.122130 23.106766 -0.027280
v -0.122131 23.106770 0.646590
v -1.122130 23.106770 0.646603
v 5.584313 22.330132 -0.262150
v 5.584309 0.431252 -0.262134
v 5.538375 22.330132 -0.372721
v 5.538376 0.431252 -0.372699
v 5.427483 22.330132 -0.418522
v 5.427483 0.431252 -0.418506
v 5.427482 7.968213 -0.487288
v 5.427486 7.579720 -0.487294
v 5.653313 0.635332 -0.262122
v 5.587168 0.635332 -0.421350
v 5.587173 1.604811 -0.421350
v 5.653313 1.604810 -0.262122
v 5.427485 1.604811 -0.487293
v 5.427485 0.635333 -0.487293
v 5.267797 1.604811 -0.421356
v 5.267797 0.635332 -0.421356
v 5.427485 0.170463 -0.456525
v 5.427485 0.111482 -0.388336
v 5.289608 0.170463 -0.399579
v 5.316592 0.117734 -0.358643
v 5.232502 0.406820 -0.262103
v 5.270655 0.448716 -0.262103
v 5.289609 0.406820 -0.399579
v 5.316592 0.448716 -0.372675
v 5.605179 -0.223242 -0.262054
v 5.605178 -0.166131 -0.124615
v 5.249775 -0.166131 -0.124615
v 5.249778 -0.223242 -0.262061
v 5.605179 -0.166131 -0.399530
v 5.249776 -0.166131 -0.399530
v 5.249781 -0.028258 -0.067639
v 5.605181 -0.028258 -0.067639
v 5.249778 0.109616 -0.124615
v 5.605179 0.109616 -0.124615
v 5.249778 0.166724 -0.262061
v 5.605179 0.166724 -0.262067
v 5.249778 0.109616 -0.399530
v 5.605179 0.109616 -0.399530
v 5.643908 -0.139151 -0.151483
v 5.643909 -0.028258 -0.105707
v 5.605181 -0.028258 -0.067639
v 5.605178 -0.166131 -0.124615
v 5.643911 -0.185084 -0.262054
v 5.605179 -0.223242 -0.262054
v 5.605179 0.109616 -0.124615
v 5.643909 0.082633 -0.151483
v 5.605179 0.166724 -0.262067
v 5.643909 0.128567 -0.262061
v 5.605179 0.109616 -0.399530
v 5.643909 0.082633 -0.372644
v 5.211043 -0.185084 -0.262061
v 5.211050 -0.139151 -0.372644
v 5.249776 -0.166131 -0.399530
v 5.249778 -0.223242 -0.262061
v 5.211047 -0.139151 -0.151483
v 5.249775 -0.166131 -0.124615
v 5.249778 -0.028258 -0.456512
v 5.211050 -0.028258 -0.418433
v 5.249778 0.109616 -0.399530
v 5.211050 0.082633 -0.372644
v 5.249778 0.166724 -0.262061
v 5.211047 0.128567 -0.262061
v 4.926728 4.961630 -0.267506
v 5.304360 4.961630 -0.267506
v 5.304358 4.087146 -0.267506
v 4.926726 4.087146 -0.267506
v 4.850790 4.744597 -0.267512
v 4.850788 4.304179 -0.267506
v 2.799848 4.697517 -0.267506
v 2.799848 4.351259 -0.267506
v 2.560895 4.622267 -0.486597
v 2.560891 4.420756 -0.486597
v 0.932026 4.671418 -0.267506
v 0.932024 4.377359 -0.267506
v 5.653313 21.056087 -0.262119
v 5.587168 21.056087 -0.421354
v 5.587170 22.025564 -0.421354
v 5.653315 22.025566 -0.262119
v 5.427485 22.025570 -0.487296
v 5.427485 21.056091 -0.487296
v 5.427479 22.606480 -0.456528
v 5.427477 22.665459 -0.388346
v 5.249783 23.000183 -0.262064
v 5.249781 22.943073 -0.124619
v 5.605183 22.943073 -0.124619
v 5.605183 23.000183 -0.262064
v 5.249781 22.943073 -0.399534
v 5.605183 22.943073 -0.399534
v 5.605184 22.805199 -0.067637
v 5.249779 22.805199 -0.067643
v 5.605183 22.667324 -0.124619
v 5.249783 22.667324 -0.124619
v 5.605183 22.610214 -0.262064
v 5.249783 22.610218 -0.262064
v 5.605184 22.667328 -0.399534
v 5.249781 22.667324 -0.399534
v 5.211048 22.916088 -0.151481
v 5.211050 22.805199 -0.105704
v 5.249779 22.805199 -0.067643
v 5.249781 22.943073 -0.124619
v 5.211050 22.962025 -0.262070
v 5.249783 23.000183 -0.262064
v 5.249783 22.667324 -0.124619
v 5.211050 22.694309 -0.151481
v 5.249783 22.610218 -0.262064
v 5.211050 22.648373 -0.262070
v 5.249781 22.667324 -0.399534
v 5.211051 22.694311 -0.372642
v 5.643912 22.962027 -0.262064
v 5.643911 22.916088 -0.372642
v 5.605183 22.943073 -0.399534
v 5.605183 23.000183 -0.262064
v 5.643911 22.916088 -0.151487
v 5.605183 22.943073 -0.124619
v 5.605183 22.805199 -0.456516
v 5.643912 22.805199 -0.418436
v 5.605184 22.667328 -0.399534
v 5.643911 22.694309 -0.372642
v 5.605183 22.610214 -0.262064
v 5.643912 22.648373 -0.262064
v 5.427485 15.404243 -0.487295
v 5.427485 15.015751 -0.487295
v 0.238400 0.431252 -0.262134
v 0.238402 22.330130 -0.262150
v 0.284333 0.431252 -0.372699
v 0.284336 22.330135 -0.372721
v 0.552052 22.330132 -0.262150
v 0.552054 0.431252 -0.262134
v 0.506123 22.330135 -0.372721
v 0.506116 0.431252 -0.372699
v 0.395227 22.330132 -0.418528
v 0.395226 0.431252 -0.418500
v 0.395225 7.968213 -0.487294
v 0.395225 7.579721 -0.487294
v 0.621058 0.635333 -0.262122
v 0.554911 0.635332 -0.421350
v 0.554914 1.604811 -0.421356
v 0.621057 1.604811 -0.262122
v 0.395225 1.604811 -0.487305
v 0.395225 0.635332 -0.487299
v 0.395225 0.170463 -0.456525
v 0.395225 0.111482 -0.388348
v 0.572918 -0.223242 -0.262061
v 0.572919 -0.166131 -0.124615
v 0.217519 -0.166131 -0.124622
v 0.217516 -0.223242 -0.262054
v 0.572923 -0.166131 -0.399536
v 0.217516 -0.166131 -0.399536
v 0.217519 -0.028258 -0.067639
v 0.572921 -0.028258 -0.067639
v 0.217519 0.109616 -0.124622
v 0.572921 0.109616 -0.124615
v 0.217516 0.166724 -0.262061
v 0.572919 0.166724 -0.262061
v 0.217519 0.109616 -0.399536
v 0.572921 0.109616 -0.399536
v 0.611650 -0.139151 -0.151477
v 0.611653 -0.028258 -0.105707
v 0.572921 -0.028258 -0.067639
v 0.572919 -0.166131 -0.124615
v 0.611650 -0.185084 -0.262061
v 0.572918 -0.223242 -0.262061
v 0.572921 0.109616 -0.124615
v 0.611652 0.082633 -0.151483
v 0.572919 0.166724 -0.262061
v 0.611652 0.128567 -0.262061
v 0.572921 0.109616 -0.399536
v 0.611653 0.082633 -0.372644
v 0.178791 -0.185084 -0.262061
v 0.178789 -0.139151 -0.372644
v 0.217516 -0.166131 -0.399536
v 0.217516 -0.223242 -0.262054
v 0.178789 -0.139151 -0.151483
v 0.217519 -0.166131 -0.124622
v 0.217519 -0.028258 -0.456512
v 0.178791 -0.028258 -0.418433
v 0.217519 0.109616 -0.399536
v 0.178791 0.082633 -0.372644
v 0.217516 0.166724 -0.262061
v 0.178791 0.128567 -0.262061
v 0.395225 22.025566 -0.487302
v 0.395223 21.056091 -0.487302
v 0.395217 22.606480 -0.456534
v 0.395219 22.665459 -0.388340
v 0.217521 23.000179 -0.262058
v 0.217519 22.943069 -0.124619
v 0.572927 22.943073 -0.124619
v 0.572924 23.000183 -0.262064
v 0.217523 22.943073 -0.399534
v 0.572924 22.943075 -0.399534
v 0.572924 22.805199 -0.067649
v 0.217524 22.805199 -0.067643
v 0.572924 22.667320 -0.124613
v 0.217519 22.667324 -0.124619
v 0.572924 22.610218 -0.262064
v 0.217521 22.610214 -0.262058
v 0.572926 22.667324 -0.399534
v 0.217523 22.667324 -0.399534
v 0.178791 22.916088 -0.151481
v 0.178792 22.805199 -0.105704
v 0.217524 22.805199 -0.067643
v 0.217519 22.943069 -0.124619
v 0.178792 22.962025 -0.262064
v 0.217521 23.000179 -0.262058
v 0.217519 22.667324 -0.124619
v 0.178791 22.694305 -0.151487
v 0.217521 22.610214 -0.262058
v 0.178791 22.648373 -0.262064
v 0.217523 22.667324 -0.399534
v 0.178791 22.694305 -0.372642
v 0.611653 22.962025 -0.262064
v 0.611652 22.916088 -0.372636
v 0.572924 22.943075 -0.399534
v 0.572924 23.000183 -0.262064
v 0.611652 22.916088 -0.151481
v 0.572927 22.943073 -0.124619
v 0.572924 22.805197 -0.456510
v 0.611657 22.805202 -0.418430
v 0.572926 22.667324 -0.399534
v 0.611653 22.694309 -0.372636
v 0.572924 22.610218 -0.262064
v 0.611653 22.648376 -0.262058
v 0.395226 15.404243 -0.487295
v 0.395226 15.015751 -0.487295
v 0.887137 2.030175 -0.267493
v 0.509502 2.030175 -0.267505
v 0.509502 2.904660 -0.267505
v 0.887137 2.904659 -0.267505
v 0.963076 2.247209 -0.267505
v 0.963073 2.687626 -0.267505
v 3.014013 2.294287 -0.267505
v 3.014013 2.640546 -0.267505
v 3.252968 2.369538 -0.486597
v 3.252967 2.571051 -0.486597
v 4.881836 2.320387 -0.267505
v 4.881836 2.614446 -0.267505
v -1.022132 -0.011779 -0.126990
v -0.122134 -0.011779 -0.126996
v -0.122132 -0.011779 0.646594
v -1.122130 -0.011779 0.646606
v -1.122130 -0.011779 -0.027283
v 5.201650 0.635333 -0.262122
v 5.201650 1.604810 -0.262122
v 5.249778 -0.028258 -0.456512
v 5.605179 -0.028258 -0.456512
v 4.850788 4.744597 -0.102271
v 4.850790 4.744597 -0.267512
v 2.799848 4.697517 -0.267506
v 2.799850 4.697517 -0.102271
v 2.560895 4.691887 -0.267506
v 2.560895 4.622267 -0.486597
v 2.560895 4.691887 -0.102271
v 0.932026 4.671418 -0.267506
v 0.932024 4.671417 -0.102277
v 5.605183 22.805199 -0.456516
v 5.249781 22.805199 -0.456510
v 0.217519 -0.028258 -0.456512
v 0.572919 -0.028258 -0.456506
v 0.572924 22.805197 -0.456510
v 0.217521 22.805197 -0.456510
v 0.963073 2.247208 -0.102271
v 0.963076 2.247209 -0.267505
v 3.014013 2.294287 -0.267505
v 3.014013 2.294287 -0.102271
v 3.252967 2.299917 -0.267505
v 3.252968 2.369538 -0.486597
v 3.252968 2.299917 -0.102271
v 4.881836 2.320387 -0.267505
v 4.881838 2.320387 -0.102271
v 3.297410 3.898822 -0.119691
v 3.297410 3.898822 -0.192713
v 3.297408 4.255876 -0.192738
v 3.297409 4.513667 -0.119666
v 3.297410 5.095520 -0.192738
v 3.297412 5.095520 -0.119691
v 3.297409 4.771400 -0.192738
v 3.297406 4.331239 -0.335535
v 3.297406 4.696081 -0.335535
v 2.940724 5.091887 -0.119691
v 2.940724 5.091887 -0.192738
v 2.940722 4.770012 -0.192713
v 2.940724 4.514102 -0.119642
v 2.940724 3.903327 -0.192737
v 2.940724 3.903327 -0.119691
v 2.940722 4.258246 -0.192738
v 2.940720 4.695179 -0.335535
v 2.940721 4.333018 -0.335535
v 2.597859 3.092961 -0.119690
v 2.597859 3.092962 -0.192725
v 2.597861 2.735907 -0.192725
v 2.597861 2.478116 -0.119642
v 2.597859 1.896263 -0.192725
v 2.597859 1.896263 -0.119690
v 2.597859 2.220383 -0.192713
v 2.597865 2.660545 -0.335511
v 2.597864 2.295701 -0.335511
v 2.954545 1.899896 -0.119678
v 2.954545 1.899897 -0.192725
v 2.954548 2.221772 -0.192713
v 2.954545 2.477681 -0.119654
v 2.954545 3.088456 -0.192725
v 2.954545 3.088456 -0.119690
v 2.954545 2.733537 -0.192725
v 2.954552 2.296604 -0.335523
v 2.954552 2.658765 -0.335535
v 5.427483 0.448716 -0.418469
v 5.427483 0.406820 -0.456537
v 5.427477 22.328224 -0.418473
v 5.427477 22.370117 -0.456540
v 0.395223 0.448716 -0.418475
v 0.395223 0.406820 -0.456543
v 0.395217 22.328224 -0.418485
v 0.395217 22.370117 -0.456547
vn 0.0039 0.0039 1.0000
vn 1.0000 0.0039 0.0039
vn -0.7032 0.0039 0.7110
vn -1.0000 0.0040 0.0040
vn -1.0000 0.0039 0.0039
vn 0.8314 0.0039 -0.5556
vn 0.9765 0.0039 -0.2157
vn 0.8314 0.0040 -0.5556
vn 0.0040 0.0040 -1.0000
vn 0.7110 0.0039 -0.7032
vn 0.0039 0.0039 -1.0000
vn 0.0196 0.9998 0.0039
vn 0.0039 0.7110 -0.7031
vn 0.0040 0.0039 -1.0000
vn -0.6680 -0.3281 -0.6680
vn -0.9446 -0.3281 0.0039
vn -0.9422 0.3351 0.0039
vn -0.6600 0.3439 -0.6679
vn -0.7071 0.0039 -0.7071
vn -0.7071 0.0040 -0.7071
vn 0.7812 0.0039 -0.6242
vn -0.0119 -0.9999 0.0040
vn -0.0119 -0.9999 0.0039
vn 0.0039 1.0000 0.0039
vn 0.0039 0.7110 -0.7032
vn 0.6705 0.3333 -0.6628
vn 0.9430 0.3326 0.0038
vn 0.9455 -0.3256 0.0039
vn 0.6662 -0.3351 -0.6663
vn -0.9761 0.0040 -0.2173
vn -0.8290 0.0040 -0.5593
vn -0.9761 0.0039 -0.2173
vn 0.7813 0.0039 -0.6242
vn -0.7071 0.0038 -0.7071
vn -0.6645 -0.3263 0.6723
vn -0.7379 -0.6748 0.0118
vn -0.5180 -0.6683 0.5338
vn 0.6992 0.0039 0.7149
vn 0.7031 -0.4988 0.5067
vn 0.8882 -0.3170 0.3326
vn 0.8857 0.0039 0.4643
vn -0.6953 0.0039 0.7188
vn -0.6964 0.5075 0.5075
vn -0.8843 0.3262 0.3340
vn -0.8840 0.0039 0.4675
vn -0.9232 0.0039 -0.3843
vn -0.8290 0.0039 -0.5593
vn 0.9764 0.0039 -0.2157
vn -0.7782 0.0039 -0.6281
vn -0.9447 -0.3281 0.0040
vn -0.7782 0.0040 -0.6281
vn -0.8889 -0.3200 -0.3279
vn -0.8872 0.0039 -0.4614
vn -0.6992 0.0039 -0.7150
vn -0.7017 -0.5037 -0.5039
vn 0.8860 0.3240 0.3317
vn 0.7004 0.5046 0.5047
vn 0.6993 0.0039 0.7149
vn 0.0039 0.8616 -0.5075
vn 0.0039 0.8616 -0.5076
vn 0.0040 0.0039 1.0000
vn 0.6688 -0.3247 0.6688
vn 0.9430 0.3326 0.0039
vn 0.6671 0.3316 0.6671
vn 0.7812 0.0039 -0.6243
vn -0.6520 -0.3438 -0.6758
vn -0.6662 0.3351 -0.6662
vn -0.9761 0.0039 -0.2174
vn 0.0196 0.9904 -0.1370
vn 0.0274 0.9983 -0.0509
vn 0.0274 0.9996 0.0039
vn -0.8889 -0.3199 -0.3279
vn -0.8872 0.0039 -0.4613
vn -0.6992 0.0040 -0.7150
vn -0.7019 -0.5037 -0.5037
vn 0.4502 0.7711 -0.4502
vn 0.6313 0.7647 -0.1294
vn 0.4819 0.8737 -0.0666
vn 0.0039 -0.7032 0.7110
vn 0.0039 -1.0000 0.0039
vn 0.7071 0.0038 0.7071
vn 0.8889 0.0039 -0.4582
vn 0.8905 -0.3178 -0.3256
vn 0.7059 -0.5008 -0.5009
vn 0.7032 0.0039 -0.7110
vn 0.7005 0.5045 0.5047
vn 0.8860 0.3240 0.3318
vn -0.0198 -0.9998 0.0039
vn -0.0197 -0.9985 -0.0513
vn -0.0198 -0.9998 0.0040
vn 0.0039 0.8582 0.5133
vn 0.0039 0.3326 0.9431
vn -0.6628 0.3333 0.6706
vn 0.0039 -0.3256 0.9455
vn 0.0040 -1.0000 0.0040
vn 0.0038 -0.5168 -0.8561
vn 0.0039 0.5225 -0.8526
vn 0.0039 -0.5168 -0.8561
vn -0.3281 0.0039 -0.9446
vn 0.0040 0.5169 -0.8560
vn 0.0040 -0.5168 -0.8561
vn 0.0040 -0.5110 -0.8596
vn 0.0276 -0.9979 -0.0592
vn 0.0276 -0.9996 0.0039
vn 0.0039 0.5226 -0.8526
vn 0.8314 0.0039 -0.5557
vn 0.0196 0.9996 -0.0196
vn 0.0039 -0.8596 -0.5110
vn 0.0040 -0.8596 -0.5110
vn 0.0197 -0.9996 -0.0198
vn 0.0197 -0.9998 0.0039
vn 0.0197 -0.9891 -0.1458
vn -0.0587 0.9982 0.0117
vn -0.2231 0.9744 -0.0274
vn -0.3108 0.9481 -0.0669
vn -0.2156 0.9524 -0.2156
vn 0.0039 0.9502 -0.3115
vn 0.2230 0.9508 -0.2152
vn -0.3109 0.9481 -0.0669
vn 0.2305 0.9727 -0.0273
vn 0.3178 0.9458 -0.0667
vn 0.0665 0.9977 0.0117
vn 0.0040 1.0000 0.0039
vn 0.0670 -0.9977 0.0118
vn 0.2323 -0.9723 -0.0275
vn 0.3202 -0.9450 -0.0672
vn 0.3179 0.9458 -0.0667
vn 0.2304 0.9727 -0.0274
vn 0.0040 0.9502 -0.3115
vn 0.0666 0.9977 0.0117
vn -0.2248 -0.9740 -0.0276
vn 0.0039 -1.0000 0.0040
vn -0.1535 0.9880 0.0197
vn 0.1624 -0.9865 0.0198
vn 0.6351 -0.7614 -0.1302
vn 0.4852 -0.8718 -0.0671
vn 0.0039 0.7743 -0.6328
vn 0.0039 -0.7711 -0.6367
vn -0.4467 -0.7707 -0.4545
vn -0.4466 -0.7707 -0.4545
vn 0.4528 -0.7680 -0.4529
vn 0.4529 -0.7679 -0.4529
vn -0.6304 -0.7652 -0.1308
vn -0.4791 -0.8752 -0.0673
vn 0.0040 -1.0000 0.0039
vn -0.4792 -0.8751 -0.0673
vn -0.1547 -0.9878 0.0198
vn -0.6266 0.7684 -0.1301
vn -0.4759 0.8770 -0.0669
vn -0.4439 0.7739 -0.4518
vn 0.0040 -0.7711 -0.6367
vn 0.4502 0.7712 -0.4502
vn 0.1612 0.9867 0.0196
vn 0.0040 -0.3281 -0.9447
vn 0.0039 -0.6705 -0.7419
vn -0.5202 -0.6711 -0.5282
vn 0.8889 -0.4581 0.0039
vn 0.8889 0.0039 -0.4581
vn 0.8857 0.4643 0.0039
vn 0.5210 0.6699 0.5289
vn 0.0039 0.6709 0.7415
vn -0.6627 0.3333 0.6706
vn -0.5153 0.6727 0.5310
vn -0.6521 -0.3438 -0.6757
vn 0.0039 0.3351 -0.9422
vn -0.0039 -0.3748 -0.9271
vn 0.0039 0.3326 0.9430
vn 0.9431 0.3326 0.0039
vn 0.7376 0.6752 0.0117
vn 0.6548 0.3489 -0.6705
vn 0.6723 -0.3263 -0.6645
vn 0.0118 0.3815 -0.9243
vn 0.5238 -0.6656 0.5317
vn 0.7489 -0.6626 -0.0039
vn -0.5058 -0.6809 -0.5297
vn -0.8866 -0.3191 0.3349
vn -0.8867 0.3269 -0.3271
vn 0.5232 0.6727 -0.5232
vn 0.7377 0.6752 0.0039
vn 0.0040 -0.8561 0.5168
vn 0.0039 -0.7071 -0.7071
vn 0.0040 -0.7071 -0.7071
vn -0.0117 0.9894 -0.1447
vn -0.0118 0.9999 0.0039
vn -0.0196 0.9998 0.0039
vn -0.0196 0.9981 -0.0587
vn -0.0118 -0.9598 -0.2804
vn -0.0118 -0.9903 -0.1381
vn -0.0119 -0.9997 -0.0198
vn -0.1535 0.9879 0.0197
vn -0.6303 -0.7652 -0.1308
vn 0.4528 -0.7681 -0.4529
vn -0.6265 0.7685 -0.1300
vn 0.1612 0.9867 0.0197
vn 0.1625 -0.9865 0.0198
vn 0.4851 -0.8719 -0.0671
vn -0.7340 0.6791 0.0039
vn -0.5175 0.6755 -0.5253
vn -0.6644 -0.3263 0.6723
vn -0.5181 -0.6683 0.5338
vn 0.0039 -0.6666 0.7454
vn 0.0040 0.6748 -0.7380
vn 0.0038 0.3351 -0.9422
vn -0.7415 0.6709 -0.0039
vn 0.6547 0.3490 -0.6705
vn 0.5089 0.6825 -0.5246
vn 0.6662 -0.3351 -0.6662
vn -0.2172 -0.9517 -0.2172
vn -0.3131 -0.9473 -0.0674
vn -0.2172 -0.9516 -0.2172
vn -0.7380 -0.6748 0.0039
vn -0.3132 -0.9473 -0.0674
vn -0.2247 -0.9740 -0.0276
vn 0.0039 -0.9495 -0.3139
vn 0.2247 -0.9500 -0.2168
vn 0.2322 -0.9723 -0.0276
vn 0.3202 -0.9449 -0.0672
vn 0.0040 -0.9495 -0.3138
vn 0.2247 -0.9500 -0.2169
vn -0.0592 -0.9982 0.0118
vn -0.1547 -0.9878 0.0199
vn -0.4758 0.8770 -0.0669
vn 0.4529 -0.7680 -0.4529
vn 0.5324 -0.6823 -0.5009
vn 0.0039 -0.3281 -0.9446
vn 0.0040 -0.6705 -0.7419
vn -0.0198 -0.7492 -0.6621
vn -0.5058 -0.6810 -0.5296
vn 0.0040 0.6749 -0.7379
vn 0.5231 0.6727 -0.5233
vn 0.7415 -0.6709 0.0039
vn 0.6688 -0.3246 0.6688
vn -0.5239 0.6894 -0.5003
vn 0.5260 -0.6683 -0.5260
vn -0.7341 0.6791 0.0039
vn -0.5174 0.6755 -0.5254
vn 0.5238 -0.6655 0.5317
vn 0.0040 -0.6665 0.7455
vn 0.5260 -0.6684 -0.5260
vn 0.5324 -0.6824 -0.5009
vn 0.0040 -0.9495 -0.3139
vn -0.0118 0.9997 -0.0196
vn 0.0196 0.9603 -0.2783
vn 0.7071 0.0039 0.7071
vn 0.0276 0.7525 -0.6580
vn 0.0039 0.7071 0.7071
vn 0.8315 0.0040 -0.5556
vn 0.8882 -0.3169 0.3326
vn -0.8840 0.4675 0.0039
vn -0.6992 0.7150 0.0040
vn 0.7071 -0.7071 0.0039
vn 0.7059 -0.5008 -0.5008
vn -0.8866 -0.3192 0.3349
vn -0.6991 -0.5016 0.5095
vn -0.6952 0.0039 0.7188
vn 0.8857 0.4643 0.0038
vn 0.8882 0.3248 -0.3249
vn 0.7031 0.5067 -0.4989
vn 0.7032 0.7110 0.0039
vn -0.7031 -0.7111 0.0040
vn -0.8872 -0.4613 0.0040
vn -0.8872 0.0040 -0.4613
vn -0.8867 0.3268 -0.3271
vn -0.6991 0.5095 -0.5016
vn -0.6992 0.0039 -0.7149
vn -0.6992 0.7149 0.0039
vn 0.7031 -0.4989 0.5067
vn 0.7071 -0.7071 0.0040
vn 0.8889 -0.4582 0.0039
vn 0.8857 0.0038 0.4643
vn 0.7005 0.5046 0.5047
vn 0.7031 0.7110 0.0039
vn -0.8872 -0.4614 0.0039
vn -0.7031 -0.7111 0.0039
vn -0.3210 0.0039 -0.9471
vn 0.1381 0.0039 -0.9904
vn 0.0039 -0.8561 0.5168
vn -0.0039 1.0000 0.0039
vn 0.0275 0.7525 -0.6580
vn -0.7782 0.0040 -0.6280
vn 0.7031 0.7111 0.0039
vn -0.6963 0.5075 0.5075
vn -0.6991 0.7150 0.0040
vn 0.8883 0.3248 -0.3248
vn -0.7019 -0.5036 -0.5036
vn -0.8866 0.3269 -0.3271
vn 0.0038 0.7071 0.7071
vn 0.0040 0.7071 0.7071
vn 0.0118 -0.9999 0.0039
vn -0.8843 0.3262 0.3341
vn -0.8865 -0.3191 0.3350
vn 0.9431 0.3326 0.0038
vn 0.8860 0.3239 0.3318
vn -0.6992 0.7150 0.0039
vn 0.3351 0.0039 -0.9422
vn 0.3280 0.0039 -0.9447
vn -0.1304 0.0039 -0.9915
vn -0.1303 0.0040 -0.9915
vn -0.0118 -0.9999 0.0040
vn -0.0118 0.9555 -0.2949
vn 0.9764 0.0038 -0.2158
vn 0.0198 -0.9546 -0.2971
vn -1.0000 0.0039 0.0040
vt 0.093689 0.666992
vt 0.093689 0.732178
vt 0.246704 0.732178
vt 0.246704 0.666992
vt 0.250244 0.938141
vt 0.250244 0.557617
vt 0.261230 0.557617
vt 0.261230 0.938141
vt 0.604004 0.996691
vt 0.601562 0.996691
vt 0.601562 0.487305
vt 0.604004 0.487305
vt 0.617676 0.772949
vt 0.612305 0.772949
vt 0.612305 0.756592
vt 0.617676 0.756592
vt 0.093689 0.837036
vt 0.246704 0.837036
vt 0.246704 0.854858
vt 0.093689 0.854858
vt 0.629395 0.756592
vt 0.636230 0.756592
vt 0.636230 0.772949
vt 0.629395 0.772949
vt 0.093689 0.739746
vt 0.093689 0.757568
vt 0.246704 0.757568
vt 0.246704 0.739746
vt 0.246704 0.633301
vt 0.246704 0.556396
vt 0.093689 0.556396
vt 0.093689 0.633301
vt 0.246704 0.658691
vt 0.246704 0.640869
vt 0.093689 0.640869
vt 0.093689 0.658691
vt 0.628906 0.694336
vt 0.635742 0.694336
vt 0.635742 0.734131
vt 0.628906 0.734131
vt 0.649902 0.636475
vt 0.649902 0.634521
vt 0.659668 0.634521
vt 0.659668 0.636475
vt 0.263428 0.938141
vt 0.263428 0.557617
vt 0.270508 0.557617
vt 0.270508 0.938141
vt 0.612793 0.649658
vt 0.626953 0.649658
vt 0.626953 0.655518
vt 0.612793 0.655518
vt 0.629883 0.690918
vt 0.623535 0.690674
vt 0.623535 0.680176
vt 0.629883 0.680420
vt 0.643066 0.756592
vt 0.643066 0.772949
vt 0.616699 0.694336
vt 0.621582 0.694336
vt 0.621582 0.734131
vt 0.616699 0.734131
vt 0.612793 0.667480
vt 0.612793 0.661377
vt 0.626953 0.661377
vt 0.626953 0.667480
vt 0.660156 0.772949
vt 0.654785 0.772949
vt 0.654785 0.756592
vt 0.660156 0.756592
vt 0.596191 0.487305
vt 0.598633 0.487305
vt 0.598633 0.996691
vt 0.596191 0.996691
vt 0.093689 0.862549
vt 0.093689 0.936340
vt 0.246704 0.936340
vt 0.246704 0.862549
vt 0.653809 0.680176
vt 0.647949 0.680176
vt 0.647949 0.677734
vt 0.653809 0.677734
vt 0.642090 0.647461
vt 0.642090 0.653320
vt 0.640137 0.652588
vt 0.640137 0.648193
vt 0.627930 0.662598
vt 0.632324 0.658447
vt 0.632812 0.659912
vt 0.629395 0.663086
vt 0.622559 0.756592
vt 0.622559 0.772949
vt 0.282227 0.938141
vt 0.280518 0.938141
vt 0.280518 0.557617
vt 0.282227 0.557617
vt 0.660156 0.734131
vt 0.654785 0.734131
vt 0.654785 0.694336
vt 0.660156 0.694336
vt 0.649414 0.756592
vt 0.649414 0.772949
vt 0.617188 0.977692
vt 0.610352 0.977692
vt 0.610352 0.968750
vt 0.617188 0.968750
vt 0.643066 0.734131
vt 0.643066 0.694336
vt 0.649902 0.694336
vt 0.649902 0.734131
vt 0.637695 0.671387
vt 0.641113 0.667969
vt 0.642578 0.668457
vt 0.638184 0.672852
vt 0.629395 0.667969
vt 0.627930 0.668457
vt 0.246704 0.738525
vt 0.093689 0.738525
vt 0.093689 0.733398
vt 0.246704 0.733398
vt 0.606445 0.996691
vt 0.606445 0.487305
vt 0.654297 0.690674
vt 0.647949 0.690674
vt 0.654297 0.987427
vt 0.654297 0.994274
vt 0.618164 0.994274
vt 0.618164 0.987427
vt 0.617188 0.993919
vt 0.610352 0.993919
vt 0.610352 0.978333
vt 0.617188 0.978333
vt 0.246704 0.639648
vt 0.093689 0.639648
vt 0.093689 0.634521
vt 0.246704 0.634521
vt 0.641602 0.680420
vt 0.642090 0.690918
vt 0.613281 0.871338
vt 0.620117 0.871338
vt 0.620117 0.881287
vt 0.613281 0.881287
vt 0.620117 0.739746
vt 0.618164 0.744385
vt 0.615234 0.744385
vt 0.618164 0.737549
vt 0.626953 0.637695
vt 0.626953 0.643555
vt 0.612793 0.643555
vt 0.612793 0.637695
vt 0.588379 0.487305
vt 0.590820 0.487305
vt 0.590820 0.996691
vt 0.588379 0.996691
vt 0.629395 0.652588
vt 0.632812 0.655762
vt 0.631836 0.657715
vt 0.627930 0.653320
vt 0.637695 0.643311
vt 0.637207 0.645020
vt 0.612793 0.673340
vt 0.626953 0.673340
vt 0.620117 0.967529
vt 0.613281 0.967529
vt 0.629883 0.800293
vt 0.629883 0.793457
vt 0.642090 0.793457
vt 0.642090 0.800293
vt 0.093689 0.660645
vt 0.093689 0.665771
vt 0.246704 0.665771
vt 0.246704 0.660645
vt 0.660645 0.690918
vt 0.660645 0.679932
vt 0.650391 0.660156
vt 0.650391 0.650635
vt 0.659668 0.650635
vt 0.659668 0.660156
vt 0.752930 0.548096
vt 0.766602 0.548096
vt 0.766602 0.554688
vt 0.752930 0.554688
vt 0.093689 0.758301
vt 0.093689 0.763428
vt 0.246704 0.763428
vt 0.246704 0.758301
vt 0.626953 0.967804
vt 0.628906 0.883057
vt 0.643066 0.883057
vt 0.645020 0.967804
vt 0.650391 0.646484
vt 0.649902 0.637207
vt 0.659668 0.637207
vt 0.659668 0.646484
vt 0.659668 0.664551
vt 0.650391 0.664551
vt 0.651855 0.880432
vt 0.658691 0.880432
vt 0.658691 0.966675
vt 0.651855 0.966675
vt 0.735840 0.574707
vt 0.750000 0.574707
vt 0.750000 0.581299
vt 0.735840 0.581299
vt 0.659668 0.672852
vt 0.649902 0.672852
vt 0.093689 0.856079
vt 0.093689 0.861206
vt 0.246704 0.861206
vt 0.246704 0.856079
vt 0.611328 0.734131
vt 0.611328 0.694336
vt 0.278320 0.938141
vt 0.278320 0.557617
vt 0.613281 0.802856
vt 0.620117 0.802856
vt 0.593750 0.487305
vt 0.593750 0.996691
vt 0.317871 0.557617
vt 0.317871 0.938141
vt 0.307129 0.938141
vt 0.307861 0.557617
vt 0.735840 0.541016
vt 0.735840 0.536621
vt 0.892090 0.536621
vt 0.892090 0.541016
vt 0.291504 0.557617
vt 0.291504 0.938141
vt 0.651855 0.802002
vt 0.658691 0.802002
vt 0.658691 0.870483
vt 0.651855 0.870483
vt 0.655273 0.967712
vt 0.662109 0.967712
vt 0.662109 0.976669
vt 0.655273 0.976669
vt 0.093689 0.764648
vt 0.093689 0.829956
vt 0.246704 0.829956
vt 0.246704 0.764648
vt 0.618164 0.986504
vt 0.618164 0.970917
vt 0.654297 0.970917
vt 0.654297 0.986504
vt 0.637207 0.789795
vt 0.641602 0.784912
vt 0.642578 0.789795
vt 0.637695 0.782227
vt 0.635254 0.782227
vt 0.633301 0.777954
vt 0.635254 0.776001
vt 0.628906 0.776123
vt 0.624512 0.777954
vt 0.622559 0.776123
vt 0.628906 0.773438
vt 0.615234 0.790039
vt 0.620117 0.782349
vt 0.622559 0.782349
vt 0.620605 0.789917
vt 0.616211 0.785034
vt 0.642090 0.774170
vt 0.637695 0.779053
vt 0.636230 0.774170
vt 0.641602 0.781738
vt 0.644043 0.781738
vt 0.643555 0.636963
vt 0.643555 0.627441
vt 0.647461 0.625488
vt 0.647461 0.638916
vt 0.659180 0.781860
vt 0.664062 0.774292
vt 0.663086 0.779297
vt 0.633789 0.752441
vt 0.638672 0.747314
vt 0.639648 0.752441
vt 0.638672 0.735840
vt 0.641113 0.743896
vt 0.638184 0.743896
vt 0.633789 0.740967
vt 0.625000 0.737793
vt 0.625000 0.734863
vt 0.647461 0.750366
vt 0.652344 0.748535
vt 0.654297 0.750488
vt 0.647461 0.753296
vt 0.643066 0.748535
vt 0.641113 0.750488
vt 0.654297 0.743896
vt 0.657227 0.743896
vt 0.662598 0.735840
vt 0.656250 0.735840
vt 0.609863 0.752441
vt 0.611328 0.747314
vt 0.632812 0.735840
vt 0.631348 0.744385
vt 0.634277 0.744385
vt 0.629395 0.739746
vt 0.631836 0.737549
vt 0.616211 0.752441
vt 0.661133 0.740967
vt 0.635742 0.690918
vt 0.635742 0.693359
vt 0.629883 0.693359
vt 0.637207 0.655762
vt 0.632812 0.645020
vt 0.617676 0.693115
vt 0.611816 0.693359
vt 0.610840 0.690674
vt 0.617676 0.690674
vt 0.617676 0.680176
vt 0.610840 0.679932
vt 0.611816 0.677490
vt 0.617676 0.677734
vt 0.635742 0.680420
vt 0.659668 0.693359
vt 0.653809 0.693115
vt 0.624023 0.677734
vt 0.642090 0.677246
vt 0.641113 0.663086
vt 0.623535 0.693115
vt 0.629395 0.871338
vt 0.647949 0.693115
vt 0.642090 0.693359
vt 0.659668 0.677490
vt 0.654785 0.786255
vt 0.656250 0.781860
vt 0.656250 0.788208
vt 0.650391 0.787964
vt 0.650391 0.790771
vt 0.645996 0.786133
vt 0.644043 0.788086
vt 0.658691 0.774292
vt 0.629395 0.677246
vt 0.635742 0.676758
vt 0.246704 0.835938
vt 0.246704 0.830811
vt 0.093689 0.830811
vt 0.093689 0.835938
vt 0.751465 0.549561
vt 0.735840 0.548096
vt 0.750000 0.548096
vt 0.751465 0.561279
vt 0.750000 0.573242
vt 0.735840 0.573242
vt 0.735840 0.561279
vt 0.585938 0.996691
vt 0.585938 0.487305
vt 0.262939 0.557617
vt 0.262207 0.938141
vt 0.612793 0.631836
vt 0.626953 0.631836
vt 0.637695 0.657715
vt 0.632812 0.671387
vt 0.632324 0.672852
vt 0.627930 0.647461
vt 0.631836 0.643311
vt 0.629395 0.648193
vt 0.638184 0.658447
vt 0.637695 0.659912
vt 0.642578 0.662598
vt 0.269775 0.938141
vt 0.269775 0.557617
vt 0.631836 0.869629
vt 0.629883 0.801758
vt 0.642090 0.801758
vt 0.640137 0.869629
vt 0.751465 0.560059
vt 0.735840 0.560059
vt 0.659668 0.673584
vt 0.659668 0.675537
vt 0.650391 0.675537
vt 0.650391 0.673584
vt 0.655273 0.977692
vt 0.662109 0.977692
vt 0.662109 0.993290
vt 0.655273 0.993290
vt 0.612793 0.625732
vt 0.626953 0.625732
vt 0.751465 0.571777
vt 0.642578 0.870483
vt 0.645508 0.648682
vt 0.644043 0.639404
vt 0.645508 0.639404
vt 0.644043 0.655518
vt 0.645508 0.670654
vt 0.644043 0.670654
vt 0.645508 0.662109
vt 0.649414 0.650635
vt 0.649414 0.660156
vt 0.649414 0.647461
vt 0.647461 0.647461
vt 0.649414 0.632324
vt 0.647461 0.616211
vt 0.649414 0.616211
vt 0.892090 0.542480
vt 0.892090 0.546631
vt 0.735840 0.546631
vt 0.735840 0.542480
s 1
usemtl Material.009
f 321/1/1 322/2/1 319/3/1 320/4/1
f 11/5/2 12/6/2 9/7/2 10/8/2
f 69/9/3 70/10/4 67/11/5 68/12/3
f 163/13/6 164/14/7 161/15/7 162/16/8
f 29/17/9 30/18/9 27/19/9 28/20/9
f 166/21/10 909/22/9 908/23/11 167/24/10
f 341/25/1 342/26/1 339/27/1 340/28/1
f 337/17/1 338/20/1 335/19/1 336/18/1
f 333/29/1 334/30/1 331/31/1 332/32/1
f 345/33/1 346/34/1 343/35/1 344/36/1
f 25/29/9 26/32/9 23/31/9 24/30/9
f 797/37/10 801/38/11 800/39/11 798/40/10
f 305/41/12 306/42/12 303/43/12 304/44/12
f 385/45/1 386/46/1 383/47/1 384/48/1
f 976/49/13 977/50/13 1046/51/11 1047/52/14
f 736/53/15 732/54/16 731/55/17 735/56/18
f 909/22/9 172/57/19 171/58/20 908/23/11
f 37/33/9 38/36/9 35/35/9 36/34/9
f 220/59/6 223/60/21 226/61/21 221/62/6
f 285/41/22 286/42/23 283/43/22 284/44/23
f 823/63/24 825/64/25 824/65/13 822/66/24
f 487/53/26 483/54/27 482/55/28 486/56/29
f 79/67/30 80/68/31 77/69/31 78/70/32
f 798/40/10 799/61/33 796/60/33 797/37/10
f 1011/22/9 254/57/20 253/58/20 1010/23/9
f 919/71/11 912/72/19 913/73/34 918/74/11
f 70/10/4 76/73/20 75/72/20 67/11/5
f 245/13/8 246/14/7 243/15/7 244/16/6
f 325/75/1 326/76/1 323/77/1 324/78/1
f 656/79/35 657/80/16 654/81/36 655/82/37
f 237/83/38 238/84/39 235/85/40 236/86/41
f 988/87/42 989/88/43 986/89/44 987/90/45
f 162/16/8 165/91/21 168/92/21 163/13/6
f 188/21/10 921/22/11 920/23/9 189/24/10
f 5/93/46 14/94/20 13/95/20 6/96/46
f 159/67/30 160/68/31 157/69/47 158/70/30
f 248/21/10 1011/22/9 1010/23/9 249/24/10
f 185/13/6 186/14/48 183/15/48 184/16/6
f 95/97/30 96/98/31 93/99/31 94/100/30
f 91/58/20 92/57/20 89/101/49 90/102/49
f 135/103/16 136/104/50 133/105/16 134/106/16
f 229/107/19 230/108/20 227/109/49 228/110/51
f 895/111/52 149/112/53 152/113/54 894/114/55
f 827/90/41 833/115/56 832/116/57 828/87/58
f 927/38/11 206/108/19 205/107/34 926/39/11
f 140/98/31 146/110/49 145/109/49 137/99/31
f 53/117/59 54/118/59 51/119/60 52/120/59
f 72/121/61 69/9/3 68/12/3 71/122/1
f 534/123/62 535/124/28 533/80/63 532/79/64
f 147/107/19 148/108/20 145/109/49 146/110/49
f 127/125/2 128/126/2 125/127/2 126/128/2
f 273/129/24 274/130/24 271/131/24 272/132/24
f 863/37/10 867/38/11 866/39/11 864/40/10
f 57/133/59 58/134/59 55/135/59 56/136/59
f 941/63/24 943/64/13 942/65/13 940/66/24
f 867/38/11 148/108/20 147/107/19 866/39/11
f 181/67/30 182/68/47 179/69/47 180/70/30
f 925/61/21 201/62/6 200/59/8 922/60/65
f 806/137/66 104/80/16 808/124/17 810/138/67
f 217/97/68 218/98/31 215/99/31 216/100/30
f 864/40/10 865/61/21 862/60/21 863/37/10
f 778/139/12 779/140/69 777/141/70 776/142/71
f 997/111/72 231/112/73 234/113/74 996/114/75
f 508/143/76 510/144/77 509/145/78 507/146/76
f 865/61/21 143/62/8 142/59/6 862/60/21
f 932/147/79 933/148/80 930/149/80 931/150/79
f 139/97/30 140/98/31 137/99/31 138/100/30
f 793/71/11 75/72/20 76/73/20 792/74/11
f 73/151/81 789/152/2 788/153/2 74/154/81
f 269/125/5 270/126/5 267/127/5 268/128/5
f 903/155/82 905/156/83 904/157/84 902/158/85
f 1003/159/86 237/83/38 236/86/41 1002/160/87
f 197/97/30 198/98/31 195/99/31 196/100/30
f 879/161/79 881/63/80 880/66/80 878/162/79
f 491/142/88 492/141/89 489/163/90 490/164/90
f 193/58/19 194/57/19 191/101/49 192/102/51
f 115/165/4 116/166/4 113/167/4 114/168/4
f 369/169/91 370/170/91 367/171/91 368/172/91
f 825/64/25 1032/52/9 1031/51/11 824/65/13
f 664/173/92 658/123/93 656/79/35 663/174/94
f 131/129/95 132/130/95 129/131/95 130/132/95
f 241/67/30 242/68/47 239/69/47 240/70/30
f 189/24/10 190/92/21 187/91/21 188/21/10
f 176/9/3 911/10/5 910/11/5 173/12/3
f 301/175/96 302/176/97 299/177/97 300/178/98
f 393/179/24 394/180/24 391/181/24 392/182/24
f 357/183/91 358/184/91 355/185/91 356/186/91
f 1017/187/11 1019/188/99 1018/189/99 1016/190/9
f 313/191/100 314/192/9 311/193/9 312/194/97
f 302/176/97 313/191/100 312/194/97 299/177/97
f 300/178/98 317/195/98 316/196/101 301/175/96
f 282/176/101 293/191/102 292/194/98 279/177/98
f 1050/197/103 1051/198/104 1048/199/104 1049/200/104
f 397/201/95 398/202/95 395/203/95 396/204/95
f 293/191/102 294/192/9 291/193/9 292/194/98
f 297/195/97 298/205/9 295/206/11 296/196/97
f 317/195/98 318/205/9 315/206/9 316/196/101
f 281/175/97 282/176/101 279/177/98 280/178/105
f 801/38/11 803/108/19 802/107/19 800/39/11
f 17/75/9 18/78/9 15/77/9 16/76/9
f 349/207/91 350/208/91 347/209/91 348/210/91
f 99/62/8 100/211/7 97/212/7 98/59/106
f 373/45/1 374/213/1 371/214/1 372/46/1
f 33/25/9 34/28/9 31/27/9 32/26/9
f 65/45/9 66/46/9 63/214/9 64/213/9
f 257/165/2 258/166/2 255/167/2 256/168/2
f 780/215/12 782/216/107 779/140/69 778/139/12
f 49/183/108 50/186/109 47/185/108 48/184/109
f 167/24/10 168/92/21 165/91/21 166/21/10
f 789/152/2 791/217/10 790/218/10 788/153/2
f 61/169/109 62/172/109 59/171/109 60/170/109
f 377/219/2 378/220/2 375/221/2 376/222/2
f 405/223/95 406/224/95 403/225/95 404/226/95
f 7/227/4 8/228/4 5/93/46 6/96/46
f 1055/229/110 1056/230/111 1054/231/111 1052/232/112
f 3/1/9 4/4/9 1/3/9 2/2/9
f 221/62/6 222/211/48 219/212/48 220/59/6
f 119/233/17 120/234/17 117/235/17 118/236/17
f 329/237/1 330/238/1 327/239/1 328/240/1
f 852/241/9 853/242/11 850/243/11 851/244/9
f 409/245/113 407/246/24 408/247/24
f 407/246/24 409/245/113 410/248/114
f 409/245/113 411/249/115 410/248/114
f 594/249/115 596/250/116 595/251/116 593/248/114
f 566/252/117 568/253/118 567/254/118 565/255/117
f 748/250/116 750/252/117 749/255/117 747/251/116
f 746/249/119 748/250/116 747/251/116 745/248/114
f 756/256/24 753/257/120 754/258/121 755/259/122
f 418/257/120 421/256/123 422/260/123
f 425/261/124 423/262/80 424/263/95
f 423/262/80 425/261/124 426/264/125
f 425/261/124 427/265/126 426/264/125
f 568/253/118 570/258/127 569/257/128 567/254/118
f 413/250/116 415/252/129 414/255/129 412/251/116
f 1073/266/5 1074/267/4 1072/268/5 1068/269/5
f 600/253/118 602/258/121 601/257/128 599/254/118
f 572/256/123 569/257/128 570/258/127 571/259/130
f 434/270/131 437/271/132 438/272/132
f 441/273/133 439/274/24 440/275/24
f 457/276/134 459/277/135 458/278/136 455/279/95
f 506/280/137 508/143/76 507/146/76 505/281/137
f 706/282/138 708/283/139 707/284/140 705/285/138
f 644/286/141 646/282/138 645/285/138 643/287/142
f 648/283/140 650/288/143 649/289/144 647/284/140
f 712/290/145 709/289/146 710/288/143 711/291/147
f 450/145/78 453/292/123 454/293/24
f 457/276/134 455/279/95 456/294/95
f 684/273/133 686/295/148 685/296/149 682/274/24
f 686/295/148 688/297/150 687/298/150 685/296/149
f 463/282/138 465/283/140 464/284/140 462/285/151
f 690/280/137 692/143/152 691/146/76 689/281/137
f 692/143/152 694/144/77 693/145/78 691/146/76
f 512/292/24 509/145/78 510/144/77 511/299/153
f 466/289/144 469/290/80 470/300/95
f 552/53/15 1096/301/154 1095/302/155 553/303/156
f 1009/304/157 1005/155/158 998/305/159 236/86/41
f 669/306/160 665/307/161 664/308/92 668/309/64
f 543/310/162 539/311/92 538/312/161 542/313/163
f 679/137/164 680/138/67 1098/301/165 928/314/166
f 475/315/161 476/316/163 474/123/162 473/173/167
f 716/79/64 717/80/168 714/81/169 715/82/160
f 555/137/170 556/138/171 1096/301/154 868/314/172
f 671/55/28 667/310/62 666/313/173 670/317/174
f 807/318/175 101/81/36 104/80/16 806/137/66
f 997/111/72 993/115/176 986/89/44 232/319/177
f 677/303/178 673/320/179 672/54/168 676/53/26
f 365/133/180 366/136/180 363/135/180 364/134/180
f 985/64/181 1047/52/14 1046/51/11 984/65/182
f 1037/232/183 1039/231/184 1036/198/185 1035/197/186
f 496/321/187 492/141/89 494/140/188
f 496/321/187 494/140/188 497/216/189
f 500/273/190 498/274/24 499/275/24
f 516/276/134 518/277/135 517/278/136 514/279/95
f 465/283/140 467/288/191 466/289/144 464/284/140
f 630/280/137 632/143/76 631/146/76 629/281/137
f 461/286/141 463/282/138 462/285/151 460/287/192
f 626/295/193 628/297/150 627/298/150 625/296/149
f 453/292/123 450/145/78 451/144/77 452/299/194
f 509/145/78 512/292/24 513/293/24
f 516/276/134 514/279/95 515/294/132
f 640/276/195 642/277/135 641/278/196 638/279/95
f 708/283/139 710/288/143 709/289/146 707/284/140
f 522/282/138 524/283/140 523/284/140 521/285/138
f 447/280/137 449/143/76 448/146/76 446/281/137
f 632/143/76 634/144/77 633/145/78 631/146/76
f 469/290/80 466/289/144 467/288/191 468/291/147
f 525/289/144 528/290/80 529/300/95
f 661/322/197 681/323/198 680/138/67 659/124/17
f 883/64/182 1043/52/14 1042/51/11 882/65/181
f 482/55/28 478/310/62 477/313/173 481/317/174
f 723/174/92 716/79/64 715/82/160 722/324/161
f 544/309/199 540/308/94 539/311/92 543/310/162
f 729/306/200 725/307/201 724/308/94 728/309/35
f 1098/301/165 680/138/67 681/323/198 1097/302/202
f 806/137/66 810/138/67 1094/301/203 804/314/166
f 480/306/160 475/307/161 473/308/167 479/309/64
f 731/55/17 727/310/93 726/313/163 730/317/204
f 981/161/79 983/63/80 982/66/80 980/162/79
f 484/320/179 480/306/160 479/309/64 483/54/27
f 717/80/168 739/137/205 738/318/206 714/81/169
f 676/53/26 672/54/168 671/55/28 675/56/207
f 532/79/64 533/80/63 530/81/169 531/82/160
f 433/325/208 435/326/209 434/270/131 432/327/210
f 815/148/80 817/50/182 816/49/181 812/149/80
f 737/303/156 733/320/211 732/54/16 736/53/15
f 560/245/113 558/246/24 559/247/24
f 558/246/24 560/245/113 561/248/114
f 560/245/113 562/249/115 561/248/114
f 584/325/208 586/326/212 585/270/213 583/327/210
f 766/328/214 768/325/208 767/327/210 765/329/214
f 764/330/215 766/328/214 765/329/214 763/331/215
f 768/325/208 770/326/212 769/270/213 767/327/210
f 421/256/123 418/257/120 419/258/127 420/259/122
f 569/257/128 572/256/123 573/260/24
f 576/261/124 574/262/95 575/263/132
f 574/262/95 576/261/124 577/264/216
f 576/261/124 578/265/217 577/264/216
f 616/325/208 618/326/212 617/270/131 615/327/208
f 596/250/116 598/252/117 597/255/117 595/251/116
f 431/328/218 433/325/208 432/327/210 430/329/218
f 427/265/126 429/330/215 428/331/215 426/264/125
f 604/256/24 601/257/128 602/258/121 603/259/122
f 585/270/213 588/271/132 589/272/132
f 592/245/113 590/246/24 591/247/24
f 590/246/24 592/245/113 593/248/114
f 592/245/113 594/249/115 593/248/114
f 610/265/126 612/330/215 611/331/219 609/264/216
f 750/252/117 752/253/118 751/254/118 749/255/117
f 614/328/218 616/325/208 615/327/208 613/329/218
f 417/253/118 419/258/127 418/257/120 416/254/118
f 437/271/132 434/270/131 435/326/209 436/332/220
f 601/257/128 604/256/24 605/260/24
f 608/261/124 606/262/95 607/263/95
f 606/262/95 608/261/124 609/264/216
f 608/261/124 610/265/126 609/264/216
f 429/330/215 431/328/218 430/329/218 428/331/215
f 598/252/117 600/253/118 599/254/118 597/255/117
f 564/250/116 566/252/117 565/255/117 563/251/116
f 752/253/118 754/258/121 753/257/120 751/254/118
f 528/290/80 525/289/144 526/288/143 527/291/221
f 617/270/131 620/271/132 621/272/132
f 624/273/133 622/274/24 623/275/24
f 441/273/133 443/295/193 442/296/222 439/274/24
f 518/277/135 520/286/141 519/287/223 517/278/136
f 675/56/207 671/55/28 670/317/174 674/333/224
f 646/282/138 648/283/140 647/284/140 645/285/138
f 702/277/135 704/286/141 703/287/141 701/278/196
f 696/292/24 693/145/78 694/144/77 695/299/153
f 633/145/78 636/292/123 637/293/24
f 640/276/195 638/279/95 639/294/95
f 700/276/134 702/277/135 701/278/196 698/279/95
f 524/283/140 526/288/143 525/289/144 523/284/140
f 688/297/150 690/280/137 689/281/137 687/298/150
f 628/297/150 630/280/137 629/281/137 627/298/150
f 642/277/135 644/286/141 643/287/142 641/278/196
f 636/292/123 633/145/78 634/144/77 635/299/194
f 649/289/144 652/290/80 653/300/80
f 547/55/17 543/310/162 542/313/163 546/317/204
f 80/68/31 90/102/49 89/101/49 77/69/31
f 549/320/211 545/306/200 544/309/199 548/54/16
f 736/53/15 1100/301/225 1099/302/226 737/303/156
f 658/123/93 659/124/17 657/80/16 656/79/35
f 929/334/227 678/318/228 679/137/164 928/314/166
f 487/53/26 1094/301/203 1093/302/229 488/303/230
f 261/233/28 262/234/28 259/235/28 260/236/28
f 665/315/161 660/316/163 658/123/93 664/173/92
f 720/316/173 721/322/231 719/124/28 718/123/232
f 724/173/94 718/123/232 716/79/64 723/174/92
f 660/316/163 661/322/197 659/124/17 658/123/93
f 735/56/18 731/55/17 730/317/204 734/333/233
f 353/335/180 354/336/180 351/337/180 352/338/180
f 537/322/231 557/323/234 556/138/171 535/124/28
f 533/80/63 555/137/170 554/318/206 530/81/169
f 552/53/15 548/54/16 547/55/17 551/56/18
f 809/322/235 811/323/236 810/138/67 808/124/17
f 684/273/133 682/274/24 683/275/24
f 500/273/190 502/295/148 501/296/149 498/274/24
f 449/143/76 451/144/77 450/145/78 448/146/76
f 445/297/150 447/280/137 446/281/137 444/298/150
f 520/286/141 522/282/138 521/285/138 519/287/223
f 443/295/193 445/297/150 444/298/150 442/296/222
f 624/273/133 626/295/193 625/296/149 622/274/24
f 693/145/78 696/292/24 697/293/24
f 700/276/134 698/279/95 699/294/132
f 502/295/148 504/297/150 503/298/150 501/296/149
f 504/297/150 506/280/137 505/281/137 503/298/150
f 704/286/141 706/282/138 705/285/138 703/287/141
f 459/277/135 461/286/141 460/287/192 458/278/136
f 652/290/80 649/289/144 650/288/143 651/291/147
f 709/289/146 712/290/145 713/300/95
f 103/79/35 104/80/16 101/81/36 102/82/200
f 735/56/18 970/314/172 1100/301/225 736/53/15
f 536/316/237 537/322/231 535/124/28 534/123/62
f 478/310/62 472/311/94 471/312/238 477/313/173
f 739/137/205 740/138/171 1100/301/225 970/314/172
f 541/315/201 536/316/237 534/123/62 540/173/94
f 539/174/92 532/79/64 531/82/160 538/324/161
f 732/54/16 728/309/35 727/310/93 731/55/17
f 545/306/200 541/307/201 540/308/94 544/309/199
f 721/322/231 741/323/239 740/138/171 719/124/28
f 104/80/16 103/79/35 474/123/162 808/124/17
f 673/320/179 669/306/160 668/309/64 672/54/168
f 551/56/18 547/55/17 546/317/204 550/333/233
f 719/124/28 740/138/171 739/137/205 717/80/168
f 553/303/156 549/320/211 548/54/16 552/53/15
f 486/56/29 482/55/28 481/317/174 485/333/240
f 175/121/1 176/9/3 173/12/3 174/122/1
f 488/303/230 484/320/179 483/54/27 487/53/26
f 744/245/113 742/246/24 743/247/24
f 742/246/24 744/245/113 745/248/114
f 744/245/113 746/249/119 745/248/114
f 562/249/115 564/250/116 563/251/116 561/248/114
f 582/328/241 584/325/208 583/327/210 581/329/241
f 612/330/215 614/328/218 613/329/218 611/331/219
f 411/249/115 413/250/116 412/251/116 410/248/114
f 620/271/132 617/270/131 618/326/212 619/332/220
f 753/257/120 756/256/24 757/260/24
f 760/261/124 758/262/80 759/263/95
f 758/262/80 760/261/124 761/264/216
f 760/261/124 762/265/217 761/264/216
f 578/265/217 580/330/215 579/331/215 577/264/216
f 580/330/215 582/328/241 581/329/241 579/331/215
f 415/252/129 417/253/118 416/254/118 414/255/129
f 762/265/217 764/330/215 763/331/215 761/264/216
f 588/271/132 585/270/213 586/326/212 587/332/220
f 769/270/213 772/271/95 773/272/145
f 86/21/10 795/22/9 794/23/11 87/24/10
f 143/62/8 144/211/7 141/212/7 142/59/6
f 1040/229/242 1041/230/184 1039/231/184 1037/232/183
f 781/321/243 777/141/70 779/140/69
f 781/321/243 779/140/69 782/216/107
f 785/339/24 783/340/24 784/341/24
f 1027/342/95 1024/343/80 1025/344/95 1026/345/95
f 718/123/232 719/124/28 717/80/168 716/79/64
f 177/151/81 915/152/2 914/153/2 178/154/244
f 535/124/28 556/138/171 555/137/170 533/80/63
f 182/68/47 192/102/51 191/101/49 179/69/47
f 975/148/24 977/50/13 976/49/13 972/149/24
f 791/217/10 793/71/11 792/74/11 790/218/10
f 178/154/244 175/346/1 174/347/1 177/151/81
f 1029/109/49 1030/110/51 802/107/19 803/108/19
f 921/22/11 194/57/19 193/58/19 920/23/9
f 381/5/4 382/6/4 379/348/4 380/349/4
f 734/333/233 971/334/245 970/314/172 735/56/18
f 674/333/224 929/334/227 928/314/166 675/56/207
f 733/320/211 729/306/200 728/309/35 732/54/16
f 727/310/93 723/311/92 722/312/161 726/313/163
f 776/142/71 777/141/70 774/163/71 775/164/71
f 983/63/80 985/64/181 984/65/182 982/66/80
f 871/150/246 877/350/61 876/351/1 872/147/246
f 82/16/247 85/91/21 88/92/21 83/13/8
f 244/16/6 247/91/21 250/92/21 245/13/8
f 821/161/246 823/63/24 822/66/24 820/162/246
f 155/83/38 156/84/39 153/85/248 154/86/41
f 967/304/249 211/85/44 214/84/43 966/352/250
f 1007/156/83 1009/304/157 1008/352/251 1006/157/252
f 885/90/45 891/115/253 890/116/254 886/87/255
f 835/353/256 837/111/257 836/114/258 834/354/259
f 840/355/75 841/356/260 838/305/261 839/357/72
f 845/155/262 847/156/263 846/157/264 844/158/265
f 847/156/263 849/304/249 848/352/266 846/157/264
f 947/88/267 949/358/268 948/359/269 944/89/40
f 945/90/270 951/115/56 950/116/271 946/87/38
f 107/360/252 108/113/85 105/112/82 106/319/83
f 987/90/45 993/115/176 992/116/254 988/87/42
f 898/355/258 899/356/272 896/305/159 897/357/257
f 993/115/176 995/353/273 994/354/274 992/116/254
f 389/45/9 390/361/9 387/362/9 388/46/9
f 853/242/11 854/190/9 850/243/11
f 854/190/9 853/242/11 855/187/11
f 1021/363/275 1023/364/276 1022/365/276 1020/366/275
f 476/316/163 809/322/235 808/124/17 474/123/162
f 785/339/24 787/367/24 786/368/24 783/340/24
f 1035/197/186 1036/198/185 1033/199/185 1034/200/185
f 361/117/277 362/120/277 359/119/180 360/118/180
f 917/217/10 919/71/11 918/74/11 916/218/10
f 289/369/278 290/370/278 287/371/278 288/372/278
f 485/333/240 805/334/227 804/314/166 486/56/29
f 550/333/233 869/334/279 868/314/172 551/56/18
f 816/49/181 817/50/182 1031/51/11 1032/52/9
f 872/147/246 873/148/24 870/149/24 871/150/246
f 881/63/80 883/64/182 882/65/181 880/66/80
f 668/309/64 664/308/92 663/311/94 667/310/62
f 198/98/31 204/110/49 203/109/280 195/99/31
f 933/148/80 935/50/182 934/49/181 930/149/80
f 946/87/38 947/88/267 944/89/40 945/90/270
f 1001/356/281 1003/159/86 1002/160/87 998/305/159
f 965/156/263 967/304/249 966/352/250 964/157/264
f 886/87/255 887/88/282 884/89/44 885/90/45
f 887/88/282 889/358/283 888/359/249 884/89/44
f 995/353/273 997/111/72 996/114/75 994/354/274
f 955/111/284 207/112/82 210/113/85 954/114/258
f 953/353/159 955/111/284 954/114/258 952/354/272
f 951/115/56 953/353/159 952/354/272 950/116/271
f 828/87/58 829/88/267 826/89/248 827/90/41
f 957/357/52 963/155/53 962/158/74 958/355/285
f 897/357/257 903/155/82 902/158/85 898/355/258
f 889/358/283 151/360/264 150/319/286 888/359/249
f 829/88/267 831/358/251 830/359/269 826/89/248
f 41/207/109 42/210/109 39/209/109 40/208/109
f 799/61/33 99/62/8 98/59/106 796/60/33
f 265/373/95 266/374/95 263/375/95 264/376/95
f 813/150/79 819/350/1 818/351/1 814/147/79
f 87/24/10 88/92/21 85/91/21 86/21/10
f 672/54/168 668/309/64 667/310/62 671/55/28
f 943/64/13 1045/52/9 1044/51/11 942/65/13
f 934/49/181 935/50/182 1044/51/11 1045/52/9
f 937/350/1 939/377/287 938/378/288 936/351/1
f 1029/109/49 93/99/31 96/98/31 1030/110/51
f 309/369/289 310/370/289 307/371/289 308/372/289
f 224/37/10 969/38/11 968/39/11 225/40/10
f 837/111/257 833/115/56 826/89/248 106/319/83
f 955/111/284 951/115/56 944/89/40 208/319/83
f 869/334/279 554/318/206 555/137/170 868/314/172
f 805/334/227 807/318/175 806/137/66 804/314/166
f 877/350/61 879/377/79 878/378/79 876/351/1
f 939/161/287 941/63/24 940/66/24 938/162/288
f 160/68/31 170/102/49 169/101/49 157/69/47
f 874/49/13 875/50/25 1042/51/11 1043/52/14
f 184/16/6 187/91/21 190/92/21 185/13/6
f 819/350/1 821/377/246 820/378/246 818/351/1
f 961/159/254 213/83/255 212/86/45 960/160/253
f 849/304/249 109/85/290 112/84/282 848/352/266
f 905/156/83 907/304/269 906/352/251 904/157/84
f 111/83/255 112/84/282 109/85/290 110/86/45
f 841/356/260 843/159/254 842/160/291 838/305/261
f 831/358/251 107/360/252 106/319/83 830/359/269
f 233/360/264 234/113/74 231/112/73 232/319/177
f 1005/155/158 1007/156/83 1006/157/252 1004/158/85
f 1009/304/157 235/85/40 238/84/39 1008/352/251
f 213/83/255 214/84/43 211/85/44 212/86/45
f 963/155/53 965/156/263 964/157/264 962/158/74
f 839/357/72 845/155/262 844/158/265 840/355/75
f 1000/355/258 1001/356/281 998/305/159 999/357/257
f 833/115/56 835/353/256 834/354/259 832/116/57
f 74/154/81 72/346/61 71/347/1 73/151/81
f 795/22/9 92/57/20 91/58/20 794/23/11
f 971/334/245 738/318/206 739/137/205 970/314/172
f 891/115/253 893/353/273 892/354/274 890/116/254
f 123/373/24 124/374/24 121/375/24 122/376/24
f 277/103/168 278/104/168 275/105/168 276/106/292
f 915/152/2 917/217/10 916/218/10 914/153/2
f 551/56/18 868/314/172 1096/301/154 552/53/15
f 973/150/246 979/350/1 978/351/1 974/147/246
f 924/40/10 925/61/21 922/60/65 923/37/10
f 901/159/271 155/83/38 154/86/41 900/160/293
f 899/356/272 901/159/271 900/160/293 896/305/159
f 893/353/273 895/111/52 894/114/55 892/354/274
f 843/159/254 111/83/255 110/86/45 842/160/291
f 959/356/274 961/159/254 960/160/253 956/305/261
f 958/355/285 959/356/274 956/305/261 957/357/52
f 999/357/257 1005/155/158 1004/158/85 1000/355/258
f 991/358/294 233/360/264 232/319/177 990/359/249
f 989/88/43 991/358/294 990/359/249 986/89/44
f 837/111/257 105/112/82 108/113/85 836/114/258
f 151/360/264 152/113/54 149/112/53 150/319/286
f 209/360/252 210/113/85 207/112/82 208/319/83
f 949/358/268 209/360/252 208/319/83 948/359/269
f 907/304/269 153/85/248 156/84/39 906/352/251
f 969/38/11 230/108/20 229/107/19 968/39/11
f 242/68/47 252/102/49 251/101/51 239/69/47
f 814/147/79 815/148/80 812/149/80 813/150/79
f 1015/242/9 1016/190/9 1012/243/11
f 1016/190/9 1015/242/9 1017/187/11
f 855/187/11 857/188/295 856/189/295 854/190/9
f 857/188/295 859/363/296 858/366/296 856/189/295
f 859/363/296 861/364/297 860/365/298 858/366/296
f 1019/188/99 1021/363/275 1020/366/275 1018/189/99
f 1027/342/95 1028/379/95 1024/343/80
f 495/215/23 497/216/189 494/140/188 493/139/299
f 201/62/6 202/211/7 199/212/7 200/59/8
f 21/237/9 22/240/9 19/239/9 20/238/9
f 171/58/20 172/57/19 169/101/49 170/102/49
f 493/139/299 494/140/188 492/141/89 491/142/88
f 1052/232/112 1054/231/111 1051/198/104 1050/197/103
f 1038/380/300 1037/232/183 1035/197/186
f 1038/380/300 1040/229/242 1037/232/183
f 895/111/52 891/115/253 884/89/44 150/319/286
f 911/10/5 913/73/34 912/72/19 910/11/5
f 974/147/246 975/148/24 972/149/24 973/150/246
f 931/150/79 937/350/1 936/351/1 932/147/79
f 218/98/31 228/110/51 227/109/49 215/99/31
f 253/58/20 254/57/20 251/101/51 252/102/49
f 83/13/8 84/14/301 81/15/7 82/16/247
f 225/40/10 226/61/21 223/60/21 224/37/10
f 923/37/10 927/38/11 926/39/11 924/40/10
f 1053/380/302 1052/232/112 1050/197/103
f 1053/380/302 1055/229/110 1052/232/112
f 205/107/34 206/108/19 203/109/280 204/110/49
f 1059/381/2 1057/382/2 1058/383/2
f 1057/382/2 1059/381/2 1060/384/2
f 1060/384/2 1061/385/2 1062/386/2
f 1061/385/2 1060/384/2 1063/387/2
f 1060/384/2 1059/381/2 1063/387/2
f 1082/388/4 1083/389/303 1081/387/4 1077/381/4
f 1068/269/5 1066/390/4 1067/391/4
f 1066/390/4 1068/269/5 1069/392/5
f 1069/392/5 1070/393/4 1071/394/4
f 1070/393/4 1069/392/5 1072/268/5
f 1069/392/5 1068/269/5 1072/268/5
f 1091/266/2 1092/267/2 1090/268/2 1086/269/2
f 1077/381/4 1075/382/4 1076/383/5
f 1075/382/4 1077/381/4 1078/384/4
f 1078/384/4 1079/385/4 1080/386/4
f 1079/385/4 1078/384/4 1081/387/4
f 1078/384/4 1077/381/4 1081/387/4
f 772/271/95 769/270/213 770/326/212 771/332/220
f 1086/269/2 1084/390/2 1085/391/2
f 1084/390/2 1086/269/2 1087/392/2
f 1087/392/2 1088/393/2 1089/394/2
f 1088/393/2 1087/392/2 1090/268/2
f 1087/392/2 1086/269/2 1090/268/2
f 1064/388/2 1065/389/2 1063/387/2 1059/381/2
f 659/124/17 680/138/67 679/137/164 657/80/16
f 657/80/16 679/137/164 678/318/228 654/81/36
f 483/54/27 479/309/64 478/310/62 482/55/28
f 725/315/201 720/316/173 718/123/232 724/173/94
f 979/350/1 981/377/79 980/378/79 978/351/1
f 472/174/94 103/79/35 102/82/200 471/324/238
f 486/56/29 804/314/166 1094/301/203 487/53/26
f 676/53/26 1098/301/165 1097/302/202 677/303/178
f 728/309/35 724/308/94 723/311/92 727/310/93
f 1100/301/225 740/138/171 741/323/239 1099/302/226
f 479/309/64 473/308/167 472/311/94 478/310/62
f 1096/301/154 556/138/171 557/323/234 1095/302/155
f 473/173/167 474/123/162 103/79/35 472/174/94
f 1094/301/203 810/138/67 811/323/236 1093/302/229
f 675/56/207 928/314/166 1098/301/165 676/53/26
f 667/310/62 663/311/94 662/312/201 666/313/173
f 548/54/16 544/309/199 543/310/162 547/55/17
f 663/174/94 656/79/35 655/82/37 662/324/201
f 540/173/94 534/123/62 532/79/64 539/174/92
f 837/111/257 106/319/83 105/112/82
f 826/89/248 830/359/269 106/319/83
f 873/148/24 875/50/25 874/49/13 870/149/24
f 833/115/56 837/111/257 835/353/256
f 826/89/248 833/115/56 827/90/41
f 849/304/249 110/86/45 109/85/290
f 838/305/261 842/160/291 110/86/45
f 280/178/105 297/195/97 296/196/97 281/175/97
f 845/155/262 849/304/249 847/156/263
f 838/305/261 845/155/262 839/357/72
f 895/111/52 150/319/286 149/112/53
f 884/89/44 888/359/249 150/319/286
f 45/335/59 46/338/59 43/337/59 44/336/59
f 891/115/253 895/111/52 893/353/273
f 884/89/44 891/115/253 885/90/45
f 907/304/269 154/86/41 153/85/248
f 896/305/159 900/160/293 154/86/41
f 967/304/249 963/155/53 956/305/261 212/86/45
f 903/155/82 907/304/269 905/156/83
f 896/305/159 903/155/82 897/357/257
f 955/111/284 208/319/83 207/112/82
f 944/89/40 948/359/269 208/319/83
f 1014/241/9 1015/242/9 1012/243/11 1013/244/11
f 951/115/56 955/111/284 953/353/159
f 944/89/40 951/115/56 945/90/270
f 967/304/249 212/86/45 211/85/44
f 956/305/261 960/160/253 212/86/45
f 849/304/249 845/155/262 838/305/261 110/86/45
f 963/155/53 967/304/249 965/156/263
f 956/305/261 963/155/53 957/357/52
f 997/111/72 232/319/177 231/112/73
f 986/89/44 990/359/249 232/319/177
f 249/24/10 250/92/21 247/91/21 248/21/10
f 993/115/176 997/111/72 995/353/273
f 986/89/44 993/115/176 987/90/45
f 1009/304/157 236/86/41 235/85/40
f 998/305/159 1002/160/87 236/86/41
f 907/304/269 903/155/82 896/305/159 154/86/41
f 1005/155/158 1009/304/157 1007/156/83
f 998/305/159 1005/155/158 999/357/257
f 401/395/24 402/396/24 399/397/24 400/398/24
