# Blender 3.6.22
# www.blender.org
mtllib puerta_2.mtl
o ParkDoor2
v 0.900617 10.827659 -0.000002
v -9.149757 10.827658 -0.000002
v -9.149761 6.540003 -0.000001
v 0.900619 6.540003 -0.000013
v 1.900620 23.106766 -0.027280
v 1.900620 -0.011779 -0.027283
v 1.900620 -0.011779 0.646606
v 1.900620 23.106770 0.646603
v 0.900623 -0.011779 -0.126996
v 0.900620 23.106770 -0.127006
v 0.900620 23.106770 0.646590
v 0.900621 -0.011779 0.646594
v 1.800621 -0.011779 -0.126990
v 1.800619 23.106770 -0.126994
v 0.900617 23.085758 -0.000004
v -9.149759 23.085758 -0.000004
v -9.149756 18.152634 -0.000003
v 0.900619 18.152634 -0.000003
v 0.900619 16.633972 -0.000003
v -9.149759 16.633972 -0.000003
v -9.149759 12.346320 -0.000002
v 0.900619 12.346320 -0.000002
v -9.149757 0.028043 -0.000000
v 0.900619 0.028043 -0.000012
v 0.900620 5.021344 -0.000007
v -9.149757 5.021345 0.000005
v 0.900619 17.979774 0.288876
v -9.149756 17.979774 0.288876
v -9.149756 16.806831 0.288877
v 0.900620 16.806831 0.288877
v 0.900620 12.173456 0.288877
v -9.149756 12.173460 0.288877
v -9.149756 11.000520 0.288878
v 0.900620 11.000520 0.288878
v -9.149757 5.194206 0.288879
v 0.900620 5.194207 0.288885
v 0.900620 6.367141 0.288878
v -9.149756 6.367142 0.288878
v 0.900619 18.152634 -0.000003
v -9.149756 18.152634 -0.000003
v -9.149756 17.979774 0.288876
v 0.900619 17.979774 0.288876
v -9.149759 16.633972 -0.000003
v 0.900619 16.633972 -0.000003
v 0.900620 16.806831 0.288877
v -9.149756 16.806831 0.288877
v 0.900619 12.346320 -0.000002
v -9.149759 12.346320 -0.000002
v -9.149756 12.173460 0.288877
v 0.900620 12.173456 0.288877
v -9.149757 10.827658 -0.000002
v 0.900617 10.827659 -0.000002
v 0.900620 11.000520 0.288878
v -9.149756 11.000520 0.288878
v -9.149757 5.021345 0.000005
v 0.900620 5.021344 -0.000007
v 0.900620 5.194207 0.288885
v -9.149757 5.194206 0.288879
v 0.900619 6.540003 -0.000013
v -9.149761 6.540003 -0.000001
v -9.149756 6.367142 0.288878
v 0.900620 6.367141 0.288878
v 1.800621 -0.011779 -0.126990
v 1.800619 23.106770 -0.126994
v 0.900620 23.106770 -0.127006
v 0.900623 -0.011779 -0.126996
v -4.492170 0.431252 -0.262134
v -4.538107 0.431252 -0.151550
v -4.538104 22.330132 -0.151572
v -4.492170 22.330132 -0.262150
v -4.648996 0.431252 -0.105756
v -4.648996 22.330132 -0.105778
v -4.759886 0.431252 -0.151544
v -4.759887 22.330135 -0.151572
v -4.538107 0.431252 -0.372699
v -4.538105 22.330132 -0.372721
v -4.324945 7.579721 -0.194197
v -4.296602 7.579720 -0.068879
v -4.296598 7.968213 -0.068879
v -4.324943 7.968214 -0.194197
v -5.001380 7.579721 -0.068879
v -4.973041 7.579722 -0.194203
v -4.973042 7.968213 -0.194203
v -5.001382 7.968213 -0.068873
v -4.874823 7.579720 -0.262105
v -4.808681 7.579722 -0.421345
v -4.808682 7.968214 -0.421339
v -4.874824 7.968212 -0.262105
v -4.423160 7.579721 -0.262111
v -4.423160 7.968213 -0.262105
v -4.489305 7.968212 -0.421345
v -4.489303 7.579721 -0.421345
v -4.324943 0.635332 -0.194214
v -4.296602 0.635332 -0.068897
v -4.296600 1.604810 -0.068897
v -4.324945 1.604810 -0.194214
v -5.001384 0.635332 -0.068897
v -4.973041 0.635332 -0.194214
v -4.973042 1.604810 -0.194214
v -5.001385 1.604810 -0.068897
v -4.492166 0.128568 -0.262103
v -4.538104 0.128568 -0.151526
v -4.511119 0.170463 -0.124634
v -4.454013 0.170463 -0.262103
v -4.865420 -0.028258 -0.418433
v -4.865420 -0.139151 -0.372644
v -4.826690 -0.166131 -0.399530
v -4.826690 -0.028258 -0.456512
v -4.432558 0.082633 -0.151483
v -4.432559 -0.028258 -0.105707
v -4.471292 -0.028258 -0.067639
v -4.471289 0.109616 -0.124615
v -0.153535 4.671417 -0.102277
v -0.153537 4.671418 -0.267506
v -0.153535 4.377359 -0.267506
v -0.153534 4.377359 -0.102271
v -4.148234 4.961629 -0.102271
v -4.148239 4.961630 -0.267506
v -4.072300 4.744597 -0.267512
v -4.072299 4.744597 -0.102271
v -4.525871 4.961630 -0.102277
v -4.525871 4.961630 -0.267506
v -4.148239 4.961630 -0.267506
v -4.148234 4.961629 -0.102271
v -4.525874 4.087147 -0.102271
v -4.525869 4.087146 -0.267506
v -4.525871 4.961630 -0.267506
v -4.525871 4.961630 -0.102277
v -4.148239 4.087146 -0.102271
v -4.148237 4.087146 -0.267506
v -4.525869 4.087146 -0.267506
v -4.525874 4.087147 -0.102271
v -4.072299 4.304178 -0.102271
v -4.072299 4.304179 -0.267506
v -4.148237 4.087146 -0.267506
v -4.148239 4.087146 -0.102271
v -4.324943 21.056084 -0.194217
v -4.296602 21.056087 -0.068894
v -4.296602 22.025564 -0.068894
v -4.324943 22.025564 -0.194217
v -5.001385 21.056087 -0.068894
v -4.973042 21.056087 -0.194217
v -4.973041 22.025566 -0.194217
v -5.001385 22.025564 -0.068888
v -4.423161 21.056087 -0.262119
v -4.423161 22.025566 -0.262119
v -4.489306 22.025566 -0.421360
v -4.489308 21.056091 -0.421360
v -4.432560 22.805199 -0.418436
v -4.432560 22.916088 -0.372642
v -4.471292 22.943073 -0.399534
v -4.471292 22.805199 -0.456510
v -4.865423 22.694309 -0.151487
v -4.865423 22.805199 -0.105704
v -4.826695 22.805199 -0.067637
v -4.826694 22.667324 -0.124619
v -4.324946 15.015754 -0.194204
v -4.296602 15.015751 -0.068881
v -4.296602 15.404240 -0.068881
v -4.324945 15.404240 -0.194204
v -5.001385 15.015751 -0.068881
v -4.973041 15.015751 -0.194204
v -4.973041 15.404243 -0.194204
v -5.001382 15.404240 -0.068881
v -4.874824 15.015751 -0.262106
v -4.808681 15.015751 -0.421346
v -4.808681 15.404243 -0.421347
v -4.874824 15.404240 -0.262106
v -4.423160 15.015751 -0.262112
v -4.423160 15.404243 -0.262112
v -4.489305 15.404243 -0.421347
v -4.489303 15.015751 -0.421346
v 0.494155 0.431252 -0.151544
v 0.383265 0.431252 -0.105762
v 0.383263 22.330135 -0.105790
v 0.494156 22.330132 -0.151572
v 0.272368 0.431252 -0.151544
v 0.272368 22.330132 -0.151572
v 0.707313 7.579720 -0.194209
v 0.735654 7.579720 -0.068892
v 0.735656 7.968213 -0.068879
v 0.707313 7.968212 -0.194203
v 0.030875 7.579721 -0.068886
v 0.059219 7.579721 -0.194203
v 0.059219 7.968212 -0.194203
v 0.030875 7.968212 -0.068892
v 0.157433 7.579720 -0.262105
v 0.223578 7.579720 -0.421345
v 0.223579 7.968212 -0.421339
v 0.157434 7.968213 -0.262098
v 0.609097 7.579720 -0.262098
v 0.609097 7.968212 -0.262098
v 0.542955 7.968212 -0.421345
v 0.542953 7.579720 -0.421345
v 0.707313 0.635332 -0.194214
v 0.735656 0.635332 -0.068890
v 0.735654 1.604810 -0.068897
v 0.707311 1.604810 -0.194220
v 0.030872 0.635332 -0.068897
v 0.059218 0.635332 -0.194214
v 0.059218 1.604810 -0.194220
v 0.030872 1.604810 -0.068897
v 0.609097 0.635332 -0.262122
v 0.609095 1.604811 -0.262128
v 0.542955 1.604810 -0.421356
v 0.542953 0.635332 -0.421356
v 0.166837 -0.028258 -0.418433
v 0.166836 -0.139151 -0.372644
v 0.205566 -0.166131 -0.399536
v 0.205570 -0.028258 -0.456506
v 0.599701 0.082633 -0.151483
v 0.599698 -0.028258 -0.105707
v 0.560970 -0.028258 -0.067639
v 0.560970 0.109616 -0.124622
v 0.707313 21.056087 -0.194223
v 0.735654 21.056087 -0.068888
v 0.735654 22.025564 -0.068888
v 0.707313 22.025564 -0.194217
v 0.030873 21.056084 -0.068894
v 0.059219 21.056087 -0.194223
v 0.059216 22.025566 -0.194224
v 0.030873 22.025564 -0.068894
v 0.157433 21.056087 -0.262119
v 0.223577 21.056084 -0.421354
v 0.223577 22.025566 -0.421360
v 0.157432 22.025566 -0.262119
v 0.609097 21.056091 -0.262119
v 0.609097 22.025566 -0.262119
v 0.542953 22.025564 -0.421354
v 0.542953 21.056087 -0.421354
v 0.599698 22.805197 -0.418436
v 0.599698 22.916088 -0.372642
v 0.560966 22.943073 -0.399534
v 0.560968 22.805197 -0.456510
v 0.166837 22.694309 -0.151481
v 0.166836 22.805197 -0.105698
v 0.205565 22.805199 -0.067649
v 0.205565 22.667320 -0.124613
v 0.707313 15.015751 -0.194204
v 0.735654 15.015751 -0.068881
v 0.735654 15.404240 -0.068881
v 0.707311 15.404240 -0.194204
v 0.030873 15.015751 -0.068887
v 0.059219 15.015751 -0.194204
v 0.059219 15.404240 -0.194204
v 0.030873 15.404243 -0.068887
v 0.157433 15.015748 -0.262106
v 0.223578 15.015751 -0.421346
v 0.223578 15.404243 -0.421340
v 0.157434 15.404240 -0.262106
v 0.609099 15.015748 -0.262112
v 0.609097 15.404240 -0.262112
v 0.542953 15.404240 -0.421347
v 0.542953 15.015751 -0.421346
v -4.103349 2.320387 -0.102271
v -4.103347 2.320387 -0.267505
v -4.103347 2.614446 -0.267505
v -4.103349 2.614446 -0.102271
v -0.108646 2.030175 -0.102271
v -0.108648 2.030175 -0.267493
v -0.184587 2.247209 -0.267505
v -0.184584 2.247208 -0.102271
v 0.268986 2.030175 -0.102271
v 0.268987 2.030175 -0.267505
v -0.108648 2.030175 -0.267493
v -0.108646 2.030175 -0.102271
v 0.268986 2.904659 -0.102277
v 0.268987 2.904660 -0.267505
v 0.268987 2.030175 -0.267505
v 0.268986 2.030175 -0.102271
v -0.108646 2.904659 -0.102271
v -0.108648 2.904659 -0.267505
v 0.268987 2.904660 -0.267505
v 0.268986 2.904659 -0.102277
v -0.184587 2.687626 -0.102271
v -0.184584 2.687626 -0.267505
v -0.108648 2.904659 -0.267505
v -0.108646 2.904659 -0.102271
v -2.162232 4.333018 -0.335535
v -2.162230 4.695179 -0.335535
v -2.518917 4.696081 -0.335535
v -2.518917 4.331239 -0.335535
v -2.162235 3.903327 -0.119691
v -2.162235 3.903327 -0.192737
v -2.518921 3.898822 -0.192713
v -2.518921 3.898822 -0.119691
v -2.518923 5.095520 -0.119691
v -2.518921 5.095520 -0.192738
v -2.162235 5.091887 -0.192738
v -2.162235 5.091887 -0.119691
v -2.162235 3.903327 -0.192737
v -2.162233 4.258246 -0.192738
v -2.518919 4.255876 -0.192738
v -2.518921 3.898822 -0.192713
v -2.518921 5.095520 -0.192738
v -2.518920 4.771400 -0.192738
v -2.162233 4.770012 -0.192713
v -2.162235 5.091887 -0.192738
v -2.176063 2.658765 -0.335535
v -2.176063 2.296604 -0.335523
v -1.819375 2.295701 -0.335511
v -1.819376 2.660545 -0.335511
v -2.176056 3.088456 -0.119690
v -2.176056 3.088456 -0.192725
v -1.819370 3.092962 -0.192725
v -1.819370 3.092961 -0.119690
v -1.819370 1.896263 -0.119690
v -1.819370 1.896263 -0.192725
v -2.176056 1.899897 -0.192725
v -2.176056 1.899896 -0.119678
v -2.176056 3.088456 -0.192725
v -2.176056 2.733537 -0.192725
v -1.819372 2.735907 -0.192725
v -1.819370 3.092962 -0.192725
v -1.819370 1.896263 -0.192725
v -1.819370 2.220383 -0.192713
v -2.176059 2.221772 -0.192713
v -2.176056 1.899897 -0.192725
v 0.900617 10.827659 0.278764
v 0.900619 6.540003 0.278753
v -9.149761 6.540003 0.278765
v -9.149757 10.827658 0.278764
v 0.900617 23.085758 0.278762
v 0.900619 18.152634 0.278763
v -9.149756 18.152634 0.278763
v -9.149759 23.085758 0.278762
v 0.900619 16.633972 0.278763
v 0.900619 12.346320 0.278764
v -9.149759 12.346320 0.278764
v -9.149759 16.633972 0.278763
v -9.149757 0.028043 0.278766
v -9.149757 5.021344 0.278771
v 0.900620 5.021344 0.278759
v 0.900619 0.028043 0.278754
v 0.900619 17.979774 0.567642
v 0.900620 16.806831 0.567643
v -9.149756 16.806831 0.567643
v -9.149756 17.979774 0.567642
v 0.900620 12.173456 0.567643
v 0.900620 11.000520 0.567643
v -9.149756 11.000520 0.567643
v -9.149756 12.173460 0.567643
v -9.149757 5.194206 0.567644
v -9.149756 6.367142 0.567644
v 0.900620 6.367141 0.567644
v 0.900620 5.194207 0.567651
v 0.900619 18.152634 0.278763
v 0.900619 17.979774 0.567642
v -9.149756 17.979774 0.567642
v -9.149756 18.152634 0.278763
v -9.149759 16.633972 0.278763
v -9.149756 16.806831 0.567643
v 0.900620 16.806831 0.567643
v 0.900619 16.633972 0.278763
v 0.900619 12.346320 0.278764
v 0.900620 12.173456 0.567643
v -9.149756 12.173460 0.567643
v -9.149759 12.346320 0.278764
v -9.149757 10.827658 0.278764
v -9.149756 11.000520 0.567643
v 0.900620 11.000520 0.567643
v 0.900617 10.827659 0.278764
v -9.149757 5.021344 0.278771
v -9.149757 5.194206 0.567644
v 0.900620 5.194207 0.567651
v 0.900620 5.021344 0.278759
v 0.900619 6.540003 0.278753
v 0.900620 6.367141 0.567644
v -9.149756 6.367142 0.567644
v -9.149761 6.540003 0.278765
v 1.900620 -0.011779 0.646606
v 0.900621 -0.011779 0.646594
v 0.900620 23.106770 0.646590
v 1.900620 23.106770 0.646603
v -9.336719 23.106770 0.709951
v -9.336720 -0.011781 0.709955
v -9.336708 -0.011781 -0.241846
v -9.336707 23.106770 -0.241849
v -8.913047 -0.011781 0.709967
v -8.913044 23.106770 0.709969
v -8.913044 23.106770 -0.241837
v -8.913045 -0.011781 -0.241833
v -9.336720 -0.011781 0.709955
v -9.336719 23.106770 0.709951
v -8.913044 23.106770 0.709969
v -8.913047 -0.011781 0.709967
v -9.336708 -0.011781 -0.241846
v -8.913045 -0.011781 -0.241833
v -8.913044 23.106770 -0.241837
v -9.336707 23.106770 -0.241849
v -8.913044 23.106770 -0.241837
v -8.913044 23.106770 0.709969
v -9.336719 23.106770 0.709951
v -9.336707 23.106770 -0.241849
v -8.913047 -0.011781 0.709967
v -8.913045 -0.011781 -0.241833
v -9.336708 -0.011781 -0.241846
v -9.336720 -0.011781 0.709955
v -9.149759 23.085758 0.278762
v -9.149759 23.085758 -0.000004
v 0.900617 23.085758 -0.000004
v 0.900617 23.085758 0.278762
v 0.900619 0.028043 0.278754
v 0.900619 0.028043 -0.000012
v -9.149757 0.028043 -0.000000
v -9.149757 0.028043 0.278766
v -4.324943 7.968214 -0.194197
v -4.296598 7.968213 -0.068879
v -4.439892 7.968213 -0.069941
v -4.423160 7.968213 -0.262105
v -4.492166 7.991210 -0.262105
v -4.489305 7.968212 -0.421345
v -4.538099 7.991209 -0.372676
v -4.648993 7.968213 -0.487288
v -4.648993 7.991208 -0.418483
v -4.808682 7.968214 -0.421339
v -4.759884 7.991209 -0.372682
v -4.874824 7.968212 -0.262105
v -4.805820 7.991208 -0.262105
v -4.858088 7.968213 -0.069941
v -5.001382 7.968213 -0.068873
v -4.973042 7.968213 -0.194203
v -4.973041 7.579722 -0.194203
v -5.001380 7.579721 -0.068879
v -4.858090 7.579721 -0.069941
v -4.874823 7.579720 -0.262105
v -4.805822 7.556727 -0.262105
v -4.808681 7.579722 -0.421345
v -4.759884 7.556726 -0.372682
v -4.648997 7.579720 -0.487294
v -4.648993 7.556726 -0.418489
v -4.489303 7.579721 -0.421345
v -4.538099 7.556726 -0.372682
v -4.423160 7.579721 -0.262111
v -4.492166 7.556727 -0.262105
v -4.439895 7.579721 -0.069941
v -4.296602 7.579720 -0.068879
v -4.324945 7.579721 -0.194197
v -4.324945 1.604810 -0.194214
v -4.296600 1.604810 -0.068897
v -4.439898 1.604810 -0.069953
v -4.423161 1.604810 -0.262122
v -4.492169 1.662193 -0.262122
v -4.489308 1.604811 -0.421356
v -4.538101 1.662192 -0.372687
v -4.648996 1.604811 -0.487293
v -4.648993 1.662193 -0.418488
v -4.808683 1.604811 -0.421350
v -4.759884 1.662192 -0.372693
v -4.874824 1.604810 -0.262122
v -4.805820 1.662193 -0.262122
v -4.858090 1.604810 -0.069953
v -5.001385 1.604810 -0.068897
v -4.973042 1.604810 -0.194214
v -4.973041 0.635332 -0.194214
v -5.001384 0.635332 -0.068897
v -4.858090 0.635332 -0.069952
v -4.874824 0.635332 -0.262122
v -4.805821 0.577950 -0.262122
v -4.808679 0.635332 -0.421350
v -4.759884 0.577949 -0.372693
v -4.648996 0.635333 -0.487293
v -4.648994 0.577949 -0.418488
v -4.489308 0.635332 -0.421356
v -4.538098 0.577949 -0.372687
v -4.423161 0.635333 -0.262122
v -4.492167 0.577949 -0.262122
v -4.439900 0.635333 -0.069952
v -4.296602 0.635332 -0.068897
v -4.324943 0.635332 -0.194214
v -4.648994 0.128568 -0.105731
v -4.648994 0.170463 -0.067682
v -4.648993 0.406820 -0.067682
v -4.511120 0.406820 -0.124652
v -4.648994 0.448716 -0.105743
v -4.538104 0.448716 -0.151526
v -4.759884 0.128568 -0.151526
v -4.786868 0.170463 -0.124628
v -4.786867 0.406820 -0.124646
v -4.759886 0.448716 -0.151526
v -4.805820 0.128568 -0.262109
v -4.843974 0.170463 -0.262103
v -4.843976 0.406820 -0.262103
v -4.805820 0.448716 -0.262109
v -4.759883 0.117734 -0.358649
v -4.786868 0.170463 -0.399573
v -4.786867 0.406820 -0.399573
v -4.759884 0.448716 -0.372681
v -4.072299 4.304179 -0.267506
v -4.072299 4.304178 -0.102271
v -2.021362 4.351259 -0.102271
v -2.021359 4.351259 -0.267506
v -1.782406 4.356889 -0.102271
v -1.782406 4.356889 -0.267506
v -0.153534 4.377359 -0.102271
v -1.782402 4.420756 -0.486597
v -0.153535 4.377359 -0.267506
v -4.324943 22.025564 -0.194217
v -4.296602 22.025564 -0.068894
v -4.439897 22.025566 -0.069950
v -4.423161 22.025566 -0.262119
v -4.492169 22.082951 -0.262119
v -4.489306 22.025566 -0.421360
v -4.538103 22.082951 -0.372690
v -4.648996 22.025570 -0.487296
v -4.648993 22.082947 -0.418497
v -4.808681 22.025564 -0.421354
v -4.759884 22.082951 -0.372696
v -4.874826 22.025566 -0.262119
v -4.805821 22.082951 -0.262119
v -4.858091 22.025566 -0.069950
v -5.001385 22.025564 -0.068888
v -4.973041 22.025566 -0.194217
v -4.973042 21.056087 -0.194217
v -5.001385 21.056087 -0.068894
v -4.858095 21.056091 -0.069950
v -4.874824 21.056087 -0.262119
v -4.805820 20.998707 -0.262119
v -4.808679 21.056087 -0.421354
v -4.759884 20.998707 -0.372696
v -4.648996 21.056091 -0.487296
v -4.648994 20.998707 -0.418491
v -4.489308 21.056091 -0.421360
v -4.538103 20.998707 -0.372696
v -4.423161 21.056087 -0.262119
v -4.492169 20.998709 -0.262119
v -4.439897 21.056087 -0.069950
v -4.296602 21.056087 -0.068894
v -4.324943 21.056084 -0.194217
v -4.805810 22.648369 -0.262107
v -4.759877 22.648373 -0.151530
v -4.786857 22.606480 -0.124637
v -4.843973 22.606480 -0.262107
v -4.786859 22.370121 -0.124650
v -4.843969 22.370121 -0.262107
v -4.759877 22.328224 -0.151530
v -4.805812 22.328224 -0.262107
v -4.648988 22.648373 -0.105735
v -4.648990 22.606480 -0.067692
v -4.648988 22.370121 -0.067692
v -4.648988 22.328224 -0.105747
v -4.538096 22.648373 -0.151530
v -4.511113 22.606482 -0.124637
v -4.511111 22.370121 -0.124650
v -4.538096 22.328222 -0.151530
v -4.492161 22.648373 -0.262101
v -4.454005 22.606480 -0.262101
v -4.454005 22.370121 -0.262101
v -4.492161 22.328224 -0.262101
v -4.538099 22.659206 -0.358652
v -4.511113 22.606480 -0.399576
v -4.511111 22.370121 -0.399576
v -4.538096 22.328222 -0.372672
v -4.759878 22.659206 -0.358652
v -4.786857 22.606482 -0.399570
v -4.786857 22.370121 -0.399570
v -4.759878 22.328228 -0.372672
v -4.324945 15.404240 -0.194204
v -4.296602 15.404240 -0.068881
v -4.439895 15.404243 -0.069943
v -4.423160 15.404243 -0.262112
v -4.492166 15.427238 -0.262106
v -4.489305 15.404243 -0.421347
v -4.538104 15.427238 -0.372677
v -4.648996 15.404243 -0.487295
v -4.648994 15.427238 -0.418484
v -4.808681 15.404243 -0.421347
v -4.759884 15.427238 -0.372683
v -4.874824 15.404240 -0.262106
v -4.805820 15.427235 -0.262106
v -4.858091 15.404243 -0.069943
v -5.001382 15.404240 -0.068881
v -4.973041 15.404243 -0.194204
v -4.973041 15.015751 -0.194204
v -5.001385 15.015751 -0.068881
v -4.858091 15.015754 -0.069943
v -4.874824 15.015751 -0.262106
v -4.805820 14.992759 -0.262106
v -4.808681 15.015751 -0.421346
v -4.759884 14.992759 -0.372683
v -4.648996 15.015751 -0.487295
v -4.648994 14.992759 -0.418484
v -4.489303 15.015751 -0.421346
v -4.538104 14.992759 -0.372677
v -4.423160 15.015751 -0.262112
v -4.492166 14.992759 -0.262106
v -4.439895 15.015751 -0.069943
v -4.296602 15.015751 -0.068881
v -4.324946 15.015754 -0.194204
v 0.707313 7.968212 -0.194203
v 0.735656 7.968213 -0.068879
v 0.592363 7.968214 -0.069941
v 0.609097 7.968212 -0.262098
v 0.540094 7.991208 -0.262105
v 0.542955 7.968212 -0.421345
v 0.494158 7.991209 -0.372676
v 0.383265 7.968213 -0.487294
v 0.383266 7.991209 -0.418483
v 0.223579 7.968212 -0.421339
v 0.272376 7.991208 -0.372682
v 0.157434 7.968213 -0.262098
v 0.226439 7.991208 -0.262098
v 0.174170 7.968213 -0.069929
v 0.030875 7.968212 -0.068892
v 0.059219 7.968212 -0.194203
v 0.059219 7.579721 -0.194203
v 0.030875 7.579721 -0.068886
v 0.174170 7.579720 -0.069948
v 0.157433 7.579720 -0.262105
v 0.226438 7.556726 -0.262117
v 0.223578 7.579720 -0.421345
v 0.272374 7.556726 -0.372682
v 0.383265 7.579721 -0.487294
v 0.383265 7.556728 -0.418489
v 0.542953 7.579720 -0.421345
v 0.494156 7.556726 -0.372682
v 0.609097 7.579720 -0.262098
v 0.540089 7.556727 -0.262105
v 0.592365 7.579720 -0.069948
v 0.735654 7.579720 -0.068892
v 0.707313 7.579720 -0.194209
v 0.707311 1.604810 -0.194220
v 0.735654 1.604810 -0.068897
v 0.592361 1.604810 -0.069953
v 0.609095 1.604811 -0.262128
v 0.540089 1.662193 -0.262122
v 0.542955 1.604810 -0.421356
v 0.494156 1.662193 -0.372693
v 0.383265 1.604811 -0.487305
v 0.383266 1.662193 -0.418506
v 0.223576 1.604811 -0.421356
v 0.272373 1.662192 -0.372693
v 0.157433 1.604811 -0.262122
v 0.226437 1.662193 -0.262122
v 0.174169 1.604810 -0.069959
v 0.030872 1.604810 -0.068897
v 0.059218 1.604810 -0.194220
v 0.059218 0.635332 -0.194214
v 0.030872 0.635332 -0.068897
v 0.174169 0.635333 -0.069959
v 0.157432 0.635333 -0.262122
v 0.226438 0.577949 -0.262128
v 0.223578 0.635332 -0.421350
v 0.272373 0.577949 -0.372693
v 0.383265 0.635332 -0.487299
v 0.383266 0.577949 -0.418500
v 0.542953 0.635332 -0.421356
v 0.494156 0.577950 -0.372693
v 0.609097 0.635332 -0.262122
v 0.540089 0.577949 -0.262122
v 0.592361 0.635333 -0.069952
v 0.735656 0.635332 -0.068890
v 0.707313 0.635332 -0.194214
v 0.540092 0.128568 -0.262103
v 0.494156 0.128568 -0.151526
v 0.521135 0.170463 -0.124640
v 0.578247 0.170463 -0.262103
v 0.521137 0.406820 -0.124652
v 0.578247 0.406820 -0.262103
v 0.494156 0.448716 -0.151520
v 0.540090 0.448716 -0.262103
v 0.383266 0.128568 -0.105737
v 0.383266 0.170463 -0.067682
v 0.383266 0.406820 -0.067688
v 0.383266 0.448716 -0.105750
v 0.272374 0.128568 -0.151526
v 0.245388 0.170463 -0.124640
v 0.245389 0.406820 -0.124652
v 0.272371 0.448716 -0.151526
v 0.226438 0.128568 -0.262103
v 0.188286 0.170463 -0.262103
v 0.188285 0.406820 -0.262103
v 0.226438 0.448716 -0.262103
v 0.272377 0.117734 -0.358649
v 0.245391 0.170463 -0.399573
v 0.245391 0.406820 -0.399573
v 0.272371 0.448716 -0.372675
v 0.494156 0.117734 -0.358649
v 0.521133 0.170463 -0.399579
v 0.521135 0.406820 -0.399579
v 0.494156 0.448716 -0.372675
v 0.707313 22.025564 -0.194217
v 0.735654 22.025564 -0.068888
v 0.592361 22.025564 -0.069950
v 0.609097 22.025566 -0.262119
v 0.540089 22.082947 -0.262119
v 0.542953 22.025564 -0.421354
v 0.494156 22.082951 -0.372696
v 0.383265 22.025566 -0.487302
v 0.383266 22.082951 -0.418497
v 0.223577 22.025566 -0.421360
v 0.272371 22.082951 -0.372696
v 0.157432 22.025566 -0.262119
v 0.226439 22.082951 -0.262125
v 0.174169 22.025566 -0.069956
v 0.030873 22.025564 -0.068894
v 0.059216 22.025566 -0.194224
v 0.059219 21.056087 -0.194223
v 0.030873 21.056084 -0.068894
v 0.174168 21.056091 -0.069956
v 0.157433 21.056087 -0.262119
v 0.226438 20.998707 -0.262119
v 0.223577 21.056084 -0.421354
v 0.272373 20.998707 -0.372690
v 0.383266 21.056091 -0.487302
v 0.383267 20.998707 -0.418497
v 0.542953 21.056087 -0.421354
v 0.494156 20.998707 -0.372696
v 0.609097 21.056091 -0.262119
v 0.540089 20.998709 -0.262119
v 0.592361 21.056091 -0.069950
v 0.735654 21.056087 -0.068888
v 0.707313 21.056087 -0.194223
v 0.226442 22.648373 -0.262101
v 0.272379 22.648373 -0.151530
v 0.245397 22.606480 -0.124637
v 0.188288 22.606480 -0.262101
v 0.245397 22.370121 -0.124650
v 0.188290 22.370117 -0.262101
v 0.272379 22.328228 -0.151530
v 0.226445 22.328224 -0.262101
v 0.383270 22.648373 -0.105735
v 0.383272 22.606476 -0.067692
v 0.383272 22.370121 -0.067692
v 0.383272 22.328224 -0.105747
v 0.494160 22.648373 -0.151530
v 0.521143 22.606482 -0.124637
v 0.521145 22.370121 -0.124650
v 0.494160 22.328224 -0.151530
v 0.540096 22.648373 -0.262101
v 0.578252 22.606480 -0.262101
v 0.578254 22.370117 -0.262101
v 0.540096 22.328222 -0.262107
v 0.494160 22.659203 -0.358652
v 0.521145 22.606480 -0.399570
v 0.521145 22.370121 -0.399576
v 0.494163 22.328222 -0.372684
v 0.272381 22.659203 -0.358652
v 0.245399 22.606476 -0.399570
v 0.245399 22.370117 -0.399570
v 0.272381 22.328224 -0.372678
v 0.707311 15.404240 -0.194204
v 0.735654 15.404240 -0.068881
v 0.592363 15.404240 -0.069943
v 0.609097 15.404240 -0.262112
v 0.540092 15.427235 -0.262106
v 0.542953 15.404240 -0.421347
v 0.494158 15.427238 -0.372683
v 0.383263 15.404243 -0.487295
v 0.383266 15.427235 -0.418484
v 0.223578 15.404243 -0.421340
v 0.272374 15.427235 -0.372683
v 0.157434 15.404240 -0.262106
v 0.226439 15.427235 -0.262112
v 0.174170 15.404243 -0.069943
v 0.030873 15.404243 -0.068887
v 0.059219 15.404240 -0.194204
v 0.059219 15.015751 -0.194204
v 0.030873 15.015751 -0.068887
v 0.174170 15.015751 -0.069943
v 0.157433 15.015748 -0.262106
v 0.226440 14.992756 -0.262106
v 0.223578 15.015751 -0.421346
v 0.272374 14.992756 -0.372683
v 0.383263 15.015751 -0.487295
v 0.383263 14.992759 -0.418490
v 0.542953 15.015751 -0.421346
v 0.494156 14.992759 -0.372677
v 0.609099 15.015748 -0.262112
v 0.540092 14.992756 -0.262106
v 0.592363 15.015751 -0.069943
v 0.735654 15.015751 -0.068881
v 0.707313 15.015751 -0.194204
v -0.184584 2.687626 -0.267505
v -0.184587 2.687626 -0.102271
v -2.235521 2.640546 -0.102271
v -2.235524 2.640546 -0.267505
v -2.474479 2.634915 -0.102271
v -2.474479 2.634915 -0.267505
v -4.103349 2.614446 -0.102271
v -2.474478 2.571051 -0.486597
v -4.103347 2.614446 -0.267505
v 0.900620 23.106770 -0.127006
v 1.800619 23.106770 -0.126994
v 1.900620 23.106766 -0.027280
v 0.900620 23.106770 0.646590
v 1.900620 23.106770 0.646603
v -4.805824 22.330132 -0.262150
v -4.805820 0.431252 -0.262134
v -4.759886 22.330132 -0.372721
v -4.759887 0.431252 -0.372699
v -4.648994 22.330132 -0.418522
v -4.648994 0.431252 -0.418506
v -4.648993 7.968213 -0.487288
v -4.648997 7.579720 -0.487294
v -4.874824 0.635332 -0.262122
v -4.808679 0.635332 -0.421350
v -4.808683 1.604811 -0.421350
v -4.874824 1.604810 -0.262122
v -4.648996 1.604811 -0.487293
v -4.648996 0.635333 -0.487293
v -4.489308 1.604811 -0.421356
v -4.489308 0.635332 -0.421356
v -4.648996 0.170463 -0.456525
v -4.648996 0.111482 -0.388336
v -4.511119 0.170463 -0.399579
v -4.538103 0.117734 -0.358643
v -4.454013 0.406820 -0.262103
v -4.492166 0.448716 -0.262103
v -4.511120 0.406820 -0.399579
v -4.538103 0.448716 -0.372675
v -4.826690 -0.223242 -0.262054
v -4.826689 -0.166131 -0.124615
v -4.471286 -0.166131 -0.124615
v -4.471289 -0.223242 -0.262061
v -4.826690 -0.166131 -0.399530
v -4.471287 -0.166131 -0.399530
v -4.471292 -0.028258 -0.067639
v -4.826692 -0.028258 -0.067639
v -4.471289 0.109616 -0.124615
v -4.826690 0.109616 -0.124615
v -4.471289 0.166724 -0.262061
v -4.826690 0.166724 -0.262067
v -4.471289 0.109616 -0.399530
v -4.826690 0.109616 -0.399530
v -4.865419 -0.139151 -0.151483
v -4.865420 -0.028258 -0.105707
v -4.826692 -0.028258 -0.067639
v -4.826689 -0.166131 -0.124615
v -4.865422 -0.185084 -0.262054
v -4.826690 -0.223242 -0.262054
v -4.826690 0.109616 -0.124615
v -4.865420 0.082633 -0.151483
v -4.826690 0.166724 -0.262067
v -4.865420 0.128567 -0.262061
v -4.826690 0.109616 -0.399530
v -4.865420 0.082633 -0.372644
v -4.432554 -0.185084 -0.262061
v -4.432560 -0.139151 -0.372644
v -4.471287 -0.166131 -0.399530
v -4.471289 -0.223242 -0.262061
v -4.432558 -0.139151 -0.151483
v -4.471286 -0.166131 -0.124615
v -4.471289 -0.028258 -0.456512
v -4.432560 -0.028258 -0.418433
v -4.471289 0.109616 -0.399530
v -4.432560 0.082633 -0.372644
v -4.471289 0.166724 -0.262061
v -4.432558 0.128567 -0.262061
v -4.148239 4.961630 -0.267506
v -4.525871 4.961630 -0.267506
v -4.525869 4.087146 -0.267506
v -4.148237 4.087146 -0.267506
v -4.072300 4.744597 -0.267512
v -4.072299 4.304179 -0.267506
v -2.021359 4.697517 -0.267506
v -2.021359 4.351259 -0.267506
v -1.782406 4.622267 -0.486597
v -1.782402 4.420756 -0.486597
v -0.153537 4.671418 -0.267506
v -0.153535 4.377359 -0.267506
v -4.874824 21.056087 -0.262119
v -4.808679 21.056087 -0.421354
v -4.808681 22.025564 -0.421354
v -4.874826 22.025566 -0.262119
v -4.648996 22.025570 -0.487296
v -4.648996 21.056091 -0.487296
v -4.648990 22.606480 -0.456528
v -4.648988 22.665459 -0.388346
v -4.471293 23.000183 -0.262064
v -4.471292 22.943073 -0.124619
v -4.826694 22.943073 -0.124619
v -4.826694 23.000183 -0.262064
v -4.471292 22.943073 -0.399534
v -4.826694 22.943073 -0.399534
v -4.826695 22.805199 -0.067637
v -4.471290 22.805199 -0.067643
v -4.826694 22.667324 -0.124619
v -4.471293 22.667324 -0.124619
v -4.826694 22.610214 -0.262064
v -4.471293 22.610218 -0.262064
v -4.826695 22.667328 -0.399534
v -4.471292 22.667324 -0.399534
v -4.432559 22.916088 -0.151481
v -4.432560 22.805199 -0.105704
v -4.471290 22.805199 -0.067643
v -4.471292 22.943073 -0.124619
v -4.432560 22.962025 -0.262070
v -4.471293 23.000183 -0.262064
v -4.471293 22.667324 -0.124619
v -4.432560 22.694309 -0.151481
v -4.471293 22.610218 -0.262064
v -4.432560 22.648373 -0.262070
v -4.471292 22.667324 -0.399534
v -4.432562 22.694311 -0.372642
v -4.865423 22.962027 -0.262064
v -4.865422 22.916088 -0.372642
v -4.826694 22.943073 -0.399534
v -4.826694 23.000183 -0.262064
v -4.865422 22.916088 -0.151487
v -4.826694 22.943073 -0.124619
v -4.826694 22.805199 -0.456516
v -4.865423 22.805199 -0.418436
v -4.826695 22.667328 -0.399534
v -4.865422 22.694309 -0.372642
v -4.826694 22.610214 -0.262064
v -4.865423 22.648373 -0.262064
v -4.648996 15.404243 -0.487295
v -4.648996 15.015751 -0.487295
v 0.540089 0.431252 -0.262134
v 0.540087 22.330130 -0.262150
v 0.494156 0.431252 -0.372699
v 0.494153 22.330135 -0.372721
v 0.226437 22.330132 -0.262150
v 0.226435 0.431252 -0.262134
v 0.272367 22.330135 -0.372721
v 0.272373 0.431252 -0.372699
v 0.383262 22.330132 -0.418528
v 0.383263 0.431252 -0.418500
v 0.383265 7.968213 -0.487294
v 0.383265 7.579721 -0.487294
v 0.157432 0.635333 -0.262122
v 0.223578 0.635332 -0.421350
v 0.223576 1.604811 -0.421356
v 0.157433 1.604811 -0.262122
v 0.383265 1.604811 -0.487305
v 0.383265 0.635332 -0.487299
v 0.383265 0.170463 -0.456525
v 0.383265 0.111482 -0.388348
v 0.205571 -0.223242 -0.262061
v 0.205570 -0.166131 -0.124615
v 0.560970 -0.166131 -0.124622
v 0.560973 -0.223242 -0.262054
v 0.205566 -0.166131 -0.399536
v 0.560973 -0.166131 -0.399536
v 0.560970 -0.028258 -0.067639
v 0.205568 -0.028258 -0.067639
v 0.560970 0.109616 -0.124622
v 0.205568 0.109616 -0.124615
v 0.560973 0.166724 -0.262061
v 0.205570 0.166724 -0.262061
v 0.560970 0.109616 -0.399536
v 0.205568 0.109616 -0.399536
v 0.166839 -0.139151 -0.151477
v 0.166836 -0.028258 -0.105707
v 0.205568 -0.028258 -0.067639
v 0.205570 -0.166131 -0.124615
v 0.166839 -0.185084 -0.262061
v 0.205571 -0.223242 -0.262061
v 0.205568 0.109616 -0.124615
v 0.166837 0.082633 -0.151483
v 0.205570 0.166724 -0.262061
v 0.166837 0.128567 -0.262061
v 0.205568 0.109616 -0.399536
v 0.166836 0.082633 -0.372644
v 0.599698 -0.185084 -0.262061
v 0.599700 -0.139151 -0.372644
v 0.560973 -0.166131 -0.399536
v 0.560973 -0.223242 -0.262054
v 0.599700 -0.139151 -0.151483
v 0.560970 -0.166131 -0.124622
v 0.560970 -0.028258 -0.456512
v 0.599698 -0.028258 -0.418433
v 0.560970 0.109616 -0.399536
v 0.599698 0.082633 -0.372644
v 0.560973 0.166724 -0.262061
v 0.599698 0.128567 -0.262061
v 0.383265 22.025566 -0.487302
v 0.383266 21.056091 -0.487302
v 0.383272 22.606480 -0.456534
v 0.383270 22.665459 -0.388340
v 0.560968 23.000179 -0.262058
v 0.560970 22.943069 -0.124619
v 0.205563 22.943073 -0.124619
v 0.205565 23.000183 -0.262064
v 0.560966 22.943073 -0.399534
v 0.205565 22.943075 -0.399534
v 0.205565 22.805199 -0.067649
v 0.560966 22.805199 -0.067643
v 0.205565 22.667320 -0.124613
v 0.560970 22.667324 -0.124619
v 0.205565 22.610218 -0.262064
v 0.560968 22.610214 -0.262058
v 0.205564 22.667324 -0.399534
v 0.560966 22.667324 -0.399534
v 0.599698 22.916088 -0.151481
v 0.599697 22.805199 -0.105704
v 0.560966 22.805199 -0.067643
v 0.560970 22.943069 -0.124619
v 0.599697 22.962025 -0.262064
v 0.560968 23.000179 -0.262058
v 0.560970 22.667324 -0.124619
v 0.599698 22.694305 -0.151487
v 0.560968 22.610214 -0.262058
v 0.599698 22.648373 -0.262064
v 0.560966 22.667324 -0.399534
v 0.599698 22.694305 -0.372642
v 0.166836 22.962025 -0.262064
v 0.166837 22.916088 -0.372636
v 0.205565 22.943075 -0.399534
v 0.205565 23.000183 -0.262064
v 0.166837 22.916088 -0.151481
v 0.205563 22.943073 -0.124619
v 0.205565 22.805197 -0.456510
v 0.166832 22.805202 -0.418430
v 0.205564 22.667324 -0.399534
v 0.166836 22.694309 -0.372636
v 0.205565 22.610218 -0.262064
v 0.166836 22.648376 -0.262058
v 0.383263 15.404243 -0.487295
v 0.383263 15.015751 -0.487295
v -0.108648 2.030175 -0.267493
v 0.268987 2.030175 -0.267505
v 0.268987 2.904660 -0.267505
v -0.108648 2.904659 -0.267505
v -0.184587 2.247209 -0.267505
v -0.184584 2.687626 -0.267505
v -2.235524 2.294287 -0.267505
v -2.235524 2.640546 -0.267505
v -2.474479 2.369538 -0.486597
v -2.474478 2.571051 -0.486597
v -4.103347 2.320387 -0.267505
v -4.103347 2.614446 -0.267505
v 1.800621 -0.011779 -0.126990
v 0.900623 -0.011779 -0.126996
v 0.900621 -0.011779 0.646594
v 1.900620 -0.011779 0.646606
v 1.900620 -0.011779 -0.027283
v -4.423161 0.635333 -0.262122
v -4.423161 1.604810 -0.262122
v -4.471289 -0.028258 -0.456512
v -4.826690 -0.028258 -0.456512
v -4.072299 4.744597 -0.102271
v -4.072300 4.744597 -0.267512
v -2.021359 4.697517 -0.267506
v -2.021360 4.697517 -0.102271
v -1.782406 4.691887 -0.267506
v -1.782406 4.622267 -0.486597
v -1.782406 4.691887 -0.102271
v -0.153537 4.671418 -0.267506
v -0.153535 4.671417 -0.102277
v -4.826694 22.805199 -0.456516
v -4.471292 22.805199 -0.456510
v 0.560970 -0.028258 -0.456512
v 0.205570 -0.028258 -0.456506
v 0.205565 22.805197 -0.456510
v 0.560968 22.805197 -0.456510
v -0.184584 2.247208 -0.102271
v -0.184587 2.247209 -0.267505
v -2.235524 2.294287 -0.267505
v -2.235524 2.294287 -0.102271
v -2.474478 2.299917 -0.267505
v -2.474479 2.369538 -0.486597
v -2.474479 2.299917 -0.102271
v -4.103347 2.320387 -0.267505
v -4.103349 2.320387 -0.102271
v -2.518921 3.898822 -0.119691
v -2.518921 3.898822 -0.192713
v -2.518919 4.255876 -0.192738
v -2.518920 4.513667 -0.119666
v -2.518921 5.095520 -0.192738
v -2.518923 5.095520 -0.119691
v -2.518920 4.771400 -0.192738
v -2.518917 4.331239 -0.335535
v -2.518917 4.696081 -0.335535
v -2.162235 5.091887 -0.119691
v -2.162235 5.091887 -0.192738
v -2.162233 4.770012 -0.192713
v -2.162235 4.514102 -0.119642
v -2.162235 3.903327 -0.192737
v -2.162235 3.903327 -0.119691
v -2.162233 4.258246 -0.192738
v -2.162230 4.695179 -0.335535
v -2.162232 4.333018 -0.335535
v -1.819370 3.092961 -0.119690
v -1.819370 3.092962 -0.192725
v -1.819372 2.735907 -0.192725
v -1.819372 2.478116 -0.119642
v -1.819370 1.896263 -0.192725
v -1.819370 1.896263 -0.119690
v -1.819370 2.220383 -0.192713
v -1.819376 2.660545 -0.335511
v -1.819375 2.295701 -0.335511
v -2.176056 1.899896 -0.119678
v -2.176056 1.899897 -0.192725
v -2.176059 2.221772 -0.192713
v -2.176056 2.477681 -0.119654
v -2.176056 3.088456 -0.192725
v -2.176056 3.088456 -0.119690
v -2.176056 2.733537 -0.192725
v -2.176063 2.296604 -0.335523
v -2.176063 2.658765 -0.335535
v -4.648994 0.448716 -0.418469
v -4.648994 0.406820 -0.456537
v -4.648988 22.328224 -0.418473
v -4.648988 22.370117 -0.456540
v 0.383266 0.448716 -0.418475
v 0.383266 0.406820 -0.456543
v 0.383272 22.328224 -0.418485
v 0.383272 22.370117 -0.456547
vn 0.0039 -0.0039 1.0000
vn -1.0000 -0.0039 -0.0039
vn 0.7058 -0.0031 -0.7084
vn 0.7058 -0.0029 -0.7084
vn 0.0030 -0.0030 -1.0000
vn 0.7059 -0.0028 -0.7084
vn 0.0029 -0.0029 -1.0000
vn -0.7029 -0.0029 -0.7112
vn -0.7029 -0.0029 -0.7113
vn -1.0000 -0.0039 -0.0040
vn 0.0040 -0.0040 -1.0000
vn 0.0040 -0.8601 0.5101
vn 0.0029 -0.0030 -1.0000
vn 0.0039 -0.8601 0.5101
vn -0.7733 -0.0049 -0.6340
vn -0.7733 -0.0049 -0.6341
vn -0.8264 -0.0030 -0.5630
vn 1.0000 -0.0031 -0.0031
vn -0.8265 -0.0030 -0.5630
vn -0.8264 -0.0031 -0.5631
vn -0.7734 -0.0048 -0.6339
vn -0.7733 -0.0048 -0.6340
vn 1.0000 -0.0040 -0.0040
vn 0.0029 1.0000 -0.0029
vn 0.0028 1.0000 -0.0028
vn 0.0028 0.7059 0.7083
vn 0.0029 0.7031 -0.7111
vn 0.0029 1.0000 -0.0028
vn -0.7028 -0.0030 -0.7114
vn -0.7028 -0.0031 -0.7114
vn -1.0000 -0.0030 -0.0031
vn 0.7772 -0.0047 -0.6293
vn 0.7771 -0.0050 -0.6293
vn 0.8284 -0.0031 -0.5602
vn 0.0031 -0.0030 1.0000
vn 0.0030 -0.0030 1.0000
vn -0.7058 -0.0030 0.7085
vn -0.7058 -0.0030 0.7084
vn 0.8283 -0.0031 -0.5602
vn 0.9746 -0.0040 -0.2238
vn 0.7771 -0.0047 -0.6293
vn 0.7771 -0.0051 -0.6294
vn 0.8283 -0.0032 -0.5602
vn 0.0029 0.7059 0.7083
vn 0.0029 -1.0000 -0.0029
vn 0.0029 -1.0000 -0.0028
vn 0.0029 -0.7088 0.7054
vn 0.5275 0.6729 0.5186
vn 0.6678 0.3345 0.6650
vn 0.9426 0.3339 -0.0022
vn 0.7466 0.6652 -0.0111
vn 0.7025 -0.0029 -0.7117
vn 0.8865 -0.0026 -0.4626
vn 0.8852 -0.3310 -0.3269
vn 0.7007 -0.5040 -0.5050
vn -0.7015 0.5035 0.5044
vn -0.8872 0.3279 0.3246
vn -0.8876 -0.0026 0.4607
vn -0.7021 -0.0028 0.7120
vn 0.0039 0.8580 0.5136
vn 0.0038 0.8580 0.5136
vn 0.0040 -1.0000 -0.0040
vn -0.9742 -0.0039 -0.2255
vn 0.7058 -0.0032 -0.7084
vn 0.7058 -0.0028 -0.7084
vn 0.9456 0.3254 -0.0040
vn 0.8284 -0.0030 -0.5602
vn 0.9746 -0.0040 -0.2239
vn 0.7058 -0.0030 -0.7084
vn 0.7059 -0.0028 -0.7083
vn -0.9742 -0.0039 -0.2254
vn 0.9431 -0.3324 -0.0039
vn 0.9431 -0.3325 -0.0039
vn 0.9431 -0.3325 -0.0040
vn 0.0039 1.0000 -0.0039
vn 0.7024 -0.0030 -0.7118
vn 0.8865 -0.0027 -0.4627
vn 0.8854 -0.3305 -0.3269
vn 0.7010 -0.5039 -0.5047
vn -0.8872 0.3279 0.3245
vn -0.8876 -0.0027 0.4606
vn -0.7022 -0.0029 0.7120
vn -0.7733 -0.0048 -0.6341
vn 0.7771 -0.0051 -0.6293
vn 0.8883 0.3264 0.3230
vn 0.8868 -0.3313 0.3223
vn 0.8868 0.3263 -0.3273
vn 0.0029 -0.0029 1.0000
vn 0.0029 -0.7089 0.7053
vn -0.9742 -0.0039 -0.2256
vn -0.8264 -0.0030 -0.5631
vn 0.9746 -0.0039 -0.2239
vn 0.9746 -0.0039 -0.2238
vn -0.9439 0.3302 0.0029
vn -0.9406 -0.3394 -0.0023
vn -0.6642 -0.3396 0.6660
vn -0.6652 0.3354 0.6671
vn 0.0261 -0.9997 -0.0040
vn 0.0266 -0.9980 -0.0580
vn 0.0267 -0.9996 -0.0039
vn 0.0262 -0.9996 -0.0040
vn 0.0039 -0.8566 -0.5159
vn 0.0039 -0.8566 -0.5160
vn 0.0040 -0.8566 -0.5159
vn 0.0031 -0.0031 1.0000
vn -0.0057 1.0000 -0.0039
vn -0.0056 1.0000 -0.0039
vn -0.0164 -0.9999 -0.0039
vn -0.0054 -1.0000 -0.0039
vn -0.0056 -0.9995 -0.0299
vn -0.0162 -0.9870 -0.1601
vn -0.6994 -0.0031 -0.7147
vn -0.8854 -0.0027 -0.4649
vn -0.8857 0.3274 -0.3291
vn -0.6999 0.5015 -0.5086
vn -0.4850 0.8719 -0.0679
vn -0.6351 0.7590 -0.1434
vn -0.4530 0.7663 -0.4557
vn -0.4538 0.7662 -0.4549
vn 0.0039 0.8545 -0.5194
vn -0.7732 -0.0049 -0.6341
vn -0.6492 0.3406 -0.6801
vn -0.6620 -0.3387 -0.6685
vn 1.0000 -0.0039 -0.0039
vn -0.6977 -0.5060 -0.5072
vn -0.8840 -0.3325 -0.3286
vn -0.8854 -0.0028 -0.4648
vn -0.6994 -0.0032 -0.7147
vn -0.8853 -0.0030 -0.4650
vn -0.8858 0.3273 -0.3290
vn -0.6997 0.5016 -0.5087
vn 0.0038 -0.0039 1.0000
vn 0.7771 -0.0046 -0.6293
vn 0.8883 0.3264 0.3231
vn 0.8868 -0.3313 0.3222
vn 0.8854 -0.3306 -0.3269
vn 0.8869 0.3260 -0.3274
vn -0.7030 -0.0029 -0.7112
vn -1.0000 -0.0031 -0.0031
vn -1.0000 -0.0031 -0.0032
vn 0.0028 -0.0028 -1.0000
vn 0.9412 -0.3380 -0.0023
vn 0.6647 -0.3377 -0.6665
vn 0.6596 0.3339 -0.6734
vn 0.0028 0.7032 -0.7110
vn 0.0030 0.7030 -0.7112
vn -0.0017 0.5127 -0.8585
vn -0.0027 0.5149 -0.8573
vn 0.0004 -0.5173 -0.8558
vn -0.0003 -0.5166 -0.8562
vn 0.0028 -1.0000 -0.0027
vn 0.3361 -0.0056 -0.9418
vn 0.3415 -0.0055 -0.9399
vn 0.0039 -0.0039 -1.0000
vn 0.0041 -0.0040 -1.0000
vn -0.0026 0.5113 -0.8594
vn -0.0011 0.5135 -0.8581
vn 0.0023 -0.5142 -0.8577
vn 0.0010 -0.5212 -0.8534
vn 0.0132 -0.5222 -0.8527
vn 0.0152 -0.5207 -0.8536
vn 0.0079 -0.5186 -0.8550
vn 0.0066 -0.5163 -0.8564
vn 0.0030 0.7029 -0.7113
vn 0.0039 -0.0040 -1.0000
vn 0.0038 -0.0041 -1.0000
vn 0.0040 -0.0041 -1.0000
vn 0.0116 0.5121 -0.8589
vn 0.0098 0.5055 -0.8627
vn 0.0040 -0.0039 -1.0000
vn 0.0045 0.5136 -0.8580
vn 0.0056 0.5128 -0.8585
vn 0.9239 -0.0032 -0.3826
vn 0.9239 -0.0028 -0.3827
vn -0.0163 0.9892 -0.1455
vn -0.0057 0.9996 -0.0260
vn -0.0055 1.0000 -0.0039
vn -0.0165 0.9999 -0.0040
vn 0.0164 0.9999 -0.0039
vn 0.6506 -0.3435 -0.6772
vn 0.6658 0.3336 -0.6675
vn 0.9430 -0.3329 0.0030
vn -0.0085 -1.0000 -0.0039
vn -0.0085 -1.0000 -0.0040
vn 0.0683 0.9977 -0.0011
vn 0.2356 0.9712 -0.0351
vn 0.3197 0.9450 -0.0684
vn 0.2310 0.9450 -0.2315
vn 0.2303 0.9451 -0.2319
vn -0.2243 0.9466 -0.2318
vn -0.2237 0.9466 -0.2322
vn 0.0035 0.9468 -0.3218
vn 0.0036 0.9468 -0.3218
vn 0.2304 0.9450 -0.2319
vn 0.3197 0.9451 -0.0684
vn 0.2355 0.9712 -0.0351
vn 0.0039 1.0000 -0.0040
vn -0.0600 0.9982 -0.0011
vn -0.3131 0.9472 -0.0686
vn -0.2278 0.9731 -0.0352
vn -0.0594 -0.9982 -0.0012
vn 0.0039 -1.0000 -0.0039
vn -0.2259 -0.9735 -0.0350
vn -0.3109 -0.9480 -0.0681
vn -0.2278 0.9731 -0.0351
vn -0.3131 0.9473 -0.0686
vn 0.0036 0.9468 -0.3219
vn 0.2309 0.9450 -0.2315
vn 1.0000 -0.0040 -0.0039
vn -0.2238 0.9466 -0.2323
vn -0.0600 0.9982 -0.0012
vn 0.2338 -0.9717 -0.0350
vn 0.1538 0.9881 0.0061
vn 0.0040 1.0000 -0.0039
vn -0.4814 -0.8739 -0.0674
vn -0.6318 -0.7619 -0.1427
vn -0.1434 -0.9896 0.0059
vn 0.0039 -1.0000 -0.0040
vn 0.0031 0.7630 -0.6464
vn 0.0032 0.7628 -0.6466
vn 0.4567 -0.7666 -0.4514
vn 0.4557 -0.7667 -0.4522
vn 0.0031 -0.7655 -0.6435
vn 0.0032 -0.7654 -0.6435
vn 0.4566 -0.7666 -0.4514
vn 0.0031 -0.7654 -0.6435
vn 0.4881 -0.8702 -0.0671
vn 0.6359 -0.7586 -0.1421
vn 0.4557 -0.7667 -0.4521
vn -0.1448 0.9894 0.0060
vn -0.4851 0.8718 -0.0679
vn 0.4917 0.8682 -0.0676
vn 0.6391 0.7557 -0.1427
vn 0.4589 0.7640 -0.4536
vn 0.4579 0.7641 -0.4544
vn -0.4538 0.7663 -0.4549
vn -0.4530 0.7663 -0.4556
vn 0.0031 0.7629 -0.6465
vn -0.4529 0.7663 -0.4556
vn 0.0032 0.7629 -0.6465
vn 0.4588 0.7641 -0.4536
vn 0.4578 0.7642 -0.4543
vn 0.6392 0.7557 -0.1427
vn 0.4917 0.8681 -0.0676
vn 0.1523 -0.9883 0.0058
vn 0.4880 -0.8703 -0.0671
vn 0.4882 -0.8702 -0.0671
vn 0.5259 0.6709 -0.5228
vn 0.6658 0.3337 -0.6674
vn 0.0021 0.3333 -0.9428
vn 0.0029 0.6706 -0.7418
vn -0.8878 0.4603 -0.0027
vn -0.8856 -0.4645 -0.0026
vn -0.8874 -0.0027 0.4609
vn 0.0024 0.3347 0.9423
vn 0.0032 0.6735 0.7392
vn -0.5233 0.6747 0.5204
vn -0.6653 0.3355 0.6670
vn 0.0030 0.6733 0.7394
vn 0.0022 0.3345 0.9424
vn 0.0022 0.3333 -0.9428
vn 0.0069 -0.3774 -0.9260
vn -0.6559 -0.3391 -0.6743
vn -0.6632 0.3346 -0.6695
vn 0.6677 0.3345 0.6650
vn 0.5276 0.6726 0.5190
vn 0.0023 0.3347 0.9423
vn -0.7406 0.6719 0.0012
vn -0.9439 0.3303 0.0030
vn -0.6652 0.3355 0.6671
vn -0.5232 0.6749 0.5203
vn 0.0023 -0.3374 -0.9414
vn -0.0023 0.3734 -0.9277
vn -0.5211 -0.6781 0.5183
vn -0.7410 -0.6714 -0.0111
vn 0.9430 -0.3328 0.0030
vn 0.7404 -0.6722 0.0011
vn 0.5076 -0.6789 -0.5306
vn 0.6509 -0.3436 -0.6770
vn 0.0028 -0.7060 -0.7082
vn 0.0029 -0.7060 -0.7083
vn -0.9421 0.3353 -0.0022
vn -0.7407 0.6719 -0.0029
vn -0.5218 0.6728 -0.5244
vn 0.0198 -0.9600 -0.2792
vn 0.0235 -0.9892 -0.1444
vn 0.0132 -0.9996 -0.0257
vn -0.6318 -0.7619 -0.1426
vn -0.1433 -0.9897 0.0059
vn -0.4508 -0.7689 -0.4535
vn -0.4515 -0.7690 -0.4526
vn -0.4511 -0.7687 -0.4534
vn -0.4519 -0.7686 -0.4528
vn 0.4588 0.7641 -0.4535
vn 0.6392 0.7556 -0.1428
vn 0.0040 -1.0000 -0.0039
vn -0.4815 -0.8739 -0.0674
vn 0.0031 -0.7654 -0.6436
vn -0.4507 -0.7689 -0.4536
vn -0.4522 -0.7684 -0.4528
vn 0.1524 -0.9883 0.0058
vn 0.6359 -0.7585 -0.1421
vn 0.0038 -1.0000 -0.0039
vn 0.7433 0.6689 -0.0029
vn 0.9426 0.3338 -0.0022
vn 0.0029 -0.7060 -0.7082
vn -0.5211 -0.6783 0.5181
vn -0.6642 -0.3395 0.6660
vn -0.7409 -0.6715 -0.0112
vn 0.0023 0.3345 0.9424
vn 0.0030 0.6732 0.7394
vn 0.0023 -0.3387 0.9409
vn 0.6668 -0.3385 0.6639
vn 0.0023 -0.3388 0.9409
vn 0.0028 -0.6766 0.7363
vn 0.5255 -0.6760 0.5166
vn 0.6667 -0.3386 0.6639
vn 0.5260 0.6708 -0.5228
vn 0.0029 0.6707 -0.7418
vn -0.5234 0.6748 0.5203
vn -0.6652 0.3355 0.6670
vn 0.6677 0.3345 0.6651
vn 0.9426 0.3339 -0.0023
vn -0.9406 -0.3395 -0.0023
vn -0.7406 0.6719 -0.0029
vn -0.5053 0.6776 -0.5344
vn 0.7433 0.6690 -0.0030
vn 0.3174 -0.9458 -0.0679
vn 0.2289 -0.9458 -0.2304
vn 0.2295 -0.9458 -0.2300
vn 0.9411 -0.3380 -0.0022
vn 0.7403 -0.6723 -0.0029
vn 0.5239 -0.6739 -0.5209
vn 0.6647 -0.3375 -0.6665
vn 0.3196 0.9451 -0.0684
vn 0.2337 -0.9717 -0.0349
vn 0.2288 -0.9458 -0.2303
vn 0.2294 -0.9458 -0.2299
vn -0.2237 0.9466 -0.2323
vn 0.0035 -0.9475 -0.3197
vn -0.2222 -0.9473 -0.2308
vn -0.2228 -0.9473 -0.2304
vn 0.3174 -0.9459 -0.0680
vn 0.2288 -0.9458 -0.2304
vn 0.2294 -0.9458 -0.2300
vn -0.0594 -0.9982 -0.0011
vn -0.2259 -0.9735 -0.0349
vn -0.3108 -0.9480 -0.0681
vn -0.2242 0.9466 -0.2318
vn 0.0034 -0.9475 -0.3197
vn 0.0035 -0.9475 -0.3198
vn -0.2223 -0.9473 -0.2308
vn 0.0041 -1.0000 -0.0040
vn -0.2228 -0.9473 -0.2303
vn -0.2260 -0.9735 -0.0349
vn 0.0036 -0.9475 -0.3197
vn 0.0677 -0.9977 -0.0012
vn 0.1537 0.9881 0.0061
vn -0.5281 -0.6846 -0.5024
vn -0.6317 -0.7620 -0.1426
vn -0.4814 -0.8739 -0.0673
vn -0.4530 0.7664 -0.4555
vn -0.4538 0.7663 -0.4548
vn 0.6668 -0.3386 0.6639
vn 0.5255 -0.6761 0.5165
vn 0.6678 0.3344 0.6650
vn 0.7404 -0.6722 -0.0029
vn 0.0031 -0.6739 -0.7388
vn 0.0023 -0.3373 -0.9414
vn 0.5076 -0.6788 -0.5307
vn 0.0203 -0.7446 -0.6672
vn -0.6632 0.3345 -0.6695
vn -0.5216 0.6728 -0.5247
vn 0.5276 0.6725 0.5191
vn -0.7376 -0.6752 -0.0029
vn -0.5211 -0.6780 0.5184
vn 0.6596 0.3339 -0.6733
vn 0.5343 0.6795 -0.5028
vn 0.0269 0.9996 -0.0039
vn 0.0244 0.9997 -0.0039
vn 0.0234 0.9867 -0.1611
vn 0.0267 0.9978 -0.0604
vn -0.5195 -0.6762 -0.5223
vn -0.7376 -0.6752 -0.0030
vn -0.7405 0.6721 0.0013
vn 0.0263 0.9996 -0.0039
vn -0.5233 0.6749 0.5203
vn -0.4509 -0.7688 -0.4535
vn -0.4518 -0.7687 -0.4527
vn 0.7404 -0.6722 0.0012
vn 0.5256 -0.6760 0.5165
vn 0.0029 -0.6766 0.7363
vn -0.6621 -0.3387 -0.6685
vn -0.5196 -0.6761 -0.5223
vn 0.5238 -0.6741 -0.5207
vn -0.6560 -0.3391 -0.6744
vn -0.5281 -0.6847 -0.5024
vn 0.0031 -0.0030 -1.0000
vn 0.0031 -0.0031 -1.0000
vn 0.0035 -0.9476 -0.3196
vn 0.3175 -0.9458 -0.0679
vn -0.0595 -0.9982 -0.0011
vn -0.2222 -0.9473 -0.2307
vn -0.2227 -0.9473 -0.2303
vn 0.0243 -0.9997 -0.0040
vn -0.7733 -0.0047 -0.6340
vn -0.7734 -0.0047 -0.6340
vn -0.0121 0.9595 -0.2813
vn -0.0194 0.9981 -0.0585
vn 0.0039 1.0000 -0.0038
vn -0.9447 0.3279 -0.0040
vn -0.9447 0.3279 -0.0038
vn -0.9447 0.3279 -0.0039
vn 0.7771 -0.0048 -0.6294
vn 0.8283 -0.0030 -0.5602
vn 0.8283 -0.0029 -0.5603
vn -0.8856 -0.3327 0.3240
vn -0.8841 -0.3323 -0.3286
vn 0.0133 -0.9999 -0.0039
vn -0.0141 0.7420 -0.6703
vn -0.0185 0.9998 -0.0039
vn -0.0191 0.9998 -0.0039
vn 0.7088 -0.0030 0.7054
vn 0.7087 -0.0030 0.7055
vn -0.8856 -0.3331 0.3236
vn -0.6995 -0.5079 0.5027
vn -0.7022 -0.0029 0.7119
vn 0.7047 0.5013 0.5021
vn 0.8885 0.3264 0.3226
vn 0.8889 0.4581 -0.0026
vn 0.7039 0.7103 -0.0030
vn -0.6977 -0.7164 -0.0030
vn -0.8856 -0.4644 -0.0026
vn 0.7026 -0.5057 0.5006
vn 0.8888 -0.0030 0.4584
vn 0.7052 -0.0032 0.7090
vn -0.7008 0.7134 -0.0030
vn 0.8867 -0.4623 -0.0026
vn 0.7007 -0.7134 -0.0030
vn -0.7019 -0.0029 0.7122
vn -0.7016 0.5033 0.5043
vn -0.8872 0.3279 0.3244
vn 0.8889 0.4582 -0.0026
vn 0.8869 0.3258 -0.3275
vn 0.7029 0.4993 -0.5065
vn -0.8854 -0.4648 -0.0028
vn -0.6976 -0.7165 -0.0030
vn -0.6994 -0.5080 0.5028
vn 0.7047 0.5012 0.5021
vn -0.6996 -0.5078 0.5027
vn 0.7027 -0.5056 0.5006
vn -0.6977 -0.7163 -0.0031
vn -0.8841 -0.3324 -0.3285
vn -0.6978 -0.5060 -0.5071
vn 0.7089 -0.0031 0.7053
vn -0.1285 -0.0039 -0.9917
vn -0.1286 -0.0039 -0.9917
vn 0.3256 -0.0025 -0.9455
vn 0.3285 -0.0027 -0.9445
vn 0.7772 -0.0048 -0.6292
vn 0.0068 -0.3773 -0.9260
vn 0.0204 -0.7447 -0.6671
vn -0.0141 0.7419 -0.6704
vn 0.0030 -0.7060 -0.7082
vn -0.7028 -0.0030 -0.7113
vn -0.7029 -0.0030 -0.7113
vn 0.7030 0.4992 -0.5065
vn 0.8890 0.4579 -0.0029
vn 0.7038 0.7104 -0.0030
vn 0.8867 -0.4623 -0.0028
vn 0.7008 -0.7133 -0.0030
vn 0.7024 -0.0030 -0.7117
vn -0.8841 -0.3322 -0.3286
vn -0.6976 -0.5061 -0.5072
vn -0.8855 -0.4647 -0.0028
vn -0.7007 0.7134 -0.0030
vn -0.8857 -0.3326 0.3239
vn -0.6995 -0.5078 0.5028
vn 0.7025 -0.0030 -0.7116
vn 0.8866 -0.0026 -0.4626
vn 0.8853 -0.3308 -0.3268
vn 0.7006 -0.5040 -0.5051
vn -0.6998 0.5016 -0.5086
vn -0.6976 -0.5060 -0.5072
vn 0.7051 -0.0039 -0.7091
vn 0.7051 -0.0040 -0.7091
vn 0.0039 0.8546 -0.5194
vn 0.0134 0.9999 -0.0039
vn 0.0133 0.9995 -0.0301
vn 0.0134 -0.9999 -0.0040
vn 0.0134 -0.9999 -0.0039
vn -0.9423 -0.3349 -0.0039
vn 0.8887 -0.0029 0.4584
vn 0.7053 -0.0032 0.7089
vn 0.7026 -0.5056 0.5006
vn 0.8868 -0.3315 0.3221
vn 0.7048 0.5012 0.5021
vn -0.7018 0.5032 0.5043
vn -0.8877 0.4604 -0.0026
vn 0.0028 0.7060 0.7082
vn 0.8867 -0.4624 -0.0029
vn 0.7052 -0.0031 0.7090
vn 0.7029 0.4993 -0.5066
vn 0.7009 -0.7133 -0.0030
vn 0.8867 -0.4623 -0.0027
vn -0.6992 -0.0031 -0.7149
vn -0.8852 -0.0030 -0.4651
vn -0.0183 -0.9998 -0.0039
vn -0.0189 -0.9998 -0.0039
vn -0.0192 -0.9980 -0.0600
vn -0.0183 -0.9998 -0.0040
vn -0.3262 -0.0055 -0.9453
vn -0.3317 -0.0055 -0.9434
vn -0.3237 -0.0027 -0.9462
vn -0.3210 -0.0026 -0.9471
vn 0.1362 -0.0039 -0.9907
vn 0.0197 0.9503 -0.3107
vn 0.7772 -0.0048 -0.6293
vn 0.0039 -0.8601 0.5102
vn 0.7059 -0.0027 -0.7083
vn -0.0117 -0.9511 -0.3085
vn 1.0000 -0.0039 -0.0040
vn -1.0000 -0.0039 -0.0038
vn 0.0678 -0.9977 -0.0012
vn 0.0028 -0.0028 1.0000
vn 0.0031 -0.6740 -0.7387
vn 0.0029 -0.6767 0.7363
vt 0.246704 0.732178
vt 0.093689 0.732178
vt 0.093689 0.666992
vt 0.246704 0.666992
vt 0.261230 0.557617
vt 0.250244 0.557617
vt 0.250244 0.938141
vt 0.261230 0.938141
vt 0.643066 0.734131
vt 0.643066 0.694336
vt 0.635742 0.694336
vt 0.635742 0.734131
vt 0.643066 0.772949
vt 0.643066 0.756592
vt 0.636230 0.756592
vt 0.636230 0.772949
vt 0.246704 0.936340
vt 0.093689 0.936340
vt 0.093689 0.862549
vt 0.246704 0.862549
vt 0.629395 0.756592
vt 0.629395 0.772949
vt 0.093689 0.556396
vt 0.246704 0.556396
vt 0.246704 0.633301
vt 0.093689 0.633301
vt 0.307129 0.938141
vt 0.317871 0.938141
vt 0.317871 0.557617
vt 0.307861 0.557617
vt 0.246704 0.757568
vt 0.093689 0.757568
vt 0.093689 0.739746
vt 0.246704 0.739746
vt 0.093689 0.640869
vt 0.246704 0.640869
vt 0.246704 0.658691
vt 0.093689 0.658691
vt 0.093689 0.830811
vt 0.246704 0.830811
vt 0.246704 0.835938
vt 0.093689 0.835938
vt 0.093689 0.733398
vt 0.246704 0.733398
vt 0.246704 0.738525
vt 0.093689 0.738525
vt 0.622559 0.772949
vt 0.622559 0.756592
vt 0.617676 0.756592
vt 0.617676 0.772949
vt 0.598633 0.487305
vt 0.598633 0.996691
vt 0.601562 0.996691
vt 0.601562 0.487305
vt 0.616699 0.694336
vt 0.616699 0.734131
vt 0.621582 0.734131
vt 0.621582 0.694336
vt 0.262939 0.557617
vt 0.262207 0.938141
vt 0.612793 0.643555
vt 0.626953 0.643555
vt 0.626953 0.637695
vt 0.612793 0.637695
vt 0.626953 0.661377
vt 0.612793 0.661377
vt 0.612793 0.667480
vt 0.626953 0.667480
vt 0.593750 0.996691
vt 0.593750 0.487305
vt 0.590820 0.487305
vt 0.590820 0.996691
vt 0.649902 0.694336
vt 0.649902 0.734131
vt 0.654785 0.734131
vt 0.654785 0.694336
vt 0.585938 0.487305
vt 0.585938 0.996691
vt 0.588379 0.996691
vt 0.588379 0.487305
vt 0.660156 0.734131
vt 0.660156 0.694336
vt 0.612793 0.673340
vt 0.626953 0.673340
vt 0.617676 0.677734
vt 0.617676 0.680176
vt 0.623535 0.680176
vt 0.624023 0.677734
vt 0.627930 0.653320
vt 0.629395 0.652588
vt 0.629395 0.648193
vt 0.627930 0.647461
vt 0.627930 0.668457
vt 0.629395 0.667969
vt 0.629395 0.663086
vt 0.627930 0.662598
vt 0.246704 0.665771
vt 0.093689 0.665771
vt 0.093689 0.660645
vt 0.246704 0.660645
vt 0.750000 0.581299
vt 0.750000 0.574707
vt 0.735840 0.574707
vt 0.735840 0.581299
vt 0.612305 0.756592
vt 0.612305 0.772949
vt 0.662109 0.976669
vt 0.662109 0.967712
vt 0.655273 0.967712
vt 0.655273 0.976669
vt 0.654785 0.756592
vt 0.654785 0.772949
vt 0.660156 0.772949
vt 0.660156 0.756592
vt 0.610352 0.968750
vt 0.610352 0.977692
vt 0.617188 0.977692
vt 0.617188 0.968750
vt 0.662109 0.993290
vt 0.662109 0.977692
vt 0.655273 0.977692
vt 0.655273 0.993290
vt 0.642578 0.668457
vt 0.641113 0.667969
vt 0.637695 0.671387
vt 0.638184 0.672852
vt 0.628906 0.694336
vt 0.628906 0.734131
vt 0.632812 0.659912
vt 0.641113 0.663086
vt 0.626953 0.631836
vt 0.612793 0.631836
vt 0.647949 0.680176
vt 0.647949 0.690674
vt 0.654297 0.690674
vt 0.653809 0.680176
vt 0.620117 0.967529
vt 0.620117 0.881287
vt 0.613281 0.881287
vt 0.613281 0.967529
vt 0.246704 0.763428
vt 0.246704 0.758301
vt 0.093689 0.758301
vt 0.093689 0.763428
vt 0.596191 0.996691
vt 0.596191 0.487305
vt 0.659668 0.634521
vt 0.649902 0.634521
vt 0.649902 0.636475
vt 0.659668 0.636475
vt 0.658691 0.870483
vt 0.658691 0.802002
vt 0.651855 0.802002
vt 0.651855 0.870483
vt 0.615234 0.744385
vt 0.618164 0.744385
vt 0.620117 0.739746
vt 0.618164 0.737549
vt 0.649414 0.756592
vt 0.649414 0.772949
vt 0.641602 0.680420
vt 0.642090 0.690918
vt 0.618164 0.994274
vt 0.654297 0.994274
vt 0.654297 0.987427
vt 0.618164 0.987427
vt 0.631836 0.657715
vt 0.632812 0.655762
vt 0.270508 0.557617
vt 0.263428 0.557617
vt 0.263428 0.938141
vt 0.270508 0.938141
vt 0.626953 0.655518
vt 0.612793 0.655518
vt 0.626953 0.625732
vt 0.612793 0.625732
vt 0.623535 0.690674
vt 0.629883 0.690918
vt 0.629883 0.680420
vt 0.626953 0.649658
vt 0.612793 0.649658
vt 0.659668 0.650635
vt 0.650391 0.650635
vt 0.650391 0.660156
vt 0.659668 0.660156
vt 0.643066 0.883057
vt 0.628906 0.883057
vt 0.626953 0.967804
vt 0.645020 0.967804
vt 0.659668 0.637207
vt 0.649902 0.637207
vt 0.650391 0.646484
vt 0.659668 0.646484
vt 0.650391 0.664551
vt 0.659668 0.664551
vt 0.649902 0.672852
vt 0.659668 0.672852
vt 0.282227 0.938141
vt 0.291504 0.938141
vt 0.291504 0.557617
vt 0.282227 0.557617
vt 0.246704 0.854858
vt 0.093689 0.854858
vt 0.093689 0.837036
vt 0.246704 0.837036
vt 0.246704 0.861206
vt 0.093689 0.861206
vt 0.093689 0.856079
vt 0.246704 0.856079
vt 0.278320 0.557617
vt 0.278320 0.938141
vt 0.611328 0.694336
vt 0.611328 0.734131
vt 0.642090 0.793457
vt 0.629883 0.793457
vt 0.629883 0.800293
vt 0.642090 0.800293
vt 0.620117 0.871338
vt 0.620117 0.802856
vt 0.613281 0.802856
vt 0.613281 0.871338
vt 0.650391 0.675537
vt 0.659668 0.675537
vt 0.659668 0.673584
vt 0.650391 0.673584
vt 0.269775 0.557617
vt 0.269775 0.938141
vt 0.892090 0.536621
vt 0.735840 0.536621
vt 0.735840 0.541016
vt 0.892090 0.541016
vt 0.246704 0.829956
vt 0.093689 0.829956
vt 0.093689 0.764648
vt 0.246704 0.764648
vt 0.654297 0.970917
vt 0.618164 0.970917
vt 0.618164 0.986504
vt 0.654297 0.986504
vt 0.637207 0.789795
vt 0.642578 0.789795
vt 0.641602 0.784912
vt 0.637695 0.782227
vt 0.635254 0.782227
vt 0.635254 0.776001
vt 0.633301 0.777954
vt 0.622559 0.776123
vt 0.624512 0.777954
vt 0.628906 0.776123
vt 0.628906 0.773438
vt 0.615234 0.790039
vt 0.620605 0.789917
vt 0.622559 0.782349
vt 0.620117 0.782349
vt 0.616211 0.785034
vt 0.642090 0.774170
vt 0.636230 0.774170
vt 0.637695 0.779053
vt 0.641602 0.781738
vt 0.644043 0.781738
vt 0.647461 0.625488
vt 0.643555 0.627441
vt 0.643555 0.636963
vt 0.647461 0.638916
vt 0.659180 0.781860
vt 0.663086 0.779297
vt 0.664062 0.774292
vt 0.633789 0.752441
vt 0.639648 0.752441
vt 0.638672 0.747314
vt 0.638184 0.743896
vt 0.641113 0.743896
vt 0.638672 0.735840
vt 0.633789 0.740967
vt 0.625000 0.737793
vt 0.625000 0.734863
vt 0.654297 0.750488
vt 0.652344 0.748535
vt 0.647461 0.750366
vt 0.647461 0.753296
vt 0.657227 0.743896
vt 0.654297 0.743896
vt 0.609863 0.752441
vt 0.616211 0.752441
vt 0.611328 0.747314
vt 0.632812 0.735840
vt 0.634277 0.744385
vt 0.631348 0.744385
vt 0.631836 0.737549
vt 0.629395 0.739746
vt 0.662598 0.735840
vt 0.656250 0.735840
vt 0.661133 0.740967
vt 0.642090 0.693359
vt 0.635742 0.690918
vt 0.635742 0.693359
vt 0.632812 0.645020
vt 0.637207 0.655762
vt 0.640137 0.648193
vt 0.610840 0.690674
vt 0.611816 0.693359
vt 0.617676 0.693115
vt 0.617676 0.690674
vt 0.611816 0.677490
vt 0.610840 0.679932
vt 0.635742 0.680420
vt 0.653809 0.693115
vt 0.659668 0.693359
vt 0.660645 0.690918
vt 0.647949 0.677734
vt 0.653809 0.677734
vt 0.642090 0.677246
vt 0.623535 0.693115
vt 0.629883 0.693359
vt 0.629395 0.871338
vt 0.643066 0.748535
vt 0.641113 0.750488
vt 0.647949 0.693115
vt 0.660645 0.679932
vt 0.659668 0.677490
vt 0.656250 0.781860
vt 0.654785 0.786255
vt 0.656250 0.788208
vt 0.610352 0.978333
vt 0.610352 0.993919
vt 0.617188 0.993919
vt 0.617188 0.978333
vt 0.650391 0.790771
vt 0.650391 0.787964
vt 0.645996 0.786133
vt 0.644043 0.788086
vt 0.658691 0.774292
vt 0.629395 0.677246
vt 0.635742 0.676758
vt 0.658691 0.880432
vt 0.651855 0.880432
vt 0.658691 0.966675
vt 0.651855 0.966675
vt 0.751465 0.549561
vt 0.750000 0.548096
vt 0.735840 0.548096
vt 0.751465 0.561279
vt 0.735840 0.561279
vt 0.735840 0.573242
vt 0.750000 0.573242
vt 0.604004 0.487305
vt 0.604004 0.996691
vt 0.606445 0.996691
vt 0.606445 0.487305
vt 0.640137 0.652588
vt 0.642090 0.653320
vt 0.642090 0.647461
vt 0.637695 0.657715
vt 0.632812 0.671387
vt 0.632324 0.672852
vt 0.631836 0.643311
vt 0.637695 0.643311
vt 0.637207 0.645020
vt 0.637695 0.659912
vt 0.638184 0.658447
vt 0.632324 0.658447
vt 0.642090 0.801758
vt 0.629883 0.801758
vt 0.631836 0.869629
vt 0.640137 0.869629
vt 0.735840 0.560059
vt 0.751465 0.560059
vt 0.642578 0.662598
vt 0.280518 0.557617
vt 0.280518 0.938141
vt 0.093689 0.634521
vt 0.093689 0.639648
vt 0.246704 0.639648
vt 0.246704 0.634521
vt 0.766602 0.554688
vt 0.766602 0.548096
vt 0.752930 0.548096
vt 0.752930 0.554688
vt 0.751465 0.571777
vt 0.642578 0.870483
vt 0.645508 0.648682
vt 0.645508 0.639404
vt 0.644043 0.639404
vt 0.644043 0.655518
vt 0.644043 0.670654
vt 0.645508 0.670654
vt 0.645508 0.662109
vt 0.649414 0.660156
vt 0.649414 0.650635
vt 0.647461 0.647461
vt 0.649414 0.647461
vt 0.649414 0.632324
vt 0.649414 0.616211
vt 0.647461 0.616211
vt 0.735840 0.546631
vt 0.892090 0.546631
vt 0.892090 0.542480
vt 0.735840 0.542480
s 1
usemtl Material.008
f 319/1/1 322/2/1 321/3/1 320/4/1
f 9/5/2 12/6/2 11/7/2 10/8/2
f 802/9/3 803/10/4 801/11/5 800/12/5
f 91/13/4 92/14/6 795/15/7 794/16/7
f 323/17/1 326/18/1 325/19/1 324/20/1
f 908/16/7 909/15/7 166/21/8 167/22/9
f 331/23/1 334/24/1 333/25/1 332/26/1
f 375/27/2 378/28/10 377/29/2 376/30/2
f 339/31/1 342/32/1 341/33/1 340/34/1
f 343/35/1 346/36/1 345/37/1 344/38/1
f 23/23/11 26/26/11 25/25/11 24/24/11
f 351/39/12 354/40/12 353/41/12 352/42/12
f 147/9/3 148/10/4 867/11/13 866/12/5
f 359/43/12 362/44/14 361/45/14 360/46/12
f 168/47/15 165/48/16 162/49/17 163/50/17
f 75/51/3 76/52/3 70/53/18 67/54/18
f 98/55/19 99/56/20 799/57/21 796/58/22
f 379/59/23 382/6/23 381/7/23 380/60/23
f 870/61/24 873/62/25 872/63/26 871/64/26
f 200/55/20 201/56/20 925/57/21 922/58/21
f 942/65/27 943/66/27 941/67/28 940/68/28
f 790/69/29 791/70/30 789/71/31 788/72/31
f 203/73/32 204/74/33 198/75/34 195/76/34
f 174/77/35 175/78/36 178/79/37 177/80/38
f 137/76/39 140/75/39 139/81/40 138/82/40
f 227/73/41 228/74/42 218/75/43 215/76/39
f 822/68/24 823/67/24 821/83/26 820/84/44
f 880/68/45 881/67/46 879/83/47 878/84/47
f 15/17/11 18/20/11 17/19/11 16/18/11
f 542/85/48 543/86/49 547/87/50 546/88/51
f 844/89/52 845/90/53 839/91/54 840/92/55
f 950/93/56 951/94/57 945/95/58 946/96/59
f 367/97/60 370/98/60 369/99/60 368/100/61
f 395/101/62 398/102/62 397/103/62 396/104/62
f 161/105/63 164/106/63 163/50/17 162/49/17
f 205/9/64 206/10/65 927/11/5 926/12/5
f 117/107/66 120/108/66 119/109/66 118/110/66
f 77/111/67 80/112/34 79/113/68 78/114/40
f 253/13/69 254/14/70 1011/15/7 1010/16/7
f 81/105/71 84/106/71 83/50/19 82/49/19
f 133/115/72 136/116/73 135/117/74 134/118/72
f 121/119/75 124/120/75 123/121/75 122/122/75
f 152/123/76 149/124/77 895/125/78 894/126/79
f 832/93/56 833/94/80 827/95/81 828/96/82
f 250/47/22 247/48/83 244/49/17 245/50/17
f 866/12/5 867/11/13 863/127/29 864/128/29
f 96/75/39 93/76/39 1029/73/41 1030/74/84
f 884/129/85 891/94/86 895/125/78 150/130/87
f 936/131/88 937/132/88 931/64/89 932/63/47
f 183/105/63 186/106/90 185/50/91 184/49/17
f 824/65/27 825/66/27 823/67/24 822/68/24
f 93/76/39 96/75/39 95/81/92 94/82/93
f 533/133/94 535/134/95 534/135/96 532/136/97
f 489/137/98 492/138/99 491/139/100 490/140/101
f 812/61/45 815/62/45 814/63/47 813/64/47
f 47/141/102 50/142/103 49/143/102 48/144/104
f 918/145/5 919/146/5 917/70/29 916/69/30
f 71/77/35 72/78/105 74/79/38 73/80/38
f 303/147/106 306/148/107 305/149/107 304/150/106
f 215/76/39 218/75/43 217/81/40 216/82/93
f 1054/151/108 1056/152/109 1055/153/110 1052/154/111
f 243/105/63 246/106/90 245/50/17 244/49/17
f 1004/89/112 1005/90/113 999/91/114 1000/92/115
f 509/155/116 510/156/117 508/157/118 507/158/119
f 51/43/120 54/46/120 53/45/120 52/44/120
f 190/47/22 187/48/121 184/49/17 185/50/91
f 251/159/32 252/160/33 242/112/67 239/111/34
f 555/161/122 556/162/123 535/134/95 533/133/94
f 788/72/31 789/71/31 73/80/38 74/79/38
f 267/163/124 270/164/124 269/165/124 268/166/124
f 904/167/125 905/168/126 903/90/127 902/89/112
f 108/123/128 105/124/129 837/125/130 836/126/131
f 383/169/1 386/170/1 385/171/132 384/172/132
f 145/73/133 148/10/4 147/9/3 146/74/42
f 986/129/134 993/94/135 997/125/136 232/130/137
f 247/48/83 250/47/22 249/22/138 248/21/8
f 914/72/139 915/71/140 177/80/38 178/79/37
f 187/48/121 190/47/22 189/22/138 188/21/8
f 1031/173/5 1032/174/141 825/66/27 824/65/27
f 878/175/47 879/176/47 877/132/88 876/131/88
f 794/16/7 795/15/7 86/21/138 87/22/9
f 547/87/50 548/177/142 552/178/143 551/179/144
f 1046/173/5 977/180/145 976/181/146 1047/174/141
f 227/73/41 230/10/70 229/9/69 228/74/42
f 299/182/147 302/183/148 301/184/149 300/185/150
f 930/61/45 933/62/151 932/63/47 931/64/89
f 203/73/32 206/10/65 205/9/64 204/74/33
f 1018/186/152 1019/187/153 1017/188/154 1016/189/155
f 311/190/11 314/191/11 313/192/156 312/193/157
f 312/193/157 313/192/156 302/183/148 299/182/147
f 316/194/158 317/195/159 300/185/150 301/184/149
f 292/193/160 293/192/161 282/183/162 279/182/163
f 193/13/69 194/14/70 921/15/7 920/16/7
f 1042/173/5 875/180/145 874/181/164 1043/174/141
f 291/190/165 294/191/166 293/192/161 292/193/160
f 295/196/11 298/197/167 297/195/168 296/194/169
f 315/196/170 318/197/170 317/195/159 316/194/158
f 279/182/163 282/183/162 281/184/171 280/185/172
f 5/198/173 8/199/23 7/200/23 6/201/174
f 335/202/1 338/203/1 337/204/1 336/205/1
f 347/206/61 350/207/61 349/208/61 348/209/61
f 31/31/11 34/34/11 33/33/11 32/32/11
f 371/210/1 374/211/1 373/171/1 372/170/1
f 97/212/63 100/213/63 99/56/20 98/55/19
f 63/210/11 66/170/11 65/171/11 64/211/11
f 255/214/2 258/215/10 257/216/2 256/217/2
f 779/218/175 782/219/176 780/220/177 778/221/178
f 287/222/179 290/223/179 289/224/179 288/225/179
f 679/161/180 680/162/181 659/134/50 657/133/182
f 796/58/22 799/57/21 798/128/29 797/127/29
f 59/97/104 62/100/104 61/99/102 60/98/102
f 27/202/11 30/205/11 29/204/11 28/203/11
f 387/226/11 390/227/11 389/171/11 388/170/11
f 1/1/11 4/4/11 3/3/11 2/2/11
f 199/212/90 202/213/63 201/56/20 200/55/20
f 403/228/62 406/229/62 405/230/62 404/231/62
f 219/212/63 222/213/71 221/56/20 220/55/91
f 307/222/183 310/223/184 309/224/183 308/225/183
f 327/232/1 330/233/1 329/234/1 328/235/1
f 850/236/154 853/237/154 852/238/11 851/239/11
f 409/240/185 408/241/75 407/242/75
f 407/242/75 410/243/186 409/240/185
f 409/240/185 410/243/186 411/244/187
f 595/245/188 596/246/189 594/244/187 593/243/186
f 567/247/190 568/248/191 566/249/192 565/250/193
f 749/250/193 750/249/192 748/246/194 747/245/188
f 747/245/188 748/246/194 746/244/195 745/243/196
f 756/251/197 755/252/198 754/253/199 753/254/200
f 418/254/200 422/255/75 421/251/75
f 425/256/201 424/257/62 423/258/202
f 423/258/202 426/259/203 425/256/201
f 425/256/201 426/259/203 427/260/204
f 569/254/205 570/253/206 568/248/191 567/247/190
f 414/250/207 415/249/192 413/246/189 412/245/208
f 1072/261/124 1074/262/209 1073/263/124 1068/264/124
f 601/254/200 602/253/206 600/248/210 599/247/190
f 572/251/75 571/252/211 570/253/206 569/254/205
f 434/265/212 438/266/62 437/267/62
f 441/268/213 440/269/75 439/270/214
f 458/271/215 459/272/216 457/273/217 455/274/218
f 507/158/119 508/157/118 506/275/219 505/276/220
f 707/277/221 708/278/222 706/279/223 705/280/224
f 523/277/225 524/278/222 522/279/223 521/280/226
f 649/281/227 650/282/228 648/278/229 647/277/225
f 636/283/75 635/284/230 634/156/117 633/155/116
f 450/155/231 454/285/75 453/283/75
f 457/273/217 456/286/62 455/274/218
f 685/287/232 686/288/233 684/268/213 682/270/214
f 687/289/234 688/290/235 686/288/233 685/287/232
f 691/158/236 692/157/237 690/275/238 689/276/220
f 448/158/236 449/157/239 447/275/240 446/276/220
f 444/289/241 445/290/242 443/288/243 442/287/244
f 712/291/202 711/292/245 710/282/228 709/281/246
f 466/281/247 470/293/62 469/291/202
f 811/294/248 810/162/249 1094/295/250 1093/296/251
f 998/297/252 1005/90/113 1009/298/253 236/299/254
f 664/300/255 665/301/256 669/302/257 668/303/258
f 538/304/259 539/305/260 543/86/49 542/85/48
f 1098/295/261 928/306/262 675/179/263 676/178/264
f 474/135/265 476/307/266 475/308/256 473/309/267
f 714/310/268 717/133/269 716/136/270 715/311/271
f 1096/295/272 556/162/123 555/161/122 868/306/273
f 666/85/274 667/86/96 671/87/95 670/88/275
f 104/133/276 101/310/277 807/312/278 806/161/279
f 1046/173/5 1047/174/141 985/66/280 984/65/281
f 672/177/282 673/313/283 677/314/284 676/178/264
f 251/159/32 254/14/70 253/13/69 252/160/33
f 165/48/16 168/47/15 167/22/9 166/21/8
f 35/35/11 38/38/11 37/37/11 36/36/11
f 496/315/285 494/218/286 492/138/99
f 496/315/285 497/219/287 494/218/286
f 500/268/213 499/269/214 498/270/214
f 517/271/215 518/272/288 516/273/289 514/274/202
f 693/155/231 694/156/117 692/157/237 691/158/236
f 705/280/224 706/279/223 704/316/290 703/317/291
f 462/280/226 463/279/223 461/316/292 460/317/293
f 627/289/294 628/290/242 626/288/295 625/287/244
f 652/291/202 651/292/245 650/282/228 649/281/227
f 509/155/116 513/285/214 512/283/75
f 516/273/289 515/286/296 514/274/202
f 641/271/297 642/272/216 640/273/289 638/274/218
f 460/317/293 461/316/292 459/272/216 458/271/215
f 464/277/225 465/278/222 463/279/223 462/280/226
f 645/280/298 646/279/223 644/316/299 643/317/300
f 643/317/300 644/316/299 642/272/216 641/271/297
f 469/291/202 468/292/301 467/282/302 466/281/247
f 525/281/227 529/293/303 528/291/296
f 810/162/249 811/294/248 809/318/304 808/134/305
f 1042/173/5 1043/174/141 883/66/306 882/65/280
f 477/85/307 478/86/308 482/87/95 481/88/309
f 715/311/271 716/136/270 723/319/310 722/320/311
f 539/305/260 540/300/312 544/303/313 543/86/49
f 724/300/314 725/301/315 729/302/316 728/303/317
f 681/294/318 680/162/181 1098/295/261 1097/296/319
f 716/136/270 718/135/96 724/309/314 723/319/310
f 473/300/267 475/301/256 480/302/320 479/303/321
f 726/85/48 727/86/322 731/87/323 730/88/51
f 717/133/269 719/134/324 718/135/96 716/136/270
f 479/303/321 480/302/320 484/313/325 483/177/282
f 738/312/326 739/161/122 717/133/269 714/310/268
f 808/134/305 104/133/276 806/161/279 810/162/249
f 680/162/181 681/294/318 661/318/327 659/134/50
f 434/265/212 435/321/328 433/322/329 432/323/330
f 129/324/62 132/325/62 131/326/62 130/327/62
f 732/177/331 733/313/332 737/314/333 736/178/334
f 560/240/185 559/241/214 558/242/214
f 558/242/214 561/243/196 560/240/185
f 560/240/185 561/243/196 562/244/335
f 585/265/336 586/321/328 584/322/337 583/323/338
f 416/247/190 417/248/339 415/249/192 414/250/207
f 765/328/340 766/329/340 764/330/341 763/331/342
f 769/265/336 770/321/343 768/322/344 767/323/345
f 421/251/75 420/252/198 419/253/206 418/254/200
f 569/254/205 573/255/214 572/251/75
f 576/256/346 575/257/296 574/258/296
f 574/258/296 577/259/347 576/256/346
f 576/256/346 577/259/347 578/260/348
f 763/331/342 764/330/341 762/260/348 761/259/347
f 751/247/349 752/248/191 750/249/192 749/250/193
f 432/323/330 433/322/329 431/329/350 430/328/351
f 428/331/342 429/330/352 427/260/204 426/259/203
f 604/251/75 603/252/198 602/253/206 601/254/200
f 585/265/336 589/266/353 588/267/62
f 592/240/185 591/241/75 590/242/75
f 590/242/75 593/243/186 592/240/185
f 592/240/185 593/243/186 594/244/187
f 611/331/354 612/330/341 610/260/204 609/259/355
f 599/247/190 600/248/210 598/249/192 597/250/192
f 615/323/330 616/322/329 614/329/340 613/328/356
f 418/254/200 419/253/206 417/248/339 416/247/190
f 437/267/62 436/332/357 435/321/328 434/265/212
f 601/254/200 605/255/75 604/251/75
f 608/256/201 607/257/62 606/258/62
f 606/258/62 609/259/355 608/256/201
f 608/256/201 609/259/355 610/260/204
f 430/328/351 431/329/350 429/330/352 428/331/342
f 597/250/192 598/249/192 596/246/189 595/245/188
f 767/323/345 768/322/344 766/329/340 765/328/340
f 753/254/200 754/253/199 752/248/191 751/247/349
f 528/291/296 527/292/301 526/282/228 525/281/227
f 617/265/336 621/266/62 620/267/62
f 624/268/358 623/269/75 622/270/214
f 442/287/244 443/288/243 441/268/213 439/270/214
f 709/281/246 710/282/228 708/278/222 707/277/221
f 670/88/275 671/87/95 675/179/263 674/333/359
f 647/277/225 648/278/229 646/279/223 645/280/298
f 703/317/291 704/316/290 702/272/360 701/271/361
f 696/283/75 695/284/230 694/156/117 693/155/231
f 633/155/116 637/285/75 636/283/75
f 640/273/289 639/286/62 638/274/218
f 701/271/361 702/272/360 700/273/289 698/274/296
f 633/155/116 634/156/117 632/157/362 631/158/363
f 689/276/220 690/275/238 688/290/235 687/289/234
f 629/276/220 630/275/240 628/290/242 627/289/294
f 525/281/227 526/282/228 524/278/222 523/277/225
f 453/283/75 452/284/230 451/156/117 450/155/231
f 649/281/227 653/293/202 652/291/202
f 101/310/277 104/133/276 103/136/364 102/311/365
f 656/136/313 658/135/366 664/309/255 663/319/312
f 544/303/313 545/302/316 549/313/367 548/177/142
f 1099/296/368 1100/295/369 736/178/334 737/314/333
f 913/52/3 912/51/69 919/146/5 918/145/5
f 679/161/180 678/312/370 929/334/371 928/306/262
f 1093/296/251 1094/295/250 487/178/372 488/314/373
f 657/133/182 659/134/50 658/135/366 656/136/313
f 658/135/366 660/307/374 665/308/256 664/309/255
f 719/134/324 721/318/375 720/307/376 718/135/96
f 1100/295/369 970/306/273 735/179/377 736/178/334
f 728/303/317 729/302/316 733/313/332 732/177/331
f 730/88/51 731/87/323 735/179/377 734/333/378
f 1036/335/379 1039/151/380 1037/154/381 1035/336/382
f 556/162/123 557/294/383 537/318/384 535/134/95
f 554/312/326 555/161/122 533/133/94 530/310/385
f 1033/337/386 1036/335/379 1035/336/382 1034/338/386
f 530/310/385 533/133/94 532/136/97 531/311/387
f 684/268/213 683/269/75 682/270/214
f 501/287/232 502/288/243 500/268/213 498/270/214
f 450/155/231 451/156/117 449/157/239 448/158/236
f 446/276/220 447/275/240 445/290/242 444/289/241
f 521/280/226 522/279/223 520/316/388 519/317/389
f 466/281/247 467/282/302 465/278/222 464/277/225
f 625/287/244 626/288/295 624/268/358 622/270/214
f 693/155/231 697/285/214 696/283/75
f 700/273/289 699/286/353 698/274/296
f 503/289/241 504/290/242 502/288/243 501/287/232
f 631/158/363 632/157/362 630/275/240 629/276/220
f 505/276/220 506/275/219 504/290/242 503/289/241
f 519/317/389 520/316/388 518/272/288 517/271/215
f 512/283/75 511/284/230 510/156/117 509/155/116
f 709/281/246 713/293/202 712/291/202
f 654/310/390 657/133/182 656/136/313 655/311/391
f 667/86/96 668/303/258 672/177/282 671/87/95
f 535/134/95 537/318/384 536/307/376 534/135/96
f 471/304/392 472/305/312 478/86/308 477/85/307
f 1100/295/369 740/162/393 739/161/122 970/306/273
f 534/135/96 536/307/376 541/308/315 540/309/312
f 531/311/387 532/136/97 539/319/260 538/320/259
f 1096/295/272 868/306/273 551/179/144 552/178/143
f 540/300/312 541/301/315 545/302/316 544/303/313
f 740/162/393 741/294/394 721/318/375 719/134/324
f 478/86/308 479/303/321 483/177/282 482/87/95
f 659/134/50 661/318/327 660/307/374 658/135/366
f 546/88/51 547/87/50 551/179/144 550/333/378
f 820/175/44 821/176/26 819/132/88 818/131/88
f 548/177/142 549/313/367 553/314/395 552/178/143
f 481/88/309 482/87/95 486/179/396 485/333/397
f 792/145/398 793/146/399 791/70/30 790/69/29
f 483/177/282 484/313/325 488/314/373 487/178/372
f 744/240/185 743/241/75 742/242/75
f 742/242/75 745/243/196 744/240/185
f 744/240/185 745/243/196 746/244/195
f 563/245/208 564/246/189 562/244/335 561/243/196
f 583/323/338 584/322/337 582/329/400 581/328/400
f 613/328/356 614/329/340 612/330/341 611/331/354
f 412/245/208 413/246/189 411/244/187 410/243/186
f 620/267/62 619/332/357 618/321/401 617/265/336
f 753/254/200 757/255/197 756/251/197
f 760/256/402 759/257/62 758/258/202
f 758/258/202 761/259/347 760/256/402
f 760/256/402 761/259/347 762/260/348
f 617/265/336 618/321/401 616/322/329 615/323/330
f 581/328/400 582/329/400 580/330/403 579/331/404
f 565/250/193 566/249/192 564/246/189 563/245/208
f 579/331/404 580/330/403 578/260/348 577/259/347
f 588/267/62 587/332/357 586/321/328 585/265/336
f 769/265/336 773/266/62 772/267/296
f 157/111/67 160/112/67 159/113/40 158/114/40
f 492/138/99 494/218/286 493/221/405 491/139/100
f 226/57/406 223/58/407 220/55/91 221/56/20
f 781/315/408 779/218/175 777/138/409
f 781/315/408 782/219/176 779/218/175
f 785/339/75 784/340/410 783/341/75
f 1027/342/62 1026/343/62 1025/344/62 1024/345/202
f 1044/173/5 935/180/280 934/181/281 1045/174/141
f 482/87/95 483/177/282 487/178/372 486/179/396
f 275/115/411 278/116/412 277/117/413 276/118/413
f 191/159/414 192/160/42 182/112/415 179/111/416
f 944/129/417 951/94/57 955/125/130 208/130/418
f 1010/16/7 1011/15/7 248/21/8 249/22/138
f 85/48/16 88/47/22 87/22/9 86/21/138
f 671/87/95 672/177/282 676/178/264 675/179/263
f 239/111/34 242/112/67 241/113/40 240/114/93
f 494/218/286 497/219/287 495/220/419 493/221/405
f 970/306/273 971/334/420 734/333/378 735/179/377
f 928/306/262 929/334/371 674/333/359 675/179/263
f 668/303/258 669/302/257 673/313/283 672/177/282
f 722/304/311 723/305/310 727/86/322 726/85/48
f 125/163/10 128/164/2 127/165/2 126/166/10
f 976/181/146 977/180/145 975/62/28 972/61/28
f 882/65/280 883/66/306 881/67/46 880/68/45
f 774/137/421 777/138/409 776/139/422 775/140/421
f 173/346/423 176/347/424 175/348/36 174/349/35
f 731/87/323 732/177/331 736/178/334 735/179/377
f 153/350/425 156/351/426 155/352/427 154/299/58
f 214/351/428 211/350/429 967/298/430 966/353/431
f 906/353/432 907/298/433 905/168/126 904/167/125
f 890/93/434 891/94/86 885/95/435 886/96/436
f 836/126/131 837/125/130 835/354/252 834/355/437
f 838/297/438 841/356/439 840/92/55 839/91/54
f 236/299/254 237/352/440 1003/357/441 1002/358/442
f 848/353/431 849/298/443 847/168/444 846/167/445
f 948/359/446 949/360/447 947/361/448 944/129/417
f 986/129/134 989/361/449 988/96/436 987/95/435
f 235/350/425 238/351/450 237/352/440 236/299/254
f 992/93/451 993/94/135 987/95/435 988/96/436
f 1008/353/452 1009/298/253 1007/168/453 1006/167/454
f 238/351/450 235/350/425 1009/298/253 1008/353/452
f 67/54/18 70/53/18 69/347/455 68/346/455
f 853/237/154 850/236/154 854/189/165
f 854/189/165 855/188/11 853/237/154
f 1022/362/456 1023/363/457 1021/364/458 1020/365/459
f 808/134/305 809/318/304 476/307/266 474/135/265
f 786/366/75 787/367/75 785/339/75 783/341/75
f 89/159/460 92/14/6 91/13/4 90/160/33
f 191/159/414 194/14/70 193/13/69 192/160/42
f 76/52/3 75/51/3 793/146/399 792/145/398
f 355/141/61 358/144/61 357/143/61 356/142/61
f 804/306/461 805/334/462 485/333/397 486/179/396
f 868/306/273 869/334/463 550/333/378 551/179/144
f 802/9/3 1030/74/84 1029/73/41 803/10/4
f 1031/173/5 817/180/280 816/181/464 1032/174/141
f 818/131/88 819/132/88 813/64/47 814/63/47
f 663/305/312 664/300/255 668/303/258 667/86/96
f 113/214/23 116/215/23 115/216/23 114/217/23
f 968/12/5 969/11/5 224/127/465 225/128/466
f 944/129/417 947/361/448 946/96/59 945/95/58
f 1002/358/442 1003/357/441 1001/356/437 998/297/252
f 966/353/431 967/298/430 965/168/444 964/167/467
f 884/129/85 887/361/428 886/96/436 885/95/435
f 888/359/468 889/360/469 887/361/428 884/129/85
f 996/126/55 997/125/136 995/354/470 994/355/471
f 231/124/77 234/123/472 233/368/445 232/130/137
f 106/130/473 107/368/474 831/360/432 830/359/475
f 952/355/476 953/354/252 951/94/57 950/93/56
f 826/129/477 829/361/478 828/96/82 827/95/81
f 962/89/479 963/90/480 957/91/481 958/92/482
f 902/89/112 903/90/127 897/91/114 898/92/483
f 208/130/418 209/368/484 949/360/447 948/359/446
f 994/355/471 995/354/470 993/94/135 992/93/451
f 39/206/104 42/209/104 41/208/104 40/207/102
f 826/129/477 833/94/80 837/125/130 106/130/473
f 13/369/485 14/370/486 5/198/173 6/201/174
f 876/131/88 877/132/88 871/64/26 872/63/26
f 55/371/120 58/372/120 57/373/120 56/374/487
f 532/136/97 534/135/96 540/309/312 539/319/260
f 984/65/281 985/66/280 983/67/46 982/68/45
f 89/159/460 90/160/33 80/112/34 77/111/67
f 816/181/464 817/180/280 815/62/45 812/61/45
f 1039/151/380 1041/152/488 1040/153/489 1037/154/381
f 229/9/69 230/10/70 969/11/5 968/12/5
f 283/147/490 286/148/491 285/149/491 284/150/490
f 874/181/164 875/180/145 873/62/25 870/61/24
f 1012/236/154 1015/237/11 1014/238/165 1013/239/165
f 555/161/122 554/312/326 869/334/463 868/306/273
f 806/161/279 807/312/278 805/334/462 804/306/461
f 259/107/492 262/108/492 261/109/492 260/110/492
f 391/375/75 394/376/75 393/377/75 392/378/75
f 1044/173/5 1045/174/141 943/66/27 942/65/27
f 145/73/133 146/74/42 140/75/39 137/76/39
f 934/181/281 935/180/280 933/62/151 930/61/45
f 88/47/22 85/48/16 82/49/19 83/50/19
f 212/299/493 213/352/494 961/357/495 960/358/496
f 112/351/497 109/350/429 849/298/443 848/353/431
f 232/130/137 233/368/445 991/360/431 990/359/468
f 154/299/58 155/352/427 901/357/498 900/358/442
f 842/358/496 843/357/451 841/356/439 838/297/438
f 896/297/499 899/356/437 898/92/483 897/91/114
f 234/123/472 231/124/77 997/125/136 996/126/55
f 1006/167/454 1007/168/453 1005/90/113 1004/89/112
f 830/359/475 831/360/432 829/361/478 826/129/477
f 211/350/429 214/351/428 213/352/494 212/299/493
f 964/167/467 965/168/444 963/90/480 962/89/479
f 105/124/129 108/123/128 107/368/474 106/130/473
f 998/297/252 1001/356/437 1000/92/115 999/91/114
f 834/355/437 835/354/252 833/94/80 832/93/56
f 940/68/28 941/67/28 939/83/44 938/84/500
f 910/54/18 911/53/18 176/347/424 173/346/423
f 739/161/122 738/312/326 971/334/420 970/306/273
f 892/355/439 893/354/501 891/94/86 890/93/434
f 179/111/416 182/112/415 181/113/40 180/114/40
f 739/161/122 740/162/393 719/134/324 717/133/269
f 982/68/45 983/67/46 981/83/47 980/84/47
f 723/305/310 724/300/314 728/303/317 727/86/322
f 916/69/30 917/70/29 915/71/140 914/72/139
f 972/61/28 975/62/28 974/63/44 973/64/44
f 109/350/429 112/351/497 111/352/502 110/299/493
f 900/358/442 901/357/498 899/356/437 896/297/499
f 150/130/87 151/368/503 889/360/469 888/359/468
f 110/299/493 111/352/502 843/357/451 842/358/496
f 960/358/496 961/357/495 959/356/504 956/297/505
f 956/297/505 959/356/504 958/92/482 957/91/481
f 149/124/77 152/123/76 151/368/503 150/130/87
f 894/126/79 895/125/78 893/354/501 892/355/439
f 990/359/468 991/360/431 989/361/449 986/129/134
f 846/167/445 847/168/444 845/90/53 844/89/52
f 210/123/506 207/124/507 955/125/130 954/126/131
f 207/124/507 210/123/506 209/368/484 208/130/418
f 954/126/131 955/125/130 953/354/252 952/355/476
f 156/351/426 153/350/425 907/298/433 906/353/432
f 920/16/7 921/15/7 188/21/8 189/22/138
f 1048/337/508 1051/335/509 1050/336/510 1049/338/511
f 263/119/62 266/120/62 265/121/62 264/122/62
f 1015/237/11 1012/236/154 1016/189/155
f 1016/189/155 1017/188/154 1015/237/11
f 856/186/512 857/187/513 855/188/11 854/189/165
f 858/365/514 859/364/515 857/187/513 856/186/512
f 860/362/516 861/363/516 859/364/515 858/365/514
f 1020/365/459 1021/364/458 1019/187/153 1018/186/152
f 1027/342/62 1024/345/202 1028/379/62
f 43/39/120 46/42/120 45/41/120 44/40/120
f 142/55/17 143/56/20 865/57/407 862/58/22
f 19/232/11 22/235/11 21/234/11 20/233/11
f 68/346/455 69/347/455 72/348/105 71/349/35
f 777/138/409 779/218/175 778/221/178 776/139/422
f 1051/335/509 1054/151/108 1052/154/111 1050/336/510
f 1038/380/517 1035/336/382 1037/154/381
f 1038/380/517 1037/154/381 1040/153/489
f 800/12/5 801/11/5 797/127/29 798/128/29
f 169/159/518 170/160/84 160/112/67 157/111/67
f 938/175/500 939/176/44 937/132/88 936/131/88
f 912/51/69 913/52/3 911/53/18 910/54/18
f 543/86/49 544/303/313 548/177/142 547/87/50
f 223/58/407 226/57/406 225/128/466 224/127/465
f 363/371/519 366/374/14 365/373/14 364/372/519
f 141/212/63 144/213/63 143/56/20 142/55/17
f 171/13/69 172/14/520 909/15/7 908/16/7
f 1053/380/521 1050/336/510 1052/154/111
f 1053/380/521 1052/154/111 1055/153/110
f 862/58/22 865/57/407 864/128/29 863/127/29
f 1059/381/10 1058/382/2 1057/383/2
f 1057/383/2 1060/384/10 1059/381/10
f 1060/384/10 1062/385/2 1061/386/2
f 1061/386/2 1063/387/10 1060/384/10
f 1060/384/10 1063/387/10 1059/381/10
f 1081/387/23 1083/388/522 1082/389/522 1077/381/23
f 1068/264/124 1067/390/23 1066/391/23
f 1066/391/23 1069/392/124 1068/264/124
f 1069/392/124 1071/393/23 1070/394/23
f 1070/394/23 1072/261/124 1069/392/124
f 1069/392/124 1072/261/124 1068/264/124
f 1090/261/2 1092/262/523 1091/263/2 1086/264/2
f 1077/381/23 1076/382/124 1075/383/23
f 1075/383/23 1078/384/23 1077/381/23
f 1078/384/23 1080/385/23 1079/386/23
f 1079/386/23 1081/387/23 1078/384/23
f 1078/384/23 1081/387/23 1077/381/23
f 772/267/296 771/332/524 770/321/343 769/265/336
f 1086/264/2 1085/390/2 1084/391/2
f 1084/391/2 1087/392/2 1086/264/2
f 1087/392/2 1089/393/2 1088/394/2
f 1088/394/2 1090/261/2 1087/392/2
f 1087/392/2 1090/261/2 1086/264/2
f 1063/387/10 1065/388/10 1064/389/10 1059/381/10
f 169/159/518 172/14/520 171/13/69 170/160/84
f 678/312/370 679/161/180 657/133/182 654/310/390
f 727/86/322 728/303/317 732/177/331 731/87/323
f 718/135/96 720/307/376 725/308/315 724/309/314
f 980/175/47 981/176/47 979/132/88 978/131/525
f 1097/296/319 1098/295/261 676/178/264 677/314/284
f 1094/295/250 804/306/461 486/179/396 487/178/372
f 557/294/383 556/162/123 1096/295/272 1095/296/526
f 474/135/265 103/136/364 104/133/276 808/134/305
f 741/294/394 740/162/393 1100/295/369 1099/296/368
f 1098/295/261 680/162/181 679/161/180 928/306/262
f 1095/296/526 1096/295/272 552/178/143 553/314/395
f 103/136/364 474/135/265 473/309/267 472/319/312
f 102/311/365 103/136/364 472/319/312 471/320/392
f 472/305/312 473/300/267 479/303/321 478/86/308
f 662/304/527 663/305/312 667/86/96 666/85/274
f 978/131/525 979/132/88 973/64/44 974/63/44
f 655/311/391 656/136/313 663/319/312 662/320/527
f 1094/295/250 810/162/249 806/161/279 804/306/461
f 837/125/130 105/124/129 106/130/473
f 826/129/477 106/130/473 830/359/475
f 926/12/5 927/11/5 923/127/29 924/128/29
f 833/94/80 835/354/252 837/125/130
f 826/129/477 827/95/81 833/94/80
f 849/298/443 109/350/429 110/299/493
f 838/297/438 110/299/493 842/358/496
f 296/194/169 297/195/168 280/185/172 281/184/171
f 845/90/53 847/168/444 849/298/443
f 838/297/438 839/91/54 845/90/53
f 895/125/78 149/124/77 150/130/87
f 884/129/85 150/130/87 888/359/468
f 195/76/34 198/75/34 197/81/40 196/82/40
f 891/94/86 893/354/501 895/125/78
f 884/129/85 885/95/435 891/94/86
f 907/298/433 153/350/425 154/299/58
f 896/297/499 154/299/58 900/358/442
f 956/297/505 963/90/480 967/298/430 212/299/493
f 903/90/127 905/168/126 907/298/433
f 896/297/499 897/91/114 903/90/127
f 955/125/130 207/124/507 208/130/418
f 944/129/417 208/130/418 948/359/446
f 922/58/21 925/57/21 924/128/29 923/127/29
f 951/94/57 953/354/252 955/125/130
f 944/129/417 945/95/58 951/94/57
f 967/298/430 211/350/429 212/299/493
f 956/297/505 212/299/493 960/358/496
f 838/297/438 845/90/53 849/298/443 110/299/493
f 963/90/480 965/168/444 967/298/430
f 956/297/505 957/91/481 963/90/480
f 997/125/136 231/124/77 232/130/137
f 986/129/134 232/130/137 990/359/468
f 271/324/75 274/325/75 273/326/75 272/327/75
f 993/94/135 995/354/470 997/125/136
f 986/129/134 987/95/435 993/94/135
f 1009/298/253 235/350/425 236/299/254
f 998/297/252 236/299/254 1002/358/442
f 896/297/499 903/90/127 907/298/433 154/299/58
f 1005/90/113 1007/168/453 1009/298/253
f 998/297/252 999/91/114 1005/90/113
f 399/395/75 402/396/75 401/397/75 400/398/75
