# Blender 3.6.22
# www.blender.org
mtllib ripper.mtl
o ripper
v 0.023598 0.715462 0.010344
v 0.023987 0.860752 -0.043657
v 0.044665 0.724005 -0.024431
v 0.092018 0.452038 0.114619
v 0.059509 0.558408 0.096605
v 0.102555 0.382368 0.098792
v 0.086068 0.267461 0.034635
v 0.084129 0.265895 0.048589
v 0.213036 0.303700 0.106425
v 0.157796 0.389255 0.059347
v 0.142191 0.294669 0.153218
v 0.123328 0.274721 0.015936
v 0.082611 0.287537 0.118499
v 0.046225 0.390040 -0.234562
v 0.198939 0.297762 0.050701
v 0.098186 0.278450 0.001102
v 0.155952 0.338932 0.020419
v 0.073405 0.311500 0.115075
v 0.021956 0.724312 -0.055978
v 0.009460 0.869747 -0.069691
v 0.068190 0.528997 -0.090837
v 0.035482 0.659577 0.040232
v 0.046700 0.216943 -0.111054
v 0.044836 0.229272 -0.036156
v 0.046585 0.607352 -0.064339
v 0.016572 0.392219 -0.352237
v 0.055566 0.319594 0.124435
v 0.010713 0.849863 -0.015386
v 0.045080 0.253920 0.072698
v 0.020092 0.280124 -0.327672
v 0.009001 0.326644 -0.397363
v 0.088464 0.635155 -0.011026
v 0.115883 0.565268 -0.007761
v 0.156741 0.455754 -0.036420
v 0.052156 0.450514 -0.133076
v 0.152444 0.363818 -0.045078
v 0.095927 0.284604 -0.069950
v 0.041442 0.241909 -0.233683
v 0.111662 0.448206 -0.111550
v 0.111662 0.369505 -0.118489
v 0.075279 0.299856 -0.182555
v 0.041608 0.331056 -0.294831
v 0.022202 0.363169 -0.386001
v 0.008489 0.419965 -0.459702
v 0.009001 0.395222 -0.464492
v 0.009001 0.412143 -0.475301
v 0.077172 0.199678 0.003599
v 0.195059 0.193704 0.053520
v 0.136315 0.191797 0.098288
v 0.137887 0.195501 -0.015862
v 0.096691 0.196382 0.060492
v 0.184033 0.198990 0.020078
v 0.291477 0.058990 0.304943
v 0.340153 0.059034 0.269535
v 0.264417 0.088347 0.281852
v 0.327118 0.088347 0.233862
v 0.218392 0.113772 0.216803
v 0.276662 0.113772 0.172118
v 0.129715 0.090324 0.144656
v 0.237617 0.090324 0.062951
v 0.119609 0.130546 0.091883
v 0.189561 0.130546 0.038913
v 0.374674 0.030887 0.206758
v 0.332983 0.059564 0.166632
v 0.316715 0.059294 0.145409
v 0.247231 0.041231 0.059281
v 0.224918 0.064237 0.015750
v 0.374986 0.004876 0.198409
v 0.230185 0.030362 0.318868
v 0.198271 0.058529 0.269194
v 0.182004 0.058258 0.247970
v 0.124088 0.040770 0.152525
v 0.086158 0.063353 0.120821
v 0.219763 0.005113 0.315928
v 0.344602 0.004421 0.159847
v 0.190892 0.005113 0.276237
v 0.315979 0.004421 0.122046
v 0.162270 0.005113 0.238436
v 0.242129 0.004421 0.065331
v 0.125655 0.005113 0.159115
v 0.205306 0.004447 -0.017958
v 0.063355 0.005086 0.089529
v 0.112134 0.004575 -0.082137
v 0.027158 0.004958 -0.017791
v 0.205306 0.072660 -0.017958
v 0.063355 0.073300 0.089529
v 0.128330 0.072789 -0.060423
v 0.043353 0.073171 0.003922
v 0.181499 0.119873 0.000069
v 0.087161 0.120513 0.071503
v 0.131954 0.120001 -0.031819
v 0.069903 0.120385 0.015167
v 0.405427 0.000868 0.414666
v 0.354768 0.004748 0.266977
v 0.288861 0.005743 0.317359
v 0.464032 0.003767 0.278497
v 0.272842 0.001911 0.417940
v 0.344983 0.064082 0.322842
v 0.266832 0.050305 0.357992
v 0.401901 0.053644 0.258818
v 0.095845 0.691444 0.032483
v 0.126666 0.617011 0.063416
v 0.121669 0.461936 0.134459
v 0.141413 0.547108 0.142995
v 0.098549 0.697299 -0.006612
v 0.152531 0.622315 0.021708
v 0.175458 0.556326 0.048720
v 0.159730 0.457591 0.048522
v 0.041595 1.053085 0.171044
v 0.041595 1.068594 0.087917
v 0.026157 1.029443 0.016067
v 0.054962 0.936174 0.167320
v 0.041595 1.073791 0.250281
v 0.097577 0.950929 0.264188
v 0.041595 1.080785 0.294889
v 0.021119 1.020812 0.311624
v 0.045289 1.139050 0.007177
v 0.026157 1.105877 -0.014111
v 0.026157 1.095578 -0.053897
v 0.041595 1.136665 0.316007
v 0.026157 0.927621 -0.022847
v 0.032244 0.956773 -0.014231
v 0.026157 0.848544 0.072971
v 0.032244 0.881418 0.075987
v 0.029913 0.867985 0.142180
v 0.026157 0.894246 0.132358
v 0.041595 1.231330 -0.025290
v 0.041595 1.247988 -0.124472
v 0.044647 1.228912 0.028356
v 0.045668 1.271702 0.019796
v 0.044647 1.240323 0.066096
v 0.045668 1.265532 0.069778
v 0.060155 1.087755 -0.176979
v 0.060155 1.190413 -0.202272
v 0.026157 0.993337 -0.111042
v 0.024874 1.040946 0.380982
v 0.041595 1.138379 0.382657
v 0.041595 1.086412 0.414782
v 0.076136 1.084851 0.310003
v 0.054976 1.048689 0.329078
v 0.061533 1.116597 0.316655
v 0.054976 1.047029 0.366406
v 0.061533 1.117347 0.371046
v 0.076136 1.084199 0.393217
v 0.081531 1.041059 0.164834
v 0.072694 1.064256 0.087666
v 0.072694 1.037730 0.015432
v 0.094213 0.970130 0.167459
v 0.112697 1.058570 0.231913
v 0.134130 0.978735 0.257066
v 0.083635 1.064452 0.278180
v 0.088209 1.014980 0.291882
v 0.123689 1.136387 0.001868
v 0.114134 1.105877 -0.014111
v 0.141778 1.121012 -0.095299
v 0.106613 1.095578 -0.042178
v 0.072694 0.952128 -0.019000
v 0.072694 0.957966 -0.012027
v 0.072694 0.982896 -0.060253
v 0.084701 1.208264 -0.024389
v 0.110691 1.211695 -0.123571
v 0.098512 1.215681 0.028356
v 0.076253 1.263311 0.026144
v 0.090552 1.227091 0.049077
v 0.076253 1.259286 0.048930
v 0.093904 1.096265 -0.141904
v 0.086543 1.170743 -0.174438
v 0.066358 0.862780 0.070606
v 0.066358 0.889241 0.073369
v 0.057929 0.874730 0.122022
v 0.057929 0.893929 0.116966
v 0.143449 1.139050 -0.009313
v 0.153417 1.127913 -0.008431
v 0.196798 1.116663 -0.066034
v 0.204364 1.125127 -0.080395
v 0.201855 1.110225 -0.082338
v 0.193618 1.102044 -0.068351
v 0.120069 1.196586 -0.072648
v 0.129429 1.191492 -0.105680
v 0.110234 1.210404 -0.069425
v 0.121056 1.211911 -0.109830
v 0.218285 1.341604 -0.196860
v 0.198800 1.358765 -0.021275
v 0.206550 1.309454 -0.196100
v 0.193517 1.333774 -0.016506
v 0.475249 1.271101 -0.078104
v 0.438181 1.242576 -0.077648
v 0.020939 1.207608 0.016434
v 0.009459 1.175228 0.027903
v 0.005643 1.143982 0.031566
v 0.016772 1.113919 0.035229
v 0.036725 1.093095 0.037910
v 0.099540 1.114498 0.001332
v 0.102208 1.145070 -0.006092
v 0.092228 1.174467 -0.013373
v 0.069153 1.205637 -0.023975
v 0.044572 1.211479 -0.025678
v 0.043560 1.218029 0.015452
v 0.037737 1.086561 0.007445
v 0.017784 1.106906 0.002259
v 0.007803 1.136304 -0.005021
v 0.010470 1.166875 -0.012445
v 0.021951 1.201254 -0.023440
v 0.068141 1.212023 0.016434
v 0.091216 1.182876 0.027903
v 0.101196 1.152813 0.031566
v 0.098529 1.121567 0.035229
v 0.083928 1.097511 0.037910
v 0.055894 1.214667 0.034414
v 0.070003 1.187455 0.059044
v 0.076701 1.158100 0.067525
v 0.077315 1.126147 0.066370
v 0.071680 1.100154 0.055889
v 0.032292 1.212459 0.034414
v 0.029124 1.183631 0.059044
v 0.029499 1.153685 0.067524
v 0.036436 1.122322 0.066370
v 0.048079 1.097946 0.055889
v 0.061306 1.087089 0.038891
v 0.084940 1.090944 0.006910
v 0.062318 1.080719 0.009147
v 0.051180 1.276978 0.069778
v 0.018415 1.268849 0.060418
v 0.088572 1.268706 0.048930
v 0.053938 1.309412 0.069791
v 0.020300 1.296097 0.061167
v 0.090940 1.279170 0.051005
v 0.362243 1.322313 -0.218386
v 0.343713 1.347389 0.034536
v 0.343653 1.298521 -0.223278
v 0.332288 1.327828 0.040899
v 0.465823 1.248281 -0.203509
v 0.446819 1.233081 -0.209561
v 0.449903 1.263865 0.041712
v 0.432416 1.248042 0.046981
v 0.548765 1.003757 -0.068402
v 0.526081 0.993862 -0.068589
v 0.528735 1.032960 -0.155116
v 0.506651 1.023006 -0.161599
v 0.520024 1.051134 0.041414
v 0.499114 1.039429 0.038307
v 0.048796 0.885592 0.094328
v 0.040220 0.918896 0.101369
v 0.048111 0.888657 0.111063
v 0.034308 0.886447 0.093991
v 0.033904 0.885331 0.111063
v 0.048375 0.946868 0.167541
v 0.048728 0.954403 0.187925
v 0.064581 0.946868 0.167541
v 0.052165 0.910831 0.171266
v 0.065705 0.946099 0.187423
v 0.051180 1.276978 0.081053
v 0.088572 1.268706 0.060205
v 0.018415 1.268849 0.071691
v 0.020300 1.296097 0.072441
v 0.053938 1.309412 0.081066
v 0.090940 1.279170 0.062279
v 0.064985 0.965470 0.139244
v 0.064633 0.973911 0.120687
v 0.048780 0.965470 0.139244
v 0.054050 0.940594 0.117831
v 0.047656 0.973292 0.120949
v 0.064985 0.994714 0.084860
v 0.064633 1.012254 0.066304
v 0.048780 0.994714 0.084860
v 0.053976 0.968097 0.068667
v 0.047656 1.002536 0.066565
v 0.060042 0.901132 0.043393
v 0.052041 0.926877 0.061990
v 0.059402 0.897421 0.058825
v 0.046526 0.901990 0.043429
v 0.046148 0.894584 0.057568
v 0.060042 0.932885 0.006983
v 0.052041 0.958629 0.025580
v 0.059402 0.924465 0.022416
v 0.046526 0.933742 0.007019
v 0.046148 0.926336 0.021158
v 0.048036 0.960774 0.237927
v 0.048404 0.964992 0.255814
v 0.064971 0.961701 0.237927
v 0.051996 0.916317 0.253120
v 0.066146 0.956567 0.257960
v -0.026774 0.715462 0.010344
v -0.027163 0.860752 -0.043657
v -0.047841 0.724005 -0.024431
v -0.095195 0.452038 0.114619
v -0.062685 0.558408 0.096605
v -0.105732 0.382368 0.098792
v -0.089244 0.267461 0.034635
v -0.087306 0.265895 0.048589
v -0.216212 0.303700 0.106425
v -0.160973 0.389255 0.059347
v -0.145367 0.294669 0.153218
v -0.126505 0.274721 0.015936
v -0.085787 0.287537 0.118499
v -0.049401 0.390040 -0.234562
v -0.202115 0.297762 0.050701
v -0.101363 0.278450 0.001102
v -0.159128 0.338932 0.020419
v -0.076582 0.311500 0.115075
v -0.025133 0.724312 -0.055978
v -0.012637 0.869747 -0.069691
v -0.071366 0.528997 -0.090837
v -0.038658 0.659577 0.040232
v -0.049876 0.216943 -0.111054
v -0.048012 0.229272 -0.036156
v -0.049761 0.607352 -0.064339
v -0.019749 0.392219 -0.352237
v -0.058742 0.319594 0.124435
v -0.013889 0.849863 -0.015386
v -0.048256 0.253920 0.072698
v -0.023268 0.280124 -0.327672
v -0.012178 0.326644 -0.397363
v -0.091640 0.635155 -0.011026
v -0.119059 0.565268 -0.007761
v -0.159917 0.455754 -0.036420
v -0.055332 0.450514 -0.133076
v -0.155621 0.363818 -0.045078
v -0.099104 0.284604 -0.069950
v -0.044618 0.241909 -0.233683
v -0.114838 0.448206 -0.111550
v -0.114838 0.369505 -0.118489
v -0.078455 0.299856 -0.182555
v -0.044785 0.331056 -0.294831
v -0.025378 0.363169 -0.386001
v -0.011666 0.419965 -0.459702
v -0.012178 0.395222 -0.464492
v -0.012178 0.412143 -0.475301
v -0.080348 0.199678 0.003599
v -0.198235 0.193704 0.053520
v -0.139491 0.191797 0.098288
v -0.141063 0.195501 -0.015862
v -0.099868 0.196382 0.060492
v -0.187209 0.198990 0.020078
v -0.294654 0.058990 0.304943
v -0.343329 0.059034 0.269535
v -0.267593 0.088347 0.281852
v -0.330294 0.088347 0.233862
v -0.221569 0.113772 0.216803
v -0.279838 0.113772 0.172118
v -0.132892 0.090324 0.144656
v -0.240793 0.090324 0.062951
v -0.122786 0.130546 0.091883
v -0.192738 0.130546 0.038913
v -0.377851 0.030887 0.206758
v -0.336159 0.059564 0.166632
v -0.319892 0.059294 0.145409
v -0.250407 0.041231 0.059281
v -0.228094 0.064237 0.015750
v -0.378162 0.004876 0.198409
v -0.233362 0.030362 0.318868
v -0.201447 0.058529 0.269194
v -0.185180 0.058258 0.247970
v -0.127265 0.040770 0.152525
v -0.089334 0.063353 0.120821
v -0.222940 0.005113 0.315928
v -0.347778 0.004421 0.159847
v -0.194069 0.005113 0.276237
v -0.319155 0.004421 0.122046
v -0.165446 0.005113 0.238436
v -0.245306 0.004421 0.065331
v -0.128832 0.005113 0.159115
v -0.208482 0.004447 -0.017958
v -0.066532 0.005086 0.089529
v -0.115311 0.004575 -0.082137
v -0.030334 0.004958 -0.017791
v -0.208482 0.072660 -0.017958
v -0.066531 0.073300 0.089529
v -0.131507 0.072789 -0.060423
v -0.046529 0.073171 0.003922
v -0.184676 0.119873 0.000069
v -0.090338 0.120513 0.071503
v -0.135130 0.120001 -0.031819
v -0.073079 0.120385 0.015167
v -0.408603 0.000868 0.414666
v -0.357945 0.004748 0.266977
v -0.292038 0.005743 0.317359
v -0.467208 0.003767 0.278496
v -0.276018 0.001911 0.417940
v -0.348160 0.064082 0.322842
v -0.270009 0.050305 0.357992
v -0.405077 0.053644 0.258818
v -0.099022 0.691444 0.032483
v -0.129843 0.617011 0.063416
v -0.124846 0.461936 0.134459
v -0.144589 0.547108 0.142995
v -0.101725 0.697299 -0.006612
v -0.155708 0.622315 0.021708
v -0.178635 0.556326 0.048720
v -0.162906 0.457591 0.048522
v -0.044772 1.053085 0.171044
v -0.044772 1.068594 0.087917
v -0.029333 1.029443 0.016067
v -0.058138 0.936174 0.167320
v -0.044772 1.073791 0.250281
v -0.100753 0.950929 0.264188
v -0.044772 1.080785 0.294889
v -0.024296 1.020812 0.311624
v -0.048465 1.139050 0.007177
v -0.029333 1.105877 -0.014111
v -0.029333 1.095578 -0.053897
v -0.044772 1.136665 0.316007
v -0.029333 0.927621 -0.022847
v -0.035421 0.956773 -0.014231
v -0.029333 0.848544 0.072971
v -0.035421 0.881418 0.075987
v -0.033089 0.867985 0.142180
v -0.029333 0.894246 0.132358
v -0.044772 1.231330 -0.025290
v -0.044772 1.247988 -0.124472
v -0.047824 1.228912 0.028356
v -0.048844 1.271702 0.019796
v -0.047824 1.240323 0.066096
v -0.048844 1.265532 0.069778
v -0.063331 1.087755 -0.176979
v -0.063331 1.190413 -0.202272
v -0.029333 0.993337 -0.111042
v -0.028050 1.040946 0.380982
v -0.044772 1.138379 0.382657
v -0.044772 1.086412 0.414782
v -0.079313 1.084851 0.310003
v -0.058153 1.048689 0.329078
v -0.064710 1.116597 0.316655
v -0.058153 1.047029 0.366406
v -0.064710 1.117347 0.371046
v -0.079313 1.084199 0.393217
v -0.084707 1.041059 0.164834
v -0.075870 1.064256 0.087666
v -0.075870 1.037730 0.015432
v -0.097390 0.970130 0.167459
v -0.115873 1.058570 0.231913
v -0.137307 0.978735 0.257066
v -0.086812 1.064452 0.278180
v -0.091386 1.014980 0.291882
v -0.126865 1.136387 0.001868
v -0.117311 1.105877 -0.014111
v -0.144954 1.121012 -0.095299
v -0.109790 1.095578 -0.042178
v -0.075870 0.952128 -0.019000
v -0.075870 0.957966 -0.012027
v -0.075870 0.982896 -0.060253
v -0.087878 1.208264 -0.024389
v -0.113867 1.211695 -0.123571
v -0.101689 1.215681 0.028356
v -0.079430 1.263311 0.026144
v -0.093728 1.227091 0.049077
v -0.079430 1.259285 0.048930
v -0.097080 1.096265 -0.141904
v -0.089719 1.170743 -0.174438
v -0.069535 0.862780 0.070606
v -0.069535 0.889242 0.073369
v -0.061105 0.874730 0.122022
v -0.061105 0.893929 0.116966
v -0.146626 1.139050 -0.009313
v -0.156593 1.127913 -0.008431
v -0.199974 1.116663 -0.066034
v -0.207541 1.125127 -0.080395
v -0.205032 1.110225 -0.082338
v -0.196795 1.102044 -0.068351
v -0.123246 1.196586 -0.072648
v -0.132605 1.191492 -0.105680
v -0.113410 1.210404 -0.069425
v -0.124233 1.211911 -0.109830
v -0.221461 1.341604 -0.196860
v -0.201977 1.358765 -0.021275
v -0.209727 1.309454 -0.196100
v -0.196694 1.333774 -0.016506
v -0.478425 1.271101 -0.078104
v -0.441358 1.242576 -0.077648
v -0.024115 1.207608 0.016434
v -0.012636 1.175228 0.027903
v -0.008819 1.143982 0.031566
v -0.019948 1.113919 0.035229
v -0.039902 1.093095 0.037910
v -0.102717 1.114498 0.001332
v -0.105385 1.145070 -0.006092
v -0.095404 1.174467 -0.013373
v -0.072329 1.205637 -0.023975
v -0.047748 1.211479 -0.025678
v -0.046736 1.218029 0.015452
v -0.040913 1.086561 0.007445
v -0.020960 1.106906 0.002259
v -0.010980 1.136304 -0.005021
v -0.013648 1.166875 -0.012445
v -0.025127 1.201254 -0.023440
v -0.071318 1.212023 0.016434
v -0.094392 1.182876 0.027903
v -0.104373 1.152813 0.031566
v -0.101705 1.121567 0.035229
v -0.087104 1.097511 0.037910
v -0.059070 1.214667 0.034414
v -0.073179 1.187455 0.059044
v -0.079878 1.158100 0.067525
v -0.080492 1.126147 0.066370
v -0.074857 1.100154 0.055889
v -0.035469 1.212459 0.034414
v -0.032300 1.183631 0.059044
v -0.032675 1.153685 0.067524
v -0.039613 1.122322 0.066370
v -0.051256 1.097946 0.055889
v -0.064483 1.087089 0.038891
v -0.088117 1.090944 0.006910
v -0.065495 1.080719 0.009147
v -0.054356 1.276978 0.069778
v -0.021591 1.268849 0.060418
v -0.091748 1.268705 0.048930
v -0.057114 1.309412 0.069791
v -0.023476 1.296096 0.061167
v -0.094117 1.279170 0.051005
v -0.365419 1.322313 -0.218386
v -0.346890 1.347389 0.034536
v -0.346830 1.298522 -0.223278
v -0.335464 1.327828 0.040899
v -0.468999 1.248281 -0.203509
v -0.449996 1.233081 -0.209561
v -0.453080 1.263865 0.041712
v -0.435592 1.248042 0.046981
v -0.551941 1.003757 -0.068402
v -0.529258 0.993862 -0.068589
v -0.531911 1.032960 -0.155116
v -0.509827 1.023006 -0.161599
v -0.523201 1.051134 0.041414
v -0.502290 1.039428 0.038307
v -0.001588 0.725084 -0.064167
v -0.001588 0.869747 -0.069691
v -0.001588 0.608123 -0.072528
v -0.001588 0.529768 -0.099026
v -0.001588 0.409871 -0.228393
v -0.001588 0.404013 -0.348569
v -0.001588 0.556790 0.113791
v -0.001588 0.657664 0.060542
v -0.001588 0.848609 -0.013107
v -0.001588 0.715495 0.016403
v -0.001588 0.433904 0.139737
v -0.001588 0.318711 0.133809
v -0.001588 0.253920 0.072698
v -0.001588 0.216243 -0.036156
v -0.001588 0.203915 -0.111054
v -0.001588 0.267094 -0.327672
v -0.001588 0.313614 -0.397363
v -0.001588 0.451759 -0.146283
v -0.001588 0.228880 -0.233683
v -0.001588 0.419965 -0.459702
v -0.001588 0.382194 -0.464492
v -0.001588 0.412143 -0.475301
v -0.001588 0.435483 0.192988
v -0.001588 0.544746 0.189952
v -0.001588 1.079100 0.248159
v -0.001588 1.080137 0.286454
v -0.001588 1.073902 0.085795
v -0.001588 1.058394 0.168921
v -0.001588 0.965685 0.166685
v -0.001588 0.964140 0.283732
v -0.001588 1.020193 0.316181
v -0.001588 1.019279 0.015432
v -0.001588 1.141853 0.002988
v -0.001588 1.105877 -0.014111
v -0.001588 1.095578 -0.053026
v -0.001588 0.927621 -0.022847
v -0.001588 0.950734 -0.018657
v -0.001588 0.841231 0.078081
v -0.001588 0.877186 0.070958
v -0.001588 0.860206 0.156722
v -0.001588 0.882851 0.146442
v -0.001588 1.243620 -0.026040
v -0.001588 1.260742 -0.121792
v -0.001588 1.220440 0.033990
v -0.001588 1.251311 0.019796
v -0.001588 1.235260 0.056736
v -0.001588 1.248996 0.060418
v -0.001588 1.087755 -0.200786
v -0.001588 1.204513 -0.220955
v -0.001588 0.993337 -0.111042
v -0.001588 1.147967 0.310218
v -0.001588 1.038985 0.387521
v -0.001588 1.147379 0.390889
v -0.001588 1.087478 0.425265
v -0.051972 0.885592 0.094328
v -0.043396 0.918896 0.101369
v -0.051287 0.888657 0.111063
v -0.037485 0.886447 0.093991
v -0.037080 0.885331 0.111063
v -0.051551 0.946868 0.167541
v -0.051904 0.954403 0.187925
v -0.067757 0.946868 0.167541
v -0.055342 0.910831 0.171266
v -0.068882 0.946099 0.187423
v -0.054356 1.276978 0.081053
v -0.091748 1.268705 0.060205
v -0.021591 1.268849 0.071691
v -0.023476 1.296096 0.072441
v -0.057114 1.309412 0.081066
v -0.094117 1.279170 0.062279
v -0.068162 0.965470 0.139244
v -0.067809 0.973911 0.120687
v -0.051956 0.965470 0.139244
v -0.057226 0.940594 0.117831
v -0.050832 0.973292 0.120949
v -0.068162 0.994714 0.084860
v -0.067809 1.012254 0.066304
v -0.051956 0.994714 0.084860
v -0.057153 0.968097 0.068667
v -0.050832 1.002536 0.066565
v -0.063218 0.901132 0.043393
v -0.055217 0.926877 0.061990
v -0.062579 0.897421 0.058825
v -0.049702 0.901990 0.043429
v -0.049325 0.894584 0.057568
v -0.063218 0.932885 0.006983
v -0.055217 0.958629 0.025580
v -0.062579 0.924465 0.022416
v -0.049702 0.933742 0.007019
v -0.049325 0.926336 0.021158
v -0.051212 0.960774 0.237927
v -0.051581 0.964992 0.255814
v -0.068148 0.961701 0.237927
v -0.055173 0.916317 0.253120
v -0.069323 0.956567 0.257960
vn 0.8759 0.4319 -0.2151
vn 0.5463 0.0824 -0.8335
vn 0.4643 -0.2133 -0.8596
vn 0.9936 -0.1071 -0.0356
vn 0.6744 -0.6698 -0.3108
vn -0.0000 -0.9528 -0.3036
vn -0.0000 -0.8747 -0.4847
vn 0.7294 -0.5493 -0.4077
vn -0.0166 -0.2634 0.9646
vn -0.7863 -0.1673 0.5947
vn 0.0800 0.0184 0.9966
vn 0.5093 0.2878 0.8111
vn 0.8648 0.4029 0.2996
vn 0.9016 0.1729 0.3965
vn 0.8181 0.1668 -0.5503
vn 0.9032 -0.0940 -0.4188
vn 0.4569 -0.8776 0.1453
vn -0.0000 -0.9757 0.2191
vn -0.0000 -0.9998 -0.0193
vn 0.5803 -0.8118 -0.0645
vn 0.3089 -0.8105 0.4976
vn -0.0000 -0.8436 0.5370
vn 0.3639 0.5185 0.7738
vn -0.0000 0.4064 0.9137
vn -0.0000 0.5314 0.8471
vn 0.1053 0.4961 0.8619
vn 0.2324 -0.0755 -0.9697
vn 0.6075 -0.7688 -0.1998
vn -0.0000 0.0185 -0.9998
vn -0.0000 -0.1901 -0.9818
vn 0.4794 0.2776 -0.8326
vn -0.0000 0.2202 -0.9755
vn -0.0000 0.4136 -0.9105
vn 0.4504 0.4286 -0.7832
vn 0.3888 0.5523 -0.7374
vn -0.0000 0.7217 -0.6922
vn 0.7835 0.6188 -0.0563
vn -0.0000 0.9991 0.0435
vn -0.0000 0.9457 -0.3251
vn 0.7428 0.5492 -0.3828
vn 0.9569 -0.0332 -0.2884
vn 0.9819 -0.0226 -0.1879
vn 0.0467 0.7917 0.6091
vn -0.0000 0.8614 0.5080
vn 0.5125 0.1177 0.8506
vn -0.0000 0.1620 0.9868
vn 0.3479 0.6726 0.6532
vn 0.6577 0.6324 -0.4092
vn 0.3537 -0.3307 0.8749
vn 0.4774 -0.7231 0.4992
vn -0.0000 -0.7059 0.7083
vn -0.0000 -0.3532 0.9355
vn -0.0000 -0.7763 -0.6303
vn 0.7934 -0.4355 -0.4253
vn -0.9665 -0.2091 -0.1490
vn 0.2642 -0.9638 0.0360
vn 0.9374 0.1432 -0.3176
vn 0.7724 -0.6346 0.0282
vn 0.5721 -0.6093 0.5491
vn 0.4228 0.6224 0.6587
vn 0.6031 0.1454 -0.7843
vn 0.7377 0.2329 -0.6336
vn 0.7094 0.3230 -0.6264
vn 0.9377 -0.2286 -0.2616
vn 0.8318 -0.5323 -0.1575
vn 0.8869 -0.0141 -0.4618
vn 0.9262 -0.2277 -0.3004
vn 0.7129 -0.3809 -0.5889
vn 0.6111 0.2727 -0.7431
vn 0.6605 0.7425 -0.1120
vn -0.0000 -0.6208 -0.7840
vn -0.0000 0.9878 -0.1555
vn -0.0000 0.3452 -0.9385
vn -0.8520 0.1873 -0.4889
vn -0.8658 -0.0729 0.4951
vn 0.7832 0.1272 -0.6087
vn 0.0634 0.2484 -0.9666
vn 0.0306 -0.3355 0.9415
vn 0.9429 -0.2020 0.2649
vn 0.0153 0.8264 0.5628
vn 0.5266 0.8265 0.1990
vn 0.5463 0.8295 0.1163
vn -0.0403 0.8255 0.5630
vn 0.3384 0.9238 -0.1792
vn -0.2814 0.9184 0.2782
vn -0.4382 0.7353 0.5170
vn 0.6258 0.7295 -0.2759
vn 0.9158 0.3672 0.1626
vn -0.1612 0.4345 0.8861
vn 0.6832 0.5158 -0.5170
vn 0.7569 0.5164 -0.4006
vn 0.7383 0.4119 -0.5341
vn 0.8164 0.1834 -0.5476
vn 0.8687 0.2256 -0.4410
vn -0.6018 0.4879 0.6323
vn -0.6757 0.5100 0.5323
vn -0.7288 0.4000 0.5557
vn -0.6994 0.2442 0.6717
vn -0.7607 0.2267 0.6083
vn 0.5637 -0.6398 -0.5225
vn 0.6151 -0.6248 -0.4809
vn 0.5769 -0.6262 -0.5245
vn 0.5095 -0.7764 -0.3709
vn 0.5579 -0.6504 -0.5155
vn -0.6133 -0.6351 0.4695
vn -0.6478 -0.6321 0.4252
vn -0.6714 -0.6175 0.4098
vn -0.5720 -0.7146 0.4028
vn -0.6635 -0.6531 0.3651
vn 0.2680 0.9304 0.2499
vn 0.5562 -0.2193 0.8016
vn -0.8105 -0.4857 -0.3275
vn -0.0947 -0.4874 -0.8681
vn -0.8354 0.3012 0.4599
vn -0.8898 0.3803 -0.2522
vn -0.0000 0.3811 -0.9245
vn 0.7082 0.2940 -0.6419
vn -0.7844 0.3735 0.4952
vn -0.8792 0.3797 -0.2877
vn -0.0074 0.3710 -0.9286
vn 0.7189 0.3560 -0.5971
vn 0.2424 -0.9367 0.2525
vn 0.1407 -0.9456 0.2932
vn 0.1109 -0.2793 0.9538
vn 0.9024 -0.2559 0.3466
vn -0.0868 0.8838 0.4597
vn 0.4134 0.9056 0.0943
vn -0.0000 -0.6679 0.7443
vn -0.0000 0.5588 0.8293
vn 0.5953 0.3351 0.7303
vn 0.8694 0.3846 -0.3101
vn 0.9781 0.2059 -0.0300
vn 0.1023 -0.5072 0.8558
vn -0.0143 -0.6956 0.7183
vn 0.8798 -0.0352 0.4740
vn 0.6627 -0.4170 0.6220
vn 0.0428 0.2916 0.9556
vn 0.6593 0.2092 0.7221
vn 0.0509 0.9642 -0.2603
vn 0.0504 0.6340 0.7717
vn 0.6416 0.5977 0.4807
vn 0.6139 0.7634 -0.2008
vn 0.1586 0.9740 -0.1618
vn -0.0000 0.9843 -0.1765
vn -0.0000 0.8242 -0.5663
vn 0.5730 0.6061 -0.5517
vn -0.0000 0.9996 -0.0293
vn 0.1665 0.9848 -0.0504
vn 0.1181 0.8906 0.4393
vn -0.0000 0.8961 0.4438
vn -0.0000 -0.7171 -0.6970
vn 0.0755 -0.6459 -0.7597
vn 0.1073 -0.9677 -0.2281
vn -0.0000 -0.9842 -0.1770
vn 0.3197 -0.8332 0.4512
vn -0.0000 -0.7882 0.6155
vn 0.3526 -0.6620 0.6614
vn -0.0000 -0.8058 0.5922
vn -0.0000 -0.8867 -0.4623
vn 0.0259 -0.8960 -0.4434
vn -0.0000 0.2532 0.9674
vn 0.6067 -0.5731 -0.5509
vn 0.8120 -0.4613 -0.3575
vn -0.0000 -0.5137 0.8580
vn -0.0739 -0.4798 0.8743
vn -0.0000 -0.6537 0.7568
vn 0.4003 0.8961 -0.1917
vn 0.2941 0.9265 -0.2349
vn 0.7054 0.7061 -0.0615
vn 0.6603 0.6176 -0.4273
vn -0.0000 0.5480 0.8365
vn -0.1268 0.5271 0.8403
vn 0.5245 0.6805 0.5117
vn 0.7473 0.6599 -0.0779
vn -0.0000 0.9549 0.2970
vn -0.2010 0.9543 0.2213
vn -0.0000 -0.8837 0.4681
vn 0.6790 -0.7323 0.0514
vn 0.2763 -0.9308 -0.2393
vn -0.0000 -0.9860 -0.1670
vn -0.0000 0.7555 0.6552
vn 0.0925 0.8944 0.4376
vn 0.4929 -0.3769 0.7842
vn -0.0000 -0.4486 0.8937
vn -0.0000 0.9875 -0.1578
vn -0.0000 0.9871 -0.1602
vn 0.2876 -0.8196 0.4956
vn -0.0000 -0.8196 0.5729
vn -0.0000 0.9782 -0.2079
vn -0.0000 0.5255 0.8508
vn 0.9201 -0.2846 0.2693
vn 0.5154 0.0143 0.8569
vn -0.0000 -0.6717 0.7408
vn 0.4739 -0.4204 -0.7737
vn 0.4967 0.3359 -0.8003
vn 0.7372 0.1394 -0.6611
vn 0.7339 -0.3400 -0.5880
vn -0.0000 -0.4229 -0.9062
vn -0.0000 0.4288 -0.9034
vn 0.7570 0.5695 0.3203
vn 0.3918 -0.5174 -0.7607
vn -0.0000 -0.4953 -0.8687
vn -0.0000 0.8243 -0.5662
vn 0.4433 0.7463 -0.4966
vn 0.4326 -0.0733 0.8986
vn 0.6309 -0.7304 0.2617
vn 0.8617 -0.0875 0.4998
vn -0.0000 -0.0584 0.9983
vn -0.0000 0.8614 0.5079
vn 0.4644 0.7828 0.4141
vn 0.6955 -0.6807 -0.2302
vn 0.8582 -0.0352 -0.5121
vn 0.7120 0.5278 -0.4630
vn 0.7906 0.5688 0.2267
vn 0.7310 0.6576 -0.1822
vn 0.5087 -0.8299 0.2289
vn 0.7366 -0.5904 -0.3299
vn 0.7241 -0.4973 -0.4779
vn 0.7593 0.0756 -0.6464
vn 0.9113 -0.1016 -0.3990
vn 0.8841 0.1130 0.4534
vn 0.6224 0.1354 0.7709
vn 0.1720 -0.5004 0.8486
vn 0.7530 -0.3347 0.5666
vn 0.5792 0.7520 0.3147
vn 0.7612 0.5816 0.2869
vn 0.7689 -0.6250 -0.1350
vn 0.8706 0.3300 -0.3650
vn 0.7517 -0.5275 -0.3958
vn 0.6124 -0.2844 0.7376
vn 0.3173 0.7584 0.5693
vn 0.7784 0.0358 0.6268
vn 0.7104 -0.2683 0.6507
vn -0.3999 0.6779 -0.6169
vn -0.1972 0.8789 0.4344
vn -0.3211 -0.5977 -0.7346
vn -0.2107 -0.4415 0.8722
vn -0.4413 0.7981 0.4102
vn -0.3487 0.6880 -0.6364
vn -0.5198 -0.7859 0.3350
vn -0.8302 -0.4528 0.3253
vn -0.8543 -0.5143 0.0755
vn -0.5015 -0.8492 0.1655
vn 0.5608 0.8267 0.0450
vn 0.8497 0.4855 0.2055
vn 0.8860 0.4593 -0.0644
vn 0.5429 0.8305 -0.1250
vn -0.7535 0.6550 0.0558
vn -0.0971 0.9948 -0.0312
vn -0.0909 0.9832 -0.1586
vn -0.7282 0.6731 -0.1292
vn 0.9114 -0.2434 0.3317
vn 0.6678 -0.6599 0.3444
vn 0.6709 -0.7208 0.1741
vn 0.9521 -0.2925 0.0895
vn -0.9605 -0.0784 0.2671
vn -0.9929 -0.1177 -0.0180
vn 0.0898 -0.9358 0.3410
vn 0.0998 -0.9724 0.2110
vn 0.2408 0.8665 0.4373
vn 0.3948 0.5266 0.7529
vn 0.4620 -0.1996 0.8641
vn 0.3679 -0.6012 0.7094
vn 0.9508 0.1474 0.2726
vn 0.4669 0.1653 0.8687
vn -0.4053 -0.3030 0.8625
vn -0.2410 -0.6660 0.7060
vn -0.4831 0.4166 0.7701
vn -0.4844 0.0548 0.8731
vn -0.4345 0.7801 0.4503
vn 0.9924 0.1234 0.0016
vn -0.9436 0.2494 0.2179
vn -0.9767 0.2026 -0.0705
vn -0.0464 -0.7386 -0.6726
vn -0.4682 -0.6110 -0.6383
vn -0.5512 0.4735 -0.6870
vn 0.1106 0.8484 -0.5176
vn 0.2561 -0.6499 -0.7156
vn 0.6222 0.2876 -0.7281
vn -0.3529 -0.3438 0.8702
vn 0.1672 0.7903 0.5895
vn -0.2493 -0.5343 -0.8077
vn 0.2622 0.6833 -0.6815
vn 0.8006 0.5992 -0.0000
vn -0.8039 -0.5947 0.0098
vn 0.5878 0.4461 0.6749
vn -0.4793 -0.3082 0.8217
vn 0.6798 0.3617 -0.6380
vn -0.2856 -0.4353 -0.8538
vn -0.4024 -0.6550 0.6396
vn 0.6703 -0.1639 0.7238
vn 0.8780 -0.4762 0.0481
vn 0.7799 -0.2709 -0.5643
vn -0.3497 -0.6733 -0.6515
vn -0.2631 -0.9645 0.0213
vn -0.7197 0.3142 0.6191
vn -0.0356 0.9986 -0.0398
vn -0.6580 0.2789 -0.6994
vn 0.6554 0.3140 -0.6870
vn 0.6140 0.3817 0.6909
vn -0.7186 0.4733 0.5096
vn 0.1392 0.7148 0.6854
vn 0.5527 -0.7386 0.3860
vn 0.0742 -0.5910 0.8033
vn 0.8539 0.2477 0.4578
vn -0.5838 -0.6555 0.4790
vn 0.4406 -0.5082 0.7400
vn -0.1287 -0.9814 -0.1427
vn 0.6835 -0.3041 -0.6636
vn -0.7904 -0.1447 -0.5953
vn -0.6671 -0.3114 0.6767
vn -0.6591 -0.0574 -0.7498
vn -0.0714 -0.9193 -0.3871
vn -0.6260 -0.5807 0.5205
vn 0.6571 -0.6365 0.4039
vn 0.6298 -0.1345 -0.7650
vn -0.4746 -0.1401 -0.8690
vn -0.0592 -0.9664 -0.2502
vn -0.6771 -0.4744 0.5625
vn 0.8029 -0.5149 0.3004
vn 0.5920 -0.1849 -0.7845
vn -0.7197 0.0364 0.6933
vn -0.0356 0.9290 0.3683
vn -0.6580 0.5384 -0.5264
vn 0.6554 0.5654 -0.5008
vn 0.6140 0.0690 0.7863
vn -0.6564 0.0165 0.7542
vn -0.0288 0.9295 0.3677
vn 0.7387 0.5302 -0.4162
vn 0.5878 0.0519 0.8073
vn 0.6498 -0.3118 0.6932
vn -0.1165 -0.9867 0.1138
vn 0.5497 -0.4022 -0.7321
vn -0.6862 -0.2892 -0.6674
vn -0.7918 -0.0919 0.6039
vn -0.8759 0.4319 -0.2151
vn -0.9936 -0.1071 -0.0356
vn -0.4643 -0.2133 -0.8596
vn -0.5463 0.0824 -0.8335
vn -0.6744 -0.6698 -0.3108
vn -0.7294 -0.5493 -0.4077
vn 0.0166 -0.2634 0.9646
vn -0.5093 0.2878 0.8111
vn -0.0800 0.0184 0.9966
vn 0.7863 -0.1673 0.5947
vn -0.8648 0.4029 0.2996
vn -0.9032 -0.0940 -0.4188
vn -0.8181 0.1668 -0.5503
vn -0.9016 0.1729 0.3965
vn -0.4569 -0.8776 0.1453
vn -0.5803 -0.8118 -0.0645
vn -0.3089 -0.8105 0.4976
vn -0.3639 0.5185 0.7738
vn -0.1053 0.4961 0.8619
vn -0.6075 -0.7688 -0.1998
vn -0.2324 -0.0755 -0.9697
vn -0.4794 0.2776 -0.8326
vn -0.4504 0.4286 -0.7832
vn -0.3888 0.5523 -0.7374
vn -0.7835 0.6188 -0.0563
vn -0.7428 0.5492 -0.3828
vn -0.9819 -0.0225 -0.1879
vn -0.9569 -0.0332 -0.2884
vn -0.0467 0.7917 0.6091
vn -0.5125 0.1177 0.8506
vn -0.6577 0.6324 -0.4092
vn -0.3479 0.6726 0.6532
vn -0.3537 -0.3307 0.8749
vn -0.4774 -0.7231 0.4992
vn -0.7934 -0.4355 -0.4253
vn 0.9665 -0.2091 -0.1490
vn -0.2642 -0.9638 0.0360
vn -0.5721 -0.6093 0.5491
vn -0.7724 -0.6346 0.0282
vn -0.9374 0.1432 -0.3176
vn -0.4228 0.6224 0.6587
vn -0.6031 0.1454 -0.7843
vn -0.7377 0.2329 -0.6336
vn -0.7094 0.3230 -0.6264
vn -0.9377 -0.2286 -0.2616
vn -0.8318 -0.5323 -0.1575
vn -0.8869 -0.0141 -0.4618
vn -0.9262 -0.2277 -0.3004
vn -0.6111 0.2727 -0.7431
vn -0.7129 -0.3809 -0.5889
vn -0.6604 0.7425 -0.1120
vn 0.8658 -0.0729 0.4951
vn 0.8520 0.1873 -0.4889
vn -0.0634 0.2484 -0.9666
vn -0.7832 0.1272 -0.6087
vn -0.9429 -0.2020 0.2649
vn -0.0306 -0.3355 0.9415
vn -0.0153 0.8264 0.5628
vn 0.0403 0.8255 0.5630
vn -0.5463 0.8295 0.1163
vn -0.5266 0.8265 0.1990
vn 0.2814 0.9184 0.2782
vn -0.3384 0.9238 -0.1792
vn 0.4382 0.7353 0.5170
vn 0.1612 0.4345 0.8861
vn -0.9158 0.3672 0.1626
vn -0.6258 0.7295 -0.2759
vn -0.7569 0.5164 -0.4006
vn -0.6832 0.5158 -0.5170
vn -0.7383 0.4119 -0.5341
vn -0.8687 0.2256 -0.4410
vn -0.8164 0.1834 -0.5476
vn 0.6757 0.5100 0.5323
vn 0.6018 0.4879 0.6323
vn 0.7288 0.4000 0.5557
vn 0.6994 0.2442 0.6717
vn 0.7607 0.2267 0.6083
vn -0.6151 -0.6248 -0.4809
vn -0.5637 -0.6398 -0.5225
vn -0.5769 -0.6262 -0.5245
vn -0.5095 -0.7764 -0.3709
vn -0.5579 -0.6504 -0.5155
vn 0.6478 -0.6321 0.4252
vn 0.6133 -0.6351 0.4695
vn 0.6714 -0.6175 0.4098
vn 0.5720 -0.7146 0.4028
vn 0.6635 -0.6531 0.3651
vn -0.5562 -0.2193 0.8016
vn -0.2680 0.9304 0.2499
vn 0.0947 -0.4874 -0.8681
vn 0.8105 -0.4857 -0.3275
vn 0.8898 0.3803 -0.2522
vn 0.8354 0.3012 0.4599
vn -0.7082 0.2940 -0.6419
vn 0.8792 0.3797 -0.2877
vn 0.7844 0.3735 0.4952
vn -0.7189 0.3560 -0.5971
vn 0.0074 0.3710 -0.9286
vn -0.2424 -0.9367 0.2525
vn -0.1407 -0.9456 0.2932
vn -0.1109 -0.2793 0.9538
vn -0.9024 -0.2559 0.3465
vn 0.0868 0.8838 0.4597
vn -0.4134 0.9056 0.0943
vn -0.5953 0.3351 0.7303
vn -0.8694 0.3846 -0.3101
vn -0.9781 0.2059 -0.0300
vn -0.1023 -0.5072 0.8558
vn -0.6627 -0.4170 0.6221
vn -0.8798 -0.0352 0.4740
vn 0.0143 -0.6956 0.7183
vn -0.6593 0.2092 0.7221
vn -0.0428 0.2916 0.9556
vn -0.0509 0.9642 -0.2603
vn -0.6139 0.7634 -0.2008
vn -0.6416 0.5977 0.4807
vn -0.0504 0.6340 0.7717
vn -0.1586 0.9740 -0.1618
vn -0.5730 0.6061 -0.5517
vn -0.1181 0.8906 0.4393
vn -0.1665 0.9848 -0.0504
vn -0.1073 -0.9677 -0.2281
vn -0.0755 -0.6459 -0.7597
vn -0.3197 -0.8332 0.4512
vn -0.3526 -0.6620 0.6614
vn -0.0259 -0.8960 -0.4434
vn -0.8120 -0.4613 -0.3575
vn -0.6067 -0.5731 -0.5509
vn 0.0739 -0.4798 0.8743
vn -0.4003 0.8961 -0.1917
vn -0.6603 0.6176 -0.4273
vn -0.7054 0.7061 -0.0615
vn -0.2941 0.9265 -0.2349
vn 0.1268 0.5271 0.8403
vn -0.7473 0.6599 -0.0779
vn -0.5245 0.6805 0.5117
vn 0.2010 0.9543 0.2213
vn -0.2763 -0.9308 -0.2393
vn -0.6790 -0.7323 0.0514
vn -0.0925 0.8944 0.4376
vn -0.4929 -0.3769 0.7842
vn -0.2876 -0.8196 0.4956
vn -0.5154 0.0143 0.8569
vn -0.9201 -0.2846 0.2693
vn -0.4739 -0.4204 -0.7737
vn -0.7339 -0.3400 -0.5880
vn -0.7372 0.1394 -0.6611
vn -0.4967 0.3359 -0.8003
vn -0.7570 0.5695 0.3203
vn -0.3918 -0.5174 -0.7607
vn -0.4433 0.7463 -0.4966
vn -0.4326 -0.0733 0.8986
vn -0.8617 -0.0875 0.4998
vn -0.6309 -0.7304 0.2617
vn -0.4644 0.7828 0.4141
vn -0.6955 -0.6807 -0.2302
vn -0.8582 -0.0352 -0.5121
vn -0.7906 0.5688 0.2267
vn -0.7120 0.5279 -0.4630
vn -0.7310 0.6576 -0.1822
vn -0.5087 -0.8299 0.2289
vn -0.7366 -0.5904 -0.3299
vn -0.7593 0.0756 -0.6464
vn -0.7241 -0.4973 -0.4779
vn -0.8841 0.1130 0.4534
vn -0.9113 -0.1016 -0.3990
vn -0.1720 -0.5004 0.8486
vn -0.6224 0.1354 0.7709
vn -0.5792 0.7520 0.3147
vn -0.7530 -0.3347 0.5666
vn -0.7612 0.5816 0.2869
vn -0.7689 -0.6250 -0.1350
vn -0.7517 -0.5275 -0.3958
vn -0.8706 0.3300 -0.3650
vn -0.3173 0.7584 0.5693
vn -0.6124 -0.2844 0.7376
vn -0.7784 0.0357 0.6268
vn -0.7104 -0.2683 0.6507
vn 0.3999 0.6779 -0.6169
vn 0.1972 0.8789 0.4344
vn 0.2107 -0.4415 0.8722
vn 0.3211 -0.5977 -0.7346
vn 0.4413 0.7981 0.4102
vn 0.3487 0.6880 -0.6364
vn 0.5198 -0.7859 0.3350
vn 0.5015 -0.8492 0.1655
vn 0.8543 -0.5143 0.0755
vn 0.8301 -0.4528 0.3253
vn -0.5608 0.8267 0.0450
vn -0.5429 0.8305 -0.1250
vn -0.8860 0.4593 -0.0644
vn -0.8497 0.4855 0.2055
vn 0.7535 0.6550 0.0558
vn 0.7282 0.6731 -0.1292
vn 0.0909 0.9832 -0.1586
vn 0.0971 0.9948 -0.0312
vn -0.9114 -0.2434 0.3317
vn -0.9521 -0.2925 0.0895
vn -0.6709 -0.7208 0.1741
vn -0.6678 -0.6599 0.3444
vn 0.9929 -0.1177 -0.0180
vn 0.9605 -0.0784 0.2671
vn -0.0998 -0.9724 0.2110
vn -0.0898 -0.9358 0.3410
vn -0.3948 0.5266 0.7529
vn -0.2408 0.8665 0.4373
vn -0.3679 -0.6012 0.7094
vn -0.4620 -0.1996 0.8641
vn -0.9508 0.1474 0.2725
vn -0.4670 0.1653 0.8687
vn 0.2410 -0.6660 0.7060
vn 0.4053 -0.3030 0.8625
vn 0.4844 0.0548 0.8731
vn 0.4831 0.4166 0.7701
vn 0.4345 0.7801 0.4503
vn -0.9924 0.1234 0.0016
vn 0.9767 0.2026 -0.0705
vn 0.9436 0.2494 0.2179
vn 0.0464 -0.7386 -0.6726
vn -0.1106 0.8484 -0.5176
vn 0.5512 0.4735 -0.6870
vn 0.4682 -0.6110 -0.6383
vn -0.2561 -0.6499 -0.7156
vn -0.6222 0.2876 -0.7281
vn -0.1672 0.7903 0.5895
vn 0.3529 -0.3438 0.8702
vn 0.2493 -0.5343 -0.8077
vn -0.2622 0.6833 -0.6815
vn -0.8006 0.5992 -0.0000
vn 0.8039 -0.5947 0.0098
vn -0.5878 0.4461 0.6749
vn 0.4793 -0.3082 0.8217
vn -0.6798 0.3617 -0.6380
vn 0.2856 -0.4353 -0.8538
vn -0.6703 -0.1639 0.7238
vn 0.4024 -0.6550 0.6396
vn -0.8780 -0.4762 0.0481
vn -0.7799 -0.2709 -0.5643
vn 0.3497 -0.6733 -0.6515
vn 0.2630 -0.9645 0.0213
vn 0.7197 0.3142 0.6191
vn 0.6580 0.2789 -0.6994
vn 0.0356 0.9986 -0.0398
vn -0.6554 0.3140 -0.6870
vn -0.6140 0.3817 0.6909
vn -0.1392 0.7148 0.6854
vn 0.7186 0.4733 0.5096
vn -0.0742 -0.5910 0.8033
vn -0.5527 -0.7386 0.3860
vn -0.8539 0.2477 0.4578
vn 0.5838 -0.6555 0.4790
vn -0.4406 -0.5082 0.7400
vn -0.6835 -0.3041 -0.6636
vn 0.1287 -0.9814 -0.1427
vn 0.7904 -0.1447 -0.5953
vn 0.6671 -0.3114 0.6767
vn 0.6591 -0.0574 -0.7498
vn 0.6260 -0.5807 0.5205
vn 0.0714 -0.9193 -0.3871
vn -0.6571 -0.6365 0.4039
vn -0.6298 -0.1345 -0.7650
vn 0.4746 -0.1401 -0.8690
vn 0.6771 -0.4744 0.5625
vn 0.0592 -0.9664 -0.2502
vn -0.8029 -0.5149 0.3004
vn -0.5920 -0.1849 -0.7845
vn 0.7197 0.0364 0.6933
vn 0.6580 0.5384 -0.5264
vn 0.0356 0.9290 0.3683
vn -0.6554 0.5654 -0.5008
vn -0.6140 0.0690 0.7863
vn 0.6564 0.0165 0.7542
vn 0.0288 0.9295 0.3677
vn -0.7387 0.5302 -0.4162
vn -0.5878 0.0519 0.8073
vn -0.6498 -0.3118 0.6932
vn -0.5497 -0.4022 -0.7321
vn 0.1165 -0.9866 0.1138
vn 0.6862 -0.2892 -0.6674
vn 0.7918 -0.0919 0.6039
vt 0.395305 0.344843
vt 0.403620 0.318023
vt 0.502198 0.340678
vt 0.494320 0.357600
vt 0.046828 0.184406
vt 0.017581 0.178254
vt 0.042060 0.113720
vt 0.059270 0.116588
vt 0.447997 0.966182
vt 0.433057 0.958202
vt 0.438627 0.925417
vt 0.494218 0.940552
vt 0.502990 0.894708
vt 0.440949 0.892757
vt 0.445976 0.865318
vt 0.485837 0.854175
vt 0.031093 0.308719
vt 0.000313 0.308752
vt 0.000313 0.258805
vt 0.031809 0.261881
vt 0.038799 0.373445
vt 0.011902 0.381796
vt 0.384958 0.372805
vt 0.385139 0.391395
vt 0.333620 0.399854
vt 0.338773 0.369930
vt 0.455955 0.798285
vt 0.476513 0.782596
vt 0.410389 0.301330
vt 0.504690 0.333335
vt 0.318030 0.299966
vt 0.333146 0.268407
vt 0.282895 0.239992
vt 0.258692 0.282765
vt 0.208264 0.238016
vt 0.230192 0.203132
vt 0.135133 0.082016
vt 0.149657 0.079410
vt 0.185897 0.155575
vt 0.151030 0.169472
vt 0.100819 0.134768
vt 0.106447 0.065170
vt 0.254167 0.363065
vt 0.252227 0.408586
vt 0.488048 0.376527
vt 0.487741 0.385280
vt 0.291556 0.813819
vt 0.292346 0.846908
vt 0.239840 0.834753
vt 0.249893 0.813740
vt 0.066148 0.410061
vt 0.145749 0.437828
vt 0.096654 0.483727
vt 0.038498 0.433511
vt 0.067593 0.062001
vt 0.078881 0.062102
vt 0.400444 0.991016
vt 0.396948 0.999687
vt 0.459075 0.761582
vt 0.451756 0.754852
vt 0.054109 0.839803
vt 0.088826 0.736358
vt 0.093524 0.792539
vt 0.077393 0.846943
vt 0.250991 0.879665
vt 0.187148 0.842004
vt 0.324702 0.351929
vt 0.272641 0.353752
vt 0.190013 0.340649
vt 0.193169 0.280438
vt 0.070430 0.398485
vt 0.112109 0.405053
vt 0.132679 0.375852
vt 0.113294 0.352373
vt 0.133540 0.320594
vt 0.061596 0.351537
vt 0.080617 0.292953
vt 0.072562 0.334247
vt 0.141044 0.267412
vt 0.091131 0.218500
vt 0.114114 0.012698
vt 0.121512 0.008203
vt 0.128546 0.012365
vt 0.103880 0.010964
vt 0.134166 0.008177
vt 0.122166 0.000313
vt 0.343692 0.999687
vt 0.359093 0.957813
vt 0.384209 0.839328
vt 0.382636 0.798838
vt 0.369829 0.917854
vt 0.380083 0.863782
vt 0.394195 0.757690
vt 0.658039 0.816594
vt 0.619161 0.816594
vt 0.615982 0.786804
vt 0.660769 0.789208
vt 0.618960 0.738961
vt 0.660758 0.742570
vt 0.691128 0.669663
vt 0.589212 0.665870
vt 0.612796 0.622948
vt 0.671577 0.626815
vt 0.570109 0.804124
vt 0.579317 0.763610
vt 0.576130 0.747108
vt 0.552821 0.674287
vt 0.561286 0.637411
vt 0.698186 0.768712
vt 0.702536 0.810072
vt 0.702386 0.752728
vt 0.721620 0.644276
vt 0.726610 0.680594
vt 0.551921 0.804052
vt 0.544143 0.772305
vt 0.538108 0.741941
vt 0.527303 0.680710
vt 0.515023 0.619026
vt 0.731165 0.779030
vt 0.720882 0.810151
vt 0.739165 0.748654
vt 0.921607 0.605685
vt 0.933720 0.665947
vt 0.806750 0.657116
vt 0.822969 0.601772
vt 0.749636 0.690593
vt 0.766433 0.629463
vt 0.677840 0.817221
vt 0.701598 0.846381
vt 0.702452 0.927062
vt 0.931548 0.697172
vt 0.804578 0.688341
vt 0.939445 0.548277
vt 0.822189 0.540121
vt 0.850769 0.471033
vt 0.920963 0.475915
vt 0.783142 0.555083
vt 0.723178 0.618370
vt 0.734215 0.561910
vt 0.505317 0.542004
vt 0.552576 0.555369
vt 0.559684 0.610793
vt 0.528925 0.471033
vt 0.578090 0.487876
vt 0.688888 0.606853
vt 0.696203 0.567211
vt 0.589923 0.561013
vt 0.594908 0.601643
vt 0.609333 0.510410
vt 0.728444 0.817221
vt 0.647486 0.839052
vt 0.756482 0.840841
vt 0.908736 0.850989
vt 0.858437 0.919757
vt 0.872365 0.853339
vt 0.934524 0.901045
vt 0.939239 0.919757
vt 0.783769 0.903274
vt 0.786069 0.865821
vt 0.857810 0.850989
vt 0.838779 0.932295
vt 0.857810 0.935919
vt 0.783769 0.794405
vt 0.801709 0.720613
vt 0.835450 0.751325
vt 0.890102 0.754868
vt 0.851234 0.850362
vt 0.939445 0.808027
vt 0.929920 0.729541
vt 0.323862 0.913459
vt 0.336722 0.852947
vt 0.329349 0.826370
vt 0.331916 0.786580
vt 0.344975 0.736358
vt 0.292972 0.973942
vt 0.306586 0.935103
vt 0.897702 0.889127
vt 0.824561 0.892243
vt 0.000313 0.884692
vt 0.016559 0.918886
vt 0.164578 0.906303
vt 0.151471 0.952797
vt 0.092802 0.952797
vt 0.125891 0.859517
vt 0.192997 0.809435
vt 0.149111 0.810697
vt 0.231557 0.776306
vt 0.173989 0.760755
vt 0.844186 0.290913
vt 0.828813 0.297632
vt 0.823500 0.269896
vt 0.833997 0.278061
vt 0.771328 0.308739
vt 0.761432 0.242074
vt 0.857651 0.272942
vt 0.850411 0.285826
vt 0.844394 0.278324
vt 0.846365 0.271117
vt 0.601458 0.430384
vt 0.621167 0.453839
vt 0.597041 0.470406
vt 0.573681 0.445887
vt 0.663621 0.411031
vt 0.640731 0.388712
vt 0.689976 0.343661
vt 0.710662 0.371276
vt 0.913888 0.310020
vt 0.932476 0.303794
vt 0.980299 0.413197
vt 0.937992 0.413687
vt 0.551218 0.379441
vt 0.505317 0.394267
vt 0.513528 0.323805
vt 0.551849 0.328896
vt 0.530448 0.430063
vt 0.516196 0.435044
vt 0.913949 0.249331
vt 0.932351 0.249289
vt 0.784871 0.342189
vt 0.637621 0.235777
vt 0.665871 0.258441
vt 0.563793 0.337720
vt 0.913888 0.222632
vt 0.931931 0.222619
vt 0.841293 0.325256
vt 0.884193 0.181374
vt 0.864045 0.243091
vt 0.831729 0.237329
vt 0.840757 0.174321
vt 0.917854 0.124901
vt 0.940543 0.128714
vt 0.576861 0.416608
vt 0.586911 0.396980
vt 0.928351 0.048659
vt 0.950843 0.051065
vt 0.584774 0.069295
vt 0.604145 0.079455
vt 0.536642 0.147487
vt 0.518349 0.141363
vt 0.940269 0.000313
vt 0.957607 0.013525
vt 0.527219 0.187274
vt 0.505317 0.191656
vt 0.893074 0.252428
vt 0.913261 0.187440
vt 0.505317 0.920250
vt 0.513160 0.903491
vt 0.557371 0.932488
vt 0.554853 0.953426
vt 0.883261 0.283048
vt 0.867464 0.307967
vt 0.565672 0.382289
vt 0.554442 0.408798
vt 0.859803 0.315186
vt 0.806891 0.095588
vt 0.869316 0.131716
vt 0.847882 0.142955
vt 0.792010 0.124651
vt 0.832483 0.054401
vt 0.908294 0.113703
vt 0.673612 0.320556
vt 0.675672 0.038220
vt 0.682498 0.018610
vt 0.547731 0.858072
vt 0.550198 0.817221
vt 0.616158 0.832505
vt 0.590777 0.860107
vt 0.592763 0.923049
vt 0.561743 0.912742
vt 0.581830 0.906492
vt 0.608864 0.953426
vt 0.646859 0.900606
vt 0.610823 0.892960
vt 0.548848 0.896683
vt 0.537037 0.202331
vt 0.514827 0.205623
vt 0.564676 0.879504
vt 0.581011 0.868102
vt 0.596888 0.892120
vt 0.620910 0.367352
vt 0.726359 0.232423
vt 0.638304 0.110591
vt 0.656249 0.072672
vt 0.783364 0.167084
vt 0.001692 0.684492
vt 0.015220 0.635269
vt 0.106361 0.612716
vt 0.110302 0.667532
vt 0.678173 0.192397
vt 0.967759 0.131087
vt 0.984475 0.226481
vt 0.990575 0.245985
vt 0.545791 0.181365
vt 0.554793 0.188171
vt 0.972683 0.058331
vt 0.975056 0.028990
vt 0.558138 0.157379
vt 0.570852 0.165659
vt 0.638975 0.118331
vt 0.756208 0.185280
vt 0.753679 0.182266
vt 0.752584 0.216695
vt 0.758340 0.219524
vt 0.751774 0.188452
vt 0.746643 0.183651
vt 0.705054 0.216721
vt 0.640592 0.000313
vt 0.637552 0.007275
vt 0.623642 0.019017
vt 0.606513 0.013437
vt 0.598168 0.010857
vt 0.125433 0.572375
vt 0.128625 0.582250
vt 0.191595 0.725779
vt 0.041291 0.713207
vt 0.114350 0.693315
vt 0.185247 0.714202
vt 0.225569 0.542190
vt 0.259296 0.632469
vt 0.265605 0.642565
vt 0.285724 0.734939
vt 0.221965 0.521678
vt 0.336836 0.185942
vt 0.366200 0.190673
vt 0.364311 0.243038
vt 0.312397 0.225104
vt 0.400867 0.081219
vt 0.363473 0.083233
vt 0.349421 0.017056
vt 0.429867 0.029303
vt 0.429659 0.120185
vt 0.420212 0.097543
vt 0.468083 0.058130
vt 0.491870 0.102322
vt 0.313228 0.118506
vt 0.307947 0.146160
vt 0.266477 0.152049
vt 0.266477 0.103325
vt 0.397104 0.178559
vt 0.427541 0.231613
vt 0.316552 0.169986
vt 0.280410 0.192197
vt 0.400920 0.100783
vt 0.375830 0.112275
vt 0.340484 0.135881
vt 0.326756 0.151711
vt 0.333704 0.094406
vt 0.357601 0.122227
vt 0.357781 0.158451
vt 0.337513 0.166305
vt 0.392239 0.132487
vt 0.376880 0.146584
vt 0.411421 0.114818
vt 0.294470 0.051188
vt 0.416677 0.152844
vt 0.480038 0.186648
vt 0.794331 0.412442
vt 0.747755 0.422712
vt 0.766404 0.454898
vt 0.816857 0.450608
vt 0.841347 0.376196
vt 0.849377 0.388721
vt 0.320977 0.616369
vt 0.324295 0.623525
vt 0.290533 0.501163
vt 0.291011 0.485146
vt 0.377529 0.730912
vt 0.397820 0.665958
vt 0.330581 0.534025
vt 0.368773 0.630238
vt 0.366381 0.625046
vt 0.436164 0.672408
vt 0.355940 0.497339
vt 0.360084 0.486683
vt 0.392874 0.613479
vt 0.393561 0.620575
vt 0.423849 0.562639
vt 0.436164 0.551649
vt 0.423372 0.551701
vt 0.415790 0.555793
vt 0.411738 0.419379
vt 0.442761 0.453250
vt 0.413938 0.486429
vt 0.472811 0.486788
vt 0.470509 0.420736
vt 0.735337 0.492220
vt 0.750282 0.456207
vt 0.728780 0.478656
vt 0.706523 0.438458
vt 0.642815 0.464891
vt 0.656694 0.476091
vt 0.714871 0.451624
vt 0.662761 0.507916
vt 0.665384 0.491825
vt 0.863637 0.383041
vt 0.855607 0.370515
vt 0.741959 0.435388
vt 0.472189 0.422025
vt 0.442869 0.453156
vt 0.411950 0.421092
vt 0.413876 0.486481
vt 0.471245 0.483474
vt 0.472857 0.484790
vt 0.443581 0.452792
vt 0.470296 0.418782
vt 0.413395 0.419238
vt 0.414059 0.487325
vt 0.470187 0.484991
vt 0.444771 0.453566
vt 0.470934 0.422056
vt 0.412565 0.423394
vt 0.414765 0.487436
vt 0.415514 0.421337
vt 0.443339 0.453925
vt 0.415386 0.483924
vt 0.470267 0.486172
vt 0.470267 0.424512
vt 0.469895 0.487684
vt 0.443406 0.455173
vt 0.472021 0.425109
vt 0.415530 0.421846
vt 0.415530 0.490167
vt 0.411511 0.420963
vt 0.443859 0.453042
vt 0.414754 0.486317
vt 0.470476 0.484815
vt 0.472750 0.420963
vt 0.413768 0.488575
vt 0.413768 0.421802
vt 0.443524 0.453868
vt 0.472323 0.419524
vt 0.472189 0.485307
vt 0.415183 0.491101
vt 0.412167 0.421408
vt 0.443481 0.453996
vt 0.472306 0.422244
vt 0.471655 0.484963
vt 0.415607 0.485978
vt 0.414393 0.422212
vt 0.442040 0.453503
vt 0.469263 0.419476
vt 0.472423 0.485140
vt 0.465524 0.420840
vt 0.472010 0.481809
vt 0.443752 0.453645
vt 0.415279 0.485856
vt 0.413566 0.421523
vt 0.416260 0.486228
vt 0.416260 0.423640
vt 0.444152 0.453696
vt 0.471146 0.421504
vt 0.471019 0.483165
vt 0.469117 0.422846
vt 0.471243 0.485420
vt 0.442628 0.455357
vt 0.414752 0.488683
vt 0.414752 0.420362
vt 0.415686 0.486273
vt 0.413818 0.420117
vt 0.443264 0.454704
vt 0.472467 0.421132
vt 0.473503 0.484569
s 1
usemtl Material.001
f 3/1/1 19/2/2 20/3/3 2/4/4
f 38/5/5 542/6/6 539/7/7 30/8/8
f 18/9/9 13/10/10 11/11/11 6/12/12
f 10/13/13 9/14/14 15/15/15 17/16/16
f 24/17/17 537/18/18 538/19/19 23/20/20
f 29/21/21 536/22/22 537/18/18 24/17/17
f 1/23/23 533/24/24 531/25/25 22/26/26
f 17/16/16 15/15/15 12/27/27 16/28/28
f 10/13/13 6/12/12 11/11/11 9/14/14
f 524/29/29 525/30/30 20/3/3 19/2/2
f 25/31/31 526/32/32 524/29/29 19/2/2
f 527/33/33 526/32/32 25/31/31 21/34/34
f 35/35/35 541/36/36 527/33/33 21/34/34
f 26/37/37 529/38/38 528/39/39 14/40/40
f 26/37/37 14/40/40 42/41/41 43/42/42
f 5/43/43 22/26/26 531/25/25 530/44/44
f 3/1/1 2/4/4 28/45/45 1/23/23
f 532/46/46 533/24/24 1/23/23 28/45/45
f 3/47/1 1/48/23 101/49/47 105/50/48
f 27/51/49 4/52/50 534/53/51 535/54/52
f 27/51/49 535/54/52 536/22/22 29/21/21
f 30/8/8 539/7/7 540/55/53 31/56/54
f 8/57/55 13/10/10 18/9/9 7/58/56
f 7/59/56 16/28/28 12/27/27 8/60/55
f 4/61/50 34/62/57 108/63/58 103/64/59
f 1/48/23 22/65/26 102/66/60 101/49/47
f 25/31/31 19/2/2 3/1/1 32/67/61
f 21/34/34 25/31/31 32/67/61 33/68/62
f 14/40/40 528/39/39 541/36/36 35/35/35
f 34/69/57 39/70/63 21/34/34 33/68/62
f 18/71/9 6/72/12 4/52/50 27/51/49
f 10/73/13 34/69/57 4/52/50 6/72/12
f 17/74/16 36/75/64 34/69/57 10/73/13
f 27/51/49 29/21/21 7/76/56 18/71/9
f 37/77/65 36/75/64 17/74/16 16/78/28
f 24/17/17 16/78/28 7/76/56 29/21/21
f 23/20/20 37/77/65 16/78/28 24/17/17
f 23/20/20 538/19/19 542/6/6 38/5/5
f 35/35/35 21/34/34 39/70/63
f 36/75/64 40/79/66 39/70/63 34/69/57
f 14/40/40 35/35/35 39/70/63 40/79/66
f 37/77/65 41/80/67 40/79/66 36/75/64
f 38/5/5 41/80/67 37/77/65 23/20/20
f 42/41/41 14/40/40 40/79/66 41/80/67
f 30/8/8 42/41/41 41/80/67 38/5/5
f 43/42/42 42/41/41 30/8/8 31/56/54
f 43/42/42 31/56/54 45/81/68 46/82/69
f 26/37/37 43/42/42 46/82/69 44/83/70
f 31/56/54 540/55/53 544/84/71 45/81/68
f 529/38/38 26/37/37 44/83/70 543/85/72
f 543/85/72 44/83/70 46/82/69 545/86/73
f 544/84/71 545/86/73 46/82/69 45/81/68
f 13/10/10 8/57/55 47/87/74 51/88/75
f 12/27/27 15/15/15 52/89/76 50/90/77
f 9/14/14 11/11/11 49/91/78 48/92/79
f 15/15/15 9/14/14 48/92/79 52/89/76
f 11/11/11 13/10/10 51/88/75 49/91/78
f 8/60/55 12/27/27 50/90/77 47/93/74
f 53/94/80 54/95/81 56/96/82 55/97/83
f 55/97/83 56/96/82 58/98/84 57/99/85
f 59/100/86 60/101/87 62/102/88 61/103/89
f 56/96/82 54/95/81 63/104/90 64/105/91
f 58/98/84 56/96/82 64/105/91 65/106/92
f 62/102/88 60/101/87 66/107/93 67/108/94
f 55/97/83 70/109/95 69/110/96 53/94/80
f 57/99/85 71/111/97 70/109/95 55/97/83
f 73/112/98 72/113/99 59/100/86 61/103/89
f 64/105/91 63/104/90 68/114/100 75/115/101
f 65/106/92 64/105/91 75/115/101 77/116/102
f 58/98/84 65/106/92 66/107/93 60/101/87
f 66/107/93 65/106/92 77/116/102 79/117/103
f 67/108/94 66/107/93 79/117/103 81/118/104
f 70/109/95 76/119/105 74/120/106 69/110/96
f 71/111/97 78/121/107 76/119/105 70/109/95
f 79/122/103 77/123/102 78/124/107 80/125/108
f 80/126/108 78/121/107 71/111/97 72/113/99
f 73/112/98 82/127/109 80/126/108 72/113/99
f 54/128/81 98/129/110 93/130/111
f 77/123/102 75/131/101 76/132/105 78/124/107
f 71/111/97 57/99/85 59/100/86 72/113/99
f 58/98/84 60/101/87 59/100/86 57/99/85
f 81/133/104 79/122/103 80/125/108 82/134/109
f 81/133/104 82/134/109 84/135/112 83/136/113
f 84/137/112 82/127/109 86/138/114 88/139/115
f 81/118/104 83/140/113 87/141/116 85/142/117
f 83/140/113 84/143/112 88/144/115 87/141/116
f 81/118/104 85/142/117 67/108/94
f 82/127/109 73/112/98 86/138/114
f 88/139/115 86/138/114 90/145/118 92/146/119
f 85/142/117 87/141/116 91/147/120 89/148/121
f 87/141/116 88/144/115 92/149/119 91/147/120
f 67/108/94 85/142/117 89/148/121 62/102/88
f 61/103/89 90/145/118 86/138/114 73/112/98
f 53/150/80 93/130/111 98/129/110
f 54/128/81 93/130/111 94/151/122
f 93/130/111 53/150/80 95/152/123
f 98/129/110 54/128/81 53/150/80
f 53/153/80 97/154/124 95/155/123
f 69/156/96 74/157/106 97/154/124
f 54/158/81 94/159/122 96/160/125
f 63/161/90 96/160/125 68/162/100
f 97/163/124 74/164/106 95/165/123
f 94/166/122 93/167/111 95/165/123
f 96/168/125 94/166/122 68/169/100
f 95/165/123 74/164/106 68/169/100 94/166/122
f 75/131/101 68/169/100 74/164/106 76/132/105
f 48/92/79 49/91/78 61/170/89 62/171/88
f 52/89/76 48/92/79 62/171/88 89/172/121
f 52/89/76 89/172/121 91/173/120 50/90/77
f 47/93/74 50/90/77 91/173/120 92/174/119
f 47/87/74 92/175/119 90/176/118 51/88/75
f 51/88/75 90/176/118 61/170/89 49/91/78
f 69/156/96 99/177/126 53/153/80
f 53/153/80 99/177/126 97/154/124
f 97/154/124 99/177/126 69/156/96
f 54/158/81 100/178/127 63/161/90
f 63/161/90 100/178/127 96/160/125
f 54/158/81 96/160/125 100/178/127
f 534/179/51 4/61/50 103/64/59 546/180/128
f 5/181/43 530/182/44 547/183/129 104/184/130
f 546/180/128 103/64/59 104/184/130 547/183/129
f 102/66/60 106/185/131 105/50/48 101/49/47
f 104/184/130 107/186/132 106/185/131 102/66/60
f 108/63/58 107/186/132 104/184/130 103/64/59
f 22/65/26 5/181/43 104/184/130 102/66/60
f 32/187/61 3/47/1 105/50/48 106/185/131
f 33/188/62 32/187/61 106/185/131 107/186/132
f 34/62/57 33/188/62 107/186/132 108/63/58
f 131/189/133 129/190/134 162/191/135 164/192/136
f 129/190/134 117/193/137 153/194/138 162/191/135
f 130/195/139 132/196/140 165/197/141 163/198/142
f 113/199/143 548/200/144 549/201/145 115/202/146
f 551/203/147 109/204/148 110/205/149 550/206/150
f 109/204/148 551/203/147 548/200/144 113/199/143
f 555/207/151 111/208/152 112/209/153 552/210/154
f 114/211/155 553/212/156 552/213/154 112/214/153
f 116/215/157 554/216/158 553/212/156 114/211/155
f 555/207/151 557/217/159 118/218/160 111/208/152
f 110/205/149 117/193/137 556/219/161 550/206/150
f 112/214/153 111/220/152 147/221/162 148/222/163
f 118/218/160 557/217/159 558/223/164 119/224/165
f 556/219/161 117/193/137 129/190/134 567/225/166
f 128/226/167 127/227/168 160/228/169 161/229/170
f 119/224/165 558/223/164 560/230/171 122/231/172
f 113/199/143 115/202/146 151/232/173 149/233/174
f 122/231/172 560/230/171 562/234/175 124/235/176
f 559/236/177 121/237/178 123/238/179 561/239/180
f 124/235/176 562/234/175 564/240/181 126/241/182
f 561/239/180 123/238/179 125/242/183 563/243/184
f 565/244/185 127/227/168 128/226/167 566/245/186
f 132/196/140 131/189/133 164/192/136 165/197/141
f 554/246/158 116/247/157 136/248/187 575/249/188
f 130/195/139 568/250/189 570/251/190 132/196/140
f 116/215/157 114/211/155 150/252/191 152/253/192
f 127/227/168 565/244/185 568/250/189 130/195/139
f 569/254/193 131/189/133 132/196/140 570/251/190
f 567/225/166 129/190/134 131/189/133 569/254/193
f 133/255/194 134/256/195 167/257/196 166/258/197
f 133/255/194 571/259/198 572/260/199 134/256/195
f 117/193/137 110/205/149 146/261/200 153/194/138
f 566/245/186 128/226/167 134/256/195 572/260/199
f 571/259/198 133/255/194 135/262/201 573/263/202
f 115/264/146 549/265/145 574/266/203 120/267/204
f 138/268/205 136/248/187 142/269/206 144/270/207
f 575/249/188 136/248/187 138/268/205 577/271/208
f 120/267/204 574/266/203 576/272/209 137/273/210
f 136/248/187 116/247/157 140/274/211 142/269/206
f 138/268/205 137/273/210 576/272/209 577/271/208
f 126/275/182 564/276/181 563/243/184 125/242/183
f 139/277/212 141/278/213 143/279/214 144/270/207
f 139/277/212 144/270/207 142/269/206 140/274/211
f 115/264/146 120/267/204 141/278/213 139/277/212
f 120/267/204 137/273/210 143/279/214 141/278/213
f 116/247/157 115/264/146 139/277/212 140/274/211
f 137/273/210 138/268/205 144/270/207 143/279/214
f 146/261/200 145/280/215 148/222/163 147/221/162
f 145/280/215 149/233/174 150/252/191 148/222/163
f 149/233/174 151/232/173 152/253/192 150/252/191
f 147/221/162 154/281/216 153/194/138 146/261/200
f 157/282/217 159/283/218 166/258/197 155/284/219
f 153/285/138 155/286/219 179/287/220 178/288/221
f 153/194/138 160/228/169 163/198/142 162/191/135
f 162/191/135 163/198/142 165/197/141 164/192/136
f 161/229/170 155/284/219 166/258/197 167/257/196
f 134/256/195 128/226/167 161/229/170 167/257/196
f 111/220/152 118/289/160 154/281/216 147/221/162
f 114/211/155 112/214/153 148/222/163 150/252/191
f 119/224/165 122/231/172 158/290/222 156/291/223
f 127/227/168 130/195/139 163/198/142 160/228/169
f 118/218/160 119/224/165 156/291/223 154/292/216
f 109/204/148 113/199/143 149/233/174 145/280/215
f 135/262/201 133/255/194 166/258/197 159/283/218
f 115/202/146 116/215/157 152/253/192 151/232/173
f 110/205/149 109/204/148 145/280/215 146/261/200
f 126/275/182 125/242/183 170/293/224 171/294/225
f 169/295/226 124/235/176 126/241/182 171/296/225
f 170/293/224 125/242/183 123/238/179 168/297/227
f 158/290/222 122/231/172 124/235/176 169/295/226
f 157/282/217 168/297/227 123/238/179 121/237/178
f 170/293/224 168/297/227 169/298/226 171/294/225
f 157/282/217 158/299/222 169/298/226 168/297/227
f 157/282/217 155/284/219 175/300/228 176/301/229
f 153/194/138 154/281/216 173/302/230 172/303/231
f 173/302/230 174/304/232 175/300/228 172/303/231
f 177/305/233 176/301/229 175/300/228 174/304/232
f 158/299/222 157/282/217 176/301/229 177/305/233
f 154/281/216 156/306/223 174/304/232 173/302/230
f 156/306/223 158/299/222 177/305/233 174/304/232
f 155/284/219 153/194/138 172/303/231 175/300/228
f 525/307/30 573/263/202 135/262/201 20/308/3
f 20/308/3 135/262/201 159/283/218 2/309/4
f 2/309/4 159/283/218 121/237/178 28/310/45
f 532/311/46 28/310/45 121/237/178 559/236/177
f 155/286/219 161/312/170 181/313/234 179/287/220
f 161/314/170 160/315/169 180/316/235 181/317/234
f 160/315/169 153/285/138 178/288/221 180/316/235
f 178/288/221 179/287/220 184/318/236 185/319/237
f 180/316/235 178/288/221 185/319/237 183/320/238
f 181/317/234 180/316/235 183/320/238 182/321/239
f 179/287/220 181/313/234 182/322/239 184/318/236
f 192/323/240 191/324/241 200/325/242 199/326/243
f 204/327/244 205/328/245 195/329/246 196/330/247
f 188/331/248 198/332/249 197/333/250 203/334/251
f 207/335/252 208/336/253 220/337/254 193/338/255
f 191/324/241 190/339/256 201/340/257 200/325/242
f 208/336/253 219/341/258 221/342/259 220/337/254
f 205/328/245 204/327/244 209/343/260 210/344/261
f 208/336/253 207/335/252 212/345/262 213/346/263
f 206/347/264 205/328/245 210/344/261 211/348/265
f 207/335/252 206/347/264 211/348/265 212/345/262
f 213/346/263 212/345/262 217/349/266 218/350/267
f 211/348/265 210/344/261 215/351/268 216/352/269
f 212/345/262 211/348/265 216/352/269 217/349/266
f 210/344/261 209/343/260 214/353/270 215/351/268
f 206/347/264 207/335/252 193/338/255 194/354/271
f 190/339/256 189/355/272 202/356/273 201/340/257
f 198/332/249 204/327/244 196/330/247 197/333/250
f 205/328/245 206/347/264 194/354/271 195/329/246
f 189/355/272 188/331/248 203/334/251 202/356/273
f 219/341/258 192/323/240 199/326/243 221/342/259
f 204/327/244 198/332/249 209/343/260
f 219/341/258 208/336/253 213/346/263
f 209/343/260 198/332/249 214/353/270
f 219/341/258 213/346/263 218/350/267
f 218/350/267 217/349/266 191/324/241 192/323/240
f 216/352/269 215/351/268 189/355/272 190/339/256
f 214/353/270 198/332/249 188/331/248
f 219/341/258 218/350/267 192/323/240
f 217/349/266 216/352/269 190/339/256 191/324/241
f 215/351/268 214/353/270 188/331/248 189/355/272
f 222/357/274 223/358/275 226/359/276 225/360/277
f 224/361/278 222/357/274 225/360/277 227/362/279
f 157/282/217 121/237/178 159/283/218
f 183/320/238 185/319/237 231/363/280 229/364/281
f 185/319/237 184/318/236 230/365/282 231/363/280
f 184/318/236 182/322/239 228/366/283 230/365/282
f 182/321/239 183/320/238 229/364/281 228/367/283
f 186/368/284 228/367/283 229/364/281
f 230/365/282 187/369/285 231/363/280
f 229/364/281 234/370/286 186/368/284
f 231/363/280 187/369/285 235/371/287
f 231/363/280 235/371/287 234/370/286 229/364/281
f 186/368/284 232/372/288 228/367/283
f 187/369/285 230/365/282 233/373/289
f 230/365/282 228/366/283 232/374/288 233/373/289
f 234/370/286 235/371/287 241/375/290 240/376/291
f 186/368/284 234/370/286 240/376/291 236/377/292
f 232/372/288 186/368/284 236/377/292 238/378/293
f 233/373/289 232/374/288 238/378/293 239/379/294
f 235/371/287 187/369/285 237/380/295 241/375/290
f 187/369/285 233/373/289 239/379/294 237/380/295
f 240/376/291 241/375/290 237/380/295 236/377/292
f 238/378/293 236/377/292 237/380/295 239/379/294
f 246/381/296 243/382/297 245/383/298
f 243/382/297 242/384/299 245/383/298
f 243/382/297 246/381/296 244/385/300
f 242/384/299 243/382/297 244/385/300
f 225/386/277 226/359/276 255/387/301 256/388/302
f 222/389/274 224/390/278 253/391/303 252/392/304
f 227/393/279 225/386/277 256/388/302 257/394/305
f 224/361/278 227/362/279 257/395/305 253/396/303
f 226/359/276 223/358/275 254/397/306 255/387/301
f 251/398/307 250/399/308 249/400/309
f 223/358/275 222/389/274 252/392/304 254/397/306
f 250/399/308 247/401/310 249/400/309
f 250/399/308 251/398/307 248/402/311
f 247/401/310 250/399/308 248/402/311
f 253/391/303 257/394/305 256/388/302 252/392/304
f 252/392/304 256/388/302 255/387/301 254/397/306
f 262/403/312 261/404/313 260/405/314
f 261/404/313 258/406/315 260/405/314
f 261/404/313 262/403/312 259/407/316
f 258/406/315 261/404/313 259/407/316
f 267/408/317 266/409/318 265/410/319
f 266/409/318 263/411/320 265/410/319
f 266/409/318 267/408/317 264/412/321
f 263/411/320 266/409/318 264/412/321
f 272/413/322 269/414/323 271/415/324
f 269/414/323 268/416/325 271/415/324
f 269/414/323 272/413/322 270/417/326
f 268/416/325 269/414/323 270/417/326
f 277/418/327 274/419/328 276/420/324
f 274/419/328 273/421/329 276/420/324
f 274/419/328 277/418/327 275/422/330
f 273/421/329 274/419/328 275/422/330
f 282/423/331 281/424/332 280/425/333
f 281/424/332 278/426/334 280/425/333
f 281/424/332 282/423/331 279/427/335
f 278/426/334 281/424/332 279/427/335
f 285/1/336 284/4/337 302/3/338 301/2/339
f 320/5/340 312/8/341 539/7/7 542/6/6
f 300/9/342 288/12/343 293/11/344 295/10/345
f 292/13/346 299/16/347 297/15/348 291/14/349
f 306/17/350 305/20/351 538/19/19 537/18/18
f 311/21/352 306/17/350 537/18/18 536/22/22
f 283/23/353 304/26/354 531/25/25 533/24/24
f 299/16/347 298/28/355 294/27/356 297/15/348
f 292/13/346 291/14/349 293/11/344 288/12/343
f 524/29/29 301/2/339 302/3/338 525/30/30
f 307/31/357 301/2/339 524/29/29 526/32/32
f 527/33/33 303/34/358 307/31/357 526/32/32
f 317/35/359 303/34/358 527/33/33 541/36/36
f 308/37/360 296/40/361 528/39/39 529/38/38
f 308/37/360 325/42/362 324/41/363 296/40/361
f 287/43/364 530/44/44 531/25/25 304/26/354
f 285/1/336 283/23/353 310/45/365 284/4/337
f 532/46/46 310/45/365 283/23/353 533/24/24
f 285/47/336 387/50/366 383/49/367 283/48/353
f 309/51/368 535/54/52 534/53/51 286/52/369
f 309/51/368 311/21/352 536/22/22 535/54/52
f 312/8/341 313/56/370 540/55/53 539/7/7
f 290/57/371 289/58/372 300/9/342 295/10/345
f 289/59/372 290/60/371 294/27/356 298/28/355
f 286/61/369 385/64/373 390/63/374 316/62/375
f 283/48/353 383/49/367 384/66/376 304/65/354
f 307/31/357 314/67/377 285/1/336 301/2/339
f 303/34/358 315/68/378 314/67/377 307/31/357
f 296/40/361 317/35/359 541/36/36 528/39/39
f 316/69/375 315/68/378 303/34/358 321/70/379
f 300/71/342 309/51/368 286/52/369 288/72/343
f 292/73/346 288/72/343 286/52/369 316/69/375
f 299/74/347 292/73/346 316/69/375 318/75/380
f 309/51/368 300/71/342 289/76/372 311/21/352
f 319/77/381 298/78/355 299/74/347 318/75/380
f 306/17/350 311/21/352 289/76/372 298/78/355
f 305/20/351 306/17/350 298/78/355 319/77/381
f 305/20/351 320/5/340 542/6/6 538/19/19
f 317/35/359 321/70/379 303/34/358
f 318/75/380 316/69/375 321/70/379 322/79/382
f 296/40/361 322/79/382 321/70/379 317/35/359
f 319/77/381 318/75/380 322/79/382 323/80/383
f 320/5/340 305/20/351 319/77/381 323/80/383
f 324/41/363 323/80/383 322/79/382 296/40/361
f 312/8/341 320/5/340 323/80/383 324/41/363
f 325/42/362 313/56/370 312/8/341 324/41/363
f 325/42/362 328/82/384 327/81/385 313/56/370
f 308/37/360 326/83/386 328/82/384 325/42/362
f 313/56/370 327/81/385 544/84/71 540/55/53
f 529/38/38 543/85/72 326/83/386 308/37/360
f 543/85/72 545/86/73 328/82/384 326/83/386
f 544/84/71 327/81/385 328/82/384 545/86/73
f 295/10/345 333/88/387 329/87/388 290/57/371
f 294/27/356 332/90/389 334/89/390 297/15/348
f 291/14/349 330/92/391 331/91/392 293/11/344
f 297/15/348 334/89/390 330/92/391 291/14/349
f 293/11/344 331/91/392 333/88/387 295/10/345
f 290/60/371 329/93/388 332/90/389 294/27/356
f 335/94/393 337/97/394 338/96/395 336/95/396
f 337/97/394 339/99/397 340/98/398 338/96/395
f 341/100/399 343/103/400 344/102/401 342/101/402
f 338/96/395 346/105/403 345/104/404 336/95/396
f 340/98/398 347/106/405 346/105/403 338/96/395
f 344/102/401 349/108/406 348/107/407 342/101/402
f 337/97/394 335/94/393 351/110/408 352/109/409
f 339/99/397 337/97/394 352/109/409 353/111/410
f 355/112/411 343/103/400 341/100/399 354/113/412
f 346/105/403 357/115/413 350/114/414 345/104/404
f 347/106/405 359/116/415 357/115/413 346/105/403
f 340/98/398 342/101/402 348/107/407 347/106/405
f 348/107/407 361/117/416 359/116/415 347/106/405
f 349/108/406 363/118/417 361/117/416 348/107/407
f 352/109/409 351/110/408 356/120/418 358/119/419
f 353/111/410 352/109/409 358/119/419 360/121/420
f 361/122/416 362/125/421 360/124/420 359/123/415
f 362/126/421 354/113/412 353/111/410 360/121/420
f 355/112/411 354/113/412 362/126/421 364/127/422
f 336/128/396 375/130/423 380/129/424
f 359/123/415 360/124/420 358/132/419 357/131/413
f 353/111/410 354/113/412 341/100/399 339/99/397
f 340/98/398 339/99/397 341/100/399 342/101/402
f 363/133/417 364/134/422 362/125/421 361/122/416
f 363/133/417 365/136/425 366/135/426 364/134/422
f 366/137/426 370/139/427 368/138/428 364/127/422
f 363/118/417 367/142/429 369/141/116 365/140/425
f 365/140/425 369/141/116 370/144/427 366/143/426
f 363/118/417 349/108/406 367/142/429
f 364/127/422 368/138/428 355/112/411
f 370/139/427 374/146/430 372/145/431 368/138/428
f 367/142/429 371/148/432 373/147/433 369/141/116
f 369/141/116 373/147/433 374/149/430 370/144/427
f 349/108/406 344/102/401 371/148/432 367/142/429
f 343/103/400 355/112/411 368/138/428 372/145/431
f 335/150/393 380/129/424 375/130/423
f 336/128/396 376/151/434 375/130/423
f 375/130/423 377/152/435 335/150/393
f 380/129/424 335/150/393 336/128/396
f 335/153/393 377/155/435 379/154/436
f 351/156/408 379/154/436 356/157/418
f 336/158/396 378/160/437 376/159/434
f 345/161/404 350/162/414 378/160/437
f 379/163/436 377/165/435 356/164/418
f 376/166/434 377/165/435 375/167/423
f 378/168/437 350/169/414 376/166/434
f 377/165/435 376/166/434 350/169/414 356/164/418
f 357/131/413 358/132/419 356/164/418 350/169/414
f 330/92/391 344/171/401 343/170/400 331/91/392
f 334/89/390 371/172/432 344/171/401 330/92/391
f 334/89/390 332/90/389 373/173/433 371/172/432
f 329/93/388 374/174/430 373/173/433 332/90/389
f 329/87/388 333/88/387 372/176/431 374/175/430
f 333/88/387 331/91/392 343/170/400 372/176/431
f 351/156/408 335/153/393 381/177/438
f 335/153/393 379/154/436 381/177/438
f 379/154/436 351/156/408 381/177/438
f 336/158/396 345/161/404 382/178/439
f 345/161/404 378/160/437 382/178/439
f 336/158/396 382/178/439 378/160/437
f 534/179/51 546/180/128 385/64/373 286/61/369
f 287/181/364 386/184/440 547/183/129 530/182/44
f 546/180/128 547/183/129 386/184/440 385/64/373
f 384/66/376 383/49/367 387/50/366 388/185/441
f 386/184/440 384/66/376 388/185/441 389/186/442
f 390/63/374 385/64/373 386/184/440 389/186/442
f 304/65/354 384/66/376 386/184/440 287/181/364
f 314/187/377 388/185/441 387/50/366 285/47/336
f 315/188/378 389/186/442 388/185/441 314/187/377
f 316/62/375 390/63/374 389/186/442 315/188/378
f 413/189/443 446/192/444 444/191/445 411/190/446
f 411/190/446 444/191/445 435/194/447 399/193/448
f 412/195/449 445/198/450 447/197/451 414/196/452
f 395/199/453 397/202/454 549/201/145 548/200/144
f 551/203/147 550/206/150 392/205/455 391/204/456
f 391/204/456 395/199/453 548/200/144 551/203/147
f 555/207/151 552/210/154 394/209/457 393/208/458
f 396/211/459 394/214/457 552/213/154 553/212/156
f 398/215/460 396/211/459 553/212/156 554/216/158
f 555/207/151 393/208/458 400/218/461 557/217/159
f 392/205/455 550/206/150 556/219/161 399/193/448
f 394/214/457 430/222/462 429/221/463 393/220/458
f 400/218/461 401/224/464 558/223/164 557/217/159
f 556/219/161 567/225/166 411/190/446 399/193/448
f 410/226/465 443/229/466 442/228/467 409/227/468
f 401/224/464 404/231/469 560/230/171 558/223/164
f 395/199/453 431/233/470 433/232/471 397/202/454
f 404/231/469 406/235/472 562/234/175 560/230/171
f 559/236/177 561/239/180 405/238/473 403/237/474
f 406/235/472 408/241/475 564/240/181 562/234/175
f 561/239/180 563/243/184 407/242/476 405/238/473
f 565/244/185 566/245/186 410/226/465 409/227/468
f 414/196/452 447/197/451 446/192/444 413/189/443
f 554/246/158 575/249/188 418/248/477 398/247/460
f 412/195/449 414/196/452 570/251/190 568/250/189
f 398/215/460 434/253/478 432/252/479 396/211/459
f 409/227/468 412/195/449 568/250/189 565/244/185
f 569/254/193 570/251/190 414/196/452 413/189/443
f 567/225/166 569/254/193 413/189/443 411/190/446
f 415/255/480 448/258/481 449/257/482 416/256/483
f 415/255/480 416/256/483 572/260/199 571/259/198
f 399/193/448 435/194/447 428/261/484 392/205/455
f 566/245/186 572/260/199 416/256/483 410/226/465
f 571/259/198 573/263/202 417/262/485 415/255/480
f 397/264/454 402/267/486 574/266/203 549/265/145
f 420/268/487 426/270/488 424/269/489 418/248/477
f 575/249/188 577/271/208 420/268/487 418/248/477
f 402/267/486 419/273/490 576/272/209 574/266/203
f 418/248/477 424/269/489 422/274/491 398/247/460
f 420/268/487 577/271/208 576/272/209 419/273/490
f 408/275/475 407/242/476 563/243/184 564/276/181
f 421/277/492 426/270/488 425/279/493 423/278/494
f 421/277/492 422/274/491 424/269/489 426/270/488
f 397/264/454 421/277/492 423/278/494 402/267/486
f 402/267/486 423/278/494 425/279/493 419/273/490
f 398/247/460 422/274/491 421/277/492 397/264/454
f 419/273/490 425/279/493 426/270/488 420/268/487
f 428/261/484 429/221/463 430/222/462 427/280/495
f 427/280/495 430/222/462 432/252/479 431/233/470
f 431/233/470 432/252/479 434/253/478 433/232/471
f 429/221/463 428/261/484 435/194/447 436/281/496
f 439/282/497 437/284/498 448/258/481 441/283/499
f 435/285/447 460/288/500 461/287/501 437/286/498
f 435/194/447 444/191/445 445/198/450 442/228/467
f 444/191/445 446/192/444 447/197/451 445/198/450
f 443/229/466 449/257/482 448/258/481 437/284/498
f 416/256/483 449/257/482 443/229/466 410/226/465
f 393/220/458 429/221/463 436/281/496 400/289/461
f 396/211/459 432/252/479 430/222/462 394/214/457
f 401/224/464 438/291/502 440/290/503 404/231/469
f 409/227/468 442/228/467 445/198/450 412/195/449
f 400/218/461 436/292/496 438/291/502 401/224/464
f 391/204/456 427/280/495 431/233/470 395/199/453
f 417/262/485 441/283/499 448/258/481 415/255/480
f 397/202/454 433/232/471 434/253/478 398/215/460
f 392/205/455 428/261/484 427/280/495 391/204/456
f 408/275/475 453/294/504 452/293/505 407/242/476
f 451/295/506 453/296/504 408/241/475 406/235/472
f 452/293/505 450/297/507 405/238/473 407/242/476
f 440/290/503 451/295/506 406/235/472 404/231/469
f 439/282/497 403/237/474 405/238/473 450/297/507
f 452/293/505 453/294/504 451/298/506 450/297/507
f 439/282/497 450/297/507 451/298/506 440/299/503
f 439/282/497 458/301/508 457/300/509 437/284/498
f 435/194/447 454/303/510 455/302/511 436/281/496
f 455/302/511 454/303/510 457/300/509 456/304/512
f 459/305/513 456/304/512 457/300/509 458/301/508
f 440/299/503 459/305/513 458/301/508 439/282/497
f 436/281/496 455/302/511 456/304/512 438/306/502
f 438/306/502 456/304/512 459/305/513 440/299/503
f 437/284/498 457/300/509 454/303/510 435/194/447
f 525/307/30 302/308/338 417/262/485 573/263/202
f 302/308/338 284/309/337 441/283/499 417/262/485
f 284/309/337 310/310/365 403/237/474 441/283/499
f 532/311/46 559/236/177 403/237/474 310/310/365
f 437/286/498 461/287/501 463/313/514 443/312/466
f 443/314/466 463/317/514 462/316/515 442/315/467
f 442/315/467 462/316/515 460/288/500 435/285/447
f 460/288/500 467/319/516 466/318/517 461/287/501
f 462/316/515 465/320/518 467/319/516 460/288/500
f 463/317/514 464/321/519 465/320/518 462/316/515
f 461/287/501 466/318/517 464/322/519 463/313/514
f 474/323/520 481/326/521 482/325/522 473/324/523
f 486/327/524 478/330/525 477/329/526 487/328/527
f 470/331/528 485/334/529 479/333/530 480/332/531
f 489/335/532 475/338/533 502/337/534 490/336/535
f 473/324/523 482/325/522 483/340/536 472/339/537
f 490/336/535 502/337/534 503/342/538 501/341/539
f 487/328/527 492/344/540 491/343/541 486/327/524
f 490/336/535 495/346/542 494/345/543 489/335/532
f 488/347/544 493/348/545 492/344/540 487/328/527
f 489/335/532 494/345/543 493/348/545 488/347/544
f 495/346/542 500/350/546 499/349/547 494/345/543
f 493/348/545 498/352/548 497/351/549 492/344/540
f 494/345/543 499/349/547 498/352/548 493/348/545
f 492/344/540 497/351/549 496/353/550 491/343/541
f 488/347/544 476/354/551 475/338/533 489/335/532
f 472/339/537 483/340/536 484/356/552 471/355/553
f 480/332/531 479/333/530 478/330/525 486/327/524
f 487/328/527 477/329/526 476/354/551 488/347/544
f 471/355/553 484/356/552 485/334/529 470/331/528
f 501/341/539 503/342/538 481/326/521 474/323/520
f 486/327/524 491/343/541 480/332/531
f 501/341/539 495/346/542 490/336/535
f 491/343/541 496/353/550 480/332/531
f 501/341/539 500/350/546 495/346/542
f 500/350/546 474/323/520 473/324/523 499/349/547
f 498/352/548 472/339/537 471/355/553 497/351/549
f 496/353/550 470/331/528 480/332/531
f 501/341/539 474/323/520 500/350/546
f 499/349/547 473/324/523 472/339/537 498/352/548
f 497/351/549 471/355/553 470/331/528 496/353/550
f 504/357/554 507/360/555 508/359/556 505/358/557
f 506/361/558 509/362/559 507/360/555 504/357/554
f 439/282/497 441/283/499 403/237/474
f 465/320/518 511/364/560 513/363/561 467/319/516
f 467/319/516 513/363/561 512/365/562 466/318/517
f 466/318/517 512/365/562 510/366/563 464/322/519
f 464/321/519 510/367/563 511/364/560 465/320/518
f 468/368/564 511/364/560 510/367/563
f 512/365/562 513/363/561 469/369/565
f 511/364/560 468/368/564 516/370/566
f 513/363/561 517/371/567 469/369/565
f 513/363/561 511/364/560 516/370/566 517/371/567
f 468/368/564 510/367/563 514/372/568
f 469/369/565 515/373/569 512/365/562
f 512/365/562 515/373/569 514/374/568 510/366/563
f 516/370/566 522/376/570 523/375/571 517/371/567
f 468/368/564 518/377/572 522/376/570 516/370/566
f 514/372/568 520/378/573 518/377/572 468/368/564
f 515/373/569 521/379/574 520/378/573 514/374/568
f 517/371/567 523/375/571 519/380/575 469/369/565
f 469/369/565 519/380/575 521/379/574 515/373/569
f 522/376/570 518/377/572 519/380/575 523/375/571
f 520/378/573 521/379/574 519/380/575 518/377/572
f 582/428/576 581/429/577 579/430/578
f 579/430/578 581/429/577 578/431/579
f 579/430/578 580/432/580 582/428/576
f 578/431/579 580/432/580 579/430/578
f 507/386/555 592/388/581 591/387/582 508/359/556
f 504/389/554 588/392/583 589/391/584 506/390/558
f 509/393/559 593/394/585 592/388/581 507/386/555
f 506/361/558 589/396/584 593/395/585 509/362/559
f 508/359/556 591/387/582 590/397/586 505/358/557
f 587/433/587 585/434/588 586/435/589
f 505/358/557 590/397/586 588/392/583 504/389/554
f 586/435/589 585/434/588 583/436/590
f 586/435/589 584/437/591 587/433/587
f 583/436/590 584/437/591 586/435/589
f 589/391/584 588/392/583 592/388/581 593/394/585
f 588/392/583 590/397/586 591/387/582 592/388/581
f 598/438/592 596/439/593 597/440/594
f 597/440/594 596/439/593 594/441/595
f 597/440/594 595/442/596 598/438/592
f 594/441/595 595/442/596 597/440/594
f 603/443/597 601/444/598 602/445/599
f 602/445/599 601/444/598 599/446/600
f 602/445/599 600/447/601 603/443/597
f 599/446/600 600/447/601 602/445/599
f 608/448/602 607/449/603 605/450/604
f 605/450/604 607/449/603 604/451/605
f 605/450/604 606/452/606 608/448/602
f 604/451/605 606/452/606 605/450/604
f 613/453/607 612/454/603 610/455/608
f 610/455/608 612/454/603 609/456/609
f 610/455/608 611/457/610 613/453/607
f 609/456/609 611/457/610 610/455/608
f 618/458/611 616/459/612 617/460/613
f 617/460/613 616/459/612 614/461/614
f 617/460/613 615/462/615 618/458/611
f 614/461/614 615/462/615 617/460/613
