# Blender 3.6.22
# www.blender.org
mtllib vaso_dados.mtl
o pCylinder1
v 2.959318 -4.686544 0.023575
v 2.517346 -4.686544 -0.843842
v 3.491359 5.462638 -1.551504
v 4.104338 5.462638 -0.348464
v 1.828958 -4.686544 -1.532229
v 2.536620 5.462637 -2.506242
v 0.961540 -4.686544 -1.974200
v 1.333580 5.462637 -3.119223
v -0.000000 -4.686544 -2.126494
v 0.000000 5.462637 -3.330441
v -0.961541 -4.686544 -1.974200
v -1.333580 5.462637 -3.119222
v -1.828959 -4.686544 -1.532229
v -2.536620 5.462637 -2.506242
v -2.517345 -4.686544 -0.843842
v -3.491357 5.462638 -1.551504
v -2.959317 -4.686544 0.023575
v -4.104336 5.462638 -0.348464
v -3.111609 -4.686544 0.985116
v -4.315554 5.462638 0.985115
v -2.959317 -4.686544 1.946658
v -4.104336 5.462638 2.318695
v -2.517345 -4.686544 2.814075
v -3.491357 5.462638 3.521734
v -1.828958 -4.686544 3.502462
v -2.536619 5.462638 4.476472
v -0.961540 -4.686544 3.944432
v -1.333580 5.462638 5.089451
v -0.000000 -4.686544 4.096725
v -0.000000 5.462638 5.300667
v 0.961540 -4.686544 3.944432
v 1.333579 5.462638 5.089451
v 1.828958 -4.686544 3.502462
v 2.536618 5.462638 4.476472
v 1.828958 -4.686544 3.502462
v 2.517344 -4.686544 2.814075
v 3.491356 5.462638 3.521734
v 2.536618 5.462638 4.476472
v 2.959316 -4.686544 1.946656
v 4.104335 5.462638 2.318695
v 3.111609 -4.686544 0.985116
v 4.315554 5.462638 0.985115
v 2.517346 -4.686544 -0.843842
v 2.959318 -4.686544 0.023575
v -0.000000 -4.686544 0.985116
v 1.828958 -4.686544 -1.532229
v 0.961540 -4.686544 -1.974200
v -0.000000 -4.686544 -2.126494
v -0.961541 -4.686544 -1.974200
v -1.828959 -4.686544 -1.532229
v -2.517345 -4.686544 -0.843842
v -2.959317 -4.686544 0.023575
v -3.111609 -4.686544 0.985116
v -2.959317 -4.686544 1.946658
v -2.517345 -4.686544 2.814075
v -1.828958 -4.686544 3.502462
v -0.961540 -4.686544 3.944432
v -0.000000 -4.686544 4.096725
v 0.961540 -4.686544 3.944432
v 1.828958 -4.686544 3.502462
v 2.517344 -4.686544 2.814075
v 2.959316 -4.686544 1.946656
v 3.111609 -4.686544 0.985116
v 4.104338 5.462638 -0.348464
v 3.491359 5.462638 -1.551504
v 3.138845 5.462638 -1.295389
v 3.689934 5.462638 -0.213815
v 2.536620 5.462637 -2.506242
v 2.280504 5.462638 -2.153731
v 1.333580 5.462637 -3.119223
v 1.198932 5.462637 -2.704818
v 0.000000 5.462637 -3.330441
v -0.000000 5.462637 -2.894709
v 1.198932 5.462637 -2.704818
v -1.333580 5.462637 -3.119222
v -1.198932 5.462637 -2.704817
v -2.536620 5.462637 -2.506242
v -2.280504 5.462638 -2.153727
v -3.491357 5.462638 -1.551504
v -3.138844 5.462638 -1.295388
v -4.104336 5.462638 -0.348464
v -3.689932 5.462638 -0.213815
v -4.315554 5.462638 0.985115
v -3.879824 5.462638 0.985115
v -4.104336 5.462638 2.318695
v -3.689932 5.462638 2.184047
v -3.491357 5.462638 3.521734
v -3.138844 5.462638 3.265620
v -2.536619 5.462638 4.476472
v -2.280503 5.462638 4.123958
v -1.333580 5.462638 5.089451
v -1.198932 5.462638 4.675047
v -0.000000 5.462638 5.300667
v -0.000000 5.462638 4.864940
v 1.333579 5.462638 5.089451
v 1.198931 5.462638 4.675047
v 2.536618 5.462638 4.476472
v 2.280503 5.462638 4.123958
v 3.491356 5.462638 3.521734
v 3.138843 5.462638 3.265620
v 4.104335 5.462638 2.318695
v 3.689931 5.462638 2.184047
v 4.315554 5.462638 0.985115
v 3.879823 5.462638 0.985115
v 3.689934 5.462638 -0.213815
v 3.138845 5.462638 -1.295389
v 2.263176 -4.345040 -0.659179
v 2.660523 -4.345040 0.120661
v 2.280504 5.462638 -2.153731
v 1.644294 -4.345040 -1.278060
v 1.198932 5.462637 -2.704818
v 0.864456 -4.345040 -1.675406
v -0.000000 5.462637 -2.894709
v -0.000000 -4.345040 -1.812322
v -1.198932 5.462637 -2.704817
v -0.864456 -4.345040 -1.675406
v -2.280504 5.462638 -2.153727
v -1.644294 -4.345040 -1.278059
v -3.138844 5.462638 -1.295388
v -2.263176 -4.345040 -0.659177
v -3.689932 5.462638 -0.213815
v -2.660522 -4.345040 0.120661
v -3.879824 5.462638 0.985115
v -2.797438 -4.345040 0.985116
v -3.689932 5.462638 2.184047
v -2.660522 -4.345040 1.849574
v -3.138844 5.462638 3.265620
v -2.263175 -4.345040 2.629411
v -2.280503 5.462638 4.123958
v -1.644293 -4.345040 3.248291
v -2.280503 5.462638 4.123958
v -1.198932 5.462638 4.675047
v -0.864456 -4.345040 3.645639
v -1.644293 -4.345040 3.248291
v -0.000000 5.462638 4.864940
v -0.000000 -4.345040 3.782554
v 1.198931 5.462638 4.675047
v 0.864456 -4.345040 3.645636
v 2.280503 5.462638 4.123958
v 1.644292 -4.345040 3.248291
v 3.138843 5.462638 3.265620
v 2.263175 -4.345040 2.629408
v 3.689931 5.462638 2.184047
v 2.660521 -4.345040 1.849571
v 3.879823 5.462638 0.985115
v 2.797437 -4.345040 0.985116
v -1.644293 -4.345040 3.248291
v -0.000000 -4.345040 0.985116
v -2.263175 -4.345040 2.629411
v 2.263176 -4.345040 -0.659179
v 1.644294 -4.345040 -1.278060
v 0.864456 -4.345040 -1.675406
v -0.000000 -4.345040 -1.812322
v -0.864456 -4.345040 -1.675406
v -1.644294 -4.345040 -1.278059
v -2.263176 -4.345040 -0.659177
v -2.660522 -4.345040 0.120661
v -2.797438 -4.345040 0.985116
v -2.660522 -4.345040 1.849574
v -0.864456 -4.345040 3.645639
v -0.000000 -4.345040 3.782554
v 0.864456 -4.345040 3.645636
v 1.644292 -4.345040 3.248291
v 2.263175 -4.345040 2.629408
v 2.660521 -4.345040 1.849571
v 2.797437 -4.345040 0.985116
v 2.660523 -4.345040 0.120661
vn 0.9444 -0.1178 -0.3069
vn 0.8034 -0.1178 -0.5837
vn 0.5837 -0.1178 -0.8034
vn 0.3069 -0.1178 -0.9444
vn -0.0000 -0.1178 -0.9930
vn -0.3069 -0.1178 -0.9444
vn -0.5837 -0.1178 -0.8034
vn -0.8034 -0.1178 -0.5837
vn -0.9444 -0.1178 -0.3069
vn -0.9930 -0.1178 -0.0000
vn -0.9444 -0.1178 0.3069
vn -0.8034 -0.1178 0.5837
vn -0.5837 -0.1178 0.8034
vn -0.3069 -0.1178 0.9444
vn -0.0000 -0.1178 0.9930
vn 0.3069 -0.1178 0.9444
vn 0.5837 -0.1178 0.8034
vn 0.8034 -0.1178 0.5837
vn 0.9444 -0.1178 0.3069
vn 0.9930 -0.1178 -0.0000
vn -0.0000 -1.0000 -0.0000
vn -0.0000 1.0000 -0.0000
vn -0.9453 0.1097 0.3072
vn -0.8041 0.1097 0.5842
vn -0.5842 0.1097 0.8041
vn -0.3072 0.1097 0.9453
vn -0.0000 0.1097 0.9940
vn 0.3072 0.1097 0.9453
vn 0.5842 0.1097 0.8041
vn 0.8041 0.1097 0.5842
vn 0.9453 0.1097 0.3072
vn 0.9940 0.1097 -0.0000
vn 0.9453 0.1097 -0.3072
vn 0.8041 0.1097 -0.5842
vn 0.5842 0.1097 -0.8041
vn 0.3072 0.1097 -0.9453
vn -0.0000 0.1097 -0.9940
vn -0.3072 0.1097 -0.9453
vn -0.5842 0.1097 -0.8041
vn -0.8041 0.1097 -0.5842
vn -0.9453 0.1097 -0.3072
vn -0.9940 0.1097 -0.0000
vt 0.725416 0.517981
vt 0.749541 0.523355
vt 0.749242 0.526811
vt 0.725002 0.522774
vt 0.749028 0.530281
vt 0.724705 0.527587
vt 0.748899 0.533760
vt 0.724527 0.532412
vt 0.748857 0.537244
vt 0.724468 0.537244
vt 0.748899 0.540729
vt 0.724527 0.542077
vt 0.749028 0.544208
vt 0.724705 0.546902
vt 0.749242 0.547678
vt 0.725002 0.551715
vt 0.749541 0.551133
vt 0.725416 0.556507
vt 0.749924 0.554570
vt 0.725948 0.561274
vt 0.706349 0.561274
vt 0.730325 0.554570
vt 0.730793 0.557984
vt 0.706998 0.566008
vt 0.731344 0.561369
vt 0.707763 0.570703
vt 0.731978 0.564721
vt 0.658222 0.229203
vt 0.699967 0.412537
vt 0.675649 0.417605
vt 0.675609 0.224905
vt 0.724081 0.406577
vt 0.680488 0.525805
vt 0.704840 0.527827
vt 0.704754 0.531309
vt 0.680369 0.530635
vt 0.704754 0.534794
vt 0.680369 0.535468
vt 0.704840 0.538276
vt 0.680488 0.540298
vt 0.708642 0.499136
vt 0.731978 0.509768
vt 0.731344 0.513120
vt 0.707763 0.503786
vt 0.730793 0.516505
vt 0.706998 0.508481
vt 0.726597 0.508481
vt 0.750392 0.516505
vt 0.749924 0.519919
vt 0.725948 0.513215
vt 0.667756 0.537028
vt 0.666390 0.534209
vt 0.673006 0.529153
vt 0.669635 0.539077
vt 0.671845 0.540153
vt 0.674168 0.540153
vt 0.676377 0.539077
vt 0.678257 0.537028
vt 0.679622 0.534209
vt 0.680340 0.530895
vt 0.680340 0.527410
vt 0.679622 0.524096
vt 0.678257 0.521277
vt 0.676377 0.519229
vt 0.674168 0.518152
vt 0.671845 0.518152
vt 0.669635 0.519229
vt 0.667756 0.521277
vt 0.666390 0.524096
vt 0.665672 0.527410
vt 0.665672 0.530895
vt 0.696314 0.545626
vt 0.697049 0.544523
vt 0.698943 0.548433
vt 0.698017 0.549141
vt 0.699939 0.553029
vt 0.698912 0.553273
vt 0.699939 0.557862
vt 0.698912 0.557618
vt 0.699939 0.557862
vt 0.698943 0.562459
vt 0.698017 0.561751
vt 0.697049 0.566369
vt 0.696314 0.565266
vt 0.694443 0.569210
vt 0.693970 0.567820
vt 0.691378 0.570703
vt 0.691216 0.569163
vt 0.688156 0.570703
vt 0.688319 0.569163
vt 0.685092 0.569210
vt 0.685564 0.567820
vt 0.682485 0.566369
vt 0.683221 0.565266
vt 0.680592 0.562459
vt 0.681518 0.561751
vt 0.679596 0.557862
vt 0.680623 0.557618
vt 0.679596 0.553029
vt 0.680623 0.553273
vt 0.680592 0.548433
vt 0.681518 0.549141
vt 0.682485 0.544523
vt 0.683221 0.545626
vt 0.685092 0.541682
vt 0.685564 0.543072
vt 0.688156 0.540189
vt 0.688319 0.541729
vt 0.691378 0.540189
vt 0.691216 0.541729
vt 0.694443 0.541682
vt 0.693971 0.543072
vt 0.700892 0.508293
vt 0.724438 0.508293
vt 0.724389 0.512637
vt 0.654841 0.300097
vt 0.648499 0.118596
vt 0.664586 0.117757
vt 0.724438 0.512691
vt 0.701069 0.517011
vt 0.700764 0.512691
vt 0.747295 0.258497
vt 0.747185 0.076885
vt 0.763292 0.076599
vt 0.724956 0.258127
vt 0.731078 0.076618
vt 0.724438 0.525146
vt 0.700896 0.525752
vt 0.700896 0.521407
vt 0.724438 0.522013
vt 0.700995 0.517065
vt 0.680382 0.255090
vt 0.698940 0.074428
vt 0.714990 0.075799
vt 0.724438 0.566462
vt 0.701062 0.570694
vt 0.700764 0.566372
vt 0.724224 0.563345
vt 0.700566 0.562037
vt 0.724081 0.560220
vt 0.700466 0.557695
vt 0.724009 0.557089
vt 0.700466 0.553350
vt 0.724009 0.553956
vt 0.700566 0.549008
vt 0.724081 0.550825
vt 0.700764 0.544673
vt 0.724224 0.547700
vt 0.701062 0.540351
vt 0.724438 0.544583
vt 0.724438 0.507634
vt 0.700896 0.508240
vt 0.700896 0.503895
vt 0.768794 0.353558
vt 0.713478 0.180575
vt 0.728735 0.175406
vt 0.747400 0.359997
vt 0.698052 0.185217
vt 0.725797 0.365698
vt 0.682476 0.189328
vt 0.704012 0.370654
vt 0.666769 0.192901
vt 0.682069 0.374860
vt 0.650947 0.195934
vt 0.659995 0.378310
vt 0.721591 0.294315
vt 0.696627 0.114427
vt 0.712543 0.111939
vt 0.699412 0.297006
vt 0.680636 0.116367
vt 0.677153 0.298934
vt 0.673859 0.788871
vt 0.706338 0.832604
vt 0.661635 0.800830
vt 0.751042 0.864378
vt 0.738818 0.876337
vt 0.723414 0.884015
vt 0.706338 0.886661
vt 0.689263 0.884015
vt 0.673859 0.876337
vt 0.661635 0.864378
vt 0.653786 0.849309
vt 0.651081 0.832604
vt 0.653786 0.815900
vt 0.689263 0.781193
vt 0.706338 0.778547
vt 0.723414 0.781193
vt 0.738818 0.788871
vt 0.751042 0.800830
vt 0.758891 0.815900
vt 0.761595 0.832604
vt 0.758891 0.849309
s 1
usemtl M_Wuerfeln.001
f 4/1/1 1/2/1 2/3/2
f 2/3/2 3/4/2 4/1/1
f 3/4/2 2/3/2 5/5/3
f 5/5/3 6/6/3 3/4/2
f 6/6/3 5/5/3 7/7/4
f 7/7/4 8/8/4 6/6/3
f 8/8/4 7/7/4 9/9/5
f 9/9/5 10/10/5 8/8/4
f 10/10/5 9/9/5 11/11/6
f 11/11/6 12/12/6 10/10/5
f 12/12/6 11/11/6 13/13/7
f 13/13/7 14/14/7 12/12/6
f 14/14/7 13/13/7 15/15/8
f 15/15/8 16/16/8 14/14/7
f 16/16/8 15/15/8 17/17/9
f 17/17/9 18/18/9 16/16/8
f 18/18/9 17/17/9 19/19/10
f 19/19/10 20/20/10 18/18/9
f 20/21/10 19/22/10 21/23/11
f 21/23/11 22/24/11 20/21/10
f 22/24/11 21/23/11 23/25/12
f 23/25/12 24/26/12 22/24/11
f 24/26/12 23/25/12 25/27/13
f 25/28/13 26/29/13 24/30/12
f 26/29/13 25/28/13 27/31/14
f 27/31/14 28/32/14 26/29/13
f 28/33/14 27/34/14 29/35/15
f 29/35/15 30/36/15 28/33/14
f 30/36/15 29/35/15 31/37/16
f 31/37/16 32/38/16 30/36/15
f 32/38/16 31/37/16 33/39/17
f 33/39/17 34/40/17 32/38/16
f 38/41/17 35/42/17 36/43/18
f 36/43/18 37/44/18 38/41/17
f 37/44/18 36/43/18 39/45/19
f 39/45/19 40/46/19 37/44/18
f 40/47/19 39/48/19 41/49/20
f 41/49/20 42/50/20 40/47/19
f 42/50/20 41/49/20 1/2/1
f 1/2/1 4/1/1 42/50/20
s 0
f 43/51/21 44/52/21 45/53/21
f 46/54/21 43/51/21 45/53/21
f 47/55/21 46/54/21 45/53/21
f 48/56/21 47/55/21 45/53/21
f 49/57/21 48/56/21 45/53/21
f 50/58/21 49/57/21 45/53/21
f 51/59/21 50/58/21 45/53/21
f 52/60/21 51/59/21 45/53/21
f 53/61/21 52/60/21 45/53/21
f 54/62/21 53/61/21 45/53/21
f 55/63/21 54/62/21 45/53/21
f 56/64/21 55/63/21 45/53/21
f 57/65/21 56/64/21 45/53/21
f 58/66/21 57/65/21 45/53/21
f 59/67/21 58/66/21 45/53/21
f 60/68/21 59/67/21 45/53/21
f 61/69/21 60/68/21 45/53/21
f 62/70/21 61/69/21 45/53/21
f 63/71/21 62/70/21 45/53/21
f 44/52/21 63/71/21 45/53/21
f 67/72/22 64/73/22 65/74/22
f 65/74/22 66/75/22 67/72/22
f 66/75/22 65/74/22 68/76/22
f 68/76/22 69/77/22 66/75/22
f 69/77/22 68/76/22 70/78/22
f 70/78/22 71/79/22 69/77/22
f 74/79/22 70/80/22 72/81/22
f 72/81/22 73/82/22 74/79/22
f 73/82/22 72/81/22 75/83/22
f 75/83/22 76/84/22 73/82/22
f 76/84/22 75/83/22 77/85/22
f 77/85/22 78/86/22 76/84/22
f 78/86/22 77/85/22 79/87/22
f 79/87/22 80/88/22 78/86/22
f 80/88/22 79/87/22 81/89/22
f 81/89/22 82/90/22 80/88/22
f 82/90/22 81/89/22 83/91/22
f 83/91/22 84/92/22 82/90/22
f 84/92/22 83/91/22 85/93/22
f 85/93/22 86/94/22 84/92/22
f 86/94/22 85/93/22 87/95/22
f 87/95/22 88/96/22 86/94/22
f 88/96/22 87/95/22 89/97/22
f 89/97/22 90/98/22 88/96/22
f 90/98/22 89/97/22 91/99/22
f 91/99/22 92/100/22 90/98/22
f 92/100/22 91/99/22 93/101/22
f 93/101/22 94/102/22 92/100/22
f 94/102/22 93/101/22 95/103/22
f 95/103/22 96/104/22 94/102/22
f 96/104/22 95/103/22 97/105/22
f 97/105/22 98/106/22 96/104/22
f 98/106/22 97/105/22 99/107/22
f 99/107/22 100/108/22 98/106/22
f 100/108/22 99/107/22 101/109/22
f 101/109/22 102/110/22 100/108/22
f 102/110/22 101/109/22 103/111/22
f 103/111/22 104/112/22 102/110/22
f 104/112/22 103/111/22 64/73/22
f 64/73/22 67/72/22 104/112/22
s 1
f 108/113/23 105/114/23 106/115/24
f 106/116/24 107/117/24 108/118/23
f 107/119/24 106/120/24 109/121/25
f 109/122/25 110/123/25 107/124/24
f 110/123/25 109/122/25 111/125/26
f 111/125/26 112/126/26 110/123/25
f 112/127/26 111/128/26 113/129/27
f 113/129/27 114/130/27 112/127/26
f 114/130/27 113/129/27 115/131/28
f 115/132/28 116/133/28 114/134/27
f 116/135/28 115/136/28 117/137/29
f 117/137/29 118/138/29 116/135/28
f 118/138/29 117/137/29 119/139/30
f 119/139/30 120/140/30 118/138/29
f 120/140/30 119/139/30 121/141/31
f 121/141/31 122/142/31 120/140/30
f 122/142/31 121/141/31 123/143/32
f 123/143/32 124/144/32 122/142/31
f 124/144/32 123/143/32 125/145/33
f 125/145/33 126/146/33 124/144/32
f 126/146/33 125/145/33 127/147/34
f 127/147/34 128/148/34 126/146/33
f 128/148/34 127/147/34 129/149/35
f 129/149/35 130/150/35 128/148/34
f 134/151/35 131/152/35 132/153/36
f 132/154/36 133/155/36 134/156/35
f 133/155/36 132/154/36 135/157/37
f 135/157/37 136/158/37 133/155/36
f 136/158/37 135/157/37 137/159/38
f 137/159/38 138/160/38 136/158/37
f 138/160/38 137/159/38 139/161/39
f 139/161/39 140/162/39 138/160/38
f 140/162/39 139/161/39 141/163/40
f 141/163/40 142/164/40 140/162/39
f 142/164/40 141/163/40 143/165/41
f 143/166/41 144/167/41 142/168/40
f 144/167/41 143/166/41 145/169/42
f 145/169/42 146/170/42 144/167/41
f 146/170/42 145/169/42 105/171/23
f 105/171/23 108/118/23 146/170/42
s 0
f 147/172/22 148/173/22 149/174/22
f 150/175/22 151/176/22 148/173/22
f 148/173/22 151/176/22 152/177/22
f 148/173/22 152/177/22 153/178/22
f 148/173/22 153/178/22 154/179/22
f 148/173/22 154/179/22 155/180/22
f 148/173/22 155/180/22 156/181/22
f 148/173/22 156/181/22 157/182/22
f 148/173/22 157/182/22 158/183/22
f 148/173/22 158/183/22 159/184/22
f 148/173/22 159/184/22 149/174/22
f 160/185/22 148/173/22 147/172/22
f 161/186/22 148/173/22 160/185/22
f 162/187/22 148/173/22 161/186/22
f 163/188/22 148/173/22 162/187/22
f 164/189/22 148/173/22 163/188/22
f 165/190/22 148/173/22 164/189/22
f 166/191/22 148/173/22 165/190/22
f 167/192/22 148/173/22 166/191/22
f 150/175/22 148/173/22 167/192/22
