# Blender 3.6.22
# www.blender.org
mtllib zapato_sonic.mtl
o obj1.042
v -0.087060 -0.186386 -0.166855
v -0.070255 -0.212997 -0.169030
v -0.016706 -0.178914 -0.107414
v -0.034651 -0.092709 -0.163761
v -0.172265 -0.194947 -0.229510
v -0.187731 -0.240198 -0.248675
v -0.131068 -0.243078 -0.204113
v -0.010449 -0.249034 -0.345350
v -0.061345 -0.246263 -0.398127
v -0.040893 -0.200920 -0.385033
v -0.117284 -0.191444 -0.429890
v -0.131719 -0.234499 -0.436773
v -0.172595 -0.176572 -0.441887
v -0.178016 -0.216720 -0.445104
v -0.234543 -0.228803 -0.314802
v -0.229949 -0.175031 -0.374642
v -0.226291 -0.186112 -0.302353
v -0.236228 -0.212580 -0.377681
v -0.212975 -0.169805 -0.412909
v -0.218980 -0.206001 -0.416169
v -0.189132 -0.148129 -0.393979
v -0.154274 -0.155555 -0.424022
v -0.111689 -0.137790 -0.379918
v -0.008264 -0.039004 -0.291604
v -0.140221 -0.130690 -0.353819
v -0.069245 -0.166871 -0.389722
v 0.031361 -0.067546 -0.291977
v 0.087404 -0.017953 -0.262291
v 0.064353 -0.098345 -0.279958
v 0.018421 0.005034 -0.271713
v 0.131507 -0.054221 -0.219736
v 0.139450 0.008030 -0.206701
v 0.172210 -0.055544 -0.157481
v 0.132631 -0.094424 -0.222787
v 0.149577 -0.179887 -0.222845
v 0.162602 -0.094967 -0.166892
v 0.109304 -0.185032 -0.255264
v 0.066775 -0.221953 -0.243996
v 0.093880 -0.252147 -0.242676
v 0.038466 -0.192334 -0.314721
v 0.023997 -0.217696 -0.280058
v -0.029735 -0.217147 -0.130830
v -0.018224 -0.246701 -0.111143
v 0.026724 -0.248852 -0.081787
v 0.024581 -0.173781 -0.076396
v 0.139614 -0.254239 -0.214333
v 0.095040 -0.167375 -0.058011
v 0.084224 -0.240143 -0.066913
v 0.143904 -0.240278 -0.110184
v 0.166509 -0.244927 -0.164854
v 0.157216 -0.168006 -0.102568
v 0.182444 -0.172049 -0.161379
v 0.144327 -0.094597 -0.116978
v 0.089939 -0.092138 -0.080430
v 0.155381 -0.054950 -0.109654
v 0.106309 -0.051495 -0.080194
v 0.114174 0.006842 -0.092130
v 0.040258 -0.049780 -0.113353
v 0.032010 -0.088862 -0.103902
v -0.047067 -0.063530 -0.198941
v -0.004562 -0.013235 -0.154333
v 0.057911 0.011821 -0.111929
v 0.165757 0.003856 -0.152115
v 0.006177 0.021534 -0.159855
v 0.085986 0.017133 -0.253435
v -0.005836 0.028388 -0.209087
v 0.035449 0.026516 -0.258461
v 0.006726 0.027742 -0.238368
v -0.022807 0.006885 -0.222754
v -0.049819 -0.038495 -0.243357
v -0.011716 0.006315 -0.252782
v -0.034395 -0.033863 -0.269243
v -0.158113 -0.135443 -0.324269
v -0.168187 -0.162096 -0.273646
v -0.207535 -0.152848 -0.360430
v 0.154918 -0.003197 -0.112581
vn -0.2382 -0.7958 0.5567
vn -0.6475 0.0798 0.7579
vn -0.5870 0.0048 0.8096
vn -0.2839 -0.7395 0.6104
vn -0.6514 0.4213 0.6310
vn -0.6866 0.2526 0.6818
vn -0.5788 -0.6808 0.4489
vn 0.3389 -0.7250 -0.5996
vn 0.5096 -0.8050 -0.3038
vn 0.1062 -0.6509 -0.7517
vn 0.5961 0.0490 -0.8014
vn 0.3790 0.2581 -0.8887
vn -0.8050 -0.5724 0.1562
vn -0.1510 0.4161 -0.8967
vn -0.2938 -0.4396 -0.8488
vn -0.8778 0.4657 -0.1123
vn -0.8229 0.4189 0.3839
vn -0.8731 -0.4255 -0.2381
vn -0.6668 0.5184 -0.5354
vn -0.7474 -0.3019 -0.5918
vn -0.3462 0.8931 -0.2874
vn 0.0533 0.7533 -0.6555
vn 0.0653 0.7523 -0.6556
vn -0.3138 0.9068 -0.2813
vn -0.0615 0.5697 -0.8195
vn 0.4127 0.4145 -0.8111
vn 0.3955 0.2996 -0.8682
vn -0.1229 0.5146 -0.8486
vn 0.4981 0.1061 -0.8606
vn 0.7703 0.0124 -0.6376
vn 0.5857 0.1946 -0.7868
vn 0.6436 0.6511 -0.4023
vn 0.9940 -0.0894 -0.0624
vn 0.7605 0.0887 -0.6433
vn 0.9927 0.0391 -0.1138
vn 0.7764 -0.0239 -0.6298
vn 0.5733 -0.1441 -0.8066
vn 0.0112 -0.7351 -0.6779
vn -0.1157 -0.7618 -0.6374
vn 0.7136 -0.2684 -0.6471
vn 0.3907 -0.9142 -0.1077
vn -0.7375 -0.6245 0.2572
vn -0.6909 -0.6704 0.2705
vn -0.2690 -0.7011 0.6604
vn -0.4327 0.1214 0.8933
vn 0.1820 0.0901 0.9792
vn 0.1514 -0.6139 0.7747
vn 0.5421 -0.7457 -0.3875
vn 0.5596 -0.6762 0.4792
vn 0.7509 -0.6603 0.0123
vn 0.7770 0.0328 0.6287
vn 0.9995 0.0130 -0.0292
vn 0.7721 -0.0106 0.6354
vn 0.0902 0.0162 0.9958
vn 0.0548 0.1867 0.9809
vn 0.7554 -0.1082 0.6462
vn 0.1031 0.6514 0.7517
vn -0.5270 0.1830 0.8299
vn -0.4988 0.2936 0.8155
vn -0.7627 0.4721 0.4420
vn -0.7680 0.2169 0.6026
vn -0.2904 0.7078 0.6440
vn 0.7862 0.6174 -0.0276
vn -0.4645 0.7964 0.3874
vn 0.3640 0.7410 -0.5643
vn -0.4799 0.8730 0.0866
vn 0.0324 0.8461 -0.5321
vn -0.3127 0.9101 -0.2720
vn -0.8298 0.5581 -0.0068
vn -0.5773 0.6444 -0.5014
vn -0.7787 0.6273 0.0109
vn -0.5292 0.7079 -0.4678
vn -0.5515 0.8280 0.1008
vn -0.6163 0.6780 0.4006
vn -0.5541 0.8305 0.0566
vn 0.6816 0.4660 0.5642
vt 0.721569 0.560784
vt 0.643137 0.627451
vt 0.737255 0.607843
vt 0.792157 0.501961
vt 0.698039 0.780392
vt 0.843137 0.584314
vt 0.866667 0.501961
vt 0.811765 0.490196
vt 0.870588 0.490196
vt 0.874510 0.011765
vt 0.772549 0.447059
vt 0.815686 0.086275
vt 0.952941 0.035294
vt 0.211765 0.501961
vt 0.137255 0.501961
vt 0.160784 0.588235
vt 0.070588 0.596078
vt 0.066667 0.505882
vt 0.952941 0.435294
vt 0.027451 0.611765
vt 0.027451 0.505882
vt 0.984314 0.078431
vt 0.968627 0.611765
vt 0.937255 0.505882
vt 0.929412 0.596078
vt 0.980392 0.505882
vt 0.984314 0.376471
vt 1.000000 0.627451
vt 0.996078 0.505882
vt 1.003922 0.235294
vt 0.003922 0.627451
vt 0.003922 0.505882
vt 0.988235 0.698039
vt 0.043137 0.658823
vt 0.007843 0.694118
vt 0.105882 0.694118
vt 0.003922 0.701961
vt 0.050980 0.764706
vt 0.243137 0.878431
vt 0.133333 0.647059
vt 0.274510 0.831373
vt 0.290196 0.952941
vt 0.337255 0.929412
vt 0.400000 0.866667
vt 0.309804 0.780392
vt 0.411765 0.980392
vt 0.462745 0.870588
vt 0.400000 0.792157
vt 0.458824 0.800000
vt 0.415686 0.639216
vt 0.364706 0.627451
vt 0.360784 0.505882
vt 0.341176 0.556863
vt 0.270588 0.607843
vt 0.282353 0.560784
vt 0.725490 0.431373
vt 0.768627 0.129412
vt 0.725490 0.125490
vt 0.666667 0.556863
vt 0.643137 0.505882
vt 0.686275 0.439216
vt 0.588235 0.505882
vt 0.611765 0.431373
vt 0.682353 0.101961
vt 0.588235 0.639216
vt 0.545098 0.658823
vt 0.533333 0.384314
vt 0.611765 0.043137
vt 0.549020 0.505882
vt 0.505882 0.505882
vt 0.505882 0.231373
vt 0.533333 0.078431
vt 0.494118 0.505882
vt 0.462745 0.505882
vt 0.498039 0.658823
vt 0.462745 0.654902
vt 0.415686 0.505882
vt 0.498039 0.796078
vt 0.556863 0.870588
vt 0.549020 0.792157
vt 0.505882 0.796078
vt 0.509804 0.662745
vt 0.498039 0.870588
vt 0.509804 0.870588
vt 0.545098 0.972549
vt 0.603922 0.866667
vt 0.603922 0.796078
vt 0.729412 0.831373
vt 0.670588 0.929412
vt 0.592157 0.980392
vt 0.447059 0.098039
vt 0.337255 0.486274
vt 0.443137 0.423529
vt 0.329412 0.011765
vt 0.168627 0.490196
vt 0.654902 0.968627
vt 0.164706 0.015686
vt 0.054902 0.392157
vt 0.686275 0.984314
vt 0.050980 0.098039
vt 0.011765 0.243137
vt 0.713726 0.952941
vt 0.709804 1.000000
vt 0.764706 0.988235
vt 0.780392 0.894118
vt 0.235294 0.988235
vt 0.325490 0.992157
vt 0.294118 1.000000
vt 0.854902 0.976471
vt 0.168627 0.968627
vt 0.913725 0.713725
vt 0.984314 0.788235
vt 0.870588 0.647059
vt 0.960784 0.654902
vt 0.352941 0.984314
vt 0.454902 0.976471
vt 0.494118 0.968627
vt 0.490196 0.247059
vt 0.513726 0.960784
s 1
usemtl sonic_soapshoes
f 2/1/1 3/2/2 1/3/3
f 7/4/4 2/1/1 1/3/3
f 3/2/2 4/5/5 1/3/3
f 4/5/5 5/6/6 1/3/3
f 6/7/7 1/3/3 5/6/6
f 6/7/7 7/4/4 1/3/3
f 7/8/4 6/9/7 9/10/8
f 2/11/1 7/8/4 8/12/9
f 7/8/4 9/10/8 8/12/9
f 6/9/7 12/13/10 9/10/8
f 8/14/9 9/15/8 10/16/11
f 9/15/8 11/17/12 10/16/11
f 9/15/8 12/18/10 11/17/12
f 6/9/7 15/19/13 12/13/10
f 12/18/10 13/20/14 11/17/12
f 12/18/10 14/21/15 13/20/14
f 15/19/13 14/22/15 12/13/10
f 16/23/16 15/24/13 17/25/17
f 16/23/16 18/26/18 15/24/13
f 15/24/13 5/6/6 17/25/17
f 15/24/13 6/7/7 5/6/6
f 15/19/13 18/27/18 14/22/15
f 16/23/16 19/28/19 18/26/18
f 19/28/19 20/29/20 18/26/18
f 18/27/18 20/30/20 14/22/15
f 19/31/19 13/20/14 20/32/20
f 14/21/15 20/32/20 13/20/14
f 21/33/21 19/28/19 16/23/16
f 22/34/22 19/31/19 21/35/21
f 19/31/19 22/34/22 13/20/14
f 23/36/23 22/34/22 21/37/21
f 22/34/22 11/17/12 13/20/14
f 22/34/22 23/36/23 11/17/12
f 23/36/23 21/37/21 25/38/24
f 24/39/25 23/36/23 25/38/24
f 23/36/23 24/39/25 26/40/26
f 23/36/23 26/40/26 11/17/12
f 24/39/25 27/41/27 26/40/26
f 10/16/11 26/40/26 27/41/27
f 10/16/11 11/17/12 26/40/26
f 24/39/25 30/42/28 27/41/27
f 30/42/28 28/43/29 27/41/27
f 28/43/29 31/44/30 27/41/27
f 29/45/31 10/16/11 27/41/27
f 29/45/31 27/41/27 31/44/30
f 31/44/30 32/46/32 33/47/33
f 31/44/30 28/43/29 32/46/32
f 34/48/34 31/44/30 33/47/33
f 34/48/34 29/45/31 31/44/30
f 34/48/34 33/47/33 36/49/35
f 35/50/36 34/48/34 36/49/35
f 35/50/36 37/51/37 34/48/34
f 37/51/37 29/45/31 34/48/34
f 39/52/38 38/53/39 37/51/37
f 38/53/39 40/54/40 37/51/37
f 39/52/38 37/51/37 35/50/36
f 37/51/37 40/54/40 29/45/31
f 41/55/41 40/54/40 38/53/39
f 41/55/41 8/14/9 40/54/40
f 8/14/9 10/16/11 40/54/40
f 40/54/40 10/16/11 29/45/31
f 42/56/42 41/57/41 38/58/39
f 2/11/1 8/12/9 41/57/41
f 42/56/42 2/11/1 41/57/41
f 2/1/1 42/59/42 3/2/2
f 42/59/42 43/60/43 3/2/2
f 43/61/43 42/56/42 38/58/39
f 44/62/44 3/2/2 43/60/43
f 44/63/44 43/61/43 39/64/38
f 43/61/43 38/58/39 39/64/38
f 45/65/45 3/2/2 44/62/44
f 47/66/46 45/65/45 44/62/44
f 48/67/47 44/63/44 46/68/48
f 44/63/44 39/64/38 46/68/48
f 48/69/47 47/66/46 44/62/44
f 47/66/46 48/69/47 49/70/49
f 49/71/49 48/67/47 50/72/50
f 48/67/47 46/68/48 50/72/50
f 49/73/49 50/74/50 51/75/51
f 50/74/50 52/76/52 51/75/51
f 50/74/50 35/50/36 52/76/52
f 46/77/48 35/50/36 50/74/50
f 53/78/53 52/76/52 36/49/35
f 53/78/53 51/75/51 52/76/52
f 35/50/36 36/49/35 52/76/52
f 56/79/54 54/80/55 53/81/53
f 54/80/55 51/82/51 53/81/53
f 55/83/56 53/78/53 36/49/35
f 56/79/54 53/81/53 55/84/56
f 57/85/57 56/79/54 55/84/56
f 57/85/57 58/86/58 56/79/54
f 56/79/54 58/86/58 54/80/55
f 54/80/55 58/86/58 59/87/59
f 58/86/58 4/5/5 59/87/59
f 58/86/58 60/88/60 4/5/5
f 58/86/58 61/89/61 60/88/60
f 62/90/62 61/89/61 58/86/58
f 57/85/57 62/90/62 58/86/58
f 63/91/63 62/92/62 57/93/57
f 63/91/63 32/94/32 62/92/62
f 32/94/32 64/95/64 62/92/62
f 62/90/62 64/96/64 61/89/61
f 32/94/32 65/97/65 64/95/64
f 65/97/65 66/98/66 64/95/64
f 66/99/66 61/89/61 64/96/64
f 65/97/65 67/100/67 66/98/66
f 67/100/67 68/101/68 66/98/66
f 69/102/69 66/99/66 68/103/68
f 66/99/66 69/102/69 61/89/61
f 69/102/69 68/103/68 71/104/70
f 69/102/69 60/88/60 61/89/61
f 69/102/69 70/105/71 60/88/60
f 70/105/71 69/102/69 71/104/70
f 30/42/28 71/106/70 67/107/67
f 71/106/70 68/108/68 67/107/67
f 70/105/71 71/104/70 72/109/72
f 30/42/28 72/110/72 71/106/70
f 70/105/71 72/109/72 73/111/73
f 30/42/28 24/39/25 72/110/72
f 24/39/25 25/38/24 72/110/72
f 72/109/72 25/112/24 73/111/73
f 60/88/60 73/111/73 74/113/74
f 70/105/71 73/111/73 60/88/60
f 73/111/73 17/25/17 74/113/74
f 73/111/73 75/114/75 17/25/17
f 73/111/73 25/112/24 75/114/75
f 75/114/75 16/23/16 17/25/17
f 75/114/75 21/33/21 16/23/16
f 25/112/24 21/33/21 75/114/75
f 60/88/60 74/113/74 4/5/5
f 4/5/5 74/113/74 5/6/6
f 74/113/74 17/25/17 5/6/6
f 30/42/28 67/107/67 65/115/65
f 28/43/29 65/115/65 32/46/32
f 28/43/29 30/42/28 65/115/65
f 63/116/63 33/47/33 32/46/32
f 76/117/76 33/47/33 63/116/63
f 76/118/76 63/91/63 57/93/57
f 76/117/76 55/83/56 33/47/33
f 57/85/57 55/84/56 76/119/76
f 54/80/55 59/87/59 45/65/45
f 45/65/45 59/87/59 3/2/2
f 59/87/59 4/5/5 3/2/2
f 55/83/56 36/49/35 33/47/33
f 54/80/55 47/66/46 51/82/51
f 47/66/46 54/80/55 45/65/45
f 47/66/46 49/70/49 51/82/51
f 46/77/48 39/52/38 35/50/36
