# 3ds Max Wavefront OBJ Exporter v0.99 - (c)2007 guruware
# File Created: 26.04.2025 14:31:27

mtllib crash_pierna_derecha.mtl

#
# object crash_pierna_derecha
#

v  -1.7419 -4.3272 -0.3019
v  -1.8020 -4.3116 -0.0587
v  -1.5205 -2.4457 -0.0125
v  -1.2125 -2.4831 -0.3018
v  -1.5018 -4.3495 -0.4483
v  -1.3585 -4.3689 -0.2525
v  -0.9595 -2.4778 -0.0205
v  -0.9204 -2.4315 0.4387
v  -1.3796 -4.3569 0.0307
v  -1.2242 -2.4100 0.5916
v  -1.6018 -4.3336 0.0952
v  -1.5525 -2.4007 0.3918
v  -0.2314 -1.2408 0.0486
v  -0.4639 -0.3393 0.6880
v  -0.7216 -1.0335 0.9294
v  -0.0027 -0.9147 -0.0126
v  -1.1206 -2.7831 -0.9551
v  -0.5843 -2.2746 -0.0905
v  -0.6360 -2.8765 -0.1312
v  -1.0035 -2.1483 -0.8085
v  -1.6160 -2.5975 -0.8244
v  -1.3913 -1.9006 -0.7261
v  -0.9457 -1.6691 0.8702
v  -0.4735 -1.7186 0.0666
v  -0.7535 -1.9957 0.5124
v  -0.8234 -2.2663 0.5284
v  -1.6702 -1.8852 -0.2048
v  -1.4697 -1.5250 0.7951
v  -1.5023 -1.2841 -0.0679
v  -1.6614 -1.6617 0.3591
v  -1.7397 -2.0355 0.2431
v  -1.7584 -2.0290 0.2754
v  -1.7563 -2.3247 0.4100
v  -1.9332 -2.6439 -0.3092
v  -1.9034 -2.7988 0.3854
v  -0.9804 -3.1610 0.6873
v  -0.6308 -3.3406 -0.2133
v  -0.9996 -2.9102 0.6865
v  -0.9261 0.8725 0.0747
v  -0.8418 0.1740 -0.2433
v  -1.0183 0.2631 0.2969
v  -0.4059 0.6834 -0.5078
v  -0.6003 0.9991 -0.2995
v  -0.0088 1.0249 -0.3986
v  -0.0047 0.7437 -0.5457
v  -1.0191 -2.4906 0.6589
v  -1.3136 -2.1377 0.1719
v  -2.1527 -3.3436 0.3493
v  -2.2662 -3.4764 -0.3918
v  -2.0413 -3.1893 0.9504
v  -0.9428 -3.5392 0.6432
v  -1.2479 -3.3262 1.1178
v  -0.6247 -3.6936 -0.2229
v  -1.1630 -3.6181 -1.2200
v  -1.8485 -3.4644 -1.0099
v  -1.2797 -1.2472 -0.5208
v  -0.8854 -1.3565 -0.5863
v  0.0042 0.1982 0.8532
v  -0.2831 0.2557 0.8278
v  0.0018 -0.4838 0.6963
v  -1.1693 -0.6194 0.8387
v  -1.3200 -0.4483 0.1710
v  -0.7579 0.2150 0.6389
v  -0.7348 0.5566 0.4832
v  -0.7123 -0.9498 -0.5356
v  -1.0355 -0.4886 -0.3994
v  -0.5214 -0.5163 -0.5566
v  -1.1857 -3.2563 -1.0368
v  -1.7701 -3.1594 -0.8884
v  -2.1826 -3.1592 -0.3450
v  -2.0827 -3.0151 0.3383
v  -0.0090 -0.5138 -0.4179
v  -0.0065 0.1024 -0.6611
v  -0.4141 0.0818 -0.6330
v  -1.2258 -2.4115 0.8937
v  -1.0976 -2.1738 0.9465
v  -1.0214 -1.9185 0.9188
v  -1.6417 -1.7814 0.8065
v  -1.7180 -2.0314 0.8247
v  -1.6740 -2.3131 0.7833
v  -1.8082 -2.7578 0.7626
v  -1.9660 -2.9112 0.8715
v  -1.1974 -3.0416 1.0909
v  -1.2127 -2.8598 0.9220
v  -1.1630 -3.6181 -1.2199
# 85 vertices

vn -0.7473 0.1708 -0.6422
vn -0.9217 0.0262 0.3870
vn -0.9113 0.1719 -0.3741
vn -0.5856 0.1682 -0.7930
vn 0.2003 0.0458 -0.9787
vn 0.1317 0.0635 -0.9893
vn 0.9300 -0.1597 -0.3310
vn 0.4412 -0.0031 -0.8974
vn 0.9110 -0.1448 -0.3862
vn 0.8995 -0.2779 0.3371
vn 0.6209 -0.3129 0.7187
vn -0.1345 -0.2209 0.9660
vn -0.2086 -0.2058 0.9561
vn -0.8945 0.0114 0.4469
vn 0.9107 -0.4115 0.0365
vn 0.1605 -0.2728 0.9486
vn 0.4008 -0.0071 0.9161
vn 0.1614 -0.8426 0.5138
vn 0.4136 0.1020 -0.9047
vn 0.9939 -0.1090 0.0189
vn 0.9999 0.0023 0.0153
vn 0.4538 0.1283 -0.8818
vn -0.5160 0.2930 -0.8049
vn -0.5031 0.3227 -0.8017
vn 0.6364 -0.1164 0.7625
vn 0.9536 -0.2530 -0.1634
vn 0.9676 0.1528 0.2009
vn 0.8978 -0.1418 0.4170
vn 0.8655 -0.3684 0.3393
vn -0.9261 0.3032 -0.2244
vn -0.8378 0.2256 0.4971
vn -0.9475 0.2914 -0.1314
vn -0.8159 0.4670 -0.3408
vn -0.6693 0.6214 -0.4072
vn -0.5237 0.8354 -0.1666
vn -0.8697 0.3979 -0.2919
vn -0.8554 0.4394 -0.2742
vn -0.8750 0.3841 -0.2948
vn -0.9698 0.1886 0.1548
vn -0.9051 0.3792 -0.1925
vn -0.8855 0.4589 0.0730
vn 0.9207 0.0079 0.3902
vn 0.9945 0.0289 -0.1004
vn 0.9104 0.0701 0.4077
vn -0.9326 0.1682 -0.3194
vn -0.7236 0.1909 -0.6633
vn -0.9185 0.3623 0.1584
vn -0.4474 0.2661 -0.8538
vn -0.4986 0.2422 -0.8323
vn -0.0001 0.4701 -0.8826
vn 0.0003 0.2842 -0.9588
vn 0.8905 -0.1901 0.4134
vn 0.6144 -0.7842 0.0873
vn 0.8198 -0.5725 -0.0140
vn 0.7541 -0.6235 0.2063
vn 0.5239 -0.7104 -0.4699
vn -0.7729 -0.5454 -0.3243
vn -0.8789 -0.3438 -0.3308
vn -0.4616 -0.5679 -0.6815
vn -0.9061 -0.4179 0.0658
vn -0.7973 -0.5847 0.1499
vn -0.4138 -0.6456 0.6418
vn 0.3787 -0.6961 0.6100
vn -0.5415 0.3083 -0.7822
vn 0.3917 0.0378 -0.9193
vn 0.0013 -0.2082 0.9781
vn -0.2968 0.0372 0.9542
vn 0.0007 -0.5798 0.8147
vn -0.1241 -0.9892 0.0775
vn -0.6530 0.2489 0.7153
vn -0.9427 0.3214 -0.0894
vn -0.3409 0.2848 0.8959
vn -0.6237 0.3606 0.6935
vn 0.1775 -0.9319 -0.3162
vn 0.2441 -0.1064 -0.9639
vn -0.6402 0.3112 -0.7023
vn -0.0449 -0.1748 -0.9836
vn -0.0013 -0.5733 -0.8193
vn 0.1730 -0.7902 -0.5880
vn 0.5881 0.1075 -0.8016
vn -0.4124 0.2234 -0.8832
vn -0.8515 0.4643 -0.2436
vn -0.7672 0.6410 -0.0230
vn -0.7411 0.5806 0.3371
vn 0.4908 -0.2474 0.8354
vn 0.4281 -0.8011 0.4183
vn 0.0006 -0.5520 -0.8339
vn -0.0010 -0.8175 -0.5760
vn -0.0001 -0.1022 -0.9948
vn -0.3336 0.0962 -0.9378
vn 0.7220 -0.2454 0.6469
vn 0.2707 -0.1079 0.9566
vn 0.7905 0.1895 0.5824
vn 0.3197 -0.1578 0.9343
vn 0.7908 -0.2279 0.5681
vn 0.5096 -0.0273 0.8600
vn 0.8108 -0.1563 0.5641
vn 0.2241 0.0794 0.9713
vn -0.4584 0.2917 0.8395
vn -0.5641 0.4103 0.7166
vn -0.9210 0.3681 0.1274
vn -0.8004 0.0391 0.5982
vn -0.9883 0.1336 0.0733
vn -0.9788 0.1020 0.1776
vn -0.6266 -0.0005 0.7793
vn -0.7334 0.5084 0.4514
vn -0.8732 0.4564 0.1708
vn -0.8389 0.5337 0.1069
vn -0.6079 0.5760 0.5465
vn -0.9588 0.2493 0.1364
vn -0.5340 0.2899 0.7942
vn 0.4929 0.2931 0.8192
vn 0.3803 0.0199 0.9247
vn 0.8547 -0.0291 0.5184
vn 0.8859 0.0515 0.4611
vn 0.1497 0.3923 0.9076
vn 0.1795 0.4394 -0.8802
vn -0.3886 0.4371 -0.8111
vn -0.5975 0.3843 -0.7037
vn 0.5990 0.3063 -0.7398
vn -0.9689 0.2260 0.1007
vn -0.9232 0.3031 -0.2362
vn -0.9712 0.2107 0.1110
vn -0.9233 0.2818 -0.2611
vn 0.9369 0.0303 0.3484
vn 0.9962 0.0321 0.0808
vn 0.9651 0.1264 -0.2295
vn 0.9404 0.0543 0.3357
# 128 vertex normals

vt 0.9767 0.9189 0.0000
vt 0.9864 0.9189 0.0000
vt 0.9765 0.8309 0.0000
vt 0.9686 0.8309 0.0000
vt 0.9688 0.9189 0.0000
vt 0.9862 0.8309 0.0000
vt 0.9929 0.8309 0.0000
vt 0.9931 0.9189 0.0000
vt 0.0679 0.6837 0.0000
vt 0.1664 0.7726 0.0000
vt 0.1664 0.6837 0.0000
vt 0.0679 0.7726 0.0000
vt 0.1829 0.7704 0.0000
vt 0.0041 0.6872 0.0000
vt 0.0041 0.7704 0.0000
vt 0.1829 0.6872 0.0000
vt 0.2771 0.7704 0.0000
vt 0.2771 0.6872 0.0000
vt 0.1663 0.6837 0.0000
vt 0.1245 0.7303 0.0000
vt 0.1245 0.7726 0.0000
vt 0.3659 0.7726 0.0000
vt 0.2090 0.6837 0.0000
vt 0.3659 0.6837 0.0000
vt 0.2796 0.7303 0.0000
vt 0.2796 0.7726 0.0000
vt 0.2793 0.7303 0.0000
vt 0.2090 0.7726 0.0000
vt 0.2793 0.6837 0.0000
vt 0.9863 0.5136 0.0000
vt 0.7970 0.5915 0.0000
vt 0.8275 0.5135 0.0000
vt 0.8851 0.6502 0.0000
vt 0.9886 0.6501 0.0000
vt 0.9863 0.7772 0.0000
vt 0.8833 0.7771 0.0000
vt 0.1664 0.7304 0.0000
vt 0.2005 0.3319 0.0000
vt 0.2552 0.3347 0.0000
vt 0.2511 0.3272 0.0000
vt 0.2590 0.3365 0.0000
vt 0.2559 0.3294 0.0000
vt 0.2571 0.3356 0.0000
vt 0.2608 0.3316 0.0000
vt 0.2516 0.3330 0.0000
vt 0.2578 0.3302 0.0000
vt 0.2452 0.3301 0.0000
vt 0.2523 0.3278 0.0000
vt 0.2504 0.3325 0.0000
vt 0.2472 0.3255 0.0000
vt 0.4039 0.6872 0.0000
vt 0.4039 0.7704 0.0000
vt 0.6019 0.8274 0.0000
vt 0.5066 0.6089 0.0000
vt 0.6019 0.6087 0.0000
vt 0.5066 0.8275 0.0000
vt 0.5066 0.9901 0.0000
vt 0.2682 0.5393 0.0000
vt 0.3457 0.6722 0.0000
vt 0.2682 0.6722 0.0000
vt 0.4311 0.5847 0.0000
vt 0.2682 0.5039 0.0000
vt 0.4133 0.5038 0.0000
vt 0.4904 0.5038 0.0000
vt 0.4904 0.6086 0.0000
vt 0.4904 0.6722 0.0000
vt 0.2601 0.3370 0.0000
vt 0.2597 0.3311 0.0000
vt 0.4040 0.7704 0.0000
vt 0.2465 0.3307 0.0000
vt 0.2459 0.3249 0.0000
vt 0.6839 0.7772 0.0000
vt 0.6157 0.7772 0.0000
vt 0.6863 0.6501 0.0000
vt 0.7793 0.7771 0.0000
vt 0.7811 0.6502 0.0000
vt 0.0076 0.9013 0.0000
vt 0.0681 0.9014 0.0000
vt 0.0076 0.8753 0.0000
vt 0.0681 0.9333 0.0000
vt 0.0076 0.9332 0.0000
vt 0.0681 0.9621 0.0000
vt 0.0076 0.9622 0.0000
vt 0.0399 0.9813 0.0000
vt 0.3539 0.9621 0.0000
vt 0.3812 0.9816 0.0000
vt 0.4108 0.9621 0.0000
vt 0.3539 0.9332 0.0000
vt 0.4108 0.9332 0.0000
vt 0.4108 0.9013 0.0000
vt 0.3539 0.9014 0.0000
vt 0.3539 0.8753 0.0000
vt 0.4108 0.8753 0.0000
vt 0.4108 0.8364 0.0000
vt 0.3539 0.8364 0.0000
vt 0.4108 0.7846 0.0000
vt 0.3539 0.7847 0.0000
vt 0.0681 0.8364 0.0000
vt 0.0681 0.7848 0.0000
vt 0.0076 0.7847 0.0000
vt 0.0076 0.8364 0.0000
vt 0.0681 0.8753 0.0000
vt 0.1580 0.0829 0.0000
vt 0.1547 0.0028 0.0000
vt 0.1562 0.0830 0.0000
vt 0.1570 0.0028 0.0000
vt 0.1671 0.0832 0.0000
vt 0.1579 0.0029 0.0000
vt 0.1671 0.0029 0.0000
vt 0.1582 0.0831 0.0000
vt 0.1553 0.0831 0.0000
vt 0.1614 0.0029 0.0000
vt 0.1616 0.0831 0.0000
vt 0.1690 0.0832 0.0000
vt 0.1589 0.0029 0.0000
vt 0.1589 0.0831 0.0000
vt 0.1687 0.0029 0.0000
vt 0.1624 0.0830 0.0000
vt 0.1536 0.0028 0.0000
vt 0.1554 0.0830 0.0000
vt 0.1624 0.0029 0.0000
# 121 texture coords

o crash_pierna_derecha
g crash_pierna_derecha
usemtl Crash_08___Default
s 1
f 1/1/1 2/2/2 3/3/3 
f 1/1/1 3/3/3 4/4/4 
f 5/5/5 1/1/1 4/4/6 
f 6/1/7 5/5/5 4/4/8 
f 6/1/7 4/4/8 7/3/9 
f 6/1/7 7/3/9 8/6/10 
f 9/2/11 6/1/7 8/6/10 
f 9/2/11 8/6/10 10/7/12 
f 11/8/13 9/2/11 10/7/12 
f 2/2/2 11/8/13 10/7/12 
f 2/2/2 10/7/12 12/6/14 
f 3/3/3 2/2/2 12/6/14 
f 13/9/15 14/10/16 15/11/17 
f 13/9/15 16/12/18 14/10/16 
f 17/13/19 18/14/20 19/15/21 
f 17/13/19 20/16/22 18/14/20 
f 21/17/23 20/16/22 17/13/19 
f 21/17/23 22/18/24 20/16/22 
f 23/19/25 18/12/20 24/9/26 
f 25/20/27 18/12/20 23/19/28 
f 25/20/27 26/21/29 18/12/20 
f 27/22/30 28/23/31 29/24/32 
f 27/22/33 30/25/34 28/23/35 
f 31/26/36 30/25/34 27/22/37 
f 31/26/36 32/26/38 30/25/34 
f 33/27/39 34/22/40 35/28/41 
f 32/29/38 34/22/40 33/27/39 
f 31/29/36 34/22/40 32/29/38 
f 31/29/36 27/24/37 34/22/40 
f 19/12/21 36/19/42 37/9/43 
f 19/12/21 38/10/44 36/19/42 
f 39/30/45 40/31/46 41/32/47 
f 39/30/45 42/33/48 40/31/46 
f 43/34/49 42/33/48 39/30/45 
f 44/35/50 42/33/48 43/34/49 
f 44/35/50 45/36/51 42/33/48 
f 46/37/52 18/12/20 26/21/29 
f 46/37/52 19/9/21 18/12/20 
f 38/11/44 19/9/21 46/37/52 
f 47/38/53 48/39/54 49/40/55 
f 47/38/53 50/41/56 48/42/54 
f 47/38/57 51/43/58 52/44/59 
f 47/38/57 53/45/60 51/46/58 
f 47/38/61 54/47/62 53/48/60 
f 47/38/53 49/49/55 55/50/63 
f 56/17/64 27/51/37 29/52/32 
f 56/17/64 22/18/24 27/51/37 
f 57/13/65 22/18/24 56/17/64 
f 57/13/65 20/16/22 22/18/24 
f 24/15/26 20/16/22 57/13/65 
f 24/15/26 18/14/20 20/16/22 
f 14/53/16 58/54/66 59/55/67 
f 14/53/16 60/56/68 58/54/66 
f 16/57/69 60/56/68 14/53/16 
f 61/58/70 41/59/47 62/60/71 
f 63/61/72 41/59/47 61/58/70 
f 15/62/17 63/61/72 61/58/70 
f 14/63/16 63/61/72 15/62/17 
f 59/64/67 63/61/72 14/63/16 
f 64/65/73 63/61/72 59/64/67 
f 41/59/47 63/61/72 64/65/73 
f 39/66/45 41/59/47 64/65/73 
f 47/38/74 52/67/59 50/68/56 
f 57/13/65 13/14/15 24/15/26 
f 57/13/65 65/16/75 13/14/15 
f 56/17/64 65/16/75 57/13/65 
f 56/17/64 66/18/76 65/16/75 
f 29/52/32 66/18/76 56/17/64 
f 62/51/71 66/18/76 29/52/32 
f 41/69/47 66/18/76 62/51/71 
f 40/17/46 66/18/76 41/69/47 
f 67/13/77 66/18/76 40/17/46 
f 67/13/77 65/16/75 66/18/76 
f 16/15/78 65/16/75 67/13/77 
f 16/15/79 13/14/15 65/16/75 
f 68/16/80 19/15/21 37/14/43 
f 68/16/80 17/13/19 19/15/21 
f 69/18/81 17/13/19 68/16/80 
f 69/18/81 21/17/23 17/13/19 
f 70/51/82 21/17/23 69/18/81 
f 34/52/40 21/17/23 70/51/82 
f 34/52/40 22/18/24 21/17/23 
f 27/51/37 22/18/24 34/52/40 
f 70/22/82 35/23/41 34/24/40 
f 70/22/82 71/28/83 35/23/41 
f 29/24/32 61/28/70 62/22/71 
f 28/23/84 61/28/70 29/24/32 
f 23/11/85 61/28/70 28/23/31 
f 23/11/85 15/10/17 61/28/70 
f 23/11/25 13/12/15 15/10/17 
f 24/9/26 13/12/15 23/11/25 
f 47/38/86 55/70/63 54/71/62 
f 72/72/87 16/73/88 67/74/77 
f 67/74/77 73/75/89 72/72/87 
f 67/74/77 74/76/90 73/75/89 
f 40/31/46 74/76/90 67/74/77 
f 42/33/48 74/76/90 40/31/46 
f 45/36/51 74/76/90 42/33/48 
f 45/36/51 73/75/89 74/76/90 
f 46/77/91 75/78/92 38/79/93 
f 46/77/91 76/80/94 75/78/92 
f 26/81/95 76/80/94 46/77/91 
f 26/81/95 77/82/96 76/80/94 
f 25/83/97 77/82/96 26/81/95 
f 23/84/98 77/82/96 25/83/97 
f 23/84/98 78/85/99 77/82/96 
f 28/86/100 78/85/99 23/84/98 
f 30/87/101 78/85/99 28/86/100 
f 30/87/101 79/88/102 78/85/99 
f 32/89/103 79/88/102 30/87/101 
f 33/90/104 79/88/102 32/89/103 
f 33/90/104 80/91/105 79/88/102 
f 33/90/104 81/92/106 80/91/105 
f 35/93/107 81/92/106 33/90/104 
f 71/94/108 81/92/106 35/93/107 
f 71/94/108 82/95/109 81/92/106 
f 48/96/110 82/95/109 71/94/108 
f 50/97/111 82/95/109 48/96/110 
f 50/97/111 83/98/112 82/95/109 
f 52/99/113 83/98/112 50/97/111 
f 51/100/114 83/98/112 52/99/113 
f 36/101/115 83/98/112 51/100/114 
f 38/79/93 83/98/112 36/101/115 
f 38/79/93 84/102/116 83/98/112 
f 75/78/92 84/102/116 38/79/93 
f 78/85/99 76/80/94 77/82/96 
f 79/88/102 76/80/94 78/85/99 
f 79/88/102 75/78/92 76/80/94 
f 80/91/105 75/78/92 79/88/102 
f 80/91/105 84/102/116 75/78/92 
f 81/92/106 84/102/116 80/91/105 
f 82/95/109 84/102/116 81/92/106 
f 82/95/109 83/98/112 84/102/116 
f 68/103/117 55/104/118 69/105/119 
f 68/103/117 85/106/120 55/104/118 
f 71/107/121 49/108/122 48/109/123 
f 71/107/121 70/110/124 49/108/122 
f 69/111/119 49/112/122 70/113/124 
f 69/111/119 55/104/118 49/112/122 
f 36/114/125 53/115/126 37/116/127 
f 36/114/125 51/117/128 53/115/126 
f 37/118/127 85/119/120 68/120/117 
f 37/118/127 53/121/126 85/119/120 
# 0 polygons - 143 triangles

