# 3ds Max Wavefront OBJ Exporter v0.99 - (c)2007 guruware
# File Created: 26.04.2025 14:33:47

mtllib crash_pierna_izquierda.mtl

#
# object crash_pierna_izquierda
#

v  1.5149 -2.4457 -0.0142
v  1.7948 -4.3117 -0.0608
v  1.7272 -4.3272 -0.3041
v  1.1980 -2.4831 -0.3032
v  1.4890 -4.3495 -0.4501
v  1.3454 -4.3689 -0.2542
v  0.9473 -2.4778 -0.0216
v  0.9162 -2.4315 0.4378
v  1.3689 -4.3570 0.0290
v  1.2246 -2.4100 0.5906
v  1.5930 -4.3401 0.0933
v  1.5467 -2.4006 0.3902
v  -0.0088 1.0250 -0.3983
v  0.3913 0.6835 -0.5079
v  -0.0047 0.7438 -0.5454
v  0.5858 0.9992 -0.2999
v  0.9232 0.8727 0.0736
v  0.8290 0.1742 -0.2441
v  1.0160 0.2696 0.2961
v  0.4672 -0.3392 0.6877
v  0.2277 -1.2407 0.0493
v  0.7261 -1.0334 0.9295
v  -0.0027 -0.9146 -0.0123
v  0.6267 -2.8764 -0.1303
v  1.1675 -3.2431 -1.0357
v  0.6191 -3.3276 -0.2113
v  1.0987 -2.7830 -0.9543
v  0.5763 -2.2745 -0.0894
v  0.9861 -2.1482 -0.8075
v  1.6044 -2.5974 -0.8243
v  1.3764 -1.9005 -0.7256
v  1.9185 -2.6438 -0.3092
v  1.6650 -1.8851 -0.2046
v  1.1711 -0.6193 0.8386
v  1.4950 -1.2777 -0.0683
v  1.3138 -0.4482 0.1703
v  1.4701 -1.5249 0.7963
v  0.9484 -1.6690 0.8718
v  0.4640 -1.7185 0.0679
v  2.1730 -3.1462 -0.3441
v  1.7565 -3.1462 -0.8875
v  0.7515 -1.9956 0.5132
v  0.8219 -2.2662 0.5303
v  1.6610 -1.6616 0.3597
v  1.7358 -2.0354 0.2435
v  1.7555 -2.0289 0.2759
v  1.7511 -2.3246 0.4104
v  1.9038 -2.7987 0.3858
v  1.0216 -2.4905 0.6595
v  0.9965 -2.9101 0.6872
v  1.3074 -2.1376 0.1729
v  2.2552 -3.4634 -0.3913
v  2.1455 -3.3371 0.3505
v  0.0018 -0.4837 0.6966
v  0.0042 0.1983 0.8535
v  0.2845 0.2558 0.8279
v  0.9448 -3.5392 0.6423
v  0.6189 -3.6807 -0.2215
v  1.1396 -3.5706 -1.1871
v  1.8311 -3.4512 -1.0092
v  0.8683 -1.3564 -0.5859
v  0.6970 -0.9497 -0.5356
v  0.5053 -0.5162 -0.5563
v  1.0243 -0.4885 -0.3999
v  1.2648 -1.2471 -0.5208
v  2.0817 -3.0023 0.3397
v  0.9838 -3.1860 0.6863
v  0.7599 0.2151 0.6383
v  0.7382 0.5630 0.4825
v  2.0464 -3.1892 0.9485
v  1.2519 -3.3261 1.1167
v  -0.0090 -0.5137 -0.4176
v  -0.0065 0.1025 -0.6608
v  0.3957 0.0819 -0.6333
v  1.2293 -2.4114 0.8944
v  1.1027 -2.1737 0.9481
v  1.0257 -1.9184 0.9204
v  1.6425 -1.7813 0.8073
v  1.7257 -2.0313 0.8253
v  1.6804 -2.3068 0.7839
v  1.2170 -2.8597 0.9233
v  1.2122 -3.0621 1.0275
v  1.9686 -2.9111 0.8697
v  1.8076 -2.7577 0.7625
# 84 vertices

vn 0.9061 0.1705 -0.3872
vn 0.9251 0.0252 0.3789
vn 0.7389 0.1691 -0.6522
vn 0.5810 0.1671 -0.7966
vn -0.1353 0.0624 -0.9888
vn -0.1989 0.0460 -0.9789
vn -0.4423 -0.0032 -0.8968
vn -0.9324 -0.1603 -0.3239
vn -0.9150 -0.1464 -0.3759
vn -0.8960 -0.2768 0.3472
vn -0.6195 -0.3106 0.7209
vn 0.1367 -0.2207 0.9657
vn 0.2054 -0.2072 0.9565
vn 0.8966 0.0119 0.4428
vn -0.0001 0.4701 -0.8826
vn 0.4429 0.2669 -0.8559
vn 0.0003 0.2842 -0.9588
vn 0.4903 0.2483 -0.8354
vn 0.9277 0.1688 -0.3330
vn 0.7165 0.1887 -0.6716
vn 0.9212 0.3599 0.1481
vn -0.1579 -0.2720 0.9493
vn -0.9117 -0.4084 0.0451
vn -0.3988 -0.0052 0.9170
vn -0.1589 -0.8425 0.5147
vn -0.9997 -0.0008 0.0248
vn -0.5939 0.1080 -0.7973
vn -0.9954 0.0330 -0.0904
vn -0.4205 0.1020 -0.9015
vn -0.9936 -0.1097 0.0283
vn -0.4589 0.1273 -0.8793
vn 0.5138 0.2973 -0.8048
vn 0.4997 0.3213 -0.8044
vn 0.9281 0.3369 -0.1583
vn 0.8520 0.4362 -0.2896
vn 0.6560 0.2499 0.7121
vn 0.9457 0.2923 -0.1421
vn 0.9425 0.3195 -0.0984
vn 0.7423 0.5819 0.3324
vn -0.4869 -0.2432 0.8389
vn 0.8400 0.2273 0.4926
vn -0.6317 -0.1119 0.7671
vn -0.9554 -0.2520 -0.1539
vn 0.8415 0.4787 -0.2503
vn 0.4083 0.2265 -0.8843
vn -0.9655 0.1559 0.2086
vn -0.8945 -0.1374 0.4255
vn -0.8613 -0.3717 0.3463
vn 0.6673 0.6177 -0.4161
vn 0.7810 0.5710 -0.2529
vn 0.7610 0.6454 -0.0659
vn 0.9051 0.2805 -0.3196
vn 0.9550 0.2558 -0.1498
vn 0.9716 0.1892 0.1421
vn 0.8772 0.4768 0.0560
vn -0.5093 0.8602 -0.0251
vn -0.7258 0.6094 0.3191
vn -0.8870 -0.1881 0.4216
vn -0.9085 0.0611 0.4135
vn -0.6122 -0.7855 0.0900
vn -0.7516 -0.6259 0.2081
vn -0.8191 -0.5736 -0.0087
vn 0.0007 -0.5798 0.8147
vn 0.1267 -0.9890 0.0762
vn 0.0013 -0.2082 0.9781
vn 0.2984 0.0352 0.9538
vn 0.7710 -0.5424 -0.3337
vn 0.8767 -0.3406 -0.3397
vn 0.9071 -0.4178 0.0509
vn 0.7992 -0.5849 0.1386
vn 0.4195 -0.6503 0.6334
vn -0.4241 -0.8038 0.4172
vn -0.3748 -0.6983 0.6099
vn -0.3967 0.0371 -0.9172
vn -0.2486 -0.1090 -0.9624
vn -0.1748 -0.7904 -0.5871
vn 0.0422 -0.1758 -0.9835
vn -0.0013 -0.5733 -0.8193
vn 0.6343 0.3092 -0.7085
vn 0.5348 0.3061 -0.7876
vn 0.7480 0.6625 -0.0396
vn -0.9171 -0.0064 0.3986
vn 0.3422 0.2821 0.8963
vn 0.6294 0.3560 0.6907
vn -0.5257 -0.7124 -0.4649
vn -0.1772 -0.9315 -0.3177
vn 0.4606 -0.5651 -0.6845
vn 0.0006 -0.5520 -0.8339
vn -0.0010 -0.8175 -0.5760
vn -0.0001 -0.1022 -0.9948
vn 0.3310 0.0952 -0.9388
vn -0.2679 -0.1070 0.9575
vn -0.7196 -0.2433 0.6504
vn -0.7713 0.1305 0.6230
vn -0.3155 -0.1581 0.9357
vn -0.7845 -0.2286 0.5764
vn -0.5036 -0.0265 0.8635
vn -0.8054 -0.1559 0.5719
vn -0.2203 0.0788 0.9722
vn 0.4571 0.2973 0.8383
vn 0.5651 0.4107 0.7156
vn 0.9187 0.3757 0.1216
vn 0.8059 0.0383 0.5908
vn 0.9907 0.1244 0.0543
vn 0.9828 0.0953 0.1584
vn 0.6362 -0.0072 0.7715
vn -0.1516 0.3029 0.9409
vn -0.4824 0.2575 0.8373
vn -0.8357 0.0302 0.5484
vn -0.8418 0.0370 0.5385
vn -0.4254 0.2316 0.8749
vn 0.4924 0.3736 0.7861
vn 0.6027 0.5363 0.5909
vn 0.9618 0.2409 0.1301
vn 0.8349 0.5393 0.1104
vn 0.7325 0.5132 0.4472
vn 0.8648 0.4728 0.1694
vn -0.9957 0.0234 0.0900
vn -0.9322 0.0252 0.3610
vn -0.9682 0.1135 -0.2228
vn -0.9371 0.0607 0.3436
vn 0.3843 0.4227 -0.8207
vn -0.1858 0.4241 -0.8864
vn 0.5956 0.3803 -0.7075
vn -0.6041 0.2848 -0.7443
vn 0.9245 0.2946 -0.2421
vn 0.9721 0.2144 0.0955
vn 0.9755 0.1895 0.1120
vn 0.9219 0.2789 -0.2690
# 129 vertex normals

vt 0.9765 0.8309 0.0000
vt 0.9864 0.9189 0.0000
vt 0.9767 0.9189 0.0000
vt 0.9686 0.8309 0.0000
vt 0.9688 0.9189 0.0000
vt 0.9862 0.8309 0.0000
vt 0.9929 0.8309 0.0000
vt 0.9931 0.9189 0.0000
vt 0.9863 0.7772 0.0000
vt 0.8852 0.6502 0.0000
vt 0.8833 0.7771 0.0000
vt 0.9886 0.6501 0.0000
vt 0.9863 0.5136 0.0000
vt 0.7971 0.5917 0.0000
vt 0.8277 0.5135 0.0000
vt 0.1664 0.7726 0.0000
vt 0.0679 0.6837 0.0000
vt 0.1664 0.6837 0.0000
vt 0.0679 0.7726 0.0000
vt 0.0041 0.7704 0.0000
vt 0.1829 0.6872 0.0000
vt 0.0041 0.6872 0.0000
vt 0.1829 0.7704 0.0000
vt 0.2771 0.7704 0.0000
vt 0.2771 0.6872 0.0000
vt 0.4039 0.7704 0.0000
vt 0.4039 0.6872 0.0000
vt 0.2090 0.7726 0.0000
vt 0.3659 0.6837 0.0000
vt 0.3659 0.7726 0.0000
vt 0.2090 0.6837 0.0000
vt 0.1663 0.6837 0.0000
vt 0.1245 0.7303 0.0000
vt 0.1245 0.7726 0.0000
vt 0.2796 0.7303 0.0000
vt 0.2796 0.7726 0.0000
vt 0.2793 0.7303 0.0000
vt 0.2793 0.6837 0.0000
vt 0.1664 0.7304 0.0000
vt 0.2006 0.3319 0.0000
vt 0.2513 0.3273 0.0000
vt 0.2554 0.3348 0.0000
vt 0.6019 0.8274 0.0000
vt 0.5066 0.8275 0.0000
vt 0.5066 0.9901 0.0000
vt 0.5066 0.6089 0.0000
vt 0.6019 0.6087 0.0000
vt 0.2579 0.3303 0.0000
vt 0.2517 0.3331 0.0000
vt 0.2523 0.3278 0.0000
vt 0.2455 0.3302 0.0000
vt 0.2462 0.3250 0.0000
vt 0.2467 0.3308 0.0000
vt 0.4040 0.7704 0.0000
vt 0.4040 0.6872 0.0000
vt 0.3457 0.6722 0.0000
vt 0.2682 0.5394 0.0000
vt 0.2682 0.6722 0.0000
vt 0.4311 0.5848 0.0000
vt 0.2682 0.5039 0.0000
vt 0.4133 0.5038 0.0000
vt 0.4904 0.5038 0.0000
vt 0.4904 0.6087 0.0000
vt 0.4904 0.6722 0.0000
vt 0.2561 0.3295 0.0000
vt 0.2592 0.3366 0.0000
vt 0.2599 0.3312 0.0000
vt 0.2602 0.3370 0.0000
vt 0.2609 0.3316 0.0000
vt 0.2572 0.3356 0.0000
vt 0.6839 0.7772 0.0000
vt 0.6864 0.6501 0.0000
vt 0.6157 0.7772 0.0000
vt 0.7793 0.7771 0.0000
vt 0.7812 0.6502 0.0000
vt 0.2474 0.3256 0.0000
vt 0.2507 0.3326 0.0000
vt 0.0681 0.9014 0.0000
vt 0.0076 0.9013 0.0000
vt 0.0076 0.8753 0.0000
vt 0.0681 0.9333 0.0000
vt 0.0076 0.9332 0.0000
vt 0.0681 0.9621 0.0000
vt 0.0076 0.9622 0.0000
vt 0.0399 0.9814 0.0000
vt 0.3539 0.9621 0.0000
vt 0.3813 0.9816 0.0000
vt 0.4108 0.9621 0.0000
vt 0.3539 0.9332 0.0000
vt 0.4108 0.9332 0.0000
vt 0.4108 0.9013 0.0000
vt 0.3539 0.9014 0.0000
vt 0.0681 0.8753 0.0000
vt 0.0681 0.8364 0.0000
vt 0.0076 0.8364 0.0000
vt 0.0076 0.7847 0.0000
vt 0.0681 0.7848 0.0000
vt 0.3539 0.7847 0.0000
vt 0.3539 0.8364 0.0000
vt 0.4108 0.7846 0.0000
vt 0.4108 0.8364 0.0000
vt 0.3539 0.8753 0.0000
vt 0.4108 0.8753 0.0000
vt 0.1589 0.0029 0.0000
vt 0.1690 0.0832 0.0000
vt 0.1590 0.0831 0.0000
vt 0.1688 0.0029 0.0000
vt 0.1548 0.0028 0.0000
vt 0.1581 0.0829 0.0000
vt 0.1563 0.0830 0.0000
vt 0.1573 0.0028 0.0000
vt 0.1581 0.0029 0.0000
vt 0.1672 0.0832 0.0000
vt 0.1673 0.0029 0.0000
vt 0.1583 0.0831 0.0000
vt 0.1616 0.0029 0.0000
vt 0.1555 0.0831 0.0000
vt 0.1618 0.0831 0.0000
vt 0.1538 0.0028 0.0000
vt 0.1625 0.0830 0.0000
vt 0.1555 0.0830 0.0000
vt 0.1624 0.0029 0.0000
# 122 texture coords

o crash_pierna_izquierda
g crash_pierna_izquierda
usemtl Crash_08___Default
s 1
f 1/1/1 2/2/2 3/3/3 
f 4/4/4 1/1/1 3/3/3 
f 4/4/5 3/3/3 5/5/6 
f 4/4/7 5/5/6 6/3/8 
f 7/1/9 4/4/7 6/3/8 
f 8/6/10 7/1/9 6/3/8 
f 8/6/10 6/3/8 9/2/11 
f 10/7/12 8/6/10 9/2/11 
f 10/7/12 9/2/11 11/8/13 
f 10/7/12 11/8/13 2/2/2 
f 12/6/14 10/7/12 2/2/2 
f 12/6/14 2/2/2 1/1/1 
f 13/9/15 14/10/16 15/11/17 
f 16/12/18 14/10/16 13/9/15 
f 17/13/19 14/10/16 16/12/18 
f 17/13/19 18/14/20 14/10/16 
f 19/15/21 18/14/20 17/13/19 
f 20/16/22 21/17/23 22/18/24 
f 20/16/22 23/19/25 21/17/23 
f 24/20/26 25/21/27 26/22/28 
f 24/20/26 27/23/29 25/21/27 
f 28/22/30 27/23/29 24/20/26 
f 29/21/31 27/23/29 28/22/30 
f 29/21/31 30/24/32 27/23/29 
f 31/25/33 30/24/32 29/21/31 
f 31/25/33 32/26/34 30/24/32 
f 33/27/35 32/26/34 31/25/33 
f 34/28/36 35/29/37 36/30/38 
f 34/28/36 37/31/39 35/29/37 
f 34/28/36 38/18/40 37/31/41 
f 22/16/24 38/18/40 34/28/36 
f 21/19/23 38/18/42 22/16/24 
f 21/19/23 39/17/43 38/18/42 
f 40/27/44 30/24/32 32/26/34 
f 41/25/45 30/24/32 40/27/44 
f 41/25/45 27/23/29 30/24/32 
f 25/21/27 27/23/29 41/25/45 
f 28/19/30 38/32/42 39/17/43 
f 28/19/30 42/33/46 38/32/47 
f 43/34/48 42/33/46 28/19/30 
f 37/31/39 33/30/35 35/29/37 
f 44/35/49 33/30/50 37/31/51 
f 44/35/49 45/36/52 33/30/35 
f 46/36/53 45/36/52 44/35/49 
f 32/30/34 47/37/54 48/28/55 
f 32/30/34 46/38/53 47/37/54 
f 33/29/35 46/38/53 32/30/34 
f 33/29/56 45/38/57 46/38/57 
f 28/19/30 49/39/58 43/34/48 
f 24/17/26 49/39/58 28/19/30 
f 24/17/26 50/18/59 49/39/58 
f 51/40/60 52/41/61 53/42/62 
f 20/43/22 54/44/63 23/45/64 
f 20/43/22 55/46/65 54/44/63 
f 56/47/66 55/46/65 20/43/22 
f 51/40/67 57/48/68 58/49/69 
f 51/40/70 58/50/69 59/51/71 
f 51/40/72 59/52/71 60/53/73 
f 21/22/23 61/23/74 39/20/43 
f 21/22/23 62/21/75 61/23/74 
f 23/20/76 62/21/75 21/22/23 
f 63/23/77 62/21/75 23/20/78 
f 63/23/77 64/25/79 62/21/75 
f 18/24/20 64/25/79 63/23/77 
f 19/54/21 64/25/79 18/24/20 
f 36/55/38 64/25/79 19/54/21 
f 35/26/37 64/25/79 36/55/38 
f 65/24/80 64/25/79 35/26/37 
f 65/24/80 62/21/75 64/25/79 
f 61/23/74 62/21/75 65/24/80 
f 33/27/35 65/24/80 35/26/37 
f 31/25/33 65/24/80 33/27/35 
f 31/25/33 61/23/74 65/24/80 
f 29/21/31 61/23/74 31/25/33 
f 29/21/31 39/20/43 61/23/74 
f 28/22/30 39/20/43 29/21/31 
f 48/31/55 40/30/44 32/29/34 
f 48/31/55 66/28/81 40/30/44 
f 67/32/82 24/19/26 26/17/28 
f 67/32/82 50/16/59 24/19/26 
f 19/56/21 34/57/36 36/58/38 
f 68/59/83 34/57/36 19/56/21 
f 68/59/83 22/60/24 34/57/36 
f 68/59/83 20/61/22 22/60/24 
f 68/59/83 56/62/66 20/61/22 
f 68/59/83 69/63/84 56/62/66 
f 19/56/21 69/63/84 68/59/83 
f 17/64/19 69/63/84 19/56/21 
f 51/40/60 53/65/62 70/66/85 
f 51/40/86 70/67/85 71/68/87 
f 51/40/67 71/69/87 57/70/68 
f 72/71/88 63/72/77 23/73/89 
f 72/71/88 73/74/90 63/72/77 
f 74/75/91 73/74/90 15/11/17 
f 74/75/91 63/72/77 73/74/90 
f 74/75/91 18/14/20 63/72/77 
f 74/75/91 14/10/16 18/14/20 
f 15/11/17 14/10/16 74/75/91 
f 51/40/60 60/76/73 52/77/61 
f 75/78/92 49/79/93 50/80/94 
f 76/81/95 49/79/93 75/78/92 
f 76/81/95 43/82/96 49/79/93 
f 77/83/97 43/82/96 76/81/95 
f 77/83/97 42/84/98 43/82/96 
f 77/83/97 38/85/99 42/84/98 
f 78/86/100 38/85/99 77/83/97 
f 78/86/100 37/87/101 38/85/99 
f 78/86/100 44/88/102 37/87/101 
f 79/89/103 44/88/102 78/86/100 
f 79/89/103 46/90/104 44/88/102 
f 79/89/103 47/91/105 46/90/104 
f 79/89/103 80/92/106 47/91/105 
f 79/89/103 75/78/92 80/92/106 
f 79/89/103 76/81/95 75/78/92 
f 78/86/100 76/81/95 79/89/103 
f 78/86/100 77/83/97 76/81/95 
f 75/78/92 81/93/107 80/92/106 
f 50/80/94 81/93/107 75/78/92 
f 50/80/94 82/94/108 81/93/107 
f 67/95/109 82/94/108 50/80/94 
f 57/96/110 82/94/108 67/95/109 
f 71/97/111 82/94/108 57/96/110 
f 70/98/112 82/94/108 71/97/111 
f 70/98/112 83/99/113 82/94/108 
f 53/100/114 83/99/113 70/98/112 
f 66/101/115 83/99/113 53/100/114 
f 66/101/115 84/102/116 83/99/113 
f 48/103/117 84/102/116 66/101/115 
f 47/91/105 84/102/116 48/103/117 
f 80/92/106 84/102/116 47/91/105 
f 81/93/107 84/102/116 80/92/106 
f 81/93/107 83/99/113 84/102/116 
f 82/94/108 83/99/113 81/93/107 
f 58/104/118 67/105/119 26/106/120 
f 58/104/118 57/107/121 67/105/119 
f 60/108/122 25/109/123 41/110/124 
f 60/108/122 59/111/125 25/109/123 
f 52/112/126 66/113/127 53/114/128 
f 52/112/126 40/115/129 66/113/127 
f 52/116/126 41/117/124 40/118/129 
f 52/116/126 60/108/122 41/117/124 
f 59/119/125 26/120/120 25/121/123 
f 59/119/125 58/122/118 26/120/120 
# 0 polygons - 143 triangles

