# 3ds Max Wavefront OBJ Exporter v0.99 - (c)2007 guruware
# File Created: 26.04.2025 17:57:57

mtllib crash_brazo_derecho.mtl

#
# object crash_brazo_derecho
#

v  0.1002 0.4849 -0.6910
v  -0.0798 -0.1317 -0.7928
v  -0.4345 0.1448 -0.6351
v  -2.1143 -5.2783 -0.4166
v  -1.4564 -3.6170 -0.7578
v  -1.9712 -5.3384 -0.6418
v  -1.7312 -3.5349 -0.3790
v  -1.9902 -5.3066 -0.2261
v  -1.5853 -3.5421 -0.0209
v  -1.4571 -3.0758 0.0230
v  -1.6345 -3.0547 -0.3057
v  -1.3421 -2.7471 0.0384
v  -1.3782 -2.4740 -0.2313
v  -0.9346 -1.2347 0.4193
v  -1.0250 -1.1371 -0.0618
v  -0.8833 -0.5217 0.0312
v  -0.7737 -0.6400 0.5170
v  -1.5487 -5.5856 -0.1299
v  -2.0617 -5.8423 0.0975
v  -1.8639 -5.7982 0.1065
v  -2.0453 -5.5621 -0.0814
v  -2.3706 -5.8421 -0.0855
v  -2.1391 -5.5050 -0.3704
v  -2.0200 -5.7028 -0.9146
v  -1.7803 -5.3887 -0.6720
v  -1.8402 -5.5697 -0.8329
v  -1.6690 -5.4357 -0.4866
v  -1.5674 -5.6276 -0.5146
v  -1.7793 -5.4040 -0.1963
v  -1.0728 -3.5974 -0.6866
v  -1.3796 -3.1849 -0.7394
v  -0.9513 -3.2246 -0.6638
v  -1.2780 -2.8270 -0.7566
v  -0.8229 -2.6556 -0.6092
v  -1.1298 -2.5529 -0.6609
v  -0.7870 -1.3180 -0.7530
v  -0.4801 -1.6542 -0.7103
v  -0.5829 -0.5867 -0.7475
v  -0.1935 -0.9142 -0.7244
v  -0.6837 0.2491 0.1604
v  -0.5156 0.1210 0.7167
v  -0.0696 0.5265 0.6898
v  -0.0322 0.6988 0.2270
v  -0.1080 -0.4976 0.6778
v  -2.5373 -7.8056 0.2738
v  -2.4991 -7.6352 0.2683
v  -2.8327 -7.5159 0.1375
v  -2.9285 -7.8581 0.1365
v  -2.6136 -7.7151 -0.1242
v  -2.6771 -7.8487 -0.1042
v  -2.8651 -8.2894 0.1100
v  -2.6399 -8.2454 -0.1729
v  -2.9036 -8.6828 0.0974
v  -2.6719 -8.6033 -0.1858
v  -2.6370 -8.7620 0.0112
v  -2.5817 -8.6008 0.2851
v  -2.5939 -8.2274 0.3265
v  -2.3317 -7.6824 -0.0430
v  -2.3699 -7.8223 -0.0363
v  -2.2941 -8.1349 -0.0794
v  -2.3326 -8.5240 -0.0999
v  -2.6404 -7.8819 -0.6151
v  -2.5766 -7.7076 -0.6121
v  -2.3832 -7.8476 -0.4789
v  -2.4088 -7.9249 -0.4871
v  -2.6470 -7.7353 -0.2188
v  -2.7047 -7.9465 -0.2397
v  -2.4534 -7.9120 -0.4852
v  -2.6090 -8.2980 -0.2347
v  -2.3845 -8.5706 -0.5634
v  -2.6744 -8.7495 -0.3452
v  -2.6648 -8.8276 -0.5434
v  -2.7317 -8.6736 -0.7491
v  -2.6996 -8.2461 -0.7350
v  -2.6361 -7.8055 -1.1629
v  -2.4952 -7.3478 -1.1261
v  -2.6372 -7.2237 -1.2339
v  -2.6456 -7.6442 -1.3660
v  -2.4548 -7.2501 -1.3988
v  -2.3434 -7.6336 -1.6118
v  -2.7228 -7.8617 -1.4107
v  -2.4768 -7.8645 -1.5818
v  -2.5889 -8.0261 -1.4081
v  -2.6378 -7.9776 -1.2715
v  -2.9490 -7.5511 -0.3651
v  -2.9810 -7.8270 -0.3772
v  -2.9123 -8.3617 -0.4672
v  -2.9386 -8.7751 -0.5163
v  -2.6553 -7.7805 -0.7515
v  -2.5715 -7.5987 -0.7003
v  -2.8607 -7.3340 -0.8463
v  -2.9191 -7.6201 -0.9064
v  -2.5323 -7.4844 -1.0456
v  -2.5459 -7.7198 -1.0999
v  -2.8636 -8.0253 -1.0294
v  -2.5219 -7.9174 -1.2001
v  -2.8834 -8.3718 -1.0698
v  -2.5478 -8.2256 -1.2254
v  -2.6283 -8.4240 -1.0702
v  -2.7207 -8.3596 -0.8652
v  -2.6686 -8.0919 -0.7873
v  -2.2988 -7.5283 -0.7999
v  -2.3758 -7.6258 -0.8280
v  -2.3329 -8.0819 -0.9334
v  -2.2829 -8.2202 -1.0050
v  -2.2547 -7.3284 -1.2435
v  -2.2051 -7.6439 -1.3360
v  -2.3017 -7.9338 -1.3931
v  -1.2399 -3.5870 0.0532
v  -0.8939 -3.6165 -0.2550
v  -0.7274 -2.9812 -0.2123
v  -0.1557 -1.7289 -0.3489
v  -0.0093 -1.2901 -0.3670
v  0.0860 -0.7671 -0.3860
v  0.1200 -0.4721 -0.6563
v  -0.3467 -1.0133 0.4934
v  -0.6095 -1.5734 0.4103
v  -1.0861 -3.0585 0.1010
v  -0.8264 -3.0336 -0.0156
v  -0.2836 -1.7943 0.0407
v  -0.0915 -1.2172 0.0910
v  -2.5531 -6.1473 -0.3399
v  -2.4135 -6.1194 0.0325
v  -2.3568 -6.0689 -0.8379
v  -1.5686 -7.6039 0.2290
v  -1.6272 -7.1803 0.1589
v  -1.3011 -6.9212 0.2133
v  -1.1597 -7.3258 0.2824
v  -1.5395 -6.7475 0.4615
v  -1.4609 -7.2380 0.5938
v  -1.8838 -6.8671 0.4666
v  -1.8756 -7.2756 0.5809
v  -1.6558 -7.5501 0.7738
v  -1.4826 -7.7470 0.4324
v  -1.1555 -7.6015 0.5551
v  -1.3885 -7.4629 0.7421
v  -1.3753 -7.6499 0.7704
v  -2.7510 -6.8547 -0.7566
v  -2.6149 -7.4044 -0.6171
v  -2.6463 -7.1259 -0.9960
v  -2.0960 -5.3221 0.3549
v  -2.2961 -5.3461 0.1984
v  -2.3771 -5.6317 -0.0915
v  -2.7435 -7.0218 0.1302
v  -2.8141 -6.9551 -0.3053
v  -2.5445 -7.5306 -0.1872
v  -2.4234 -6.7316 0.2176
v  -1.2968 -6.6281 0.0750
v  -1.6942 -6.8997 -0.0595
v  -1.3193 -6.6502 -0.1377
v  -1.9005 -6.8026 -0.1996
v  -2.2166 -7.1226 -0.0213
v  -2.4477 -7.2438 0.2957
v  -2.5463 -5.5718 -0.3070
v  -2.8660 -5.1655 -0.3616
v  -2.7456 -5.6447 -0.4084
v  -2.6414 -5.1126 -0.2715
v  -1.2734 -5.3594 -0.4683
v  -1.8278 -5.5428 -0.8546
v  -1.5740 -5.2012 -0.9368
v  -1.5550 -5.6010 -0.5365
v  -1.4317 -5.3754 0.0122
v  -1.3617 -5.8899 0.0060
v  -1.5842 -6.3705 0.4604
v  -2.1216 -6.6464 -1.2950
v  -1.9461 -6.7799 -1.0799
v  -1.6576 -6.2212 -0.9784
v  -2.2805 -5.1537 -0.8476
v  -2.2419 -5.6996 -0.8253
v  -2.5209 -6.7990 -1.1350
v  -2.1334 -7.1469 -0.4144
v  -2.0552 -7.0038 -0.7213
v  -2.3481 -5.1942 -0.6872
v  -2.3488 -5.6124 -0.7331
v  -1.8803 -6.2642 -0.5414
v  -1.3020 -6.0535 -0.2591
v  -1.9044 -6.6078 0.3725
# 177 vertices

vn -0.4018 0.3693 -0.8380
vn 0.0884 0.0396 -0.9953
vn -0.6423 0.4869 -0.5919
vn -0.9713 0.2312 -0.0551
vn -0.4869 0.1169 -0.8656
vn -0.6156 0.2603 -0.7439
vn -0.9719 0.2078 0.1107
vn -0.4757 0.3105 0.8230
vn -0.4905 0.0324 0.8709
vn -0.6728 0.1286 0.7285
vn -0.9512 0.2842 -0.1203
vn -0.6297 0.0958 0.7709
vn -0.9288 0.3597 -0.0888
vn -0.7200 0.0615 0.6912
vn -0.9459 0.2495 -0.2076
vn -0.9686 0.2425 -0.0542
vn -0.6532 0.0095 0.7571
vn 0.1620 0.7016 0.6940
vn -0.1913 0.6606 0.7259
vn -0.2115 0.8500 0.4825
vn -0.4718 0.5398 0.6971
vn -0.7542 0.5454 0.3657
vn -0.9031 0.4160 -0.1066
vn -0.5756 0.6221 -0.5308
vn 0.4362 0.1305 -0.8903
vn 0.3133 0.2173 -0.9245
vn 0.5442 0.5033 -0.6712
vn 0.9727 0.0816 -0.2174
vn 0.7973 0.5893 -0.1301
vn 0.5315 0.1530 0.8331
vn 0.7896 0.2354 0.5667
vn 0.5202 -0.1539 -0.8401
vn -0.2675 0.0702 -0.9610
vn 0.6370 -0.1370 -0.7586
vn -0.3339 0.2688 -0.9035
vn 0.4545 -0.0913 -0.8861
vn -0.5014 0.2815 -0.8182
vn -0.3808 0.0582 -0.9228
vn 0.4741 -0.2196 -0.8527
vn -0.4833 0.1389 -0.8644
vn 0.4922 -0.2176 -0.8429
vn -0.8252 0.5541 0.1097
vn -0.5176 0.2272 0.8249
vn -0.6884 0.4685 0.5537
vn -0.6922 0.7176 -0.0774
vn -0.5174 0.3976 -0.7578
vn -0.0790 -0.2788 0.9571
vn -0.6298 0.4443 0.6372
vn 0.3320 0.0640 0.9411
vn 0.5832 -0.1191 0.8035
vn -0.3356 0.0985 0.9368
vn -0.4363 0.0401 0.8989
vn -0.6868 0.1183 -0.7171
vn -0.6760 0.1913 -0.7116
vn -0.4139 0.0515 -0.9089
vn -0.2821 -0.0010 -0.9594
vn -0.7565 0.0245 -0.6535
vn -0.3350 0.1186 -0.9347
vn -0.7287 -0.2077 -0.6525
vn -0.0902 -0.3347 -0.9380
vn -0.7371 -0.5075 -0.4462
vn 0.1618 -0.9798 -0.1173
vn -0.4831 -0.7715 0.4139
vn 0.0863 -0.4863 0.8695
vn -0.5729 -0.0742 0.8163
vn -0.3458 -0.4833 0.8042
vn -0.1230 -0.3343 0.9344
vn -0.4525 -0.3535 0.8187
vn -0.5264 -0.0278 0.8498
vn 0.2114 -0.0602 0.9755
vn 0.2606 -0.1932 -0.9459
vn 0.2095 0.0873 -0.9739
vn 0.8726 -0.0804 0.4817
vn 0.8479 -0.2082 0.4875
vn 0.8375 0.0009 0.5464
vn 0.6274 -0.0046 0.7787
vn 0.8164 -0.2995 0.4937
vn 0.3168 -0.5497 0.7730
vn 0.8351 -0.4933 0.2435
vn 0.5618 -0.6323 0.5335
vn 0.5372 -0.6111 -0.5813
vn 0.2337 0.0739 -0.9695
vn 0.3086 -0.3725 -0.8752
vn 0.1026 0.0524 -0.9933
vn -0.2231 0.0569 -0.9731
vn 0.4767 -0.1121 -0.8719
vn 0.1271 -0.5874 -0.7992
vn -0.0790 0.1098 -0.9908
vn 0.4043 -0.6116 0.6800
vn 0.6106 -0.2808 0.7405
vn 0.3193 -0.1949 0.9274
vn -0.0105 -0.0325 0.9994
vn 0.2447 -0.6666 -0.7042
vn -0.0293 -0.8612 -0.5075
vn -0.2704 -0.8758 -0.3998
vn 0.7608 0.1086 0.6399
vn 0.1216 -0.1089 0.9866
vn 0.8307 -0.4772 0.2868
vn 0.9897 0.1229 -0.0735
vn 0.5162 -0.0516 0.8549
vn 0.0179 -0.5671 0.8234
vn 0.4585 -0.7228 0.5171
vn 0.2557 -0.9541 -0.1562
vn 0.9132 -0.4075 0.0101
vn 0.4360 -0.3869 -0.8125
vn 0.4624 -0.1850 -0.8672
vn 0.5129 -0.2465 -0.8223
vn 0.1920 -0.3341 -0.9228
vn 0.7106 -0.1749 -0.6815
vn 0.6634 0.0683 -0.7452
vn 0.8141 0.0972 -0.5726
vn -0.0914 0.1222 -0.9883
vn 0.2563 -0.8549 0.4511
vn -0.2806 -0.9520 -0.1224
vn -0.2675 -0.9493 0.1652
vn -0.3461 -0.2456 0.9055
vn 0.1250 -0.1103 0.9860
vn -0.8665 0.0589 0.4958
vn -0.9316 0.1983 -0.3048
vn -0.9399 0.0339 0.3398
vn -0.9852 0.1581 0.0663
vn -0.9126 0.1390 -0.3845
vn -0.2560 0.4175 -0.8719
vn -0.3382 0.3959 -0.8538
vn -0.8803 -0.0915 -0.4656
vn -0.7191 -0.1438 -0.6799
vn -0.0271 -0.3679 -0.9295
vn 0.1891 -0.4401 -0.8778
vn -0.4043 -0.7408 -0.5364
vn -0.2516 -0.9154 -0.3141
vn -0.8051 -0.4800 0.3484
vn -0.9955 -0.0550 -0.0768
vn -0.7919 -0.3570 0.4954
vn -0.9579 -0.1841 0.2205
vn -0.4322 0.0189 0.9016
vn -0.5005 -0.1055 0.8593
vn -0.5419 0.1250 -0.8311
vn -0.5213 0.0976 -0.8478
vn -0.7391 0.1653 -0.6530
vn -0.9195 0.1250 -0.3726
vn -0.4227 0.1510 -0.8936
vn -0.7949 0.1671 -0.5833
vn -0.6875 -0.2385 -0.6859
vn -0.5637 0.2098 -0.7989
vn -0.2433 -0.2634 -0.9335
vn -0.6759 -0.5429 -0.4984
vn -0.4205 -0.8526 0.3102
vn -0.5663 -0.1279 0.8142
vn -0.4009 -0.5834 0.7064
vn -0.1926 -0.4452 0.8745
vn -0.7920 -0.0265 0.6100
vn -0.0741 -0.1303 0.9887
vn -0.0654 -0.1712 0.9831
vn 0.1473 -0.3782 0.9139
vn -0.5044 -0.0490 0.8621
vn -0.6323 -0.1420 0.7616
vn -0.4038 0.2365 -0.8838
vn -0.4078 0.2667 -0.8732
vn -0.0307 0.2421 -0.9698
vn 0.2342 0.3089 -0.9218
vn -0.4637 0.2294 -0.8558
vn 0.0550 0.2775 -0.9592
vn -0.1933 0.1729 -0.9658
vn -0.3778 -0.1225 -0.9177
vn 0.3338 -0.1612 -0.9288
vn -0.4222 -0.4392 -0.7930
vn 0.1826 -0.9548 -0.2344
vn -0.5737 -0.8189 0.0161
vn -0.2708 -0.5920 0.7591
vn -0.7885 -0.1118 0.6048
vn -0.6032 -0.6083 0.5159
vn -0.4573 -0.4443 0.7704
vn -0.1919 -0.2323 0.9535
vn 0.3737 0.1773 -0.9104
vn 0.8178 -0.2263 -0.5292
vn 0.7931 -0.4173 0.4437
vn 0.8497 0.0267 -0.5267
vn 0.8902 -0.4416 -0.1123
vn 0.5931 -0.4976 0.6330
vn 0.7201 -0.6435 0.2594
vn 0.3804 -0.2042 0.9020
vn 0.4078 -0.5066 0.7596
vn 0.5328 -0.6743 0.5114
vn 0.2195 -0.7910 0.5711
vn 0.7581 -0.4941 -0.4257
vn 0.7738 0.2667 -0.5745
vn 0.6387 -0.0736 -0.7659
vn 0.0624 0.2389 -0.9690
vn 0.8479 0.1493 -0.5087
vn 0.5305 0.1216 -0.8389
vn 0.8607 -0.1776 -0.4771
vn 0.1317 0.2804 -0.9508
vn 0.7680 0.3899 -0.5081
vn 0.8325 -0.1190 -0.5411
vn 0.8472 0.1005 -0.5216
vn 0.6428 -0.3690 0.6713
vn 0.4431 -0.1874 0.8767
vn 0.1954 -0.2606 0.9455
vn 0.3738 -0.5945 0.7119
vn 0.4226 -0.7785 0.4641
vn -0.0777 -0.5612 0.8240
vn -0.0699 -0.8674 0.4927
vn -0.1002 -0.9913 -0.0857
vn 0.5779 -0.8159 -0.0185
vn 0.5444 -0.4861 -0.6836
vn 0.9267 -0.2627 0.2689
vn 0.3828 -0.5593 -0.7353
vn 0.4262 -0.0014 0.9046
vn 0.2670 -0.2078 0.9410
vn 0.9334 -0.3500 0.0796
vn 0.5257 0.0055 -0.8507
vn 0.9280 -0.3125 -0.2030
vn 0.9160 -0.3835 -0.1178
vn 0.9315 -0.2796 -0.2326
vn 0.8344 -0.4240 -0.3521
vn 0.2001 -0.3014 -0.9323
vn 0.0643 -0.2446 -0.9675
vn -0.2192 -0.3305 0.9180
vn 0.2060 -0.3134 0.9270
vn 0.2433 -0.2650 0.9331
vn 0.0727 -0.1381 0.9877
vn 0.7259 -0.3206 0.6086
vn 0.7763 -0.3301 0.5370
vn 0.8300 -0.3196 0.4571
vn 0.9510 -0.2632 -0.1621
vn 0.3074 -0.2707 0.9123
vn 0.0388 -0.3161 0.9479
vn -0.8573 0.5100 -0.0706
vn -0.9066 0.2761 0.3192
vn -0.7420 0.6425 -0.1913
vn -0.1002 0.1392 -0.9852
vn 0.0367 -0.3140 -0.9487
vn -0.5591 -0.1954 -0.8057
vn 0.2262 -0.1109 -0.9677
vn 0.4180 -0.4594 -0.7838
vn 0.7375 0.3909 0.5508
vn 0.7858 0.3605 0.5025
vn 0.5352 0.3320 0.7767
vn 0.3572 0.4472 0.8200
vn -0.0632 0.2585 0.9639
vn -0.0682 0.4487 0.8911
vn -0.8484 -0.3562 -0.3917
vn -0.8334 -0.1644 -0.5277
vn -0.3449 -0.5386 -0.7687
vn -0.6611 -0.7462 0.0787
vn -0.6186 -0.6639 -0.4202
vn -0.2997 -0.9387 0.1702
vn -0.8341 -0.5013 -0.2300
vn 0.3166 -0.9209 -0.2276
vn -0.1764 -0.4613 -0.8695
vn 0.4717 -0.8434 -0.2573
vn 0.7001 0.4131 0.5824
vn 0.2865 0.4247 0.8588
vn -0.0037 0.3517 0.9361
vn 0.2813 -0.5372 0.7952
vn -0.1434 -0.0887 0.9857
vn 0.0493 -0.7415 0.6691
vn -0.6173 -0.6699 0.4125
vn 0.0618 -0.9734 -0.2207
vn 0.7385 -0.6627 0.1241
vn 0.4872 -0.2728 0.8296
vn 0.7874 0.0947 0.6091
vn -0.9747 0.1339 -0.1791
vn -0.8382 -0.1628 0.5205
vn -0.9575 -0.2157 -0.1916
vn -0.9956 0.0345 0.0869
vn -0.4873 -0.0516 0.8717
vn -0.2395 -0.3092 0.9203
vn -0.7723 0.0547 -0.6329
vn -0.6427 0.1176 -0.7571
vn -0.9363 0.1468 -0.3190
vn -0.6830 -0.1326 -0.7183
vn 0.2089 -0.0115 -0.9779
vn 0.1333 -0.4488 0.8836
vn -0.3516 0.0041 0.9361
vn 0.1243 0.2313 0.9649
vn -0.7499 -0.2795 0.5996
vn -0.7117 0.0005 0.7025
vn -0.8917 -0.1720 0.4186
vn -0.8198 0.1398 0.5554
vn -0.9948 0.0057 0.1020
vn -0.9912 -0.0733 -0.1100
vn -0.9343 0.3540 0.0408
vn -0.5777 0.3416 0.7414
vn -0.2256 0.0485 0.9730
vn -0.7226 0.1236 0.6801
vn 0.0583 -0.4672 -0.8822
vn 0.8528 -0.3875 -0.3502
vn 0.4430 -0.3879 -0.8083
vn 0.4272 -0.7517 -0.5025
vn 0.4927 -0.4113 -0.7668
vn 0.4882 -0.8570 -0.1651
vn 0.6001 -0.5262 -0.6025
vn 0.9690 -0.2345 -0.0782
vn 0.2071 -0.9039 -0.3742
vn 0.6358 -0.6112 -0.4713
vn 0.6325 -0.7095 -0.3106
vn 0.7969 -0.4827 0.3633
vn 0.7314 -0.6631 -0.1593
vn 0.3952 -0.8517 -0.3442
vn 0.3853 -0.2385 0.8914
vn 0.8446 -0.1689 0.5080
vn 0.7257 -0.6484 0.2301
vn 0.3435 -0.0474 0.9379
vn 0.9804 -0.1828 0.0736
vn 0.5744 -0.2724 0.7719
vn -0.4152 0.0392 0.9089
vn 0.1007 0.0281 0.9945
vn -0.3405 0.0753 0.9372
vn 0.0150 -0.0301 0.9994
vn -0.4601 -0.2082 -0.8631
vn -0.7430 0.0881 -0.6635
vn -0.9938 0.1092 -0.0214
vn -0.2754 -0.2167 -0.9366
vn -0.9242 -0.0082 0.3818
vn -0.0859 -0.1362 0.9870
vn -0.0152 -0.4007 0.9161
vn -0.9652 -0.0288 0.2599
vn -0.4323 0.0074 0.9017
vn -0.9722 -0.0006 -0.2343
vn -0.1640 0.0006 -0.9865
vn -0.4839 0.1951 -0.8531
vn -0.8354 -0.2061 -0.5095
vn -0.4216 0.0439 -0.9057
vn -0.9982 0.0008 -0.0597
vn -0.6177 -0.2247 0.7536
vn -0.3653 -0.1643 0.9163
vn -0.3906 -0.1862 0.9015
vn -0.6213 -0.1875 0.7608
vn 0.6477 -0.6713 -0.3602
vn 0.4072 -0.3490 -0.8440
vn 0.2571 -0.4025 -0.8786
vn 0.8722 -0.3247 -0.3658
vn 0.6509 -0.6887 0.3193
vn 0.8612 -0.4317 -0.2683
vn 0.9343 -0.0693 0.3497
vn 0.6557 -0.2218 0.7217
vn 0.8704 0.0586 0.4889
vn 0.7487 0.4279 0.5063
vn 0.7927 0.2005 0.5757
vn 0.4089 0.2671 0.8726
vn 0.9621 -0.0998 0.2537
vn 0.8033 0.1549 0.5751
vn 0.1529 0.1511 0.9766
vn 0.1284 0.2007 -0.9712
vn 0.6336 -0.1805 -0.7523
vn -0.0047 0.1720 -0.9851
vn 0.2946 0.1217 -0.9478
vn 0.6931 -0.2919 -0.6591
vn 0.1370 0.1328 -0.9816
vn 0.0419 0.1768 -0.9834
vn 0.2892 0.3135 -0.9045
vn 0.5718 -0.2164 -0.7913
vn 0.8022 -0.1690 -0.5726
vn 0.6364 0.0627 -0.7688
vn -0.3609 -0.0268 -0.9322
vn -0.5969 0.0233 -0.8019
vn -0.7049 0.3527 -0.6155
vn -0.1750 0.2607 -0.9494
vn -0.7277 0.3301 -0.6012
vn -0.7036 0.3746 -0.6039
vn -0.2715 0.2799 -0.9208
vn -0.8728 0.1325 -0.4698
vn -0.8934 0.0003 -0.4493
vn -0.7344 -0.6372 0.2338
vn -0.8488 -0.3448 -0.4009
vn -0.9788 -0.1999 0.0447
vn 0.6096 -0.3461 0.7132
vn 0.4845 -0.4022 0.7769
vn 0.7546 -0.6332 0.1722
vn 0.1505 0.0461 -0.9875
vn 0.7604 -0.5534 -0.3398
vn 0.5120 -0.1040 -0.8527
vn 0.0008 -0.4963 -0.8682
vn 0.7561 -0.6319 -0.1702
vn 0.8601 -0.5077 -0.0498
vn 0.8109 -0.5566 -0.1807
vn 0.1042 -0.2428 0.9645
vn 0.7991 -0.5711 0.1880
vn 0.5804 -0.7048 0.4080
vn 0.3961 -0.3133 0.8631
vn 0.8267 -0.4652 -0.3163
vn 0.6882 -0.2159 -0.6926
vn -0.3856 -0.0702 -0.9200
vn 0.7772 -0.4677 -0.4210
vn -0.1109 -0.8430 -0.5264
vn 0.7886 -0.4072 -0.4608
vn 0.1458 -0.7991 0.5833
vn 0.3811 -0.3221 0.8666
vn 0.6623 -0.7277 0.1781
vn 0.4425 -0.2098 0.8719
vn -0.7866 0.0034 -0.6175
vn -0.6087 0.0876 -0.7886
vn 0.3047 -0.0143 0.9523
vn 0.4078 -0.6490 0.6422
vn 0.9734 -0.2288 0.0114
vn 0.8438 -0.4849 -0.2299
vn 0.8784 -0.3981 0.2644
vn 0.8221 -0.3921 -0.4128
vn 0.8292 -0.5539 0.0751
vn 0.9297 0.1161 -0.3495
vn 0.8996 0.2309 0.3708
vn 0.8327 -0.5530 -0.0293
vn 0.7729 -0.2888 -0.5650
vn 0.0193 -0.3213 -0.9468
vn 0.4178 -0.2453 -0.8748
vn -0.3936 -0.0024 0.9193
vn 0.2147 -0.9746 -0.0635
vn -0.2292 0.0668 0.9711
vn -0.1015 0.3322 0.9377
vn -0.8910 -0.3064 -0.3350
vn -0.5962 -0.4495 -0.6652
vn -0.8512 -0.2375 -0.4681
vn -0.1595 -0.8929 -0.4211
vn -0.7061 -0.2293 0.6699
# 415 vertex normals

vt 0.9479 0.9054 0.0000
vt 0.9507 0.9317 0.0000
vt 0.9621 0.9230 0.0000
vt 0.9945 0.9957 0.0000
vt 0.9740 0.8941 0.0000
vt 0.9942 0.8942 0.0000
vt 0.9738 0.9957 0.0000
vt 0.9971 0.9745 0.0000
vt 0.9754 0.9869 0.0000
vt 0.9937 0.9867 0.0000
vt 0.9820 0.9786 0.0000
vt 0.9775 0.9795 0.0000
vt 0.9715 0.9883 0.0000
vt 0.9437 0.9798 0.0000
vt 0.9385 0.9924 0.0000
vt 0.9644 0.9874 0.0000
vt 0.9544 0.9932 0.0000
vt 0.9434 0.9950 0.0000
vt 0.9528 0.9893 0.0000
vt 0.9498 0.9308 0.0000
vt 0.9505 0.9323 0.0000
vt 0.9499 0.9311 0.0000
vt 0.9490 0.9293 0.0000
vt 0.9489 0.9290 0.0000
vt 0.9482 0.9275 0.0000
vt 0.9474 0.9259 0.0000
vt 0.9481 0.9273 0.0000
vt 0.9476 0.9263 0.0000
vt 0.9487 0.9285 0.0000
vt 0.9486 0.9284 0.0000
vt 0.9496 0.9304 0.0000
vt 0.9495 0.9302 0.0000
vt 0.9478 0.9268 0.0000
vt 0.9481 0.9272 0.0000
vt 0.9479 0.9269 0.0000
vt 0.9481 0.9274 0.0000
vt 0.9483 0.9277 0.0000
vt 0.9480 0.9271 0.0000
vt 0.9479 0.9268 0.0000
vt 0.9479 0.9270 0.0000
vt 0.9477 0.9265 0.0000
vt 0.9652 0.9137 0.0000
vt 0.9612 0.9209 0.0000
vt 0.9604 0.9201 0.0000
vt 0.9661 0.9175 0.0000
vt 0.9682 0.9093 0.0000
vt 0.9696 0.9091 0.0000
vt 0.9694 0.9233 0.0000
vt 0.9666 0.9199 0.0000
vt 0.9609 0.9130 0.0000
vt 0.9689 0.9176 0.0000
vt 0.9691 0.9179 0.0000
vt 0.9588 0.9888 0.0000
vt 0.9530 0.9889 0.0000
vt 0.9503 0.9671 0.0000
vt 0.9598 0.9674 0.0000
vt 0.9556 0.9480 0.0000
vt 0.9602 0.9483 0.0000
vt 0.9796 0.9669 0.0000
vt 0.9795 0.9386 0.0000
vt 0.9943 0.9638 0.0000
vt 0.9896 0.9401 0.0000
vt 0.9966 0.9644 0.0000
vt 0.9904 0.9919 0.0000
vt 0.9799 0.9942 0.0000
vt 0.9728 0.9387 0.0000
vt 0.9725 0.9384 0.0000
vt 0.9735 0.9394 0.0000
vt 0.9736 0.9395 0.0000
vt 0.9772 0.9438 0.0000
vt 0.9731 0.9389 0.0000
vt 0.9778 0.9446 0.0000
vt 0.9773 0.9440 0.0000
vt 0.9741 0.9401 0.0000
vt 0.9718 0.9375 0.0000
vt 0.9719 0.9377 0.0000
vt 0.9730 0.9415 0.0000
vt 0.9731 0.9416 0.0000
vt 0.9746 0.9433 0.0000
vt 0.9745 0.9432 0.0000
vt 0.9776 0.9467 0.0000
vt 0.9773 0.9464 0.0000
vt 0.9828 0.9466 0.0000
vt 0.9828 0.9465 0.0000
vt 0.9859 0.9500 0.0000
vt 0.9745 0.9433 0.0000
vt 0.9774 0.9464 0.0000
vt 0.9736 0.9422 0.0000
vt 0.9761 0.9450 0.0000
vt 0.9738 0.9424 0.0000
vt 0.9715 0.9397 0.0000
vt 0.9716 0.9399 0.0000
vt 0.9812 0.9448 0.0000
vt 0.9693 0.9957 0.0000
vt 0.9504 0.9891 0.0000
vt 0.9495 0.9720 0.0000
vt 0.9720 0.9638 0.0000
vt 0.9618 0.9495 0.0000
vt 0.9843 0.9396 0.0000
vt 0.9857 0.9654 0.0000
vt 0.9960 0.9435 0.0000
vt 0.9960 0.9613 0.0000
vt 0.9933 0.9802 0.0000
vt 0.9598 0.9879 0.0000
vt 0.9526 0.9901 0.0000
vt 0.9496 0.9687 0.0000
vt 0.9609 0.9685 0.0000
vt 0.9603 0.9499 0.0000
vt 0.9663 0.9493 0.0000
vt 0.9835 0.9648 0.0000
vt 0.9846 0.9375 0.0000
vt 0.9923 0.9663 0.0000
vt 0.9956 0.9431 0.0000
vt 0.9957 0.9663 0.0000
vt 0.9901 0.9859 0.0000
vt 0.9770 0.9925 0.0000
vt 0.9667 0.9856 0.0000
vt 0.9603 0.9883 0.0000
vt 0.9520 0.9701 0.0000
vt 0.9623 0.9685 0.0000
vt 0.9619 0.9431 0.0000
vt 0.9698 0.9435 0.0000
vt 0.9828 0.9640 0.0000
vt 0.9857 0.9362 0.0000
vt 0.9932 0.9632 0.0000
vt 0.9939 0.9387 0.0000
vt 0.9965 0.9612 0.0000
vt 0.9921 0.9886 0.0000
vt 0.9834 0.9921 0.0000
vt 0.9752 0.9380 0.0000
vt 0.9759 0.9387 0.0000
vt 0.9789 0.9422 0.0000
vt 0.9786 0.9418 0.0000
vt 0.9802 0.9436 0.0000
vt 0.9795 0.9428 0.0000
vt 0.9773 0.9403 0.0000
vt 0.9791 0.9423 0.0000
vt 0.9764 0.9393 0.0000
vt 0.9781 0.9412 0.0000
vt 0.9755 0.9384 0.0000
vt 0.9736 0.9362 0.0000
vt 0.9740 0.9366 0.0000
vt 0.9737 0.9343 0.0000
vt 0.9768 0.9376 0.0000
vt 0.9791 0.9400 0.0000
vt 0.9777 0.9386 0.0000
vt 0.9807 0.9418 0.0000
vt 0.9802 0.9412 0.0000
vt 0.9769 0.9377 0.0000
vt 0.9786 0.9395 0.0000
vt 0.9766 0.9375 0.0000
vt 0.9741 0.9348 0.0000
vt 0.9501 0.9315 0.0000
vt 0.9503 0.9320 0.0000
vt 0.9494 0.9300 0.0000
vt 0.9495 0.9303 0.0000
vt 0.9491 0.9294 0.0000
vt 0.9490 0.9291 0.0000
vt 0.9517 0.9348 0.0000
vt 0.9522 0.9359 0.0000
vt 0.9523 0.9361 0.0000
vt 0.9517 0.9347 0.0000
vt 0.9514 0.9342 0.0000
vt 0.9503 0.9319 0.0000
vt 0.9502 0.9318 0.0000
vt 0.9501 0.9316 0.0000
vt 0.9504 0.9322 0.0000
vt 0.9462 0.9047 0.0000
vt 0.9792 0.9417 0.0000
vt 0.9616 0.9429 0.0000
vt 0.9587 0.9215 0.0000
vt 0.9398 0.8942 0.0000
vt 0.9545 0.9958 0.0000
vt 0.9502 0.8941 0.0000
vt 0.9397 0.9984 0.0000
vt 0.9662 0.8941 0.0000
vt 0.9703 0.9957 0.0000
vt 0.9700 0.8941 0.0000
vt 0.9503 0.9318 0.0000
vt 0.9611 0.9134 0.0000
vt 0.9599 0.9111 0.0000
vt 0.9918 0.9567 0.0000
vt 0.9909 0.9557 0.0000
vt 0.9916 0.9565 0.0000
vt 0.9925 0.9574 0.0000
vt 0.9947 0.9599 0.0000
vt 0.9963 0.9618 0.0000
vt 0.9947 0.9600 0.0000
vt 0.9961 0.9616 0.0000
vt 0.9985 0.9643 0.0000
vt 0.9943 0.9595 0.0000
vt 0.9959 0.9613 0.0000
vt 0.9982 0.9638 0.0000
vt 0.8448 0.8527 0.0000
vt 0.7185 0.8723 0.0000
vt 0.8412 0.8726 0.0000
vt 0.7175 0.8524 0.0000
vt 0.8390 0.8713 0.0000
vt 0.7172 0.8712 0.0000
vt 0.7780 0.8712 0.0000
vt 0.7717 0.8709 0.0000
vt 0.7719 0.8709 0.0000
vt 0.7741 0.8710 0.0000
vt 0.7671 0.8706 0.0000
vt 0.7669 0.8706 0.0000
vt 0.7724 0.8709 0.0000
vt 0.7616 0.8704 0.0000
vt 0.7645 0.8705 0.0000
vt 0.7607 0.8703 0.0000
vt 0.7700 0.8708 0.0000
vt 0.7746 0.8710 0.0000
vt 0.8053 0.8373 0.0000
vt 0.8026 0.8373 0.0000
vt 0.8072 0.8374 0.0000
vt 0.7980 0.8373 0.0000
vt 0.7955 0.8373 0.0000
vt 0.7933 0.8372 0.0000
vt 0.7992 0.8373 0.0000
vt 0.8096 0.8374 0.0000
vt 0.7984 0.8373 0.0000
vt 0.8087 0.8374 0.0000
vt 0.6995 0.8567 0.0000
vt 0.8109 0.8755 0.0000
vt 0.6996 0.8759 0.0000
vt 0.8109 0.8567 0.0000
vt 0.6995 0.8357 0.0000
vt 0.8109 0.8361 0.0000
vt 0.8475 0.8541 0.0000
vt 0.7158 0.8740 0.0000
vt 0.8389 0.8741 0.0000
vt 0.7176 0.8539 0.0000
vt 0.7166 0.8726 0.0000
vt 0.8389 0.8726 0.0000
vt 0.7968 0.8191 0.0000
vt 0.7935 0.8191 0.0000
vt 0.7909 0.8191 0.0000
vt 0.7988 0.8191 0.0000
vt 0.7845 0.8372 0.0000
vt 0.7716 0.8371 0.0000
vt 0.7689 0.8370 0.0000
vt 0.7822 0.8372 0.0000
vt 0.8004 0.8373 0.0000
vt 0.7957 0.8373 0.0000
vt 0.8116 0.8374 0.0000
vt 0.8035 0.8373 0.0000
vt 0.8003 0.8373 0.0000
vt 0.8153 0.8374 0.0000
vt 0.7570 0.8369 0.0000
vt 0.7586 0.8370 0.0000
vt 0.7534 0.8369 0.0000
vt 0.7641 0.8370 0.0000
vt 0.7696 0.8370 0.0000
vt 0.7676 0.8370 0.0000
vt 0.7481 0.8697 0.0000
vt 0.7482 0.8697 0.0000
vt 0.7461 0.8696 0.0000
vt 0.7466 0.8696 0.0000
vt 0.7488 0.8697 0.0000
vt 0.7484 0.8697 0.0000
vt 0.7411 0.8694 0.0000
vt 0.7372 0.8692 0.0000
vt 0.7116 0.8494 0.0000
vt 0.8109 0.8663 0.0000
vt 0.7116 0.8652 0.0000
vt 0.8109 0.8505 0.0000
vt 0.8109 0.8343 0.0000
vt 0.7116 0.8329 0.0000
vt 0.7839 0.8372 0.0000
vt 0.7936 0.8372 0.0000
vt 0.7925 0.8372 0.0000
vt 0.7862 0.8372 0.0000
vt 0.7795 0.8371 0.0000
vt 0.7793 0.8371 0.0000
vt 0.7760 0.8371 0.0000
vt 0.7766 0.8371 0.0000
vt 0.7733 0.8371 0.0000
vt 0.7651 0.8370 0.0000
vt 0.7668 0.8370 0.0000
vt 0.7625 0.8370 0.0000
vt 0.7725 0.8371 0.0000
vt 0.7770 0.8371 0.0000
vt 0.7717 0.8371 0.0000
vt 0.7755 0.8371 0.0000
vt 0.7765 0.8711 0.0000
vt 0.7679 0.8707 0.0000
vt 0.7820 0.8371 0.0000
vt 0.7915 0.8372 0.0000
vt 0.7333 0.9245 0.0000
vt 0.7495 0.9358 0.0000
vt 0.7442 0.9226 0.0000
vt 0.7340 0.9354 0.0000
vt 0.7504 0.8698 0.0000
vt 0.7445 0.8695 0.0000
vt 0.7539 0.8700 0.0000
vt 0.7640 0.8582 0.0000
vt 0.8960 0.8757 0.0000
vt 0.7640 0.8716 0.0000
vt 0.9195 0.8541 0.0000
vt 0.8926 0.8340 0.0000
vt 0.7640 0.8391 0.0000
vt 0.7191 0.8396 0.0000
vt 0.7191 0.8596 0.0000
vt 0.7191 0.8749 0.0000
# 303 texture coords

o crash_brazo_derecho
g crash_brazo_derecho
usemtl Crash_08___Default
s 1
f 1/1/1 2/2/2 3/3/3 
f 4/4/4 5/5/5 6/6/6 
f 4/4/4 7/7/7 5/5/5 
f 8/8/8 7/9/7 4/10/4 
f 9/11/9 7/9/7 8/8/8 
f 10/12/10 7/9/7 9/11/9 
f 10/12/10 11/13/11 7/9/7 
f 12/14/12 11/13/11 10/12/10 
f 12/14/12 13/15/13 11/13/11 
f 14/16/14 13/15/13 12/14/12 
f 14/16/14 15/17/15 13/15/13 
f 14/16/14 16/18/16 15/17/15 
f 17/19/17 16/18/16 14/16/14 
f 18/20/18 19/21/19 20/21/20 
f 21/22/21 19/21/19 18/20/18 
f 21/22/21 22/22/22 19/21/19 
f 21/22/21 23/23/23 22/22/22 
f 4/24/4 23/23/23 21/22/21 
f 6/25/6 23/23/23 4/24/4 
f 6/25/6 24/26/24 23/23/23 
f 25/27/25 24/26/24 6/25/6 
f 25/27/26 26/28/27 24/26/24 
f 27/29/28 26/28/27 25/27/25 
f 27/29/28 28/30/29 26/28/27 
f 29/31/30 28/30/29 27/29/28 
f 29/31/31 18/20/18 28/30/29 
f 8/32/8 18/20/18 29/31/30 
f 8/32/8 21/22/21 18/20/18 
f 4/24/4 21/22/21 8/32/8 
f 5/33/5 25/27/25 6/25/6 
f 5/33/5 30/34/32 25/27/25 
f 31/35/33 30/34/32 5/33/5 
f 31/35/33 32/36/34 30/34/32 
f 33/33/35 32/36/34 31/35/33 
f 33/33/35 34/37/36 32/36/34 
f 35/36/37 34/37/36 33/33/35 
f 36/33/38 34/37/36 35/36/37 
f 36/33/38 37/38/39 34/37/36 
f 38/39/40 37/38/39 36/33/38 
f 38/39/40 39/40/41 37/38/39 
f 38/39/40 2/41/2 39/40/41 
f 3/25/3 2/41/2 38/39/40 
f 16/42/16 3/43/3 38/44/40 
f 16/42/16 40/45/42 3/43/3 
f 17/46/17 40/45/42 16/42/16 
f 41/47/43 40/45/42 17/46/17 
f 42/48/44 40/45/42 41/47/43 
f 43/49/45 40/45/42 42/48/44 
f 43/49/45 3/43/3 40/45/42 
f 43/49/45 1/50/46 3/43/3 
f 44/51/47 42/48/48 41/52/43 
f 45/53/49 46/54/50 47/55/51 
f 48/56/52 45/53/49 47/55/51 
f 48/56/53 47/55/54 49/57/55 
f 48/56/53 49/57/55 50/58/56 
f 51/59/57 48/56/53 50/58/56 
f 51/59/57 50/58/56 52/60/58 
f 53/61/59 51/59/57 52/60/58 
f 53/61/59 52/60/58 54/62/60 
f 53/61/61 54/62/60 55/63/62 
f 53/61/63 55/63/62 56/64/64 
f 51/59/65 53/61/66 56/64/67 
f 51/59/65 56/64/68 57/65/69 
f 48/56/52 51/59/65 57/65/69 
f 48/56/52 57/65/70 45/53/49 
f 50/66/56 49/67/55 58/68/71 
f 59/69/72 50/66/56 58/68/71 
f 59/69/73 58/68/74 46/70/50 
f 59/69/73 46/70/50 45/70/49 
f 60/71/75 59/69/73 45/70/49 
f 60/71/75 45/70/49 57/72/76 
f 61/66/77 60/71/75 57/72/76 
f 61/66/77 57/72/76 56/73/78 
f 61/66/79 56/73/80 55/74/62 
f 61/66/81 55/74/62 54/75/60 
f 60/71/82 61/66/83 54/75/60 
f 60/71/82 54/75/60 52/76/58 
f 59/69/72 60/71/82 52/76/58 
f 59/69/72 52/76/58 50/66/56 
f 62/77/84 63/78/85 64/79/86 
f 65/80/87 62/77/88 64/79/86 
f 65/80/89 64/79/90 66/81/91 
f 65/80/89 66/81/91 67/82/92 
f 68/83/93 65/84/94 67/85/95 
f 68/86/96 67/82/92 69/87/97 
f 70/88/98 68/86/99 69/87/100 
f 70/88/98 69/87/97 71/89/101 
f 70/88/98 71/89/102 72/90/103 
f 70/88/104 72/90/103 73/91/105 
f 68/86/106 70/88/107 73/91/108 
f 68/86/109 73/91/105 74/92/110 
f 68/86/111 74/92/112 62/77/84 
f 65/84/113 68/83/114 62/93/115 
f 75/94/116 76/95/117 77/96/118 
f 78/97/119 75/94/120 77/96/121 
f 78/97/119 77/96/122 79/98/123 
f 78/97/119 79/98/123 80/99/124 
f 81/100/125 78/97/119 80/99/124 
f 81/100/126 80/99/124 82/101/127 
f 81/100/126 82/101/128 83/102/129 
f 81/100/125 83/102/130 84/103/131 
f 78/97/119 81/100/132 84/103/133 
f 78/97/119 84/103/134 75/94/120 
f 67/104/92 66/105/91 85/106/135 
f 86/107/136 67/104/92 85/106/135 
f 86/107/137 85/106/138 63/108/85 
f 86/107/137 63/108/85 62/109/88 
f 87/110/139 86/107/137 62/109/88 
f 87/110/140 62/109/141 74/111/142 
f 88/112/143 87/110/139 74/111/144 
f 88/112/143 74/111/144 73/113/145 
f 88/112/146 73/113/108 72/114/103 
f 88/112/147 72/114/103 71/115/101 
f 87/110/148 88/112/149 71/115/150 
f 87/110/151 71/115/150 69/116/152 
f 86/107/136 87/110/148 69/116/152 
f 86/107/136 69/116/97 67/104/92 
f 89/117/153 90/118/154 91/119/155 
f 92/120/156 89/117/153 91/119/155 
f 92/120/157 91/119/158 93/121/159 
f 92/120/157 93/121/159 94/122/160 
f 95/123/161 92/120/157 94/122/160 
f 95/123/161 94/122/162 96/124/163 
f 97/125/164 95/123/161 96/124/163 
f 97/125/164 96/124/163 98/126/165 
f 97/125/166 98/126/165 99/127/167 
f 97/125/168 99/127/167 100/128/169 
f 95/123/170 97/125/171 100/128/172 
f 95/123/170 100/128/172 101/129/173 
f 92/120/156 95/123/170 101/129/173 
f 92/120/156 101/129/173 89/117/153 
f 94/130/174 93/131/159 102/132/175 
f 103/133/176 94/130/177 102/132/178 
f 103/133/179 102/132/180 90/134/154 
f 103/133/179 90/134/154 89/135/153 
f 104/136/181 103/133/179 89/135/153 
f 104/136/181 89/135/153 101/137/173 
f 105/138/182 104/136/181 101/137/173 
f 105/138/182 101/137/173 100/139/169 
f 105/138/183 100/139/184 99/140/167 
f 105/138/185 99/140/167 98/141/165 
f 104/136/186 105/138/187 98/141/165 
f 104/136/186 98/141/165 96/142/188 
f 104/136/186 96/142/189 94/130/190 
f 103/133/191 104/136/186 94/130/174 
f 80/143/192 79/144/123 106/145/193 
f 107/146/194 80/143/195 106/145/193 
f 107/146/196 106/145/197 76/147/117 
f 107/146/196 76/147/117 75/148/198 
f 108/149/199 107/146/196 75/148/198 
f 108/149/200 75/148/198 84/150/201 
f 108/149/200 84/150/202 83/151/203 
f 108/149/204 83/151/130 82/152/128 
f 107/146/194 108/149/205 82/152/128 
f 107/146/206 82/152/207 80/143/195 
f 29/31/208 9/153/9 8/32/8 
f 29/31/208 109/154/209 9/153/9 
f 29/31/30 110/155/210 109/154/209 
f 27/29/28 110/155/210 29/31/30 
f 25/27/25 110/155/210 27/29/28 
f 30/34/32 110/155/210 25/27/211 
f 32/36/34 110/155/210 30/34/32 
f 32/36/34 111/156/212 110/155/210 
f 34/37/36 111/156/212 32/36/34 
f 37/38/39 111/156/212 34/37/36 
f 37/38/39 112/157/213 111/156/212 
f 37/38/39 113/23/214 112/157/213 
f 39/40/41 113/23/214 37/38/39 
f 39/40/41 114/158/215 113/23/214 
f 39/40/41 115/36/216 114/158/215 
f 2/41/2 115/36/217 39/40/41 
f 17/159/17 44/160/218 41/161/43 
f 17/159/17 116/162/219 44/160/218 
f 14/163/14 116/162/219 17/159/17 
f 14/163/14 117/163/220 116/162/219 
f 12/164/12 117/163/220 14/163/14 
f 12/164/12 118/21/221 117/163/220 
f 10/165/10 118/21/221 12/164/12 
f 9/153/9 118/21/221 10/165/10 
f 109/154/209 118/21/221 9/153/9 
f 109/154/209 119/166/222 118/21/221 
f 110/155/210 119/166/222 109/154/209 
f 111/156/212 119/166/222 110/155/210 
f 112/157/213 119/166/222 111/156/212 
f 112/157/213 120/164/223 119/166/222 
f 113/23/214 120/164/223 112/157/213 
f 113/23/214 121/167/224 120/164/223 
f 114/158/225 121/167/224 113/23/214 
f 44/160/226 121/167/224 114/158/225 
f 116/162/219 121/167/224 44/160/227 
f 117/163/220 121/167/224 116/162/219 
f 117/163/220 120/164/223 121/167/224 
f 118/21/221 120/164/223 117/163/220 
f 118/21/221 119/166/222 120/164/223 
f 38/168/40 15/169/15 16/170/16 
f 36/171/38 15/169/15 38/168/40 
f 35/172/37 15/173/15 36/174/38 
f 35/172/37 13/175/13 15/173/15 
f 33/176/35 13/175/13 35/172/37 
f 33/176/35 11/177/11 13/175/13 
f 31/178/33 11/177/11 33/176/35 
f 5/5/5 11/177/11 31/178/33 
f 5/5/5 7/7/7 11/177/11 
f 22/22/22 122/157/228 123/179/229 
f 23/23/23 122/157/228 22/22/22 
f 24/26/24 122/157/228 23/23/23 
f 24/26/24 124/28/230 122/157/228 
f 115/180/217 2/181/2 1/50/231 
f 125/182/232 126/183/233 127/184/234 
f 128/185/235 125/182/232 127/184/234 
f 128/185/236 127/184/237 129/186/238 
f 130/187/239 128/185/236 129/186/238 
f 130/187/239 129/186/238 131/188/240 
f 132/189/241 130/187/239 131/188/240 
f 132/189/242 131/188/243 126/183/233 
f 132/189/242 126/183/233 125/182/244 
f 133/190/245 132/189/242 125/182/246 
f 134/191/247 133/190/245 125/182/248 
f 134/191/249 125/182/250 128/185/235 
f 135/192/251 134/191/249 128/185/235 
f 135/192/252 128/185/236 130/187/239 
f 136/193/253 135/192/252 130/187/239 
f 136/193/253 130/187/239 132/189/241 
f 136/193/253 132/189/241 133/190/254 
f 137/190/255 136/193/253 133/190/256 
f 137/190/257 133/190/258 134/191/259 
f 137/190/255 134/191/259 135/192/260 
f 136/193/253 137/190/261 135/192/262 
f 138/194/263 90/195/264 139/196/265 
f 138/194/266 91/197/267 90/195/268 
f 140/198/269 91/197/270 138/194/271 
f 140/198/272 93/199/273 91/197/270 
f 141/200/274 19/201/275 20/202/276 
f 142/203/277 19/201/275 141/200/274 
f 142/203/277 22/204/278 19/201/275 
f 143/205/279 22/204/278 142/203/277 
f 144/206/280 145/207/281 146/208/282 
f 144/206/280 122/209/283 145/207/281 
f 144/206/280 123/210/284 122/209/283 
f 147/211/285 123/210/284 144/206/286 
f 19/201/275 123/210/284 147/211/285 
f 19/201/275 22/204/278 123/210/284 
f 126/212/287 148/213/288 127/214/289 
f 149/215/290 148/213/288 126/212/291 
f 149/215/292 150/216/293 148/213/294 
f 149/215/295 151/217/296 150/216/293 
f 149/215/295 152/218/297 151/217/296 
f 153/219/298 152/218/299 149/215/300 
f 153/219/301 58/220/302 152/218/303 
f 46/221/304 58/220/305 153/219/306 
f 144/222/286 46/223/307 153/224/308 
f 144/222/286 47/225/309 46/223/310 
f 146/226/311 47/225/312 144/222/313 
f 146/226/311 49/227/314 47/225/312 
f 145/228/315 66/229/316 146/230/317 
f 145/228/318 85/231/319 66/229/316 
f 145/228/320 63/232/321 85/231/322 
f 139/233/323 63/232/324 145/228/325 
f 154/234/326 155/235/327 156/236/328 
f 154/234/326 157/237/329 155/235/327 
f 158/238/330 159/239/331 160/240/332 
f 158/238/330 161/241/333 159/239/331 
f 162/242/334 161/241/335 158/238/330 
f 162/242/334 18/243/336 161/241/333 
f 141/244/274 18/243/337 162/242/334 
f 20/245/276 18/243/338 141/244/274 
f 20/245/276 163/246/339 18/243/340 
f 164/247/341 163/246/339 20/245/276 
f 164/247/341 148/213/342 163/246/339 
f 164/247/341 127/214/343 148/213/342 
f 129/247/344 127/214/343 164/247/341 
f 165/248/345 106/249/346 79/250/347 
f 165/248/348 166/251/349 106/249/346 
f 24/252/350 166/251/349 165/248/348 
f 24/252/351 167/253/352 166/251/353 
f 24/252/351 161/241/354 167/253/355 
f 159/239/331 161/241/333 24/252/350 
f 159/254/331 168/255/356 160/256/332 
f 24/257/351 168/255/356 159/254/331 
f 24/257/351 169/258/357 168/255/356 
f 24/257/351 124/259/358 169/258/357 
f 24/257/359 170/260/360 124/259/358 
f 165/261/345 170/260/360 24/257/351 
f 77/262/361 165/263/362 79/264/347 
f 77/262/361 170/265/360 165/263/345 
f 77/262/363 140/266/364 170/265/360 
f 76/267/365 140/266/366 77/262/367 
f 64/268/368 146/269/369 66/270/316 
f 64/268/368 171/271/370 146/269/369 
f 63/272/371 171/271/372 64/268/373 
f 139/273/374 171/271/372 63/272/321 
f 139/273/375 172/274/376 171/271/377 
f 90/275/378 172/274/379 139/273/380 
f 102/276/381 172/274/379 90/275/378 
f 93/277/273 172/274/382 102/276/383 
f 140/278/384 172/274/385 93/277/273 
f 140/278/386 166/251/387 172/274/376 
f 140/278/388 106/249/389 166/251/390 
f 76/279/391 106/249/389 140/278/389 
f 169/280/357 173/281/392 168/282/356 
f 169/280/357 174/283/393 173/281/392 
f 153/284/394 147/211/285 144/206/286 
f 153/284/394 149/285/395 147/211/285 
f 167/253/396 172/274/376 166/251/397 
f 167/253/398 175/286/399 172/274/400 
f 161/241/335 175/286/399 167/253/398 
f 161/241/333 176/287/401 175/286/399 
f 18/243/402 176/287/401 161/241/333 
f 163/246/339 176/287/401 18/243/402 
f 148/213/294 176/287/401 163/246/339 
f 150/216/293 176/287/401 148/213/294 
f 150/216/293 175/286/399 176/287/401 
f 151/217/296 175/286/399 150/216/293 
f 151/217/296 172/274/376 175/286/399 
f 151/217/296 171/271/377 172/274/376 
f 152/218/299 171/271/377 151/217/296 
f 152/218/299 146/269/403 171/271/377 
f 58/220/404 146/269/405 152/218/297 
f 58/220/406 49/243/314 146/269/405 
f 154/288/326 142/289/277 157/290/329 
f 154/288/326 143/291/279 142/289/277 
f 138/292/271 170/260/360 140/293/269 
f 138/292/271 124/259/358 170/260/360 
f 138/292/263 122/209/283 124/259/358 
f 138/292/263 145/207/281 122/209/283 
f 139/294/265 145/207/281 138/292/263 
f 177/295/407 147/296/285 149/297/408 
f 177/295/407 19/298/275 147/296/285 
f 177/295/409 20/299/276 19/298/275 
f 177/295/407 164/300/341 20/299/276 
f 177/295/407 129/301/344 164/300/341 
f 177/295/409 131/302/410 129/301/344 
f 177/295/411 126/303/412 131/302/413 
f 149/297/414 126/303/411 177/295/415 
# 0 polygons - 334 triangles

