# 3ds Max Wavefront OBJ Exporter v0.99 - (c)2007 guruware
# File Created: 26.04.2025 17:49:12

mtllib crash_pie_izquierdo.mtl

#
# object crash_pie_izquierdo
#

v  -0.4858 -2.2163 0.5423
v  -0.6201 -1.7493 1.7538
v  -0.4659 -1.6163 0.5971
v  -0.6209 -2.2093 1.7036
v  -0.5134 -2.2105 2.0535
v  -0.1541 -1.6159 3.0171
v  -0.5259 -1.7706 2.0668
v  -0.1478 -1.9793 3.0096
v  0.8426 -1.9473 3.1344
v  1.3129 -1.6569 2.6249
v  0.8299 -1.5970 3.1409
v  1.3326 -2.0247 2.6629
v  1.2385 -1.7180 1.1209
v  1.3036 -2.2264 1.6120
v  1.1696 -2.2262 1.1984
v  1.3213 -1.7311 1.5214
v  1.4551 -2.2256 1.9268
v  1.4300 -1.7406 1.9496
v  0.7439 -2.2287 0.0629
v  0.5820 -1.7522 -0.5097
v  0.7637 -1.7507 0.1052
v  0.5554 -2.2271 -0.5757
v  0.2170 -2.1085 -1.0127
v  -0.3948 -1.6328 -0.9861
v  0.2561 -1.6760 -0.9591
v  -0.4339 -2.0655 -1.0389
v  -0.5268 -1.6171 -0.4589
v  -0.6231 -1.6277 -0.4977
v  -0.3704 -1.5983 0.5876
v  1.1621 -1.7242 1.1207
v  0.6873 -1.7239 0.1170
v  0.5441 -1.7233 -0.4821
v  0.2448 -1.6662 -0.8658
v  -0.5309 -1.7314 1.7488
v  -0.6561 -2.2133 -0.5692
v  0.8028 -1.5487 3.0345
v  -0.1303 -1.5677 2.9078
v  1.2611 -1.6262 2.5735
v  1.3597 -1.7477 1.9402
v  -0.4535 -1.3347 0.5709
v  -0.4936 -1.1169 -0.3731
v  -0.4394 -1.1421 -0.5773
v  -0.3487 -1.6173 -0.8993
v  -0.3534 -1.1292 -0.7900
v  -0.3271 -0.9742 -0.7360
v  0.2198 -1.1662 -0.8375
v  0.1888 -0.9784 -0.7836
v  0.4084 -1.1904 -0.6063
v  0.5321 -1.1811 -0.4378
v  -0.4705 -1.7470 1.9460
v  1.2447 -1.7377 1.5180
v  0.4701 -0.6540 -0.3247
v  0.6174 -1.4545 0.1271
v  0.6469 -0.8264 0.3796
v  0.3182 -0.2097 -0.2497
v  0.4344 -0.1819 0.2451
v  1.1760 -1.3621 1.1909
v  1.2377 -1.3720 1.4706
v  1.3538 -1.3660 1.9714
v  -0.5114 -1.3548 1.7729
v  -0.1574 -0.9439 1.5619
v  -0.1687 -0.8344 1.2516
v  -0.4444 -1.3957 1.9794
v  -0.1119 -0.9579 2.0329
v  -0.3960 -0.7717 0.5792
v  -0.4475 -0.6177 -0.2746
v  -0.3913 -0.2621 0.4617
v  -0.4267 -0.2819 -0.1773
v  1.2478 -1.2997 2.5316
v  0.8566 -1.0171 1.9843
v  0.8454 -1.0509 2.4879
v  -0.1058 -0.9781 2.4256
v  -0.1318 -1.1836 2.8078
v  0.8012 -1.1600 2.9330
v  0.6385 -0.8865 1.0778
v  0.5260 -0.6771 0.8115
v  0.7334 -0.9853 1.4408
v  -0.1721 -0.2263 0.6114
v  0.3239 -0.1947 0.5211
v  -0.1859 -0.6147 0.9648
v  -0.3058 -0.5206 -0.6059
v  -0.3293 -0.2706 -0.4729
v  0.1149 -0.5536 -0.6119
v  -0.4247 -0.0338 0.3690
v  -0.4522 -0.0631 -0.1771
v  0.4086 0.0526 0.2268
v  0.2335 0.0415 0.4545
v  -0.1546 0.0006 0.5095
v  -0.3541 -0.0539 -0.4299
v  0.0010 -0.0021 0.2693
v  0.2028 0.0263 0.1152
v  -0.2231 -0.0190 0.2050
v  -0.2466 -0.0309 -0.0782
v  -0.1030 -0.0115 -0.2741
v  0.2992 0.0225 -0.2473
v  0.0152 -0.0172 -0.4621
v  0.1352 0.0108 -0.1281
v  0.0337 -0.2408 -0.5091
# 98 vertices

vn -0.9992 0.0261 -0.0306
vn -0.6781 0.7298 0.0869
vn -0.7460 0.6633 0.0588
vn -0.9873 -0.0174 0.1576
vn -0.6481 -0.7043 0.2897
vn -0.6132 0.5295 0.5862
vn -0.8313 0.5001 0.2427
vn -0.2569 -0.6800 0.6867
vn 0.4375 -0.2940 0.8498
vn 0.7795 0.4683 0.4159
vn 0.2552 0.5744 0.7777
vn 0.7683 -0.4881 0.4141
vn -0.5847 -0.8057 0.0947
vn 0.9404 -0.1439 -0.3081
vn 0.6244 -0.7527 -0.2088
vn 0.7278 -0.6260 -0.2802
vn 0.9545 -0.0408 -0.2955
vn 0.8233 -0.5632 -0.0711
vn 0.8599 0.5091 -0.0366
vn 0.9836 -0.0018 -0.1804
vn 0.9520 -0.0123 -0.3060
vn 0.7990 0.5149 -0.3107
vn 0.8500 0.4181 -0.3206
vn 0.6702 -0.5106 -0.5386
vn 0.2750 -0.2425 -0.9304
vn -0.3447 0.6846 -0.6422
vn 0.5358 0.6381 -0.5529
vn -0.3441 -0.6201 -0.7051
vn -0.7068 0.6951 -0.1317
vn -0.5847 0.8046 -0.1037
vn -0.1840 0.9810 0.0616
vn 0.5383 0.8144 -0.2165
vn 0.7469 0.5998 -0.2872
vn 0.7591 0.6200 -0.1984
vn 0.2174 0.9704 -0.1054
vn -0.0809 0.9963 0.0275
vn 0.1846 0.9796 -0.0800
vn 0.7554 0.5477 -0.3598
vn 0.3774 0.6297 -0.6790
vn -0.8282 0.5245 0.1975
vn -0.9879 0.0755 -0.1354
vn -0.5240 0.1497 -0.8385
vn -0.9634 -0.1678 -0.2090
vn 0.3121 0.6498 0.6931
vn -0.5011 0.6460 0.5759
vn 0.3180 0.9453 0.0722
vn 0.2991 0.9501 -0.0885
vn -0.0905 0.9932 -0.0736
vn 0.6973 0.6782 0.2321
vn 0.6245 0.7810 -0.0092
vn -0.9989 -0.0479 0.0016
vn -0.9934 -0.0119 -0.1141
vn -0.9535 -0.3012 -0.0092
vn -0.9927 0.0984 -0.0696
vn -0.8182 0.5679 -0.0898
vn -0.9266 0.1471 -0.3461
vn -0.4455 0.7600 -0.4732
vn -0.4495 0.2276 -0.8638
vn -0.4594 0.3019 -0.8354
vn 0.2958 0.2298 -0.9272
vn 0.3649 0.3372 -0.8678
vn 0.7785 0.1598 -0.6070
vn 0.9373 0.1476 -0.3156
vn -0.7442 0.6212 0.2454
vn -0.0856 0.9951 0.0486
vn -0.0944 0.9943 0.0497
vn 0.0663 0.9973 -0.0306
vn 0.8289 0.2733 -0.4882
vn 0.9457 0.1501 -0.2882
vn 0.9224 0.3806 -0.0657
vn 0.8313 0.2267 -0.5075
vn 0.9810 0.1938 0.0082
vn 0.9167 0.3065 -0.2563
vn 0.9737 -0.0077 -0.2275
vn 0.8671 0.3537 -0.3506
vn 0.8877 0.4279 -0.1701
vn 0.9935 0.0070 -0.1140
vn 0.8814 0.4719 -0.0215
vn -0.8844 0.4200 0.2035
vn -0.3462 0.9155 0.2050
vn -0.3432 0.8545 0.3900
vn -0.8930 0.3765 0.2466
vn -0.3160 0.9466 0.0634
vn -0.9324 0.2554 0.2558
vn -0.9856 0.1072 -0.1307
vn -0.8650 0.1475 0.4797
vn -0.9904 -0.0113 -0.1375
vn 0.7798 0.5527 0.2939
vn 0.7550 0.5465 0.3623
vn 0.3189 0.9475 0.0237
vn 0.1955 0.9602 0.1994
vn -0.4511 0.8638 0.2245
vn -0.6161 0.5743 0.5391
vn 0.2091 0.6120 0.7628
vn 0.5059 0.8329 0.2242
vn 0.5181 0.6801 0.5187
vn 0.3581 0.9306 0.0764
vn -0.2354 0.4592 0.8566
vn 0.6861 0.4182 0.5953
vn -0.2872 0.7256 0.6253
vn -0.6335 0.2916 -0.7167
vn -0.6137 0.1755 -0.7698
vn 0.2596 0.4065 -0.8760
vn -0.9137 0.3837 0.1338
vn -0.9320 0.0133 0.3623
vn -0.7642 0.6252 -0.1585
vn 0.8150 0.5368 0.2184
vn 0.4136 0.9032 0.1147
vn 0.1751 0.7977 0.5771
vn -0.2892 0.7589 0.5834
vn -0.6572 0.7265 0.2009
vn -0.6717 0.7266 -0.1441
vn -0.3860 0.6364 -0.6679
vn -0.1106 0.9930 -0.0414
vn 0.0511 0.9937 0.0999
vn -0.1206 0.9926 -0.0116
vn -0.1090 0.9937 -0.0265
vn -0.3517 0.9293 -0.1125
vn -0.2188 0.9527 0.2107
vn -0.1450 0.9892 -0.0207
vn -0.1142 0.9924 -0.0457
vn 0.5445 0.7691 -0.3347
vn 0.2540 0.6510 -0.7153
vn -0.0974 0.9948 -0.0299
vn 0.1048 0.9505 -0.2926
vn 0.2862 0.2884 -0.9137
vn -0.9936 -0.0465 0.1029
vn 0.8045 0.3999 -0.4392
vn 0.9378 0.2343 0.2561
vn 0.2414 0.9550 0.1721
vn 0.9311 0.0781 0.3563
vn 0.9585 0.2848 0.0151
vn 0.8762 -0.2395 0.4182
vn 0.9447 -0.3171 -0.0833
vn 0.9261 -0.1221 -0.3569
vn 0.4912 -0.7747 -0.3982
vn -0.0086 -0.7658 -0.6430
vn -0.4217 -0.8436 -0.3323
vn -0.0225 -0.9908 -0.1331
vn -0.0098 -1.0000 0.0015
vn -0.0121 -0.9878 -0.1551
vn -0.0087 -1.0000 0.0036
vn -0.4282 -0.8943 0.1301
vn 0.5931 -0.7711 -0.2315
vn 0.2917 -0.9562 0.0238
vn 0.0113 -0.9854 0.1701
vn 0.6153 -0.6382 0.4627
vn 0.5370 -0.8412 0.0640
vn 0.3239 -0.8024 0.5013
# 149 vertex normals

vt 0.0036 0.0253 0.0000
vt 0.1464 0.0202 0.0000
vt 0.1428 0.0253 0.0000
vt 0.0037 0.0202 0.0000
vt 0.0038 0.0331 0.0000
vt 0.1466 0.0764 0.0000
vt 0.1466 0.0331 0.0000
vt 0.0039 0.0764 0.0000
vt 0.0039 0.0722 0.0000
vt 0.1466 0.0610 0.0000
vt 0.1466 0.0722 0.0000
vt 0.0038 0.0610 0.0000
vt 0.0037 0.0261 0.0000
vt 0.1468 0.0294 0.0000
vt 0.1459 0.0262 0.0000
vt 0.0037 0.0294 0.0000
vt 0.0039 0.0610 0.0000
vt 0.1448 0.0198 0.0000
vt 0.0037 0.0231 0.0000
vt 0.0036 0.0199 0.0000
vt 0.1453 0.0220 0.0000
vt 0.0037 0.0253 0.0000
vt 0.1465 0.0253 0.0000
vt 0.0035 0.0240 0.0000
vt 0.1404 0.0188 0.0000
vt 0.1415 0.0240 0.0000
vt 0.0035 0.0188 0.0000
vt 0.0034 0.0233 0.0000
vt 0.1391 0.0185 0.0000
vt 0.1387 0.0233 0.0000
vt 0.0034 0.0185 0.0000
vt 0.0247 0.0022 0.0000
vt 0.0813 0.0145 0.0000
vt 0.0247 0.0145 0.0000
vt 0.0813 0.0022 0.0000
vt 0.0035 0.0236 0.0000
vt 0.1391 0.0186 0.0000
vt 0.1399 0.0236 0.0000
vt 0.0814 0.0022 0.0000
vt 0.1386 0.0233 0.0000
vt 0.0034 0.0232 0.0000
vt 0.0814 0.0145 0.0000
vt 0.2720 0.0112 0.0000
vt 0.2133 0.0197 0.0000
vt 0.2184 0.0112 0.0000
vt 0.2669 0.0199 0.0000
vt 0.3913 0.2734 0.0000
vt 0.2854 0.2678 0.0000
vt 0.2883 0.2790 0.0000
vt 0.4147 0.2645 0.0000
vt 0.4830 0.2642 0.0000
vt 0.4159 0.2487 0.0000
vt 0.4831 0.2518 0.0000
vt 0.4002 0.2442 0.0000
vt 0.2856 0.2451 0.0000
vt 0.2887 0.2382 0.0000
vt 0.2498 0.0092 0.0000
vt 0.2459 0.0146 0.0000
vt 0.2099 0.0120 0.0000
vt 0.0247 0.0079 0.0000
vt 0.0814 0.0079 0.0000
vt 0.1294 0.5279 0.0000
vt 0.0069 0.6751 0.0000
vt 0.0069 0.5279 0.0000
vt 0.1294 0.6751 0.0000
vt 0.2449 0.5279 0.0000
vt 0.2449 0.6751 0.0000
vt 0.3659 0.0256 0.0000
vt 0.2119 0.0182 0.0000
vt 0.2099 0.0254 0.0000
vt 0.3683 0.0208 0.0000
vt 0.2144 0.0109 0.0000
vt 0.3726 0.0109 0.0000
vt 0.3712 0.0267 0.0000
vt 0.1846 0.0209 0.0000
vt 0.1846 0.0257 0.0000
vt 0.3716 0.0109 0.0000
vt 0.1847 0.0110 0.0000
vt 0.0070 0.6751 0.0000
vt 0.2449 0.5280 0.0000
vt 0.2844 0.4828 0.0000
vt 0.4174 0.4412 0.0000
vt 0.3179 0.4828 0.0000
vt 0.3481 0.4411 0.0000
vt 0.2844 0.3459 0.0000
vt 0.3474 0.3461 0.0000
vt 0.2844 0.2183 0.0000
vt 0.3474 0.2183 0.0000
vt 0.2844 0.0936 0.0000
vt 0.4068 0.2182 0.0000
vt 0.3734 0.0935 0.0000
vt 0.4789 0.2182 0.0000
vt 0.4068 0.3462 0.0000
vt 0.4790 0.3462 0.0000
vt 0.1836 0.0254 0.0000
vt 0.3629 0.0083 0.0000
vt 0.1812 0.0090 0.0000
vt 0.3679 0.0256 0.0000
vt 0.0053 0.2875 0.0000
vt 0.2687 0.2078 0.0000
vt 0.2686 0.2874 0.0000
vt 0.0053 0.2080 0.0000
vt 0.2687 0.0953 0.0000
vt 0.0053 0.0959 0.0000
vt 0.0053 0.1205 0.0000
vt 0.2686 0.2873 0.0000
vt 0.2686 0.1205 0.0000
vt 0.0053 0.2874 0.0000
vt 0.1855 0.0094 0.0000
vt 0.3683 0.0154 0.0000
vt 0.3664 0.0096 0.0000
vt 0.1872 0.0154 0.0000
vt 0.3721 0.0271 0.0000
vt 0.1890 0.0271 0.0000
vt 0.3232 0.0073 0.0000
vt 0.2446 0.0221 0.0000
vt 0.2471 0.0072 0.0000
vt 0.3205 0.0223 0.0000
vt 0.3172 0.0086 0.0000
vt 0.1772 0.0244 0.0000
vt 0.3170 0.0241 0.0000
vt 0.1803 0.0092 0.0000
vt 0.3535 0.0118 0.0000
vt 0.3406 0.0166 0.0000
vt 0.3526 0.0167 0.0000
vt 0.3413 0.0092 0.0000
vt 0.2215 0.0105 0.0000
vt 0.3707 0.0106 0.0000
vt 0.2228 0.0270 0.0000
vt 0.1452 0.0013 0.0000
vt 0.0877 0.0159 0.0000
vt 0.0883 0.0014 0.0000
vt 0.1441 0.0153 0.0000
vt 0.1449 0.0013 0.0000
vt 0.0883 0.0163 0.0000
vt 0.0881 0.0013 0.0000
vt 0.1453 0.0156 0.0000
vt 0.1454 0.0014 0.0000
vt 0.0883 0.0162 0.0000
vt 0.0884 0.0014 0.0000
vt 0.1452 0.0156 0.0000
vt 0.2042 0.0235 0.0000
vt 0.2927 0.0157 0.0000
vt 0.2084 0.0095 0.0000
vt 0.3253 0.0244 0.0000
vt 0.1856 0.0097 0.0000
vt 0.1861 0.0251 0.0000
vt 0.3310 0.0106 0.0000
vt 0.1837 0.0085 0.0000
vt 0.3161 0.0240 0.0000
vt 0.2504 0.0080 0.0000
vt 0.1851 0.0248 0.0000
vt 0.3702 0.0267 0.0000
vt 0.2615 0.0086 0.0000
vt 0.2666 0.0267 0.0000
vt 0.3628 0.0086 0.0000
vt 0.1453 0.0014 0.0000
vt 0.0884 0.0163 0.0000
vt 0.1454 0.0157 0.0000
vt 0.1441 0.0012 0.0000
vt 0.0874 0.0158 0.0000
vt 0.0877 0.0012 0.0000
vt 0.1436 0.0152 0.0000
vt 0.0665 0.0016 0.0000
vt 0.1302 0.0155 0.0000
vt 0.0664 0.0155 0.0000
vt 0.1302 0.0017 0.0000
vt 0.0664 0.0017 0.0000
vt 0.1435 0.0012 0.0000
vt 0.0876 0.0159 0.0000
vt 0.0874 0.0012 0.0000
vt 0.1439 0.0153 0.0000
vt 0.0665 0.0155 0.0000
vt 0.2102 0.0267 0.0000
vt 0.2951 0.0165 0.0000
vt 0.2064 0.0086 0.0000
vt 0.2669 0.0147 0.0000
vt 0.2128 0.0195 0.0000
vt 0.2142 0.0094 0.0000
vt 0.0665 0.0077 0.0000
vt 0.1302 0.0077 0.0000
vt 0.2679 0.0098 0.0000
vt 0.2133 0.0144 0.0000
vt 0.2146 0.0096 0.0000
vt 0.2657 0.0195 0.0000
vt 0.2389 0.0192 0.0000
vt 0.1439 0.0012 0.0000
vt 0.0881 0.0161 0.0000
vt 0.0876 0.0012 0.0000
vt 0.1449 0.0155 0.0000
vt 0.0665 0.0157 0.0000
vt 0.1306 0.0152 0.0000
vt 0.1295 0.0010 0.0000
vt 0.0668 0.0010 0.0000
vt 0.1436 0.0012 0.0000
vt 0.1435 0.0152 0.0000
vt 0.0035 0.0245 0.0000
vt 0.1433 0.0195 0.0000
vt 0.1399 0.0246 0.0000
vt 0.0036 0.0195 0.0000
vt 0.0038 0.0763 0.0000
vt 0.1466 0.0330 0.0000
vt 0.1466 0.0763 0.0000
vt 0.0038 0.0330 0.0000
vt 0.0036 0.0248 0.0000
vt 0.1420 0.0192 0.0000
vt 0.1443 0.0247 0.0000
vt 0.0035 0.0192 0.0000
vt 0.4922 0.9412 0.0000
vt 0.4221 0.9946 0.0000
vt 0.4922 0.9948 0.0000
vt 0.4221 0.9401 0.0000
vt 0.4221 0.8606 0.0000
vt 0.4922 0.8951 0.0000
vt 0.4221 0.7952 0.0000
vt 0.4922 0.8254 0.0000
vt 0.4922 0.7952 0.0000
vt 0.4221 0.7707 0.0000
vt 0.4922 0.7708 0.0000
vt 0.4222 0.7023 0.0000
vt 0.4922 0.7024 0.0000
vt 0.4582 0.6864 0.0000
vt 0.2572 0.0069 0.0000
vt 0.2893 0.0235 0.0000
vt 0.2875 0.0068 0.0000
vt 0.2584 0.0235 0.0000
vt 0.2995 0.0169 0.0000
vt 0.2841 0.0123 0.0000
vt 0.3005 0.0121 0.0000
vt 0.3523 0.0166 0.0000
vt 0.3535 0.0143 0.0000
vt 0.3659 0.0096 0.0000
vt 0.2470 0.0235 0.0000
vt 0.3615 0.0240 0.0000
vt 0.2530 0.0095 0.0000
vt 0.3541 0.0119 0.0000
vt 0.2950 0.0174 0.0000
vt 0.3535 0.0169 0.0000
vt 0.2954 0.0124 0.0000
vt 0.3544 0.0120 0.0000
vt 0.3417 0.0169 0.0000
vt 0.3419 0.0094 0.0000
# 242 texture coords

o crash_pie_izquierdo
g crash_pie_izquierdo
usemtl Crash_08___Default
s 1
f 1/1/1 2/2/2 3/3/3 
f 1/1/1 4/4/4 2/2/2 
f 5/5/5 6/6/6 7/7/7 
f 5/5/5 8/8/8 6/6/6 
f 9/9/9 10/10/10 11/11/11 
f 9/9/9 12/12/12 10/10/10 
f 4/13/13 7/14/7 2/15/2 
f 4/13/13 5/16/5 7/14/7 
f 8/9/8 11/10/11 6/11/6 
f 8/9/8 9/17/9 11/10/11 
f 13/18/14 14/19/15 15/20/16 
f 16/21/17 14/19/15 13/18/14 
f 16/21/17 17/22/18 14/19/15 
f 18/23/19 17/22/20 16/21/17 
f 19/24/21 20/25/22 21/26/23 
f 19/24/21 22/27/24 20/25/22 
f 23/28/25 24/29/26 25/30/27 
f 23/28/25 26/31/28 24/29/26 
f 3/32/3 27/33/29 28/34/30 
f 3/32/3 29/35/31 27/33/29 
f 30/35/32 21/34/33 31/33/34 
f 30/35/35 13/32/36 21/34/37 
f 25/32/27 32/33/38 20/34/22 
f 25/32/27 33/35/39 32/33/38 
f 22/36/24 25/37/27 20/38/22 
f 22/36/24 23/31/25 25/37/27 
f 2/32/2 29/33/31 3/34/3 
f 2/32/2 34/39/40 29/33/31 
f 35/27/41 24/40/26 26/41/42 
f 35/27/43 28/25/30 24/40/26 
f 36/39/44 6/34/6 11/32/11 
f 36/39/44 37/42/45 6/34/6 
f 38/33/46 18/32/47 39/35/48 
f 38/33/49 10/34/10 18/32/50 
f 40/43/51 27/44/52 29/45/53 
f 40/43/51 41/46/54 27/44/55 
f 42/47/56 43/48/57 27/49/55 
f 42/47/56 44/50/58 43/48/57 
f 45/51/59 44/50/58 42/47/56 
f 45/51/59 46/52/60 44/50/58 
f 47/53/61 46/52/60 45/51/59 
f 48/54/62 46/52/60 47/53/61 
f 48/54/62 33/55/39 46/52/60 
f 32/56/38 33/55/39 48/54/62 
f 48/57/62 49/58/63 32/59/38 
f 24/32/26 33/33/39 25/34/27 
f 24/32/26 43/35/57 33/33/39 
f 37/39/45 7/34/7 6/32/6 
f 37/39/45 50/42/64 7/34/7 
f 30/35/35 16/60/65 13/32/36 
f 51/61/66 16/60/65 30/35/35 
f 51/61/66 18/34/67 16/60/65 
f 39/42/48 18/34/67 51/61/66 
f 44/50/58 33/55/39 43/48/57 
f 44/50/58 46/52/60 33/55/39 
f 52/62/68 53/63/69 49/64/63 
f 52/62/68 54/65/70 53/63/69 
f 55/66/71 54/65/70 52/62/68 
f 55/66/71 56/67/72 54/65/70 
f 57/68/73 51/69/74 30/70/75 
f 58/71/76 51/69/74 57/68/73 
f 58/71/76 39/72/77 51/69/74 
f 59/73/78 39/72/77 58/71/76 
f 60/74/79 61/75/80 62/76/81 
f 63/77/82 61/75/80 60/74/79 
f 63/77/82 64/78/83 61/75/80 
f 65/62/84 41/79/54 40/64/51 
f 65/62/84 66/65/85 41/79/54 
f 67/80/86 66/65/85 65/62/84 
f 67/80/86 68/67/87 66/65/85 
f 59/81/78 38/82/88 39/83/77 
f 59/81/78 69/84/89 38/82/88 
f 70/85/90 69/84/89 59/81/78 
f 70/85/90 71/86/91 69/84/89 
f 64/87/83 71/86/91 70/85/90 
f 64/87/83 72/88/92 71/86/91 
f 63/89/82 72/88/92 64/87/83 
f 63/89/82 73/90/93 72/88/92 
f 50/91/64 73/90/93 63/89/82 
f 37/92/45 73/90/93 50/91/64 
f 37/92/45 74/93/94 73/90/93 
f 36/94/44 74/93/94 37/92/45 
f 36/94/44 69/84/89 74/93/94 
f 38/82/88 69/84/89 36/94/44 
f 75/95/95 54/96/70 76/97/96 
f 75/95/95 57/98/73 54/96/70 
f 62/99/81 77/100/97 75/101/95 
f 61/102/80 77/100/97 62/99/81 
f 61/102/80 70/103/90 77/100/97 
f 64/104/83 70/103/90 61/102/80 
f 78/105/98 76/106/96 79/107/99 
f 78/105/98 80/108/100 76/106/96 
f 75/109/95 58/110/76 57/111/73 
f 77/112/97 58/110/76 75/109/95 
f 77/112/97 59/113/78 58/110/76 
f 70/114/90 59/113/78 77/112/97 
f 68/115/87 81/116/101 66/117/85 
f 68/115/87 82/118/102 81/116/101 
f 65/119/84 78/120/98 67/121/86 
f 65/119/84 80/122/100 78/120/98 
f 81/123/101 47/124/61 45/125/59 
f 81/123/101 83/126/103 47/124/61 
f 34/127/104 63/113/82 60/128/79 
f 34/127/104 50/129/64 63/113/82 
f 84/130/105 68/131/87 67/132/86 
f 84/130/105 85/133/106 68/131/87 
f 86/134/107 79/135/99 56/136/72 
f 86/134/108 87/137/109 79/135/99 
f 88/138/110 67/139/86 78/140/98 
f 88/138/110 84/141/111 67/139/86 
f 31/142/34 53/143/69 30/144/32 
f 65/145/84 62/146/81 80/147/100 
f 65/145/84 60/148/79 62/146/81 
f 79/149/99 54/150/70 56/151/72 
f 79/149/99 76/152/96 54/150/70 
f 60/153/79 40/154/51 34/155/104 
f 60/153/79 65/156/84 40/154/51 
f 87/157/109 78/158/98 79/132/99 
f 87/157/109 88/159/110 78/158/98 
f 85/160/106 82/161/102 68/162/87 
f 85/160/112 89/163/113 82/161/102 
f 90/164/114 86/165/115 91/166/116 
f 90/164/114 87/167/109 86/165/115 
f 92/166/117 85/167/118 84/165/119 
f 92/166/117 93/168/120 85/167/112 
f 94/168/121 95/167/122 96/165/123 
f 94/168/121 97/166/124 95/167/125 
f 96/169/123 55/170/71 98/171/126 
f 96/169/123 95/172/122 55/170/71 
f 90/173/114 84/167/119 88/165/110 
f 90/173/114 92/168/117 84/167/119 
f 34/174/127 40/175/51 29/176/53 
f 41/177/54 42/178/56 27/179/55 
f 94/180/121 96/181/123 89/181/113 
f 90/180/114 88/167/110 87/165/109 
f 66/182/85 42/183/56 41/184/54 
f 81/185/101 42/183/56 66/182/85 
f 81/185/101 45/186/59 42/183/56 
f 95/187/128 56/188/72 55/189/71 
f 95/187/128 86/190/129 56/188/72 
f 97/191/124 86/192/130 95/193/125 
f 97/191/124 91/194/116 86/192/115 
f 89/195/113 98/161/126 82/171/102 
f 89/195/113 96/196/123 98/161/126 
f 94/168/121 85/165/112 93/166/120 
f 94/168/121 89/167/113 85/165/112 
f 35/197/41 3/198/3 28/199/30 
f 35/197/41 1/200/1 3/198/3 
f 12/201/131 18/202/132 10/203/10 
f 12/201/133 17/204/134 18/202/132 
f 15/205/16 21/206/23 13/207/14 
f 15/205/135 19/208/21 21/206/23 
f 22/209/136 26/210/137 23/211/25 
f 22/209/136 35/212/138 26/210/137 
f 22/209/139 1/213/140 35/212/141 
f 19/214/142 1/213/140 22/209/139 
f 19/214/142 4/215/143 1/213/140 
f 15/216/144 4/215/143 19/214/142 
f 14/217/15 4/215/143 15/216/144 
f 14/217/15 5/218/5 4/215/143 
f 17/219/145 5/218/5 14/217/15 
f 17/219/146 8/220/8 5/218/5 
f 12/221/147 8/220/8 17/219/148 
f 12/221/149 9/222/9 8/220/8 
f 20/32/22 31/33/34 21/34/33 
f 20/32/22 32/35/38 31/33/34 
f 28/32/30 43/33/57 24/34/26 
f 28/32/30 27/35/29 43/33/57 
f 2/34/2 50/35/64 34/33/40 
f 2/34/2 7/32/7 50/35/64 
f 38/39/49 11/34/11 10/32/10 
f 38/39/49 36/42/44 11/34/11 
f 49/223/63 31/224/34 32/225/38 
f 49/223/63 53/226/69 31/224/34 
f 48/227/62 52/228/68 49/229/63 
f 47/230/61 52/228/68 48/227/62 
f 47/230/61 83/231/103 52/228/68 
f 73/90/93 71/86/91 72/88/92 
f 74/93/94 71/86/91 73/90/93 
f 74/93/94 69/84/89 71/86/91 
f 57/232/73 53/233/69 54/234/70 
f 57/232/73 30/235/75 53/233/69 
f 98/236/126 52/237/68 83/238/103 
f 98/236/126 55/239/71 52/237/68 
f 82/240/102 83/241/103 81/238/101 
f 82/240/102 98/242/126 83/241/103 
f 80/105/100 75/101/95 76/107/96 
f 80/105/100 62/99/81 75/101/95 
# 0 polygons - 188 triangles

