# 3ds Max Wavefront OBJ Exporter v0.99 - (c)2007 guruware
# File Created: 26.04.2025 17:16:20

mtllib crash_pie_derecho.mtl

#
# object crash_pie_derecho
#

v  0.4529 -1.6163 0.5985
v  0.6326 -2.2134 -0.5678
v  0.5955 -1.6278 -0.4963
v  0.4775 -2.2164 0.5439
v  0.5331 -1.7707 2.0678
v  0.6231 -2.2094 1.7047
v  0.6239 -1.7494 1.7547
v  0.5137 -2.2045 2.0547
v  -0.8086 -1.5912 3.1425
v  0.1651 -1.9794 3.0106
v  0.1780 -1.6160 3.0180
v  -0.8214 -1.9473 3.1361
v  -0.7791 -1.7506 0.1086
v  -1.1703 -2.2260 1.2017
v  -1.2416 -1.7116 1.1240
v  -0.7606 -2.2285 0.0663
v  0.3646 -1.6328 -0.9840
v  -0.2480 -2.1018 -1.0097
v  -0.2854 -1.6759 -0.9561
v  0.4020 -2.0655 -1.0370
v  0.5003 -1.6172 -0.4572
v  0.3572 -1.5983 0.5891
v  -1.1651 -1.7179 1.1239
v  -0.7087 -1.7238 0.1203
v  -0.5713 -1.7167 -0.4790
v  -0.6100 -1.7456 -0.5064
v  -0.2712 -1.6661 -0.8629
v  0.3150 -1.6173 -0.8975
v  0.4738 -1.7471 1.9470
v  0.5345 -1.7315 1.7498
v  -1.4200 -1.7405 1.9524
v  -1.3134 -2.0246 2.6653
v  -1.2948 -1.6508 2.6271
v  -1.4524 -2.2194 1.9297
v  -0.5856 -2.2269 -0.5725
v  0.1444 -1.5678 2.9087
v  -1.2446 -1.6262 2.5759
v  -0.7847 -1.5428 3.0360
v  -1.3183 -1.7310 1.5245
v  -1.2482 -1.7376 1.5209
v  -1.3564 -1.7476 1.9430
v  -0.5578 -1.1810 -0.4344
v  -0.6321 -1.4544 0.1303
v  -1.1767 -1.3620 1.1942
v  -0.6600 -0.8264 0.3824
v  -0.4923 -0.6539 -0.3217
v  -0.3445 -0.2097 -0.2469
v  -0.4516 -0.1756 0.2477
v  0.3231 -1.1292 -0.7883
v  0.2984 -0.9743 -0.7340
v  0.4092 -1.1422 -0.5756
v  -0.2516 -1.1661 -0.8347
v  -0.2189 -0.9718 -0.7806
v  -0.4329 -1.1903 -0.6032
v  -1.2425 -1.3719 1.4735
v  -1.3431 -1.3660 1.9741
v  -0.6427 -0.8803 1.0801
v  -0.7328 -0.9792 1.4434
v  -0.8455 -1.0109 1.9865
v  -0.5321 -0.6771 0.8141
v  0.4027 -0.2820 -0.1756
v  0.4049 -0.0339 0.3704
v  0.3808 -0.2622 0.4631
v  0.4283 -0.0568 -0.1754
v  0.1392 0.0006 0.5114
v  0.1600 -0.2200 0.6132
v  0.2047 -0.0190 0.2070
v  0.2258 -0.0310 -0.0762
v  -0.4263 0.0526 0.2296
v  -0.0175 0.0043 0.2715
v  -0.2177 0.0263 0.1176
v  -0.2442 0.0415 0.4567
v  -0.3189 0.0225 -0.2443
v  0.0825 -0.0116 -0.2720
v  -0.0416 -0.0172 -0.4595
v  -0.1576 0.0107 -0.1256
v  0.4462 -1.3348 0.5723
v  0.4699 -1.1169 -0.3714
v  0.2814 -0.5206 -0.6039
v  0.4204 -0.6178 -0.2727
v  0.3025 -0.2706 -0.4710
v  0.1634 -0.8344 1.2530
v  0.3889 -0.7718 0.5806
v  0.1782 -0.6148 0.9663
v  0.5159 -1.3549 1.7739
v  -0.3388 -0.1947 0.5235
v  -0.0615 -0.2408 -0.5066
v  0.3287 -0.0540 -0.4280
v  0.4489 -1.3958 1.9803
v  -1.3042 -2.2200 1.6152
v  -0.1460 -0.5536 -0.6092
v  -0.8314 -1.0509 2.4899
v  0.1429 -1.1837 2.8089
v  0.1178 -0.9782 2.4268
v  -0.7862 -1.1601 2.9348
v  -1.2325 -1.2936 2.5337
v  0.1182 -0.9519 2.0343
v  0.1555 -0.9440 1.5633
# 98 vertices

vn 0.7437 0.6667 0.0486
vn 0.9858 0.0812 -0.1470
vn 0.5812 0.8066 -0.1080
vn 0.9986 0.0313 -0.0425
vn 0.8297 0.5075 0.2325
vn 0.5815 -0.8077 0.0976
vn 0.6775 0.7312 0.0796
vn 0.6436 -0.7101 0.2856
vn -0.2479 0.5810 0.7752
vn 0.2586 -0.6849 0.6812
vn 0.6151 0.5367 0.5776
vn -0.4351 -0.2946 0.8508
vn -0.8581 0.4107 -0.3083
vn -0.7312 -0.6264 -0.2702
vn -0.9434 -0.1422 -0.2995
vn -0.9570 -0.0109 -0.2898
vn -0.9291 -0.1228 -0.3488
vn 0.3401 0.6846 -0.6447
vn -0.2780 -0.2376 -0.9307
vn -0.5301 0.6432 -0.5525
vn 0.3349 -0.6149 -0.7140
vn 0.7042 0.6949 -0.1455
vn 0.1839 0.9812 0.0591
vn -0.7558 0.5927 -0.2783
vn -0.5394 0.8158 -0.2086
vn -0.7618 0.6210 -0.1842
vn -0.2006 0.9762 -0.0826
vn 0.0821 0.9961 0.0315
vn -0.2195 0.9707 -0.0982
vn -0.7516 0.5544 -0.3574
vn -0.8036 0.5148 -0.2988
vn -0.3768 0.6315 -0.6777
vn 0.4419 0.7595 -0.4774
vn 0.7441 0.6233 0.2404
vn 0.8293 0.5236 0.1950
vn -0.9524 0.3041 0.0234
vn -0.9268 0.0809 0.3668
vn -0.7681 0.4889 0.4136
vn -0.9489 -0.3072 -0.0726
vn -0.8730 -0.2373 0.4262
vn -0.6743 -0.5063 -0.5375
vn 0.4956 0.6597 0.5650
vn -0.6840 0.6927 0.2286
vn -0.3119 0.6487 0.6942
vn 0.0917 0.9940 0.0595
vn 0.1039 0.9930 0.0561
vn -0.0445 0.9984 -0.0347
vn 0.0998 0.9922 -0.0743
vn -0.9394 0.1554 -0.3056
vn -0.9490 0.1582 -0.2728
vn -0.9175 0.3035 -0.2569
vn -0.9243 0.3776 -0.0550
vn -0.8679 0.3578 -0.3445
vn 0.5174 0.1480 -0.8429
vn 0.9618 -0.1622 -0.2205
vn -0.2784 0.9564 -0.0884
vn -0.2925 0.9545 0.0578
vn -0.6090 0.7932 -0.0037
vn -0.8461 0.2634 -0.4635
vn -0.8349 0.2324 -0.4989
vn -0.9801 0.1977 0.0197
vn 0.4486 0.2249 -0.8650
vn 0.5723 0.2875 -0.7680
vn 0.9245 0.1481 -0.3511
vn -0.3035 0.2264 -0.9256
vn -0.3132 0.3482 -0.8836
vn -0.7736 0.1944 -0.6031
vn -0.9737 -0.0078 -0.2277
vn -0.8895 0.4273 -0.1619
vn -0.9954 0.0182 -0.0936
vn -0.8805 0.4740 -0.0067
vn -0.5048 0.8337 0.2240
vn -0.3567 0.9304 0.0838
vn -0.3187 0.9474 0.0278
vn -0.5156 0.6797 0.5217
vn 0.9890 -0.0049 -0.1481
vn 0.9371 0.0318 0.3476
vn 0.8710 0.1597 0.4646
vn 0.9486 0.2304 -0.2171
vn 0.2908 0.7595 0.5820
vn 0.2352 0.4633 0.8544
vn 0.6579 0.7288 0.1898
vn 0.3365 0.9348 -0.1139
vn 0.1036 0.9941 -0.0328
vn 0.2271 0.9514 0.2080
vn 0.1192 0.9928 -0.0148
vn -0.2431 0.9546 0.1720
vn 0.1107 0.9930 -0.0400
vn 0.1118 0.9934 -0.0251
vn -0.0546 0.9937 0.0981
vn -0.1740 0.7951 0.5810
vn -0.5419 0.7745 -0.3262
vn 0.1080 0.9930 -0.0475
vn -0.2559 0.6544 -0.7115
vn -0.3623 0.8764 -0.3172
vn 0.0969 0.9948 -0.0308
vn 0.9984 -0.0555 -0.0123
vn 0.9938 -0.0534 0.0971
vn 0.9467 -0.3212 -0.0227
vn 0.9904 0.1023 -0.0926
vn 0.8178 0.5658 -0.1049
vn 0.5733 0.3031 -0.7612
vn 0.9757 0.1175 -0.1849
vn 0.6099 0.1770 -0.7724
vn 0.3440 0.8551 0.3880
vn 0.9338 0.2601 0.2457
vn 0.2881 0.7270 0.6232
vn 0.8841 0.4230 0.1987
vn 0.9160 0.3799 0.1288
vn -0.9338 0.2396 0.2657
vn -0.8032 0.4131 -0.4293
vn -0.6807 0.4171 0.6022
vn -0.2902 0.2892 -0.9122
vn 0.3804 0.6332 -0.6740
vn 0.8957 0.3732 0.2419
vn -0.5197 0.8414 0.1484
vn -0.4144 0.9027 0.1155
vn 0.6624 0.7341 -0.1493
vn 0.9879 -0.0243 0.1532
vn -0.7656 -0.4863 0.4212
vn -0.6294 -0.7516 -0.1975
vn -0.9584 -0.0308 -0.2837
vn -0.8284 -0.5567 -0.0620
vn -0.9860 0.0105 -0.1666
vn -0.8493 0.5271 -0.0301
vn 0.0031 -0.7603 -0.6496
vn -0.4952 -0.7721 -0.3982
vn 0.4211 -0.8428 -0.3353
vn 0.0095 -1.0000 0.0014
vn 0.0193 -0.9901 -0.1389
vn 0.0115 -0.9878 -0.1554
vn 0.0085 -1.0000 0.0034
vn 0.4250 -0.8950 0.1352
vn -0.5957 -0.7717 -0.2228
vn -0.2925 -0.9560 0.0219
vn -0.0105 -0.9861 0.1656
vn -0.6135 -0.6358 0.4683
vn -0.5387 -0.8398 0.0676
vn -0.3221 -0.8044 0.4993
vn 0.9910 -0.0174 -0.1328
vn -0.3687 0.3942 -0.8418
vn -0.1916 0.9595 0.2067
vn 0.6196 0.5738 0.5356
vn 0.4555 0.8605 0.2282
vn -0.2054 0.6131 0.7628
vn -0.7528 0.5461 0.3674
vn -0.7688 0.5691 0.2916
vn 0.3194 0.9456 0.0620
vn 0.3482 0.9162 0.1984
# 149 vertex normals

vt 0.1433 0.0195 0.0000
vt 0.0035 0.0245 0.0000
vt 0.1399 0.0246 0.0000
vt 0.0036 0.0194 0.0000
vt 0.1467 0.0294 0.0000
vt 0.0037 0.0261 0.0000
vt 0.1459 0.0262 0.0000
vt 0.0037 0.0294 0.0000
vt 0.1466 0.0610 0.0000
vt 0.0039 0.0722 0.0000
vt 0.1466 0.0722 0.0000
vt 0.0039 0.0610 0.0000
vt 0.1466 0.0764 0.0000
vt 0.0038 0.0331 0.0000
vt 0.1466 0.0331 0.0000
vt 0.0039 0.0764 0.0000
vt 0.1419 0.0192 0.0000
vt 0.0036 0.0248 0.0000
vt 0.1442 0.0247 0.0000
vt 0.0035 0.0192 0.0000
vt 0.1390 0.0185 0.0000
vt 0.0034 0.0232 0.0000
vt 0.1386 0.0233 0.0000
vt 0.0034 0.0185 0.0000
vt 0.0813 0.0145 0.0000
vt 0.0247 0.0022 0.0000
vt 0.0247 0.0145 0.0000
vt 0.0813 0.0022 0.0000
vt 0.1466 0.0330 0.0000
vt 0.0038 0.0763 0.0000
vt 0.1466 0.0763 0.0000
vt 0.0038 0.0330 0.0000
vt 0.1391 0.0185 0.0000
vt 0.0035 0.0235 0.0000
vt 0.1398 0.0236 0.0000
vt 0.0814 0.0022 0.0000
vt 0.0814 0.0145 0.0000
vt 0.0247 0.0079 0.0000
vt 0.0814 0.0079 0.0000
vt 0.2892 0.0234 0.0000
vt 0.2571 0.0069 0.0000
vt 0.2874 0.0068 0.0000
vt 0.2583 0.0234 0.0000
vt 0.2469 0.0234 0.0000
vt 0.3657 0.0096 0.0000
vt 0.3613 0.0239 0.0000
vt 0.2528 0.0094 0.0000
vt 0.0035 0.0188 0.0000
vt 0.1403 0.0188 0.0000
vt 0.0069 0.5279 0.0000
vt 0.1294 0.6751 0.0000
vt 0.0069 0.6751 0.0000
vt 0.1294 0.5279 0.0000
vt 0.2449 0.6751 0.0000
vt 0.2449 0.5279 0.0000
vt 0.4146 0.2644 0.0000
vt 0.4829 0.2641 0.0000
vt 0.3912 0.2733 0.0000
vt 0.4157 0.2486 0.0000
vt 0.4829 0.2516 0.0000
vt 0.4000 0.2440 0.0000
vt 0.2117 0.0181 0.0000
vt 0.3657 0.0255 0.0000
vt 0.2097 0.0254 0.0000
vt 0.3680 0.0207 0.0000
vt 0.2143 0.0108 0.0000
vt 0.3723 0.0109 0.0000
vt 0.3680 0.0154 0.0000
vt 0.1854 0.0094 0.0000
vt 0.3662 0.0096 0.0000
vt 0.1871 0.0153 0.0000
vt 0.3718 0.0270 0.0000
vt 0.1889 0.0271 0.0000
vt 0.3627 0.0082 0.0000
vt 0.1835 0.0253 0.0000
vt 0.1812 0.0089 0.0000
vt 0.3676 0.0255 0.0000
vt 0.0877 0.0159 0.0000
vt 0.1451 0.0013 0.0000
vt 0.0883 0.0014 0.0000
vt 0.1440 0.0153 0.0000
vt 0.0883 0.0162 0.0000
vt 0.1454 0.0014 0.0000
vt 0.0884 0.0014 0.0000
vt 0.1451 0.0156 0.0000
vt 0.1302 0.0017 0.0000
vt 0.0664 0.0155 0.0000
vt 0.1302 0.0155 0.0000
vt 0.0664 0.0017 0.0000
vt 0.0665 0.0016 0.0000
vt 0.2458 0.0146 0.0000
vt 0.2497 0.0091 0.0000
vt 0.2098 0.0119 0.0000
vt 0.2925 0.0156 0.0000
vt 0.2041 0.0234 0.0000
vt 0.2083 0.0094 0.0000
vt 0.2950 0.0164 0.0000
vt 0.2102 0.0266 0.0000
vt 0.2063 0.0086 0.0000
vt 0.2128 0.0195 0.0000
vt 0.2668 0.0147 0.0000
vt 0.2142 0.0094 0.0000
vt 0.2446 0.0220 0.0000
vt 0.3231 0.0073 0.0000
vt 0.2470 0.0071 0.0000
vt 0.3204 0.0223 0.0000
vt 0.1855 0.0097 0.0000
vt 0.3252 0.0243 0.0000
vt 0.1860 0.0251 0.0000
vt 0.3309 0.0105 0.0000
vt 0.2132 0.0144 0.0000
vt 0.2678 0.0097 0.0000
vt 0.2145 0.0096 0.0000
vt 0.2388 0.0192 0.0000
vt 0.2657 0.0194 0.0000
vt 0.2614 0.0085 0.0000
vt 0.3701 0.0267 0.0000
vt 0.2665 0.0266 0.0000
vt 0.3627 0.0086 0.0000
vt 0.0881 0.0161 0.0000
vt 0.1439 0.0012 0.0000
vt 0.0876 0.0012 0.0000
vt 0.1448 0.0155 0.0000
vt 0.1306 0.0152 0.0000
vt 0.0665 0.0157 0.0000
vt 0.1295 0.0009 0.0000
vt 0.0668 0.0010 0.0000
vt 0.0884 0.0163 0.0000
vt 0.1453 0.0014 0.0000
vt 0.1454 0.0156 0.0000
vt 0.0876 0.0159 0.0000
vt 0.1435 0.0012 0.0000
vt 0.0874 0.0012 0.0000
vt 0.1439 0.0153 0.0000
vt 0.0874 0.0158 0.0000
vt 0.1435 0.0152 0.0000
vt 0.3159 0.0239 0.0000
vt 0.1836 0.0085 0.0000
vt 0.2503 0.0080 0.0000
vt 0.1850 0.0248 0.0000
vt 0.3719 0.0271 0.0000
vt 0.2215 0.0105 0.0000
vt 0.3706 0.0105 0.0000
vt 0.2227 0.0270 0.0000
vt 0.1448 0.0013 0.0000
vt 0.0881 0.0013 0.0000
vt 0.1453 0.0156 0.0000
vt 0.1440 0.0012 0.0000
vt 0.0877 0.0012 0.0000
vt 0.0665 0.0155 0.0000
vt 0.1302 0.0016 0.0000
vt 0.1464 0.0202 0.0000
vt 0.0036 0.0253 0.0000
vt 0.1428 0.0253 0.0000
vt 0.0037 0.0201 0.0000
vt 0.0038 0.0610 0.0000
vt 0.0037 0.0231 0.0000
vt 0.1447 0.0198 0.0000
vt 0.0036 0.0198 0.0000
vt 0.1452 0.0220 0.0000
vt 0.0037 0.0253 0.0000
vt 0.1464 0.0253 0.0000
vt 0.0035 0.0240 0.0000
vt 0.1415 0.0240 0.0000
vt 0.4221 0.9946 0.0000
vt 0.4922 0.9412 0.0000
vt 0.4922 0.9948 0.0000
vt 0.4221 0.9401 0.0000
vt 0.4221 0.8606 0.0000
vt 0.4922 0.8951 0.0000
vt 0.4221 0.7952 0.0000
vt 0.4922 0.8255 0.0000
vt 0.4922 0.7952 0.0000
vt 0.4221 0.7707 0.0000
vt 0.4922 0.7708 0.0000
vt 0.4222 0.7023 0.0000
vt 0.4922 0.7024 0.0000
vt 0.4581 0.6864 0.0000
vt 0.2132 0.0197 0.0000
vt 0.2720 0.0112 0.0000
vt 0.2183 0.0112 0.0000
vt 0.2668 0.0199 0.0000
vt 0.0070 0.5279 0.0000
vt 0.2854 0.2677 0.0000
vt 0.2883 0.2789 0.0000
vt 0.2855 0.2450 0.0000
vt 0.2886 0.2380 0.0000
vt 0.2840 0.0122 0.0000
vt 0.2994 0.0169 0.0000
vt 0.3003 0.0120 0.0000
vt 0.3533 0.0143 0.0000
vt 0.3522 0.0165 0.0000
vt 0.3474 0.3461 0.0000
vt 0.4068 0.2182 0.0000
vt 0.3474 0.2183 0.0000
vt 0.4068 0.3462 0.0000
vt 0.3481 0.4411 0.0000
vt 0.2948 0.0174 0.0000
vt 0.3540 0.0119 0.0000
vt 0.3533 0.0169 0.0000
vt 0.2953 0.0124 0.0000
vt 0.3416 0.0169 0.0000
vt 0.3543 0.0120 0.0000
vt 0.3534 0.0169 0.0000
vt 0.3418 0.0093 0.0000
vt 0.2686 0.2874 0.0000
vt 0.0053 0.1205 0.0000
vt 0.2686 0.1205 0.0000
vt 0.0053 0.2875 0.0000
vt 0.2686 0.2873 0.0000
vt 0.0053 0.2874 0.0000
vt 0.4174 0.4412 0.0000
vt 0.2844 0.4828 0.0000
vt 0.3176 0.4828 0.0000
vt 0.4790 0.3462 0.0000
vt 0.4789 0.2182 0.0000
vt 0.3734 0.0935 0.0000
vt 0.2844 0.0936 0.0000
vt 0.2844 0.2183 0.0000
vt 0.2844 0.3459 0.0000
vt 0.1846 0.0209 0.0000
vt 0.3711 0.0267 0.0000
vt 0.1845 0.0257 0.0000
vt 0.3715 0.0109 0.0000
vt 0.1846 0.0110 0.0000
vt 0.2687 0.2078 0.0000
vt 0.0053 0.2079 0.0000
vt 0.2687 0.0952 0.0000
vt 0.0053 0.0958 0.0000
vt 0.1772 0.0244 0.0000
vt 0.3171 0.0086 0.0000
vt 0.3169 0.0241 0.0000
vt 0.1802 0.0092 0.0000
vt 0.3405 0.0165 0.0000
vt 0.3534 0.0117 0.0000
vt 0.3525 0.0166 0.0000
vt 0.3411 0.0091 0.0000
vt 0.1302 0.0077 0.0000
vt 0.0665 0.0077 0.0000
# 239 texture coords

o crash_pie_derecho
g crash_pie_derecho
usemtl Crash_08___Default
s 1
f 1/1/1 2/2/2 3/3/3 
f 1/1/1 4/4/4 2/2/2 
f 5/5/5 6/6/6 7/7/7 
f 5/5/5 8/8/8 6/6/6 
f 9/9/9 10/10/10 11/11/11 
f 9/9/9 12/12/12 10/10/10 
f 11/13/11 8/14/8 5/15/5 
f 11/13/11 10/16/10 8/14/8 
f 13/17/13 14/18/14 15/19/15 
f 13/17/13 16/20/16 14/18/17 
f 17/21/18 18/22/19 19/23/20 
f 17/21/18 20/24/21 18/22/19 
f 21/25/22 1/26/1 3/27/3 
f 21/25/22 22/28/23 1/26/1 
f 13/27/24 23/28/25 24/25/26 
f 13/27/27 15/26/28 23/28/29 
f 25/25/30 19/26/20 26/27/31 
f 25/25/30 27/28/32 19/26/20 
f 28/25/33 3/26/3 17/27/18 
f 28/25/33 21/28/22 3/26/3 
f 29/28/34 7/27/7 30/25/35 
f 29/28/34 5/26/5 7/27/7 
f 31/29/36 32/30/37 33/31/38 
f 31/29/36 34/32/39 32/30/40 
f 19/33/20 35/34/41 26/35/31 
f 19/33/20 18/24/19 35/34/41 
f 22/25/23 7/26/7 1/27/1 
f 22/25/23 30/36/35 7/26/7 
f 27/25/32 17/26/18 19/27/20 
f 27/25/32 28/28/33 17/26/18 
f 5/27/5 36/36/42 11/26/11 
f 5/27/5 29/37/34 36/36/42 
f 9/27/9 37/36/43 33/26/38 
f 9/27/9 38/37/44 37/36/43 
f 39/38/45 23/28/29 15/26/28 
f 39/38/45 40/39/46 23/28/29 
f 31/27/47 40/39/46 39/38/45 
f 31/27/47 41/37/48 40/39/46 
f 24/40/26 42/41/49 25/42/30 
f 24/40/26 43/43/50 42/41/49 
f 43/44/50 44/45/51 45/46/52 
f 43/44/50 23/47/53 44/45/51 
f 17/23/18 2/48/2 20/22/54 
f 17/23/18 3/49/3 2/48/55 
f 31/26/56 37/25/57 41/28/48 
f 31/26/58 33/27/38 37/25/43 
f 43/50/50 46/51/59 42/52/49 
f 45/53/52 46/51/59 43/50/50 
f 45/53/52 47/54/60 46/51/59 
f 48/55/61 47/54/60 45/53/52 
f 49/56/62 50/57/63 51/58/64 
f 52/59/65 50/57/63 49/56/62 
f 52/59/65 53/60/66 50/57/63 
f 54/61/67 53/60/66 52/59/65 
f 40/62/68 44/63/51 23/64/53 
f 40/62/68 55/65/69 44/63/51 
f 41/66/70 55/65/69 40/62/68 
f 41/66/70 56/67/71 55/65/69 
f 55/68/69 57/69/72 44/70/51 
f 55/68/69 58/71/73 57/69/72 
f 56/72/71 58/71/73 55/68/69 
f 56/72/71 59/73/74 58/71/73 
f 45/74/52 57/75/72 60/76/75 
f 45/74/52 44/77/51 57/75/72 
f 61/78/76 62/79/77 63/80/78 
f 61/78/76 64/81/79 62/79/77 
f 63/82/78 65/83/80 66/84/81 
f 63/82/78 62/85/82 65/83/80 
f 64/86/83 67/87/84 62/88/85 
f 64/86/83 68/89/86 67/87/84 
f 69/88/87 70/90/88 71/87/89 
f 69/88/90 72/86/91 70/90/88 
f 73/86/92 74/89/93 75/88/94 
f 73/86/95 76/87/96 74/89/93 
f 42/91/49 54/92/67 25/93/30 
f 43/94/50 24/95/26 23/96/25 
f 77/97/97 30/98/98 22/99/99 
f 51/100/64 78/101/100 21/102/101 
f 79/103/102 61/104/76 80/105/103 
f 79/103/102 81/106/104 61/104/76 
f 82/107/105 83/108/106 84/109/107 
f 82/107/105 85/110/108 83/108/106 
f 51/111/64 80/112/103 78/113/100 
f 50/114/63 80/112/103 51/111/64 
f 50/114/63 79/115/102 80/112/103 
f 77/116/97 85/117/108 30/118/109 
f 77/116/97 83/119/106 85/117/108 
f 48/120/61 73/121/92 47/122/60 
f 69/123/110 73/121/111 48/120/61 
f 69/124/87 76/125/96 73/126/95 
f 71/127/89 76/125/96 69/124/87 
f 66/128/81 72/129/91 86/80/112 
f 66/128/81 65/130/80 72/129/91 
f 47/131/60 75/132/94 87/133/113 
f 47/131/60 73/134/92 75/132/94 
f 87/135/113 88/132/114 81/133/104 
f 87/135/113 75/136/94 88/132/114 
f 45/137/52 86/138/112 48/139/61 
f 45/137/52 60/140/75 86/138/112 
f 89/141/115 30/142/109 85/143/108 
f 89/141/115 29/144/34 30/142/109 
f 86/82/112 69/145/116 48/146/61 
f 86/82/112 72/147/91 69/145/117 
f 81/135/104 64/148/79 61/149/76 
f 81/135/104 88/136/114 64/148/118 
f 62/86/85 70/150/88 65/88/80 
f 62/86/85 67/89/84 70/150/88 
f 64/88/83 74/89/93 68/87/86 
f 64/88/118 88/151/114 74/89/93 
f 7/152/7 4/153/4 1/154/1 
f 7/152/7 6/155/119 4/153/4 
f 33/9/38 12/10/12 9/11/9 
f 33/9/38 32/156/120 12/10/12 
f 90/157/121 15/158/15 14/159/14 
f 90/157/121 39/160/122 15/158/15 
f 34/161/123 39/160/122 90/157/121 
f 34/161/124 31/162/125 39/160/122 
f 26/49/31 16/163/16 13/164/13 
f 26/49/31 35/48/41 16/163/16 
f 20/165/126 35/166/127 18/167/19 
f 2/168/128 35/166/127 20/165/126 
f 4/169/129 35/166/130 2/168/131 
f 4/169/129 16/170/132 35/166/130 
f 6/171/133 16/170/132 4/169/129 
f 6/171/133 14/172/134 16/170/132 
f 6/171/133 90/173/121 14/172/134 
f 8/174/8 90/173/121 6/171/133 
f 8/174/8 34/175/135 90/173/121 
f 10/176/10 34/175/136 8/174/8 
f 10/176/10 32/177/137 34/175/138 
f 12/178/12 32/177/139 10/176/10 
f 24/25/26 26/26/31 13/27/24 
f 24/25/26 25/28/30 26/26/31 
f 11/27/11 38/36/44 9/26/9 
f 11/27/11 36/37/42 38/36/44 
f 21/179/140 77/180/97 22/181/99 
f 21/179/101 78/182/100 77/180/97 
f 78/183/100 83/51/106 77/52/97 
f 80/53/103 83/51/106 78/183/100 
f 80/53/103 63/54/78 83/51/106 
f 61/55/76 63/54/78 80/53/103 
f 28/184/33 51/58/64 21/185/101 
f 28/184/33 49/56/62 51/58/64 
f 27/186/32 49/56/62 28/184/33 
f 27/186/32 52/59/65 49/56/62 
f 27/186/32 54/61/67 52/59/65 
f 25/187/30 54/61/67 27/186/32 
f 46/188/59 54/189/67 42/190/49 
f 91/191/141 54/189/67 46/188/59 
f 91/191/141 53/192/66 54/189/67 
f 92/193/142 93/194/143 94/195/144 
f 92/193/142 95/196/145 93/194/143 
f 96/197/146 95/196/145 92/193/142 
f 46/198/59 87/199/113 91/200/141 
f 46/198/59 47/201/60 87/199/113 
f 91/202/141 81/203/104 79/204/102 
f 91/202/141 87/205/113 81/203/104 
f 57/206/72 84/207/107 60/208/75 
f 57/206/72 82/209/105 84/207/107 
f 60/210/75 66/207/81 86/208/112 
f 60/210/75 84/211/107 66/207/81 
f 37/212/147 56/213/71 41/214/70 
f 37/212/147 96/197/146 56/213/71 
f 38/215/44 96/197/146 37/212/147 
f 38/215/44 95/196/145 96/197/146 
f 36/216/42 95/196/145 38/215/44 
f 36/216/42 93/194/143 95/196/145 
f 29/217/34 93/194/143 36/216/42 
f 89/218/115 93/194/143 29/217/34 
f 89/218/115 94/195/144 93/194/143 
f 97/219/148 94/195/144 89/218/115 
f 97/219/148 92/193/142 94/195/144 
f 59/220/74 92/193/142 97/219/148 
f 59/220/74 96/197/146 92/193/142 
f 56/213/71 96/197/146 59/220/74 
f 98/221/149 85/222/108 82/223/105 
f 98/221/149 89/224/115 85/222/108 
f 97/225/148 89/224/115 98/221/149 
f 58/226/73 82/209/105 57/206/72 
f 58/226/73 98/227/149 82/209/105 
f 59/228/74 98/227/149 58/226/73 
f 59/228/74 97/229/148 98/227/149 
f 66/230/81 83/231/106 63/232/78 
f 66/230/81 84/233/107 83/231/106 
f 53/234/66 79/235/102 50/236/63 
f 53/234/66 91/237/141 79/235/102 
f 75/238/94 74/239/93 88/238/114 
f 65/86/80 70/239/88 72/88/91 
# 0 polygons - 188 triangles

