# 3ds Max Wavefront OBJ Exporter v0.99 - (c)2007 guruware
# File Created: 26.04.2025 18:06:23

mtllib crash_brazo_izquierdo.mtl

#
# object crash_brazo_izquierdo
#

v  2.0562 -5.8424 0.0949
v  1.5362 -5.5792 -0.1324
v  1.8524 -5.7920 0.1041
v  2.0344 -5.5558 -0.0841
v  2.3595 -5.8359 -0.0886
v  2.1255 -5.5051 -0.3735
v  2.5405 -6.1474 -0.3435
v  2.4060 -6.1195 0.0296
v  1.9959 -5.7029 -0.9181
v  2.3351 -6.0690 -0.8415
v  1.9554 -5.3385 -0.6450
v  2.1057 -5.2719 -0.4198
v  1.9747 -5.3067 -0.2291
v  1.7711 -5.3976 -0.1991
v  1.5760 -3.5356 -0.0234
v  1.2329 -3.5870 0.0513
v  1.0742 -3.0522 0.0992
v  1.4492 -3.0757 0.0206
v  1.3282 -2.7406 0.0363
v  0.6005 -1.5734 0.4089
v  0.9322 -1.2283 0.4176
v  0.3403 -1.0070 0.4921
v  0.7743 -0.6337 0.5154
v  0.1072 -0.4913 0.6768
v  0.5158 0.1273 0.7156
v  0.8752 -0.5153 0.0295
v  1.0140 -1.1306 -0.0638
v  1.4371 -3.6169 -0.7609
v  1.7172 -3.5284 -0.3820
v  1.6226 -3.0482 -0.3083
v  1.3608 -3.1783 -0.7421
v  1.2585 -2.8204 -0.7593
v  1.3623 -2.4739 -0.2337
v  1.1133 -2.5463 -0.6633
v  0.5633 -0.5865 -0.7496
v  0.7674 -1.3178 -0.7555
v  0.0626 0.5264 0.6890
v  -0.1182 0.4916 -0.6924
v  0.0589 -0.1316 -0.7945
v  -0.1431 -0.4656 -0.6579
v  0.4120 0.1449 -0.6368
v  2.3219 -7.6827 -0.0458
v  2.6012 -7.7153 -0.1275
v  2.6653 -7.8490 -0.1074
v  2.3603 -7.8226 -0.0393
v  2.6259 -8.2393 -0.1762
v  2.2831 -8.1352 -0.0823
v  2.6640 -8.6036 -0.1891
v  2.3210 -8.5307 -0.1029
v  2.6288 -8.7688 0.0080
v  2.5757 -8.6011 0.2823
v  2.5827 -8.2213 0.3237
v  2.5309 -7.8059 0.2710
v  2.4926 -7.6354 0.2653
v  2.3662 -7.8479 -0.4822
v  2.5554 -7.7078 -0.6157
v  2.6255 -7.8822 -0.6190
v  2.3916 -7.9252 -0.4905
v  2.6317 -7.7356 -0.2221
v  2.6951 -7.9468 -0.2431
v  2.4362 -7.9123 -0.4887
v  2.5931 -8.2983 -0.2380
v  2.3649 -8.5709 -0.5669
v  2.6552 -8.7498 -0.3488
v  2.6457 -8.8280 -0.5473
v  2.7127 -8.6740 -0.7529
v  2.6810 -8.2464 -0.7391
v  2.2268 -7.3286 -1.2476
v  2.4284 -7.2503 -1.4034
v  2.3103 -7.6339 -1.6165
v  2.1807 -7.6441 -1.3400
v  2.4447 -7.8647 -1.5864
v  2.2755 -7.9341 -1.3973
v  2.5557 -8.0264 -1.4129
v  2.6089 -7.9779 -1.2762
v  2.6106 -7.8058 -1.1674
v  2.4709 -7.3480 -1.1304
v  0.6730 0.2556 0.1588
v  0.0235 0.7051 0.2258
v  1.5493 -5.6212 -0.5174
v  1.6518 -5.4358 -0.4894
v  1.8186 -5.5632 -0.8362
v  1.7637 -5.3824 -0.6751
v  1.0492 -3.5973 -0.6892
v  0.9347 -3.2246 -0.6663
v  0.8017 -2.6491 -0.6113
v  0.4620 -1.6477 -0.7121
v  0.1748 -0.9077 -0.7262
v  -0.1006 -0.7671 -0.3874
v  -0.0110 -1.2901 -0.3683
v  0.1360 -1.7226 -0.3503
v  0.7121 -2.9748 -0.2141
v  0.8773 -3.6101 -0.2570
v  0.8109 -3.0273 -0.0174
v  0.2759 -1.7880 0.0395
v  0.0790 -1.2110 0.0900
v  1.2928 -6.9151 0.2112
v  1.6172 -7.1805 0.1567
v  1.5609 -7.6041 0.2268
v  1.1472 -7.3260 0.2807
v  1.5327 -6.7477 0.4594
v  1.4582 -7.2319 0.5921
v  1.8771 -6.8672 0.4645
v  1.8725 -7.2758 0.5790
v  1.6586 -7.5503 0.7719
v  1.4747 -7.7472 0.4304
v  1.1514 -7.6017 0.5533
v  1.3839 -7.4631 0.7404
v  1.3716 -7.6438 0.7687
v  2.8388 -7.3342 -0.8507
v  2.5477 -7.5990 -0.7042
v  2.6362 -7.7807 -0.7555
v  2.8889 -7.6203 -0.9111
v  2.6483 -8.0857 -0.7913
v  2.8423 -8.0256 -1.0340
v  2.7045 -8.3599 -0.8695
v  2.8608 -8.3722 -1.0744
v  2.5992 -8.4244 -1.0746
v  2.5267 -8.2193 -1.2298
v  2.4953 -7.9111 -1.2043
v  2.5224 -7.7201 -1.1043
v  2.5105 -7.4846 -1.0498
v  2.6159 -7.2239 -1.2384
v  2.6202 -7.6445 -1.3708
v  2.6897 -7.8620 -1.4156
v  2.2782 -7.5286 -0.8035
v  2.3543 -7.6260 -0.8317
v  2.3081 -8.0822 -0.9373
v  2.2560 -8.2205 -1.0090
v  2.8221 -7.5099 0.1344
v  2.9109 -7.8650 0.1042
v  2.8533 -8.2902 0.0865
v  2.8980 -8.6831 0.0941
v  2.9354 -7.5513 -0.3691
v  2.9604 -7.8275 -0.4027
v  2.8956 -8.3622 -0.4786
v  2.9203 -8.7754 -0.5202
v  2.0857 -5.3159 0.3526
v  2.2937 -5.3462 0.1959
v  2.3658 -5.6318 -0.0943
v  1.8185 -5.5823 -0.8445
v  1.2567 -5.3594 -0.4708
v  1.5491 -5.2013 -0.9399
v  1.5492 -5.6402 -0.5259
v  1.6314 -6.2149 -0.9816
v  1.9933 -6.8584 -1.0869
v  2.1686 -6.7319 -1.3024
v  2.0372 -7.0040 -0.7247
v  2.6259 -7.1261 -1.0002
v  2.6000 -7.3982 -0.6210
v  2.1185 -7.1471 -0.4174
v  2.5301 -7.5308 -0.1904
v  2.4153 -6.7317 0.2149
v  2.5347 -5.5718 -0.3105
v  2.6308 -5.1061 -0.2750
v  1.4236 -5.3755 0.0099
v  1.3470 -5.8900 0.0038
v  1.5772 -6.3707 0.4584
v  1.2906 -6.6282 0.0728
v  1.2854 -6.0472 -0.2616
v  1.8614 -6.2643 -0.5446
v  2.4420 -7.2440 0.2930
v  2.2075 -7.1228 -0.0242
v  1.6840 -6.8999 -0.0621
v  1.8859 -6.8027 -0.2025
v  1.3065 -6.6504 -0.1400
v  2.7391 -7.0220 0.1269
v  2.4963 -6.7991 -1.1393
v  2.2647 -5.1537 -0.8512
v  2.2268 -5.6997 -0.8290
v  2.8025 -6.9552 -0.3090
v  2.3310 -5.1877 -0.6908
v  2.3303 -5.6061 -0.7367
v  2.7317 -6.8549 -0.7606
v  2.8526 -5.1655 -0.3653
v  2.7308 -5.6447 -0.4122
v  1.9011 -6.6080 0.3704
# 177 vertices

vn 0.1996 0.6612 0.7231
vn -0.1498 0.7018 0.6965
vn 0.2327 0.8569 0.4600
vn 0.4692 0.5421 0.6971
vn 0.7582 0.5479 0.3535
vn 0.9051 0.4068 -0.1240
vn 0.8561 0.5097 -0.0852
vn 0.9103 0.2774 0.3074
vn 0.5805 0.6151 -0.5336
vn 0.7390 0.6421 -0.2037
vn 0.6108 0.2512 -0.7508
vn 0.9714 0.2300 -0.0587
vn 0.4696 0.3109 0.8263
vn -0.5156 0.1523 0.8432
vn 0.4950 0.0330 0.8683
vn -0.4108 -0.0032 0.9117
vn -0.2615 -0.2070 0.9428
vn -0.0710 -0.1371 0.9880
vn 0.6758 0.1311 0.7253
vn 0.6327 0.0994 0.7680
vn -0.2429 -0.2650 0.9332
vn 0.7273 0.0606 0.6836
vn -0.2049 -0.3107 0.9282
vn 0.6593 0.0111 0.7518
vn 0.2226 -0.3282 0.9180
vn 0.5201 0.2340 0.8214
vn 0.9673 0.2441 -0.0695
vn 0.9438 0.2475 -0.2190
vn 0.4795 0.1150 -0.8700
vn 0.9724 0.2077 0.1066
vn 0.9491 0.2876 -0.1284
vn 0.2639 0.0700 -0.9620
vn 0.3324 0.2693 -0.9039
vn 0.9283 0.3596 -0.0947
vn 0.5023 0.2801 -0.8181
vn 0.4908 0.1692 -0.8547
vn 0.3757 0.0576 -0.9250
vn 0.6305 0.4461 0.6352
vn 0.0827 -0.2757 0.9577
vn 0.0989 0.1391 -0.9853
vn -0.0733 0.0146 -0.9972
vn -0.0633 -0.2428 -0.9680
vn 0.5763 0.4200 -0.7011
vn 0.3999 0.3672 -0.8398
vn -0.2638 -0.1947 -0.9447
vn 0.3873 0.0556 -0.9203
vn 0.2582 -0.0033 -0.9661
vn -0.2125 0.0896 -0.9730
vn 0.3200 0.1166 -0.9402
vn -0.2368 0.0729 -0.9688
vn 0.0950 -0.3264 -0.9405
vn -0.2994 -0.3672 -0.8806
vn -0.5336 -0.6111 -0.5847
vn -0.1501 -0.9819 -0.1159
vn -0.8324 -0.4951 0.2489
vn -0.5516 -0.6288 0.5480
vn -0.8110 -0.3002 0.5022
vn -0.3079 -0.5326 0.7884
vn -0.6161 -0.0036 0.7877
vn -0.8355 0.0056 0.5494
vn -0.3061 0.0538 0.9505
vn -0.8689 -0.0795 0.4886
vn -0.5781 -0.1179 0.8074
vn -0.8437 -0.2086 0.4946
vn -0.4755 -0.1183 -0.8717
vn 0.1994 0.0734 -0.9772
vn 0.0650 0.1061 -0.9922
vn -0.1267 -0.5830 -0.8025
vn -0.3155 -0.1960 0.9285
vn -0.6089 -0.2798 0.7423
vn -0.3974 -0.6144 0.6816
vn 0.0564 -0.0563 0.9968
vn 0.2690 -0.8733 -0.4062
vn 0.0294 -0.8598 -0.5098
vn -0.2464 -0.6655 -0.7046
vn -0.0947 -0.1089 0.9895
vn -0.7536 0.1142 0.6474
vn -0.7404 -0.0123 0.6720
vn -0.9892 0.1299 -0.0683
vn -0.8303 -0.4762 0.2895
vn -0.0133 -0.5651 0.8249
vn -0.2555 -0.9541 -0.1564
vn -0.4580 -0.7220 0.5185
vn -0.4370 -0.3866 -0.8121
vn -0.9136 -0.4064 0.0123
vn -0.1931 -0.3340 -0.9226
vn -0.5128 -0.2456 -0.8227
vn -0.4622 -0.1814 -0.8680
vn -0.6635 0.0719 -0.7447
vn -0.7108 -0.1711 -0.6823
vn -0.1146 0.0499 -0.9922
vn 0.0864 0.1190 -0.9891
vn -0.8143 0.1007 -0.5716
vn 0.2675 -0.9485 0.1695
vn 0.2803 -0.9519 -0.1237
vn -0.2514 -0.8562 0.4513
vn -0.7761 0.3882 -0.4970
vn 0.2489 0.4168 -0.8743
vn -0.1410 0.2744 -0.9512
vn -0.8440 -0.1262 -0.5213
vn -0.8571 0.0967 -0.5060
vn -0.9225 -0.2655 0.2802
vn -0.3926 -0.5638 -0.7266
vn -0.5549 -0.4863 -0.6750
vn -0.1978 -0.4446 -0.8736
vn -0.5855 -0.8106 -0.0094
vn 0.2477 -0.9149 -0.3186
vn -0.4264 -0.7740 0.4680
vn 0.0948 -0.9913 -0.0917
vn 0.0673 -0.8691 0.4901
vn 0.0854 -0.5662 0.8199
vn -0.1968 -0.2589 0.9456
vn -0.6393 -0.3692 0.6746
vn -0.3753 -0.5898 0.7150
vn -0.1242 -0.1134 0.9858
vn -0.4371 -0.1934 0.8784
vn 0.8237 0.5584 0.0983
vn 0.6922 0.4687 0.5488
vn 0.6933 0.7162 -0.0799
vn 0.5154 0.3950 -0.7605
vn -0.7755 0.2355 0.5858
vn -0.7899 0.6019 -0.1179
vn -0.9739 0.0950 -0.2060
vn -0.5361 0.5200 -0.6650
vn -0.4311 0.1344 -0.8922
vn -0.3040 0.2227 -0.9263
vn -0.5261 -0.1523 -0.8367
vn -0.6416 -0.1358 -0.7549
vn -0.4577 -0.0924 -0.8843
vn -0.4752 -0.2203 -0.8518
vn -0.3991 -0.1642 -0.9021
vn -0.8394 -0.4172 -0.3483
vn -0.1988 -0.2990 -0.9333
vn -0.9337 -0.2800 -0.2234
vn -0.9161 -0.3862 -0.1075
vn -0.9286 -0.3134 -0.1988
vn -0.9331 -0.3482 0.0898
vn -0.5250 0.0091 -0.8511
vn -0.7219 -0.3189 0.6142
vn -0.7696 -0.3297 0.5469
vn -0.8263 -0.3160 0.4662
vn -0.0352 -0.3133 0.9490
vn -0.9537 -0.2589 -0.1534
vn -0.3052 -0.2680 0.9138
vn -0.2273 -0.1104 -0.9675
vn 0.5524 -0.1920 -0.8111
vn -0.0379 -0.3126 -0.9491
vn -0.4185 -0.4623 -0.7818
vn -0.5285 0.3334 0.7807
vn -0.7803 0.3627 0.5096
vn -0.7319 0.3882 0.5600
vn -0.3526 0.4422 0.8247
vn 0.0662 0.2609 0.9631
vn 0.0720 0.4449 0.8927
vn 0.8284 -0.1598 -0.5369
vn 0.8449 -0.3516 -0.4032
vn 0.3397 -0.5367 -0.7724
vn 0.6124 -0.6632 -0.4303
vn 0.6524 -0.7545 0.0715
vn 0.0814 -0.9949 -0.0595
vn -0.0699 -0.9747 -0.2125
vn -0.3221 -0.9219 -0.2152
vn -0.4728 -0.8478 -0.2402
vn -0.6996 0.4082 0.5865
vn -0.2848 0.4224 0.8605
vn 0.0054 0.3547 0.9350
vn -0.2848 -0.5314 0.7978
vn 0.1337 -0.0883 0.9871
vn -0.4813 -0.2677 0.8347
vn -0.7814 0.0905 0.6174
vn -0.7370 -0.6616 0.1383
vn 0.6117 -0.6779 0.4079
vn -0.0556 -0.7347 0.6761
vn 0.5127 -0.0499 0.8571
vn -0.1509 -0.3793 0.9129
vn 0.0745 -0.1744 0.9819
vn 0.6443 -0.1400 0.7519
vn 0.2008 -0.2266 0.9531
vn 0.7925 -0.1027 0.6012
vn 0.4651 -0.4427 0.7666
vn 0.6104 -0.6124 0.5024
vn 0.5760 -0.8175 -0.0001
vn 0.2777 -0.5878 0.7598
vn -0.1840 -0.9523 -0.2436
vn 0.4191 -0.4348 -0.7971
vn -0.3304 -0.1523 -0.9315
vn 0.3761 -0.1171 -0.9191
vn 0.1938 0.1717 -0.9659
vn 0.4625 0.2322 -0.8557
vn -0.0543 0.2825 -0.9577
vn 0.4083 0.2348 -0.8821
vn -0.2355 0.3173 -0.9186
vn 0.0340 0.2397 -0.9703
vn 0.4125 0.2568 -0.8740
vn 0.8668 0.0526 0.4959
vn 0.3451 -0.2505 0.9045
vn 0.9296 0.1852 -0.3186
vn 0.9864 0.1526 0.0618
vn 0.9414 0.0248 0.3363
vn 0.9609 -0.1940 0.1975
vn 0.9920 -0.0704 -0.1046
vn 0.7997 -0.3662 0.4757
vn 0.8737 -0.0994 -0.4761
vn 0.8088 -0.4872 0.3295
vn 0.7127 -0.1479 -0.6857
vn 0.3996 -0.7386 -0.5429
vn 0.0210 -0.3696 -0.9289
vn 0.3344 0.3915 -0.8572
vn 0.9097 0.1331 -0.3934
vn -0.8213 -0.2220 -0.5255
vn -0.3766 0.1854 -0.9076
vn -0.8929 -0.4368 -0.1095
vn -0.8541 0.0341 -0.5189
vn -0.7932 -0.4169 0.4439
vn -0.7229 -0.6401 0.2600
vn -0.5932 -0.4989 0.6318
vn -0.3736 -0.2043 0.9048
vn -0.3983 -0.5023 0.7675
vn -0.2153 -0.7882 0.5765
vn -0.5296 -0.6719 0.5177
vn -0.7622 -0.4814 -0.4328
vn -0.6309 -0.0559 -0.7738
vn -0.7766 0.2704 -0.5690
vn -0.0634 0.2429 -0.9680
vn -0.5342 0.1296 -0.8354
vn -0.8522 0.1502 -0.5012
vn -0.8639 -0.1731 -0.4730
vn 0.3690 0.0648 0.9272
vn 0.4940 0.0240 0.8691
vn -0.1802 -0.0535 0.9822
vn 0.6028 -0.0461 0.7966
vn 0.5750 -0.0160 0.8180
vn 0.4776 -0.3269 0.8155
vn 0.3618 -0.4508 0.8160
vn 0.1462 -0.3150 0.9378
vn 0.5106 -0.7496 0.4211
vn -0.0674 -0.4710 0.8795
vn 0.7349 -0.5018 -0.4562
vn 0.7184 -0.2052 -0.6646
vn 0.7264 0.0186 -0.6871
vn 0.6546 0.1235 -0.7459
vn 0.6510 0.2245 -0.7251
vn 0.4768 -0.0097 0.8789
vn 0.5608 -0.1295 0.8178
vn 0.1071 -0.1305 0.9856
vn 0.5782 -0.1156 0.8077
vn 0.8006 -0.0162 0.5990
vn 0.1986 -0.4412 0.8752
vn 0.4030 -0.5780 0.7096
vn 0.4229 -0.8508 0.3120
vn 0.6691 -0.5462 -0.5040
vn 0.6802 -0.2431 -0.6915
vn 0.2426 -0.2630 -0.9338
vn 0.5552 0.2054 -0.8060
vn 0.7238 0.1560 -0.6721
vn 0.9113 0.1160 -0.3952
vn 0.7875 0.1610 -0.5949
vn 0.2188 0.0818 -0.9723
vn 0.5125 0.1410 -0.8470
vn 0.4944 0.1489 -0.8564
vn 0.3510 0.0037 0.9364
vn -0.1387 -0.4470 0.8837
vn -0.1267 0.2303 0.9648
vn 0.7536 -0.2849 0.5924
vn 0.7225 -0.0033 0.6914
vn 0.8975 -0.1816 0.4018
vn -0.4318 -0.3429 -0.8343
vn -0.6734 -0.6515 -0.3493
vn -0.2654 -0.4065 -0.8742
vn -0.8798 -0.3144 -0.3566
vn -0.2535 0.0830 -0.9638
vn -0.0579 0.1754 -0.9828
vn -0.8608 -0.0618 -0.5052
vn -0.8067 -0.1626 -0.5682
vn -0.6844 -0.3132 -0.6584
vn -0.6322 0.0609 -0.7724
vn -0.2956 0.1351 -0.9457
vn -0.1544 0.1309 -0.9793
vn -0.6552 -0.1322 -0.7438
vn -0.0059 0.1884 -0.9821
vn -0.1297 0.2089 -0.9693
vn -0.2109 -0.0109 -0.9774
vn -0.7711 -0.4827 -0.4152
vn 0.4004 -0.0859 -0.9123
vn -0.6913 -0.2139 -0.6902
vn -0.8212 -0.4792 -0.3099
vn -0.0991 -0.2371 0.9664
vn -0.7889 -0.5822 0.1969
vn -0.3993 -0.3129 0.8618
vn -0.5712 -0.7048 0.4207
vn -0.7557 -0.6336 -0.1657
vn -0.8114 -0.5578 -0.1744
vn -0.8540 -0.5186 -0.0417
vn 0.1608 -0.0041 -0.9870
vn -0.7616 -0.5554 -0.3340
vn 0.0052 -0.5055 -0.8628
vn -0.5200 -0.1054 -0.8476
vn -0.1557 0.0469 -0.9867
vn -0.6083 -0.3438 0.7153
vn -0.4827 -0.3991 0.7796
vn -0.7519 -0.6344 0.1791
vn 0.0868 -0.1364 0.9868
vn 0.5796 0.3422 0.7396
vn 0.2263 0.0485 0.9729
vn 0.6221 -0.2297 0.7485
vn 0.6276 -0.1871 0.7557
vn -0.8643 -0.4263 -0.2669
vn -0.6521 -0.6772 0.3409
vn -0.9341 -0.0717 0.3498
vn -0.6441 -0.2304 0.7294
vn -0.8697 0.0565 0.4903
vn -0.7479 0.4205 0.5136
vn -0.7973 0.2058 0.5674
vn -0.4099 0.2659 0.8725
vn -0.9585 -0.1018 0.2664
vn -0.9282 0.1210 -0.3518
vn -0.9696 -0.2360 -0.0650
vn -0.8991 0.2316 0.3714
vn -0.8227 -0.3943 -0.4095
vn -0.8766 -0.4139 0.2455
vn -0.9731 -0.2302 0.0065
vn -0.8212 -0.5644 0.0836
vn -0.9039 -0.3283 -0.2743
vn -0.7765 -0.4316 -0.4592
vn -0.9402 -0.1767 -0.2913
vn -0.0883 -0.9948 -0.0499
vn -0.3726 -0.3267 0.8686
vn -0.1251 -0.7932 0.5960
vn -0.6302 -0.7540 0.1852
vn 0.2030 -0.5971 0.7760
vn -0.5708 -0.2710 0.7751
vn -0.9799 -0.1819 0.0819
vn -0.3379 -0.0479 0.9400
vn -0.3821 -0.2375 0.8931
vn -0.7237 -0.6476 0.2385
vn -0.8408 -0.1674 0.5148
vn -0.3968 -0.8533 -0.3383
vn -0.7324 -0.6639 -0.1510
vn -0.7942 -0.4819 0.3701
vn -0.2091 -0.9053 -0.3696
vn -0.6365 -0.6150 -0.4654
vn -0.6346 -0.7110 -0.3028
vn -0.6061 -0.5305 -0.5926
vn 0.4173 0.0372 0.9080
vn 0.7264 0.1234 0.6761
vn -0.0991 0.0281 0.9947
vn 0.3441 0.0729 0.9361
vn -0.0115 -0.0311 0.9995
vn 0.7381 0.0860 -0.6691
vn 0.4520 -0.2122 -0.8664
vn 0.9937 0.1058 -0.0356
vn 0.2701 -0.2158 -0.9383
vn 0.2746 0.2904 -0.9167
vn 0.7049 0.3736 -0.6029
vn 0.7271 0.3328 -0.6004
vn 0.8915 0.0002 -0.4531
vn 0.8729 0.1300 -0.4703
vn 0.8579 -0.4873 -0.1629
vn 0.9786 -0.2014 0.0416
vn 0.3391 -0.0187 -0.9406
vn 0.5958 0.0205 -0.8028
vn 0.6984 0.3495 -0.6246
vn 0.1559 0.2720 -0.9496
vn 0.0267 0.2642 -0.9641
vn 0.9287 -0.0098 0.3707
vn 0.0159 -0.4036 0.9148
vn 0.4329 0.0056 0.9014
vn 0.9674 -0.0331 0.2510
vn 0.9696 -0.0050 -0.2448
vn 0.4770 0.1928 -0.8575
vn 0.4213 0.0386 -0.9061
vn 0.8245 -0.2101 -0.5255
vn 0.9975 -0.0037 -0.0700
vn 0.7939 0.0026 -0.6081
vn 0.6195 0.0846 -0.7804
vn 0.8521 -0.1733 0.4938
vn 0.9714 0.1323 -0.1970
vn 0.9513 -0.2231 -0.2127
vn 0.4881 -0.0547 0.8711
vn 0.9976 0.0317 0.0620
vn 0.2474 -0.3126 0.9171
vn 0.6436 0.1148 -0.7567
vn 0.7695 0.0552 -0.6363
vn 0.9304 0.1451 -0.3365
vn 0.6928 -0.1453 -0.7063
vn 0.9345 0.3549 0.0262
vn 0.9957 0.0013 0.0925
vn -0.8030 0.1586 0.5745
vn -0.1524 0.1502 0.9768
vn -0.9791 -0.1808 0.0930
vn -0.8581 -0.3907 -0.3332
vn -0.0657 -0.4729 -0.8787
vn -0.4537 -0.3900 -0.8013
vn -0.9361 -0.2956 -0.1905
vn -0.4295 -0.7542 -0.4967
vn -0.5002 -0.4115 -0.7619
vn -0.4890 -0.8578 -0.1585
vn -0.7310 -0.3760 -0.5694
vn -0.8344 -0.5507 -0.0223
vn -0.0268 -0.3233 -0.9459
vn -0.7772 -0.2904 -0.5583
vn -0.4242 -0.2478 -0.8710
vn 0.8236 0.1383 0.5501
vn 0.9896 -0.0780 -0.1205
vn -0.3017 -0.0139 0.9533
vn -0.4049 -0.6464 0.6467
vn 0.3686 -0.1650 0.9148
vn 0.3960 -0.1886 0.8987
vn 0.3945 -0.0032 0.9189
vn -0.2152 -0.9748 -0.0585
vn 0.7056 -0.2329 0.6693
vn 0.8873 -0.3140 -0.3377
vn 0.1562 -0.8939 -0.4203
vn 0.8497 -0.2476 -0.4654
vn 0.5895 -0.4580 -0.6654
vn 0.2302 0.0670 0.9708
vn 0.1010 0.3312 0.9381
# 417 vertex normals

vt 0.9506 0.9325 0.0000
vt 0.9499 0.9311 0.0000
vt 0.9507 0.9326 0.0000
vt 0.9501 0.9315 0.0000
vt 0.9501 0.9314 0.0000
vt 0.9492 0.9296 0.0000
vt 0.9493 0.9298 0.0000
vt 0.9504 0.9322 0.0000
vt 0.9475 0.9262 0.0000
vt 0.9478 0.9266 0.0000
vt 0.9484 0.9278 0.0000
vt 0.9491 0.9293 0.0000
vt 0.9496 0.9305 0.0000
vt 0.9497 0.9307 0.0000
vt 0.9502 0.9318 0.0000
vt 0.9505 0.9323 0.0000
vt 0.9504 0.9321 0.0000
vt 0.9515 0.9344 0.0000
vt 0.9516 0.9344 0.0000
vt 0.9518 0.9349 0.0000
vt 0.9518 0.9350 0.0000
vt 0.9523 0.9360 0.0000
vt 0.9524 0.9363 0.0000
vt 0.9441 0.9958 0.0000
vt 0.9651 0.9877 0.0000
vt 0.9557 0.9941 0.0000
vt 0.9535 0.9895 0.0000
vt 0.9748 0.8941 0.0000
vt 0.9955 0.9957 0.0000
vt 0.9952 0.8942 0.0000
vt 0.9747 0.9957 0.0000
vt 0.9763 0.9879 0.0000
vt 0.9981 0.9756 0.0000
vt 0.9948 0.9878 0.0000
vt 0.9830 0.9796 0.0000
vt 0.9784 0.9804 0.0000
vt 0.9724 0.9892 0.0000
vt 0.9711 0.9957 0.0000
vt 0.9708 0.8941 0.0000
vt 0.9670 0.8941 0.0000
vt 0.9405 0.9984 0.0000
vt 0.9405 0.8942 0.0000
vt 0.9552 0.9958 0.0000
vt 0.9651 0.9882 0.0000
vt 0.9393 0.9933 0.0000
vt 0.9552 0.9941 0.0000
vt 0.9445 0.9807 0.0000
vt 0.9804 0.9422 0.0000
vt 0.9472 0.9051 0.0000
vt 0.9721 0.9434 0.0000
vt 0.9598 0.9220 0.0000
vt 0.9508 0.8941 0.0000
vt 0.9696 0.9235 0.0000
vt 0.9691 0.9178 0.0000
vt 0.9693 0.9181 0.0000
vt 0.9610 0.9132 0.0000
vt 0.9601 0.9113 0.0000
vt 0.9613 0.9135 0.0000
vt 0.9611 0.9125 0.0000
vt 0.9734 0.9391 0.0000
vt 0.9724 0.9381 0.0000
vt 0.9727 0.9384 0.0000
vt 0.9734 0.9392 0.0000
vt 0.9718 0.9374 0.0000
vt 0.9729 0.9387 0.0000
vt 0.9717 0.9372 0.0000
vt 0.9740 0.9399 0.0000
vt 0.9772 0.9437 0.0000
vt 0.9777 0.9443 0.0000
vt 0.9771 0.9436 0.0000
vt 0.9771 0.9435 0.0000
vt 0.9753 0.9441 0.0000
vt 0.9737 0.9424 0.0000
vt 0.9737 0.9423 0.0000
vt 0.9752 0.9440 0.0000
vt 0.9783 0.9475 0.0000
vt 0.9781 0.9472 0.0000
vt 0.9866 0.9509 0.0000
vt 0.9835 0.9473 0.0000
vt 0.9835 0.9474 0.0000
vt 0.9743 0.9430 0.0000
vt 0.9768 0.9458 0.0000
vt 0.9745 0.9432 0.0000
vt 0.9722 0.9405 0.0000
vt 0.9723 0.9407 0.0000
vt 0.9798 0.9408 0.0000
vt 0.9776 0.9385 0.0000
vt 0.9745 0.9352 0.0000
vt 0.9785 0.9394 0.0000
vt 0.9750 0.9357 0.0000
vt 0.9777 0.9386 0.0000
vt 0.9775 0.9384 0.0000
vt 0.9795 0.9404 0.0000
vt 0.9810 0.9421 0.0000
vt 0.9816 0.9427 0.0000
vt 0.9614 0.9211 0.0000
vt 0.9654 0.9139 0.0000
vt 0.9606 0.9203 0.0000
vt 0.9664 0.9178 0.0000
vt 0.9684 0.9096 0.0000
vt 0.9698 0.9094 0.0000
vt 0.9667 0.9201 0.0000
vt 0.9487 0.9286 0.0000
vt 0.9488 0.9288 0.0000
vt 0.9483 0.9276 0.0000
vt 0.9480 0.9270 0.0000
vt 0.9482 0.9275 0.0000
vt 0.9480 0.9272 0.0000
vt 0.9484 0.9280 0.0000
vt 0.9481 0.9273 0.0000
vt 0.9480 0.9271 0.0000
vt 0.9483 0.9277 0.0000
vt 0.9478 0.9267 0.0000
vt 0.9491 0.9294 0.0000
vt 0.9495 0.9303 0.0000
vt 0.9505 0.9324 0.0000
vt 0.9921 0.9571 0.0000
vt 0.9915 0.9564 0.0000
vt 0.9924 0.9573 0.0000
vt 0.9930 0.9580 0.0000
vt 0.9952 0.9606 0.0000
vt 0.9969 0.9625 0.0000
vt 0.9953 0.9607 0.0000
vt 0.9967 0.9623 0.0000
vt 0.9991 0.9650 0.0000
vt 0.9949 0.9602 0.0000
vt 0.9964 0.9619 0.0000
vt 0.9987 0.9645 0.0000
vt 0.9991 0.9649 0.0000
vt 0.9527 0.9710 0.0000
vt 0.9610 0.9892 0.0000
vt 0.9674 0.9865 0.0000
vt 0.9631 0.9695 0.0000
vt 0.9841 0.9930 0.0000
vt 0.9836 0.9649 0.0000
vt 0.9929 0.9895 0.0000
vt 0.9940 0.9640 0.0000
vt 0.9973 0.9620 0.0000
vt 0.9946 0.9394 0.0000
vt 0.9865 0.9370 0.0000
vt 0.9705 0.9444 0.0000
vt 0.9626 0.9439 0.0000
vt 0.9503 0.9729 0.0000
vt 0.9512 0.9901 0.0000
vt 0.9702 0.9967 0.0000
vt 0.9729 0.9648 0.0000
vt 0.9942 0.9812 0.0000
vt 0.9866 0.9663 0.0000
vt 0.9968 0.9622 0.0000
vt 0.9968 0.9444 0.0000
vt 0.9851 0.9405 0.0000
vt 0.9627 0.9504 0.0000
vt 0.9796 0.9430 0.0000
vt 0.9766 0.9395 0.0000
vt 0.9759 0.9387 0.0000
vt 0.9793 0.9426 0.0000
vt 0.9809 0.9444 0.0000
vt 0.9803 0.9437 0.0000
vt 0.9780 0.9411 0.0000
vt 0.9798 0.9432 0.0000
vt 0.9771 0.9400 0.0000
vt 0.9788 0.9421 0.0000
vt 0.9763 0.9391 0.0000
vt 0.9744 0.9370 0.0000
vt 0.9747 0.9374 0.0000
vt 0.9502 0.9672 0.0000
vt 0.9529 0.9891 0.0000
vt 0.9587 0.9890 0.0000
vt 0.9594 0.9670 0.0000
vt 0.9798 0.9944 0.0000
vt 0.9793 0.9667 0.0000
vt 0.9903 0.9921 0.0000
vt 0.9942 0.9639 0.0000
vt 0.9966 0.9643 0.0000
vt 0.9896 0.9398 0.0000
vt 0.9794 0.9383 0.0000
vt 0.9601 0.9481 0.0000
vt 0.9555 0.9478 0.0000
vt 0.9503 0.9696 0.0000
vt 0.9533 0.9910 0.0000
vt 0.9604 0.9887 0.0000
vt 0.9614 0.9691 0.0000
vt 0.9777 0.9933 0.0000
vt 0.9841 0.9655 0.0000
vt 0.9908 0.9868 0.0000
vt 0.9931 0.9672 0.0000
vt 0.9964 0.9672 0.0000
vt 0.9963 0.9439 0.0000
vt 0.9853 0.9383 0.0000
vt 0.9670 0.9501 0.0000
vt 0.9609 0.9507 0.0000
vt 0.7730 0.8709 0.0000
vt 0.7794 0.8712 0.0000
vt 0.7732 0.8709 0.0000
vt 0.7755 0.8711 0.0000
vt 0.7685 0.8707 0.0000
vt 0.7683 0.8707 0.0000
vt 0.7737 0.8371 0.0000
vt 0.7859 0.8372 0.0000
vt 0.7704 0.8371 0.0000
vt 0.7842 0.8372 0.0000
vt 0.7713 0.8371 0.0000
vt 0.7691 0.8370 0.0000
vt 0.7657 0.8370 0.0000
vt 0.7586 0.8370 0.0000
vt 0.7604 0.8370 0.0000
vt 0.7553 0.8369 0.0000
vt 0.7671 0.8370 0.0000
vt 0.7777 0.8371 0.0000
vt 0.7687 0.8370 0.0000
vt 0.7752 0.8371 0.0000
vt 0.7785 0.8371 0.0000
vt 0.7813 0.8371 0.0000
vt 0.7879 0.8372 0.0000
vt 0.7815 0.8371 0.0000
vt 0.7858 0.8372 0.0000
vt 0.7956 0.8373 0.0000
vt 0.7945 0.8373 0.0000
vt 0.7714 0.8709 0.0000
vt 0.7760 0.8711 0.0000
vt 0.7504 0.9363 0.0000
vt 0.7342 0.9250 0.0000
vt 0.7452 0.9231 0.0000
vt 0.7348 0.9360 0.0000
vt 0.8019 0.8373 0.0000
vt 0.7972 0.8373 0.0000
vt 0.8134 0.8374 0.0000
vt 0.8052 0.8373 0.0000
vt 0.8017 0.8373 0.0000
vt 0.8169 0.8374 0.0000
vt 0.8040 0.8373 0.0000
vt 0.7929 0.8372 0.0000
vt 0.7837 0.8372 0.0000
vt 0.7644 0.8370 0.0000
vt 0.8116 0.8374 0.0000
vt 0.8003 0.8373 0.0000
vt 0.8107 0.8374 0.0000
vt 0.8010 0.8373 0.0000
vt 0.7996 0.8373 0.0000
vt 0.7950 0.8373 0.0000
vt 0.7970 0.8373 0.0000
vt 0.8109 0.8763 0.0000
vt 0.6995 0.8574 0.0000
vt 0.6996 0.8767 0.0000
vt 0.8109 0.8575 0.0000
vt 0.6995 0.8364 0.0000
vt 0.8109 0.8368 0.0000
vt 0.8109 0.8670 0.0000
vt 0.7116 0.8503 0.0000
vt 0.7116 0.8660 0.0000
vt 0.8109 0.8513 0.0000
vt 0.8109 0.8351 0.0000
vt 0.7116 0.8337 0.0000
vt 0.7496 0.8698 0.0000
vt 0.7497 0.8698 0.0000
vt 0.7472 0.8697 0.0000
vt 0.7479 0.8697 0.0000
vt 0.7501 0.8698 0.0000
vt 0.7498 0.8698 0.0000
vt 0.7425 0.8694 0.0000
vt 0.7384 0.8692 0.0000
vt 0.7159 0.8742 0.0000
vt 0.8476 0.8543 0.0000
vt 0.8390 0.8743 0.0000
vt 0.7177 0.8541 0.0000
vt 0.7167 0.8728 0.0000
vt 0.8390 0.8728 0.0000
vt 0.7789 0.8371 0.0000
vt 0.7743 0.8371 0.0000
vt 0.7736 0.8371 0.0000
vt 0.7774 0.8371 0.0000
vt 0.7186 0.8725 0.0000
vt 0.8449 0.8529 0.0000
vt 0.8413 0.8728 0.0000
vt 0.7176 0.8526 0.0000
vt 0.8392 0.8715 0.0000
vt 0.7173 0.8714 0.0000
vt 0.7519 0.8699 0.0000
vt 0.7460 0.8696 0.0000
vt 0.7622 0.8704 0.0000
vt 0.7631 0.8704 0.0000
vt 0.7554 0.8701 0.0000
vt 0.8086 0.8374 0.0000
vt 0.8069 0.8374 0.0000
vt 0.7977 0.8373 0.0000
vt 0.7739 0.8710 0.0000
vt 0.7660 0.8706 0.0000
vt 0.7780 0.8712 0.0000
vt 0.7690 0.8707 0.0000
vt 0.7972 0.8191 0.0000
vt 0.8002 0.8191 0.0000
vt 0.7945 0.8191 0.0000
vt 0.8023 0.8191 0.0000
vt 0.7640 0.8589 0.0000
vt 0.7640 0.8723 0.0000
vt 0.8974 0.8766 0.0000
vt 0.7191 0.8756 0.0000
vt 0.7191 0.8603 0.0000
vt 0.7192 0.8402 0.0000
vt 0.7640 0.8398 0.0000
vt 0.8939 0.8347 0.0000
vt 0.9208 0.8549 0.0000
# 302 texture coords

o crash_brazo_izquierdo
g crash_brazo_izquierdo
usemtl Crash_08___Default
s 1
f 1/1/1 2/2/2 3/3/3 
f 1/1/1 4/4/4 2/2/2 
f 5/5/5 4/4/4 1/1/1 
f 5/5/5 6/6/6 4/4/4 
f 5/5/5 7/7/7 6/6/6 
f 8/8/8 7/7/7 5/5/5 
f 9/9/9 7/7/7 10/10/10 
f 9/9/9 6/6/6 7/7/7 
f 11/11/11 6/6/6 9/9/9 
f 12/12/12 6/6/6 11/11/11 
f 12/12/12 4/4/4 6/6/6 
f 13/13/13 4/4/4 12/12/12 
f 13/13/13 2/2/2 4/4/4 
f 13/13/13 14/14/14 2/2/2 
f 15/15/15 14/14/16 13/13/13 
f 15/15/15 16/16/17 14/14/16 
f 15/15/15 17/1/18 16/16/17 
f 18/17/19 17/1/18 15/15/15 
f 19/8/20 17/1/18 18/17/19 
f 19/8/20 20/18/21 17/1/18 
f 21/19/22 20/18/21 19/8/20 
f 21/19/22 22/20/23 20/18/21 
f 23/21/24 22/20/23 21/19/22 
f 23/21/24 24/22/25 22/20/23 
f 25/23/26 24/22/25 23/21/24 
f 26/24/27 21/25/22 27/26/28 
f 26/24/27 23/27/24 21/25/22 
f 28/28/29 12/29/12 11/30/11 
f 29/31/30 12/29/12 28/28/29 
f 29/32/30 13/33/13 12/34/12 
f 29/32/30 15/35/15 13/33/13 
f 29/32/30 18/36/19 15/35/15 
f 29/32/30 30/37/31 18/36/19 
f 28/28/29 30/38/31 29/31/30 
f 31/39/32 30/38/31 28/28/29 
f 32/40/33 30/38/31 31/39/32 
f 32/40/33 33/41/34 30/38/31 
f 34/42/35 33/41/34 32/40/33 
f 27/43/28 33/41/34 34/42/35 
f 21/44/22 33/45/34 27/46/28 
f 19/47/20 33/45/34 21/44/22 
f 19/47/20 30/37/31 33/45/34 
f 18/36/19 30/37/31 19/47/20 
f 27/48/28 35/49/36 26/50/27 
f 27/48/28 36/51/37 35/49/36 
f 34/42/35 36/52/37 27/43/28 
f 37/53/38 24/54/39 25/55/26 
f 38/56/40 39/57/41 40/58/42 
f 41/59/43 39/57/41 38/56/44 
f 42/60/45 43/61/46 44/62/47 
f 45/63/48 42/60/45 44/62/47 
f 45/63/48 44/62/47 46/64/49 
f 47/65/50 45/63/48 46/64/49 
f 47/65/50 46/64/49 48/66/51 
f 49/62/52 47/65/50 48/66/51 
f 49/62/53 48/66/51 50/67/54 
f 49/62/55 50/67/54 51/68/56 
f 49/62/57 51/68/58 52/69/59 
f 47/65/60 49/62/57 52/69/59 
f 47/65/60 52/69/59 53/70/61 
f 45/63/62 47/65/60 53/70/61 
f 45/63/62 53/70/61 54/71/63 
f 42/60/64 45/63/62 54/71/63 
f 55/72/65 56/73/66 57/74/67 
f 55/72/65 57/74/67 58/75/68 
f 59/76/69 55/72/70 58/75/71 
f 60/77/72 59/76/69 58/75/71 
f 60/78/73 58/79/74 61/80/75 
f 62/77/76 60/77/72 61/75/77 
f 62/77/78 61/75/79 63/81/80 
f 64/82/81 62/77/76 63/81/80 
f 65/83/82 64/82/83 63/81/80 
f 66/84/84 65/83/82 63/81/85 
f 66/84/86 63/81/87 61/75/88 
f 67/85/89 66/84/84 61/75/90 
f 57/74/91 67/85/92 61/75/93 
f 57/74/94 61/75/95 58/75/96 
f 68/86/97 69/87/98 70/88/99 
f 71/89/100 68/86/97 70/88/101 
f 71/89/102 70/88/101 72/90/103 
f 73/91/104 71/89/100 72/90/105 
f 73/91/106 72/90/105 74/92/107 
f 73/91/108 74/92/109 75/93/110 
f 73/91/108 75/93/111 76/94/112 
f 71/89/113 73/91/114 76/94/112 
f 71/89/113 76/94/112 77/95/115 
f 68/86/116 71/89/113 77/95/115 
f 41/96/43 26/97/27 35/98/36 
f 78/99/117 26/97/27 41/96/43 
f 78/99/117 23/100/24 26/97/27 
f 78/99/117 25/101/26 23/100/24 
f 78/99/117 37/53/118 25/101/26 
f 78/99/117 79/102/119 37/53/118 
f 41/96/43 79/102/119 78/99/117 
f 38/56/120 79/102/119 41/96/43 
f 14/14/121 80/103/122 2/2/2 
f 81/104/123 80/103/122 14/14/14 
f 81/104/123 82/10/124 80/103/122 
f 83/105/125 82/10/124 81/104/123 
f 83/105/126 9/9/9 82/10/124 
f 83/105/125 11/11/11 9/9/9 
f 83/105/125 28/106/29 11/11/11 
f 84/107/127 28/106/29 83/105/125 
f 84/107/127 31/108/32 28/106/29 
f 85/105/128 31/108/32 84/107/127 
f 85/105/128 32/106/33 31/108/32 
f 86/109/129 32/106/33 85/105/128 
f 86/109/129 34/105/35 32/106/33 
f 86/109/129 36/106/37 34/105/35 
f 87/110/130 36/106/37 86/109/129 
f 87/110/130 35/106/36 36/106/37 
f 88/111/131 35/106/36 87/110/130 
f 88/111/131 41/112/43 35/106/36 
f 88/111/131 39/113/41 41/112/43 
f 88/111/131 40/107/42 39/113/41 
f 88/111/131 89/12/132 40/107/133 
f 88/111/131 90/114/134 89/12/132 
f 87/110/130 90/114/134 88/111/131 
f 87/110/130 91/6/135 90/114/134 
f 87/110/130 92/13/136 91/6/135 
f 86/109/129 92/13/136 87/110/130 
f 85/105/128 92/13/136 86/109/129 
f 85/105/128 93/115/137 92/13/136 
f 84/107/127 93/115/137 85/105/128 
f 83/105/138 93/115/137 84/107/127 
f 81/104/123 93/115/137 83/105/125 
f 14/14/14 93/115/137 81/104/123 
f 16/16/17 93/115/137 14/14/14 
f 16/16/17 94/15/139 93/115/137 
f 17/1/18 94/15/139 16/16/17 
f 17/1/18 95/17/140 94/15/139 
f 20/18/21 95/17/140 17/1/18 
f 20/18/21 96/116/141 95/17/140 
f 22/20/23 96/116/141 20/18/21 
f 24/22/142 96/116/141 22/20/23 
f 89/12/143 96/116/141 24/22/144 
f 90/114/134 96/116/141 89/12/143 
f 90/114/134 95/17/140 96/116/141 
f 91/6/135 95/17/140 90/114/134 
f 91/6/135 94/15/139 95/17/140 
f 92/13/136 94/15/139 91/6/135 
f 92/13/136 93/115/137 94/15/139 
f 97/117/145 98/118/146 99/119/147 
f 97/117/145 99/119/147 100/120/148 
f 101/121/149 97/117/150 100/120/151 
f 101/121/149 100/120/151 102/122/152 
f 103/123/153 101/121/149 102/122/152 
f 103/123/153 102/122/152 104/124/154 
f 98/118/146 103/123/155 104/124/156 
f 99/119/157 98/118/146 104/124/156 
f 99/119/158 104/124/156 105/125/159 
f 99/119/158 105/125/159 106/126/160 
f 100/120/148 99/119/157 106/126/161 
f 100/120/148 106/126/162 107/127/163 
f 102/122/152 100/120/151 107/127/164 
f 102/122/152 107/127/164 108/128/165 
f 104/124/154 102/122/152 108/128/165 
f 105/125/166 104/124/154 108/128/165 
f 109/129/167 105/125/168 108/128/165 
f 109/129/169 108/128/165 107/127/170 
f 109/129/167 107/127/171 106/126/161 
f 105/125/172 109/129/173 106/126/161 
f 110/130/174 111/131/175 112/132/176 
f 113/133/177 110/130/174 112/132/176 
f 113/133/177 112/132/176 114/134/178 
f 115/135/179 113/133/177 114/134/178 
f 115/135/179 114/134/178 116/136/180 
f 117/137/181 115/135/179 116/136/180 
f 117/137/182 116/136/183 118/138/184 
f 117/137/185 118/138/184 119/139/186 
f 117/137/187 119/139/186 120/140/188 
f 115/135/189 117/137/187 120/140/188 
f 115/135/189 120/140/188 121/141/190 
f 113/133/191 115/135/189 121/141/192 
f 113/133/191 121/141/192 122/142/193 
f 110/130/194 113/133/191 122/142/193 
f 123/143/195 77/144/115 76/145/196 
f 124/146/197 123/143/198 76/145/199 
f 124/146/197 76/145/199 75/147/200 
f 125/148/201 124/146/197 75/147/202 
f 125/148/203 75/147/204 74/149/107 
f 125/148/205 74/149/206 72/150/105 
f 125/148/205 72/150/207 70/151/208 
f 124/146/197 125/148/203 70/151/208 
f 124/146/197 70/151/208 69/152/98 
f 123/143/209 124/146/197 69/152/98 
f 126/153/210 122/154/193 121/155/211 
f 126/153/212 121/155/213 127/156/214 
f 111/157/175 126/153/215 127/156/216 
f 112/158/176 111/157/175 127/156/216 
f 112/158/176 127/156/216 128/159/217 
f 114/160/178 112/158/176 128/159/217 
f 114/160/178 128/159/217 129/161/218 
f 116/162/183 114/160/178 129/161/218 
f 118/163/184 116/162/219 129/161/220 
f 119/164/186 118/163/184 129/161/221 
f 119/164/186 129/161/222 128/159/223 
f 120/165/224 119/164/186 128/159/223 
f 121/155/225 120/165/226 128/159/223 
f 121/155/211 128/159/223 127/156/227 
f 130/166/228 54/167/63 53/168/61 
f 131/169/229 130/166/228 53/168/61 
f 131/169/229 53/168/61 52/170/230 
f 132/171/231 131/169/229 52/170/232 
f 132/171/231 52/170/232 51/172/233 
f 133/173/234 132/171/231 51/172/235 
f 133/173/236 51/172/237 50/174/54 
f 133/173/238 50/174/54 48/175/51 
f 133/173/239 48/175/51 46/176/49 
f 132/171/240 133/173/239 46/176/49 
f 132/171/240 46/176/49 44/177/47 
f 131/169/241 132/171/240 44/177/47 
f 131/169/241 44/177/47 43/178/46 
f 130/166/242 131/169/241 43/178/46 
f 134/179/243 59/180/69 60/181/72 
f 135/182/244 134/179/243 60/181/72 
f 135/182/244 60/181/72 62/183/245 
f 136/184/246 135/182/244 62/183/245 
f 136/184/247 62/183/245 64/185/248 
f 137/186/249 136/184/246 64/185/248 
f 137/186/250 64/185/81 65/187/82 
f 137/186/251 65/187/82 66/188/86 
f 137/186/252 66/188/253 67/189/254 
f 136/184/255 137/186/252 67/189/254 
f 136/184/256 67/189/257 57/190/258 
f 135/182/259 136/184/255 57/190/67 
f 135/182/259 57/190/67 56/191/66 
f 134/179/260 135/182/259 56/191/66 
f 1/192/261 138/193/262 3/194/263 
f 1/192/261 139/195/264 138/193/262 
f 5/196/265 139/195/264 1/192/261 
f 5/196/265 140/197/266 139/195/264 
f 141/198/267 142/199/268 143/200/269 
f 141/198/267 144/201/270 142/199/268 
f 9/202/271 144/201/270 141/198/267 
f 9/202/272 145/203/273 144/201/274 
f 9/202/272 146/204/275 145/203/276 
f 147/205/277 146/204/275 9/202/278 
f 147/205/277 68/206/279 146/204/275 
f 69/207/280 68/206/279 147/205/281 
f 122/208/282 148/209/283 149/210/284 
f 126/211/285 148/209/286 122/208/282 
f 111/212/287 148/209/288 126/211/289 
f 150/213/290 148/209/288 111/212/287 
f 150/213/291 151/214/292 148/209/293 
f 56/215/294 151/214/295 150/213/296 
f 55/216/297 151/214/295 56/215/298 
f 55/216/299 152/217/300 151/214/301 
f 59/218/302 152/217/300 55/216/299 
f 8/219/303 1/192/261 153/220/304 
f 8/219/303 5/196/265 1/192/261 
f 139/221/264 154/222/305 155/223/306 
f 139/221/264 140/224/266 154/222/305 
f 144/201/307 156/225/308 142/199/268 
f 2/226/309 156/225/308 144/201/270 
f 2/226/310 138/227/262 156/225/308 
f 2/226/311 3/228/263 138/227/262 
f 157/229/312 3/228/263 2/226/313 
f 157/229/312 158/230/314 3/228/263 
f 157/229/312 159/231/315 158/230/314 
f 157/229/312 160/232/316 159/231/317 
f 2/226/318 160/232/316 157/229/312 
f 144/201/270 160/232/316 2/226/318 
f 144/201/270 161/233/319 160/232/316 
f 145/203/320 161/233/319 144/201/307 
f 145/203/321 148/209/322 161/233/323 
f 146/204/324 148/209/293 145/203/325 
f 146/204/324 149/210/326 148/209/293 
f 68/206/327 149/210/328 146/204/329 
f 68/206/327 77/234/330 149/210/328 
f 162/235/331 42/236/332 54/237/333 
f 162/235/334 163/238/335 42/236/336 
f 164/239/337 163/238/338 162/235/339 
f 164/239/340 165/240/341 163/238/342 
f 166/241/343 165/240/341 164/239/340 
f 54/242/344 167/243/345 162/244/346 
f 130/245/347 167/243/345 54/242/348 
f 130/245/349 152/246/350 167/243/351 
f 43/247/352 152/246/350 130/245/349 
f 147/248/353 123/249/354 69/250/280 
f 168/251/355 123/249/354 147/248/281 
f 149/252/356 123/249/357 168/251/355 
f 149/252/358 77/253/330 123/249/359 
f 169/254/360 141/255/267 143/256/269 
f 169/254/360 9/257/272 141/255/267 
f 170/258/361 9/257/272 169/254/360 
f 10/259/362 9/257/272 170/258/361 
f 168/260/355 9/257/363 10/259/362 
f 168/260/355 147/261/281 9/257/364 
f 59/262/302 171/263/365 152/264/366 
f 134/265/367 171/263/368 59/262/302 
f 56/266/294 171/263/369 134/265/370 
f 56/266/371 150/267/372 171/263/373 
f 172/268/374 170/269/361 169/270/360 
f 172/268/374 173/271/375 170/269/361 
f 111/272/376 174/273/377 150/274/378 
f 110/275/379 174/273/380 111/272/381 
f 110/275/382 149/276/383 174/273/384 
f 122/277/282 149/276/385 110/275/382 
f 168/260/355 174/278/384 149/279/383 
f 10/259/362 174/278/384 168/260/355 
f 7/280/386 174/278/377 10/259/362 
f 171/281/387 174/278/377 7/280/386 
f 171/281/387 150/282/378 174/278/377 
f 158/230/314 97/283/388 101/230/389 
f 159/231/390 97/283/388 158/230/314 
f 159/231/391 98/284/392 97/283/393 
f 159/231/394 164/239/395 98/284/396 
f 159/231/317 166/241/343 164/239/397 
f 160/232/316 166/241/343 159/231/317 
f 161/233/319 166/241/343 160/232/316 
f 161/233/398 165/240/341 166/241/343 
f 148/209/293 165/240/341 161/233/319 
f 151/214/292 165/240/341 148/209/293 
f 151/214/292 163/238/338 165/240/341 
f 152/217/399 163/238/338 151/214/292 
f 152/217/400 42/236/401 163/238/342 
f 43/285/352 42/236/402 152/217/400 
f 171/281/387 167/286/403 152/287/404 
f 7/280/386 167/286/403 171/281/387 
f 8/219/303 167/286/403 7/280/386 
f 153/220/304 167/286/345 8/219/303 
f 153/220/304 162/288/405 167/286/345 
f 164/289/406 162/288/405 153/220/304 
f 175/290/407 154/291/305 176/292/408 
f 175/290/407 155/293/306 154/291/305 
f 177/294/409 164/295/410 153/296/304 
f 177/294/411 98/297/412 164/295/413 
f 177/294/412 103/298/414 98/297/415 
f 177/294/416 101/299/389 103/298/417 
f 177/294/409 158/300/314 101/299/389 
f 177/294/409 3/301/263 158/300/314 
f 177/294/416 1/302/261 3/301/263 
f 153/296/304 1/302/261 177/294/409 
# 0 polygons - 334 triangles

